<?xml version="1.0" encoding="utf-8"?>
<!-- Generator: Adobe Illustrator 12.0.0, SVG Export Plug-In  -->
<!DOCTYPE svg PUBLIC "-//W3C//DTD SVG 1.1//EN" "http://www.w3.org/Graphics/SVG/1.1/DTD/svg11.dtd" [
	<!ENTITY ns_flows "http://ns.adobe.com/Flows/1.0/">
	<!ENTITY ns_svg "http://www.w3.org/2000/svg">
	<!ENTITY ns_xlink "http://www.w3.org/1999/xlink">
]>
<svg  version="1.1" xmlns="&ns_svg;" xmlns:xlink="&ns_xlink;" xmlns:a="http://ns.adobe.com/AdobeSVGViewerExtensions/3.0/"
	 width="101" height="28" viewBox="-0.41 -0.92 101 28" enable-background="new -0.41 -0.92 101 28" xml:space="preserve">
<defs>
</defs>
<path fill="#404040" d="M25.02,13.19c0,6.52-5.3,11.82-11.82,11.82c-6.52,0-11.82-5.3-11.82-11.82c0-6.52,5.3-11.82,11.82-11.82
	C19.71,1.37,25.02,6.68,25.02,13.19z M13.2,0C5.92,0,0,5.92,0,13.19c0,7.28,5.92,13.2,13.2,13.2s13.19-5.92,13.19-13.2
	C26.39,5.92,20.47,0,13.2,0z"/>
<polygon fill="#404040" points="28.11,14.87 3.96,17.6 4.76,18.53 6.58,11.69 6.01,12.22 24.69,8.58 24.41,7.13 5.72,10.77 
	5.27,10.86 5.15,11.31 3.33,18.14 3.05,19.19 4.13,19.07 28.28,16.34 "/>
<polygon fill="#FFFFFF" points="30.7,15.14 8.6,19.93 6.55,11.27 27.05,7.4 "/>
<path fill="#404040" d="M30.54,14.42l-22.1,4.78l0.88,0.55L7.27,11.1L6.69,12l20.5-3.87l-0.81-0.41l3.64,7.75L30.54,14.42z
	 M26.92,6.67l-20.5,3.87l-0.76,0.14l0.18,0.76l2.05,8.66l0.17,0.71l0.71-0.15l22.1-4.78l0.91-0.2l-0.4-0.84l-3.64-7.75l-0.24-0.52
	L26.92,6.67z"/>
<polygon fill="#404040" points="13.95,14.23 12.73,14.86 12.56,16.21 11.59,15.25 10.25,15.5 10.86,14.28 10.21,13.08 11.56,13.29 
	12.5,12.3 12.71,13.65 "/>
<path fill="#404040" d="M16.27,14.5l9.57-2.05l0,0c0.4-0.09,0.65-0.48,0.57-0.88s-0.48-0.65-0.88-0.57l0,0l-9.57,2.05l0,0
	c-0.4,0.08-0.65,0.48-0.57,0.88C15.48,14.33,15.87,14.59,16.27,14.5L16.27,14.5z"/>
<path fill="#404040" d="M44.87,10.06c-0.1,0.01-0.24,0.03-0.43,0.06s-0.35,0.1-0.5,0.21c-0.13,0.1-0.23,0.26-0.28,0.5
	s-0.08,0.58-0.08,1.04v5.45h-0.96l-4.76-5.9v3.58c0,0.44,0.03,0.78,0.09,1.01s0.15,0.4,0.29,0.51c0.1,0.08,0.25,0.15,0.46,0.21
	c0.21,0.06,0.38,0.1,0.5,0.12v0.42h-3.27v-0.42c0.14-0.01,0.3-0.04,0.48-0.08s0.33-0.11,0.45-0.19c0.14-0.1,0.23-0.26,0.29-0.47
	c0.05-0.21,0.08-0.56,0.08-1.06v-3.61c0-0.18-0.03-0.35-0.08-0.51c-0.06-0.16-0.14-0.3-0.26-0.41c-0.13-0.12-0.27-0.22-0.43-0.29
	c-0.16-0.07-0.35-0.12-0.56-0.16V9.64h2.87l4.18,5.17v-2.89c0-0.46-0.03-0.8-0.09-1.03s-0.16-0.39-0.29-0.5
	c-0.1-0.08-0.26-0.15-0.46-0.21c-0.2-0.06-0.37-0.1-0.49-0.12V9.64h3.27V10.06z"/>
<path fill="#404040" d="M51.21,17.16c-0.16,0.07-0.34,0.13-0.56,0.19c-0.21,0.06-0.44,0.09-0.68,0.09c-0.44,0-0.76-0.07-0.97-0.2
	c-0.21-0.13-0.35-0.32-0.42-0.56h-0.03c-0.12,0.12-0.24,0.23-0.35,0.31s-0.23,0.16-0.36,0.22c-0.17,0.08-0.33,0.14-0.49,0.18
	c-0.16,0.04-0.37,0.06-0.65,0.06c-0.42,0-0.77-0.12-1.07-0.37s-0.44-0.57-0.44-0.98c0-0.23,0.03-0.43,0.1-0.59
	c0.06-0.16,0.16-0.31,0.27-0.43c0.11-0.12,0.23-0.21,0.38-0.29c0.14-0.08,0.3-0.15,0.47-0.21c0.32-0.12,0.71-0.24,1.16-0.37
	c0.45-0.13,0.78-0.24,0.99-0.34v-0.52c0-0.09-0.01-0.21-0.02-0.35c-0.02-0.15-0.04-0.27-0.09-0.37c-0.05-0.12-0.13-0.21-0.24-0.29
	c-0.11-0.08-0.25-0.12-0.43-0.12c-0.16,0-0.29,0.02-0.4,0.07c-0.11,0.04-0.19,0.09-0.26,0.14c0.01,0.07,0.04,0.18,0.09,0.33
	c0.05,0.15,0.08,0.29,0.08,0.42c0,0.06-0.02,0.14-0.05,0.23c-0.03,0.09-0.08,0.16-0.14,0.22c-0.08,0.07-0.17,0.13-0.28,0.17
	c-0.1,0.04-0.26,0.06-0.47,0.06c-0.3,0-0.53-0.07-0.68-0.22c-0.15-0.14-0.23-0.33-0.23-0.57c0-0.2,0.08-0.38,0.24-0.54
	c0.16-0.16,0.36-0.29,0.58-0.39c0.23-0.11,0.49-0.19,0.78-0.25c0.29-0.06,0.57-0.09,0.82-0.09c0.35,0,0.67,0.02,0.96,0.06
	c0.29,0.04,0.55,0.13,0.79,0.25c0.22,0.13,0.4,0.31,0.53,0.55c0.13,0.24,0.2,0.55,0.2,0.93c0,0.41-0.01,0.89-0.02,1.44
	s-0.02,0.92-0.02,1.1c0,0.16,0.02,0.29,0.07,0.38c0.05,0.09,0.12,0.16,0.22,0.21c0.06,0.03,0.16,0.05,0.29,0.05
	c0.13,0.01,0.25,0.01,0.36,0.01V17.16z M48.55,14.35c-0.2,0.07-0.4,0.15-0.6,0.23c-0.2,0.09-0.36,0.18-0.49,0.28
	c-0.13,0.1-0.24,0.23-0.31,0.39c-0.08,0.16-0.11,0.34-0.11,0.55c0,0.28,0.06,0.48,0.19,0.61c0.13,0.13,0.29,0.19,0.47,0.19
	c0.2,0,0.36-0.04,0.49-0.12c0.13-0.08,0.24-0.18,0.34-0.3L48.55,14.35z"/>
<path fill="#404040" d="M62.08,17.27h-3.2v-0.39c0.08-0.01,0.16-0.02,0.25-0.03c0.09-0.01,0.16-0.03,0.21-0.05
	c0.08-0.04,0.13-0.1,0.15-0.18c0.02-0.08,0.03-0.19,0.03-0.32v-2.51c0-0.37-0.06-0.65-0.2-0.83s-0.32-0.28-0.56-0.28
	c-0.16,0-0.29,0.02-0.41,0.07c-0.12,0.05-0.23,0.11-0.33,0.18c-0.1,0.08-0.19,0.15-0.24,0.23c-0.06,0.07-0.11,0.14-0.15,0.19v2.89
	c0,0.13,0.02,0.23,0.05,0.31c0.03,0.08,0.09,0.14,0.17,0.19c0.06,0.03,0.12,0.06,0.19,0.09c0.07,0.03,0.15,0.04,0.23,0.05v0.39
	h-3.05v-0.39c0.07-0.01,0.15-0.02,0.25-0.03s0.17-0.03,0.21-0.05c0.08-0.04,0.13-0.1,0.15-0.17c0.02-0.08,0.03-0.19,0.03-0.33v-2.51
	c0-0.37-0.06-0.65-0.2-0.83s-0.32-0.28-0.56-0.28c-0.16,0-0.29,0.02-0.41,0.07c-0.12,0.05-0.23,0.11-0.33,0.18
	c-0.1,0.08-0.19,0.15-0.24,0.23c-0.06,0.07-0.11,0.14-0.15,0.19v2.89c0,0.13,0.02,0.23,0.05,0.31c0.03,0.08,0.09,0.15,0.17,0.19
	c0.06,0.03,0.12,0.06,0.2,0.09c0.07,0.03,0.15,0.04,0.23,0.05v0.39H51.4v-0.39c0.09-0.01,0.19-0.02,0.27-0.03
	c0.09-0.01,0.17-0.03,0.23-0.05c0.11-0.04,0.19-0.1,0.23-0.19c0.04-0.08,0.06-0.19,0.06-0.32v-3.13c0-0.11-0.03-0.23-0.09-0.34
	c-0.06-0.11-0.13-0.19-0.22-0.25c-0.07-0.04-0.15-0.08-0.25-0.11c-0.1-0.03-0.21-0.05-0.33-0.06v-0.39l2.57-0.14l0.08,0.08v0.75
	h0.02c0.1-0.09,0.22-0.2,0.36-0.32c0.14-0.12,0.27-0.22,0.39-0.3c0.13-0.09,0.3-0.16,0.51-0.21c0.21-0.06,0.44-0.09,0.68-0.09
	c0.41,0,0.75,0.09,1.02,0.27c0.28,0.18,0.47,0.41,0.58,0.71h0.05c0.1-0.1,0.23-0.21,0.38-0.34s0.29-0.24,0.41-0.31
	c0.14-0.09,0.32-0.16,0.53-0.23c0.22-0.06,0.45-0.09,0.7-0.09c0.54,0,0.96,0.16,1.25,0.48c0.29,0.32,0.44,0.77,0.44,1.36v2.61
	c0,0.13,0.02,0.24,0.06,0.32c0.04,0.08,0.11,0.14,0.21,0.19c0.06,0.02,0.13,0.05,0.21,0.07c0.08,0.03,0.18,0.04,0.29,0.05V17.27z"/>
<path fill="#404040" d="M68.13,15.98c-0.13,0.2-0.28,0.4-0.46,0.58c-0.18,0.18-0.38,0.33-0.6,0.46c-0.24,0.14-0.48,0.24-0.73,0.31
	c-0.24,0.07-0.53,0.11-0.85,0.11c-0.53,0-0.99-0.08-1.37-0.23s-0.7-0.35-0.95-0.61c-0.25-0.25-0.44-0.55-0.56-0.9
	c-0.12-0.35-0.18-0.72-0.18-1.13c0-0.37,0.07-0.71,0.2-1.05c0.13-0.33,0.32-0.63,0.57-0.89c0.24-0.25,0.55-0.46,0.92-0.62
	c0.37-0.16,0.78-0.24,1.24-0.24c0.5,0,0.91,0.06,1.23,0.18c0.32,0.12,0.59,0.29,0.8,0.51c0.21,0.2,0.35,0.45,0.45,0.72
	c0.09,0.28,0.14,0.57,0.14,0.87v0.35h-3.63c0,0.73,0.14,1.29,0.42,1.67c0.28,0.38,0.73,0.58,1.35,0.58c0.34,0,0.64-0.09,0.91-0.28
	c0.27-0.18,0.5-0.42,0.69-0.7L68.13,15.98z M66.08,13.94c0-0.21-0.01-0.43-0.03-0.66c-0.02-0.22-0.06-0.41-0.11-0.55
	c-0.06-0.17-0.14-0.29-0.25-0.38c-0.11-0.08-0.24-0.13-0.4-0.13c-0.28,0-0.49,0.14-0.66,0.42c-0.16,0.28-0.25,0.72-0.27,1.32
	L66.08,13.94z"/>
<path fill="#404040" d="M78.2,11.55c0,0.43-0.09,0.8-0.27,1.11c-0.18,0.31-0.42,0.56-0.73,0.76c-0.32,0.2-0.69,0.35-1.1,0.44
	s-0.88,0.13-1.4,0.13h-0.62v2.14c0,0.13,0.02,0.24,0.07,0.33s0.14,0.17,0.28,0.23c0.07,0.03,0.19,0.06,0.35,0.09
	c0.16,0.03,0.3,0.05,0.41,0.06v0.42h-4.13v-0.42c0.1-0.01,0.24-0.03,0.41-0.05c0.17-0.02,0.29-0.04,0.36-0.07
	c0.14-0.06,0.23-0.13,0.28-0.21s0.07-0.2,0.07-0.34V10.8c0-0.13-0.02-0.23-0.06-0.33s-0.14-0.17-0.28-0.23
	c-0.1-0.04-0.23-0.08-0.4-0.12c-0.17-0.03-0.29-0.06-0.37-0.07V9.64h4.21c0.99,0,1.72,0.16,2.21,0.47
	C77.96,10.42,78.2,10.9,78.2,11.55z M76.11,11.82c0-0.57-0.12-1-0.35-1.27c-0.23-0.28-0.64-0.42-1.24-0.42h-0.45v3.34h0.23
	c0.59,0,1.04-0.14,1.34-0.41C75.96,12.8,76.11,12.38,76.11,11.82z"/>
<path fill="#404040" d="M81.77,17.27h-3.38v-0.39c0.09-0.01,0.19-0.02,0.27-0.03s0.17-0.03,0.23-0.05c0.12-0.04,0.19-0.1,0.23-0.19
	c0.04-0.08,0.06-0.19,0.06-0.32v-5.95c0-0.14-0.03-0.26-0.08-0.38c-0.05-0.12-0.13-0.21-0.22-0.27c-0.07-0.05-0.18-0.09-0.32-0.13
	s-0.27-0.07-0.38-0.07V9.09l2.71-0.14l0.08,0.09v7.18c0,0.13,0.02,0.24,0.07,0.32c0.05,0.08,0.12,0.15,0.23,0.19
	c0.07,0.03,0.15,0.06,0.23,0.09c0.08,0.03,0.17,0.04,0.28,0.05V17.27z"/>
<path fill="#404040" d="M88.2,17.16c-0.16,0.07-0.34,0.13-0.56,0.19c-0.21,0.06-0.44,0.09-0.68,0.09c-0.44,0-0.76-0.07-0.97-0.2
	c-0.21-0.13-0.35-0.32-0.42-0.56h-0.03c-0.12,0.12-0.24,0.23-0.35,0.31c-0.11,0.09-0.23,0.16-0.36,0.22
	c-0.17,0.08-0.33,0.14-0.49,0.18c-0.16,0.04-0.38,0.06-0.65,0.06c-0.42,0-0.77-0.12-1.07-0.37c-0.29-0.25-0.44-0.57-0.44-0.98
	c0-0.23,0.03-0.43,0.1-0.59s0.16-0.31,0.27-0.43c0.11-0.12,0.23-0.21,0.38-0.29c0.14-0.08,0.3-0.15,0.47-0.21
	c0.32-0.12,0.71-0.24,1.16-0.37c0.45-0.13,0.78-0.24,0.99-0.34v-0.52c0-0.09-0.01-0.21-0.02-0.35c-0.01-0.15-0.04-0.27-0.09-0.37
	c-0.05-0.12-0.13-0.21-0.24-0.29c-0.11-0.08-0.25-0.12-0.43-0.12c-0.16,0-0.29,0.02-0.4,0.07c-0.11,0.04-0.19,0.09-0.26,0.14
	c0.01,0.07,0.04,0.18,0.09,0.33c0.05,0.15,0.07,0.29,0.07,0.42c0,0.06-0.02,0.14-0.05,0.23c-0.03,0.09-0.08,0.16-0.14,0.22
	c-0.08,0.07-0.18,0.13-0.28,0.17c-0.1,0.04-0.26,0.06-0.47,0.06c-0.3,0-0.53-0.07-0.68-0.22c-0.15-0.14-0.23-0.33-0.23-0.57
	c0-0.2,0.08-0.38,0.24-0.54c0.16-0.16,0.35-0.29,0.58-0.39c0.22-0.11,0.48-0.19,0.78-0.25s0.57-0.09,0.82-0.09
	c0.35,0,0.67,0.02,0.96,0.06c0.29,0.04,0.55,0.13,0.79,0.25c0.22,0.13,0.4,0.31,0.53,0.55c0.13,0.24,0.2,0.55,0.2,0.93
	c0,0.41-0.01,0.89-0.02,1.44s-0.02,0.92-0.02,1.1c0,0.16,0.02,0.29,0.07,0.38c0.05,0.09,0.12,0.16,0.22,0.21
	c0.06,0.03,0.16,0.05,0.29,0.05c0.13,0.01,0.25,0.01,0.36,0.01V17.16z M85.54,14.35c-0.2,0.07-0.4,0.15-0.6,0.23
	c-0.2,0.09-0.36,0.18-0.49,0.28c-0.13,0.1-0.24,0.23-0.31,0.39c-0.07,0.16-0.11,0.34-0.11,0.55c0,0.28,0.06,0.48,0.19,0.61
	c0.13,0.13,0.29,0.19,0.47,0.19c0.2,0,0.36-0.04,0.49-0.12c0.13-0.08,0.24-0.18,0.34-0.3L85.54,14.35z"/>
<path fill="#404040" d="M91.46,17.44c-0.5,0-0.94-0.07-1.32-0.22c-0.38-0.15-0.7-0.34-0.94-0.59c-0.25-0.25-0.43-0.56-0.55-0.9
	c-0.12-0.35-0.18-0.73-0.18-1.13c0-0.37,0.07-0.73,0.22-1.06s0.35-0.63,0.6-0.89c0.26-0.26,0.59-0.47,0.97-0.63
	c0.39-0.16,0.82-0.23,1.29-0.23c0.66,0,1.18,0.12,1.56,0.37c0.38,0.25,0.58,0.59,0.58,1.01c0,0.26-0.07,0.47-0.21,0.62
	c-0.13,0.16-0.37,0.24-0.7,0.24c-0.27,0-0.49-0.06-0.67-0.19c-0.18-0.13-0.27-0.3-0.27-0.5c0-0.18,0.03-0.35,0.09-0.52
	c0.06-0.17,0.09-0.3,0.1-0.39c-0.04-0.06-0.09-0.11-0.15-0.15s-0.16-0.05-0.29-0.05c-0.16,0-0.31,0.04-0.44,0.11
	s-0.26,0.21-0.37,0.4c-0.11,0.18-0.2,0.42-0.27,0.72c-0.06,0.3-0.1,0.66-0.1,1.09c0,0.64,0.15,1.15,0.45,1.54s0.66,0.59,1.07,0.59
	c0.4,0,0.71-0.09,0.95-0.27s0.44-0.43,0.63-0.76l0.4,0.28c-0.11,0.22-0.24,0.42-0.4,0.6s-0.34,0.34-0.55,0.48
	c-0.23,0.15-0.46,0.26-0.69,0.33S91.77,17.44,91.46,17.44z"/>
<path fill="#404040" d="M99.79,15.98c-0.13,0.2-0.28,0.4-0.45,0.58c-0.18,0.18-0.38,0.33-0.61,0.46c-0.24,0.14-0.48,0.24-0.73,0.31
	c-0.25,0.07-0.53,0.11-0.85,0.11c-0.53,0-0.99-0.08-1.37-0.23s-0.7-0.35-0.95-0.61s-0.44-0.55-0.56-0.9
	c-0.13-0.35-0.19-0.72-0.19-1.13c0-0.37,0.07-0.71,0.2-1.05s0.32-0.63,0.57-0.89c0.24-0.25,0.55-0.46,0.92-0.62
	c0.37-0.16,0.78-0.24,1.24-0.24c0.5,0,0.91,0.06,1.23,0.18c0.32,0.12,0.59,0.29,0.8,0.51c0.21,0.2,0.35,0.45,0.45,0.72
	c0.09,0.28,0.14,0.57,0.14,0.87v0.35h-3.63c0,0.73,0.14,1.29,0.42,1.67c0.28,0.38,0.73,0.58,1.35,0.58c0.34,0,0.64-0.09,0.91-0.28
	c0.27-0.18,0.5-0.42,0.69-0.7L99.79,15.98z M97.73,13.94c0-0.21-0.01-0.43-0.03-0.66c-0.02-0.22-0.06-0.41-0.11-0.55
	c-0.06-0.17-0.14-0.29-0.25-0.38c-0.11-0.08-0.24-0.13-0.4-0.13c-0.28,0-0.49,0.14-0.66,0.42c-0.16,0.28-0.25,0.72-0.27,1.32
	L97.73,13.94z"/>
</svg>
