<?xml version="1.0" encoding="utf-8"?>
<!-- Generator: Adobe Illustrator 12.0.0, SVG Export Plug-In  -->
<!DOCTYPE svg PUBLIC "-//W3C//DTD SVG 1.1//EN" "http://www.w3.org/Graphics/SVG/1.1/DTD/svg11.dtd" [
	<!ENTITY ns_flows "http://ns.adobe.com/Flows/1.0/">
	<!ENTITY ns_svg "http://www.w3.org/2000/svg">
	<!ENTITY ns_xlink "http://www.w3.org/1999/xlink">
]>
<svg  version="1.1" xmlns="&ns_svg;" xmlns:xlink="&ns_xlink;" xmlns:a="http://ns.adobe.com/AdobeSVGViewerExtensions/3.0/"
	 width="48" height="46" viewBox="0.677 0.928 48 46" enable-background="new 0.677 0.928 48 46" xml:space="preserve">
<defs>
</defs>
<path fill="#FFFFFF" d="M12.26,2.633C7.025,5.052,4.37,8.566,4.37,13.078c0,3.899,2.169,8.459,11.783,8.902
	c-2.604,0.828-5.093,1.945-7.439,3.365C2.93,28.881,0,33.298,0,38.478c0,3.106,1.411,5.562,4.08,7.099
	c2.048,1.168,4.619,1.759,7.647,1.759c4.405,0,8.784-1.051,13.014-3.125c5.438-2.68,8.192-6.236,8.192-10.572
	c0-1.187-0.431-2.846-2.486-4.013c-1.189-0.697-2.564-1.055-4.07-1.055c-3.298,0-7.104,1.213-11.311,3.604
	c-4.197,2.381-7.213,5.021-8.964,7.846l-0.161,0.26l-0.161,1.227c0,0,1.202,1.2,1.389,1.387c-0.009-0.003-0.02-0.004-0.028-0.007
	c-2.197-0.882-2.197-1.977-2.197-2.389c0-0.796,0.332-2.292,1.914-4.895c1.861-3.099,4.439-5.757,7.665-7.906
	c3.204-2.127,6.443-3.326,9.637-3.63c1.717,1.537,3.214,2.328,4.536,2.328c3.063,0,3.218-2.164,3.218-2.597
	c0-0.867-0.317-1.63-0.917-2.206c-0.631-0.605-1.529-0.973-2.748-1.127c3.182-0.764,6.592-1.897,10.211-3.431
	c7.177-3.056,10.664-6.21,10.664-9.645c0-1.685-0.81-3.04-2.341-3.919c-1.129-0.609-2.448-0.908-3.956-0.908
	c-4.459,0-9.015,1.512-13.54,4.494c-4.885,3.22-7.396,6.972-7.606,11.138c-1.147,0.229-2.407,0.378-3.854,0.378
	c-9.853,0-9.853-4.149-9.853-5.512c0-0.953,0.151-1.767,0.451-2.419c0.935-1.913,2.358-3.34,4.338-4.334
	c1.54-0.797,3.689-1.395,6.405-1.784c-0.015,0.002,7.071-0.896,7.071-0.896l0.481-0.061l0.351-0.345l1.477-1.481l-2.03-1.681
	l-1.415-0.045C20.572-0.114,16.253,0.768,12.26,2.633z M43.248,6.175c0.65,0,1.208,0.138,1.707,0.423
	c0.513,0.29,0.556,0.554,0.556,0.799c0,0.821-0.85,3.084-8.72,6.373c-3.469,1.453-6.763,2.574-9.831,3.348
	c1.403-2.157,3.396-4.295,6.01-6.38C36.8,7.71,40.259,6.175,43.248,6.175z M8.765,42.384l0.202-0.237
	c2.306-2.71,4.965-5.002,7.904-6.813c3.396-2.09,6.554-3.149,9.386-3.149c0.876,0,1.633,0.162,2.248,0.481
	c0.713,0.381,0.774,0.764,0.774,1.092c0,2.846-2.087,5.221-6.38,7.259c-3.734,1.754-7.464,2.645-11.082,2.645
	c-1.643,0-3.084-0.247-4.338-0.685C7.692,42.879,8.765,42.384,8.765,42.384z"/>
<path d="M6.558,13.058c0,4.62,3.76,6.93,11.27,6.93c1.97,0,3.7-0.2,5.19-0.61v-0.44c-0.08-3.98,2.27-7.55,7.05-10.7
	c4.31-2.84,8.56-4.26,12.76-4.26c1.279,0,2.359,0.24,3.25,0.72c1.08,0.62,1.63,1.51,1.63,2.69c0,2.78-3.271,5.56-9.8,8.34
	c-5.051,2.14-9.631,3.51-13.75,4.11c0.06,0.73,0.29,1.39,0.7,1.97h1.3c2.9-0.12,4.34,0.55,4.34,1.99c0,0.791-0.6,1.18-1.801,1.18
	c-1.059,0-2.43-0.8-4.089-2.4c-3.65,0.23-7.27,1.55-10.87,3.94c-3.42,2.279-6.12,5.07-8.09,8.35c-1.41,2.32-2.12,4.2-2.12,5.631
	c0,1.64,1.03,2.879,3.1,3.709c1.49,0.58,3.22,0.871,5.19,0.871c3.85,0,7.75-0.931,11.69-2.781c4.801-2.279,7.189-5.129,7.189-8.539
	c0-1.021-0.51-1.801-1.539-2.351c-0.811-0.42-1.78-0.64-2.9-0.64c-3.12,0-6.49,1.12-10.13,3.359c-3.1,1.91-5.84,4.28-8.24,7.101
	l-0.26,0.12l-0.35-0.35l0.03-0.23c1.63-2.63,4.44-5.08,8.46-7.36c4.01-2.28,7.55-3.42,10.61-3.42c1.261,0,2.38,0.29,3.37,0.87
	c1.18,0.67,1.77,1.6,1.77,2.78c0,3.77-2.47,6.87-7.399,9.3c-4.06,1.99-8.19,2.98-12.39,2.98c-2.79,0-5.1-0.521-6.94-1.57
	c-2.24-1.29-3.37-3.26-3.37-5.87c0-4.681,2.68-8.649,8.03-11.92c4.41-2.67,9.25-4.24,14.53-4.72l-0.87-1.77
	c-1.6,0.39-3.44,0.58-5.5,0.58c-7.88,0-11.82-2.52-11.82-7.57c0-3.92,2.35-6.98,7.07-9.16c3.81-1.78,7.87-2.61,12.2-2.49l0.93,0.03
	l0.459,0.38l-0.379,0.38c-2.38,0.29-4.74,0.59-7.101,0.9c-2.86,0.41-5.14,1.04-6.84,1.92c-2.25,1.13-3.91,2.8-4.99,5.01
	C6.748,10.898,6.558,11.898,6.558,13.058z M46.927,7.398c0-0.87-0.42-1.55-1.27-2.03c-0.7-0.4-1.5-0.61-2.41-0.61
	c-3.34,0-7.061,1.63-11.16,4.87c-3.859,3.08-6.48,6.26-7.85,9.54c3.98-0.74,8.35-2.1,13.1-4.09
	C43.728,12.408,46.927,9.848,46.927,7.398z M28.898,24.208c0.5,0,0.75-0.17,0.75-0.51c0-0.8-1.08-1.17-3.23-1.11h-0.55
	C27.038,23.668,28.047,24.208,28.898,24.208z"/>
<path d="M6.558,13.058c0,4.62,3.76,6.93,11.27,6.93c1.97,0,3.7-0.2,5.19-0.61v-0.44c-0.08-3.98,2.27-7.55,7.05-10.7
	c4.31-2.84,8.56-4.26,12.76-4.26c1.279,0,2.359,0.24,3.25,0.72c1.08,0.62,1.63,1.51,1.63,2.69c0,2.78-3.271,5.56-9.8,8.34
	c-5.051,2.14-9.631,3.51-13.75,4.11c0.06,0.73,0.29,1.39,0.7,1.97h1.3c2.9-0.12,4.34,0.55,4.34,1.99c0,0.791-0.6,1.18-1.801,1.18
	c-1.059,0-2.43-0.8-4.089-2.4c-3.65,0.23-7.27,1.55-10.87,3.94c-3.42,2.279-6.12,5.07-8.09,8.35c-1.41,2.32-2.12,4.2-2.12,5.631
	c0,1.64,1.03,2.879,3.1,3.709c1.49,0.58,3.22,0.871,5.19,0.871c3.85,0,7.75-0.931,11.69-2.781c4.801-2.279,7.189-5.129,7.189-8.539
	c0-1.021-0.51-1.801-1.539-2.351c-0.811-0.42-1.78-0.64-2.9-0.64c-3.12,0-6.49,1.12-10.13,3.359c-3.1,1.91-5.84,4.28-8.24,7.101
	l-0.26,0.12l-0.35-0.35l0.03-0.23c1.63-2.63,4.44-5.08,8.46-7.36c4.01-2.28,7.55-3.42,10.61-3.42c1.261,0,2.38,0.29,3.37,0.87
	c1.18,0.67,1.77,1.6,1.77,2.78c0,3.77-2.47,6.87-7.399,9.3c-4.06,1.99-8.19,2.98-12.39,2.98c-2.79,0-5.1-0.521-6.94-1.57
	c-2.24-1.29-3.37-3.26-3.37-5.87c0-4.681,2.68-8.649,8.03-11.92c4.41-2.67,9.25-4.24,14.53-4.72l-0.87-1.77
	c-1.6,0.39-3.44,0.58-5.5,0.58c-7.88,0-11.82-2.52-11.82-7.57c0-3.92,2.35-6.98,7.07-9.16c3.81-1.78,7.87-2.61,12.2-2.49l0.93,0.03
	l0.459,0.38l-0.379,0.38c-2.38,0.29-4.74,0.59-7.101,0.9c-2.86,0.41-5.14,1.04-6.84,1.92c-2.25,1.13-3.91,2.8-4.99,5.01
	C6.748,10.898,6.558,11.898,6.558,13.058z M46.927,7.398c0-0.87-0.42-1.55-1.27-2.03c-0.7-0.4-1.5-0.61-2.41-0.61
	c-3.34,0-7.061,1.63-11.16,4.87c-3.859,3.08-6.48,6.26-7.85,9.54c3.98-0.74,8.35-2.1,13.1-4.09
	C43.728,12.408,46.927,9.848,46.927,7.398z M28.898,24.208c0.5,0,0.75-0.17,0.75-0.51c0-0.8-1.08-1.17-3.23-1.11h-0.55
	C27.038,23.668,28.047,24.208,28.898,24.208z"/>
</svg>
