<?xml version="1.0" encoding="utf-8"?>
<!-- Generator: Adobe Illustrator 12.0.0, SVG Export Plug-In  -->
<!DOCTYPE svg PUBLIC "-//W3C//DTD SVG 1.1//EN" "http://www.w3.org/Graphics/SVG/1.1/DTD/svg11.dtd" [
	<!ENTITY ns_flows "http://ns.adobe.com/Flows/1.0/">
	<!ENTITY ns_svg "http://www.w3.org/2000/svg">
	<!ENTITY ns_xlink "http://www.w3.org/1999/xlink">
]>
<svg  version="1.1" xmlns="&ns_svg;" xmlns:xlink="&ns_xlink;" xmlns:a="http://ns.adobe.com/AdobeSVGViewerExtensions/3.0/"
	 width="48" height="46" viewBox="-0.74 -0.49 48 46" enable-background="new -0.74 -0.49 48 46" xml:space="preserve">
<defs>
</defs>
<path d="M5.14,11.64c0,4.62,3.76,6.93,11.27,6.93c1.97,0,3.7-0.2,5.19-0.61v-0.44c-0.08-3.98,2.27-7.55,7.05-10.7
	c4.31-2.84,8.56-4.26,12.76-4.26c1.28,0,2.36,0.24,3.25,0.72c1.08,0.62,1.63,1.51,1.63,2.69c0,2.78-3.27,5.56-9.8,8.34
	c-5.05,2.14-9.63,3.51-13.75,4.11c0.06,0.73,0.29,1.39,0.7,1.97h1.3c2.9-0.12,4.34,0.55,4.34,1.99c0,0.79-0.6,1.18-1.8,1.18
	c-1.06,0-2.43-0.8-4.09-2.4c-3.65,0.23-7.27,1.55-10.87,3.94c-3.42,2.28-6.12,5.07-8.09,8.35c-1.41,2.32-2.12,4.2-2.12,5.63
	c0,1.64,1.03,2.88,3.1,3.71c1.49,0.58,3.22,0.87,5.19,0.87c3.85,0,7.75-0.93,11.69-2.78c4.8-2.28,7.19-5.13,7.19-8.54
	c0-1.02-0.51-1.8-1.54-2.35c-0.81-0.42-1.78-0.64-2.9-0.64c-3.12,0-6.49,1.12-10.13,3.36c-3.1,1.91-5.84,4.28-8.24,7.1l-0.26,0.12
	l-0.35-0.35l0.03-0.23c1.63-2.63,4.44-5.08,8.46-7.36c4.01-2.28,7.55-3.42,10.61-3.42c1.26,0,2.38,0.29,3.37,0.87
	c1.18,0.67,1.77,1.6,1.77,2.78c0,3.77-2.47,6.87-7.4,9.3c-4.06,1.99-8.19,2.98-12.39,2.98c-2.79,0-5.1-0.52-6.94-1.57
	C1.13,41.64,0,39.67,0,37.06c0-4.68,2.68-8.65,8.03-11.92c4.41-2.67,9.25-4.24,14.53-4.72l-0.87-1.77c-1.6,0.39-3.44,0.58-5.5,0.58
	c-7.88,0-11.82-2.52-11.82-7.57c0-3.92,2.35-6.98,7.07-9.16c3.81-1.78,7.87-2.61,12.2-2.49l0.93,0.03l0.46,0.38l-0.38,0.38
	c-2.38,0.29-4.74,0.59-7.1,0.9c-2.86,0.41-5.14,1.04-6.84,1.92C8.46,4.75,6.8,6.42,5.72,8.63C5.33,9.48,5.14,10.48,5.14,11.64z
	 M45.51,5.98c0-0.87-0.42-1.55-1.27-2.03c-0.7-0.4-1.5-0.61-2.41-0.61c-3.34,0-7.06,1.63-11.16,4.87c-3.86,3.08-6.48,6.26-7.85,9.54
	c3.98-0.74,8.35-2.1,13.1-4.09C42.31,10.99,45.51,8.43,45.51,5.98z M27.48,22.79c0.5,0,0.75-0.17,0.75-0.51
	c0-0.8-1.08-1.17-3.23-1.11h-0.55C25.62,22.25,26.63,22.79,27.48,22.79z"/>
<path d="M5.14,11.64c0,4.62,3.76,6.93,11.27,6.93c1.97,0,3.7-0.2,5.19-0.61v-0.44c-0.08-3.98,2.27-7.55,7.05-10.7
	c4.31-2.84,8.56-4.26,12.76-4.26c1.28,0,2.36,0.24,3.25,0.72c1.08,0.62,1.63,1.51,1.63,2.69c0,2.78-3.27,5.56-9.8,8.34
	c-5.05,2.14-9.63,3.51-13.75,4.11c0.06,0.73,0.29,1.39,0.7,1.97h1.3c2.9-0.12,4.34,0.55,4.34,1.99c0,0.79-0.6,1.18-1.8,1.18
	c-1.06,0-2.43-0.8-4.09-2.4c-3.65,0.23-7.27,1.55-10.87,3.94c-3.42,2.28-6.12,5.07-8.09,8.35c-1.41,2.32-2.12,4.2-2.12,5.63
	c0,1.64,1.03,2.88,3.1,3.71c1.49,0.58,3.22,0.87,5.19,0.87c3.85,0,7.75-0.93,11.69-2.78c4.8-2.28,7.19-5.13,7.19-8.54
	c0-1.02-0.51-1.8-1.54-2.35c-0.81-0.42-1.78-0.64-2.9-0.64c-3.12,0-6.49,1.12-10.13,3.36c-3.1,1.91-5.84,4.28-8.24,7.1l-0.26,0.12
	l-0.35-0.35l0.03-0.23c1.63-2.63,4.44-5.08,8.46-7.36c4.01-2.28,7.55-3.42,10.61-3.42c1.26,0,2.38,0.29,3.37,0.87
	c1.18,0.67,1.77,1.6,1.77,2.78c0,3.77-2.47,6.87-7.4,9.3c-4.06,1.99-8.19,2.98-12.39,2.98c-2.79,0-5.1-0.52-6.94-1.57
	C1.13,41.64,0,39.67,0,37.06c0-4.68,2.68-8.65,8.03-11.92c4.41-2.67,9.25-4.24,14.53-4.72l-0.87-1.77c-1.6,0.39-3.44,0.58-5.5,0.58
	c-7.88,0-11.82-2.52-11.82-7.57c0-3.92,2.35-6.98,7.07-9.16c3.81-1.78,7.87-2.61,12.2-2.49l0.93,0.03l0.46,0.38l-0.38,0.38
	c-2.38,0.29-4.74,0.59-7.1,0.9c-2.86,0.41-5.14,1.04-6.84,1.92C8.46,4.75,6.8,6.42,5.72,8.63C5.33,9.48,5.14,10.48,5.14,11.64z
	 M45.51,5.98c0-0.87-0.42-1.55-1.27-2.03c-0.7-0.4-1.5-0.61-2.41-0.61c-3.34,0-7.06,1.63-11.16,4.87c-3.86,3.08-6.48,6.26-7.85,9.54
	c3.98-0.74,8.35-2.1,13.1-4.09C42.31,10.99,45.51,8.43,45.51,5.98z M27.48,22.79c0.5,0,0.75-0.17,0.75-0.51
	c0-0.8-1.08-1.17-3.23-1.11h-0.55C25.62,22.25,26.63,22.79,27.48,22.79z"/>
</svg>
