<?xml version="1.0" encoding="utf-8"?>
<!-- Generator: Adobe Illustrator 12.0.0, SVG Export Plug-In  -->
<!DOCTYPE svg PUBLIC "-//W3C//DTD SVG 1.1//EN" "http://www.w3.org/Graphics/SVG/1.1/DTD/svg11.dtd" [
	<!ENTITY ns_flows "http://ns.adobe.com/Flows/1.0/">
	<!ENTITY ns_svg "http://www.w3.org/2000/svg">
	<!ENTITY ns_xlink "http://www.w3.org/1999/xlink">
]>
<svg  version="1.1" xmlns="&ns_svg;" xmlns:xlink="&ns_xlink;" xmlns:a="http://ns.adobe.com/AdobeSVGViewerExtensions/3.0/"
	 width="6" height="6" viewBox="-0.52 -0.25 6 6" enable-background="new -0.52 -0.25 6 6" xml:space="preserve">
<defs>
</defs>
<path d="M0.27,0.55C0.17,0.55,0,0.38,0,0.27S0.17,0,0.27,0s0.27,0.17,0.27,0.27S0.38,0.55,0.27,0.55z M0.02,4.59
	c0-0.11,0.17-0.28,0.27-0.28s0.27,0.17,0.27,0.28c0,0.11-0.17,0.28-0.27,0.28S0.02,4.71,0.02,4.59z M0.8,1.08
	c-0.11,0-0.27-0.17-0.27-0.28S0.69,0.53,0.8,0.53c0.11,0,0.28,0.17,0.28,0.27S0.91,1.08,0.8,1.08z M0.53,4.08
	c0-0.11,0.17-0.28,0.28-0.28s0.27,0.17,0.27,0.28S0.91,4.36,0.81,4.36S0.53,4.19,0.53,4.08z M1.65,1.38c0-0.48,0.31-0.81,0.81-0.81
	S3.24,0.9,3.24,1.38h0.01c0-0.04,0.13-0.31,0.3-0.31c0.11,0,0.29,0.18,0.29,0.29c0,0.17-0.27,0.29-0.31,0.3v0.01
	c0.48,0,0.82,0.28,0.82,0.78S4,3.25,3.52,3.25v0.01c0.02,0,0.31,0.13,0.31,0.29c0,0.1-0.14,0.27-0.27,0.27
	c-0.17,0-0.29-0.28-0.29-0.31H3.25c0,0.48-0.3,0.82-0.8,0.82c-0.5,0-0.79-0.34-0.79-0.82H1.66c-0.01,0.04-0.14,0.31-0.3,0.31
	c-0.11,0-0.29-0.18-0.29-0.29c0-0.16,0.27-0.29,0.31-0.29V3.23c-0.48,0-0.82-0.29-0.82-0.79c0-0.49,0.33-0.8,0.81-0.8V1.63
	c-0.02,0-0.3-0.13-0.3-0.29c0-0.13,0.18-0.27,0.27-0.27C1.52,1.07,1.65,1.35,1.65,1.38L1.65,1.38z M2.06,2.04
	C2,2.09,1.96,2.15,1.88,2.15c-0.12,0-0.22-0.12-0.27-0.29C1.58,1.84,1.56,1.84,1.54,1.84c-0.14,0-0.39,0.14-0.39,0.29
	c0,0.1,0.1,0.23,0.29,0.32c-0.19,0.1-0.29,0.23-0.29,0.33c0,0.16,0.23,0.27,0.37,0.27c0.03,0,0.06,0,0.08-0.01
	c0.04-0.17,0.16-0.29,0.27-0.29c0.11,0,0.27,0.17,0.27,0.27c0,0.12-0.13,0.23-0.29,0.28C1.85,3.32,1.85,3.35,1.85,3.38
	c0,0.13,0.11,0.37,0.27,0.37c0.11,0,0.24-0.1,0.34-0.28c0.09,0.19,0.21,0.28,0.32,0.28c0.15,0,0.29-0.25,0.29-0.39
	c0-0.02,0-0.05-0.02-0.07C2.88,3.24,2.76,3.15,2.76,3.02c0-0.08,0.05-0.13,0.1-0.17c0.05-0.05,0.1-0.1,0.17-0.1
	c0.12,0,0.22,0.12,0.27,0.29c0.03,0.01,0.05,0.02,0.08,0.02c0.13,0,0.38-0.14,0.38-0.3c0-0.1-0.09-0.22-0.28-0.32
	c0.19-0.09,0.28-0.23,0.28-0.33c0-0.16-0.23-0.27-0.36-0.27c-0.03,0-0.06,0-0.08,0.02C3.26,2.02,3.15,2.15,3.02,2.15
	c-0.1,0-0.27-0.17-0.27-0.27c0-0.12,0.13-0.23,0.3-0.27c0.01-0.03,0.02-0.06,0.02-0.09c0-0.13-0.11-0.37-0.27-0.37
	c-0.11,0-0.23,0.09-0.33,0.28c-0.1-0.19-0.22-0.28-0.32-0.28c-0.15,0-0.29,0.25-0.29,0.38c0,0.02,0,0.05,0.01,0.07
	c0.17,0.05,0.29,0.15,0.29,0.27C2.15,1.94,2.1,2,2.06,2.04L2.06,2.04z M2.82,2.46c0,0.14-0.22,0.36-0.36,0.36S2.09,2.59,2.09,2.46
	c0-0.15,0.23-0.37,0.37-0.37S2.82,2.31,2.82,2.46z M4.07,1.11c-0.11,0-0.28-0.17-0.28-0.27s0.17-0.27,0.28-0.27
	c0.11,0,0.28,0.17,0.28,0.27S4.19,1.11,4.07,1.11z M3.8,4.08c0-0.11,0.17-0.28,0.28-0.28c0.11,0,0.28,0.17,0.28,0.28
	S4.18,4.35,4.07,4.35C3.97,4.35,3.8,4.19,3.8,4.08z M4.61,0.58C4.5,0.58,4.33,0.4,4.33,0.3c0-0.1,0.17-0.27,0.28-0.27
	c0.11,0,0.28,0.17,0.28,0.27S4.72,0.58,4.61,0.58z M4.33,4.6c0-0.11,0.17-0.27,0.27-0.27S4.88,4.5,4.88,4.6
	c0,0.11-0.17,0.28-0.27,0.28S4.33,4.71,4.33,4.6z"/>
</svg>
