<?xml version="1.0" encoding="utf-8"?>
<!-- Generator: Adobe Illustrator 12.0.0, SVG Export Plug-In  -->
<!DOCTYPE svg PUBLIC "-//W3C//DTD SVG 1.1//EN" "http://www.w3.org/Graphics/SVG/1.1/DTD/svg11.dtd" [
	<!ENTITY ns_flows "http://ns.adobe.com/Flows/1.0/">
	<!ENTITY ns_svg "http://www.w3.org/2000/svg">
	<!ENTITY ns_xlink "http://www.w3.org/1999/xlink">
]>
<svg  version="1.1" xmlns="&ns_svg;" xmlns:xlink="&ns_xlink;" xmlns:a="http://ns.adobe.com/AdobeSVGViewerExtensions/3.0/"
	 width="71" height="71" viewBox="-0.17 -0.32 71 71" enable-background="new -0.17 -0.32 71 71" xml:space="preserve">
<defs>
</defs>
<rect x="0.96" y="0.96" fill="none" stroke="#000000" stroke-width="1.9197" width="68.15" height="68.15"/>
<path fill="none" stroke="#000000" stroke-width="0.4799" d="M4.36,4.36c0,5.82,0,55.53,0,61.35c5.82,0,55.53,0,61.35,0
	c0-5.82,0-55.53,0-61.35C59.89,4.36,10.18,4.36,4.36,4.36z"/>
<path d="M41.23,30.42c5.1-5.53,8.8-8.3,11.11-8.3c0.58,0,1.17,0.26,1.78,0.78c0.6,0.52,0.91,1.07,0.91,1.65
	c0,1.14-0.48,1.71-1.44,1.71c-0.46,0-0.89-0.17-1.3-0.53c-0.41-0.35-0.61-0.75-0.61-1.21c0-0.46,0.13-0.94,0.37-1.46
	c-1.75,0.35-3.68,1.51-5.8,3.46c-0.63,0.58-2.21,2.27-4.78,5.05c0.5,2.31,0.75,4.25,0.75,5.83c0,4.6-1.82,8.51-5.46,11.73
	c-3.49,3.08-7.57,4.62-12.23,4.62c-1.81,0-3.41-0.32-4.8-0.97c-1.83-0.85-2.75-2.08-2.75-3.69c0-2.38,0.98-4.16,2.93-5.35
	c1.62-1,3.67-1.46,6.14-1.38h0.84l0.28,0.38l-0.34,0.53c-3.63,0.48-5.62,0.78-5.97,0.91c-1.99,0.73-2.99,2.28-2.99,4.66
	c0,1.17,0.55,2.11,1.65,2.85c0.98,0.65,2.07,0.97,3.27,0.97c4.34,0,8.48-2.18,12.4-6.55c3.86-4.29,5.73-8.61,5.61-12.98l-0.03-0.87
	c-3.45,2.92-6.46,4.39-9.04,4.39c-1.12,0-2.13-0.33-3.02-1c-0.98-0.73-1.46-1.64-1.46-2.75c0-2.52,1.51-4.49,4.52-5.93
	c1.52-0.73,4.11-1.49,7.79-2.28c0.21-2.04,0.84-3.86,1.9-5.46c1.29-1.93,2.86-2.9,4.7-2.9c2.04,0,3.05,0.82,3.05,2.46
	c0,2.76-2.9,4.98-8.69,6.64C40.55,27.2,40.77,28.86,41.23,30.42z M31.97,35.7c2.43,0,5.29-1.49,8.58-4.46
	c-0.35-1.39-0.64-3.19-0.87-5.37c-2.24,0.79-4.32,1.83-6.25,3.12c-2.67,1.79-4.01,3.47-4.01,5.03C29.42,35.14,30.27,35.7,31.97,35.7
	z M46.74,17.13c-1.8,0-3.28,0.81-4.42,2.44c-0.97,1.35-1.57,3.02-1.77,4.99c2.41-0.75,4.08-1.38,5.01-1.91
	c1.89-1.08,2.83-2.44,2.83-4.08c0-0.4-0.17-0.73-0.53-1.02C47.51,17.27,47.14,17.13,46.74,17.13z"/>
<circle cx="61.85" cy="35.26" r="0.82"/>
<circle cx="7.27" cy="35.26" r="0.82"/>
</svg>
