<?xml version="1.0" encoding="utf-8"?>
<!-- Generator: Adobe Illustrator 18.0.0, SVG Export Plug-In . SVG Version: 6.00 Build 0)  -->
<!DOCTYPE svg PUBLIC "-//W3C//DTD SVG 1.1//EN" "http://www.w3.org/Graphics/SVG/1.1/DTD/svg11.dtd">
<svg version="1.1" id="Capa_1" xmlns:sketch="http://www.bohemiancoding.com/sketch/ns"
	 xmlns="http://www.w3.org/2000/svg" xmlns:xlink="http://www.w3.org/1999/xlink" x="0px" y="0px" viewBox="0 0 32 32"
	 enable-background="new 0 0 32 32" xml:space="preserve">
<title>icon 125 printer text</title>
<desc>Created with Sketch.</desc>
<g>
	<rect x="9" y="24" width="15" height="1"/>
	<rect x="9" y="27" width="15" height="1"/>
	<circle cx="25" cy="15" r="1"/>
	<path d="M28,10h-2V3c0-1.1-0.9-2-2-2H9C7.9,1,7,1.9,7,3v7H5c-1.7,0-3,1.3-3,3v9c0,1.7,1.3,3,3,3h2v4c0,1.1,0.9,2,2,2h15
		c1.1,0,2-0.9,2-2v-4h2c1.7,0,3-1.3,3-3v-9C31,11.3,29.7,10,28,10z M8,3c0-0.5,0.4-1,1-1h15c0.5,0,1,0.4,1,1v7H8V3z M25,29
		c0,0.5-0.4,1-1,1H9c-0.5,0-1-0.4-1-1v-7h17V29z M30,22c0,1.1-0.9,2-2,2h-2v-3H7v3H5c-1.1,0-2-0.9-2-2v-9c0-1.1,0.9-2,2-2h23
		c1.1,0,2,0.9,2,2V22z"/>
</g>
</svg>
