<?xml version="1.0" encoding="utf-8"?>
<!-- Generator: Adobe Illustrator 17.0.0, SVG Export Plug-In . SVG Version: 6.00 Build 0)  -->
<!DOCTYPE svg PUBLIC "-//W3C//DTD SVG 1.1//EN" "http://www.w3.org/Graphics/SVG/1.1/DTD/svg11.dtd">
<svg version="1.1" id="Capa_1" xmlns="http://www.w3.org/2000/svg" xmlns:xlink="http://www.w3.org/1999/xlink" x="0px" y="0px"
	 width="64px" height="64px" viewBox="0 0 64 64" enable-background="new 0 0 64 64" xml:space="preserve">
<g>
	<path d="M38,25.05V14H25v11.05C14.396,25.559,6,31.39,6,38.5V52h6h39h6V38.5C57,31.39,48.604,25.559,38,25.05z M33.061,15
		c0,1-0.781,1.741-1.74,1.741c-0.96,0-1.741-0.741-1.741-1.741H33.061z M26,25V15h2.42c0,1,1.301,2.901,2.901,2.901
		c1.599,0,2.9-1.901,2.9-2.901H37v10h-0.5h-10H26z M13,51v-7h37v7H13z M56,51h-5v-8H12v8H7V38.5C7,31.607,15.748,26,26.5,26h10
		C47.252,26,56,31.607,56,38.5V51z"/>
	<rect x="12" y="37" width="38" height="1"/>
	<path d="M47.333,32.333c1.255,0,2.167-0.526,2.167-1.25s-0.911-1.25-2.167-1.25c-1.256,0-2.167,0.526-2.167,1.25
		S46.078,32.333,47.333,32.333z M47.333,30.833c0.594,0,0.962,0.15,1.111,0.25c-0.149,0.1-0.518,0.25-1.111,0.25
		s-0.963-0.15-1.111-0.25C46.371,30.983,46.74,30.833,47.333,30.833z"/>
</g>
</svg>
