<?xml version="1.0" encoding="utf-8"?>
<!-- Generator: Adobe Illustrator 12.0.0, SVG Export Plug-In  -->
<!DOCTYPE svg PUBLIC "-//W3C//DTD SVG 1.1//EN" "http://www.w3.org/Graphics/SVG/1.1/DTD/svg11.dtd" [
	<!ENTITY ns_flows "http://ns.adobe.com/Flows/1.0/">
	<!ENTITY ns_svg "http://www.w3.org/2000/svg">
	<!ENTITY ns_xlink "http://www.w3.org/1999/xlink">
]>
<svg  preserveAspectRatio="none" version="1.1" xmlns="&ns_svg;" xmlns:xlink="&ns_xlink;" xmlns:a="http://ns.adobe.com/AdobeSVGViewerExtensions/3.0/"
	 width="298" height="420" viewBox="0 -0.21 298 420" enable-background="new 0 -0.21 298 420" xml:space="preserve">
<defs>
</defs>
<rect fill="#FFFFFF" width="297.64" height="419.79"/>
<g>
	<path fill="none" stroke="#000000" stroke-width="0.25" d="M282.82,361.3c0,23.39-19.13,42.52-42.52,42.52H57.34
		c-23.39,0-42.52-19.13-42.52-42.52V57.34c0-23.39,19.13-42.52,42.52-42.52H240.3c23.39,0,42.52,19.13,42.52,42.52V361.3z"/>
</g>
<path d="M142.03,375.65c-0.31,0-0.77-0.49-0.77-0.77s0.46-0.77,0.77-0.77c0.31,0,0.77,0.49,0.77,0.77S142.34,375.65,142.03,375.65z
	 M141.31,386.98c0-0.31,0.48-0.77,0.77-0.77s0.77,0.46,0.77,0.77c0,0.31-0.48,0.77-0.77,0.77S141.31,387.28,141.31,386.98z
	 M143.5,377.13c-0.31,0-0.77-0.48-0.77-0.77c0-0.29,0.46-0.77,0.77-0.77c0.31,0,0.78,0.48,0.78,0.77
	C144.28,376.66,143.81,377.13,143.5,377.13z M142.74,385.55c0-0.31,0.48-0.77,0.77-0.77s0.77,0.46,0.77,0.77s-0.48,0.77-0.77,0.77
	S142.74,385.86,142.74,385.55z M145.88,377.96c0-1.34,0.87-2.28,2.25-2.28s2.2,0.95,2.2,2.28h0.03c0-0.11,0.38-0.85,0.83-0.85
	c0.31,0,0.8,0.5,0.8,0.8c0,0.46-0.74,0.83-0.85,0.84v0.03c1.34,0,2.3,0.8,2.3,2.18s-0.95,2.25-2.3,2.25v0.03
	c0.07,0,0.85,0.35,0.85,0.83c0,0.28-0.38,0.76-0.76,0.76c-0.46,0-0.83-0.78-0.83-0.85h-0.03c0,1.34-0.85,2.3-2.24,2.3
	c-1.4,0-2.2-0.95-2.2-2.3h-0.03c-0.01,0.11-0.38,0.85-0.83,0.85c-0.31,0-0.81-0.5-0.81-0.8c0-0.45,0.76-0.83,0.87-0.83v-0.03
	c-1.34,0-2.3-0.81-2.3-2.2s0.94-2.25,2.28-2.25v-0.03c-0.06,0-0.84-0.35-0.84-0.83c0-0.38,0.5-0.74,0.74-0.74
	c0.48,0,0.84,0.78,0.83,0.84H145.88z M147.01,379.84c-0.14,0.14-0.28,0.28-0.49,0.28c-0.34,0-0.62-0.34-0.77-0.83
	c-0.06-0.03-0.13-0.03-0.2-0.03c-0.38,0-1.08,0.38-1.08,0.81c0,0.29,0.27,0.63,0.8,0.9c-0.53,0.27-0.8,0.63-0.8,0.94
	c0,0.45,0.66,0.76,1.04,0.76c0.08,0,0.17-0.01,0.24-0.04c0.13-0.46,0.45-0.83,0.77-0.83c0.31,0,0.77,0.48,0.77,0.77
	c0,0.34-0.36,0.64-0.83,0.78c-0.03,0.07-0.04,0.14-0.04,0.22c0,0.38,0.31,1.04,0.76,1.04c0.31,0,0.67-0.27,0.95-0.78
	c0.27,0.52,0.6,0.78,0.9,0.78c0.42,0,0.81-0.7,0.81-1.08c0-0.07-0.01-0.14-0.04-0.2c-0.49-0.15-0.81-0.42-0.81-0.76
	c0-0.21,0.14-0.36,0.27-0.49c0.14-0.13,0.28-0.27,0.49-0.27c0.34,0,0.6,0.32,0.76,0.81c0.07,0.03,0.13,0.04,0.21,0.04
	c0.36,0,1.06-0.39,1.06-0.83c0-0.28-0.25-0.62-0.79-0.9c0.53-0.27,0.79-0.63,0.79-0.94c0-0.45-0.66-0.76-1.02-0.76
	c-0.08,0-0.17,0.01-0.24,0.04c-0.13,0.46-0.45,0.83-0.78,0.83c-0.29,0-0.77-0.46-0.77-0.77c0-0.32,0.36-0.64,0.84-0.77
	c0.03-0.07,0.04-0.15,0.04-0.24c0-0.38-0.31-1.04-0.77-1.04c-0.31,0-0.66,0.27-0.94,0.8c-0.27-0.53-0.6-0.8-0.9-0.8
	c-0.42,0-0.81,0.7-0.81,1.08c0,0.07,0.01,0.14,0.03,0.2c0.49,0.15,0.83,0.42,0.83,0.76c0,0.21-0.14,0.36-0.28,0.5L147.01,379.84z
	 M149.15,380.98c0,0.39-0.63,1.01-1.02,1.01s-1.02-0.62-1.02-1.01c0-0.41,0.63-1.02,1.02-1.02S149.15,380.58,149.15,380.98z
	 M152.67,377.23c-0.31,0-0.77-0.48-0.77-0.77s0.46-0.77,0.77-0.77c0.31,0,0.77,0.48,0.77,0.77S152.98,377.23,152.67,377.23z
	 M151.9,385.53c0-0.31,0.48-0.78,0.77-0.78c0.29,0,0.77,0.48,0.77,0.78c0,0.31-0.48,0.77-0.77,0.77
	C152.38,386.3,151.9,385.84,151.9,385.53z M154.17,375.73c-0.31,0-0.79-0.49-0.79-0.77s0.48-0.77,0.79-0.77
	c0.29,0,0.77,0.48,0.77,0.77S154.46,375.73,154.17,375.73z M153.38,387c0-0.31,0.48-0.77,0.77-0.77c0.29,0,0.77,0.46,0.77,0.77
	s-0.48,0.77-0.77,0.77C153.86,387.77,153.38,387.31,153.38,387z"/>
<g>
	<path fill="none" stroke="#000000" stroke-width="0.25" d="M258.03,143.81c0,15.59-12.76,28.35-28.35,28.35H67.62
		c-15.59,0-28.35-12.76-28.35-28.35v-5.31c0-15.59,12.76-28.35,28.35-28.35h162.07c15.59,0,28.35,12.76,28.35,28.35V143.81z"/>
</g>
<g>
	<path fill="none" stroke="#000000" stroke-width="0.25" d="M259.27,204.81c0,6.24-5.1,11.34-11.34,11.34H51.23
		c-6.24,0-11.34-5.1-11.34-11.34v-0.66c0-6.24,5.1-11.34,11.34-11.34h196.7c6.24,0,11.34,5.1,11.34,11.34V204.81z"/>
</g>
<line fill="none" stroke="#000000" stroke-width="0.2573" x1="110.44" y1="321.82" x2="110.44" y2="352.32"/>
<g>
	<path fill="none" stroke="#000000" stroke-width="0.2573" d="M43.44,337.07c0,10.59,8.93,19.25,19.84,19.25h177.82
		c10.91,0,19.84-8.66,19.84-19.25s-8.93-19.25-19.84-19.25H63.28C52.37,317.82,43.44,326.48,43.44,337.07z"/>
</g>
</svg>
