<?xml version="1.0" encoding="utf-8"?>
<!-- Generator: Adobe Illustrator 12.0.0, SVG Export Plug-In  -->
<!DOCTYPE svg PUBLIC "-//W3C//DTD SVG 1.1//EN" "http://www.w3.org/Graphics/SVG/1.1/DTD/svg11.dtd" [
	<!ENTITY ns_flows "http://ns.adobe.com/Flows/1.0/">
	<!ENTITY ns_svg "http://www.w3.org/2000/svg">
	<!ENTITY ns_xlink "http://www.w3.org/1999/xlink">
]>
<svg preserveAspectRatio="none" version="1.1" xmlns="&ns_svg;" xmlns:xlink="&ns_xlink;" xmlns:a="http://ns.adobe.com/AdobeSVGViewerExtensions/3.0/"
	 width="298" height="421" viewBox="0 -0.055 298 421" enable-background="new 0 -0.055 298 421" xml:space="preserve">
<defs>
</defs>
<rect fill="#FFFFFF" width="297.638" height="420.945"/>
<rect fill="none" width="297.638" height="420.945"/>
<g>
	<path fill="none" stroke="#000000" stroke-width="0.25" d="M281.882,362.48c0,23.386-19.134,42.52-42.52,42.52H56.401
		c-23.386,0-42.52-19.134-42.52-42.52V58.52c0-23.386,19.134-42.52,42.52-42.52h182.961c23.386,0,42.52,19.134,42.52,42.52V362.48z"
		/>
</g>
<path d="M141.092,376.832c-0.308,0-0.77-0.49-0.77-0.771s0.462-0.771,0.77-0.771c0.309,0,0.771,0.49,0.771,0.771
	S141.4,376.832,141.092,376.832z M140.378,388.158c0-0.309,0.477-0.771,0.771-0.771s0.77,0.462,0.77,0.771
	c0,0.307-0.476,0.77-0.77,0.77S140.378,388.465,140.378,388.158z M142.563,378.315c-0.309,0-0.771-0.476-0.771-0.771
	c0-0.293,0.462-0.77,0.771-0.77c0.308,0,0.784,0.477,0.784,0.77C143.347,377.84,142.87,378.315,142.563,378.315z M141.807,386.729
	c0-0.308,0.476-0.771,0.77-0.771s0.771,0.463,0.771,0.771s-0.477,0.771-0.771,0.771S141.807,387.037,141.807,386.729z
	 M144.942,379.142c0-1.345,0.868-2.282,2.254-2.282s2.198,0.952,2.198,2.282h0.027c0-0.112,0.378-0.854,0.826-0.854
	c0.309,0,0.798,0.504,0.798,0.799c0,0.461-0.741,0.826-0.854,0.84v0.027c1.344,0,2.296,0.799,2.296,2.185s-0.952,2.254-2.296,2.254
	v0.028c0.07,0,0.854,0.35,0.854,0.826c0,0.279-0.378,0.756-0.756,0.756c-0.462,0-0.826-0.784-0.826-0.854h-0.027
	c0,1.345-0.854,2.296-2.24,2.296c-1.4,0-2.198-0.951-2.198-2.296h-0.027c-0.015,0.112-0.379,0.854-0.826,0.854
	c-0.309,0-0.813-0.504-0.813-0.799c0-0.447,0.756-0.826,0.868-0.826v-0.027c-1.344,0-2.296-0.813-2.296-2.198
	s0.938-2.254,2.282-2.254v-0.028c-0.057,0-0.84-0.35-0.84-0.826c0-0.377,0.504-0.741,0.741-0.741c0.477,0,0.841,0.784,0.826,0.84
	H144.942z M146.076,381.018c-0.14,0.141-0.28,0.279-0.49,0.279c-0.336,0-0.615-0.336-0.77-0.825
	c-0.057-0.028-0.126-0.028-0.196-0.028c-0.378,0-1.078,0.379-1.078,0.813c0,0.294,0.267,0.63,0.798,0.896
	c-0.531,0.267-0.798,0.63-0.798,0.938c0,0.447,0.658,0.756,1.036,0.756c0.084,0,0.168-0.014,0.238-0.042
	c0.126-0.462,0.448-0.826,0.77-0.826c0.309,0,0.771,0.476,0.771,0.771c0,0.336-0.364,0.644-0.826,0.783
	c-0.028,0.07-0.042,0.141-0.042,0.225c0,0.378,0.308,1.035,0.756,1.035c0.308,0,0.672-0.266,0.952-0.783
	c0.266,0.518,0.602,0.783,0.896,0.783c0.421,0,0.813-0.699,0.813-1.078c0-0.069-0.014-0.139-0.042-0.195
	c-0.49-0.154-0.813-0.42-0.813-0.756c0-0.21,0.141-0.364,0.267-0.49c0.14-0.126,0.28-0.266,0.49-0.266
	c0.336,0,0.602,0.322,0.756,0.812c0.069,0.028,0.126,0.042,0.21,0.042c0.363,0,1.063-0.392,1.063-0.826
	c0-0.279-0.252-0.615-0.784-0.896c0.532-0.267,0.784-0.63,0.784-0.938c0-0.447-0.657-0.756-1.021-0.756
	c-0.084,0-0.168,0.014-0.238,0.043c-0.126,0.461-0.448,0.825-0.784,0.825c-0.294,0-0.77-0.462-0.77-0.771
	c0-0.321,0.363-0.644,0.84-0.77c0.028-0.07,0.042-0.154,0.042-0.238c0-0.377-0.308-1.035-0.771-1.035
	c-0.308,0-0.657,0.266-0.938,0.797c-0.266-0.531-0.602-0.797-0.896-0.797c-0.42,0-0.812,0.699-0.812,1.078
	c0,0.069,0.014,0.14,0.028,0.195c0.489,0.154,0.825,0.42,0.825,0.756c0,0.211-0.14,0.364-0.279,0.504L146.076,381.018z
	 M148.218,382.166c0,0.392-0.63,1.008-1.021,1.008s-1.022-0.616-1.022-1.008c0-0.406,0.631-1.022,1.022-1.022
	S148.218,381.76,148.218,382.166z M151.732,378.414c-0.309,0-0.771-0.477-0.771-0.771s0.462-0.771,0.771-0.771
	c0.308,0,0.77,0.477,0.77,0.771S152.04,378.414,151.732,378.414z M150.962,386.715c0-0.307,0.477-0.783,0.771-0.783
	s0.77,0.477,0.77,0.783c0,0.309-0.476,0.771-0.77,0.771S150.962,387.023,150.962,386.715z M153.23,376.916
	c-0.309,0-0.784-0.49-0.784-0.771s0.476-0.771,0.784-0.771c0.294,0,0.77,0.477,0.77,0.771S153.524,376.916,153.23,376.916z
	 M152.446,388.186c0-0.309,0.476-0.77,0.77-0.77s0.771,0.461,0.771,0.77s-0.477,0.77-0.771,0.77S152.446,388.494,152.446,388.186z"
	/>
<g>
	<path fill="none" stroke="#000000" stroke-width="0.25" d="M257.094,144.987c0,15.591-12.756,28.347-28.348,28.347H66.68
		c-15.591,0-28.347-12.756-28.347-28.347v-5.307c0-15.591,12.756-28.347,28.347-28.347h162.066
		c15.592,0,28.348,12.756,28.348,28.347V144.987z"/>
</g>
<g>
	<path fill="none" stroke="#000000" stroke-width="0.25" d="M258.333,205.995c0,6.235-5.103,11.339-11.339,11.339H50.292
		c-6.236,0-11.338-5.104-11.338-11.339v-0.656c0-6.235,5.103-11.339,11.338-11.339h196.703c6.236,0,11.339,5.104,11.339,11.339
		V205.995z"/>
</g>
<line fill="none" stroke="#000000" stroke-width="0.2573" x1="109.5" y1="323" x2="109.5" y2="353.5"/>
<g>
	<path fill="none" stroke="#000000" stroke-width="0.2573" d="M42.5,338.25c0,10.588,8.929,19.25,19.842,19.25h177.816
		c10.912,0,19.842-8.662,19.842-19.25S251.07,319,240.158,319H62.342C51.429,319,42.5,327.662,42.5,338.25z"/>
</g>
</svg>
