<?xml version="1.0" encoding="utf-8"?>
<!-- Generator: Adobe Illustrator 12.0.0, SVG Export Plug-In  -->
<!DOCTYPE svg PUBLIC "-//W3C//DTD SVG 1.1//EN" "http://www.w3.org/Graphics/SVG/1.1/DTD/svg11.dtd" [
	<!ENTITY ns_flows "http://ns.adobe.com/Flows/1.0/">
	<!ENTITY ns_svg "http://www.w3.org/2000/svg">
	<!ENTITY ns_xlink "http://www.w3.org/1999/xlink">
]>
<svg  version="1.1" xmlns="&ns_svg;" xmlns:xlink="&ns_xlink;" xmlns:a="http://ns.adobe.com/AdobeSVGViewerExtensions/3.0/"
	 width="298" height="421" viewBox="0 -0.055 298 421" enable-background="new 0 -0.055 298 421" xml:space="preserve">
<defs>
</defs>
<rect fill="#FFFFFF" width="297.638" height="420.945"/>
<path d="M19.249,20.681c-0.307,0-0.77-0.489-0.77-0.77s0.463-0.771,0.77-0.771c0.309,0,0.771,0.49,0.771,0.771
	S19.558,20.681,19.249,20.681z M18.536,32.007c0-0.308,0.477-0.77,0.77-0.77c0.295,0,0.77,0.462,0.77,0.77s-0.475,0.771-0.77,0.771
	C19.013,32.777,18.536,32.314,18.536,32.007z M20.72,22.165c-0.309,0-0.77-0.476-0.77-0.771c0-0.294,0.461-0.77,0.77-0.77
	s0.785,0.476,0.785,0.77C21.505,21.689,21.028,22.165,20.72,22.165z M19.964,30.579c0-0.309,0.477-0.771,0.77-0.771
	c0.295,0,0.771,0.462,0.771,0.771c0,0.308-0.477,0.77-0.771,0.77C20.44,31.349,19.964,30.887,19.964,30.579z M23.101,22.991
	c0-1.345,0.867-2.282,2.254-2.282c1.385,0,2.197,0.952,2.197,2.282h0.027c0-0.112,0.379-0.854,0.826-0.854
	c0.309,0,0.799,0.504,0.799,0.798c0,0.462-0.742,0.826-0.854,0.841v0.027c1.344,0,2.295,0.798,2.295,2.185
	c0,1.386-0.951,2.254-2.295,2.254v0.027c0.07,0,0.854,0.351,0.854,0.826c0,0.28-0.379,0.756-0.756,0.756
	c-0.463,0-0.826-0.783-0.826-0.854h-0.027c0,1.344-0.855,2.296-2.24,2.296c-1.4,0-2.199-0.952-2.199-2.296h-0.027
	c-0.014,0.112-0.379,0.854-0.826,0.854c-0.309,0-0.813-0.504-0.813-0.798c0-0.448,0.756-0.826,0.869-0.826v-0.027
	c-1.344,0-2.297-0.813-2.297-2.198s0.938-2.254,2.283-2.254v-0.028c-0.057,0-0.84-0.35-0.84-0.826c0-0.378,0.504-0.741,0.74-0.741
	c0.477,0,0.842,0.783,0.826,0.84H23.101z M24.233,24.867c-0.139,0.14-0.279,0.279-0.49,0.279c-0.336,0-0.615-0.336-0.77-0.825
	c-0.057-0.028-0.125-0.028-0.195-0.028c-0.379,0-1.078,0.378-1.078,0.812c0,0.295,0.266,0.631,0.797,0.896
	c-0.531,0.266-0.797,0.63-0.797,0.938c0,0.448,0.658,0.757,1.035,0.757c0.084,0,0.168-0.015,0.238-0.042
	c0.127-0.462,0.449-0.826,0.77-0.826c0.309,0,0.771,0.476,0.771,0.77c0,0.336-0.365,0.645-0.826,0.784
	c-0.029,0.07-0.043,0.14-0.043,0.224c0,0.379,0.309,1.036,0.756,1.036c0.309,0,0.672-0.266,0.953-0.783
	c0.266,0.518,0.602,0.783,0.895,0.783c0.422,0,0.813-0.699,0.813-1.078c0-0.069-0.014-0.14-0.041-0.195
	c-0.49-0.154-0.813-0.42-0.813-0.756c0-0.21,0.141-0.364,0.266-0.49c0.141-0.126,0.281-0.267,0.49-0.267
	c0.336,0,0.602,0.322,0.756,0.813c0.07,0.028,0.127,0.042,0.211,0.042c0.363,0,1.063-0.392,1.063-0.826
	c0-0.28-0.252-0.616-0.783-0.896c0.531-0.267,0.783-0.63,0.783-0.938c0-0.448-0.656-0.756-1.021-0.756
	c-0.084,0-0.168,0.014-0.238,0.042c-0.125,0.462-0.447,0.826-0.783,0.826c-0.295,0-0.77-0.462-0.77-0.771
	c0-0.321,0.363-0.644,0.84-0.77c0.027-0.07,0.041-0.154,0.041-0.238c0-0.378-0.307-1.036-0.77-1.036
	c-0.309,0-0.658,0.267-0.938,0.798c-0.266-0.531-0.602-0.798-0.896-0.798c-0.42,0-0.813,0.7-0.813,1.078
	c0,0.07,0.014,0.141,0.029,0.196c0.488,0.154,0.824,0.42,0.824,0.756c0,0.21-0.139,0.364-0.279,0.504L24.233,24.867z M26.376,26.015
	c0,0.393-0.631,1.008-1.021,1.008c-0.393,0-1.023-0.615-1.023-1.008c0-0.405,0.631-1.021,1.023-1.021
	C25.745,24.993,26.376,25.609,26.376,26.015z M29.89,22.263c-0.309,0-0.77-0.476-0.77-0.77s0.461-0.771,0.77-0.771
	s0.77,0.477,0.77,0.771S30.198,22.263,29.89,22.263z M29.12,30.564c0-0.308,0.477-0.783,0.77-0.783c0.295,0,0.77,0.476,0.77,0.783
	c0,0.309-0.475,0.771-0.77,0.771C29.597,31.335,29.12,30.873,29.12,30.564z M31.388,20.765c-0.309,0-0.783-0.489-0.783-0.77
	s0.475-0.771,0.783-0.771c0.295,0,0.77,0.477,0.77,0.771S31.683,20.765,31.388,20.765z M30.604,32.035
	c0-0.309,0.475-0.771,0.77-0.771c0.293,0,0.77,0.462,0.77,0.771c0,0.308-0.477,0.77-0.77,0.77
	C31.079,32.805,30.604,32.343,30.604,32.035z"/>
<path d="M266.25,389.682c-0.307,0-0.77-0.49-0.77-0.77c0-0.281,0.463-0.771,0.77-0.771c0.309,0,0.771,0.49,0.771,0.771
	C267.021,389.191,266.559,389.682,266.25,389.682z M265.537,401.008c0-0.309,0.477-0.77,0.77-0.77c0.295,0,0.77,0.461,0.77,0.77
	c0,0.307-0.475,0.77-0.77,0.77C266.014,401.777,265.537,401.314,265.537,401.008z M267.721,391.166c-0.309,0-0.77-0.477-0.77-0.771
	c0-0.293,0.461-0.77,0.77-0.77s0.785,0.477,0.785,0.77C268.506,390.689,268.029,391.166,267.721,391.166z M266.965,399.58
	c0-0.309,0.477-0.771,0.77-0.771c0.295,0,0.771,0.463,0.771,0.771c0,0.307-0.477,0.77-0.771,0.77
	C267.441,400.35,266.965,399.887,266.965,399.58z M270.102,391.992c0-1.346,0.867-2.283,2.254-2.283
	c1.385,0,2.197,0.953,2.197,2.283h0.027c0-0.113,0.379-0.855,0.826-0.855c0.309,0,0.799,0.504,0.799,0.799
	c0,0.461-0.742,0.826-0.854,0.84v0.027c1.344,0,2.295,0.799,2.295,2.186c0,1.385-0.951,2.254-2.295,2.254v0.027
	c0.07,0,0.854,0.35,0.854,0.826c0,0.279-0.379,0.756-0.756,0.756c-0.463,0-0.826-0.783-0.826-0.854h-0.027
	c0,1.344-0.855,2.295-2.24,2.295c-1.4,0-2.199-0.951-2.199-2.295h-0.027c-0.014,0.111-0.379,0.854-0.826,0.854
	c-0.309,0-0.813-0.504-0.813-0.799c0-0.447,0.756-0.826,0.869-0.826v-0.027c-1.344,0-2.297-0.813-2.297-2.197
	c0-1.387,0.938-2.254,2.283-2.254v-0.029c-0.057,0-0.84-0.35-0.84-0.826c0-0.377,0.504-0.74,0.74-0.74
	c0.477,0,0.842,0.783,0.826,0.84H270.102z M271.234,393.867c-0.139,0.141-0.279,0.279-0.49,0.279c-0.336,0-0.615-0.336-0.77-0.824
	c-0.057-0.029-0.125-0.029-0.195-0.029c-0.379,0-1.078,0.379-1.078,0.813c0,0.295,0.266,0.631,0.797,0.896
	c-0.531,0.266-0.797,0.629-0.797,0.938c0,0.447,0.658,0.756,1.035,0.756c0.084,0,0.168-0.014,0.238-0.041
	c0.127-0.463,0.449-0.826,0.77-0.826c0.309,0,0.771,0.475,0.771,0.77c0,0.336-0.365,0.645-0.826,0.783
	c-0.029,0.07-0.043,0.141-0.043,0.225c0,0.379,0.309,1.035,0.756,1.035c0.309,0,0.672-0.266,0.953-0.783
	c0.266,0.518,0.602,0.783,0.895,0.783c0.422,0,0.813-0.699,0.813-1.078c0-0.068-0.014-0.139-0.041-0.195
	c-0.49-0.154-0.813-0.42-0.813-0.756c0-0.209,0.141-0.363,0.266-0.49c0.141-0.125,0.281-0.266,0.49-0.266
	c0.336,0,0.602,0.322,0.756,0.813c0.07,0.027,0.127,0.041,0.211,0.041c0.363,0,1.063-0.391,1.063-0.826
	c0-0.279-0.252-0.615-0.783-0.895c0.531-0.268,0.783-0.631,0.783-0.939c0-0.447-0.656-0.756-1.021-0.756
	c-0.084,0-0.168,0.014-0.238,0.043c-0.125,0.461-0.447,0.826-0.783,0.826c-0.295,0-0.77-0.463-0.77-0.771
	c0-0.32,0.363-0.643,0.84-0.77c0.027-0.07,0.041-0.154,0.041-0.238c0-0.377-0.307-1.035-0.77-1.035
	c-0.309,0-0.658,0.266-0.938,0.797c-0.266-0.531-0.602-0.797-0.896-0.797c-0.42,0-0.813,0.699-0.813,1.078
	c0,0.07,0.014,0.141,0.029,0.195c0.488,0.154,0.824,0.42,0.824,0.756c0,0.211-0.139,0.365-0.279,0.504L271.234,393.867z
	 M273.377,395.016c0,0.393-0.631,1.008-1.021,1.008c-0.393,0-1.023-0.615-1.023-1.008c0-0.406,0.631-1.021,1.023-1.021
	C272.746,393.994,273.377,394.609,273.377,395.016z M276.891,391.264c-0.309,0-0.77-0.477-0.77-0.77c0-0.295,0.461-0.771,0.77-0.771
	s0.77,0.477,0.77,0.771C277.66,390.787,277.199,391.264,276.891,391.264z M276.121,399.564c0-0.307,0.477-0.783,0.77-0.783
	c0.295,0,0.77,0.477,0.77,0.783c0,0.309-0.475,0.771-0.77,0.771C276.598,400.336,276.121,399.873,276.121,399.564z M278.389,389.766
	c-0.309,0-0.783-0.49-0.783-0.77c0-0.281,0.475-0.771,0.783-0.771c0.295,0,0.77,0.477,0.77,0.771
	C279.158,389.289,278.684,389.766,278.389,389.766z M277.605,401.035c0-0.309,0.475-0.77,0.77-0.77c0.293,0,0.77,0.461,0.77,0.77
	s-0.477,0.77-0.77,0.77C278.08,401.805,277.605,401.344,277.605,401.035z"/>
</svg>
