<?xml version="1.0" encoding="utf-8"?>
<!-- Generator: Adobe Illustrator 16.0.0, SVG Export Plug-In . SVG Version: 6.00 Build 0)  -->
<!DOCTYPE svg PUBLIC "-//W3C//DTD SVG 1.1//EN" "http://www.w3.org/Graphics/SVG/1.1/DTD/svg11.dtd">
<svg version="1.1" id="Layer_1" xmlns="http://www.w3.org/2000/svg" xmlns:xlink="http://www.w3.org/1999/xlink" x="0px" y="0px"
	 width="100px" height="100px" viewBox="0 0 100 100" enable-background="new 0 0 100 100" xml:space="preserve">
<g>
	<path d="M69.267,38H61v-6.619C61,29.266,59.132,28,57.017,28h-20.58C34.321,28,33,29.266,33,31.381V38h-8.313
		C22.571,38,21,39.266,21,41.381v24.58C21,68.076,22.571,70,24.687,70H33v3.711C33,75.826,34.321,78,36.437,78h20.58
		C59.132,78,61,75.826,61,73.711V70h8.267C71.382,70,74,68.076,74,65.961v-24.58C74,39.266,71.382,38,69.267,38z M35,31.381
		C35,30.369,35.425,30,36.437,30h20.58C58.028,30,59,30.369,59,31.381V38H35V31.381z M59,73.711C59,74.723,58.028,76,57.017,76
		h-20.58C35.425,76,35,74.723,35,73.711v-3.915V58.971C35,57.959,35.425,57,36.437,57h20.58C58.028,57,59,57.959,59,58.971v10.825
		V73.711z M72,65.961C72,66.973,70.278,68,69.267,68H61v-9.029C61,56.856,59.132,55,57.017,55h-20.58C34.321,55,33,56.856,33,58.971
		V68h-8.313C23.675,68,23,66.973,23,65.961v-24.58C23,40.369,23.675,40,24.687,40h7.915h28.25h8.415C70.278,40,72,40.369,72,41.381
		V65.961z"/>
	<circle cx="30.935" cy="48.129" r="1.833"/>
	<circle cx="37.101" cy="48.129" r="1.833"/>
</g>
</svg>
