<?xml version="1.0" encoding="utf-8"?>
<!-- Generator: Adobe Illustrator 16.0.0, SVG Export Plug-In . SVG Version: 6.00 Build 0)  -->
<!DOCTYPE svg PUBLIC "-//W3C//DTD SVG 1.1//EN" "http://www.w3.org/Graphics/SVG/1.1/DTD/svg11.dtd">
<svg version="1.1" id="Layer_1" xmlns="http://www.w3.org/2000/svg" xmlns:xlink="http://www.w3.org/1999/xlink" x="0px" y="0px"
	 width="50px" height="50px" viewBox="0 0 50 50" enable-background="new 0 0 50 50" xml:space="preserve">
<g>
	<path d="M17.707,29.296l-1.215,6.398h17.018l-1.215-6.398H17.707z M17.699,34.694l0.835-4.398h12.931l0.835,4.398H17.699z"/>
	<path d="M17.707,16.245h14.587v1.503h1.823v-1.012c0-1.336-1.094-2.431-2.431-2.431H18.314c-1.337,0-2.431,1.095-2.431,2.431v1.012
		h1.823V16.245z"/>
	<path d="M37.763,18.464H12.237c-1.616,0-2.931,1.314-2.931,2.931v7.294c0,1.616,1.315,2.931,2.931,2.931h3.155l0.868-3.039H33.74
		l0.868,3.039h3.155c1.616,0,2.931-1.314,2.931-2.931v-7.294C40.694,19.778,39.379,18.464,37.763,18.464z M39.694,28.688
		c0,1.064-0.866,1.931-1.931,1.931h-2.401l-0.868-3.039H15.506l-0.868,3.039h-2.401c-1.065,0-1.931-0.866-1.931-1.931v-7.294
		c0-1.064,0.866-1.931,1.931-1.931h25.526c1.065,0,1.931,0.866,1.931,1.931V28.688z"/>
	<circle cx="34.359" cy="21.876" r="0.912"/>
	<circle cx="36.992" cy="21.876" r="0.708"/>
	<path d="M30.5,33.038h-11c-0.276,0-0.5,0.224-0.5,0.5s0.224,0.5,0.5,0.5h11c0.276,0,0.5-0.224,0.5-0.5S30.776,33.038,30.5,33.038z"
		/>
	<path d="M30.5,31.194h-11c-0.276,0-0.5,0.224-0.5,0.5s0.224,0.5,0.5,0.5h11c0.276,0,0.5-0.224,0.5-0.5S30.776,31.194,30.5,31.194z"
		/>
</g>
</svg>
