<?xml version="1.0" encoding="utf-8"?>
<!-- Generator: Adobe Illustrator 12.0.0, SVG Export Plug-In  -->
<!DOCTYPE svg PUBLIC "-//W3C//DTD SVG 1.1//EN" "http://www.w3.org/Graphics/SVG/1.1/DTD/svg11.dtd" [
	<!ENTITY ns_flows "http://ns.adobe.com/Flows/1.0/">
	<!ENTITY ns_svg "http://www.w3.org/2000/svg">
	<!ENTITY ns_xlink "http://www.w3.org/1999/xlink">
]>
<svg  version="1.1" xmlns="&ns_svg;" xmlns:xlink="&ns_xlink;" xmlns:a="http://ns.adobe.com/AdobeSVGViewerExtensions/3.0/"
	 width="64" height="64" viewBox="-2.05 0 64 64" enable-background="new -2.05 0 64 64" xml:space="preserve">
<defs>
</defs>
<path fill="#FFFFFF" d="M8.91,5.33c-0.53,0-5.92,0-6.45,0C0.86,5.33,0.01,6.17,0.01,7.78c0,2.23-0.02,8.27,0.01,9.06
	c0.03,0.64,0.49,1.06,1.09,1.06c0.61,0,1.04-0.41,1.1-1.05c0.02-0.19,0-4.61,0.02-6.63c0-0.47,0.54-0.37,0.54,0.02
	c0,0.25,0.01,12.37,0.01,18.33c0,1.05,0.49,1.67,1.32,1.68c0.88,0.02,1.38-0.58,1.38-1.69c0.01-1.56,0.01-8.73,0.02-10
	c0-0.26,0.39-0.26,0.39,0c0,1.28,0.01,8.44,0.02,10c0,1.11,0.5,1.71,1.38,1.69c0.83-0.02,1.32-0.63,1.32-1.68
	c0-5.97,0.01-18.08,0.01-18.33c0-0.38,0.54-0.49,0.54-0.02c0.02,2.01,0,6.43,0.02,6.63c0.05,0.64,0.49,1.05,1.1,1.05
	c0.6,0,1.06-0.42,1.09-1.06c0.03-0.79,0.02-6.82,0.01-9.06C11.37,6.17,10.52,5.33,8.91,5.33z"/>
<path fill="#FFFFFF" d="M5.65,4.35c1.25,0.01,2.22-0.92,2.23-2.15C7.89,0.98,6.92,0,5.7,0C4.49,0,3.49,0.99,3.5,2.19
	C3.51,3.37,4.47,4.34,5.65,4.35z"/>
<path fill="#FFFFFF" d="M25.09,5.33c-0.53,0-5.92,0-6.45,0c-1.61,0.01-2.45,0.85-2.46,2.45c0,2.23-0.02,8.27,0.01,9.06
	c0.03,0.64,0.49,1.06,1.09,1.06c0.6,0,1.04-0.41,1.1-1.05c0.02-0.19,0-4.61,0.02-6.63c0-0.47,0.54-0.37,0.54,0.02
	c0,0.25,0.01,12.37,0.01,18.33c0,1.05,0.49,1.67,1.32,1.68c0.88,0.02,1.38-0.58,1.39-1.69c0-1.56,0.01-8.73,0.02-10
	c0-0.26,0.39-0.26,0.39,0c0,1.28,0.01,8.44,0.01,10c0,1.11,0.5,1.71,1.38,1.69c0.83-0.02,1.32-0.63,1.32-1.68
	c0-5.97,0.01-18.08,0.01-18.33c0-0.38,0.54-0.49,0.54-0.02c0.02,2.01,0,6.43,0.02,6.63c0.06,0.64,0.49,1.05,1.1,1.05
	c0.6,0,1.06-0.42,1.09-1.06c0.03-0.79,0.02-6.82,0.01-9.06C27.54,6.17,26.7,5.33,25.09,5.33z"/>
<path fill="#FFFFFF" d="M21.83,4.35c1.25,0.01,2.22-0.92,2.23-2.15C24.07,0.98,23.09,0,21.88,0c-1.22,0-2.21,0.99-2.21,2.19
	C19.68,3.37,20.65,4.34,21.83,4.35z"/>
<path fill="#FFFFFF" d="M41.26,5.33c-0.53,0-5.92,0-6.45,0c-1.61,0.01-2.45,0.85-2.46,2.45c-0.01,2.23-0.02,8.27,0.01,9.06
	c0.03,0.64,0.49,1.06,1.09,1.06c0.61,0,1.04-0.41,1.1-1.05c0.02-0.19,0-4.61,0.02-6.63c0-0.47,0.54-0.37,0.54,0.02
	c0,0.25,0.01,12.37,0.01,18.33c0,1.05,0.49,1.67,1.33,1.68c0.88,0.02,1.38-0.58,1.38-1.69c0.01-1.56,0.01-8.73,0.02-10
	c0-0.26,0.39-0.26,0.39,0c0,1.28,0.01,8.44,0.01,10c0,1.11,0.5,1.71,1.38,1.69c0.83-0.02,1.32-0.63,1.32-1.68
	c0-5.97,0.01-18.08,0.01-18.33c0-0.38,0.54-0.49,0.54-0.02c0.02,2.01,0,6.43,0.02,6.63c0.06,0.64,0.49,1.05,1.1,1.05
	c0.6,0,1.06-0.42,1.09-1.06c0.03-0.79,0.01-6.82,0.01-9.06C43.71,6.17,42.87,5.33,41.26,5.33z"/>
<path fill="#FFFFFF" d="M38,4.35c1.25,0.01,2.22-0.92,2.23-2.15C40.24,0.98,39.26,0,38.05,0c-1.22,0-2.21,0.99-2.21,2.19
	C35.85,3.37,36.82,4.34,38,4.35z"/>
<path fill="#FFFFFF" d="M49.62,17.9c0.6,0,1.04-0.41,1.1-1.05c0.02-0.19,0-4.61,0.02-6.63c0-0.47,0.54-0.37,0.54,0.02
	c0,0.25,0.01,12.37,0.01,18.33c0,1.05,0.49,1.67,1.33,1.68C53.5,30.27,54,29.67,54,28.55c0-1.56,0.01-8.73,0.01-10
	c0-0.26,0.39-0.26,0.39,0c0,1.28,0.01,8.44,0.01,10c0.01,1.11,0.5,1.71,1.39,1.69c0.84-0.02,1.32-0.63,1.32-1.68
	c0-5.97,0.01-18.08,0.01-18.33c0-0.38,0.54-0.49,0.54-0.02c0.02,2.01,0,6.43,0.02,6.63c0.06,0.64,0.49,1.05,1.1,1.05
	c0.6,0,1.06-0.42,1.09-1.06c0.03-0.79,0.02-6.82,0.01-9.06c-0.01-1.6-0.85-2.44-2.46-2.45c-0.53,0-5.92,0-6.45,0
	c-1.61,0.01-2.45,0.85-2.46,2.45c-0.01,2.23-0.02,8.27,0.01,9.06C48.56,17.48,49.02,17.9,49.62,17.9z"/>
<path fill="#FFFFFF" d="M54.17,4.35c1.25,0.01,2.22-0.92,2.23-2.15C56.41,0.98,55.43,0,54.22,0C53,0,52,0.99,52.01,2.19
	C52.02,3.37,52.99,4.34,54.17,4.35z"/>
<path fill="#FFFFFF" d="M8.91,39.01c-0.53,0-5.92,0-6.45,0c-1.61,0.01-2.45,0.85-2.46,2.45c0,2.23-0.02,8.27,0.01,9.06
	c0.03,0.64,0.49,1.06,1.09,1.06c0.61,0,1.04-0.41,1.1-1.05c0.02-0.2,0-4.62,0.02-6.63c0-0.47,0.54-0.37,0.54,0.02
	c0,0.25,0.01,12.37,0.01,18.33c0,1.05,0.49,1.66,1.32,1.68c0.88,0.02,1.38-0.58,1.38-1.69c0.01-1.56,0.01-8.73,0.02-10
	c0-0.26,0.39-0.27,0.39,0c0,1.28,0.01,8.44,0.02,10c0,1.11,0.5,1.71,1.38,1.69c0.83-0.02,1.32-0.63,1.32-1.68
	c0-5.97,0.01-18.08,0.01-18.33c0-0.38,0.54-0.49,0.54-0.02c0.02,2.01,0,6.43,0.02,6.63c0.05,0.64,0.49,1.05,1.1,1.05
	c0.6,0,1.06-0.42,1.09-1.06c0.03-0.79,0.02-6.82,0.01-9.06C11.37,39.86,10.52,39.01,8.91,39.01z"/>
<path fill="#FFFFFF" d="M7.88,35.89c0.01-1.22-0.96-2.21-2.18-2.21c-1.22,0-2.21,0.99-2.21,2.19c0.01,1.18,0.98,2.15,2.16,2.16
	C6.91,38.05,7.88,37.11,7.88,35.89z"/>
<path fill="#FFFFFF" d="M25.09,39.01c-0.53,0-5.92,0-6.45,0c-1.61,0.01-2.45,0.85-2.46,2.45c0,2.23-0.02,8.27,0.01,9.06
	c0.03,0.64,0.49,1.06,1.09,1.06c0.6,0,1.04-0.41,1.1-1.05c0.02-0.2,0-4.62,0.02-6.63c0-0.47,0.54-0.37,0.54,0.02
	c0,0.25,0.01,12.37,0.01,18.33c0,1.05,0.49,1.66,1.32,1.68c0.88,0.02,1.38-0.58,1.39-1.69c0-1.56,0.01-8.73,0.02-10
	c0-0.26,0.39-0.27,0.39,0c0,1.28,0.01,8.44,0.01,10c0,1.11,0.5,1.71,1.38,1.69c0.83-0.02,1.32-0.63,1.32-1.68
	c0-5.97,0.01-18.08,0.01-18.33c0-0.38,0.54-0.49,0.54-0.02c0.02,2.01,0,6.43,0.02,6.63c0.06,0.64,0.49,1.05,1.1,1.05
	c0.6,0,1.06-0.42,1.09-1.06c0.03-0.79,0.02-6.82,0.01-9.06C27.54,39.86,26.7,39.01,25.09,39.01z"/>
<path fill="#FFFFFF" d="M24.06,35.89c0.01-1.22-0.96-2.21-2.18-2.21c-1.22,0-2.21,0.99-2.21,2.19c0.01,1.18,0.98,2.15,2.16,2.16
	C23.08,38.05,24.05,37.11,24.06,35.89z"/>
<path fill="#FFFFFF" d="M41.26,39.01c-0.53,0-5.92,0-6.45,0c-1.61,0.01-2.45,0.85-2.46,2.45c-0.01,2.23-0.02,8.27,0.01,9.06
	c0.03,0.64,0.49,1.06,1.09,1.06c0.61,0,1.04-0.41,1.1-1.05c0.02-0.2,0-4.62,0.02-6.63c0-0.47,0.54-0.37,0.54,0.02
	c0,0.25,0.01,12.37,0.01,18.33c0,1.05,0.49,1.66,1.33,1.68c0.88,0.02,1.38-0.58,1.38-1.69c0.01-1.56,0.01-8.73,0.02-10
	c0-0.26,0.39-0.27,0.39,0c0,1.28,0.01,8.44,0.01,10c0,1.11,0.5,1.71,1.38,1.69c0.83-0.02,1.32-0.63,1.32-1.68
	c0-5.97,0.01-18.08,0.01-18.33c0-0.38,0.54-0.49,0.54-0.02c0.02,2.01,0,6.43,0.02,6.63c0.06,0.64,0.49,1.05,1.1,1.05
	c0.6,0,1.06-0.42,1.09-1.06c0.03-0.79,0.01-6.82,0.01-9.06C43.71,39.86,42.87,39.01,41.26,39.01z"/>
<path fill="#FFFFFF" d="M40.23,35.89c0.01-1.22-0.96-2.21-2.18-2.21c-1.22,0-2.21,0.99-2.21,2.19c0.01,1.18,0.98,2.15,2.16,2.16
	C39.25,38.05,40.22,37.11,40.23,35.89z"/>
<path fill="#FFFFFF" d="M57.43,39.01c-0.53,0-5.92,0-6.45,0c-1.61,0.01-2.45,0.85-2.46,2.45c-0.01,2.23-0.02,8.27,0.01,9.06
	c0.03,0.64,0.49,1.06,1.08,1.06c0.6,0,1.04-0.41,1.1-1.05c0.02-0.2,0-4.62,0.02-6.63c0-0.47,0.54-0.37,0.54,0.02
	c0,0.25,0.01,12.37,0.01,18.33c0,1.05,0.49,1.66,1.33,1.68C53.5,63.95,54,63.35,54,62.24c0-1.56,0.01-8.73,0.01-10
	c0-0.26,0.39-0.27,0.39,0c0,1.28,0.01,8.44,0.01,10c0.01,1.11,0.5,1.71,1.39,1.69c0.84-0.02,1.32-0.63,1.32-1.68
	c0-5.97,0.01-18.08,0.01-18.33c0-0.38,0.54-0.49,0.54-0.02c0.02,2.01,0,6.43,0.02,6.63c0.06,0.64,0.49,1.05,1.1,1.05
	c0.6,0,1.06-0.42,1.09-1.06c0.03-0.79,0.02-6.82,0.01-9.06C59.88,39.86,59.04,39.01,57.43,39.01z"/>
<path fill="#FFFFFF" d="M54.22,33.68c-1.22,0-2.21,0.99-2.21,2.19c0.01,1.18,0.98,2.15,2.16,2.16c1.25,0.01,2.22-0.92,2.23-2.15
	C56.41,34.67,55.43,33.68,54.22,33.68z"/>
</svg>
