<?xml version="1.0" encoding="utf-8"?>
<!-- Generator: Adobe Illustrator 12.0.0, SVG Export Plug-In  -->
<!DOCTYPE svg PUBLIC "-//W3C//DTD SVG 1.1//EN" "http://www.w3.org/Graphics/SVG/1.1/DTD/svg11.dtd" [
	<!ENTITY ns_flows "http://ns.adobe.com/Flows/1.0/">
	<!ENTITY ns_svg "http://www.w3.org/2000/svg">
	<!ENTITY ns_xlink "http://www.w3.org/1999/xlink">
]>
<svg  version="1.1" xmlns="&ns_svg;" xmlns:xlink="&ns_xlink;" xmlns:a="http://ns.adobe.com/AdobeSVGViewerExtensions/3.0/"
	 width="23" height="23" viewBox="-0.2 -0.38 23 23" enable-background="new -0.2 -0.38 23 23" xml:space="preserve">
<defs>
</defs>
<circle cx="3.83" cy="13.51" r="2.82"/>
<circle cx="11.3" cy="13.51" r="2.82"/>
<circle cx="18.77" cy="13.51" r="2.82"/>
<path d="M18.77,16.62c-1.83,0-3.36,1.24-3.73,2.89c-0.38-1.65-1.9-2.89-3.74-2.89c-1.83,0-3.36,1.24-3.74,2.89
	c-0.38-1.65-1.9-2.89-3.74-2.89C1.71,16.62,0,18.26,0,20.3v2.04h22.6V20.3C22.6,18.26,20.89,16.62,18.77,16.62L18.77,16.62z"/>
<path d="M15.1,5.24c-1.56,0-2.82,1.27-2.82,2.83s1.27,2.83,2.82,2.83c1.56,0,2.83-1.27,2.83-2.83S16.66,5.24,15.1,5.24z"/>
<circle cx="7.5" cy="8.06" r="2.83"/>
<circle cx="11.3" cy="2.82" r="2.82"/>
<rect fill="none" width="22.6" height="22.34"/>
</svg>
