<?xml version="1.0" encoding="utf-8"?>
<!-- Generator: Adobe Illustrator 12.0.0, SVG Export Plug-In  -->
<!DOCTYPE svg PUBLIC "-//W3C//DTD SVG 1.1//EN" "http://www.w3.org/Graphics/SVG/1.1/DTD/svg11.dtd" [
	<!ENTITY ns_flows "http://ns.adobe.com/Flows/1.0/">
	<!ENTITY ns_svg "http://www.w3.org/2000/svg">
	<!ENTITY ns_xlink "http://www.w3.org/1999/xlink">
]>
<svg  version="1.1" xmlns="&ns_svg;" xmlns:xlink="&ns_xlink;" xmlns:a="http://ns.adobe.com/AdobeSVGViewerExtensions/3.0/"
	 width="32" height="32" viewBox="-2 -2 32 32" enable-background="new -2 -2 32 32" xml:space="preserve">
<defs>
</defs>
<path fill="#FFFFFF" d="M6,18C6,16,6,8,6,8s0-0.45,0.24-1C4.16,7,2,7,2,7S0,7,0,9v7c0,2,2,2,2,2v10h6v-8C8,20,6,20,6,18z"/>
<path fill="#FFFFFF" d="M6,6c0.52,0,1-0.14,1.43-0.38c0.06-0.04,0.13-0.07,0.19-0.1C8.45,4.99,9,4.06,9,3c0-1.66-1.34-3-3-3
	S3,1.34,3,3S4.34,6,6,6z"/>
<path fill="#FFFFFF" d="M26,7h-4.24C22,7.55,22,8,22,8s0,8,0,10s-2,2-2,2v8h6V18c0,0,2,0,2-2s0-7,0-7S28,7,26,7z"/>
<path fill="#FFFFFF" d="M20.38,5.52c0.07,0.04,0.13,0.07,0.19,0.1C21,5.86,21.48,6,22,6c1.66,0,3-1.34,3-3s-1.34-3-3-3s-3,1.34-3,3
	C19,4.06,19.55,4.98,20.38,5.52z"/>
<circle fill="#FFFFFF" cx="14" cy="3" r="3"/>
<path fill="#FFFFFF" d="M20,9c0,0,0-2-2-2c-0.5,0-8,0-8,0S8,7,8,9v7c0,2,2,2,2,2v10h8V18c0,0,2,0,2-2S20,9,20,9z"/>
</svg>
