<?xml version="1.0" encoding="utf-8"?>
<!-- Generator: Adobe Illustrator 12.0.0, SVG Export Plug-In  -->
<!DOCTYPE svg PUBLIC "-//W3C//DTD SVG 1.1//EN" "http://www.w3.org/Graphics/SVG/1.1/DTD/svg11.dtd" [
	<!ENTITY ns_flows "http://ns.adobe.com/Flows/1.0/">
	<!ENTITY ns_svg "http://www.w3.org/2000/svg">
	<!ENTITY ns_xlink "http://www.w3.org/1999/xlink">
]>
<svg  version="1.1" xmlns="&ns_svg;" xmlns:xlink="&ns_xlink;" xmlns:a="http://ns.adobe.com/AdobeSVGViewerExtensions/3.0/"
	 width="16" height="13" viewBox="0 0 16 13" enable-background="new 0 0 16 13" xml:space="preserve">
<defs>
</defs>
<path fill="#FFFFFF" d="M14.71,4.4c-0.51,0-0.92,0.41-0.92,0.92c0,0.51,0.41,0.92,0.92,0.92c0.51,0,0.92-0.41,0.92-0.92
	C15.63,4.81,15.21,4.4,14.71,4.4z M1.51,4.4C1,4.4,0.59,4.81,0.59,5.32c0,0.51,0.41,0.92,0.92,0.92c0.51,0,0.92-0.41,0.92-0.92
	C2.43,4.81,2.02,4.4,1.51,4.4z M11.98,2.73c-0.75,0-1.37,0.61-1.37,1.37c0,0.75,0.61,1.36,1.37,1.36s1.37-0.61,1.37-1.36
	C13.34,3.34,12.73,2.73,11.98,2.73z M16.22,11.04h-1.56V8.17c0-0.49-0.15-0.95-0.38-1.35c0.14-0.04,0.28-0.07,0.43-0.07
	c0.83,0,1.51,0.68,1.51,1.51V11.04z M4.24,2.73c-0.75,0-1.37,0.61-1.37,1.37c0,0.75,0.61,1.36,1.37,1.36c0.75,0,1.36-0.61,1.36-1.36
	C5.6,3.34,4.99,2.73,4.24,2.73z M1.51,6.76c0.15,0,0.29,0.03,0.42,0.07C1.7,7.22,1.56,7.68,1.56,8.17v2.87H0V8.27
	C0,7.44,0.68,6.76,1.51,6.76z M8.11,0C6.99,0,6.09,0.91,6.09,2.02s0.91,2.02,2.02,2.02c1.11,0,2.02-0.91,2.02-2.02
	C10.13,0.91,9.22,0,8.11,0z M14.16,12.11h-2.39V7.75c0-0.6-0.16-1.16-0.41-1.66c0.2-0.06,0.4-0.1,0.62-0.1
	c1.2,0,2.18,0.98,2.18,2.18V12.11z M4.44,7.75v4.36H2.06V8.17c0-1.2,0.98-2.18,2.18-2.18c0.21,0,0.42,0.04,0.61,0.1
	C4.6,6.59,4.44,7.15,4.44,7.75z M4.94,13.37h6.34V7.75c0-1.75-1.42-3.17-3.17-3.17C6.36,4.58,4.94,6,4.94,7.75V13.37z"/>
</svg>
