<?xml version="1.0" encoding="utf-8"?>
<!-- Generator: Adobe Illustrator 12.0.0, SVG Export Plug-In  -->
<!DOCTYPE svg PUBLIC "-//W3C//DTD SVG 1.1//EN" "http://www.w3.org/Graphics/SVG/1.1/DTD/svg11.dtd" [
	<!ENTITY ns_flows "http://ns.adobe.com/Flows/1.0/">
	<!ENTITY ns_svg "http://www.w3.org/2000/svg">
	<!ENTITY ns_xlink "http://www.w3.org/1999/xlink">
]>
<svg  version="1.1" xmlns="&ns_svg;" xmlns:xlink="&ns_xlink;" xmlns:a="http://ns.adobe.com/AdobeSVGViewerExtensions/3.0/"
	 width="128" height="128" viewBox="-2.6 -3 128 128" enable-background="new -2.6 -3 128 128" xml:space="preserve">
<defs>
</defs>
<circle fill="#FFFFFF" cx="19.5" cy="12.1" r="12.1"/>
<path fill="#FFFFFF" d="M6,66.6h1.2v24c0,3.3,2.7,6,6,6h12.6c3.3,0,6-2.7,6-6v-1.4c-1.1-2.1-1.8-4.5-1.8-7V50.8
	c0-6.1,3.7-11.4,9-13.7v-2.4c0-3.3-2.7-6-6-6H6c-3.3,0-6,2.7-6,6v25.9C0,63.9,2.6,66.6,6,66.6z"/>
<circle fill="#FFFFFF" cx="103.3" cy="12.1" r="12.1"/>
<path fill="#FFFFFF" d="M83.7,34.6V37c5.3,2.3,9,7.6,9,13.7V82c0,2.5-0.6,4.9-1.8,7v1.4c0,3.3,2.7,6,6,6h12.6c3.3,0,6-2.7,6-6v-24
	h1.2c3.3,0,6-2.7,6-6V34.6c0-3.3-2.7-6-6-6h-27C86.4,28.6,83.7,31.3,83.7,34.6z"/>
<path fill="#FFFFFF" d="M39.1,50.8L39.1,50.8v9.8v21.6c0,3.3,2.7,6,6,6h2.3v28.3c0,3.3,2.7,6,6,6h16.1c3.3,0,6-2.7,6-6V88.1h2.3
	c3.3,0,6-2.7,6-6V60.6v-9.8l0,0c0-3.3-2.7-6-6-6H45.1C41.7,44.8,39.1,47.5,39.1,50.8z"/>
<circle fill="#FFFFFF" cx="61.4" cy="25.9" r="13.9"/>
</svg>
