<?xml version="1.0" encoding="utf-8"?>
<!-- Generator: Adobe Illustrator 12.0.0, SVG Export Plug-In  -->
<!DOCTYPE svg PUBLIC "-//W3C//DTD SVG 1.1//EN" "http://www.w3.org/Graphics/SVG/1.1/DTD/svg11.dtd" [
	<!ENTITY ns_flows "http://ns.adobe.com/Flows/1.0/">
	<!ENTITY ns_svg "http://www.w3.org/2000/svg">
	<!ENTITY ns_xlink "http://www.w3.org/1999/xlink">
]>
<svg preserveAspectRatio="none" version="1.1" xmlns="&ns_svg;" xmlns:xlink="&ns_xlink;" xmlns:a="http://ns.adobe.com/AdobeSVGViewerExtensions/3.0/"
	 width="355" height="690" viewBox="-0.65 -0.76 355 690" enable-background="new -0.65 -0.76 355 690" xml:space="preserve">
<defs>
</defs>
<line fill="none" stroke="#000000" stroke-width="0.5" x1="0" y1="28.35" x2="28.35" y2="28.35"/>
<line fill="none" stroke="#000000" stroke-width="0.5" x1="28.35" y1="28.35" x2="28.35" y2="0"/>
<line fill="none" stroke="#000000" stroke-width="0.5" x1="325.98" y1="0" x2="325.98" y2="28.35"/>
<line fill="none" stroke="#000000" stroke-width="0.5" x1="325.98" y1="28.35" x2="354.33" y2="28.35"/>
<line fill="none" stroke="#000000" stroke-width="0.5" x1="325.98" y1="239.08" x2="354.33" y2="239.08"/>
<line fill="none" stroke="#000000" stroke-width="0.5" x1="0" y1="239.08" x2="28.35" y2="239.08"/>
<line fill="none" stroke="#000000" stroke-width="0.5" x1="325.98" y1="133.85" x2="354.33" y2="133.85"/>
<line fill="none" stroke="#000000" stroke-width="0.5" x1="0" y1="133.85" x2="28.35" y2="133.85"/>
<line fill="none" stroke="#000000" stroke-width="0.5" x1="325.98" y1="449.56" x2="354.33" y2="449.56"/>
<line fill="none" stroke="#000000" stroke-width="0.5" x1="0" y1="449.56" x2="28.35" y2="449.56"/>
<line fill="none" stroke="#000000" stroke-width="0.5" x1="325.98" y1="344.32" x2="354.33" y2="344.32"/>
<line fill="none" stroke="#000000" stroke-width="0.5" x1="0" y1="344.32" x2="28.35" y2="344.32"/>
<line fill="none" stroke="#000000" stroke-width="0.5" x1="325.98" y1="554.79" x2="354.33" y2="554.79"/>
<line fill="none" stroke="#000000" stroke-width="0.5" x1="0" y1="554.79" x2="28.35" y2="554.79"/>
<line fill="none" stroke="#000000" stroke-width="0.5" x1="354.33" y1="660.03" x2="325.98" y2="660.03"/>
<line fill="none" stroke="#000000" stroke-width="0.5" x1="325.98" y1="660.03" x2="325.98" y2="688.38"/>
<line fill="none" stroke="#000000" stroke-width="0.5" x1="28.35" y1="688.38" x2="28.35" y2="660.03"/>
<line fill="none" stroke="#000000" stroke-width="0.5" x1="28.35" y1="660.03" x2="0" y2="660.03"/>
</svg>
