<?xml version="1.0" encoding="utf-8"?>
<!-- Generator: Adobe Illustrator 12.0.0, SVG Export Plug-In  -->
<!DOCTYPE svg PUBLIC "-//W3C//DTD SVG 1.1//EN" "http://www.w3.org/Graphics/SVG/1.1/DTD/svg11.dtd" [
	<!ENTITY ns_flows "http://ns.adobe.com/Flows/1.0/">
	<!ENTITY ns_svg "http://www.w3.org/2000/svg">
	<!ENTITY ns_xlink "http://www.w3.org/1999/xlink">
]>
<svg  version="1.1" xmlns="&ns_svg;" xmlns:xlink="&ns_xlink;" xmlns:a="http://ns.adobe.com/AdobeSVGViewerExtensions/3.0/"
	 width="98" height="116" viewBox="-0.736 -0.61 98 116" enable-background="new -0.736 -0.61 98 116" xml:space="preserve">
<defs>
</defs>
<rect fill="#FFFFFF" width="97.235" height="114.549"/>
<path fill="#BBB" d="M16.864,62.35c-1.146-1.232-1.158-2.791-0.828-4.697c-0.109-0.048-0.203-0.118-0.293-0.208
	c-0.381-0.424-0.36-1.071,0.069-1.479c0.186-0.166,0.405-0.264,0.619-0.277c0.306-1.575,0.474-2.935-0.222-3.671
	c-0.191-0.19-0.344-0.198-0.438-0.104c-0.074,0.074-0.169,0.228-0.253,0.373c-0.053,0.094-0.17,0.374-0.39,0.594
	c-0.292,0.291-0.713,0.248-1.414-0.14c-1.23-0.666-1.813-0.747-2.712,0.151c-1.013,1.014-0.585,2.318-0.144,2.783
	c0.263,0.283,0.572,0.278,0.688,0.164c0.115-0.116,0.135-0.199,0.119-0.383c-0.008-0.112,0.014-0.297,0.203-0.486
	c0.251-0.25,0.81-0.508,1.366,0.047c0.402,0.403,0.316,1.111-0.113,1.541c-0.699,0.699-1.778,0.288-2.424-0.376
	c-0.977-1.019-1.2-2.976,0.524-4.7c1.599-1.601,3.733-1.616,5.004-0.284c1.086,1.149,1.127,2.402,0.717,4.563
	c0.114,0.051,0.234,0.13,0.334,0.23c0.365,0.383,0.33,1.061-0.066,1.437c-0.187,0.167-0.416,0.274-0.642,0.299
	c-0.27,1.422-0.423,3.026,0.282,3.73c0.171,0.172,0.335,0.23,0.429,0.138c0.117-0.117,0.189-0.251,0.274-0.459
	c0.087-0.226,0.224-0.382,0.39-0.548c0.136-0.137,0.489-0.413,1.059-0.091c0.59,0.336,1.955,1.328,3.178,0.104
	c0.637-0.637,0.745-2.034,0.049-2.77c-0.382-0.404-0.728-0.582-0.894-0.416c-0.063,0.064-0.138,0.261-0.133,0.494
	c0.074,0.471,0.051,0.637-0.137,0.824c-0.366,0.367-1.003,0.316-1.435-0.136c-0.313-0.314-0.423-1.009,0.079-1.511
	c0.846-0.846,2.078-0.324,2.683,0.281c0.837,0.837,1.341,2.992-0.456,4.789C20.611,63.482,18.316,63.882,16.864,62.35z"/>
<path fill="#BBB" d="M59.982,51.458c1.796-1.797,3.95-1.292,4.787-0.456c0.605,0.605,1.127,1.838,0.28,2.684c-0.502,0.5-1.196,0.393-1.511,0.079
	c-0.45-0.432-0.501-1.069-0.136-1.434c0.187-0.188,0.355-0.212,0.823-0.138c0.234,0.005,0.433-0.07,0.495-0.133
	c0.166-0.167-0.012-0.512-0.416-0.894c-0.736-0.696-2.134-0.587-2.771,0.048c-1.223,1.224-0.231,2.589,0.104,3.179
	c0.321,0.569,0.048,0.922-0.091,1.059c-0.164,0.166-0.322,0.304-0.548,0.39c-0.208,0.086-0.343,0.158-0.457,0.274
	c-0.094,0.094-0.035,0.259,0.137,0.43c0.704,0.704,2.308,0.552,3.729,0.283c0.026-0.228,0.134-0.458,0.301-0.643
	c0.376-0.396,1.055-0.432,1.438-0.067c0.1,0.101,0.179,0.222,0.23,0.334c2.16-0.408,3.413-0.368,4.563,0.718
	c1.333,1.271,1.316,3.405-0.284,5.004c-1.725,1.724-3.681,1.501-4.7,0.524c-0.664-0.646-1.076-1.725-0.376-2.424
	c0.43-0.429,1.14-0.516,1.541-0.113c0.557,0.554,0.297,1.114,0.047,1.365c-0.188,0.188-0.373,0.212-0.485,0.204
	c-0.185-0.017-0.267,0.005-0.383,0.12c-0.114,0.114-0.12,0.423,0.163,0.685c0.465,0.444,1.771,0.871,2.785-0.142
	c0.897-0.9,0.816-1.481,0.149-2.712c-0.388-0.701-0.431-1.121-0.14-1.414c0.22-0.22,0.499-0.338,0.594-0.39
	c0.146-0.084,0.301-0.18,0.375-0.254c0.094-0.094,0.084-0.245-0.105-0.437c-0.736-0.695-2.098-0.527-3.671-0.222
	c-0.015,0.214-0.11,0.432-0.278,0.618c-0.407,0.429-1.057,0.451-1.479,0.069c-0.091-0.091-0.16-0.183-0.208-0.294
	c-1.907,0.33-3.465,0.317-4.696-0.827C58.254,55.081,58.654,52.785,59.982,51.458z"/>
<path fill="#BBB" d="M46.334,2.742c1.797,1.797,1.292,3.952,0.456,4.789c-0.605,0.605-1.837,1.126-2.682,0.28
	c-0.501-0.502-0.394-1.196-0.079-1.511c0.432-0.453,1.069-0.502,1.433-0.136c0.189,0.187,0.212,0.353,0.138,0.824
	c-0.005,0.233,0.07,0.43,0.133,0.494c0.166,0.167,0.513-0.012,0.894-0.415c0.696-0.736,0.586-2.133-0.048-2.771
	C45.355,3.073,43.99,4.064,43.4,4.4c-0.57,0.322-0.923,0.046-1.059-0.091c-0.167-0.166-0.304-0.323-0.39-0.548
	c-0.086-0.208-0.158-0.342-0.274-0.459c-0.094-0.092-0.259-0.033-0.43,0.138c-0.704,0.704-0.551,2.308-0.282,3.73
	c0.227,0.025,0.457,0.133,0.642,0.299c0.396,0.377,0.432,1.054,0.067,1.438c-0.101,0.101-0.222,0.18-0.334,0.23
	c0.409,2.162,0.368,3.414-0.718,4.563c-1.271,1.331-3.406,1.316-5.004-0.284c-1.725-1.725-1.501-3.681-0.525-4.7
	c0.646-0.664,1.725-1.075,2.424-0.376c0.428,0.43,0.516,1.138,0.113,1.541c-0.555,0.555-1.115,0.298-1.365,0.047
	c-0.188-0.188-0.211-0.373-0.204-0.485c0.017-0.185-0.005-0.268-0.119-0.384c-0.115-0.114-0.424-0.119-0.687,0.164
	c-0.443,0.465-0.87,1.77,0.144,2.783c0.899,0.898,1.48,0.817,2.711,0.151c0.701-0.388,1.121-0.431,1.414-0.14
	c0.22,0.22,0.338,0.499,0.39,0.594c0.084,0.145,0.18,0.299,0.254,0.373c0.094,0.095,0.246,0.086,0.437-0.104
	c0.696-0.736,0.528-2.096,0.222-3.671c-0.213-0.013-0.432-0.111-0.619-0.277c-0.429-0.409-0.451-1.056-0.069-1.479
	c0.091-0.091,0.183-0.16,0.294-0.208c-0.33-1.906-0.318-3.465,0.827-4.697C42.712,1.016,45.008,1.416,46.334,2.742z"/>
<path fill="#BBB" d="M84.184,8.365c1.23-1.146,2.79-1.158,4.697-0.828c0.046-0.11,0.117-0.203,0.208-0.294c0.423-0.381,1.07-0.36,1.479,0.069
	c0.167,0.186,0.263,0.404,0.277,0.618c1.575,0.306,2.934,0.474,3.67-0.222c0.191-0.191,0.2-0.344,0.106-0.438
	c-0.075-0.074-0.229-0.169-0.376-0.253c-0.093-0.053-0.372-0.17-0.591-0.39c-0.293-0.293-0.249-0.713,0.138-1.414
	c0.667-1.23,0.748-1.813-0.149-2.711c-1.014-1.014-2.318-0.586-2.786-0.144c-0.282,0.263-0.275,0.573-0.161,0.688
	s0.199,0.136,0.383,0.119c0.111-0.008,0.297,0.015,0.485,0.203c0.252,0.251,0.509,0.81-0.048,1.366
	c-0.401,0.403-1.109,0.317-1.539-0.112c-0.7-0.699-0.289-1.778,0.376-2.424c1.019-0.977,2.976-1.2,4.7,0.524
	c1.6,1.6,1.615,3.733,0.282,5.004c-1.149,1.086-2.401,1.127-4.562,0.718c-0.051,0.113-0.132,0.234-0.231,0.334
	c-0.383,0.365-1.061,0.33-1.437-0.066c-0.168-0.187-0.276-0.416-0.3-0.643c-1.421-0.269-3.024-0.422-3.731,0.283
	c-0.172,0.171-0.229,0.335-0.136,0.428c0.116,0.117,0.251,0.189,0.459,0.275c0.226,0.086,0.382,0.224,0.548,0.39
	c0.136,0.137,0.41,0.49,0.091,1.059c-0.336,0.59-1.327,1.955-0.104,3.178c0.636,0.637,2.035,0.746,2.771,0.049
	c0.403-0.382,0.581-0.728,0.414-0.894c-0.063-0.063-0.26-0.138-0.495-0.132c-0.469,0.073-0.635,0.05-0.823-0.138
	c-0.364-0.366-0.314-1.003,0.137-1.435c0.313-0.313,1.01-0.423,1.511,0.079c0.848,0.845,0.325,2.078-0.28,2.683
	c-0.837,0.836-2.991,1.341-4.788-0.456C83.051,12.112,82.651,9.816,84.184,8.365z"/>
</svg>
