<?xml version="1.0" encoding="utf-8"?>
<!-- Generator: Adobe Illustrator 12.0.0, SVG Export Plug-In  -->
<!DOCTYPE svg PUBLIC "-//W3C//DTD SVG 1.1//EN" "http://www.w3.org/Graphics/SVG/1.1/DTD/svg11.dtd" [
	<!ENTITY ns_flows "http://ns.adobe.com/Flows/1.0/">
	<!ENTITY ns_svg "http://www.w3.org/2000/svg">
	<!ENTITY ns_xlink "http://www.w3.org/1999/xlink">
]>
<svg  version="1.1" xmlns="&ns_svg;" xmlns:xlink="&ns_xlink;" xmlns:a="http://ns.adobe.com/AdobeSVGViewerExtensions/3.0/"
	 width="225" height="45" viewBox="-0.22 -0.95 225 45" enable-background="new -0.22 -0.95 225 45" xml:space="preserve">
<defs>
</defs>
<path fill-rule="evenodd" clip-rule="evenodd" fill="#404040" stroke="#FBFDFD" stroke-width="0.5904" d="M39.43,39.13
	c0,0.81-0.66,1.47-1.47,1.47H25.18c-0.81,0-1.47-0.66-1.47-1.47v-7.89c0-0.81,0.66-1.47,1.47-1.47h12.77c0.81,0,1.47,0.66,1.47,1.47
	V39.13z"/>
<path fill-rule="evenodd" clip-rule="evenodd" fill="#404040" stroke="#FBFDFD" stroke-width="0.5904" d="M38.01,29.26
	c0,0.89-0.72,1.62-1.62,1.62H26.08c-0.9,0-1.62-0.73-1.62-1.62l2.11-10.55c0-0.89,0.72-1.62,1.62-1.62h6.21
	c0.89,0,1.62,0.73,1.62,1.62L38.01,29.26z"/>
<path fill-rule="evenodd" clip-rule="evenodd" fill="#404040" stroke="#FBFDFD" stroke-width="0.5904" d="M37.96,13.39
	c0,0.68-0.55,1.23-1.23,1.23H26.03c-0.68,0-1.23-0.55-1.23-1.23v-1.85c0-0.68,0.55-1.23,1.23-1.23h10.69c0.68,0,1.23,0.55,1.23,1.23
	V13.39z"/>
<rect x="27.27" y="9.97" fill-rule="evenodd" clip-rule="evenodd" fill="#FBFDFD" width="2.59" height="2.59"/>
<rect x="32.7" y="9.97" fill-rule="evenodd" clip-rule="evenodd" fill="#FBFDFD" width="2.59" height="2.59"/>
<path fill-rule="evenodd" clip-rule="evenodd" fill="#FBFDFD" stroke="#FBFDFD" stroke-width="0.2506" d="M32.46,25.78
	c0,0.55-0.45,1-1,1h-0.17c-0.55,0-1-0.45-1-1v-4.51c0-0.55,0.45-1,1-1h0.17c0.55,0,1,0.45,1,1V25.78z"/>
<path fill-rule="evenodd" clip-rule="evenodd" fill="#404040" stroke="#FBFDFD" stroke-width="0.5904" d="M37.71,15.24
	c0,0.39-0.31,0.7-0.7,0.7H25.55c-0.39,0-0.7-0.31-0.7-0.7v-0.47c0-0.39,0.31-0.7,0.7-0.7h11.46c0.39,0,0.7,0.31,0.7,0.7V15.24z"/>
<path fill-rule="evenodd" clip-rule="evenodd" fill="#404040" stroke="#FBFDFD" stroke-width="0.5904" d="M36.27,16.89
	c0,0.39-0.31,0.7-0.7,0.7h-8.99c-0.39,0-0.7-0.31-0.7-0.7v-0.47c0-0.39,0.31-0.7,0.7-0.7h8.99c0.39,0,0.7,0.31,0.7,0.7V16.89z"/>
<path fill-rule="evenodd" clip-rule="evenodd" fill="#404040" stroke="#FBFDFD" stroke-width="0.5904" d="M39.83,31.08
	c0,0.5-0.4,0.9-0.9,0.9H24.24c-0.5,0-0.9-0.4-0.9-0.9v-0.6c0-0.5,0.4-0.9,0.9-0.9h14.68c0.5,0,0.9,0.4,0.9,0.9V31.08z"/>
<path fill="#FBFDFD" d="M33.65,35.85c0-1.19-0.96-2.15-2.15-2.15l0,0c-1.19,0-2.15,0.96-2.15,2.15v5c0,1.19,0.96,2.15,2.15,2.15l0,0
	c1.19,0,2.15-0.96,2.15-2.15V35.85z"/>
<path fill-rule="evenodd" clip-rule="evenodd" fill="#404040" stroke="#FBFDFD" stroke-width="0.5904" d="M16.47,39.33
	c0,0.81-0.66,1.47-1.47,1.47H2.23c-0.81,0-1.47-0.66-1.47-1.47v-7.89c0-0.81,0.66-1.47,1.47-1.47H15c0.81,0,1.47,0.66,1.47,1.47
	V39.33z"/>
<path fill-rule="evenodd" clip-rule="evenodd" fill="#404040" stroke="#FBFDFD" stroke-width="0.5904" d="M15.06,29.46
	c0,0.89-0.72,1.62-1.62,1.62H3.13c-0.89,0-1.62-0.72-1.62-1.62l2.11-10.55c0-0.89,0.72-1.62,1.62-1.62h6.21
	c0.89,0,1.62,0.73,1.62,1.62L15.06,29.46z"/>
<path fill-rule="evenodd" clip-rule="evenodd" fill="#404040" stroke="#FBFDFD" stroke-width="0.5904" d="M15.01,13.59
	c0,0.68-0.55,1.23-1.23,1.23H3.08c-0.68,0-1.23-0.55-1.23-1.23v-1.85c0-0.68,0.55-1.23,1.23-1.23h10.69c0.68,0,1.23,0.55,1.23,1.23
	V13.59z"/>
<rect x="4.32" y="10.18" fill-rule="evenodd" clip-rule="evenodd" fill="#FBFDFD" width="2.59" height="2.59"/>
<rect x="9.75" y="10.18" fill-rule="evenodd" clip-rule="evenodd" fill="#FBFDFD" width="2.59" height="2.59"/>
<path fill-rule="evenodd" clip-rule="evenodd" fill="#FBFDFD" stroke="#FBFDFD" stroke-width="0.2506" d="M9.51,25.98
	c0,0.55-0.45,1-1,1H8.34c-0.55,0-1-0.45-1-1v-4.51c0-0.55,0.45-1,1-1h0.17c0.55,0,1,0.45,1,1V25.98z"/>
<path fill-rule="evenodd" clip-rule="evenodd" fill="#404040" stroke="#FBFDFD" stroke-width="0.5904" d="M14.76,15.45
	c0,0.39-0.31,0.7-0.7,0.7H2.6c-0.39,0-0.7-0.32-0.7-0.7v-0.47c0-0.39,0.31-0.7,0.7-0.7h11.46c0.39,0,0.7,0.31,0.7,0.7V15.45z"/>
<path fill-rule="evenodd" clip-rule="evenodd" fill="#404040" stroke="#FBFDFD" stroke-width="0.5904" d="M13.32,17.09
	c0,0.39-0.31,0.7-0.7,0.7H3.62c-0.39,0-0.7-0.31-0.7-0.7v-0.47c0-0.39,0.31-0.7,0.7-0.7h8.99c0.39,0,0.7,0.31,0.7,0.7V17.09z"/>
<path fill-rule="evenodd" clip-rule="evenodd" fill="#404040" stroke="#FBFDFD" stroke-width="0.7872" d="M16.87,31.28
	c0,0.5-0.4,0.9-0.9,0.9H1.29c-0.5,0-0.9-0.4-0.9-0.9v-0.6c0-0.5,0.4-0.9,0.9-0.9h14.68c0.5,0,0.9,0.4,0.9,0.9V31.28z"/>
<path fill="#FBFDFD" d="M10.7,36.05c0-1.19-0.96-2.15-2.15-2.15l0,0c-1.19,0-2.15,0.96-2.15,2.15v5c0,1.19,0.96,2.15,2.15,2.15l0,0
	c1.19,0,2.15-0.96,2.15-2.15V36.05z"/>
<path fill-rule="evenodd" clip-rule="evenodd" fill="#404040" stroke="#FBFDFD" stroke-width="0.5904" d="M27.89,39.85
	c0,0.81-0.66,1.47-1.47,1.47H13.64c-0.81,0-1.47-0.66-1.47-1.47V29.9c0-0.81,0.66-1.47,1.47-1.47h12.77c0.81,0,1.47,0.66,1.47,1.47
	V39.85z"/>
<path fill-rule="evenodd" clip-rule="evenodd" fill="#404040" stroke="#FBFDFD" stroke-width="0.5904" d="M26.47,27.92
	c0,0.89-0.72,1.62-1.62,1.62H14.54c-0.9,0-1.62-0.73-1.62-1.62l2.11-19.19c0-0.89,0.72-1.62,1.62-1.62h6.21
	c0.89,0,1.62,0.73,1.62,1.62L26.47,27.92z"/>
<path fill-rule="evenodd" clip-rule="evenodd" fill="#404040" stroke="#FBFDFD" stroke-width="0.5904" d="M26.42,3.41
	c0,0.68-0.55,1.23-1.23,1.23H14.49c-0.68,0-1.23-0.55-1.23-1.23V1.56c0-0.68,0.55-1.23,1.23-1.23h10.69c0.68,0,1.23,0.55,1.23,1.23
	V3.41z"/>
<rect x="15.73" fill-rule="evenodd" clip-rule="evenodd" fill="#FBFDFD" width="2.59" height="2.59"/>
<rect x="21.16" fill-rule="evenodd" clip-rule="evenodd" fill="#FBFDFD" width="2.59" height="2.59"/>
<path fill-rule="evenodd" clip-rule="evenodd" fill="#FBFDFD" stroke="#FBFDFD" stroke-width="0.2506" d="M20.92,19.92
	c0,0.55-0.45,1-1,1h-0.17c-0.55,0-1-0.45-1-1v-4.51c0-0.55,0.45-1,1-1h0.17c0.55,0,1,0.45,1,1V19.92z"/>
<path fill-rule="evenodd" clip-rule="evenodd" fill="#404040" stroke="#FBFDFD" stroke-width="0.5904" d="M26.17,5.27
	c0,0.39-0.32,0.7-0.7,0.7H14.01c-0.39,0-0.7-0.31-0.7-0.7V4.8c0-0.39,0.31-0.7,0.7-0.7h11.46c0.39,0,0.7,0.32,0.7,0.7V5.27z"/>
<path fill-rule="evenodd" clip-rule="evenodd" fill="#404040" stroke="#FBFDFD" stroke-width="0.5904" d="M24.73,6.91
	c0,0.39-0.31,0.7-0.7,0.7h-8.99c-0.39,0-0.7-0.32-0.7-0.7V6.45c0-0.39,0.31-0.7,0.7-0.7h8.99c0.39,0,0.7,0.31,0.7,0.7V6.91z"/>
<path fill-rule="evenodd" clip-rule="evenodd" fill="#404040" stroke="#FBFDFD" stroke-width="0.5904" d="M28.29,29.74
	c0,0.5-0.4,0.9-0.9,0.9H12.71c-0.5,0-0.9-0.4-0.9-0.9v-0.6c0-0.5,0.4-0.9,0.9-0.9h14.68c0.5,0,0.9,0.4,0.9,0.9V29.74z"/>
<path fill="#FBFDFD" d="M22.79,35c0-1.45-1.18-2.62-2.63-2.62l0,0c-1.45,0-2.62,1.17-2.62,2.62v6.1c0,1.45,1.17,2.63,2.62,2.63l0,0
	c1.45,0,2.63-1.18,2.63-2.63V35z"/>
<path fill="#414141" d="M51.93,28.91c-0.8,0-1.69,0.01-2.66,0.03l-0.04-0.42l1.45-0.43c0.16-0.04,0.25-0.15,0.25-0.3
	c0.01-0.49,0.02-1.13,0.02-1.89v-9.75h-3.45l-0.87,2.59l-0.39,0.07l-0.25-3.5l0.07-0.08c1.6,0.03,3.13,0.04,4.6,0.04h2.62
	c1.46,0,3-0.01,4.62-0.04l0.06,0.08l-0.62,3.43l-0.39,0.07l-0.63-2.66h-3.45v9.75c0,0.77,0.01,1.4,0.02,1.89
	c0.01,0.16,0.09,0.26,0.25,0.3l1.45,0.43l0.02,0.42C53.6,28.92,52.71,28.91,51.93,28.91z"/>
<path fill="#414141" d="M57.55,14.89c1.06-0.21,2.12-0.44,3.19-0.69l0.09,0.08c-0.03,0.61-0.05,1.48-0.05,2.62c0,1.13,0,2.41,0,3.84
	c1.13-0.73,2.19-1.09,3.17-1.09c0.91,0,1.63,0.25,2.16,0.76c0.53,0.5,0.8,1.25,0.8,2.22v3.45c0,0.75,0.01,1.35,0.02,1.81
	c0.01,0.17,0.09,0.28,0.24,0.34l1.09,0.33l0.02,0.41c-0.86-0.02-1.61-0.03-2.25-0.03c-0.64,0-1.35,0.01-2.13,0.03l-0.04-0.41
	l0.97-0.28c0.16-0.05,0.24-0.15,0.25-0.3c0.01-0.09,0.01-0.29,0.01-0.62v-4.26c0-0.8-0.19-1.38-0.58-1.72s-0.95-0.52-1.7-0.52
	c-0.64,0-1.32,0.16-2.04,0.47v4.38c0,0.81,0.01,1.54,0.02,2.21c0.01,0.18,0.09,0.3,0.24,0.34l1.02,0.29l0.02,0.41
	c-0.82-0.02-1.55-0.03-2.19-0.03c-0.64,0-1.4,0.01-2.27,0.03l-0.04-0.41l1.1-0.32c0.17-0.05,0.26-0.16,0.26-0.31
	c0.01-0.63,0.02-1.42,0.02-2.39v-4.08c0-1.33,0-2.5,0-3.52c0-1.02-0.01-1.79-0.03-2.3l-1.32-0.39L57.55,14.89z"/>
<path fill="#414141" d="M76.54,28.23c-0.55,0.35-1.12,0.6-1.71,0.75S73.7,29.2,73.2,29.2c-1.43,0-2.59-0.41-3.47-1.23
	c-0.88-0.82-1.32-1.95-1.32-3.41c0-1.45,0.41-2.63,1.23-3.55s1.92-1.38,3.3-1.38c1.15,0,2.05,0.34,2.69,1.03s0.96,1.64,0.96,2.85
	c0,0.18-0.01,0.37-0.03,0.56h-6.16c0,1.4,0.33,2.4,0.99,3c0.66,0.6,1.69,0.9,3.09,0.9c0.63,0,1.29-0.06,2-0.18L76.54,28.23z
	 M74.59,23.26v-0.29c0-0.93-0.15-1.59-0.44-1.98s-0.72-0.6-1.3-0.6c-0.76,0-1.34,0.28-1.74,0.84s-0.63,1.24-0.68,2.03H74.59z"/>
<path fill="#414141" d="M91.29,18.66l-0.39,0.06l-0.71-2.56c-0.81-0.2-1.54-0.3-2.2-0.3c-1.6,0-2.85,0.56-3.76,1.67
	c-0.91,1.11-1.37,2.56-1.37,4.33c0,1.9,0.52,3.42,1.56,4.55c1.04,1.13,2.48,1.7,4.33,1.7c1.04,0,2.13-0.2,3.27-0.59l0.11,0.44
	c-1.28,0.88-2.73,1.33-4.36,1.33c-2.1,0-3.8-0.64-5.1-1.92c-1.3-1.28-1.95-2.97-1.95-5.07c0-2.23,0.71-4,2.14-5.3
	c1.43-1.3,3.29-1.95,5.58-1.95c1.1,0,2.23,0.13,3.38,0.4l0.07,0.08L91.29,18.66z"/>
<path fill="#414141" d="M93.07,20.47c1.27-0.55,2.39-0.83,3.37-0.83c1,0,1.79,0.26,2.37,0.78c0.58,0.52,0.87,1.28,0.86,2.26
	l-0.05,4.07c-0.01,0.33,0,0.6,0.02,0.8c0.02,0.2,0.08,0.36,0.18,0.46c0.09,0.11,0.24,0.18,0.42,0.23c0.19,0.04,0.44,0.07,0.76,0.07
	l0.05,0.38c-0.28,0.11-0.62,0.22-1.03,0.33s-0.68,0.16-0.82,0.16c-0.64,0-1.08-0.33-1.31-0.98c-0.92,0.66-1.79,0.99-2.61,0.99
	c-0.92,0-1.65-0.22-2.21-0.67c-0.56-0.45-0.83-1.08-0.83-1.89c0-1,0.45-1.75,1.34-2.22s2.3-0.71,4.22-0.71l0.01-0.76
	c0.01-0.73-0.18-1.27-0.56-1.62c-0.38-0.35-0.96-0.53-1.74-0.53c-0.59,0-1.33,0.11-2.23,0.33L93.07,20.47z M97.81,24.5
	c-1.37,0-2.31,0.14-2.81,0.42c-0.5,0.28-0.75,0.75-0.75,1.42c0,0.62,0.17,1.06,0.5,1.32s0.78,0.39,1.35,0.39
	c0.65,0,1.21-0.12,1.69-0.35L97.81,24.5z"/>
<path fill="#414141" d="M106.45,20.62c-0.38-0.1-0.79-0.16-1.23-0.16c-0.6,0-1.08,0.12-1.46,0.36c-0.37,0.24-0.56,0.56-0.56,0.98
	c0,0.4,0.11,0.71,0.34,0.93c0.23,0.22,0.65,0.44,1.27,0.67l0.78,0.27c0.85,0.31,1.47,0.66,1.87,1.05c0.4,0.4,0.6,0.92,0.6,1.55
	c0,0.91-0.39,1.62-1.18,2.14c-0.78,0.52-1.71,0.78-2.79,0.78c-0.99,0-2-0.2-3.04-0.61c0.22-0.85,0.4-1.68,0.54-2.48l0.38-0.06
	l0.7,2.11c0.37,0.14,0.84,0.21,1.42,0.21c0.59,0,1.07-0.12,1.43-0.37c0.36-0.25,0.54-0.6,0.54-1.05c0-0.42-0.12-0.75-0.36-0.98
	c-0.24-0.23-0.62-0.44-1.15-0.61l-1.01-0.34c-0.88-0.29-1.49-0.65-1.83-1.06c-0.34-0.41-0.51-0.93-0.51-1.55
	c0-0.85,0.41-1.53,1.22-2.02c0.82-0.5,1.75-0.74,2.82-0.74c0.99,0,1.89,0.14,2.7,0.43c-0.18,0.74-0.35,1.53-0.5,2.36l-0.37,0.07
	L106.45,20.62z"/>
<path fill="#414141" d="M111,20.92c-0.04,2.21-0.06,3.98-0.06,5.33c0,0.68,0.1,1.15,0.3,1.4c0.2,0.26,0.59,0.39,1.15,0.39
	c0.45,0,1.04-0.06,1.76-0.18l0.06,0.44c-1.13,0.56-2.13,0.85-3.02,0.85c-0.72,0-1.26-0.19-1.61-0.57c-0.35-0.38-0.53-0.96-0.53-1.72
	c0-1.27,0.02-3.26,0.07-6l-1.35-0.33l-0.06-0.4l1.51-0.13l0.69-2.37c0.37-0.1,0.71-0.19,1.02-0.28l0.1,0.07
	c-0.02,0.79-0.03,1.53-0.03,2.21V20h2.94v0.92H111z"/>
<path fill="#414141" d="M122.14,28.23c-0.55,0.35-1.12,0.6-1.71,0.75s-1.13,0.23-1.63,0.23c-1.43,0-2.59-0.41-3.47-1.23
	c-0.88-0.82-1.32-1.95-1.32-3.41c0-1.45,0.41-2.63,1.23-3.55s1.92-1.38,3.3-1.38c1.15,0,2.05,0.34,2.69,1.03s0.96,1.64,0.96,2.85
	c0,0.18-0.01,0.37-0.03,0.56h-6.16c0,1.4,0.33,2.4,0.99,3c0.66,0.6,1.69,0.9,3.09,0.9c0.63,0,1.29-0.06,2-0.18L122.14,28.23z
	 M120.19,23.26v-0.29c0-0.93-0.15-1.59-0.44-1.98s-0.72-0.6-1.3-0.6c-0.76,0-1.34,0.28-1.74,0.84s-0.63,1.24-0.68,2.03H120.19z"/>
<path fill="#414141" d="M122.37,15.22l-0.05-0.33c1.15-0.22,2.22-0.45,3.19-0.69l0.09,0.08c-0.04,1.06-0.06,2.54-0.06,4.42v6.36
	c0,1.17,0.01,2.1,0.02,2.81c0.02,0.19,0.11,0.31,0.27,0.35l1.06,0.32l0.03,0.41c-0.88-0.02-1.64-0.03-2.28-0.03
	c-0.64,0-1.4,0.01-2.27,0.03l-0.04-0.41l1.1-0.32c0.16-0.05,0.25-0.16,0.26-0.31c0.01-0.73,0.02-1.55,0.02-2.46v-4.01
	c0-2.42-0.01-4.36-0.04-5.83L122.37,15.22z"/>
<path fill="#414141" d="M126.99,15.22l-0.05-0.33c1.15-0.22,2.22-0.45,3.19-0.69l0.09,0.08c-0.04,1.06-0.06,2.54-0.06,4.42v6.36
	c0,1.17,0.01,2.1,0.02,2.81c0.02,0.19,0.11,0.31,0.27,0.35l1.06,0.32l0.03,0.41c-0.88-0.02-1.64-0.03-2.28-0.03s-1.4,0.01-2.27,0.03
	l-0.04-0.41l1.1-0.32c0.16-0.05,0.25-0.16,0.26-0.31c0.01-0.73,0.02-1.55,0.02-2.46v-4.01c0-2.42-0.01-4.36-0.04-5.83L126.99,15.22z
	"/>
<path fill="#414141" d="M141.08,24.22c0,1.49-0.45,2.69-1.34,3.6c-0.89,0.92-2.03,1.37-3.41,1.37c-1.35,0-2.44-0.43-3.27-1.29
	c-0.83-0.86-1.25-1.99-1.25-3.39c0-1.43,0.43-2.6,1.3-3.51c0.87-0.91,2.02-1.36,3.45-1.36c1.35,0,2.44,0.42,3.27,1.26
	C140.67,21.73,141.08,22.84,141.08,24.22z M133.82,24.31c0,1.22,0.23,2.21,0.68,2.98c0.45,0.77,1.13,1.15,2.02,1.15
	c0.83,0,1.47-0.34,1.91-1.01c0.44-0.68,0.66-1.67,0.66-3c0-1.25-0.23-2.23-0.69-2.94c-0.46-0.72-1.13-1.08-2-1.08
	c-0.83,0-1.46,0.32-1.91,0.97C134.04,22.02,133.82,23,133.82,24.31z"/>
<path fill="#414141" d="M155.93,18.66l-0.39,0.06l-0.71-2.56c-0.81-0.2-1.54-0.3-2.2-0.3c-1.6,0-2.85,0.56-3.76,1.67
	c-0.91,1.11-1.37,2.56-1.37,4.33c0,1.9,0.52,3.42,1.56,4.55c1.04,1.13,2.48,1.7,4.33,1.7c1.04,0,2.13-0.2,3.27-0.59l0.11,0.44
	c-1.28,0.88-2.73,1.33-4.36,1.33c-2.1,0-3.8-0.64-5.1-1.92c-1.3-1.28-1.95-2.97-1.95-5.07c0-2.23,0.71-4,2.14-5.3
	c1.43-1.3,3.29-1.95,5.58-1.95c1.1,0,2.23,0.13,3.38,0.4l0.07,0.08L155.93,18.66z"/>
<path fill="#414141" d="M166.21,24.22c0,1.49-0.45,2.69-1.34,3.6c-0.89,0.92-2.03,1.37-3.41,1.37c-1.35,0-2.44-0.43-3.27-1.29
	c-0.83-0.86-1.25-1.99-1.25-3.39c0-1.43,0.43-2.6,1.3-3.51c0.87-0.91,2.02-1.36,3.45-1.36c1.35,0,2.44,0.42,3.27,1.26
	C165.79,21.73,166.21,22.84,166.21,24.22z M158.94,24.31c0,1.22,0.23,2.21,0.68,2.98c0.45,0.77,1.13,1.15,2.02,1.15
	c0.83,0,1.47-0.34,1.91-1.01c0.44-0.68,0.66-1.67,0.66-3c0-1.25-0.23-2.23-0.69-2.94c-0.46-0.72-1.13-1.08-2-1.08
	c-0.83,0-1.46,0.32-1.91,0.97C159.16,22.02,158.94,23,158.94,24.31z"/>
<path fill="#414141" d="M166.54,15.22l-0.05-0.33c1.15-0.22,2.22-0.45,3.19-0.69l0.09,0.08c-0.04,1.06-0.06,2.54-0.06,4.42v6.36
	c0,1.17,0.01,2.1,0.02,2.81c0.02,0.19,0.11,0.31,0.27,0.35l1.06,0.32l0.03,0.41c-0.88-0.02-1.64-0.03-2.28-0.03s-1.4,0.01-2.27,0.03
	l-0.04-0.41l1.1-0.32c0.16-0.05,0.25-0.16,0.26-0.31c0.01-0.73,0.02-1.55,0.02-2.46v-4.01c0-2.42-0.01-4.36-0.04-5.83L166.54,15.22z
	"/>
<path fill="#414141" d="M171.15,15.22l-0.05-0.33c1.15-0.22,2.22-0.45,3.19-0.69l0.09,0.08c-0.04,1.06-0.06,2.54-0.06,4.42v6.36
	c0,1.17,0.01,2.1,0.02,2.81c0.02,0.19,0.11,0.31,0.27,0.35l1.06,0.32l0.03,0.41c-0.88-0.02-1.64-0.03-2.28-0.03s-1.4,0.01-2.27,0.03
	l-0.04-0.41l1.1-0.32c0.16-0.05,0.25-0.16,0.26-0.31c0.01-0.73,0.02-1.55,0.02-2.46v-4.01c0-2.42-0.01-4.36-0.04-5.83L171.15,15.22z
	"/>
<path fill="#414141" d="M184.12,28.23c-0.55,0.35-1.12,0.6-1.71,0.75s-1.13,0.23-1.63,0.23c-1.43,0-2.59-0.41-3.47-1.23
	c-0.88-0.82-1.32-1.95-1.32-3.41c0-1.45,0.41-2.63,1.23-3.55s1.92-1.38,3.3-1.38c1.15,0,2.05,0.34,2.69,1.03
	c0.64,0.69,0.96,1.64,0.96,2.85c0,0.18-0.01,0.37-0.03,0.56h-6.16c0,1.4,0.33,2.4,0.99,3c0.66,0.6,1.69,0.9,3.09,0.9
	c0.63,0,1.29-0.06,2-0.18L184.12,28.23z M182.17,23.26v-0.29c0-0.93-0.14-1.59-0.44-1.98c-0.29-0.4-0.72-0.6-1.29-0.6
	c-0.76,0-1.34,0.28-1.74,0.84s-0.63,1.24-0.68,2.03H182.17z"/>
<path fill="#414141" d="M192.46,28.24c-0.4,0.27-0.9,0.5-1.5,0.69s-1.19,0.28-1.77,0.28c-1.41,0-2.53-0.41-3.37-1.24
	c-0.84-0.82-1.26-1.92-1.26-3.3c0-1.49,0.48-2.7,1.43-3.63s2.17-1.39,3.65-1.39c0.96,0,1.88,0.2,2.78,0.59
	c-0.21,0.87-0.41,1.77-0.58,2.68l-0.38,0.06l-0.79-2.34c-0.3-0.1-0.64-0.16-1.02-0.16c-0.97,0-1.73,0.34-2.28,1.02
	s-0.82,1.57-0.82,2.69c0,1.31,0.31,2.28,0.93,2.9c0.62,0.63,1.6,0.94,2.94,0.94c0.62,0,1.28-0.06,1.98-0.19L192.46,28.24z"/>
<path fill="#414141" d="M195.55,20.92c-0.04,2.21-0.06,3.98-0.06,5.33c0,0.68,0.1,1.15,0.3,1.4c0.2,0.26,0.59,0.39,1.15,0.39
	c0.45,0,1.04-0.06,1.76-0.18l0.06,0.44c-1.13,0.56-2.13,0.85-3.02,0.85c-0.72,0-1.26-0.19-1.61-0.57c-0.35-0.38-0.53-0.96-0.53-1.72
	c0-1.27,0.02-3.26,0.07-6l-1.35-0.33l-0.06-0.4l1.51-0.13l0.69-2.37c0.37-0.1,0.71-0.19,1.02-0.28l0.1,0.07
	c-0.02,0.79-0.03,1.53-0.03,2.21V20h2.94v0.92H195.55z"/>
<path fill="#414141" d="M198.65,20.33c1.14-0.22,2.2-0.45,3.17-0.69l0.09,0.07c-0.04,0.85-0.06,1.78-0.06,2.79v3.75
	c0,0.78,0.01,1.32,0.02,1.62c0.01,0.18,0.09,0.29,0.24,0.34l1.13,0.33l0.02,0.41c-0.9-0.02-1.67-0.03-2.31-0.03s-1.4,0.01-2.28,0.03
	l-0.04-0.41l1.13-0.33c0.15-0.05,0.23-0.15,0.24-0.3c0.01-0.25,0.02-0.68,0.02-1.28v-3.26c0-0.85-0.01-1.64-0.04-2.36l-1.3-0.35
	L198.65,20.33z M201.95,16.18c0,0.35-0.11,0.63-0.32,0.85s-0.49,0.33-0.83,0.33c-0.33,0-0.59-0.1-0.8-0.3s-0.31-0.47-0.31-0.8
	c0-0.35,0.11-0.63,0.32-0.84s0.5-0.31,0.85-0.31c0.32,0,0.58,0.09,0.78,0.28C201.85,15.57,201.95,15.84,201.95,16.18z"/>
<path fill="#414141" d="M212.78,24.22c0,1.49-0.45,2.69-1.34,3.6c-0.89,0.92-2.03,1.37-3.41,1.37c-1.35,0-2.44-0.43-3.27-1.29
	c-0.83-0.86-1.25-1.99-1.25-3.39c0-1.43,0.43-2.6,1.3-3.51c0.87-0.91,2.02-1.36,3.45-1.36c1.35,0,2.44,0.42,3.27,1.26
	C212.37,21.73,212.78,22.84,212.78,24.22z M205.52,24.31c0,1.22,0.23,2.21,0.68,2.98c0.45,0.77,1.13,1.15,2.02,1.15
	c0.83,0,1.47-0.34,1.91-1.01c0.44-0.68,0.66-1.67,0.66-3c0-1.25-0.23-2.23-0.69-2.94c-0.46-0.72-1.13-1.08-2-1.08
	c-0.83,0-1.46,0.32-1.91,0.97C205.74,22.02,205.52,23,205.52,24.31z"/>
<path fill="#414141" d="M213.13,20.33c1.09-0.21,2.13-0.44,3.1-0.69l0.1,0.07v1.13c1.13-0.8,2.19-1.2,3.17-1.2
	c0.92,0,1.65,0.26,2.17,0.78s0.79,1.25,0.79,2.2v3.45c0,0.81,0.01,1.42,0.02,1.81c0.01,0.18,0.09,0.29,0.25,0.34l1.08,0.33
	l0.02,0.41c-0.86-0.02-1.61-0.03-2.25-0.03s-1.35,0.01-2.13,0.03l-0.04-0.41l0.98-0.28c0.15-0.05,0.23-0.15,0.24-0.3
	c0.01-0.09,0.01-0.29,0.01-0.62v-4.26c0-0.8-0.19-1.38-0.58-1.72c-0.38-0.35-0.95-0.52-1.7-0.52c-0.66,0-1.34,0.19-2.04,0.56v4.27
	c0,0.81,0.01,1.56,0.02,2.24c0.01,0.18,0.08,0.29,0.22,0.33l1.02,0.3l0.02,0.41c-0.81-0.02-1.53-0.03-2.17-0.03s-1.4,0.01-2.27,0.03
	l-0.04-0.41l1.15-0.33c0.14-0.06,0.22-0.16,0.22-0.3c0.01-0.42,0.01-0.82,0.01-1.2v-3.33c0-0.85-0.01-1.64-0.04-2.37l-1.3-0.35
	L213.13,20.33z"/>
</svg>
