<?xml version="1.0" encoding="utf-8"?>
<!-- Generator: Adobe Illustrator 12.0.0, SVG Export Plug-In  -->
<!DOCTYPE svg PUBLIC "-//W3C//DTD SVG 1.1//EN" "http://www.w3.org/Graphics/SVG/1.1/DTD/svg11.dtd" [
	<!ENTITY ns_flows "http://ns.adobe.com/Flows/1.0/">
	<!ENTITY ns_svg "http://www.w3.org/2000/svg">
	<!ENTITY ns_xlink "http://www.w3.org/1999/xlink">
]>
<svg  version="1.1" xmlns="&ns_svg;" xmlns:xlink="&ns_xlink;" xmlns:a="http://ns.adobe.com/AdobeSVGViewerExtensions/3.0/"
	 width="48" height="33" viewBox="-0.171 -0.683 48 33" enable-background="new -0.171 -0.683 48 33" xml:space="preserve">
<defs>
</defs>
<rect x="11.693" y="7.107" transform="matrix(0.9946 0.1037 -0.1037 0.9946 2.0763 -2.9119)" fill="none" stroke="#000000" stroke-width="0.5859" width="34.684" height="22.802"/>
<line fill="none" stroke="#000000" stroke-width="1.1718" stroke-dasharray="2.3436" x1="11.786" y1="16.709" x2="46.283" y2="20.305"/>
<path d="M8.707,10.204l14.907-1.551c1.089,0.352,2.101,1.055,3.038,2.111l-15.56,1.144c-0.353,0.03-0.589,0.045-0.709,0.045
	c-0.104,0-0.191-0.003-0.258-0.011l-0.271-0.024C9.75,11.9,9.649,11.893,9.551,11.893c-0.556,0-0.945,0.282-1.17,0.846l-0.113,0.271
	c-0.697,1.766-2.222,2.649-4.578,2.649c-1.08,0-1.966-0.22-2.655-0.66C0.345,14.559,0,14,0,13.326c0-0.572,0.2-0.984,0.602-1.239
	c0.4-0.258,1.142-0.441,2.221-0.554l4.186-0.45c0.653-0.067,1.079-0.154,1.278-0.258C8.484,10.718,8.624,10.512,8.707,10.204z
	 M5.556,12.066l-3.021,0.325c-1.131,0.12-1.696,0.435-1.696,0.943c0,0.412,0.274,0.764,0.82,1.05
	c0.548,0.288,1.208,0.434,1.987,0.434c0.988,0,1.854-0.207,2.601-0.619c0.744-0.412,1.116-0.891,1.116-1.437
	c0-0.479-0.374-0.72-1.122-0.72C5.985,12.043,5.757,12.052,5.556,12.066z M11.725,9.329L9.88,9.486L9.34,8.676
	c0.022-0.127,0.033-0.232,0.033-0.314c0-0.316-0.289-0.809-0.868-1.483L6.85,4.922C5.963,3.881,5.518,2.948,5.518,2.124
	c0-0.594,0.21-1.094,0.633-1.506C6.572,0.207,7.086,0,7.695,0C8.484,0,9.2,0.348,9.84,1.046c0.64,0.694,0.959,1.475,0.959,2.335
	c0,0.512-0.193,1.088-0.578,1.732l-0.138,0.226C9.88,5.683,9.779,5.967,9.779,6.192c0,0.307,0.222,0.734,0.663,1.279
	c0.104,0.129,0.207,0.264,0.303,0.404L11.725,9.329z M7.056,3.786l0.383,0.472c0.495,0.619,0.938,0.931,1.328,0.931
	c0.284,0,0.548-0.174,0.787-0.521c0.24-0.348,0.359-0.731,0.359-1.15c0-0.688-0.221-1.31-0.664-1.861
	C8.807,1.102,8.315,0.823,7.776,0.823c-0.39,0-0.725,0.132-1.002,0.394S6.358,1.794,6.358,2.159
	C6.358,2.623,6.591,3.166,7.056,3.786z M11.639,11.429c0.341,0,0.51-0.188,0.51-0.563c0-0.344-0.2-0.517-0.601-0.517
	c-0.34,0-0.51,0.183-0.51,0.552C11.038,11.252,11.237,11.429,11.639,11.429z M11.69,12.448l2.024-0.169l3.735,5.522h-2.486
	L11.69,12.448z"/>
</svg>
