<?xml version="1.0" encoding="utf-8"?>
<!-- Generator: Adobe Illustrator 12.0.0, SVG Export Plug-In  -->
<!DOCTYPE svg PUBLIC "-//W3C//DTD SVG 1.1//EN" "http://www.w3.org/Graphics/SVG/1.1/DTD/svg11.dtd" [
	<!ENTITY ns_flows "http://ns.adobe.com/Flows/1.0/">
	<!ENTITY ns_svg "http://www.w3.org/2000/svg">
	<!ENTITY ns_xlink "http://www.w3.org/1999/xlink">
]>
<svg  version="1.1" xmlns="&ns_svg;" xmlns:xlink="&ns_xlink;" xmlns:a="http://ns.adobe.com/AdobeSVGViewerExtensions/3.0/"
	 width="870" height="644" viewBox="0 -0.9 870 644" enable-background="new 0 -0.9 870 644" xml:space="preserve">
<defs>
</defs>
<path fill="#333332" d="M567.67,626.83c0,0-15.06-12.76-23.34-21.04c-8.29-8.29-10.54-18.46-10.54-18.46l-6.55-70.29H344.6
	l-6.58,70.32c0,0-2.26,10.75-10.55,19.03c-8.29,8.29-23.36,20.82-23.36,20.82s-13.55,9.57,6.79,12.58
	c11.65,1.73,63.6,2.97,105.35,2.97h39.41c42.6,0,93.66-1.38,105.31-3.11C581.3,636.64,567.67,626.83,567.67,626.83"/>
<path fill="#333332" d="M848.87,0H22.3C10.46,0,0,10.93,0,22.89v485.43c0,11.96,10.46,22.79,22.3,22.79h305.79h17.58h180.5h18.4
	h304.3c11.85,0,20.91-10.83,20.91-22.79V22.89C869.78,10.93,860.72,0,848.87,0 M833.86,492.62H33.35V38.49h800.51V492.62z"/>
</svg>
