<?xml version="1.0" encoding="utf-8"?>
<!-- Generator: Adobe Illustrator 12.0.0, SVG Export Plug-In  -->
<!DOCTYPE svg PUBLIC "-//W3C//DTD SVG 1.1//EN" "http://www.w3.org/Graphics/SVG/1.1/DTD/svg11.dtd" [
	<!ENTITY ns_flows "http://ns.adobe.com/Flows/1.0/">
	<!ENTITY ns_svg "http://www.w3.org/2000/svg">
	<!ENTITY ns_xlink "http://www.w3.org/1999/xlink">
]>
<svg  version="1.1" xmlns="&ns_svg;" xmlns:xlink="&ns_xlink;" xmlns:a="http://ns.adobe.com/AdobeSVGViewerExtensions/3.0/"
	 width="339" height="261" viewBox="0 0 339 261" enable-background="new 0 0 339 261" xml:space="preserve">
<defs>
</defs>
<path fill="#CCCCCC" d="M221.251,254.79c0,0-5.87-4.972-9.099-8.2c-3.23-3.231-4.105-7.193-4.105-7.193L205.492,212h-71.184
	l-2.566,27.408c0,0-0.882,4.189-4.112,7.418c-3.23,3.232-9.103,8.116-9.103,8.116s-5.283,3.728,2.645,4.901
	c4.541,0.673,24.789,1.156,41.06,1.156h15.361c16.603,0,36.503-0.539,41.043-1.212C226.564,258.614,221.251,254.79,221.251,254.79"
	/>
<path fill="#CCCCCC" d="M330.85,0H8.692C4.076,0,0,4.26,0,8.921v189.196C0,202.778,4.076,207,8.692,207h119.183h6.851h70.351h7.171
	H330.85c4.617,0,8.15-4.222,8.15-8.883V8.921C339,4.26,335.467,0,330.85,0 M325,192H13V15h312V192z"/>
</svg>
