<?xml version="1.0" encoding="utf-8"?>
<!-- Generator: Adobe Illustrator 12.0.0, SVG Export Plug-In  -->
<!DOCTYPE svg PUBLIC "-//W3C//DTD SVG 1.1//EN" "http://www.w3.org/Graphics/SVG/1.1/DTD/svg11.dtd" [
	<!ENTITY ns_flows "http://ns.adobe.com/Flows/1.0/">
	<!ENTITY ns_svg "http://www.w3.org/2000/svg">
	<!ENTITY ns_xlink "http://www.w3.org/1999/xlink">
]>
<svg  version="1.1" xmlns="&ns_svg;" xmlns:xlink="&ns_xlink;" xmlns:a="http://ns.adobe.com/AdobeSVGViewerExtensions/3.0/"
	 width="130" height="58" viewBox="-0.29 -0.6 130 58" enable-background="new -0.29 -0.6 130 58" xml:space="preserve">
<defs>
</defs>
<path fill="#FFFFFF" d="M127.95,11.26c-0.6,0-1.06,0.32-1.22,0.45L97.34,37.53c-0.57,0.51-1.29,0.79-2.06,0.79
	c-0.78,0-1.52-0.28-2.1-0.79L64.69,12.57c-0.24-0.23-0.8-0.67-1.52-0.67c-0.18,0-1.76,0.06-1.76,2.19v38.31
	c0,2.49,2.01,4.52,4.49,4.52h59.4c2.47,0,4.4-1.99,4.4-4.52v-38.9C129.71,11.32,128.13,11.26,127.95,11.26z"/>
<path fill="#FFFFFF" d="M64.12,3.52l28.67,24.73c0.27,0.25,1.15,0.99,2.48,0.99c1.28,0,2.18-0.73,2.35-0.88l29-25.31l0.04-0.03
	c0.39-0.37,1.21-1.14,0.82-2.13C127.28,0.35,126.75,0,126.15,0h-61.1c-0.73,0-1.39,0.42-1.66,1.06c-0.19,0.44-0.35,1.33,0.68,2.41
	L64.12,3.52z"/>
<path fill="#FFFFFF" d="M51.39,14.9H13.55c-1.49,0-2.71,1.22-2.71,2.71v1.9c0,1.49,1.22,2.71,2.71,2.71h37.84
	c1.49,0,2.71-1.22,2.71-2.71v-1.9C54.1,16.12,52.88,14.9,51.39,14.9z"/>
<path fill="#FFFFFF" d="M51.39,26.83H8.13c-1.49,0-2.71,1.22-2.71,2.71v1.9c0,1.5,1.22,2.71,2.71,2.71h43.26
	c1.49,0,2.71-1.22,2.71-2.71v-1.9C54.1,28.04,52.88,26.83,51.39,26.83z"/>
<path fill="#FFFFFF" d="M51.39,38.75H2.71C1.22,38.75,0,39.97,0,41.46v1.9c0,1.49,1.22,2.71,2.71,2.71h48.68
	c1.49,0,2.71-1.22,2.71-2.71v-1.9C54.1,39.97,52.88,38.75,51.39,38.75z"/>
</svg>
