<?xml version="1.0" encoding="utf-8"?>
<!-- Generator: Adobe Illustrator 12.0.0, SVG Export Plug-In  -->
<!DOCTYPE svg PUBLIC "-//W3C//DTD SVG 1.1//EN" "http://www.w3.org/Graphics/SVG/1.1/DTD/svg11.dtd" [
	<!ENTITY ns_flows "http://ns.adobe.com/Flows/1.0/">
	<!ENTITY ns_svg "http://www.w3.org/2000/svg">
	<!ENTITY ns_xlink "http://www.w3.org/1999/xlink">
]>
<svg  version="1.1" xmlns="&ns_svg;" xmlns:xlink="&ns_xlink;" xmlns:a="http://ns.adobe.com/AdobeSVGViewerExtensions/3.0/"
	 width="256" height="87" viewBox="-0.3 -0.59 256 87" enable-background="new -0.3 -0.59 256 87" xml:space="preserve">
<defs>
</defs>
<path fill="#414140" d="M165.46,18.92c0,1.63,0,2.98,0.09,3.69c0.05,0.49,0.15,0.87,0.66,0.94c0.24,0.04,0.61,0.07,0.77,0.07
	c0.1,0,0.14,0.05,0.14,0.1c0,0.08-0.09,0.14-0.27,0.14c-0.94,0-2.01-0.05-2.1-0.05c-0.08,0-1.16,0.05-1.67,0.05
	c-0.19,0-0.27-0.03-0.27-0.14c0-0.05,0.04-0.1,0.14-0.1c0.15,0,0.36-0.03,0.51-0.07c0.34-0.07,0.42-0.44,0.49-0.94
	c0.09-0.71,0.09-2.06,0.09-3.69v-7.2l-2.52,0.03c-1.05,0.02-1.46,0.14-1.73,0.55c-0.19,0.29-0.24,0.41-0.29,0.53
	c-0.05,0.14-0.1,0.17-0.17,0.17c-0.05,0-0.09-0.05-0.09-0.15c0-0.17,0.34-1.64,0.38-1.77c0.04-0.1,0.1-0.32,0.17-0.32
	c0.12,0,0.29,0.17,0.75,0.21c0.49,0.05,1.14,0.08,1.35,0.08h6.38c0.55,0,0.94-0.03,1.21-0.08c0.26-0.04,0.41-0.09,0.48-0.09
	c0.09,0,0.09,0.1,0.09,0.21c0,0.51-0.05,1.69-0.05,1.87c0,0.16-0.05,0.22-0.12,0.22c-0.08,0-0.12-0.05-0.13-0.29l-0.02-0.19
	c-0.05-0.51-0.46-0.9-2.09-0.94l-2.15-0.03V18.92z"/>
<path fill="#414140" d="M182.02,19.65c0,1.4,0.02,2.54,0.08,3.13c0.05,0.43,0.09,0.7,0.55,0.76c0.2,0.04,0.55,0.07,0.67,0.07
	c0.1,0,0.13,0.07,0.13,0.12c0,0.07-0.08,0.12-0.25,0.12c-0.82,0-1.77-0.05-1.86-0.05c-0.07,0-1.04,0.05-1.48,0.05
	c-0.17,0-0.24-0.03-0.24-0.12c0-0.05,0.03-0.12,0.12-0.12c0.14,0,0.31-0.03,0.44-0.07c0.31-0.07,0.36-0.36,0.41-0.78
	c0.07-0.6,0.07-1.68,0.07-3.08v-1.45c0-0.07-0.03-0.08-0.08-0.08h-6.25c-0.05,0-0.09,0.02-0.09,0.08v1.45c0,1.4,0,2.5,0.07,3.1
	c0.05,0.43,0.1,0.7,0.54,0.76c0.22,0.04,0.55,0.07,0.68,0.07c0.09,0,0.12,0.07,0.12,0.12c0,0.07-0.07,0.12-0.24,0.12
	c-0.84,0-1.79-0.05-1.86-0.05c-0.08,0-1.04,0.05-1.5,0.05c-0.15,0-0.24-0.03-0.24-0.12c0-0.05,0.03-0.12,0.12-0.12
	c0.13,0,0.32-0.03,0.46-0.07c0.29-0.07,0.32-0.34,0.39-0.76c0.08-0.6,0.08-1.74,0.08-3.13v-2.55c0-2.25,0-2.66-0.03-3.12
	c-0.04-0.49-0.12-0.73-0.61-0.8c-0.12-0.02-0.38-0.03-0.51-0.03c-0.05,0-0.12-0.07-0.12-0.12c0-0.09,0.07-0.12,0.24-0.12
	c0.68,0,1.64,0.03,1.72,0.03c0.07,0,1.02-0.03,1.48-0.03c0.17,0,0.24,0.03,0.24,0.12c0,0.05-0.07,0.12-0.12,0.12
	c-0.1,0-0.2,0-0.37,0.03c-0.41,0.09-0.5,0.29-0.53,0.8c-0.02,0.46-0.02,0.9-0.02,3.15v0.3c0,0.08,0.03,0.08,0.09,0.08h6.25
	c0.05,0,0.08,0,0.08-0.08v-0.3c0-2.25-0.02-2.69-0.03-3.15c-0.03-0.49-0.1-0.73-0.6-0.8c-0.12-0.02-0.38-0.03-0.51-0.03
	c-0.07,0-0.12-0.07-0.12-0.12c0-0.09,0.07-0.12,0.24-0.12c0.67,0,1.64,0.03,1.7,0.03c0.09,0,1.04-0.03,1.48-0.03
	c0.17,0,0.26,0.03,0.26,0.12c0,0.05-0.07,0.12-0.13,0.12c-0.1,0-0.19,0-0.38,0.03c-0.39,0.09-0.48,0.29-0.51,0.8
	c-0.04,0.46-0.04,0.87-0.04,3.12V19.65z"/>
<path fill="#414140" d="M186.95,17.09c0-2.25,0-2.66-0.03-3.12c-0.04-0.49-0.12-0.73-0.61-0.8c-0.12-0.02-0.38-0.03-0.51-0.03
	c-0.05,0-0.12-0.07-0.12-0.12c0-0.09,0.07-0.12,0.24-0.12c0.68,0,1.65,0.03,1.74,0.03c0.1,0,3.24,0.02,3.58,0
	c0.29-0.01,0.56-0.07,0.68-0.08c0.07-0.01,0.14-0.07,0.2-0.07c0.05,0,0.07,0.07,0.07,0.14c0,0.1-0.09,0.27-0.12,0.68
	c-0.02,0.14-0.05,0.78-0.09,0.95c-0.01,0.07-0.07,0.15-0.13,0.15c-0.09,0-0.12-0.07-0.12-0.19c0-0.1-0.02-0.34-0.09-0.51
	c-0.1-0.24-0.25-0.34-1.07-0.44c-0.25-0.03-1.99-0.05-2.16-0.05c-0.07,0-0.09,0.05-0.09,0.15v3.93c0,0.1,0,0.16,0.09,0.16
	c0.19,0,2.16,0,2.5-0.04c0.36-0.03,0.58-0.05,0.73-0.21c0.1-0.1,0.17-0.19,0.22-0.19c0.05,0,0.09,0.04,0.09,0.12
	c0,0.09-0.09,0.33-0.12,0.8c-0.03,0.29-0.07,0.83-0.07,0.94c0,0.12-0.03,0.27-0.14,0.27c-0.07,0-0.1-0.05-0.1-0.13
	c0-0.14,0-0.29-0.07-0.48c-0.05-0.2-0.19-0.38-0.77-0.44c-0.41-0.05-2.01-0.07-2.26-0.07c-0.08,0-0.1,0.05-0.1,0.1v1.21
	c0,0.49-0.02,2.18,0,2.47c0.03,0.97,0.31,1.16,1.79,1.16c0.39,0,1.11,0,1.5-0.15c0.39-0.17,0.59-0.43,0.68-1
	c0.04-0.17,0.07-0.22,0.15-0.22c0.09,0,0.1,0.12,0.1,0.22c0,0.1-0.12,1.09-0.21,1.4c-0.1,0.37-0.26,0.37-0.83,0.37
	c-1.13,0-1.99-0.03-2.61-0.05c-0.63-0.04-1.02-0.04-1.24-0.04c-0.03,0-0.32,0-0.65,0.02c-0.29,0.02-0.63,0.03-0.87,0.03
	c-0.15,0-0.24-0.03-0.24-0.12c0-0.05,0.04-0.12,0.12-0.12c0.14,0,0.33-0.05,0.46-0.07c0.29-0.05,0.32-0.34,0.39-0.76
	c0.08-0.6,0.08-1.74,0.08-3.13V17.09z"/>
<path fill="#414140" d="M134.69,35.06c-6.91,2.04-11.41,20.9-30.87,20.9c-4.56,0-7.69-2.53-7.69-6.36c0-1.8,1.2-3.85,3.24-3.85
	c1.68,0,3,0.96,3,2.88c0,1.56-0.96,2.88-2.76,2.88c-1.5,0-1.68-0.48-2.1-0.48c-0.24,0-0.3,0.18-0.3,0.36c0,1.32,2.64,3.84,6.73,3.84
	c8.17,0,14.41-7.93,19.22-13.33l-0.12-0.12c-1.8,0.84-3.84,1.44-6.24,1.44c-4.08,0-6.37-2.64-6.37-6.73c0-1.56,0.6-3.24,1.2-4.32
	c-5.89-0.96-11.77-4.09-11.77-10.81c0-6.24,6.97-9.49,13.09-9.49c3.72,0,7.57,0.72,11.05,2.04l-0.24,0.6
	c-3.12-1.08-6.48-1.92-10.93-1.92c-5.41,0-11.53,3-11.53,10.21c0,5.05,6.37,8.05,10.57,8.65c4.32-9.13,19.46-19.58,30.27-19.58
	c3.12,0,6.37,1.2,6.37,4.68c0,8.65-20.42,16.09-29.79,16.09c-0.96,0-2.16,0-3.6-0.12c-0.96,1.32-2.52,3.72-2.52,5.77
	c0,3,1.92,4.2,3.97,4.2c2.52,0,5.16-0.84,7.2-1.8c2.4-3.72,5.65-6.01,10.93-6.01V35.06z M141.77,12.59
	c-8.17,0-21.38,13.09-26.42,19.22c1.44,0.12,2.76,0.12,4.2,0.12c9.73,0,28.22-8.41,28.22-15.5
	C147.78,13.31,144.3,12.59,141.77,12.59z"/>
<path fill="#414140" d="M153.54,45.68c-5.58,4.8-12.79,10.27-19.22,10.27c-1.8,0-3.72-0.72-3.72-3c0-6.49,11.71-16.58,18.08-16.58
	c1.62,0,2.7,1.14,2.7,2.7c0,5.59-10.45,8.71-14.89,8.71c-3.54,3.84-4.09,5.17-4.09,6c0,1.2,1.2,1.44,2.4,1.44
	c5.29,0,11.65-4.39,18.74-10.27V45.68z M148.68,37.1c-2.28,0-5.41,3-11.59,9.97c6.43,0,12.85-5.53,12.85-8.77
	C149.94,37.64,149.46,37.1,148.68,37.1z"/>
<path fill="#414140" d="M162.31,37.1h3.72l-5.22,5.65l0.12,0.12c2.88-2.58,7.51-6.13,10.21-6.13c2.1,0,3.42,1.38,3.42,3.48
	c0,4.93-10.09,12.13-10.09,14.18c0,0.48,0.36,0.84,0.96,0.84c1.98,0,5.94-3.06,14.17-10.51v0.84c-6.43,6-11.65,10.39-14.17,10.39
	c-1.38,0-2.41-0.84-2.41-2.76c0-4.5,10.09-11.77,10.09-14.05c0-0.96-0.72-1.68-1.92-1.68c-3.61,0-13.21,8.17-21.14,17.42h-4.21
	L162.31,37.1z"/>
<path fill="#414140" d="M200.27,45.68c-5.58,4.8-12.79,10.27-19.22,10.27c-1.8,0-3.72-0.72-3.72-3c0-6.49,11.71-16.58,18.08-16.58
	c1.62,0,2.7,1.14,2.7,2.7c0,5.59-10.45,8.71-14.89,8.71c-3.54,3.84-4.08,5.17-4.08,6c0,1.2,1.2,1.44,2.4,1.44
	c5.28,0,11.65-4.39,18.74-10.27V45.68z M195.4,37.1c-2.28,0-5.4,3-11.59,9.97c6.43,0,12.85-5.53,12.85-8.77
	C196.66,37.64,196.18,37.1,195.4,37.1z"/>
<path fill="#414140" d="M205.19,42.5l5.05-4.68c-0.24-0.48-0.36-0.9-0.36-1.44c0-1.68,0.96-4.08,3-4.08c0.48,0,0.96,0.6,0.96,1.08
	c0,1.56-1.92,3.48-2.88,4.56c1.44,1.98,2.88,3.6,2.88,6.25c0,2.28-1.56,4.32-2.88,6c3.78-0.66,6.01-1.74,8.65-4.92l0.36,0.36
	c-2.52,3-4.68,4.74-9.85,5.28c-3.36,2.82-6.84,5.05-10.45,5.05c-3.12,0-4.32-1.8-4.32-4.2c0-2.64,2.64-6.97,5.28-6.97
	c0.96,0,1.92,0.84,1.92,2.04c0,1.32-1.2,2.28-2.05,2.28c-1.2,0-1.92-0.96-1.92-2.16h-0.12c-1.32,0.96-2.4,2.88-2.4,4.92
	c0,1.8,0.96,3.36,2.76,3.36c2.88,0,13.21-9.73,13.21-13.93c0-0.78-0.54-1.98-1.44-3l-5.04,4.56L205.19,42.5z"/>
<path fill="#414140" d="M229.22,37.1h3.84l-10.51,11.77c-3.48,3.9-4.26,4.87-4.26,5.4c0,0.6,0.48,0.96,1.56,0.96
	c2.7,0,7.33-4.08,15.14-10.63l0.42,0.42c-6.31,5.53-12.79,10.93-15.68,10.93c-2.16,0-2.88-1.2-2.88-2.88c0-1.32,0.72-2.64,2.4-4.56
	L229.22,37.1z M238.82,24.85c1.21,0,2.16,0.96,2.16,2.16s-0.96,2.16-2.16,2.16c-1.2,0-2.16-0.96-2.16-2.16
	S237.63,24.85,238.82,24.85z"/>
<path fill="#414140" d="M240.87,42.5l5.04-4.68c-0.24-0.48-0.36-0.9-0.36-1.44c0-1.68,0.96-4.08,3-4.08c0.48,0,0.96,0.6,0.96,1.08
	c0,1.56-1.92,3.48-2.88,4.56c1.44,1.98,2.88,3.6,2.88,6.25c0,2.28-1.56,4.32-2.88,6c3.79-0.66,6.01-1.74,8.65-4.92l0.36,0.36
	c-2.52,3-4.68,4.74-9.85,5.28c-3.36,2.82-6.85,5.05-10.45,5.05c-3.12,0-4.32-1.8-4.32-4.2c0-2.64,2.64-6.97,5.28-6.97
	c0.96,0,1.92,0.84,1.92,2.04c0,1.32-1.2,2.28-2.04,2.28c-1.2,0-1.92-0.96-1.92-2.16h-0.12c-1.32,0.96-2.4,2.88-2.4,4.92
	c0,1.8,0.96,3.36,2.76,3.36c2.88,0,13.21-9.73,13.21-13.93c0-0.78-0.54-1.98-1.44-3l-5.05,4.56L240.87,42.5z"/>
<path fill="#414140" d="M123.64,75.23c-1.65-1.48-2.06-3.42-2.06-5.04c0-1.14,0.39-3.13,1.91-4.65c1.02-1.02,2.57-1.82,5.19-1.82
	c0.68,0,1.63,0.05,2.47,0.2c0.65,0.12,1.19,0.22,1.74,0.26c0.19,0.02,0.22,0.08,0.22,0.19c0,0.13-0.05,0.34-0.09,0.95
	c-0.04,0.56-0.04,1.5-0.05,1.75c-0.02,0.25-0.05,0.36-0.15,0.36c-0.12,0-0.14-0.12-0.14-0.36c0-0.67-0.27-1.36-0.71-1.74
	c-0.6-0.51-1.91-0.97-3.41-0.97c-2.26,0-3.32,0.66-3.92,1.24c-1.24,1.19-1.53,2.71-1.53,4.44c0,3.25,2.5,6.23,6.15,6.23
	c1.28,0,2.28-0.15,2.96-0.85c0.36-0.38,0.58-1.12,0.63-1.43c0.03-0.19,0.07-0.25,0.17-0.25c0.09,0,0.12,0.12,0.12,0.25
	c0,0.12-0.2,1.6-0.38,2.18c-0.1,0.32-0.14,0.36-0.44,0.49c-0.68,0.27-1.97,0.39-3.07,0.39C126.71,77.07,124.99,76.44,123.64,75.23z"
	/>
<path fill="#414140" d="M140.89,65.68c3.37,0,5.93,2.06,5.93,5.43c0,3.23-2.4,5.91-6.01,5.91c-4.1,0-5.86-3.08-5.86-5.69
	C134.95,69,136.76,65.68,140.89,65.68z M141.23,76.43c1.35,0,4.05-0.71,4.05-4.9c0-3.47-2.11-5.3-4.48-5.3
	c-2.5,0-4.31,1.57-4.31,4.72C136.5,74.31,138.53,76.43,141.23,76.43z"/>
<path fill="#414140" d="M151.32,72.66c0,2.13,0.03,3,0.31,3.25c0.24,0.24,0.82,0.34,1.99,0.34c0.78,0,1.45-0.02,1.81-0.44
	c0.19-0.22,0.31-0.53,0.36-0.82c0.02-0.1,0.07-0.19,0.16-0.19c0.07,0,0.1,0.07,0.1,0.22c0,0.16-0.1,1.02-0.22,1.45
	c-0.1,0.34-0.15,0.39-0.95,0.39c-1.07,0-1.91-0.02-2.6-0.05c-0.68-0.02-1.19-0.04-1.64-0.04c-0.07,0-0.32,0-0.61,0.02
	c-0.31,0.02-0.63,0.03-0.87,0.03c-0.15,0-0.24-0.03-0.24-0.12c0-0.05,0.03-0.12,0.12-0.12c0.14,0,0.32-0.03,0.46-0.07
	c0.29-0.07,0.33-0.34,0.39-0.76c0.08-0.6,0.08-1.74,0.08-3.14v-2.55c0-2.25,0-2.66-0.04-3.12c-0.03-0.49-0.12-0.73-0.61-0.8
	c-0.12-0.02-0.38-0.03-0.51-0.03c-0.05,0-0.12-0.07-0.12-0.12c0-0.08,0.07-0.12,0.24-0.12c0.68,0,1.62,0.04,1.7,0.04
	c0.07,0,1.19-0.04,1.65-0.04c0.15,0,0.24,0.04,0.24,0.12c0,0.05-0.07,0.1-0.12,0.1c-0.1,0-0.33,0.02-0.49,0.04
	c-0.44,0.08-0.53,0.31-0.56,0.82c-0.02,0.46-0.02,0.87-0.02,3.12V72.66z"/>
<path fill="#414140" d="M160.42,72.66c0,2.13,0.03,3,0.31,3.25c0.24,0.24,0.82,0.34,1.99,0.34c0.78,0,1.45-0.02,1.81-0.44
	c0.18-0.22,0.31-0.53,0.36-0.82c0.02-0.1,0.07-0.19,0.15-0.19c0.07,0,0.1,0.07,0.1,0.22c0,0.16-0.1,1.02-0.22,1.45
	c-0.1,0.34-0.16,0.39-0.95,0.39c-1.07,0-1.91-0.02-2.61-0.05c-0.68-0.02-1.19-0.04-1.63-0.04c-0.07,0-0.32,0-0.61,0.02
	c-0.31,0.02-0.63,0.03-0.87,0.03c-0.16,0-0.24-0.03-0.24-0.12c0-0.05,0.03-0.12,0.12-0.12c0.13,0,0.32-0.03,0.46-0.07
	c0.29-0.07,0.33-0.34,0.39-0.76c0.09-0.6,0.09-1.74,0.09-3.14v-2.55c0-2.25,0-2.66-0.03-3.12c-0.04-0.49-0.12-0.73-0.61-0.8
	c-0.12-0.02-0.38-0.03-0.51-0.03c-0.05,0-0.12-0.07-0.12-0.12c0-0.08,0.07-0.12,0.24-0.12c0.68,0,1.62,0.04,1.7,0.04
	c0.07,0,1.19-0.04,1.65-0.04c0.15,0,0.24,0.04,0.24,0.12c0,0.05-0.07,0.1-0.12,0.1c-0.1,0-0.32,0.02-0.49,0.04
	c-0.44,0.08-0.53,0.31-0.56,0.82c-0.02,0.46-0.02,0.87-0.02,3.12V72.66z"/>
<path fill="#414140" d="M168.17,70.08c0-2.25,0-2.66-0.03-3.12c-0.04-0.49-0.12-0.73-0.61-0.8c-0.12-0.02-0.38-0.03-0.51-0.03
	c-0.05,0-0.12-0.07-0.12-0.12c0-0.08,0.07-0.12,0.24-0.12c0.68,0,1.65,0.04,1.74,0.04c0.1,0,3.24,0.02,3.58,0
	c0.29-0.02,0.56-0.07,0.68-0.09c0.07-0.02,0.14-0.07,0.21-0.07c0.05,0,0.07,0.07,0.07,0.14c0,0.1-0.08,0.27-0.12,0.68
	c-0.02,0.14-0.05,0.79-0.09,0.96c-0.01,0.07-0.07,0.15-0.13,0.15c-0.09,0-0.12-0.07-0.12-0.19c0-0.1-0.02-0.34-0.08-0.51
	c-0.1-0.24-0.26-0.34-1.07-0.44c-0.25-0.03-1.99-0.05-2.16-0.05c-0.07,0-0.08,0.05-0.08,0.15v3.93c0,0.1,0,0.15,0.08,0.15
	c0.19,0,2.16,0,2.5-0.03c0.36-0.04,0.58-0.05,0.73-0.21c0.11-0.1,0.17-0.19,0.22-0.19s0.08,0.04,0.08,0.12s-0.08,0.32-0.12,0.8
	c-0.04,0.29-0.07,0.83-0.07,0.93c0,0.12-0.04,0.27-0.14,0.27c-0.07,0-0.1-0.05-0.1-0.14c0-0.14,0-0.29-0.07-0.48
	c-0.05-0.2-0.19-0.37-0.77-0.44c-0.41-0.05-2.01-0.07-2.27-0.07c-0.08,0-0.1,0.05-0.1,0.1v1.21c0,0.5-0.02,2.18,0,2.47
	c0.03,0.97,0.31,1.16,1.79,1.16c0.39,0,1.11,0,1.5-0.15c0.39-0.17,0.6-0.43,0.68-1.01c0.03-0.17,0.07-0.22,0.15-0.22
	s0.1,0.12,0.1,0.22c0,0.1-0.12,1.09-0.2,1.4c-0.11,0.38-0.26,0.38-0.84,0.38c-1.13,0-1.99-0.04-2.61-0.05
	c-0.63-0.04-1.02-0.04-1.24-0.04c-0.03,0-0.32,0-0.65,0.02c-0.29,0.02-0.63,0.03-0.87,0.03c-0.15,0-0.24-0.03-0.24-0.12
	c0-0.05,0.03-0.12,0.12-0.12c0.14,0,0.33-0.05,0.46-0.07c0.29-0.05,0.33-0.34,0.39-0.76c0.08-0.6,0.08-1.74,0.08-3.14V70.08z"/>
<path fill="#414140" d="M177.67,75.47c-1.46-1.26-1.82-2.91-1.82-4.29c0-0.97,0.36-2.66,1.69-3.95c0.9-0.87,2.26-1.55,4.56-1.55
	c0.6,0,1.45,0.05,2.18,0.17c0.56,0.1,1.04,0.2,1.53,0.22c0.15,0,0.19,0.07,0.19,0.15c0,0.12-0.03,0.29-0.07,0.82
	c-0.02,0.48-0.02,1.28-0.04,1.48c-0.02,0.22-0.09,0.31-0.17,0.31c-0.1,0-0.12-0.1-0.12-0.31c0-0.56-0.24-1.14-0.63-1.45
	c-0.53-0.44-1.62-0.8-2.95-0.8c-1.92,0-2.84,0.51-3.37,1.01c-1.11,1.02-1.35,2.32-1.35,3.78c0,2.77,2.2,5.24,5.4,5.24
	c1.12,0,1.87-0.08,2.47-0.68c0.33-0.32,0.53-0.94,0.58-1.21c0.03-0.15,0.05-0.2,0.15-0.2c0.07,0,0.14,0.1,0.14,0.2
	s-0.21,1.36-0.36,1.86c-0.09,0.27-0.12,0.32-0.38,0.42c-0.61,0.24-1.74,0.32-2.71,0.32C180.36,77.02,178.85,76.49,177.67,75.47z"/>
<path fill="#414140" d="M192.8,72.63c0,1.4,0,2.54,0.07,3.14c0.05,0.43,0.12,0.7,0.58,0.76c0.21,0.04,0.55,0.07,0.68,0.07
	c0.1,0,0.12,0.07,0.12,0.12c0,0.07-0.07,0.12-0.24,0.12c-0.82,0-1.77-0.05-1.86-0.05c-0.07,0-1.11,0.05-1.55,0.05
	c-0.17,0-0.24-0.03-0.24-0.12c0-0.05,0.03-0.1,0.12-0.1c0.14,0,0.31-0.04,0.44-0.07c0.31-0.07,0.39-0.36,0.44-0.78
	c0.07-0.6,0.07-1.74,0.07-3.14v-6.08l-2.17,0.03c-0.93,0.02-1.29,0.12-1.52,0.46c-0.17,0.26-0.19,0.36-0.24,0.46
	c-0.03,0.12-0.08,0.14-0.15,0.14c-0.03,0-0.1-0.03-0.1-0.12c0-0.15,0.3-1.45,0.32-1.57c0.03-0.09,0.1-0.27,0.15-0.27
	c0.1,0,0.26,0.12,0.67,0.17c0.42,0.05,1,0.07,1.17,0.07h5.65c0.49,0,0.83-0.04,1.07-0.07c0.22-0.04,0.36-0.07,0.42-0.07
	s0.07,0.08,0.07,0.17c0,0.44-0.05,1.48-0.05,1.65c0,0.12-0.07,0.19-0.13,0.19c-0.07,0-0.1-0.05-0.12-0.26l-0.02-0.15
	c-0.05-0.44-0.37-0.77-1.8-0.8l-1.87-0.03V72.63z"/>
<path fill="#414140" d="M201.27,72.63c0,1.4,0,2.54,0.07,3.14c0.05,0.43,0.1,0.7,0.55,0.76c0.22,0.04,0.54,0.07,0.68,0.07
	c0.08,0,0.12,0.07,0.12,0.12c0,0.07-0.07,0.12-0.24,0.12c-0.84,0-1.81-0.05-1.87-0.05c-0.08,0-1.02,0.05-1.48,0.05
	c-0.15,0-0.24-0.03-0.24-0.12c0-0.05,0.03-0.12,0.12-0.12c0.13,0,0.32-0.03,0.46-0.07c0.29-0.07,0.34-0.34,0.39-0.76
	c0.07-0.6,0.09-1.74,0.09-3.14v-2.55c0-2.25,0-2.66-0.04-3.12c-0.03-0.49-0.15-0.71-0.48-0.78c-0.17-0.03-0.36-0.05-0.46-0.05
	c-0.07,0-0.12-0.07-0.12-0.12c0-0.08,0.07-0.12,0.24-0.12c0.49,0,1.43,0.04,1.51,0.04c0.07,0,1.04-0.04,1.5-0.04
	c0.17,0,0.24,0.04,0.24,0.12c0,0.05-0.07,0.12-0.12,0.12c-0.1,0-0.2,0-0.38,0.03c-0.41,0.08-0.49,0.29-0.53,0.8
	c-0.02,0.46-0.02,0.87-0.02,3.12V72.63z"/>
<path fill="#414140" d="M210.54,65.68c3.37,0,5.93,2.06,5.93,5.43c0,3.23-2.4,5.91-6.01,5.91c-4.11,0-5.86-3.08-5.86-5.69
	C204.6,69,206.4,65.68,210.54,65.68z M210.88,76.43c1.34,0,4.05-0.71,4.05-4.9c0-3.47-2.11-5.3-4.48-5.3
	c-2.51,0-4.31,1.57-4.31,4.72C206.14,74.31,208.17,76.43,210.88,76.43z"/>
<path fill="#414140" d="M220.23,74.86c0.03,1.19,0.17,1.55,0.58,1.65c0.27,0.07,0.61,0.08,0.75,0.08c0.07,0,0.12,0.05,0.12,0.12
	c0,0.09-0.1,0.12-0.27,0.12c-0.85,0-1.45-0.05-1.58-0.05c-0.13,0-0.76,0.05-1.44,0.05c-0.15,0-0.24-0.01-0.24-0.12
	c0-0.07,0.05-0.12,0.12-0.12c0.12,0,0.39-0.02,0.61-0.08c0.37-0.1,0.43-0.49,0.43-1.8v-8.29c0-0.58,0.08-0.73,0.21-0.73
	c0.17,0,0.43,0.29,0.58,0.44c0.24,0.24,2.42,2.55,4.74,4.94c1.48,1.53,3.08,3.25,3.54,3.73l-0.15-7.25
	c-0.02-0.94-0.1-1.26-0.56-1.35c-0.27-0.05-0.61-0.07-0.73-0.07c-0.1,0-0.12-0.09-0.12-0.14c0-0.08,0.12-0.1,0.29-0.1
	c0.68,0,1.4,0.04,1.57,0.04s0.66-0.04,1.28-0.04c0.15,0,0.27,0.02,0.27,0.1c0,0.05-0.07,0.14-0.17,0.14c-0.07,0-0.19,0-0.36,0.03
	c-0.49,0.1-0.52,0.39-0.52,1.26l-0.04,8.48c0,0.95-0.02,1.04-0.12,1.04c-0.15,0-0.31-0.12-1.14-0.88c-0.15-0.14-2.32-2.26-3.9-3.91
	c-1.74-1.83-3.42-3.59-3.88-4.1L220.23,74.86z"/>
<path fill="none" stroke="#414140" stroke-width="1.8623" d="M0.93,41.69c0,22.48,18.57,40.76,41.39,40.76
	c22.82,0,41.39-18.28,41.39-40.76c0-22.47-18.57-40.76-41.39-40.76C19.5,0.93,0.93,19.21,0.93,41.69z"/>
<ellipse fill="#414140" cx="42.32" cy="41.69" rx="39.36" ry="38.62"/>
<path fill-rule="evenodd" clip-rule="evenodd" fill="#FFFFFF" d="M43.26,81.76c-5.06,5.06-13.69,0-20.54,0
	c0.43-3.62,2.73-5.65,5.97-6.82c2.68-0.98,6.58-0.3,8.83-2.17c1.33-1.11,0.43-2.26-0.01-3.63c-0.68-2.12,0.57-1.44,1.51-2.64
	c0.14-0.5-0.76-1.61-0.5-1.84c1.17-1.01-0.55-1.41-0.54-2.67c-0.14-1.15,0.63-1.47,1.39-2.08c0.99-0.79-1.22-2.95-1.83-3.58
	c-2.53-2.61-2.69-5.49-3.32-8.97c-0.58-3.19-1.09-6.5-4.25-8.09c-2.32-1.17-3.96-1.51-5.34-3.99c5.97-0.28,11.95-0.43,17.93-0.39"/>
<path fill-rule="evenodd" clip-rule="evenodd" fill="#FFFFFF" d="M41.25,85.47c6.85,0,13.69-3.7,20.54-3.7
	c-0.43-3.62-2.73-5.65-5.97-6.82c-2.67-0.97-6.58-0.3-8.83-2.17c-1.33-1.11-0.42-2.26,0.01-3.63c0.68-2.12-0.57-1.43-1.51-2.64
	c-0.14-0.5,0.76-1.61,0.49-1.84c-1.17-1.01,0.55-1.41,0.55-2.67c0.14-1.15-0.63-1.47-1.39-2.08c-0.99-0.79,1.22-2.95,1.83-3.57
	c2.53-2.62,2.69-5.49,3.32-8.98c0.58-3.19,1.09-6.5,4.25-8.09c2.32-1.17,3.96-1.51,5.34-3.98c-5.97-0.29-11.95-0.44-17.93-0.39"/>
<path fill="#FFFFFF" d="M41.05,37.71c-0.24-2.19,0.62-8.23,1.81-9.97c0.34-0.51,0.57-0.81,0.52-1.25c-0.16-1.41-1.58-2.28-3.33-2.22
	c-0.39,0.02-1.1,0.21-1.39,0.36c-0.4,0.2-0.42,0-0.29-0.32c0.14-0.28,0.74-1.37,1.03-1.66c0.36-0.32,0.26-0.4-0.1-0.52
	c-0.73-0.25-1.93-0.14-2.25-0.1c-0.44,0.05-0.44-0.21-0.14-0.43c0.8-0.58,2.13-1.05,3.16-1.17c2.93-0.32,4.01,2.08,4.18,3.53
	c0.06,0.51,0.03,1.51-0.27,2.42l0.07,0.02c2.59-3.21,3.23-5.01,3.08-6.34c-0.34-0.08-0.71-0.29-1.02-0.54
	c-0.23-0.21-0.71-0.71-1.25-1.12c-0.23-0.16-0.22-0.33,0.1-0.41l0.27-0.08c0.14-0.01,0.36-0.09,0.7-0.22
	c0.36-0.16,0.37-0.25-0.06-0.53c-1.76-1.32-2.74-1.99-2.92-3.62c-0.1-0.95,0.16-2.33,0.77-3.19c0.44-0.63,0.57-0.53,0.71-0.29
	c0.52,0.85,1.09,1.42,1.58,1.77c0.38,0.29,0.53,0.13,0.63-0.26c0.09-0.43,0.47-1.26,1.04-1.98c0.31-0.39,0.61-0.81,0.88-1.13
	c0.21-0.25,0.37-0.27,0.49-0.01c0.2,0.38,0.43,0.77,0.72,1.23c0.41,0.71,0.61,1.47,0.71,2.4c0.04,0.37,0.12,0.41,0.41,0.35
	c0.94-0.17,2.08-0.88,2.34-1.45c0.13-0.3,0.21-0.37,0.42-0.05c0.2,0.35,0.44,1.26,0.52,1.95c0.23,2.12-0.57,2.89-1.25,3.5
	c-0.56,0.46-2,1.18-2.45,1.32c-0.49,0.17-0.55,0.27-0.15,0.53c0.25,0.16,0.38,0.31,0.56,0.4c0.24,0.21,0.18,0.4-0.11,0.46
	c-0.41,0.09-0.81,0.28-1.3,0.52c-0.44,0.23-0.82,0.42-1.33,0.45c0.08,0.27,0.1,0.52,0.13,0.71c0.17,1.54-0.95,3.63-3.32,6.11
	l0.07,0.04c1.2-0.79,2.69-1.21,3.85-1.33c1.57-0.17,2.98,0.37,3.91,1.29c0.94,0.95,1.38,2.16,1.51,3.29
	c0.04,0.37-0.12,0.58-0.4,0.14c-0.42-0.65-1.54-1.49-2.84-1.58c-0.28-0.01-0.39,0.04-0.37,0.27c0.05,0.42-0.11,1.11-0.51,1.53
	c-0.34,0.34-0.49,0.22-0.54-0.2c-0.03-0.25-0.79-3.11-4.62-2.69c-0.62,0.07-0.8,0.37-0.98,0.62c-1.37,1.95-2.06,7.88-1.85,9.82
	 M46.82,16.02c0.05,0.48,0.47,1.35,0.92,1.77c0.26,0.23,0.31,0.3,0.68,0c0.62-0.56,1.16-1.51,1.05-2.57
	c-0.07-0.65-0.37-1.24-0.77-1.69c-0.25-0.34-0.34-0.31-0.71-0.04c-0.62,0.49-1.29,1.43-1.17,2.52L46.82,16.02z"/>
<path fill="#FFFFFF" d="M41.45,32.46c-1.13,0-2.07-0.54-2.89-1.25c-0.24-0.2-0.38-0.33-0.61-0.33c-0.73,0-1.25,0.68-1.32,1.57
	c-0.01,0.2,0.05,0.57,0.11,0.72c0.08,0.21-0.02,0.21-0.18,0.13c-0.13-0.08-0.65-0.45-0.78-0.61c-0.14-0.21-0.19-0.16-0.27,0.02
	c-0.17,0.36-0.18,0.98-0.18,1.14c0,0.22-0.13,0.21-0.23,0.05c-0.25-0.44-0.42-1.15-0.42-1.68c0-1.51,1.28-1.93,2.03-1.93
	c0.26,0,0.78,0.07,1.21,0.27l0.01-0.03c-1.49-1.5-2.37-1.92-3.06-1.92c-0.06,0.17-0.19,0.35-0.33,0.49
	c-0.12,0.11-0.41,0.32-0.64,0.57c-0.09,0.11-0.18,0.1-0.2-0.07l-0.02-0.14c0-0.07-0.03-0.19-0.07-0.37c-0.06-0.19-0.1-0.2-0.27,0
	c-0.77,0.83-1.16,1.29-2.01,1.29c-0.49,0-1.18-0.21-1.58-0.57c-0.3-0.26-0.24-0.32-0.11-0.38c0.46-0.22,0.78-0.48,0.99-0.71
	c0.17-0.18,0.09-0.26-0.09-0.33c-0.21-0.07-0.62-0.3-0.95-0.64c-0.18-0.18-0.38-0.36-0.53-0.51c-0.12-0.12-0.12-0.2,0.03-0.25
	c0.2-0.08,0.41-0.18,0.66-0.3c0.38-0.17,0.78-0.23,1.26-0.23c0.19,0,0.21-0.03,0.2-0.19c-0.04-0.49-0.34-1.1-0.61-1.27
	c-0.14-0.09-0.18-0.13,0-0.21c0.19-0.09,0.67-0.16,1.02-0.16c1.1,0,1.44,0.45,1.71,0.83c0.2,0.31,0.49,1.08,0.54,1.32
	c0.06,0.26,0.11,0.3,0.26,0.11c0.09-0.12,0.18-0.18,0.24-0.26c0.12-0.11,0.21-0.07,0.23,0.08c0.02,0.21,0.09,0.43,0.19,0.69
	c0.09,0.24,0.17,0.44,0.16,0.7c0.14-0.02,0.27-0.03,0.37-0.03c0.8,0,1.8,0.69,2.93,2.03l0.02-0.03c-0.33-0.66-0.47-1.44-0.47-2.04
	c0-0.81,0.35-1.5,0.88-1.92c0.54-0.43,1.18-0.58,1.76-0.58c0.19,0,0.29,0.09,0.05,0.21c-0.36,0.18-0.84,0.7-0.96,1.36
	c-0.02,0.14,0,0.2,0.12,0.2c0.21,0,0.56,0.12,0.75,0.35c0.16,0.19,0.08,0.26-0.13,0.26c-0.13,0-1.63,0.23-1.63,2.2
	c0,0.32,0.14,0.43,0.26,0.54c0.92,0.81,1.81,1.26,2.81,1.26 M32.8,28.55c0.25,0,0.71-0.17,0.95-0.37c0.13-0.12,0.17-0.14,0.04-0.35
	c-0.25-0.34-0.7-0.68-1.25-0.68c-0.33,0-0.65,0.12-0.9,0.3c-0.19,0.11-0.18,0.15-0.06,0.36c0.21,0.35,0.65,0.74,1.21,0.74H32.8z"/>
<path fill="#FFFFFF" d="M65.31,48.02c0,1.08-0.89,1.84-2.21,2.38c-1.11,0.45-2.81,0.67-4.42,0.67c-1.04,0-4.12-0.15-5.95-1.53
	c-0.5-0.39-0.66-0.82-0.66-1.18c0-0.3,0.08-0.49,0.16-0.71c-1.99-1.57-4-2.92-6.24-2.92c-1.48,0-2.94,0.62-2.94,2.65
	c0,1.6,0.99,2.43,1.68,2.68c0.25,0.09,0.23,0.26,0.13,0.35c-0.09,0.07-0.43,0.31-0.73,0.36c-0.3,0.07-0.59,0.07-0.92-0.1
	c-0.46-0.24-1.28-1.1-1.28-2.42c0-0.82,0.26-2.04,1.56-3.2c0.66-0.58,1.83-1.14,3.3-1.14c2.15,0,4.41,1.49,5.93,2.62
	c0.31-0.68,0.9-0.89,1.2-0.89c1.24,0,2.35,1.31,4.21,2.71c1.82,1.34,2.85,1.68,3.95,1.68c0.89,0,2.06-0.39,2.06-1.46
	c0-0.75-0.52-1.15-1.07-1.15c-0.16,0.01-0.23-0.12-0.16-0.22c0.07-0.07,0.59-0.53,1.22-0.53c0.52,0,1.18,0.43,1.18,1.34V48.02z"/>
<path fill="#FFFFFF" d="M18.6,48.47c0-0.91,0.66-1.34,1.18-1.34c0.63,0,1.15,0.46,1.22,0.54c0.07,0.1,0,0.23-0.16,0.21
	c-0.55,0-1.07,0.4-1.07,1.15c0,1.07,1.17,1.45,2.06,1.45c1.09,0,2.13-0.34,3.95-1.68c1.86-1.4,2.97-2.71,4.2-2.71
	c0.31,0,0.89,0.22,1.2,0.89c1.53-1.14,3.79-2.62,5.94-2.62c1.47,0,2.64,0.56,3.3,1.14c1.3,1.15,1.56,2.38,1.56,3.2
	c0,1.32-0.82,2.18-1.28,2.42c-0.33,0.17-0.62,0.17-0.92,0.1c-0.3-0.05-0.65-0.29-0.73-0.36c-0.1-0.09-0.11-0.26,0.13-0.35
	c0.69-0.25,1.68-1.08,1.68-2.68c0-2.03-1.45-2.65-2.94-2.65c-2.23,0-4.25,1.35-6.24,2.93c0.09,0.21,0.16,0.4,0.16,0.7
	c0,0.36-0.16,0.79-0.66,1.18c-1.83,1.38-4.91,1.53-5.95,1.53c-1.61,0-3.31-0.22-4.42-0.66c-1.31-0.53-2.21-1.3-2.21-2.38V48.47z"/>
</svg>
