<?xml version="1.0" encoding="utf-8"?>
<!-- Generator: Adobe Illustrator 12.0.0, SVG Export Plug-In  -->
<!DOCTYPE svg PUBLIC "-//W3C//DTD SVG 1.1//EN" "http://www.w3.org/Graphics/SVG/1.1/DTD/svg11.dtd" [
	<!ENTITY ns_flows "http://ns.adobe.com/Flows/1.0/">
	<!ENTITY ns_svg "http://www.w3.org/2000/svg">
	<!ENTITY ns_xlink "http://www.w3.org/1999/xlink">
]>
<svg  version="1.1" xmlns="&ns_svg;" xmlns:xlink="&ns_xlink;" xmlns:a="http://ns.adobe.com/AdobeSVGViewerExtensions/3.0/"
	 width="11" height="8" viewBox="-0.875 -0.61 11 8" enable-background="new -0.875 -0.61 11 8" xml:space="preserve">
<defs>
</defs>
<path d="M9.5,3h-9C0.224,3,0,3.224,0,3.5C0,3.775,0.224,4,0.5,4h9C9.775,4,10,3.775,10,3.5C10,3.224,9.775,3,9.5,3z"/>
<path d="M0.5,1h9C9.775,1,10,0.776,10,0.5S9.775,0,9.5,0h-9C0.224,0,0,0.224,0,0.5S0.224,1,0.5,1z"/>
<path d="M9.5,6h-9C0.224,6,0,6.225,0,6.5S0.224,7,0.5,7h9C9.775,7,10,6.775,10,6.5S9.775,6,9.5,6z"/>
</svg>
