<?xml version="1.0" encoding="utf-8"?>
<!-- Generator: Adobe Illustrator 12.0.0, SVG Export Plug-In  -->
<!DOCTYPE svg PUBLIC "-//W3C//DTD SVG 1.1//EN" "http://www.w3.org/Graphics/SVG/1.1/DTD/svg11.dtd" [
	<!ENTITY ns_flows "http://ns.adobe.com/Flows/1.0/">
	<!ENTITY ns_svg "http://www.w3.org/2000/svg">
	<!ENTITY ns_xlink "http://www.w3.org/1999/xlink">
]>
<svg  version="1.1" xmlns="&ns_svg;" xmlns:xlink="&ns_xlink;" xmlns:a="http://ns.adobe.com/AdobeSVGViewerExtensions/3.0/"
	 width="110" height="32" viewBox="-0.68 -0.08 110 32" enable-background="new -0.68 -0.08 110 32" xml:space="preserve">
<defs>
</defs>
<path d="M20.45,9.06c0-0.03,0-0.06-0.03-0.06c-0.42,0-6.18,7.33-7.49,10.37c-0.38,0.9-1.25,1.5-2.02,1.5
	c-0.35,0-0.64-0.19-0.64-0.58c0-0.13,0.03-0.29,0.1-0.48l3.97-11.52c0.16-0.45,0.29-0.8,0.29-0.9c0-0.03,0-0.06-0.03-0.06
	c-0.61,0-6.21,8.19-8.06,12.03c-0.48,0.99-1.34,1.5-2.02,1.5c-0.35,0-0.64-0.19-0.64-0.58c0-0.13,0.03-0.29,0.1-0.48L8.22,7.46
	C8.54,6.5,8.7,5.63,8.7,4.83c0-2.08-1.06-3.49-2.72-3.49c-2.3,0-3.81,3.14-3.81,4.96c0,1.66,0.61,2.18,1.18,2.18
	c0.74,0,1.02-0.74,1.44-0.74c0.22,0,0.42,0.19,0.42,0.74c0,1.18-1.47,2.66-3.04,2.66c-0.99,0-2.18-0.7-2.18-3.2
	C0,3.17,4.19,0,7.01,0c2.27,0,4.13,1.63,4.13,4.51c0,0.9-0.19,1.92-0.58,3.04l-1.92,5.57c2.11-3.26,5.5-7.84,6.78-9.22
	c0.74-0.77,1.5-1.09,2.05-1.09c0.48,0,0.8,0.26,0.8,0.7c0,0.26-0.1,0.58-0.16,0.74l-3.36,9.76c1.92-2.85,4.86-6.46,6.34-8.26
	c0.77-0.9,1.6-1.28,2.24-1.28c0.58,0,0.96,0.29,0.96,0.8c0,0.19-0.1,0.48-0.16,0.67L20.1,17.63c-0.16,0.42-0.22,0.93-0.22,1.5
	c0,1.22,0.38,2.59,1.34,3.3c0.19,0.16,0.26,0.29,0.26,0.42c0,0.16-0.16,0.29-0.38,0.29c-0.03,0-0.1,0-0.16-0.03
	c-2.21-0.54-3.46-2.66-3.46-4.61c0-0.45,0.06-0.86,0.19-1.28l2.5-7.23C20.32,9.5,20.45,9.15,20.45,9.06z"/>
<path d="M32.26,16.51c0.19,0,0.35,0.1,0.35,0.32c0,0.22-0.13,0.51-0.45,0.9c-1.6,1.86-3.87,3.14-6.02,3.14
	c-2.08,0-3.65-1.38-3.65-3.39c0-2.91,2.4-6.21,5.95-6.21c1.6,0,2.37,0.96,2.37,1.95c0,1.73-2.4,3.9-4.64,4.93
	c-0.13,0.06-0.26,0.1-0.35,0.1c-0.26,0-0.45-0.16-0.45-0.38c0-0.19,0.13-0.42,0.45-0.67c2.02-1.6,2.69-3.04,2.69-3.9
	c0-0.61-0.29-0.9-0.74-0.9c-1.38,0-2.94,2.46-2.94,4.64c0,1.47,0.96,2.27,2.34,2.27c1.34,0,3.04-0.77,4.54-2.53
	C31.84,16.61,32.06,16.51,32.26,16.51z"/>
<path d="M42.69,7.58c0,0.42-0.64,0.99-1.34,0.99h-3.58c-1.09,3.04-2.59,6.08-4.03,8.03c0.1,1.89,0.48,2.56,0.96,2.56
	c0.7,0,1.82-1.02,3.01-2.4c0.16-0.16,0.38-0.26,0.54-0.26c0.22,0,0.38,0.1,0.38,0.32c0,0.19-0.13,0.51-0.48,0.9
	c-1.92,2.27-3.36,3.14-4.45,3.14c-1.54,0-2.24-1.89-2.24-4.03c0-2.75,0.64-5.63,1.57-8.26h-2.08c-0.35,0-0.51-0.13-0.51-0.32
	c0-0.42,0.64-0.99,1.38-0.99h1.73c1.66-4.16,3.97-7.23,5.09-7.23c0.45,0,0.74,0.45,0.74,1.5c0,1.5-0.45,3.58-1.15,5.73h3.97
	C42.56,7.26,42.69,7.39,42.69,7.58z M33.73,14.85c1.06-1.89,1.86-4.26,2.4-6.27h-1.38C34.21,10.56,33.73,13.18,33.73,14.85z
	 M36.83,3.49c-0.35,0-1.06,1.63-1.7,3.78h1.31c0.38-1.6,0.58-2.82,0.58-3.04C37.02,3.71,36.96,3.49,36.83,3.49z"/>
<path d="M39.23,14.82c-0.9-0.58-1.28-1.22-1.28-2.21c0-1.98,1.73-3.36,3.01-3.36c0.9,0,1.41,0.67,1.41,1.44
	c0,0.9-0.35,1.73-0.9,2.56c0.86,0.22,1.89,0.19,2.59,0.22c0.48,0.03,0.83,0.35,0.83,0.93c0,0.22-0.1,0.48-0.29,0.64
	c-0.45,0.45-2.27,2.18-2.27,3.52c0,0.51,0.22,0.74,0.58,0.74c0.8,0,2.3-1.02,3.58-2.53c0.13-0.16,0.35-0.26,0.54-0.26
	s0.35,0.1,0.35,0.32c0,0.22-0.13,0.51-0.45,0.9c-1.98,2.34-3.58,3.14-4.74,3.14c-1.34,0-2.08-1.09-2.08-2.05
	c0-0.77,0.45-1.89,1.82-3.1c-0.64-0.06-1.28-0.22-1.86-0.45c-0.67,0.9-1.41,1.82-1.95,2.46c-0.16,0.19-0.38,0.26-0.54,0.26
	c-0.19,0-0.35-0.1-0.35-0.35c0-0.19,0.13-0.48,0.45-0.86C38.14,16.26,38.72,15.49,39.23,14.82z M40.51,12.77
	c0.22-0.42,0.42-0.96,0.42-1.5c0-0.61-0.16-0.83-0.38-0.83c-0.35,0-0.64,0.51-0.64,0.99C39.9,11.97,40.22,12.51,40.51,12.77z"/>
<path d="M53.41,18.34l-0.19,0.26c-1.28,1.5-2.98,2.27-4.45,2.27c-1.95,0-3.04-1.44-3.04-3.26c0-1.31,0.54-2.85,1.63-4.1
	c0.45-0.51,1.34-1.44,1.76-1.44c0.26,0,0.45,0.26,0.45,0.54c0,0.1-0.03,0.22-0.13,0.32c-0.74,0.8-1.41,2.18-1.41,3.68
	c0,1.63,0.77,2.85,1.92,2.85c0.7,0,1.5-0.54,2.05-1.31c-1.54-0.45-2.69-1.6-2.69-3.3c0-1.92,1.12-3.58,2.85-3.58
	c1.09,0,2.69,1.02,2.69,3.33c0,0.67-0.13,1.41-0.45,2.11c1.18-0.16,2.5-1.09,3.68-2.4c-0.42-0.61-0.7-1.22-0.7-2.02
	c0-1.76,2.14-3.42,3.52-3.42c0.58,0,0.99,0.29,0.99,0.99c0,0.99-0.96,2.5-1.66,3.49c0.9,1.12,2.02,2.4,2.02,3.81
	c0,0.1-0.03,0.54-0.1,0.83c0.86-0.03,1.34-0.29,2.14-1.22c0.13-0.16,0.35-0.26,0.54-0.26c0.19,0,0.35,0.1,0.35,0.32
	c0,0.22-0.13,0.51-0.45,0.9c-1.18,1.41-2.08,1.76-2.98,1.76c-0.13,0-0.32-0.03-0.32-0.03c-0.86,1.02-2.11,1.41-3.46,1.41
	c-0.86,0-2.21-0.51-2.21-1.44c0-0.86,1.22-1.66,3.39-1.66c0.32,0,0.74,0.03,1.09,0.06c-0.03-0.96-0.77-1.82-1.5-2.69
	C57.28,16.86,55.71,18.34,53.41,18.34z M50.53,14.14c0,1.15,0.96,1.98,2.18,2.37c0.06-0.42,0.13-0.8,0.13-1.18
	c0-1.22-0.38-2.5-1.25-2.5C50.91,12.83,50.53,13.38,50.53,14.14z M59.87,19.1c-0.48-0.13-0.99-0.26-1.5-0.26
	c-0.54,0-0.8,0.22-0.8,0.45c0,0.29,0.32,0.58,0.83,0.58C58.91,19.87,59.45,19.55,59.87,19.1z M59.17,11.3
	c0,0.42,0.13,0.74,0.35,1.09c0.38-0.67,0.7-1.34,0.74-1.82c0-0.22-0.06-0.35-0.22-0.35C59.71,10.21,59.17,10.75,59.17,11.3z"/>
<path d="M65.76,17.02c0,1.47,0.96,2.27,2.34,2.27c1.34,0,3.04-0.77,4.54-2.53c0.13-0.16,0.35-0.26,0.54-0.26s0.35,0.1,0.35,0.32
	c0,0.22-0.13,0.51-0.45,0.9c-1.57,1.86-3.87,3.14-6.02,3.14c-2.11,0-3.65-1.38-3.65-3.39c0-3.07,2.56-6.21,5.95-6.21
	c1.41,0,2.46,0.83,2.46,1.98c0,1.31-1.15,2.53-2.4,2.53c-0.77,0-1.22-0.48-1.22-0.9c0-0.22,0.19-0.51,0.51-0.51
	c0.06,0,0.13,0,0.16,0c0.16,0,0.74-0.06,0.74-0.99c0-0.45-0.19-0.96-0.83-0.96C67.17,12.42,65.76,15.01,65.76,17.02z"/>
<path d="M74.17,14.82c-0.9-0.58-1.28-1.22-1.28-2.21c0-1.98,1.73-3.36,3.01-3.36c0.9,0,1.41,0.67,1.41,1.44
	c0,0.9-0.35,1.73-0.9,2.56c0.86,0.22,1.89,0.19,2.59,0.22c0.48,0.03,0.83,0.35,0.83,0.93c0,0.22-0.1,0.48-0.29,0.64
	c-0.45,0.45-2.27,2.18-2.27,3.52c0,0.51,0.22,0.74,0.58,0.74c0.8,0,2.3-1.02,3.58-2.53c0.13-0.16,0.35-0.26,0.54-0.26
	s0.35,0.1,0.35,0.32c0,0.22-0.13,0.51-0.45,0.9c-1.98,2.34-3.58,3.14-4.74,3.14c-1.34,0-2.08-1.09-2.08-2.05
	c0-0.77,0.45-1.89,1.82-3.1c-0.64-0.06-1.28-0.22-1.86-0.45c-0.67,0.9-1.41,1.82-1.95,2.46c-0.16,0.19-0.38,0.26-0.54,0.26
	c-0.19,0-0.35-0.1-0.35-0.35c0-0.19,0.13-0.48,0.45-0.86C73.09,16.26,73.66,15.49,74.17,14.82z M75.45,12.77
	c0.22-0.42,0.42-0.96,0.42-1.5c0-0.61-0.16-0.83-0.38-0.83c-0.35,0-0.64,0.51-0.64,0.99C74.85,11.97,75.17,12.51,75.45,12.77z"/>
<path d="M83.33,18.34c-0.06,0.22-0.13,0.48-0.13,0.64c0,0.26,0.1,0.42,0.32,0.42c0.48,0,1.73-0.83,3.26-2.62
	c0.19-0.22,0.38-0.26,0.54-0.26c0.22,0,0.38,0.1,0.38,0.32c0,0.19-0.13,0.51-0.48,0.9c-1.76,2.08-3.52,3.14-4.64,3.14
	c-1.18,0-1.73-0.7-1.73-1.79c0-0.35,0.06-0.77,0.19-1.18c0.48-1.66,1.28-3.2,1.63-3.94c0.1-0.22,0.16-0.35,0.16-0.45
	c0-0.1-0.06-0.13-0.16-0.13c-0.1,0-0.19,0.03-0.29,0.03c-0.22,0-0.45-0.1-0.45-0.32c0-0.64,1.7-1.82,3.33-1.82
	c0.45,0,0.64,0.19,0.64,0.48c0,0.42-0.35,1.09-0.7,1.86C84.61,14.91,83.84,16.61,83.33,18.34z M87.13,7.62
	c0,0.86-0.9,1.82-1.95,1.82c-0.74,0-1.31-0.51-1.31-1.18c0-0.93,0.99-1.82,1.98-1.82C86.56,6.43,87.13,6.85,87.13,7.62z"/>
<path d="M84.51,29.92c-0.35,0.99-1.38,1.63-2.05,1.63c-0.32,0-0.54-0.16-0.54-0.51c0-0.13,0.03-0.29,0.1-0.48l5.73-16.67
	c0.06-0.19,0.13-0.35,0.13-0.45c0-0.06-0.03-0.13-0.13-0.13c-0.06,0-0.19,0.06-0.35,0.06s-0.38-0.1-0.38-0.32
	c0-0.54,1.47-1.79,3.1-1.79c0.32,0,0.58,0.19,0.58,0.54c0,0.13-0.03,0.29-0.1,0.48l-0.38,1.09c1.18-1.41,2.46-2.11,3.58-2.11
	c1.66,0,2.46,1.57,2.46,2.88c0,1.28-0.58,2.69-1.25,3.71c0,0,0.26,0.03,0.45,0.03c1.12,0,1.54-0.45,2.14-1.12
	c0.13-0.16,0.35-0.26,0.54-0.26s0.35,0.1,0.35,0.32c0,0.22-0.13,0.51-0.45,0.9c-0.99,1.15-1.89,1.5-2.75,1.5
	c-0.42,0-0.8-0.1-1.18-0.22c-1.18,1.5-2.78,1.86-3.65,1.86c-0.9,0-1.6-0.45-1.6-1.28c0-0.67,0.45-2.21,2.78-2.21
	c0.48,0,1.02,0.06,1.7,0.19c0.35-0.86,0.54-1.92,0.54-2.72c0-1.09-0.35-1.92-1.28-1.92c-1.28,0-3.07,2.4-3.81,4.58L84.51,29.92z
	 M90.56,19.26c0,0.32,0.19,0.58,0.61,0.58c0.51,0,1.15-0.45,1.66-1.25c-0.42-0.13-0.83-0.29-1.22-0.29
	C90.91,18.3,90.56,18.78,90.56,19.26z"/>
<path d="M108.57,7.58c0,0.42-0.64,0.99-1.34,0.99h-3.58c-1.09,3.04-2.59,6.08-4.03,8.03c0.1,1.89,0.48,2.56,0.96,2.56
	c0.7,0,1.82-1.02,3.01-2.4c0.16-0.16,0.38-0.26,0.54-0.26c0.22,0,0.38,0.1,0.38,0.32c0,0.19-0.13,0.51-0.48,0.9
	c-1.92,2.27-3.36,3.14-4.45,3.14c-1.54,0-2.24-1.89-2.24-4.03c0-2.75,0.64-5.63,1.57-8.26h-2.08c-0.35,0-0.51-0.13-0.51-0.32
	c0-0.42,0.64-0.99,1.38-0.99h1.73c1.66-4.16,3.97-7.23,5.09-7.23c0.45,0,0.74,0.45,0.74,1.5c0,1.5-0.45,3.58-1.15,5.73h3.97
	C108.45,7.26,108.57,7.39,108.57,7.58z M99.61,14.85c1.06-1.89,1.86-4.26,2.4-6.27h-1.38C100.09,10.56,99.61,13.18,99.61,14.85z
	 M102.72,3.49c-0.35,0-1.06,1.63-1.7,3.78h1.31c0.38-1.6,0.58-2.82,0.58-3.04C102.91,3.71,102.85,3.49,102.72,3.49z"/>
</svg>
