<?xml version="1.0" encoding="utf-8"?>
<!-- Generator: Adobe Illustrator 12.0.0, SVG Export Plug-In  -->
<!DOCTYPE svg PUBLIC "-//W3C//DTD SVG 1.1//EN" "http://www.w3.org/Graphics/SVG/1.1/DTD/svg11.dtd" [
	<!ENTITY ns_flows "http://ns.adobe.com/Flows/1.0/">
	<!ENTITY ns_svg "http://www.w3.org/2000/svg">
	<!ENTITY ns_xlink "http://www.w3.org/1999/xlink">
]>
<svg  version="1.1" xmlns="&ns_svg;" xmlns:xlink="&ns_xlink;" xmlns:a="http://ns.adobe.com/AdobeSVGViewerExtensions/3.0/"
	 width="118" height="140" viewBox="-0.521 -0.615 118 140" enable-background="new -0.521 -0.615 118 140" xml:space="preserve">
<defs>
</defs>
<path fill="#FFFFFF" d="M100.44,65.797h-2.372V47.444c0-4.754-6.612-5.497-6.612-5.497h-1.492c-0.233,0.326-0.468,0.743-0.69,1.099
	v-0.078c-0.134,0.223-0.284,0.523-0.412,0.746c-0.206,0.348-0.378,0.674-0.573,1.049c-0.289,0.548-0.557,1.169-0.841,1.807
	c-0.1,0.2-0.184,0.348-0.267,0.548c0.022,0,0.022,0,0.033,0.011c-1.152,2.873-2.126,6.469-2.505,11.139h1.837
	c0.996,0,1.898,0.12,2.728,0.317V47.658c1.559,0.593,3.29,1.707,3.29,3.822v8.623c1.903,1.431,3.067,3.602,3.769,6.26
	c0.602,2.324,0.885,4.959,0.885,7.829c0,8.806-2.115,15.932-10.677,15.932H28.551c-8.556,0-9.861-7.125-9.861-15.932
	c0-2.934,0.194-5.647,0.713-8.024c0.695-3.17,2.048-5.642,4.628-6.908v-6.903c0,0,0.663-5.285,6.021-5.285h2.052v11.197h4.48
	c-0.229-2.844-0.295-7.267,0.513-12.232c0.194-1.18,0.428-2.394,0.737-3.621c1.378-5.614,4.017-11.581,9.01-16.585H32.107v16.118
	h-6.594c-6.212,0-6.955,6.591-6.955,6.591v17.253h-1.731C7.522,65.797,0,73.735,0,83.538v32.425c0,9.797,7.522,10.827,16.827,10.827
	h6.485v11.862h74.366V126.79h2.762c9.307,0,16.855-1.041,16.855-10.827V83.538C117.296,73.735,109.747,65.797,100.44,65.797z
	 M29.909,131.343l5.494-23.819h46.901l8.06,23.819H29.909z"/>
<path fill="#FFFFFF" d="M39.547,62.827h-7.044c-4.921,0-7.075,1.723-8.005,5.08H24.03v0.056h0.445
	c-0.462,1.756-0.632,3.941-0.632,6.591c0,7.788,1.145,10.449,8.665,10.449h50.887c7.504,0,9.362-2.661,9.362-10.449
	c0-2.947-0.267-5.335-1.013-7.178l0.818-0.017v-0.086L91.7,67.278c-1.225-2.95-3.696-4.451-8.305-4.451h-2.711
	c-2.544-13.914,8.355-24.921,8.355-24.921C105.617,25.467,102.812,0,102.812,0C92.925,16.475,76.66,17.585,76.66,17.585
	C39.461,19.113,38.785,53.548,39.547,62.827z"/>
</svg>
