<?xml version="1.0" encoding="utf-8"?>
<!-- Generator: Adobe Illustrator 12.0.0, SVG Export Plug-In . SVG Version: 6.00 Build 51448)  -->
<!DOCTYPE svg PUBLIC "-//W3C//DTD SVG 1.1//EN" "http://www.w3.org/Graphics/SVG/1.1/DTD/svg11.dtd" [
	<!ENTITY ns_svg "http://www.w3.org/2000/svg">
	<!ENTITY ns_xlink "http://www.w3.org/1999/xlink">
]>
<svg  version="1.1" id="Layer_1" xmlns="&ns_svg;" xmlns:xlink="&ns_xlink;" width="65" height="54" viewBox="16.5 21.5 65 54"
	 overflow="visible" enable-background="new 16.5 21.5 65 54" xml:space="preserve">
<path d="M73.75,36.979h-6.875V25.208H38.333c-2.917,0-5.208,2.292-5.208,5.208v6.458H21.042v24.896c0,1.979,1.667,3.645,3.646,3.645
	h8.021v9.271h34.167l0,0v-9.271h12.084l0,0V42.188C78.959,39.271,76.666,36.979,73.75,36.979z M36.667,36.979l0.208-5.938
	c0-1.146,0.938-2.083,2.083-2.083h24.479l-0.209,8.021H36.667z M63.229,51.146v19.895H36.354V51.146H63.229z"/>
<path fill="none" d="M16.5,21.5h65v54h-65V21.5z"/>
</svg>
