<?xml version="1.0" encoding="utf-8"?>
<!-- Generator: Adobe Illustrator 12.0.0, SVG Export Plug-In  -->
<!DOCTYPE svg PUBLIC "-//W3C//DTD SVG 1.1//EN" "http://www.w3.org/Graphics/SVG/1.1/DTD/svg11.dtd" [
	<!ENTITY ns_flows "http://ns.adobe.com/Flows/1.0/">
	<!ENTITY ns_svg "http://www.w3.org/2000/svg">
	<!ENTITY ns_xlink "http://www.w3.org/1999/xlink">
]>
<svg  version="1.1" xmlns="&ns_svg;" xmlns:xlink="&ns_xlink;" xmlns:a="http://ns.adobe.com/AdobeSVGViewerExtensions/3.0/"
	 width="52" height="39" viewBox="-0.94 -0.78 52 39" enable-background="new -0.94 -0.78 52 39" xml:space="preserve">
<defs>
</defs>
<path fill="#FFFFFF" d="M32,11.05V0H19v11.05C8.4,11.56,0,17.39,0,24.5V38h6h39h6V24.5C51,17.39,42.6,11.56,32,11.05z M27.06,1
	c0,1-0.78,1.74-1.74,1.74S23.58,2,23.58,1H27.06z M20,11V1h2.42c0,1,1.3,2.9,2.9,2.9s2.9-1.9,2.9-2.9H31v10h-0.5h-10H20z M7,37v-7
	h37v7H7z M50,37h-5v-8H6v8H1V24.5C1,17.61,9.75,12,20.5,12h10C41.25,12,50,17.61,50,24.5V37z"/>
<rect x="6" y="23" fill="#FFFFFF" width="38" height="1"/>
<path fill="#FFFFFF" d="M41.33,18.33c1.25,0,2.17-0.53,2.17-1.25s-0.91-1.25-2.17-1.25s-2.17,0.53-2.17,1.25
	S40.08,18.33,41.33,18.33z M41.33,16.83c0.59,0,0.96,0.15,1.11,0.25c-0.15,0.1-0.52,0.25-1.11,0.25s-0.96-0.15-1.11-0.25
	C40.37,16.98,40.74,16.83,41.33,16.83z"/>
</svg>
