<?xml version="1.0" encoding="utf-8"?>
<!-- Generator: Adobe Illustrator 12.0.0, SVG Export Plug-In  -->
<!DOCTYPE svg PUBLIC "-//W3C//DTD SVG 1.1//EN" "http://www.w3.org/Graphics/SVG/1.1/DTD/svg11.dtd" [
	<!ENTITY ns_flows "http://ns.adobe.com/Flows/1.0/">
	<!ENTITY ns_svg "http://www.w3.org/2000/svg">
	<!ENTITY ns_xlink "http://www.w3.org/1999/xlink">
]>
<svg  version="1.1" xmlns="&ns_svg;" xmlns:xlink="&ns_xlink;" xmlns:a="http://ns.adobe.com/AdobeSVGViewerExtensions/3.0/"
	 width="18" height="13" viewBox="-0.33 -0.18 18 13" enable-background="new -0.33 -0.18 18 13" xml:space="preserve">
<defs>
</defs>
<path fill="#111211" d="M15.6,3.33c0,0.09-0.12,0.49-0.12,0.58c0,0.12,0.1,0.21,0.35,0.23c0.33,0.03,0.94,0.4,0.94,1.05
	c0,0.4-0.11,0.68-0.19,0.84c-0.05,0.07-0.07,0.14-0.07,0.19c0,0.07,0.04,0.14,0.09,0.21c0.16,0.19,0.61,0.51,0.61,1.22
	c0,0.73-0.86,1.45-0.86,1.69c0,0.31,0.26,0.23,0.26,0.57c0,0.91-1.95,2.25-4.14,2.25c-2.27,0-3.02-0.82-3.25-1.06
	c-0.16-0.19-0.37-0.28-0.58-0.28s-0.42,0.07-0.61,0.24c-0.3,0.24-1.94,1.1-3.18,1.1c-3.04,0-4.82-1.92-4.82-2.56
	c0-0.4,0.42-0.31,0.42-0.66C0.47,8.65,0,8.36,0,7.57c0-0.82,0.37-1.13,0.66-1.31c0.09-0.05,0.12-0.1,0.12-0.19
	c0-0.05-0.04-0.12-0.09-0.19C0.61,5.79,0.44,5.39,0.44,4.97c0-0.7,0.56-0.98,1-1.05C1.73,3.87,1.8,3.73,1.8,3.38
	c0-1.57,0.84-1.57,1.45-1.57c0.12,0,0.25-0.02,0.37-0.07c0.35-0.17,0.37-0.52,0.5-0.73C4.35,0.7,4.75,0.4,5.38,0.4
	c0.49,0,0.85,0.23,1.15,0.42c0.1,0.07,0.19,0.1,0.3,0.1s0.21-0.05,0.3-0.16C7.35,0.49,7.78,0,8.67,0c0.94,0,1.28,0.38,1.55,0.77
	c0.1,0.16,0.24,0.21,0.37,0.21c0.1,0,0.19-0.03,0.26-0.09c0.19-0.16,0.58-0.42,1.12-0.42c0.71,0,1.2,0.54,1.34,1.12
	c0.04,0.16,0.17,0.24,0.33,0.24C14.83,1.73,15.6,2.55,15.6,3.33z M13.49,8.92c-0.52,0.33-1.05,0.68-1.05,0.73
	c0,0.1,0.21,0.16,0.35,0.16c2.18,0,3.63-1.4,3.63-2.02c0-0.25-0.24-0.47-0.52-0.47c-0.21,0-0.45,0.12-0.73,0.35
	C14.75,8.04,14,8.58,13.49,8.92z M13.65,6.95c0,0.19,0.09,0.56,0.4,0.56c0.66,0,1.97-1.36,1.97-2.15c0-0.4-0.38-0.52-0.63-0.52
	c-0.23,0-0.49,0.1-0.71,0.33C14.13,5.74,13.65,6.28,13.65,6.95z M10.96,8.39c-0.12,0.05-0.19,0.19-0.19,0.31
	c0,0.3,0.4,0.45,0.73,0.45c0.47,0,1.38-0.42,1.36-1.46c-0.02-1-0.65-1.48-1.62-1.48S9.09,6.98,9.09,8.6c0,2.76,3.02,2.86,3.28,2.86
	c2.18,0,3.33-1.2,3.33-1.4c0-0.12-0.12-0.23-0.26-0.23c-0.05,0-0.11,0-0.16,0.03c-1.22,0.8-2.32,0.8-2.88,0.8
	c-0.07,0-2.57-0.07-2.57-2.06c0-0.84,0.77-1.5,1.55-1.5c0.38,0,0.68,0.11,0.68,0.54c0,0.4-0.35,0.52-0.52,0.59
	C11.34,8.34,11.17,8.32,10.96,8.39z M12.48,5.15c0,0.61,0.5,0.68,0.63,0.68c0.72,0,1.8-1.95,1.8-2.5c0-0.54-0.66-0.79-0.94-0.79
	c-0.21,0-0.4,0.07-0.58,0.28C13.03,3.19,12.48,4.73,12.48,5.15z M10.19,4.85c0,0.33,0.04,0.68,0.42,0.68c1.33,0,2.07-3.3,2.07-3.47
	c0-0.45-0.31-0.77-0.8-0.77c-0.38,0-0.7,0.28-0.89,0.58C10.5,2.62,10.19,3.96,10.19,4.85z M8.67,0.82c-0.79,0-1.15,0.94-1.15,1.67
	c0,1.19,0.49,3.96,1.13,3.96c0.82,0,1.19-3.28,1.19-3.94c0-0.19-0.02-0.37-0.05-0.49C9.67,1.55,9.34,0.82,8.67,0.82z M1.15,9.53
	c-0.12,0-0.21,0.09-0.21,0.19c0,0.31,1.97,1.67,3.99,1.67c0.49,0,3.28-0.37,3.28-2.81c0-1.43-0.85-2.32-2.02-2.32
	c-0.98,0-1.87,0.63-1.87,1.47c0,0.94,0.75,1.36,1.26,1.36c0.33,0,0.85-0.19,0.85-0.49c0-0.12-0.03-0.26-0.19-0.26
	c-0.09,0-0.35,0.18-0.42,0.18c-0.12,0-0.59-0.16-0.59-0.58c0-0.24,0.28-0.77,0.96-0.77c0.24,0,1.15,0.17,1.15,1.17
	c0,1.73-1.69,2.3-2.48,2.3c-0.58,0-1.33-0.09-1.94-0.31c-0.56-0.21-1.36-0.65-1.66-0.77C1.24,9.53,1.19,9.53,1.15,9.53z M6.74,5.43
	c0.23,0,0.42-0.12,0.42-0.38c0-0.11-0.19-3.84-1.69-3.84c-0.07,0-0.8,0.07-0.8,0.87C4.66,2.74,5.71,5.43,6.74,5.43z M2.57,3.31
	c0,0.91,1.24,2.56,1.9,2.56c0.26,0,0.66-0.26,0.66-0.59c0-0.1-0.63-1.34-0.68-1.45C3.93,2.79,3.8,2.55,3.16,2.55
	c-0.09,0-0.17,0.02-0.24,0.05C2.69,2.74,2.57,2.95,2.57,3.31z M1.12,7.1c-0.29,0-0.49,0.4-0.49,0.65c0,1.24,3.04,2.04,3.8,2.04
	c0.14,0,0.23-0.05,0.23-0.12c0-0.07-0.7-0.56-0.91-0.68C3.37,8.72,1.62,7.1,1.12,7.1z M1.75,4.52c-0.46,0-0.58,0.44-0.58,0.73
	c0,0.75,1.17,2.04,1.99,2.04c0.37,0,0.63-0.32,0.63-0.59c0-0.3-1.27-1.92-1.45-2.02C2.18,4.59,1.95,4.52,1.75,4.52z"/>
</svg>
