<?xml version="1.0" encoding="utf-8"?>
<!-- Generator: Adobe Illustrator 12.0.0, SVG Export Plug-In  -->
<!DOCTYPE svg PUBLIC "-//W3C//DTD SVG 1.1//EN" "http://www.w3.org/Graphics/SVG/1.1/DTD/svg11.dtd" [
	<!ENTITY ns_flows "http://ns.adobe.com/Flows/1.0/">
	<!ENTITY ns_svg "http://www.w3.org/2000/svg">
	<!ENTITY ns_xlink "http://www.w3.org/1999/xlink">
]>
<svg  version="1.1" xmlns="&ns_svg;" xmlns:xlink="&ns_xlink;" xmlns:a="http://ns.adobe.com/AdobeSVGViewerExtensions/3.0/"
	 width="108" height="36" viewBox="-0.27 -0.55 108 36" enable-background="new -0.27 -0.55 108 36" xml:space="preserve">
<defs>
</defs>
<path d="M0,2.41c1.64-0.62,3.3-1.13,4.98-1.53c1.68-0.4,3.4-0.66,5.16-0.78c2-0.14,4.04-0.14,6.13,0c2.09,0.14,4.09,0.52,6.01,1.13
	c1.92,0.61,3.7,1.51,5.33,2.7s3,2.75,4.1,4.69c1.16,2.08,1.75,4.07,1.78,5.97c0.03,1.9-0.35,3.67-1.14,5.31
	c-0.79,1.64-1.91,3.16-3.34,4.54c-1.44,1.39-3.03,2.62-4.77,3.68s-3.56,1.96-5.46,2.7c-1.9,0.74-3.7,1.28-5.4,1.62l0.63,2.7
	c-0.14,0.04-0.28,0.07-0.42,0.1c-0.14,0.03-0.29,0.06-0.45,0.1l-0.66-2.66c-0.76,0.02-1.68,0-2.76-0.08s-2.18-0.2-3.29-0.39
	c-1.11-0.19-2.16-0.45-3.15-0.77c-0.99-0.32-1.76-0.72-2.32-1.2c-0.12-0.12-0.23-0.29-0.35-0.51c-0.11-0.22-0.17-0.47-0.19-0.73
	c-0.02-0.27,0.03-0.54,0.15-0.81c0.12-0.27,0.34-0.5,0.66-0.71c0.6-0.38,1.29-0.72,2.08-1.03s1.62-0.6,2.49-0.85
	c0.87-0.26,1.76-0.49,2.67-0.67c0.91-0.19,1.79-0.34,2.63-0.46c-0.18-1.92-0.35-3.87-0.51-5.83c-0.16-1.97-0.38-3.93-0.65-5.88
	C9.68,10.8,9.32,8.87,8.88,6.97S7.83,3.23,7.05,1.45l0.33-0.12L5.4,1.69c-0.02,0-0.19,0.05-0.5,0.14C4.59,1.92,4.2,2.03,3.72,2.16
	C3.24,2.29,2.7,2.45,2.11,2.64S0.94,3.02,0.36,3.22L0,2.41z M11.43,27.7c-0.04-0.4-0.08-0.79-0.12-1.17
	c-0.04-0.38-0.08-0.77-0.12-1.17c-0.8,0.12-1.65,0.25-2.54,0.39c-0.89,0.14-1.76,0.31-2.61,0.52s-1.65,0.46-2.39,0.77
	c-0.74,0.3-1.35,0.67-1.83,1.11c-0.42,0.42-0.54,0.79-0.36,1.11c0.18,0.32,0.48,0.59,0.92,0.81c0.43,0.22,0.9,0.41,1.42,0.56
	c0.52,0.15,0.92,0.25,1.2,0.31c1.2,0.28,2.4,0.5,3.61,0.68c1.21,0.17,2.41,0.2,3.61,0.1c-0.16-0.66-0.31-1.33-0.45-2
	S11.53,28.38,11.43,27.7z M12.3,27.49c0.1,0.7,0.22,1.39,0.36,2.07c0.14,0.68,0.3,1.37,0.48,2.07c1.56-0.34,3.22-0.83,5-1.47
	c1.77-0.64,3.48-1.44,5.14-2.39s3.19-2.05,4.59-3.3c1.4-1.25,2.51-2.64,3.33-4.17c0.82-1.53,1.27-3.2,1.35-5.01
	c0.08-1.81-0.36-3.77-1.32-5.87c-0.62-1.32-1.44-2.47-2.45-3.45c-1.01-0.98-2.15-1.8-3.42-2.46c-1.27-0.66-2.63-1.18-4.09-1.58
	c-1.46-0.39-2.95-0.66-4.47-0.82c-1.52-0.16-3.04-0.22-4.55-0.18S9.31,1.09,7.95,1.27C8.71,3.05,9.31,4.89,9.77,6.8
	c0.45,1.91,0.81,3.84,1.08,5.8c0.27,1.96,0.48,3.93,0.63,5.9c0.15,1.97,0.31,3.92,0.5,5.83l1.05-0.18l0.12,0.9l-1.08,0.18
	L12.3,27.49z"/>
<path d="M39.75,13.17c-0.18,0.1-0.37,0.19-0.55,0.27c-0.19,0.08-0.37,0.19-0.53,0.33c-0.48,0.4-0.97,1.01-1.48,1.82
	c-0.51,0.81-0.94,1.68-1.29,2.61c-0.35,0.93-0.56,1.85-0.65,2.75s0.08,1.65,0.48,2.25c0.1,0.16,0.22,0.28,0.37,0.36
	s0.3,0.17,0.44,0.27c0.32-0.04,0.66-0.2,1-0.46c0.35-0.27,0.7-0.61,1.04-1.02s0.67-0.88,0.99-1.4c0.32-0.52,0.62-1.06,0.9-1.62
	c-0.04-0.2-0.07-0.4-0.09-0.6c-0.02-0.2-0.04-0.4-0.06-0.6c-0.04-0.32-0.08-0.7-0.11-1.15c-0.03-0.45-0.02-0.9,0.02-1.35
	s0.13-0.87,0.28-1.26s0.38-0.69,0.68-0.89c0.14-0.08,0.29-0.1,0.45-0.06c0.46,0.22,0.75,0.53,0.89,0.93
	c0.13,0.4,0.17,0.83,0.12,1.28c-0.05,0.45-0.17,0.91-0.35,1.38c-0.18,0.47-0.34,0.9-0.48,1.28l-0.48,1.11
	c0.28,1.78,0.77,3.5,1.47,5.16c0.7,1.66,1.61,3.2,2.73,4.62l-0.75,0.54c-1.08-1.36-1.94-2.79-2.58-4.29
	c-0.64-1.5-1.13-3.06-1.47-4.68c-0.4,0.76-0.86,1.49-1.38,2.19c-0.52,0.7-1.11,1.24-1.77,1.62c-0.42,0.26-0.8,0.37-1.14,0.32
	c-0.34-0.05-0.63-0.2-0.88-0.44c-0.25-0.24-0.46-0.54-0.63-0.92c-0.17-0.37-0.29-0.76-0.38-1.17s-0.13-0.81-0.14-1.2
	c-0.01-0.39,0.02-0.71,0.08-0.97c0.14-0.6,0.24-1.03,0.3-1.29c0.06-0.26,0.12-0.49,0.18-0.68c0.06-0.19,0.14-0.41,0.25-0.66
	c0.11-0.25,0.28-0.67,0.52-1.25c0.36-0.86,0.83-1.61,1.43-2.25c0.59-0.64,1.27-1.19,2.05-1.65L39.75,13.17z M41.52,14.35
	c-0.1,0.02-0.18,0.16-0.23,0.42c-0.05,0.26-0.08,0.56-0.1,0.92c-0.02,0.35-0.03,0.71-0.03,1.06c0,0.36,0,0.65,0,0.87
	c0.22-0.66,0.38-1.27,0.46-1.84c0.09-0.57,0.08-1.04-0.04-1.4C41.58,14.36,41.56,14.35,41.52,14.35z M41.16,17.59v0.06v0.03V17.59z
	 M41.16,17.89c0.02,0.04,0.03,0.04,0.03-0.01c0-0.05-0.01-0.11-0.03-0.17c0.02,0.04,0.02,0.07,0.01,0.1
	C41.16,17.84,41.16,17.87,41.16,17.89z"/>
<path d="M42.42,14.65c0,0.02,0,0.03-0.02,0.03c-0.01,0,0-0.02,0.02-0.06V14.65z M46.74,25.77c-0.16-0.24-0.3-0.73-0.42-1.48
	s-0.23-1.6-0.35-2.54c-0.11-0.94-0.23-1.9-0.38-2.88c-0.14-0.98-0.31-1.83-0.52-2.55s-0.47-1.23-0.77-1.53
	c-0.3-0.3-0.68-0.24-1.14,0.18l-0.75-0.33c0.66-0.68,1.22-0.99,1.7-0.93c0.47,0.06,0.86,0.35,1.18,0.87
	c0.32,0.52,0.58,1.21,0.78,2.05c0.2,0.85,0.37,1.73,0.51,2.64c0.14,0.91,0.25,1.78,0.33,2.61s0.17,1.49,0.27,1.96
	c0.3-1.34,0.57-2.69,0.82-4.06s0.53-2.74,0.83-4.1s0.65-2.7,1.05-4.02c0.4-1.32,0.91-2.61,1.53-3.87l0.81,0.36
	c-0.66,1.38-1.2,2.79-1.62,4.24c-0.42,1.45-0.79,2.92-1.11,4.4c-0.32,1.48-0.63,2.97-0.92,4.47s-0.63,2.98-1,4.44
	c-0.1,0.16-0.23,0.25-0.39,0.27C47.03,26,46.88,25.93,46.74,25.77z"/>
<path d="M53.94,11.71c0.16,0.68,0.2,1.49,0.12,2.42c-0.08,0.93-0.21,1.91-0.38,2.92c-0.17,1.02-0.33,2.04-0.49,3.05
	c-0.16,1.01-0.23,1.94-0.23,2.81c0.01,0.86,0.14,1.59,0.39,2.19c0.25,0.6,0.71,1,1.4,1.2l-0.18,0.87c-0.86-0.1-1.47-0.45-1.83-1.04
	c-0.36-0.59-0.57-1.33-0.62-2.22c-0.05-0.89,0-1.88,0.15-2.99c0.15-1.1,0.31-2.2,0.5-3.3c0.18-1.1,0.31-2.15,0.4-3.15
	s0.04-1.86-0.13-2.58L53.94,11.71z M52.71,8.38c0.34-0.06,0.61-0.18,0.81-0.36l0.54,0.72c-0.18,0.08-0.35,0.18-0.51,0.29
	c-0.16,0.11-0.35,0.19-0.57,0.23L52.71,8.38z"/>
<path d="M55.93,21.52c-0.04-0.98,0.06-1.93,0.3-2.86s0.61-1.77,1.13-2.52s1.17-1.36,1.97-1.83c0.8-0.47,1.74-0.73,2.82-0.79
	l-0.15-2.61c-0.02-0.42-0.04-0.96-0.08-1.62c-0.03-0.66-0.05-1.35-0.08-2.07c-0.02-0.72-0.02-1.42-0.01-2.1
	c0.01-0.68,0.04-1.25,0.1-1.71c0.04-0.34,0.1-0.69,0.18-1.06s0.27-0.63,0.57-0.79c0.28-0.14,0.55-0.12,0.81,0.06
	c0.26,0.18,0.5,0.44,0.73,0.78s0.44,0.74,0.63,1.19s0.35,0.88,0.48,1.29s0.24,0.77,0.32,1.08s0.13,0.5,0.15,0.58
	c0.06,0.28,0.11,0.56,0.15,0.84s0.08,0.56,0.12,0.84c0.14,0.98,0.18,1.97,0.12,2.98c-0.06,1.01-0.21,2.01-0.44,3
	c-0.23,0.99-0.52,1.96-0.88,2.91c-0.36,0.95-0.76,1.88-1.2,2.78c0.22,1.84,0.53,3.63,0.92,5.38c0.39,1.75,0.91,3.38,1.54,4.88
	l-0.84,0.33c-0.58-1.38-1.05-2.85-1.42-4.41c-0.37-1.56-0.68-3.16-0.92-4.8c-0.22,0.36-0.46,0.73-0.74,1.11
	c-0.27,0.38-0.58,0.73-0.92,1.05c-0.34,0.32-0.71,0.59-1.09,0.82c-0.39,0.23-0.8,0.39-1.25,0.47c-0.42,0.06-0.81,0-1.17-0.18
	c-0.36-0.18-0.67-0.43-0.94-0.75c-0.27-0.32-0.48-0.68-0.65-1.08S55.95,21.9,55.93,21.52z M62.73,19.81
	c-0.1-0.9-0.19-1.78-0.27-2.64c-0.08-0.86-0.16-1.71-0.24-2.55c-0.22-0.16-0.48-0.23-0.77-0.19s-0.57,0.1-0.85,0.22
	c-0.88,0.44-1.66,1.11-2.34,2c-0.68,0.89-1.13,1.83-1.35,2.81c-0.14,0.64-0.17,1.28-0.1,1.92c0.07,0.64,0.24,1.18,0.51,1.6
	c0.27,0.43,0.64,0.7,1.11,0.79c0.47,0.1,1.02-0.08,1.67-0.54c0.6-0.4,1.11-0.9,1.53-1.51C62.04,21.1,62.41,20.47,62.73,19.81z
	 M62.88,10.84c0,0.1,0.02,0.42,0.06,0.97c0.04,0.55,0.09,1.19,0.15,1.92c0.06,0.73,0.12,1.5,0.18,2.31
	c0.06,0.81,0.12,1.51,0.18,2.11c0.28-0.52,0.54-1.11,0.77-1.77s0.43-1.35,0.59-2.07c0.16-0.72,0.28-1.44,0.36-2.17
	c0.08-0.73,0.12-1.42,0.12-2.05c0-0.44-0.04-1.02-0.14-1.74c-0.09-0.72-0.22-1.46-0.39-2.21s-0.39-1.46-0.65-2.12
	c-0.26-0.66-0.56-1.16-0.9-1.5l-0.06-0.06c-0.34,1.38-0.5,2.76-0.47,4.14C62.72,7.99,62.78,9.4,62.88,10.84z"/>
<path d="M72.42,13.21c1.4,0.8,2.42,1.71,3.06,2.72c0.64,1.01,0.99,2.03,1.06,3.06c0.07,1.03-0.1,2.02-0.51,2.96
	s-0.96,1.74-1.67,2.38c-0.7,0.65-1.5,1.09-2.4,1.33s-1.81,0.17-2.73-0.21c-0.7-0.28-1.21-0.75-1.52-1.42s-0.47-1.45-0.48-2.33
	c-0.01-0.88,0.11-1.82,0.36-2.82s0.58-1.98,1-2.93c0.42-0.95,0.9-1.82,1.46-2.61c0.55-0.79,1.13-1.43,1.72-1.91l0.63,0.72
	c-0.42,0.2-0.86,0.62-1.33,1.26c-0.47,0.64-0.9,1.38-1.3,2.22c-0.4,0.84-0.75,1.74-1.04,2.7s-0.47,1.86-0.54,2.72
	c-0.07,0.85,0,1.59,0.21,2.23c0.21,0.64,0.61,1.07,1.19,1.29c0.92,0.32,1.76,0.36,2.53,0.11s1.42-0.68,1.94-1.29
	c0.52-0.61,0.91-1.35,1.16-2.21s0.3-1.74,0.16-2.64c-0.14-0.9-0.5-1.76-1.06-2.58c-0.57-0.82-1.4-1.51-2.47-2.07L72.42,13.21z"/>
<path d="M86.12,11.53c-0.5,0.12-1.09,0.31-1.76,0.56s-1.32,0.54-1.95,0.87c-0.63,0.33-1.19,0.68-1.67,1.06s-0.77,0.76-0.87,1.14
	c0.38,0.26,0.85,0.47,1.41,0.61c0.56,0.15,1.15,0.28,1.78,0.39s1.27,0.22,1.91,0.31c0.64,0.1,1.23,0.24,1.79,0.42
	c0.55,0.18,1.03,0.41,1.44,0.69c0.41,0.28,0.69,0.66,0.85,1.14v0.03l2.82-0.57l0.12,0.9c-0.46,0.1-0.93,0.19-1.41,0.28
	c-0.48,0.09-0.95,0.19-1.41,0.29c-0.04,0.7-0.35,1.36-0.92,1.98c-0.57,0.62-1.24,1.17-2.01,1.67c-0.77,0.49-1.56,0.92-2.36,1.27
	s-1.44,0.63-1.92,0.81c-0.26,0.1-0.57,0.21-0.93,0.33c-0.36,0.12-0.74,0.22-1.13,0.3c-0.39,0.08-0.78,0.12-1.17,0.12
	c-0.39,0-0.74-0.06-1.04-0.18c-0.78-0.36-1.15-0.77-1.1-1.23c0.05-0.46,0.36-0.93,0.93-1.42c0.57-0.49,1.33-0.98,2.26-1.47
	c0.94-0.49,1.92-0.93,2.94-1.32c1.02-0.39,2-0.72,2.96-1c0.95-0.28,1.72-0.46,2.32-0.54c-0.32-0.44-0.75-0.78-1.27-1
	c-0.53-0.23-1.11-0.41-1.73-0.54c-0.62-0.13-1.25-0.23-1.89-0.3s-1.24-0.15-1.8-0.25c-0.56-0.1-1.04-0.23-1.46-0.4
	s-0.69-0.44-0.83-0.79c-0.3-0.6-0.25-1.16,0.17-1.68s0.99-0.99,1.73-1.43c0.74-0.43,1.56-0.8,2.46-1.11s1.68-0.56,2.34-0.73
	L86.12,11.53z M81.68,24.52c0.28-0.1,0.63-0.24,1.05-0.42c0.42-0.18,0.87-0.4,1.33-0.65s0.95-0.52,1.42-0.81
	c0.48-0.29,0.92-0.6,1.31-0.93s0.72-0.67,0.98-1s0.4-0.68,0.42-1.02c-0.48,0.16-1.06,0.33-1.74,0.53c-0.68,0.19-1.39,0.4-2.14,0.63
	s-1.5,0.49-2.27,0.78s-1.47,0.61-2.13,0.97c-0.9,0.48-1.51,0.92-1.83,1.33s-0.39,0.72-0.21,0.93c0.18,0.21,0.6,0.3,1.24,0.27
	C79.77,25.1,80.62,24.9,81.68,24.52z"/>
<path d="M104.46,26.47c-0.52-0.6-1.13-1.33-1.83-2.17c-0.7-0.85-1.39-1.67-2.06-2.48s-1.26-1.48-1.77-2.04s-0.83-0.84-0.97-0.84
	c-0.1,0-0.35,0.11-0.74,0.33c-0.39,0.22-0.85,0.5-1.38,0.83s-1.09,0.69-1.68,1.08c-0.59,0.39-1.14,0.74-1.65,1.05
	c-0.51,0.31-0.94,0.57-1.27,0.77c-0.34,0.2-0.52,0.28-0.54,0.24l-0.3-0.12c-0.1-0.14-0.05-0.43,0.15-0.87s0.47-0.94,0.81-1.52
	c0.34-0.57,0.73-1.17,1.15-1.8c0.43-0.63,0.83-1.21,1.2-1.74c0.37-0.53,0.8-1.13,1.3-1.81c-0.02-0.02-0.14-0.11-0.36-0.28
	s-0.49-0.38-0.81-0.65c-0.32-0.26-0.65-0.54-1-0.84c-0.35-0.3-0.67-0.58-0.96-0.85c-0.29-0.27-0.52-0.51-0.69-0.72
	s-0.22-0.35-0.14-0.41c0.04-0.06,0.21-0.09,0.53-0.09c0.31,0,0.68,0.02,1.13,0.04c0.44,0.03,0.9,0.07,1.39,0.14
	c0.49,0.06,0.95,0.11,1.37,0.15s0.77,0.06,1.05,0.07c0.28,0.01,0.42,0,0.42-0.04c0.4-1.26,0.73-2.22,1-2.89s0.48-1.16,0.65-1.46
	c0.18-0.36,0.31-0.55,0.39-0.57c0.08,0,0.17,0.13,0.27,0.38c0.1,0.25,0.21,0.57,0.33,0.96c0.12,0.39,0.24,0.81,0.38,1.26
	c0.13,0.45,0.25,0.87,0.38,1.25c0.12,0.38,0.23,0.7,0.33,0.96c0.1,0.26,0.19,0.38,0.27,0.36c0.08,0.06,0.29,0.09,0.62,0.1
	s0.72,0,1.17-0.02s0.92-0.05,1.42-0.09s0.96-0.07,1.4-0.09c0.43-0.02,0.79-0.03,1.08-0.02s0.44,0.04,0.47,0.1
	c0.06,0.04-0.02,0.16-0.23,0.34c-0.21,0.19-0.49,0.42-0.84,0.68s-0.74,0.54-1.17,0.84c-0.43,0.3-0.83,0.59-1.21,0.87
	s-0.71,0.53-0.99,0.77c-0.28,0.23-0.44,0.39-0.48,0.5c-0.06,0.1-0.05,0.39,0.03,0.87s0.19,1.04,0.32,1.67
	c0.13,0.63,0.27,1.28,0.42,1.95c0.15,0.67,0.27,1.24,0.38,1.73l-0.9,0.06l-1.38-6.78c0.02-0.1,0.14-0.23,0.35-0.38
	s0.47-0.32,0.77-0.51c0.3-0.19,0.63-0.38,0.97-0.58c0.35-0.2,0.67-0.39,0.96-0.57s0.52-0.33,0.69-0.47
	c0.17-0.13,0.25-0.21,0.22-0.25c0-0.08-0.22-0.09-0.66-0.04c-0.44,0.05-0.94,0.12-1.48,0.21c-0.55,0.09-1.08,0.16-1.61,0.21
	c-0.52,0.05-0.87,0.04-1.05-0.04c-0.06,0-0.14-0.2-0.24-0.6c-0.1-0.4-0.21-0.85-0.31-1.35c-0.11-0.5-0.23-0.96-0.35-1.38
	c-0.12-0.42-0.24-0.65-0.36-0.69c-0.08-0.02-0.2,0.17-0.36,0.56s-0.34,0.83-0.54,1.32c-0.2,0.49-0.39,0.94-0.57,1.36
	s-0.33,0.64-0.45,0.66c0,0.06-0.19,0.06-0.56,0c-0.37-0.06-0.79-0.13-1.25-0.19s-0.89-0.13-1.29-0.19s-0.62-0.06-0.66,0
	c-0.06,0.08,0.06,0.24,0.36,0.48c0.3,0.24,0.64,0.5,1.02,0.78c0.38,0.28,0.73,0.54,1.06,0.78s0.5,0.39,0.5,0.45
	c-0.06,0.16-0.22,0.42-0.47,0.76c-0.25,0.35-0.54,0.75-0.85,1.19c-0.32,0.44-0.66,0.9-1.01,1.38s-0.67,0.93-0.94,1.34
	c-0.28,0.41-0.5,0.75-0.65,1.03c-0.15,0.28-0.19,0.44-0.13,0.48l6-3.48c0.12,0.12,0.35,0.38,0.71,0.77s0.76,0.84,1.23,1.37
	c0.47,0.52,0.97,1.08,1.48,1.68c0.52,0.6,1.02,1.17,1.49,1.71c0.47,0.54,0.88,1.02,1.25,1.46c0.36,0.43,0.62,0.74,0.78,0.94
	L104.46,26.47z"/>
</svg>
