<?xml version="1.0" encoding="utf-8"?>
<!-- Generator: Adobe Illustrator 12.0.0, SVG Export Plug-In  -->
<!DOCTYPE svg PUBLIC "-//W3C//DTD SVG 1.1//EN" "http://www.w3.org/Graphics/SVG/1.1/DTD/svg11.dtd" [
	<!ENTITY ns_flows "http://ns.adobe.com/Flows/1.0/">
	<!ENTITY ns_svg "http://www.w3.org/2000/svg">
	<!ENTITY ns_xlink "http://www.w3.org/1999/xlink">
]>
<svg  version="1.1" xmlns="&ns_svg;" xmlns:xlink="&ns_xlink;" xmlns:a="http://ns.adobe.com/AdobeSVGViewerExtensions/3.0/"
	 width="145" height="107" viewBox="-0.08 -0.32 145 107" enable-background="new -0.08 -0.32 145 107" xml:space="preserve">
<defs>
</defs>
<g>
	<g>
		<path fill="#414141" d="M29.79,56.53c0,0.26-0.07,0.58-0.19,0.9c0,0-7.13,20.8-10.27,29.98C16.31,96.21,10.85,98.84,7,98.84
			c-0.64,0-1.29-0.13-1.29-0.71c0-0.51,0.52-0.83,1.48-1.09c1.8-0.58,4.43-2.38,5.52-5.52l11.56-33.58
			c-3.34-1.54-7.77-3.21-10.46-3.21c-5.01,0-9.7,2.7-9.7,9.25c0,4.49,3.28,8.09,7.06,8.09c0.9,0,1.41,0.45,1.41,1.03
			c0,0.83-1.28,1.93-4.62,1.93C3.21,75.02,0,71.49,0,65.91c0-5.07,4.04-13.48,15.79-13.48c4.17,0,10.59,1.86,13.42,3.15
			C29.53,55.7,29.79,56.02,29.79,56.53z M45.84,85.55c0.45,0,0.77,0.19,0.77,0.71c0,0.39-0.32,0.96-0.96,1.73
			c-3.53,4.17-7.06,6.29-9.31,6.29c-2.31,0-3.4-1.41-3.4-3.53c-0.06-0.71,0.13-1.54,0.39-2.44c1.35-4.81,3.47-7.7,3.47-8.67
			c0-0.19-0.13-0.32-0.32-0.32c-1.35,0-7.19,5.14-8.35,8.54l-1.09,3.15c-0.71,1.99-2.76,3.27-4.11,3.27c-0.64,0-1.09-0.32-1.09-1.03
			c0-0.26,0.06-0.58,0.19-0.96L33.9,57.69c0.13-0.38,0.26-0.71,0.26-0.9c0-0.13-0.06-0.26-0.26-0.26c-0.13,0-0.51,0.13-0.71,0.13
			c-0.45,0-0.77-0.19-0.77-0.64c0-0.45,0.45-1.03,1.28-1.73c1.09-0.9,2.83-1.86,4.94-1.86c0.64,0,1.09,0.38,1.09,1.09
			c0,0.26-0.13,0.9-0.38,1.61l-8.93,26.07c3.15-3.53,7.71-6.1,10.21-6.1c1.09,0,1.8,0.51,1.8,1.67c0,0.71-0.26,1.73-0.83,2.95
			c-1.22,2.57-2.82,6.16-3.79,9.5c-0.13,0.45-0.19,0.9-0.19,1.22c0,0.51,0.13,0.9,0.58,0.9c1.03,0,3.47-1.67,6.55-5.26
			C45.07,85.74,45.46,85.55,45.84,85.55z"/>
		<path fill="#414141" d="M56.56,94.28c-1.93,0-2.89-1.03-3.08-2.57c-1.48,1.67-3.27,2.57-5.07,2.57c-2.95,0-5.46-2.5-5.46-5.84
			c0-5.84,5.97-13.42,13.55-13.42c3.21,0,5.71,1.28,5.71,3.85c0,3.21-2.83,3.85-3.85,3.85c-0.9,0-2.31-0.26-2.31-1.09
			c0-0.9,1.99-0.38,1.99-2.44c0-1.28-1.29-1.73-2.57-1.73c-4.62,0-7.96,6.42-7.96,10.4c0,1.8,0.71,3.6,2.38,3.6
			c1.35,0,3.53-1.93,4.62-4.75c0.71-1.93,2.7-3.21,4.05-3.21c0.71,0,1.15,0.32,1.15,1.03c0,0.26-0.06,0.58-0.19,0.96
			c-0.25,0.83-1.6,4.69-1.6,5.26c0,0.32,0.13,0.58,0.51,0.58c0.96,0,3.47-1.67,6.55-5.26c0.26-0.32,0.71-0.51,1.09-0.51
			s0.71,0.19,0.71,0.64c0,0.45-0.26,1.03-0.9,1.8C62.34,92.16,58.81,94.28,56.56,94.28z"/>
		<path fill="#414141" d="M78.52,90.43c0,0.51,0.13,0.9,0.58,0.9c1.03,0,3.47-1.67,6.55-5.26c0.32-0.32,0.71-0.51,1.09-0.51
			c0.45,0,0.77,0.19,0.77,0.71c0,0.39-0.32,0.96-0.96,1.73c-3.53,4.17-7.06,6.29-9.31,6.29c-2.31,0-3.4-1.41-3.4-3.53
			c0-0.71,0.13-1.54,0.38-2.44c1.35-4.75,3.47-7.7,3.47-8.6c0-0.26-0.13-0.38-0.32-0.38c-1.48,0-7.32,5.33-8.54,8.86l-0.96,2.83
			c-0.64,1.99-2.76,3.27-4.11,3.27c-0.64,0-1.09-0.32-1.09-1.03c0-0.26,0.07-0.58,0.19-0.96l4.11-12.01
			c0.13-0.38,0.26-0.71,0.26-0.9c0-0.13-0.06-0.26-0.26-0.26c-0.13,0-0.39,0.06-0.58,0.06c-0.45,0-0.9-0.19-0.9-0.64
			c0-1.03,3.08-3.53,6.23-3.53c0.64,0,1.09,0.32,1.09,1.09c0,0.26-0.07,0.58-0.19,0.96l-1.48,4.3c3.21-3.66,7.83-6.36,10.4-6.36
			c1.09,0,1.86,0.58,1.86,1.73c0,0.64-0.32,1.73-0.9,2.95c-1.22,2.5-2.82,6.23-3.79,9.5C78.58,89.66,78.52,90.11,78.52,90.43z"/>
		<path fill="#414141" d="M91.1,81.63l-0.32,1.35c4.88-6.1,8.54-7.9,10.72-7.9c1.8,0,2.7,1.09,2.7,2.06c0,5.14-7.45,9.63-7.45,9.63
			c-0.38,0.26-0.51,0.32-0.51,0.51s0.13,0.71,0.19,1.03c0.45,1.93,1.09,2.82,2.31,2.82c0.9,0,3.08-1.09,6.48-5.07
			c0.32-0.32,0.71-0.51,1.09-0.51c0.45,0,0.77,0.19,0.77,0.71c0,0.39-0.32,0.96-0.96,1.73c-3.4,3.98-7.06,6.29-9.37,6.29
			c-3.59,0-4.62-4.69-4.62-6.04c0-1.16,0.51-1.6,1.61-2.44c2.57-2.05,5.01-4.3,5.01-5.97c0-0.45-0.19-0.77-0.64-0.77
			c-0.19,0-0.45,0.06-0.71,0.19c-3.47,1.8-7.38,7.19-7.96,9.31l-0.64,2.44c-0.51,1.99-2.57,3.27-3.85,3.27
			c-0.71,0-1.22-0.32-1.22-1.16c0-0.26,0.06-0.51,0.13-0.83l5.26-18.81c3.15-11.36,9.69-20.99,12.52-21.06
			c0.9,0,1.48,0.96,1.48,3.08C103.11,64.3,97.2,74.57,91.1,81.63z M92.26,76.5c3.6-5.39,6.16-11.37,6.16-15.6
			c0-1.16-0.19-1.67-0.45-1.67c-1.03,0-3.4,6.1-5.07,14.19L92.26,76.5z"/>
		<path fill="#414141" d="M109.33,80.93c-0.71-1.03-1.29-2.31-1.29-3.66c0-3.79,4.3-7.06,7.06-7.06c1.16,0,1.99,0.58,1.99,1.99
			c0,1.99-2.12,4.82-3.59,6.68c1.86,2.31,4.3,5.01,4.3,8.03c0,0.32-0.06,1.16-0.19,1.61c1.67-0.06,2.7-0.58,4.3-2.44
			c0.26-0.32,0.71-0.51,1.09-0.51c0.38,0,0.71,0.19,0.71,0.64c0,0.45-0.26,1.03-0.9,1.8c-2.38,2.82-4.24,3.53-6.04,3.53
			c-0.19,0-0.58-0.06-0.58-0.06c-1.73,2.05-4.37,2.83-6.93,2.83c-2.31,0-4.43-1.28-4.43-2.89c0-1.73,2.38-3.34,6.74-3.34
			c0.71,0,1.61,0.06,2.25,0.13c-0.13-1.99-1.73-3.72-3.28-5.58l-4.43,5.39c-0.26,0.32-0.64,0.51-1.03,0.51
			c-0.45,0-0.77-0.19-0.77-0.71c0-0.39,0.26-0.96,0.9-1.73C106.38,84.72,107.99,82.66,109.33,80.93z M113.06,90.69
			c-1.03-0.26-1.99-0.51-3.02-0.51c-1.16,0-1.6,0.51-1.6,0.96c0,0.58,0.58,1.16,1.6,1.16C111.13,92.29,112.22,91.59,113.06,90.69z
			 M112.16,77.08c0.9-1.29,1.6-2.57,1.67-3.47c0-0.45-0.13-0.71-0.45-0.71c-0.64,0-1.8,1.09-1.8,2.25
			C111.58,75.86,111.71,76.24,112.16,77.08z"/>
		<path fill="#414141" d="M130.65,89.92c0,1.93-2.31,4.37-4.94,4.37c-1.35,0-2.44-0.77-2.44-2.12c0-2.05,2.31-4.36,4.94-4.36
			C129.49,87.8,130.65,88.51,130.65,89.92z M140.73,52.42c1.28,0,2.31,0.51,2.31,1.54c0,0.26-0.06,0.51-0.19,0.84l-11.17,27.74
			c-0.77,1.86-2.18,3.02-3.34,3.02c-0.51,0-0.96-0.32-0.96-1.09c0-0.26,0.06-0.64,0.19-1.03l8.03-27.99
			C136.11,53.58,138.74,52.42,140.73,52.42z"/>
		<path fill="#414141" d="M27.34,106.03c-0.45,0.32-0.77,0.45-1.03,0.45c-0.45,0-0.64-0.32-0.64-0.83c0-0.45,0.19-1.09,0.71-1.67
			c1.03-1.35,5.91-7.38,25.68-7.38c6.23,0,37.37,1.09,59.2,2.12c1.48,0.07,2.89,0.13,4.24,0.13c18.11,0,21.83-6.61,23.69-10.79
			c0.26-0.64,0.51-1.29,0.51-1.67c0-0.45-0.26-0.77-0.71-0.77c-0.58,0-1.54,0.71-2.89,2.38c-0.32,0.32-0.64,0.51-1.03,0.51
			c-0.45,0-0.77-0.19-0.77-0.71c0-0.39,0.26-0.96,0.9-1.73c2.12-2.5,4.04-3.53,5.58-3.53c2.12,0,3.15,1.22,3.15,3.08
			c0,0.9-0.26,1.99-0.77,3.14c-3.4,7.9-14.7,14.19-34.16,14.19c-0.64,0-1.35,0-1.99,0c-20.67-0.38-41.8-0.45-57.53-0.45
			C35.56,102.5,29.53,104.49,27.34,106.03z"/>
	</g>
</g>
<g>
	<g>
		<polygon fill="#414141" points="61.71,0 59.16,5.18 53.44,6.01 57.57,10.05 56.6,15.74 61.71,13.05 66.83,15.74 65.85,10.05 
			69.99,6.01 64.27,5.18 		"/>
		<polygon fill="#414141" points="86.84,30.03 83.49,23.23 80.14,30.03 72.64,31.12 78.06,36.4 76.78,43.87 83.49,40.35 90.2,43.87 
			88.92,36.4 94.34,31.12 		"/>
		<polygon fill="#414141" points="91.92,10.45 93.38,6.89 96.53,4.68 92.97,3.22 90.77,0.07 89.3,3.63 86.16,5.84 89.71,7.3 		"/>
		<polygon fill="#414141" points="62.3,20.42 61.5,23.28 59.28,25.25 62.13,26.06 64.11,28.28 64.92,25.42 67.14,23.45 64.28,22.64 
					"/>
		<polygon fill="#414141" points="60.42,30.72 59.08,34.79 55.01,36.13 59.08,37.47 60.42,41.53 61.76,37.47 65.83,36.13 
			61.76,34.79 		"/>
		<polygon fill="#414141" points="76.14,19.89 79.78,17.63 83.76,19.21 81.49,15.57 83.08,11.59 79.44,13.85 75.46,12.27 
			77.72,15.91 		"/>
	</g>
</g>
</svg>
