<?xml version="1.0" encoding="utf-8"?>
<!-- Generator: Adobe Illustrator 12.0.0, SVG Export Plug-In  -->
<!DOCTYPE svg PUBLIC "-//W3C//DTD SVG 1.1//EN" "http://www.w3.org/Graphics/SVG/1.1/DTD/svg11.dtd" [
	<!ENTITY ns_flows "http://ns.adobe.com/Flows/1.0/">
	<!ENTITY ns_svg "http://www.w3.org/2000/svg">
	<!ENTITY ns_xlink "http://www.w3.org/1999/xlink">
]>
<svg  version="1.1" xmlns="&ns_svg;" xmlns:xlink="&ns_xlink;" xmlns:a="http://ns.adobe.com/AdobeSVGViewerExtensions/3.0/"
	 width="19" height="10" viewBox="-0.674 -0.829 19 10" enable-background="new -0.674 -0.829 19 10" xml:space="preserve">
<defs>
</defs>
<path d="M13.396,8.53c-1.93-0.069-3.202-1.325-4.481-3.139c-0.129,0.05-0.262,0.07-0.409,0.071c-0.651-0.036-1.16-0.578-1.143-1.258
	C7.379,3.92,7.477,3.664,7.64,3.478C6.611,1.952,5.645,0.713,4.482,0.68c-0.31,0.001-0.438,0.117-0.439,0.27
	c0,0.12,0.047,0.324,0.096,0.51c0.035,0.117,0.165,0.438,0.165,0.797C4.303,2.731,3.927,3.038,3.045,3.29
	C1.507,3.749,0.97,4.155,0.967,5.613C0.968,7.257,2.373,7.969,3.11,7.986c0.441,0.016,0.688-0.238,0.688-0.424
	C3.798,7.375,3.747,7.292,3.584,7.156C3.486,7.069,3.355,6.9,3.356,6.596C3.354,6.19,3.602,5.526,4.501,5.526
	c0.654,0,1.158,0.646,1.158,1.343c0,1.135-1.21,1.676-2.271,1.661C1.77,8.494,0,7.09,0,4.293c0-2.597,1.72-4.341,3.83-4.292
	c1.813,0.051,2.863,1.035,4.283,3.121c0.135-0.051,0.297-0.085,0.46-0.085c0.605,0.016,1.128,0.593,1.111,1.22
	C9.67,4.542,9.568,4.816,9.406,5.02c0.936,1.373,2.111,2.799,3.256,2.798c0.277-0.001,0.459-0.087,0.461-0.237
	c-0.003-0.188-0.052-0.356-0.151-0.594c-0.112-0.253-0.128-0.492-0.13-0.762c0.003-0.221,0.065-0.73,0.786-0.932
	c0.753-0.207,2.665-0.51,2.664-2.496c-0.001-1.032-1.047-2.252-2.209-2.285c-0.635-0.019-1.061,0.117-1.062,0.388
	c0.002,0.101,0.099,0.323,0.295,0.508c0.441,0.322,0.557,0.476,0.556,0.779c0,0.595-0.556,1.07-1.275,1.054
	c-0.509-0.001-1.158-0.477-1.16-1.291c-0.001-1.371,1.422-1.949,2.404-1.949c1.358,0,3.516,1.339,3.514,4.256
	C17.356,6.408,15.818,8.596,13.396,8.53z"/>
</svg>
