<?xml version="1.0" encoding="utf-8"?>
<!-- Generator: Adobe Illustrator 12.0.0, SVG Export Plug-In  -->
<!DOCTYPE svg PUBLIC "-//W3C//DTD SVG 1.1//EN" "http://www.w3.org/Graphics/SVG/1.1/DTD/svg11.dtd" [
	<!ENTITY ns_flows "http://ns.adobe.com/Flows/1.0/">
	<!ENTITY ns_svg "http://www.w3.org/2000/svg">
	<!ENTITY ns_xlink "http://www.w3.org/1999/xlink">
]>
<svg  version="1.1" xmlns="&ns_svg;" xmlns:xlink="&ns_xlink;" xmlns:a="http://ns.adobe.com/AdobeSVGViewerExtensions/3.0/"
	 width="308" height="113" viewBox="0 -0.64 308 113" enable-background="new 0 -0.64 308 113" xml:space="preserve">
<defs>
</defs>
<path fill="#575B5B" d="M147.63,70.46c0,1.16,0,2.11,0.06,2.62c0.04,0.35,0.11,0.62,0.47,0.66c0.17,0.03,0.44,0.05,0.54,0.05
	c0.07,0,0.1,0.04,0.1,0.07c0,0.06-0.06,0.1-0.19,0.1c-0.67,0-1.43-0.04-1.49-0.04c-0.06,0-0.82,0.04-1.18,0.04
	c-0.13,0-0.19-0.02-0.19-0.1c0-0.03,0.02-0.07,0.1-0.07c0.11,0,0.25-0.02,0.36-0.05c0.24-0.05,0.3-0.31,0.35-0.66
	c0.06-0.51,0.06-1.46,0.06-2.62v-5.11l-1.79,0.02c-0.75,0.01-1.04,0.1-1.23,0.39c-0.13,0.2-0.17,0.29-0.21,0.37
	c-0.04,0.1-0.07,0.12-0.12,0.12c-0.04,0-0.06-0.04-0.06-0.11c0-0.12,0.24-1.16,0.27-1.26c0.02-0.07,0.07-0.23,0.12-0.23
	c0.08,0,0.2,0.12,0.53,0.15c0.35,0.04,0.81,0.06,0.95,0.06h4.53c0.39,0,0.67-0.03,0.86-0.06c0.18-0.03,0.29-0.06,0.34-0.06
	c0.06,0,0.06,0.07,0.06,0.15c0,0.36-0.04,1.2-0.04,1.33c0,0.11-0.04,0.16-0.08,0.16c-0.06,0-0.08-0.04-0.1-0.21l-0.01-0.13
	c-0.04-0.36-0.33-0.64-1.48-0.67l-1.52-0.02V70.46z"/>
<path fill="#575B5B" d="M159.38,70.98c0,0.99,0.01,1.8,0.06,2.22c0.04,0.3,0.06,0.49,0.39,0.54c0.14,0.03,0.39,0.05,0.47,0.05
	c0.07,0,0.1,0.05,0.1,0.08c0,0.05-0.06,0.09-0.18,0.09c-0.58,0-1.26-0.04-1.32-0.04c-0.05,0-0.74,0.04-1.05,0.04
	c-0.12,0-0.17-0.02-0.17-0.09c0-0.04,0.02-0.08,0.08-0.08c0.1,0,0.22-0.02,0.32-0.05c0.22-0.05,0.25-0.25,0.29-0.55
	c0.05-0.42,0.05-1.2,0.05-2.19v-1.03c0-0.05-0.02-0.06-0.06-0.06h-4.43c-0.04,0-0.06,0.01-0.06,0.06V71c0,0.99,0,1.78,0.05,2.2
	c0.04,0.3,0.07,0.49,0.39,0.54c0.16,0.03,0.39,0.05,0.48,0.05c0.06,0,0.08,0.05,0.08,0.08c0,0.05-0.05,0.09-0.17,0.09
	c-0.59,0-1.27-0.04-1.32-0.04c-0.06,0-0.74,0.04-1.06,0.04c-0.11,0-0.17-0.02-0.17-0.09c0-0.04,0.02-0.08,0.08-0.08
	c0.1,0,0.23-0.02,0.33-0.05c0.21-0.05,0.23-0.24,0.28-0.54c0.06-0.42,0.06-1.23,0.06-2.22v-1.81c0-1.6,0-1.88-0.02-2.21
	c-0.02-0.35-0.08-0.52-0.43-0.57c-0.09-0.01-0.27-0.02-0.36-0.02c-0.04,0-0.08-0.05-0.08-0.08c0-0.06,0.05-0.08,0.17-0.08
	c0.48,0,1.16,0.02,1.22,0.02c0.05,0,0.72-0.02,1.05-0.02c0.12,0,0.17,0.02,0.17,0.08c0,0.04-0.05,0.08-0.08,0.08
	c-0.07,0-0.15,0-0.26,0.02c-0.29,0.06-0.35,0.21-0.38,0.57c-0.01,0.33-0.01,0.64-0.01,2.23v0.22c0,0.06,0.02,0.06,0.06,0.06h4.43
	c0.04,0,0.06,0,0.06-0.06v-0.22c0-1.6-0.01-1.91-0.02-2.23c-0.02-0.35-0.07-0.52-0.42-0.57c-0.08-0.01-0.27-0.02-0.36-0.02
	c-0.05,0-0.08-0.05-0.08-0.08c0-0.06,0.05-0.08,0.17-0.08c0.47,0,1.16,0.02,1.21,0.02c0.06,0,0.74-0.02,1.05-0.02
	c0.12,0,0.18,0.02,0.18,0.08c0,0.04-0.05,0.08-0.1,0.08c-0.07,0-0.13,0-0.27,0.02c-0.28,0.06-0.34,0.21-0.36,0.57
	c-0.02,0.33-0.02,0.62-0.02,2.21V70.98z"/>
<path fill="#575B5B" d="M162.88,69.17c0-1.6,0-1.88-0.02-2.21c-0.02-0.35-0.09-0.52-0.43-0.57c-0.09-0.01-0.27-0.02-0.36-0.02
	c-0.04,0-0.08-0.05-0.08-0.08c0-0.06,0.05-0.08,0.17-0.08c0.48,0,1.17,0.02,1.23,0.02c0.07,0,2.3,0.01,2.54,0
	c0.21-0.01,0.4-0.05,0.48-0.06c0.05-0.01,0.1-0.05,0.14-0.05c0.04,0,0.05,0.05,0.05,0.1c0,0.07-0.06,0.19-0.08,0.48
	c-0.01,0.1-0.04,0.56-0.06,0.68c-0.01,0.05-0.05,0.11-0.1,0.11c-0.06,0-0.08-0.05-0.08-0.13c0-0.07-0.01-0.24-0.06-0.36
	c-0.07-0.17-0.18-0.24-0.76-0.31c-0.18-0.02-1.41-0.04-1.53-0.04c-0.05,0-0.06,0.04-0.06,0.11v2.79c0,0.07,0,0.11,0.06,0.11
	c0.13,0,1.53,0,1.78-0.03c0.25-0.02,0.41-0.04,0.52-0.15c0.07-0.07,0.12-0.13,0.16-0.13c0.04,0,0.06,0.03,0.06,0.08
	c0,0.06-0.06,0.23-0.08,0.57c-0.02,0.2-0.05,0.59-0.05,0.66c0,0.08-0.02,0.19-0.1,0.19c-0.05,0-0.07-0.04-0.07-0.1
	c0-0.1,0-0.21-0.05-0.34c-0.04-0.14-0.13-0.27-0.54-0.31c-0.29-0.04-1.43-0.05-1.61-0.05c-0.06,0-0.07,0.04-0.07,0.07v0.86
	c0,0.35-0.01,1.55,0,1.75c0.03,0.69,0.22,0.82,1.27,0.82c0.28,0,0.78,0,1.06-0.11c0.28-0.12,0.42-0.3,0.48-0.71
	c0.02-0.12,0.05-0.16,0.11-0.16s0.07,0.09,0.07,0.16c0,0.07-0.09,0.77-0.15,0.99c-0.07,0.26-0.18,0.26-0.59,0.26
	c-0.8,0-1.41-0.02-1.85-0.03c-0.45-0.03-0.72-0.03-0.88-0.03c-0.02,0-0.23,0-0.46,0.01c-0.21,0.01-0.45,0.02-0.62,0.02
	c-0.11,0-0.17-0.02-0.17-0.09c0-0.04,0.02-0.08,0.08-0.08c0.1,0,0.23-0.04,0.33-0.05c0.21-0.04,0.23-0.24,0.28-0.54
	c0.06-0.42,0.06-1.23,0.06-2.22V69.17z"/>
<path fill="#575B5B" d="M125.79,81.91c-4.9,1.45-8.09,14.83-21.9,14.83c-3.24,0-5.45-1.79-5.45-4.52c0-1.28,0.85-2.73,2.3-2.73
	c1.19,0,2.13,0.68,2.13,2.05c0,1.11-0.68,2.04-1.96,2.04c-1.07,0-1.19-0.34-1.49-0.34c-0.17,0-0.21,0.13-0.21,0.25
	c0,0.94,1.88,2.73,4.77,2.73c5.8,0,10.23-5.63,13.64-9.46l-0.09-0.08c-1.28,0.6-2.73,1.02-4.43,1.02c-2.9,0-4.52-1.87-4.52-4.77
	c0-1.11,0.43-2.3,0.85-3.07c-4.18-0.68-8.35-2.9-8.35-7.67c0-4.43,4.94-6.73,9.29-6.73c2.64,0,5.37,0.51,7.84,1.45l-0.17,0.43
	c-2.21-0.77-4.6-1.37-7.75-1.37c-3.84,0-8.18,2.13-8.18,7.24c0,3.58,4.52,5.71,7.5,6.14c3.07-6.48,13.81-13.89,21.48-13.89
	c2.21,0,4.52,0.85,4.52,3.32c0,6.14-14.49,11.42-21.14,11.42c-0.68,0-1.53,0-2.55-0.08c-0.69,0.94-1.79,2.64-1.79,4.09
	c0,2.13,1.36,2.98,2.81,2.98c1.79,0,3.66-0.6,5.11-1.28c1.7-2.64,4.01-4.26,7.76-4.26V81.91z M130.82,65.98
	c-5.8,0-15.17,9.29-18.75,13.64c1.02,0.08,1.96,0.08,2.98,0.08c6.9,0,20.03-5.97,20.03-11C135.08,66.49,132.61,65.98,130.82,65.98z"
	/>
<path fill="#575B5B" d="M139.17,89.46c-3.96,3.41-9.08,7.29-13.64,7.29c-1.28,0-2.64-0.51-2.64-2.13c0-4.6,8.31-11.76,12.83-11.76
	c1.15,0,1.92,0.81,1.92,1.92c0,3.96-7.41,6.18-10.57,6.18c-2.51,2.73-2.9,3.66-2.9,4.26c0,0.85,0.85,1.02,1.7,1.02
	c3.75,0,8.27-3.11,13.29-7.29V89.46z M135.72,83.36c-1.62,0-3.84,2.13-8.23,7.07c4.56,0,9.12-3.92,9.12-6.22
	C136.62,83.75,136.28,83.36,135.72,83.36z"/>
<path fill="#575B5B" d="M145.4,83.36h2.64l-3.71,4.01l0.08,0.08c2.05-1.83,5.33-4.35,7.24-4.35c1.49,0,2.43,0.98,2.43,2.47
	c0,3.49-7.16,8.61-7.16,10.06c0,0.34,0.26,0.6,0.68,0.6c1.41,0,4.22-2.17,10.06-7.46v0.6c-4.56,4.26-8.27,7.37-10.06,7.37
	c-0.98,0-1.71-0.6-1.71-1.96c0-3.2,7.16-8.35,7.16-9.97c0-0.68-0.51-1.19-1.36-1.19c-2.56,0-9.38,5.79-15,12.36h-2.98L145.4,83.36z"
	/>
<path fill="#575B5B" d="M172.33,89.46c-3.96,3.41-9.08,7.29-13.64,7.29c-1.28,0-2.64-0.51-2.64-2.13c0-4.6,8.31-11.76,12.83-11.76
	c1.15,0,1.92,0.81,1.92,1.92c0,3.96-7.41,6.18-10.57,6.18c-2.51,2.73-2.9,3.66-2.9,4.26c0,0.85,0.85,1.02,1.7,1.02
	c3.75,0,8.27-3.11,13.29-7.29V89.46z M168.88,83.36c-1.62,0-3.83,2.13-8.22,7.07c4.56,0,9.12-3.92,9.12-6.22
	C169.77,83.75,169.43,83.36,168.88,83.36z"/>
<path fill="#575B5B" d="M175.82,87.2l3.58-3.32c-0.17-0.34-0.26-0.64-0.26-1.02c0-1.19,0.68-2.9,2.13-2.9
	c0.34,0,0.68,0.42,0.68,0.77c0,1.11-1.36,2.47-2.04,3.24c1.02,1.41,2.04,2.56,2.04,4.43c0,1.62-1.11,3.07-2.04,4.26
	c2.68-0.47,4.26-1.23,6.13-3.49l0.26,0.25c-1.79,2.13-3.32,3.37-6.99,3.75c-2.38,2-4.86,3.58-7.41,3.58c-2.22,0-3.07-1.28-3.07-2.98
	c0-1.88,1.87-4.94,3.75-4.94c0.68,0,1.37,0.6,1.37,1.45c0,0.94-0.85,1.62-1.45,1.62c-0.85,0-1.36-0.68-1.36-1.53h-0.08
	c-0.94,0.68-1.71,2.04-1.71,3.49c0,1.28,0.68,2.39,1.96,2.39c2.05,0,9.38-6.9,9.38-9.88c0-0.56-0.38-1.41-1.02-2.13l-3.58,3.24
	L175.82,87.2z"/>
<path fill="#575B5B" d="M192.87,83.36h2.73l-7.46,8.35c-2.47,2.77-3.03,3.45-3.03,3.83c0,0.43,0.34,0.68,1.11,0.68
	c1.92,0,5.2-2.9,10.74-7.54l0.3,0.3c-4.47,3.92-9.08,7.76-11.12,7.76c-1.53,0-2.04-0.85-2.04-2.05c0-0.94,0.51-1.88,1.7-3.24
	L192.87,83.36z M199.68,74.67c0.86,0,1.54,0.68,1.54,1.53s-0.68,1.53-1.54,1.53c-0.85,0-1.53-0.68-1.53-1.53
	S198.83,74.67,199.68,74.67z"/>
<path fill="#575B5B" d="M201.13,87.2l3.58-3.32c-0.17-0.34-0.26-0.64-0.26-1.02c0-1.19,0.68-2.9,2.13-2.9
	c0.34,0,0.68,0.42,0.68,0.77c0,1.11-1.36,2.47-2.04,3.24c1.02,1.41,2.04,2.56,2.04,4.43c0,1.62-1.11,3.07-2.04,4.26
	c2.69-0.47,4.26-1.23,6.14-3.49l0.25,0.25c-1.79,2.13-3.32,3.37-6.99,3.75c-2.39,2-4.86,3.58-7.41,3.58c-2.22,0-3.07-1.28-3.07-2.98
	c0-1.88,1.87-4.94,3.75-4.94c0.68,0,1.37,0.6,1.37,1.45c0,0.94-0.85,1.62-1.45,1.62c-0.85,0-1.36-0.68-1.36-1.53h-0.09
	c-0.93,0.68-1.7,2.04-1.7,3.49c0,1.28,0.68,2.39,1.96,2.39c2.04,0,9.38-6.9,9.38-9.88c0-0.56-0.38-1.41-1.02-2.13l-3.58,3.24
	L201.13,87.2z"/>
<path fill="#575B5B" d="M117.96,110.42c-1.17-1.05-1.46-2.43-1.46-3.58c0-0.81,0.28-2.22,1.35-3.3c0.73-0.72,1.82-1.29,3.69-1.29
	c0.48,0,1.16,0.04,1.75,0.14c0.46,0.08,0.85,0.16,1.23,0.18c0.13,0.01,0.16,0.06,0.16,0.13c0,0.1-0.04,0.24-0.06,0.68
	c-0.03,0.4-0.03,1.06-0.04,1.24c-0.01,0.18-0.04,0.25-0.11,0.25c-0.08,0-0.1-0.08-0.1-0.25c0-0.47-0.19-0.97-0.51-1.23
	c-0.42-0.36-1.35-0.69-2.42-0.69c-1.61,0-2.36,0.47-2.78,0.88c-0.88,0.85-1.09,1.92-1.09,3.15c0,2.31,1.78,4.42,4.36,4.42
	c0.91,0,1.62-0.11,2.1-0.6c0.25-0.27,0.41-0.8,0.45-1.02c0.02-0.13,0.05-0.18,0.12-0.18c0.06,0,0.08,0.08,0.08,0.18
	c0,0.08-0.14,1.14-0.27,1.55c-0.07,0.23-0.1,0.25-0.31,0.35c-0.48,0.19-1.4,0.28-2.18,0.28
	C120.13,111.73,118.91,111.28,117.96,110.42z"/>
<path fill="#575B5B" d="M130.2,103.65c2.39,0,4.21,1.46,4.21,3.85c0,2.29-1.7,4.19-4.27,4.19c-2.91,0-4.16-2.19-4.16-4.03
	C125.98,106,127.26,103.65,130.2,103.65z M130.44,111.27c0.96,0,2.88-0.51,2.88-3.48c0-2.46-1.5-3.76-3.18-3.76
	c-1.78,0-3.06,1.11-3.06,3.35C127.08,109.77,128.52,111.27,130.44,111.27z"/>
<path fill="#575B5B" d="M137.59,108.6c0,1.51,0.02,2.13,0.22,2.31c0.17,0.17,0.58,0.24,1.41,0.24c0.56,0,1.03-0.01,1.28-0.32
	c0.13-0.16,0.22-0.37,0.25-0.58c0.01-0.07,0.05-0.13,0.11-0.13c0.05,0,0.07,0.05,0.07,0.16s-0.07,0.72-0.16,1.03
	c-0.07,0.24-0.11,0.28-0.68,0.28c-0.76,0-1.35-0.01-1.85-0.04c-0.48-0.01-0.85-0.03-1.16-0.03c-0.05,0-0.23,0-0.43,0.01
	c-0.22,0.01-0.45,0.02-0.62,0.02c-0.11,0-0.17-0.02-0.17-0.09c0-0.04,0.02-0.08,0.09-0.08c0.1,0,0.23-0.02,0.33-0.05
	c0.21-0.05,0.23-0.24,0.28-0.54c0.06-0.42,0.06-1.23,0.06-2.22v-1.81c0-1.59,0-1.88-0.03-2.21c-0.02-0.35-0.08-0.52-0.43-0.57
	c-0.08-0.01-0.27-0.02-0.36-0.02c-0.04,0-0.09-0.05-0.09-0.09c0-0.06,0.05-0.08,0.17-0.08c0.48,0,1.15,0.02,1.21,0.02
	c0.05,0,0.85-0.02,1.17-0.02c0.11,0,0.17,0.02,0.17,0.08c0,0.04-0.05,0.07-0.08,0.07c-0.07,0-0.23,0.01-0.35,0.03
	c-0.31,0.06-0.37,0.22-0.4,0.58c-0.01,0.33-0.01,0.62-0.01,2.21V108.6z"/>
<path fill="#575B5B" d="M144.06,108.6c0,1.51,0.02,2.13,0.22,2.31c0.17,0.17,0.58,0.24,1.41,0.24c0.56,0,1.03-0.01,1.28-0.32
	c0.13-0.16,0.22-0.37,0.25-0.58c0.01-0.07,0.05-0.13,0.11-0.13c0.05,0,0.07,0.05,0.07,0.16s-0.07,0.72-0.16,1.03
	c-0.07,0.24-0.11,0.28-0.68,0.28c-0.76,0-1.35-0.01-1.85-0.04c-0.48-0.01-0.84-0.03-1.16-0.03c-0.05,0-0.23,0-0.43,0.01
	c-0.22,0.01-0.45,0.02-0.62,0.02c-0.11,0-0.17-0.02-0.17-0.09c0-0.04,0.02-0.08,0.09-0.08c0.09,0,0.23-0.02,0.33-0.05
	c0.21-0.05,0.23-0.24,0.28-0.54c0.06-0.42,0.06-1.23,0.06-2.22v-1.81c0-1.59,0-1.88-0.02-2.21c-0.02-0.35-0.08-0.52-0.44-0.57
	c-0.08-0.01-0.27-0.02-0.36-0.02c-0.03,0-0.08-0.05-0.08-0.09c0-0.06,0.05-0.08,0.17-0.08c0.48,0,1.15,0.02,1.21,0.02
	c0.05,0,0.85-0.02,1.17-0.02c0.11,0,0.17,0.02,0.17,0.08c0,0.04-0.05,0.07-0.08,0.07c-0.07,0-0.23,0.01-0.35,0.03
	c-0.31,0.06-0.37,0.22-0.4,0.58c-0.01,0.33-0.01,0.62-0.01,2.21V108.6z"/>
<path fill="#575B5B" d="M149.55,106.76c0-1.59,0-1.88-0.02-2.21c-0.03-0.35-0.08-0.52-0.44-0.57c-0.08-0.01-0.27-0.02-0.36-0.02
	c-0.04,0-0.08-0.05-0.08-0.09c0-0.06,0.05-0.08,0.17-0.08c0.48,0,1.17,0.02,1.23,0.02c0.07,0,2.3,0.01,2.54,0
	c0.2-0.01,0.4-0.05,0.48-0.06c0.05-0.01,0.1-0.05,0.15-0.05c0.04,0,0.05,0.05,0.05,0.1c0,0.07-0.06,0.19-0.08,0.48
	c-0.01,0.1-0.04,0.56-0.06,0.68c-0.01,0.05-0.05,0.11-0.09,0.11c-0.06,0-0.09-0.05-0.09-0.13c0-0.07-0.01-0.24-0.06-0.36
	c-0.07-0.17-0.18-0.24-0.76-0.31c-0.18-0.02-1.41-0.04-1.53-0.04c-0.05,0-0.06,0.04-0.06,0.11v2.79c0,0.07,0,0.11,0.06,0.11
	c0.13,0,1.53,0,1.78-0.02c0.25-0.03,0.41-0.04,0.52-0.15c0.07-0.07,0.12-0.13,0.16-0.13s0.06,0.03,0.06,0.09s-0.06,0.23-0.08,0.57
	c-0.03,0.21-0.05,0.59-0.05,0.66c0,0.08-0.03,0.19-0.1,0.19c-0.05,0-0.07-0.04-0.07-0.1c0-0.1,0-0.21-0.05-0.34
	c-0.03-0.14-0.13-0.26-0.54-0.31c-0.29-0.04-1.43-0.05-1.61-0.05c-0.06,0-0.07,0.04-0.07,0.07v0.86c0,0.35-0.01,1.55,0,1.75
	c0.02,0.69,0.22,0.82,1.27,0.82c0.28,0,0.79,0,1.06-0.11c0.28-0.12,0.42-0.31,0.48-0.71c0.02-0.12,0.05-0.16,0.11-0.16
	c0.06,0,0.07,0.08,0.07,0.16c0,0.07-0.08,0.77-0.14,0.99c-0.07,0.27-0.18,0.27-0.59,0.27c-0.8,0-1.41-0.02-1.85-0.04
	c-0.45-0.03-0.73-0.03-0.88-0.03c-0.02,0-0.23,0-0.46,0.01c-0.21,0.01-0.45,0.02-0.62,0.02c-0.11,0-0.17-0.02-0.17-0.09
	c0-0.04,0.02-0.08,0.08-0.08c0.1,0,0.23-0.04,0.33-0.05c0.21-0.04,0.23-0.24,0.28-0.54c0.06-0.42,0.06-1.23,0.06-2.22V106.76z"/>
<path fill="#575B5B" d="M156.29,110.59c-1.04-0.89-1.29-2.07-1.29-3.04c0-0.69,0.25-1.88,1.2-2.8c0.64-0.62,1.61-1.1,3.24-1.1
	c0.42,0,1.03,0.03,1.55,0.12c0.4,0.07,0.74,0.14,1.09,0.16c0.11,0,0.13,0.05,0.13,0.11c0,0.08-0.02,0.21-0.05,0.58
	c-0.01,0.34-0.01,0.91-0.02,1.05c-0.01,0.16-0.06,0.22-0.12,0.22c-0.07,0-0.08-0.07-0.08-0.22c0-0.4-0.17-0.81-0.45-1.03
	c-0.38-0.31-1.15-0.57-2.09-0.57c-1.37,0-2.02,0.37-2.39,0.71c-0.79,0.72-0.96,1.64-0.96,2.68c0,1.97,1.56,3.72,3.83,3.72
	c0.8,0,1.33-0.06,1.75-0.48c0.23-0.23,0.38-0.66,0.41-0.86c0.02-0.11,0.03-0.14,0.11-0.14c0.05,0,0.1,0.07,0.1,0.14
	c0,0.07-0.15,0.97-0.25,1.32c-0.06,0.19-0.09,0.23-0.27,0.3c-0.44,0.17-1.23,0.23-1.92,0.23
	C158.2,111.69,157.13,111.32,156.29,110.59z"/>
<path fill="#575B5B" d="M167.02,108.57c0,0.99,0,1.8,0.05,2.22c0.04,0.3,0.08,0.5,0.41,0.54c0.15,0.02,0.39,0.05,0.48,0.05
	c0.07,0,0.09,0.05,0.09,0.08c0,0.05-0.05,0.09-0.17,0.09c-0.58,0-1.26-0.04-1.32-0.04c-0.05,0-0.79,0.04-1.1,0.04
	c-0.12,0-0.17-0.02-0.17-0.09c0-0.04,0.02-0.07,0.08-0.07c0.1,0,0.22-0.03,0.32-0.05c0.22-0.05,0.28-0.25,0.31-0.56
	c0.05-0.42,0.05-1.23,0.05-2.22v-4.31l-1.54,0.02c-0.66,0.01-0.92,0.08-1.08,0.33c-0.12,0.18-0.13,0.25-0.17,0.33
	c-0.02,0.08-0.06,0.1-0.11,0.1c-0.02,0-0.07-0.03-0.07-0.08c0-0.11,0.22-1.03,0.23-1.11c0.03-0.06,0.07-0.19,0.11-0.19
	c0.07,0,0.18,0.08,0.47,0.12c0.3,0.04,0.71,0.05,0.83,0.05h4.01c0.35,0,0.59-0.02,0.76-0.05c0.16-0.02,0.25-0.05,0.3-0.05
	c0.05,0,0.05,0.06,0.05,0.12c0,0.31-0.04,1.05-0.04,1.17c0,0.09-0.05,0.13-0.09,0.13c-0.05,0-0.07-0.04-0.09-0.18l-0.01-0.11
	c-0.03-0.31-0.26-0.54-1.28-0.57l-1.33-0.02V108.57z"/>
<path fill="#575B5B" d="M173.04,108.57c0,0.99,0,1.8,0.05,2.22c0.04,0.3,0.07,0.5,0.39,0.54c0.16,0.02,0.39,0.05,0.48,0.05
	c0.06,0,0.08,0.05,0.08,0.08c0,0.05-0.05,0.09-0.17,0.09c-0.59,0-1.28-0.04-1.33-0.04c-0.06,0-0.73,0.04-1.05,0.04
	c-0.11,0-0.17-0.02-0.17-0.09c0-0.04,0.02-0.08,0.09-0.08c0.1,0,0.23-0.02,0.33-0.05c0.21-0.05,0.24-0.24,0.28-0.54
	c0.05-0.42,0.06-1.23,0.06-2.22v-1.81c0-1.59,0-1.88-0.03-2.21c-0.02-0.35-0.11-0.51-0.34-0.56c-0.12-0.02-0.25-0.04-0.33-0.04
	c-0.05,0-0.08-0.05-0.08-0.09c0-0.06,0.05-0.08,0.17-0.08c0.35,0,1.01,0.02,1.08,0.02c0.05,0,0.74-0.02,1.06-0.02
	c0.12,0,0.17,0.02,0.17,0.08c0,0.04-0.05,0.09-0.08,0.09c-0.07,0-0.15,0-0.27,0.02c-0.29,0.06-0.35,0.21-0.37,0.57
	c-0.01,0.33-0.01,0.62-0.01,2.21V108.57z"/>
<path fill="#575B5B" d="M179.61,103.65c2.39,0,4.21,1.46,4.21,3.85c0,2.29-1.7,4.19-4.26,4.19c-2.91,0-4.16-2.19-4.16-4.03
	C175.4,106,176.68,103.65,179.61,103.65z M179.85,111.27c0.95,0,2.88-0.51,2.88-3.48c0-2.46-1.5-3.76-3.18-3.76
	c-1.78,0-3.06,1.11-3.06,3.35C176.5,109.77,177.93,111.27,179.85,111.27z"/>
<path fill="#575B5B" d="M186.49,110.16c0.02,0.85,0.12,1.1,0.41,1.17c0.2,0.05,0.44,0.06,0.53,0.06c0.05,0,0.08,0.04,0.08,0.08
	c0,0.06-0.07,0.09-0.19,0.09c-0.6,0-1.03-0.04-1.13-0.04c-0.09,0-0.54,0.04-1.02,0.04c-0.11,0-0.17-0.01-0.17-0.09
	c0-0.05,0.04-0.08,0.09-0.08c0.08,0,0.28-0.01,0.43-0.06c0.26-0.07,0.3-0.35,0.3-1.28v-5.88c0-0.41,0.06-0.52,0.15-0.52
	c0.12,0,0.3,0.2,0.41,0.31c0.17,0.17,1.72,1.81,3.36,3.5c1.05,1.09,2.19,2.31,2.51,2.65l-0.11-5.15c-0.01-0.67-0.08-0.89-0.4-0.96
	c-0.19-0.04-0.43-0.05-0.52-0.05c-0.08,0-0.08-0.06-0.08-0.1c0-0.06,0.08-0.07,0.2-0.07c0.48,0,0.99,0.02,1.11,0.02
	c0.12,0,0.47-0.02,0.91-0.02c0.11,0,0.19,0.01,0.19,0.07c0,0.04-0.05,0.1-0.12,0.1c-0.05,0-0.14,0-0.26,0.02
	c-0.35,0.07-0.37,0.28-0.37,0.89l-0.03,6.02c0,0.68-0.01,0.74-0.08,0.74c-0.11,0-0.22-0.08-0.81-0.63c-0.11-0.1-1.64-1.61-2.77-2.78
	c-1.23-1.29-2.43-2.55-2.75-2.91L186.49,110.16z"/>
<path fill="none" stroke="#404040" stroke-width="1.8789" d="M126.68,29.86c0,15.95,13.18,28.92,29.37,28.92
	s29.37-12.97,29.37-28.92c0-15.95-13.17-28.92-29.37-28.92S126.68,13.91,126.68,29.86z"/>
<ellipse fill="#414141" cx="156.05" cy="29.86" rx="27.93" ry="27.4"/>
<path fill-rule="evenodd" clip-rule="evenodd" fill="#FFFFFF" d="M156.71,58.29c-3.59,3.59-9.71,0-14.57,0
	c0.3-2.57,1.94-4.01,4.23-4.84c1.9-0.69,4.67-0.21,6.27-1.54c0.95-0.79,0.3-1.61-0.01-2.57c-0.48-1.5,0.41-1.02,1.07-1.87
	c0.1-0.35-0.54-1.14-0.35-1.31c0.83-0.72-0.39-1-0.39-1.89c-0.1-0.82,0.45-1.05,0.99-1.47c0.7-0.56-0.87-2.09-1.3-2.54
	c-1.79-1.85-1.91-3.89-2.36-6.37c-0.41-2.26-0.77-4.62-3.01-5.74c-1.64-0.83-2.81-1.07-3.79-2.83c4.24-0.2,8.48-0.31,12.72-0.28"/>
<path fill-rule="evenodd" clip-rule="evenodd" fill="#FFFFFF" d="M155.29,60.92c4.86,0,9.71-2.63,14.57-2.63
	c-0.3-2.57-1.94-4.01-4.23-4.84c-1.9-0.69-4.67-0.21-6.27-1.54c-0.95-0.79-0.3-1.6,0.01-2.57c0.48-1.51-0.41-1.02-1.07-1.87
	c-0.1-0.35,0.54-1.15,0.35-1.31c-0.83-0.72,0.39-1,0.39-1.89c0.1-0.81-0.45-1.05-0.99-1.47c-0.7-0.56,0.87-2.09,1.29-2.54
	c1.79-1.86,1.91-3.9,2.36-6.37c0.41-2.26,0.77-4.61,3.01-5.74c1.64-0.83,2.81-1.07,3.79-2.83c-4.24-0.2-8.48-0.31-12.72-0.28"/>
<path fill="#FFFFFF" d="M155.14,27.04c-0.17-1.55,0.44-5.84,1.28-7.07c0.24-0.36,0.4-0.58,0.37-0.89c-0.11-1-1.12-1.62-2.36-1.58
	c-0.28,0.01-0.78,0.15-0.99,0.26c-0.28,0.15-0.3,0-0.21-0.23c0.1-0.2,0.52-0.97,0.73-1.18c0.26-0.23,0.18-0.29-0.07-0.37
	c-0.52-0.18-1.37-0.1-1.6-0.07c-0.31,0.03-0.31-0.15-0.1-0.3c0.57-0.41,1.51-0.75,2.24-0.83c2.08-0.23,2.85,1.48,2.96,2.51
	c0.04,0.36,0.02,1.07-0.19,1.71l0.05,0.01c1.84-2.28,2.29-3.55,2.19-4.5c-0.24-0.06-0.5-0.21-0.72-0.39
	c-0.17-0.15-0.5-0.51-0.88-0.8c-0.16-0.12-0.16-0.23,0.07-0.29l0.19-0.05c0.1-0.01,0.26-0.06,0.5-0.15
	c0.25-0.11,0.26-0.18-0.04-0.38c-1.25-0.94-1.94-1.41-2.07-2.57c-0.07-0.67,0.12-1.65,0.55-2.27c0.31-0.45,0.4-0.37,0.5-0.21
	c0.37,0.61,0.78,1.01,1.12,1.25c0.27,0.2,0.37,0.09,0.44-0.18c0.07-0.3,0.33-0.9,0.74-1.41c0.22-0.27,0.43-0.58,0.62-0.8
	c0.15-0.18,0.26-0.19,0.35-0.01c0.14,0.27,0.31,0.55,0.51,0.87c0.29,0.5,0.43,1.05,0.5,1.7c0.03,0.26,0.08,0.29,0.29,0.25
	c0.67-0.12,1.47-0.63,1.66-1.03c0.09-0.21,0.15-0.27,0.29-0.03c0.14,0.25,0.32,0.89,0.37,1.38c0.16,1.51-0.41,2.05-0.89,2.48
	c-0.4,0.33-1.42,0.84-1.74,0.94c-0.35,0.12-0.39,0.19-0.11,0.38c0.18,0.11,0.27,0.22,0.4,0.29c0.17,0.15,0.13,0.28-0.08,0.32
	c-0.29,0.06-0.58,0.2-0.92,0.37c-0.31,0.17-0.58,0.3-0.94,0.32c0.06,0.19,0.07,0.37,0.09,0.5c0.12,1.09-0.68,2.57-2.36,4.33
	l0.05,0.03c0.85-0.56,1.91-0.86,2.73-0.95c1.11-0.12,2.12,0.26,2.77,0.92c0.67,0.67,0.98,1.53,1.07,2.34
	c0.03,0.26-0.09,0.41-0.29,0.1c-0.3-0.46-1.09-1.06-2.01-1.12c-0.2-0.01-0.28,0.03-0.26,0.19c0.03,0.29-0.08,0.79-0.36,1.08
	c-0.24,0.24-0.35,0.16-0.38-0.14c-0.02-0.18-0.56-2.21-3.28-1.91c-0.44,0.05-0.57,0.26-0.7,0.44c-0.97,1.38-1.46,5.59-1.31,6.96
	 M159.24,11.65c0.04,0.34,0.34,0.96,0.65,1.25c0.18,0.16,0.22,0.21,0.48,0c0.44-0.4,0.82-1.07,0.74-1.82
	c-0.05-0.46-0.26-0.88-0.55-1.2c-0.18-0.24-0.24-0.22-0.5-0.03c-0.44,0.35-0.91,1.01-0.83,1.78L159.24,11.65z"/>
<path fill="#FFFFFF" d="M155.42,23.31c-0.8,0-1.47-0.39-2.05-0.88c-0.17-0.14-0.27-0.23-0.43-0.23c-0.52,0-0.89,0.48-0.94,1.12
	c-0.01,0.14,0.04,0.4,0.08,0.51c0.06,0.15-0.02,0.15-0.13,0.09c-0.09-0.06-0.46-0.32-0.56-0.44c-0.1-0.15-0.14-0.11-0.19,0.02
	c-0.12,0.25-0.13,0.69-0.13,0.81c0,0.16-0.09,0.15-0.16,0.04c-0.18-0.31-0.3-0.81-0.3-1.19c0-1.07,0.91-1.37,1.44-1.37
	c0.19,0,0.55,0.05,0.86,0.19l0.01-0.02c-1.06-1.06-1.68-1.37-2.17-1.37c-0.04,0.12-0.14,0.25-0.24,0.35
	c-0.09,0.08-0.29,0.22-0.46,0.4c-0.06,0.08-0.13,0.07-0.14-0.05l-0.02-0.1c0-0.05-0.02-0.13-0.05-0.26c-0.04-0.13-0.07-0.14-0.19,0
	c-0.55,0.59-0.82,0.91-1.42,0.92c-0.35,0-0.84-0.15-1.12-0.4c-0.21-0.19-0.17-0.23-0.08-0.27c0.33-0.16,0.56-0.34,0.7-0.5
	c0.12-0.13,0.07-0.18-0.07-0.24c-0.15-0.05-0.44-0.22-0.68-0.46c-0.13-0.13-0.27-0.25-0.37-0.36c-0.08-0.09-0.08-0.14,0.02-0.18
	c0.14-0.06,0.29-0.13,0.47-0.21c0.27-0.12,0.56-0.16,0.89-0.16c0.13,0,0.15-0.02,0.14-0.13c-0.03-0.35-0.24-0.78-0.43-0.9
	c-0.1-0.06-0.13-0.09,0-0.15c0.13-0.06,0.47-0.11,0.73-0.11c0.78,0,1.02,0.32,1.22,0.59c0.14,0.22,0.35,0.77,0.38,0.94
	c0.04,0.19,0.08,0.21,0.19,0.08c0.07-0.08,0.13-0.13,0.17-0.19c0.08-0.08,0.15-0.05,0.16,0.06c0.01,0.15,0.07,0.3,0.13,0.49
	c0.07,0.17,0.12,0.31,0.11,0.5c0.1-0.02,0.19-0.02,0.26-0.02c0.57,0,1.28,0.49,2.08,1.44l0.02-0.02c-0.24-0.46-0.33-1.02-0.33-1.45
	c0-0.57,0.25-1.06,0.62-1.36c0.38-0.31,0.84-0.42,1.25-0.42c0.13,0,0.2,0.07,0.03,0.15c-0.25,0.13-0.6,0.5-0.68,0.96
	c-0.01,0.1,0,0.14,0.09,0.14c0.15,0,0.4,0.08,0.53,0.25c0.11,0.13,0.06,0.19-0.09,0.19c-0.09,0-1.15,0.16-1.15,1.56
	c0,0.23,0.1,0.3,0.19,0.38c0.65,0.57,1.28,0.89,1.99,0.89 M149.29,20.54c0.18,0,0.51-0.12,0.67-0.26c0.09-0.08,0.12-0.1,0.03-0.25
	c-0.18-0.24-0.5-0.48-0.89-0.48c-0.24,0-0.46,0.09-0.64,0.21c-0.13,0.08-0.13,0.11-0.04,0.25
	C148.57,20.26,148.88,20.54,149.29,20.54L149.29,20.54z"/>
<path fill="#FFFFFF" d="M172.35,34.35c0,0.77-0.63,1.31-1.56,1.69c-0.79,0.32-1.99,0.47-3.14,0.47c-0.74,0-2.92-0.1-4.22-1.08
	c-0.36-0.28-0.47-0.58-0.47-0.84c0-0.21,0.05-0.35,0.11-0.5c-1.41-1.11-2.84-2.08-4.43-2.08c-1.05,0-2.08,0.44-2.08,1.88
	c0,1.14,0.7,1.73,1.19,1.9c0.18,0.06,0.16,0.19,0.09,0.25c-0.06,0.05-0.31,0.22-0.52,0.26c-0.21,0.05-0.42,0.05-0.66-0.07
	c-0.33-0.17-0.91-0.78-0.91-1.72c0-0.58,0.18-1.45,1.1-2.27c0.47-0.41,1.3-0.81,2.34-0.81c1.52,0,3.13,1.05,4.21,1.86
	c0.22-0.48,0.64-0.63,0.85-0.63c0.88,0,1.67,0.93,2.98,1.92c1.29,0.95,2.02,1.19,2.8,1.19c0.63,0,1.46-0.28,1.46-1.03
	c0-0.53-0.37-0.82-0.75-0.82c-0.11,0.01-0.16-0.08-0.11-0.15c0.05-0.05,0.42-0.38,0.87-0.38C171.88,33.39,172.35,33.7,172.35,34.35
	L172.35,34.35z"/>
<path fill="#FFFFFF" d="M139.22,34.67c0-0.64,0.47-0.95,0.84-0.95c0.45,0,0.82,0.33,0.87,0.38c0.05,0.07,0,0.16-0.11,0.15
	c-0.39,0-0.76,0.29-0.76,0.82c0,0.76,0.83,1.03,1.46,1.03c0.78,0,1.51-0.24,2.8-1.19c1.32-0.99,2.11-1.92,2.98-1.92
	c0.22,0,0.63,0.15,0.85,0.63c1.08-0.81,2.69-1.86,4.21-1.86c1.04,0,1.87,0.4,2.34,0.81c0.92,0.82,1.11,1.69,1.11,2.27
	c0,0.94-0.58,1.54-0.91,1.72c-0.23,0.12-0.44,0.12-0.65,0.07c-0.21-0.04-0.46-0.2-0.52-0.25c-0.07-0.06-0.08-0.19,0.09-0.25
	c0.49-0.17,1.19-0.77,1.19-1.9c0-1.44-1.03-1.88-2.08-1.88c-1.58,0-3.02,0.96-4.43,2.08c0.06,0.15,0.11,0.28,0.11,0.5
	c0,0.26-0.11,0.56-0.47,0.84c-1.3,0.98-3.49,1.08-4.22,1.08c-1.15,0-2.35-0.15-3.14-0.47c-0.93-0.38-1.57-0.92-1.57-1.69V34.67z"/>
<line fill="none" stroke="#6D6F71" stroke-width="1.0458" x1="0" y1="107.5" x2="101.2" y2="107.5"/>
<line fill="none" stroke="#6D6F71" stroke-width="1.0458" x1="206" y1="107.5" x2="307.2" y2="107.5"/>
</svg>
