<?xml version="1.0" encoding="utf-8"?>
<!-- Generator: Adobe Illustrator 17.0.0, SVG Export Plug-In . SVG Version: 6.00 Build 0)  -->
<!DOCTYPE svg PUBLIC "-//W3C//DTD SVG 1.1//EN" "http://www.w3.org/Graphics/SVG/1.1/DTD/svg11.dtd">
<svg version="1.1" id="Capa_1" xmlns="http://www.w3.org/2000/svg" xmlns:xlink="http://www.w3.org/1999/xlink" x="0px" y="0px"
	 width="64px" height="64px" viewBox="0 0 64 64" enable-background="new 0 0 64 64" xml:space="preserve">
<g>
	<path d="M50.5,30h-38C8.91,30,6,32.91,6,36.5S8.91,43,12.5,43h2.605l0.953-4.648L16.376,37H18h26.5h1.624l0.319,1.232L47.42,43
		h3.08c3.59,0,6.5-2.91,6.5-6.5S54.09,30,50.5,30z"/>
	<polygon points="45.3,43 44.5,39 44,39 18,39 17.2,43 15,54 47.5,54 	"/>
	<path d="M38.397,17h-4.598c0,2-1.029,2.299-2.299,2.299S29.201,19,29.201,17h-4.598C21.049,17,18,20.324,18,23.879V28h27v-4.121
		C45,20.324,41.951,17,38.397,17z"/>
</g>
</svg>
