<?xml version="1.0" encoding="utf-8"?>
<!-- Generator: Adobe Illustrator 16.0.0, SVG Export Plug-In . SVG Version: 6.00 Build 0)  -->
<!DOCTYPE svg PUBLIC "-//W3C//DTD SVG 1.1//EN" "http://www.w3.org/Graphics/SVG/1.1/DTD/svg11.dtd">
<svg version="1.1" id="Layer_1" xmlns="http://www.w3.org/2000/svg" xmlns:xlink="http://www.w3.org/1999/xlink" x="0px" y="0px"
	 width="96px" height="96px" viewBox="0 0 96 96" enable-background="new 0 0 96 96" xml:space="preserve">
<g>
	<path  fill="white" d="M85.603,29.198H72.077V1.786H23.923v27.412H10.397c-2.575,0-4.661,2.086-4.661,4.659v32.947
		c0,2.573,2.086,4.661,4.661,4.661H21.04v-7.617h2.883v30.365h48.154V63.849h2.883v7.617h10.643c2.575,0,4.661-2.088,4.661-4.661
		V33.857C90.264,31.284,88.178,29.198,85.603,29.198z M67.287,82.146l-5.419,7.276H28.713V63.849h38.574V82.146z M67.287,29.198
		H28.713V6.578h38.574V29.198z"/>
	<rect  fill="white" x="34.48" y="68.447" width="27.97" height="4.789"/>
	<rect  fill="white" x="34.48" y="78.234" width="27.97" height="4.792"/>
</g>
</svg>
