<?xml version="1.0" encoding="utf-8"?>
<!-- Generator: Adobe Illustrator 17.0.2, SVG Export Plug-In . SVG Version: 6.00 Build 0)  -->
<!DOCTYPE svg PUBLIC "-//W3C//DTD SVG 1.1//EN" "http://www.w3.org/Graphics/SVG/1.1/DTD/svg11.dtd">
<svg version="1.1" id="Capa_1" xmlns="http://www.w3.org/2000/svg" xmlns:xlink="http://www.w3.org/1999/xlink" x="0px" y="0px"
	 width="64px" height="64px" viewBox="0 0 64 64" enable-background="new 0 0 64 64" xml:space="preserve">
<g>
	<path d="M25.908,28.237v20.075c0,1.104,0.66,2.551,1.531,3.229l5.185,4.044c0.871,0.679,2.411,0.902,3.439,0.499l19.693-8.122
		c1.028-0.403,1.181-1.312,0.34-2.028l-4.873-4.154c-0.841-0.717-1.522-2.193-1.522-3.298V15.229c0-1.104-0.859-1.746-1.918-1.434
		L22.384,21.29l2.35,3.328C25.383,25.512,25.908,27.132,25.908,28.237z"/>
	<path d="M17.66,22.612c0,0,0.031,0.021,0.076,0.05l0.169-0.05H17.66z"/>
	<path d="M14.248,41.941c1.077,0.049,2.182-0.096,3.265-0.459l4.068-1.362c0,0-0.109-6.516,0-10.766
		c0.101-3.92-3.314-6.34-3.846-6.692l-5.938,1.752c-4.713,1.578-7.255,6.679-5.677,11.392C7.337,39.435,10.641,41.776,14.248,41.941
		z M10.705,31.467c1.05-0.344,2.276,0.523,2.738,1.935c0.462,1.412-0.015,2.836-1.064,3.179c-1.05,0.344-2.276-0.523-2.738-1.935
		C9.179,33.234,9.655,31.81,10.705,31.467z"/>
</g>
</svg>
