<?xml version="1.0" encoding="utf-8"?>
<!-- Generator: Adobe Illustrator 18.0.0, SVG Export Plug-In . SVG Version: 6.00 Build 0)  -->
<!DOCTYPE svg PUBLIC "-//W3C//DTD SVG 1.1//EN" "http://www.w3.org/Graphics/SVG/1.1/DTD/svg11.dtd">
<svg version="1.1" id="Capa_1" xmlns:sketch="http://www.bohemiancoding.com/sketch/ns"
	 xmlns="http://www.w3.org/2000/svg" xmlns:xlink="http://www.w3.org/1999/xlink" x="0px" y="0px" viewBox="0 0 32 32"
	 enable-background="new 0 0 32 32" xml:space="preserve">
<title>icon 122 printer</title>
<desc>Created with Sketch.</desc>
<g>
	<path d="M23,5c0-1.1-0.9-2-2-2H6C4.9,3,4,3.9,4,5v6h19V5z"/>
	<path d="M25,12H2c-1.7,0-3,1.3-3,3v9c0,1.7,1.3,3,3,3h1v-8h21v8h1c1.7,0,3-1.3,3-3v-9C28,13.3,26.7,12,25,12z M22,17
		c-0.6,0-1-0.4-1-1s0.4-1,1-1s1,0.4,1,1S22.6,17,22,17z"/>
	<path d="M4,28c0,1.1,0.9,2,2,2h15c1.1,0,2-0.9,2-2v-8H4V28z"/>
</g>
</svg>
