<?xml version="1.0" encoding="utf-8"?>
<!-- Generator: Adobe Illustrator 17.0.2, SVG Export Plug-In . SVG Version: 6.00 Build 0)  -->
<!DOCTYPE svg PUBLIC "-//W3C//DTD SVG 1.1//EN" "http://www.w3.org/Graphics/SVG/1.1/DTD/svg11.dtd">
<svg version="1.1" id="Capa_1" xmlns="http://www.w3.org/2000/svg" xmlns:xlink="http://www.w3.org/1999/xlink" x="0px" y="0px"
	 width="64px" height="64px" viewBox="0 0 64 64" enable-background="new 0 0 64 64" xml:space="preserve">
<g>
	<path fill="white" d="M11.589,50.223h23.398H54.48c1.105,0,2.011-0.896,1.989-2c-0.184-9.352-2.185-16.829-3.246-20.167
		c-0.335-1.053-1.547-1.891-2.651-1.891H15.497c-1.104,0-2.316,0.839-2.65,1.892C11.786,31.395,9.784,38.872,9.6,48.224
		C9.578,49.328,10.484,50.223,11.589,50.223z"/>
	<path fill="white" d="M59.035,28.548h-4.454c0.692,2.26,1.597,5.709,2.261,10h2.193c2.761,0,4-2.239,4-5
		C63.035,30.787,61.795,28.548,59.035,28.548z"/>
	<path fill="white" d="M6.535,38.548h2.192c0.664-4.29,1.569-7.74,2.261-10H6.535c-2.762,0-4,2.239-4,5C2.535,36.31,3.773,38.548,6.535,38.548z"
		/>
</g>
</svg>
