<?xml version="1.0" encoding="utf-8"?>
<!-- Generator: Adobe Illustrator 16.0.4, SVG Export Plug-In . SVG Version: 6.00 Build 0)  -->
<!DOCTYPE svg PUBLIC "-//W3C//DTD SVG 1.1//EN" "http://www.w3.org/Graphics/SVG/1.1/DTD/svg11.dtd">
<svg version="1.1" id="Layer_1" xmlns="http://www.w3.org/2000/svg" xmlns:xlink="http://www.w3.org/1999/xlink" x="0px" y="0px"
	 width="50px" height="50px" viewBox="0 0 50 50" enable-background="new 0 0 50 50" xml:space="preserve">
<path d="M37.667,22.167h-1.384V10.929c0-0.829-0.672-1.5-1.5-1.5H15.217c-0.829,0-1.5,0.671-1.5,1.5v11.238h-1.384
	c-0.829,0-1.5,0.671-1.5,1.5v9.334c0,0.829,0.671,1.5,1.5,1.5h1.384v4.569c0,0.83,0.671,1.5,1.5,1.5h19.566
	c0.828,0,1.5-0.67,1.5-1.5v-4.569h1.384c0.829,0,1.5-0.671,1.5-1.5v-9.334C39.167,22.838,38.496,22.167,37.667,22.167z
	 M16.717,12.429H29.25V16h4.033v6.167H16.717V12.429z M33.283,37.57H16.717v-3.069h16.566V37.57z"/>
</svg>
