<?xml version="1.0" encoding="utf-8"?>
<!-- Generator: Adobe Illustrator 12.0.0, SVG Export Plug-In  -->
<!DOCTYPE svg PUBLIC "-//W3C//DTD SVG 1.1//EN" "http://www.w3.org/Graphics/SVG/1.1/DTD/svg11.dtd" [
	<!ENTITY ns_flows "http://ns.adobe.com/Flows/1.0/">
	<!ENTITY ns_svg "http://www.w3.org/2000/svg">
	<!ENTITY ns_xlink "http://www.w3.org/1999/xlink">
]>
<svg  version="1.1" xmlns="&ns_svg;" xmlns:xlink="&ns_xlink;" xmlns:a="http://ns.adobe.com/AdobeSVGViewerExtensions/3.0/"
	 width="42" height="44" viewBox="-0.29 -0.08 42 44" enable-background="new -0.29 -0.08 42 44" xml:space="preserve">
<defs>
</defs>
<rect y="10.56" fill="#646567" width="11.86" height="8.55"/>
<path fill="#646567" d="M11.86,1.32c0-0.73-0.59-1.32-1.32-1.32H1.32C0.59,0,0,0.59,0,1.32v6.71h11.86V1.32L11.86,1.32z"/>
<path fill="#646567" d="M11.86,39.45v-6.71H0v6.71c0,0.73,0.59,1.32,1.32,1.32h9.22C11.27,40.77,11.86,40.18,11.86,39.45z
	 M5.93,35.53c0.67,0,1.22,0.55,1.22,1.22s-0.55,1.22-1.22,1.22c-0.67,0-1.22-0.55-1.22-1.22S5.26,35.53,5.93,35.53z"/>
<rect y="21.65" fill="#646567" width="11.86" height="8.56"/>
<polygon fill="#646567" points="24.86,15.76 15.05,10.25 13.37,13.24 13.37,18.62 20.89,22.84 "/>
<path fill="#646567" d="M29.14,8.13c0.17-0.29,0.21-0.64,0.11-0.96c-0.09-0.32-0.3-0.6-0.6-0.76l-7.62-4.28
	c-0.19-0.11-0.4-0.16-0.62-0.16c-0.46,0-0.88,0.25-1.1,0.64l-3.12,5.55l9.81,5.51L29.14,8.13z"/>
<polygon fill="#646567" points="13.37,33.4 13.37,36.23 14.58,34.08 "/>
<polygon fill="#646567" points="19.72,24.92 13.37,21.35 13.37,30.67 15.74,32 "/>
<polygon fill="#646567" points="26.58,16.96 25.1,18.15 21.81,24 27.28,30.82 33.62,25.74 26.68,17.08 "/>
<path fill="#646567" d="M40.64,18.5l-5.46-6.82c-0.24-0.3-0.6-0.47-0.98-0.47c-0.29,0-0.56,0.1-0.79,0.28l-4.97,3.98l7.04,8.78
	l4.97-3.98C40.99,19.83,41.08,19.04,40.64,18.5z"/>
<path fill="#646567" d="M13.72,38.42v1.03c0,1.22-0.99,2.21-2.21,2.21H9.68l0.81,1.01c0.24,0.3,0.6,0.47,0.98,0.47
	c0.28,0,0.56-0.1,0.79-0.27l4.97-3.99l-2.22-2.77L13.72,38.42z"/>
<polygon fill="#646567" points="16.27,33.87 19.09,37.39 25.43,32.31 20.56,26.24 "/>
</svg>
