<?xml version="1.0" encoding="utf-8"?>
<!-- Generator: Adobe Illustrator 12.0.0, SVG Export Plug-In  -->
<!DOCTYPE svg PUBLIC "-//W3C//DTD SVG 1.1//EN" "http://www.w3.org/Graphics/SVG/1.1/DTD/svg11.dtd" [
	<!ENTITY ns_flows "http://ns.adobe.com/Flows/1.0/">
	<!ENTITY ns_svg "http://www.w3.org/2000/svg">
	<!ENTITY ns_xlink "http://www.w3.org/1999/xlink">
]>
<svg  version="1.1" xmlns="&ns_svg;" xmlns:xlink="&ns_xlink;" xmlns:a="http://ns.adobe.com/AdobeSVGViewerExtensions/3.0/"
	 width="34" height="29" viewBox="-0.62 -0.01 34 29" enable-background="new -0.62 -0.01 34 29" xml:space="preserve">
<defs>
</defs>
<polygon fill="#646567" points="15.75,0 9.29,9.24 5.72,0.05 "/>
<polygon fill="#646567" points="5.03,0.62 8.54,9.67 0,9.61 "/>
<polygon fill="#646567" points="0.19,10.47 8.86,10.52 15.3,28.73 "/>
<polygon fill="#646567" points="16.08,28.38 9.77,10.53 16.12,10.56 "/>
<polygon fill="#646567" points="16.12,9.71 10.03,9.67 16.11,0.97 16.15,0.92 16.13,8.06 "/>
<polygon fill="#646567" points="33.11,9.61 24.57,9.67 28.08,0.62 "/>
<polygon fill="#646567" points="27.38,0.05 23.82,9.24 17.36,0 "/>
<polygon fill="#646567" points="16.98,8.06 16.96,0.92 16.99,0.97 23.08,9.67 16.98,9.71 "/>
<polygon fill="#646567" points="16.99,10.56 23.34,10.53 17.02,28.38 "/>
<polygon fill="#646567" points="17.81,28.73 24.25,10.52 32.92,10.47 "/>
</svg>
