<?xml version="1.0" encoding="utf-8"?>
<!-- Generator: Adobe Illustrator 12.0.0, SVG Export Plug-In  -->
<!DOCTYPE svg PUBLIC "-//W3C//DTD SVG 1.1//EN" "http://www.w3.org/Graphics/SVG/1.1/DTD/svg11.dtd" [
	<!ENTITY ns_flows "http://ns.adobe.com/Flows/1.0/">
	<!ENTITY ns_svg "http://www.w3.org/2000/svg">
	<!ENTITY ns_xlink "http://www.w3.org/1999/xlink">
]>
<svg  version="1.1" xmlns="&ns_svg;" xmlns:xlink="&ns_xlink;" xmlns:a="http://ns.adobe.com/AdobeSVGViewerExtensions/3.0/"
	 width="45" height="52" viewBox="-0.46 -0.13 45 52" enable-background="new -0.46 -0.13 45 52" xml:space="preserve">
<defs>
</defs>
<path fill="#646567" d="M0,41.17v9.46c0,0.62,0.51,1.13,1.12,1.13H21.2c0.62,0,1.13-0.51,1.13-1.13v-9.46l0,0c0,0,0.04-2.9-2.76-3.5
	c-2.08-0.44-3.99-1.06-4.96-2.24h-6.9c-0.97,1.18-2.88,1.79-4.96,2.24C-0.05,38.28,0,41.17,0,41.17L0,41.17z"/>
<path fill="#646567" d="M40.98,13.61c0.12-0.2,0.1-0.46-0.04-0.65c-0.25-0.33-0.51-0.63-0.77-0.9c-0.72-0.76-0.11-2.01,0.94-1.9
	c0.28,0.03,0.57,0.07,0.86,0.12c0.29,0.04,0.57-0.12,0.65-0.4c1.19-3.71,1.08-7.23,0.83-9.36c-0.07-0.56-0.79-0.71-1.09-0.23
	c-1.17,1.92-4.19,4.94-11.96,7.04c-10.7,2.89-14.03,10.95-15.04,15.11c-1.65,1.6-3.26,3.26-4.82,4.95
	c-0.04,0.04-0.07,0.09-0.11,0.13h4.42c0.87-0.89,1.74-1.78,2.63-2.65C31.18,23.97,37.84,19,40.98,13.61z"/>
<path fill="#646567" d="M13.21,29.27h-2.95h-4.2c-0.62,0-1.13,0.51-1.13,1.13v2.04c0,0.62,0.51,1.13,1.13,1.13h10.21
	c0.62,0,1.12-0.51,1.12-1.13V30.4c0-0.62-0.51-1.13-1.12-1.13H13.21z"/>
</svg>
