<?xml version="1.0" encoding="utf-8"?>
<!-- Generator: Adobe Illustrator 12.0.0, SVG Export Plug-In  -->
<!DOCTYPE svg PUBLIC "-//W3C//DTD SVG 1.1//EN" "http://www.w3.org/Graphics/SVG/1.1/DTD/svg11.dtd" [
	<!ENTITY ns_flows "http://ns.adobe.com/Flows/1.0/">
	<!ENTITY ns_svg "http://www.w3.org/2000/svg">
	<!ENTITY ns_xlink "http://www.w3.org/1999/xlink">
]>
<svg  version="1.1" xmlns="&ns_svg;" xmlns:xlink="&ns_xlink;" xmlns:a="http://ns.adobe.com/AdobeSVGViewerExtensions/3.0/"
	 width="36" height="46" viewBox="-0.49 -0.1 36 46" enable-background="new -0.49 -0.1 36 46" xml:space="preserve">
<defs>
</defs>
<path fill="#646567" d="M32.68,13.69H18.96v14.09h15.58V15.56C34.54,14.53,33.71,13.69,32.68,13.69z"/>
<path fill="#646567" d="M0,15.56v12.22h15.59V13.69H1.87C0.84,13.69,0,14.53,0,15.56z"/>
<path fill="#646567" d="M18.96,45.25h13.72c1.03,0,1.87-0.84,1.87-1.87V31.15H18.96V45.25z"/>
<path fill="#646567" d="M0,43.38c0,1.03,0.84,1.87,1.87,1.87h13.72V31.15H0V43.38z"/>
<path fill="#646567" d="M33.34,4.76c0.08-1.13-0.27-3.84-5.33-4.6C27.3,0.05,26.59,0,25.92,0c-3.93,0-6.31,1.77-7.62,3.25
	c-0.38,0.43-0.73,0.9-1.02,1.4c-0.3-0.5-0.64-0.97-1.02-1.4C14.94,1.77,12.55,0,8.62,0C7.95,0,7.25,0.05,6.53,0.16
	c-5.06,0.75-5.41,3.47-5.33,4.6c0.15,1.97,1.89,3.97,4.79,5.5c2.83,1.49,6.33,2.31,9.86,2.31h2.83c3.53,0,7.04-0.82,9.86-2.31
	C31.45,8.73,33.19,6.73,33.34,4.76z M15.25,9.21c-2.79-0.08-5.51-0.76-7.71-1.91c-2.12-1.12-2.97-2.3-3-2.78
	c0-0.04-0.01-0.12,0.21-0.29C5,4.03,5.62,3.68,7.03,3.47c0.55-0.08,1.09-0.12,1.6-0.12c3.19,0,4.87,1.59,5.71,2.92
	C15.1,7.46,15.28,8.61,15.25,9.21z M19.29,9.21c-0.03-0.6,0.16-1.75,0.92-2.95c0.84-1.33,2.52-2.92,5.71-2.92
	c0.51,0,1.04,0.04,1.6,0.12c1.41,0.21,2.03,0.56,2.28,0.75C30.01,4.39,30,4.47,30,4.51C29.96,5,29.12,6.18,26.99,7.29
	C24.8,8.45,22.08,9.12,19.29,9.21z"/>
</svg>
