<?xml version="1.0" encoding="utf-8"?>
<!-- Generator: Adobe Illustrator 12.0.0, SVG Export Plug-In  -->
<!DOCTYPE svg PUBLIC "-//W3C//DTD SVG 1.1//EN" "http://www.w3.org/Graphics/SVG/1.1/DTD/svg11.dtd" [
	<!ENTITY ns_flows "http://ns.adobe.com/Flows/1.0/">
	<!ENTITY ns_svg "http://www.w3.org/2000/svg">
	<!ENTITY ns_xlink "http://www.w3.org/1999/xlink">
]>
<svg version="1.1" xmlns="&ns_svg;" xmlns:xlink="&ns_xlink;" xmlns:a="http://ns.adobe.com/AdobeSVGViewerExtensions/3.0/"
	 width="192px" height="61px" viewBox="-8.374 -4.87 192 61" enable-background="new -8.374 -4.87 192 61" xml:space="preserve">
<defs>
</defs>
<path d="M60.016,17.065c0.059,1.07-4.725,3.966-13.865,4.485c-9.139,0.515-14.221-1.826-14.282-2.896
	c-0.061-1.064,4.723-3.959,13.863-4.479C54.872,13.661,59.954,15.999,60.016,17.065z M45.533,10.666
	c-8.466,0.48-17.451,3.248-17.175,8.187c0.286,4.947,9.528,6.685,17.99,6.205c8.466-0.479,17.452-3.245,17.175-8.189
	C63.24,11.926,53.999,10.189,45.533,10.666z"/>
<path d="M75.646,6.358c-0.189-0.356-0.133-0.705-0.075-0.819c-0.356,0.708-3.717,3.465-10.209,6.921
	c-6.493,3.457-10.659,4.707-11.447,4.608c0.125,0.016,0.446,0.163,0.636,0.517c0.206,0.385,0.12,0.728,0.076,0.817
	c0.356-0.707,3.716-3.464,10.208-6.924c6.495-3.455,10.659-4.705,11.446-4.605C76.155,6.858,75.835,6.711,75.646,6.358z
	 M63.495,8.959c-13.054,6.955-11.856,9.219-11.463,9.964c0.4,0.75,1.61,3.01,14.671-3.947c1.788-0.952,10.752-5.837,11.576-8.549
	c0.149-0.492,0.108-0.994-0.117-1.416C77.765,4.271,76.558,2.01,63.495,8.959z"/>
<path d="M100.139,11.156c-0.019,0.085-0.146,0.251-0.448,0.445c-1.871,1.204-7.316,1.648-14.104,0.17
	c-8.946-1.948-13.219-5.557-12.993-6.604c0.228-1.044,5.611-2.556,14.558-0.608c6.799,1.479,11.57,4.143,12.768,6.008
	C100.11,10.866,100.157,11.069,100.139,11.156z M87.9,1.123c-8.289-1.803-17.688-1.54-18.743,3.299
	c-1.044,4.838,7.396,8.981,15.683,10.784c7.145,1.555,13.721,1.3,16.753-0.65c1.35-0.87,1.821-1.924,1.979-2.657
	c0.159-0.729,0.169-1.884-0.695-3.231C100.934,5.643,95.055,2.681,87.9,1.123z"/>
<path d="M115.877,18.157c-0.262-1.037,3.886-4.786,12.763-7.034c6.74-1.702,12.194-1.44,14.099-0.303
	c0.306,0.184,0.442,0.348,0.461,0.433c0.023,0.089-0.018,0.292-0.197,0.594c-1.134,1.906-5.809,4.73-12.557,6.438
	C121.572,20.525,116.141,19.195,115.877,18.157z M131.313,21.693c7.1-1.798,12.875-4.958,14.713-8.048
	c0.815-1.376,0.768-2.529,0.583-3.253c-0.182-0.721-0.689-1.764-2.066-2.587c-3.085-1.847-9.668-1.881-16.764-0.089
	c-8.225,2.082-16.521,6.507-15.309,11.304C113.684,23.816,123.086,23.768,131.313,21.693z"/>
<polygon points="93.11,19.407 89.404,19.386 87.288,22.431 86.161,18.9 82.612,17.829 85.622,15.663 85.549,11.955 88.535,14.152 
	92.036,12.935 90.875,16.455 "/>
<polygon points="39.954,12.037 36.25,12.229 34.311,15.386 32.984,11.921 29.384,11.053 32.268,8.72 31.98,5.024 35.086,7.047 
	38.516,5.63 37.551,9.212 "/>
<polygon points="136.489,5.251 133.188,6.938 132.718,10.617 130.086,8.003 126.439,8.689 128.111,5.38 126.34,2.129 130.002,2.696 
	132.55,0 133.135,3.659 "/>
<path d="M31.008,15.734c-0.733,0.244-2.009,1.146-1.585,2.833c0.469,1.897,3.585,5.149,12.278,5.298
	c8.338,0.148,12.72-1.137,12.902-1.191l-0.232-0.779l0,0c-0.043,0.014-4.458,1.303-12.655,1.158
	c-8.217-0.141-11.119-3.125-11.504-4.684c-0.339-1.346,0.911-1.814,1.054-1.864L31.008,15.734z"/>
<path d="M100.228,14.804c0.771-0.05,2.236-0.604,2.257-2.341c0.021-1.954-2.168-5.889-10.528-8.245
	c-8.027-2.267-12.59-2.144-12.78-2.137l0.027,0.811h0c0.045,0,4.644-0.121,12.53,2.108c7.905,2.228,9.958,5.851,9.939,7.453
	c-0.019,1.391-1.348,1.528-1.5,1.54L100.228,14.804z"/>
<path d="M119.285,16.64c0.085-0.396,0.353-0.628,0.469-0.68c-0.725,0.315-5.07,0.275-12.271-1.232
	c-7.199-1.51-11.196-3.221-11.738-3.8c0.088,0.094,0.241,0.415,0.157,0.809c-0.082,0.389-0.348,0.621-0.467,0.671
	c0.728-0.315,5.075-0.276,12.274,1.232c7.196,1.504,11.192,3.218,11.734,3.801C119.375,17.366,119.2,17.063,119.285,16.64z
	 M108.293,10.847c-1.982-0.415-11.995-2.408-14.365-0.858c-0.43,0.281-0.72,0.693-0.816,1.16c-0.099,0.461,0,0.955,0.281,1.384
	c1.544,2.373,11.521,4.57,13.506,4.988c1.985,0.414,12.001,2.406,14.366,0.856c0.428-0.28,0.719-0.693,0.816-1.161
	C122.253,16.391,122.771,13.873,108.293,10.847z"/>
<path d="M142.971,8.117l-0.002-0.001c0.053,0.03,1.302,0.747,1.418,2.385c0.205,2.857-7.168,6.146-10.026,7.173l0.274,0.763
	c1.113-0.398,10.848-4.011,10.562-7.993c-0.147-2.091-1.768-3.003-1.835-3.04L142.971,8.117z"/>
<path d="M3.327,48.521C0.659,46.129,0,42.992,0,40.381c0-1.84,0.632-5.056,3.079-7.503c1.649-1.651,4.15-2.941,8.384-2.941
	c1.1,0,2.639,0.082,3.985,0.328c1.045,0.193,1.924,0.359,2.804,0.413c0.302,0.027,0.357,0.139,0.357,0.302
	c0,0.219-0.082,0.549-0.138,1.539c-0.055,0.909-0.055,2.421-0.082,2.831c-0.028,0.413-0.082,0.578-0.247,0.578
	c-0.192,0-0.221-0.191-0.221-0.578c0-1.071-0.44-2.198-1.154-2.802c-0.962-0.824-3.078-1.568-5.497-1.568
	c-3.657,0-5.361,1.072-6.323,2.005c-2.007,1.926-2.475,4.372-2.475,7.176c0,5.25,4.041,10.061,9.924,10.061
	c2.063,0,3.684-0.248,4.783-1.374c0.577-0.604,0.936-1.814,1.017-2.311c0.056-0.302,0.111-0.409,0.275-0.409
	c0.138,0,0.193,0.19,0.193,0.409c0,0.193-0.33,2.585-0.605,3.521c-0.164,0.521-0.219,0.576-0.715,0.798
	c-1.099,0.439-3.188,0.631-4.948,0.631C8.273,51.488,5.498,50.473,3.327,48.521z"/>
<path d="M31.826,38.176c0.227-0.577,0.309-0.681,0.432-0.681c0.186,0,0.247,0.249,0.434,0.639c0.33,0.743,3.236,7.979,4.35,10.64
	c0.66,1.565,1.155,1.793,1.547,1.916c0.267,0.084,0.536,0.104,0.721,0.104c0.103,0,0.227,0.041,0.227,0.144
	c0,0.103-0.206,0.145-0.412,0.145c-0.269,0-1.608,0-2.866-0.042c-0.351-0.021-0.64-0.021-0.64-0.123
	c0-0.083,0.042-0.083,0.124-0.124c0.103-0.04,0.289-0.185,0.165-0.474l-1.628-4.019c-0.042-0.084-0.062-0.105-0.165-0.105h-4.186
	c-0.082,0-0.144,0.041-0.185,0.145l-1.032,2.805c-0.164,0.432-0.267,0.865-0.267,1.175c0,0.351,0.309,0.474,0.618,0.474h0.166
	c0.145,0,0.187,0.063,0.187,0.144c0,0.103-0.104,0.145-0.269,0.145c-0.434,0-1.424-0.063-1.629-0.063
	c-0.186,0-1.093,0.063-1.834,0.063c-0.227,0-0.352-0.042-0.352-0.145c0-0.081,0.083-0.144,0.165-0.144
	c0.125,0,0.393-0.02,0.536-0.04c0.825-0.104,1.176-0.723,1.526-1.609L31.826,38.176z M33.846,45.474
	c0.082,0,0.082-0.041,0.062-0.124l-1.794-4.803c-0.103-0.268-0.206-0.268-0.309,0l-1.69,4.803c-0.021,0.083,0,0.124,0.061,0.124
	H33.846z"/>
<path d="M44.71,50.835c-0.247-0.125-0.268-0.185-0.268-0.66c0-0.867,0.083-1.565,0.103-1.855c0-0.185,0.042-0.29,0.146-0.29
	c0.102,0,0.164,0.062,0.164,0.209c0,0.143,0,0.388,0.062,0.637c0.289,1.279,1.65,1.733,2.867,1.733c1.792,0,2.721-1.011,2.721-2.331
	c0-1.258-0.681-1.856-2.288-3.05l-0.826-0.619c-1.958-1.464-2.598-2.536-2.598-3.754c0-2.062,1.628-3.297,4.02-3.297
	c0.723,0,1.443,0.103,1.876,0.204c0.351,0.084,0.495,0.084,0.64,0.084c0.145,0,0.185,0.02,0.185,0.123
	c0,0.084-0.083,0.661-0.083,1.856c0,0.27-0.02,0.392-0.144,0.392c-0.123,0-0.145-0.082-0.166-0.226
	c-0.021-0.209-0.164-0.682-0.267-0.868c-0.125-0.207-0.721-0.865-2.351-0.865c-1.319,0-2.412,0.659-2.412,1.895
	c0,1.115,0.557,1.754,2.351,2.97l0.515,0.35c2.206,1.506,2.968,2.722,2.968,4.227c0,1.031-0.392,2.146-1.691,2.989
	c-0.761,0.496-1.897,0.619-2.887,0.619C46.504,51.309,45.452,51.187,44.71,50.835z"/>
<path d="M63.924,38.176c0.227-0.577,0.311-0.681,0.434-0.681c0.186,0,0.248,0.249,0.433,0.639c0.33,0.743,3.237,7.979,4.351,10.64
	c0.66,1.565,1.153,1.793,1.546,1.916c0.269,0.084,0.536,0.104,0.722,0.104c0.104,0,0.226,0.041,0.226,0.144
	c0,0.103-0.206,0.145-0.412,0.145c-0.268,0-1.608,0-2.865-0.042c-0.351-0.021-0.64-0.021-0.64-0.123
	c0-0.083,0.042-0.083,0.125-0.124c0.102-0.04,0.289-0.185,0.165-0.474l-1.628-4.019c-0.042-0.084-0.063-0.105-0.166-0.105h-4.185
	c-0.082,0-0.145,0.041-0.186,0.145l-1.031,2.805c-0.165,0.432-0.268,0.865-0.268,1.175c0,0.351,0.31,0.474,0.619,0.474h0.165
	c0.144,0,0.185,0.063,0.185,0.144c0,0.103-0.103,0.145-0.268,0.145c-0.433,0-1.422-0.063-1.627-0.063
	c-0.187,0-1.094,0.063-1.836,0.063c-0.228,0-0.351-0.042-0.351-0.145c0-0.081,0.083-0.144,0.165-0.144
	c0.123,0,0.392-0.02,0.536-0.04c0.825-0.104,1.176-0.723,1.526-1.609L63.924,38.176z M65.945,45.474
	c0.083,0,0.083-0.041,0.063-0.124l-1.795-4.803c-0.104-0.268-0.206-0.268-0.31,0l-1.689,4.803c-0.021,0.083,0,0.124,0.061,0.124
	H65.945z"/>
<path d="M92.211,48.814c0.063,0.618,0.185,1.568,0.928,1.815c0.515,0.165,0.989,0.165,1.173,0.165c0.083,0,0.145,0.041,0.145,0.124
	c0,0.102-0.166,0.165-0.371,0.165c-0.412,0-2.432-0.042-3.093-0.103c-0.432-0.042-0.515-0.102-0.515-0.186
	c0-0.061,0.042-0.124,0.125-0.144c0.104-0.021,0.123-0.29,0.083-0.619l-0.867-8.866h-0.042l-4.371,8.948
	c-0.371,0.765-0.473,0.927-0.639,0.927c-0.165,0-0.268-0.163-0.618-0.804c-0.474-0.864-1.67-3.113-2.124-4.061
	c-0.535-1.113-1.999-4.063-2.308-4.784h-0.083l-0.701,7.917c-0.021,0.269-0.021,0.598-0.021,0.888c0,0.267,0.165,0.433,0.433,0.494
	c0.31,0.084,0.578,0.104,0.701,0.104c0.061,0,0.144,0.063,0.144,0.124c0,0.123-0.124,0.165-0.33,0.165
	c-0.681,0-1.546-0.063-1.69-0.063c-0.166,0-1.03,0.063-1.526,0.063c-0.186,0-0.309-0.042-0.309-0.165
	c0-0.061,0.083-0.124,0.185-0.124c0.145,0,0.269-0.02,0.537-0.061c0.597-0.104,0.619-0.743,0.701-1.403l1.319-11.443
	c0.021-0.185,0.103-0.309,0.207-0.309c0.123,0,0.268,0.06,0.371,0.268l5.483,10.886l5.276-10.866
	c0.084-0.164,0.167-0.288,0.292-0.288c0.123,0,0.227,0.144,0.267,0.475L92.211,48.814z"/>
<path d="M103.446,45.99c0,1.691,0,3.073,0.083,3.792c0.061,0.517,0.124,0.847,0.66,0.927c0.269,0.044,0.659,0.084,0.825,0.084
	c0.102,0,0.144,0.084,0.144,0.144c0,0.082-0.083,0.145-0.289,0.145c-1.009,0-2.186-0.063-2.266-0.063
	c-0.104,0-1.238,0.063-1.795,0.063c-0.185,0-0.289-0.042-0.289-0.145c0-0.06,0.04-0.144,0.145-0.144c0.164,0,0.392-0.04,0.555-0.084
	c0.352-0.081,0.413-0.41,0.476-0.927c0.081-0.72,0.103-2.102,0.103-3.792v-3.092c0-2.723,0-3.216-0.044-3.774
	c-0.039-0.597-0.183-0.865-0.575-0.948c-0.208-0.042-0.433-0.063-0.556-0.063c-0.084,0-0.146-0.081-0.146-0.144
	c0-0.103,0.082-0.144,0.289-0.144c0.599,0,1.733,0.041,1.837,0.041c0.081,0,1.257-0.041,1.813-0.041
	c0.205,0,0.287,0.041,0.287,0.144c0,0.063-0.083,0.144-0.143,0.144c-0.124,0-0.248,0-0.455,0.043
	c-0.494,0.103-0.598,0.351-0.64,0.968c-0.02,0.558-0.02,1.051-0.02,3.774V45.99z"/>
<path d="M113.528,42.898c0-2.723,0-3.216-0.041-3.774c-0.042-0.597-0.145-0.888-0.743-0.968c-0.143-0.022-0.454-0.043-0.617-0.043
	c-0.064,0-0.143-0.081-0.143-0.144c0-0.103,0.079-0.144,0.287-0.144c0.824,0,1.999,0.041,2.103,0.041c0.123,0,3.918,0.021,4.329,0
	c0.351-0.02,0.68-0.081,0.826-0.104c0.081-0.019,0.164-0.082,0.249-0.082c0.06,0,0.082,0.082,0.082,0.166
	c0,0.123-0.105,0.33-0.145,0.825c-0.022,0.165-0.062,0.947-0.105,1.154c-0.019,0.083-0.081,0.187-0.163,0.187
	c-0.104,0-0.145-0.084-0.145-0.229c0-0.123-0.022-0.412-0.104-0.618c-0.125-0.289-0.31-0.412-1.299-0.535
	c-0.31-0.041-2.413-0.064-2.617-0.064c-0.083,0-0.104,0.064-0.104,0.187v4.763c0,0.124,0,0.185,0.104,0.185
	c0.225,0,2.617,0,3.028-0.041c0.436-0.04,0.703-0.062,0.888-0.247c0.125-0.124,0.207-0.228,0.269-0.228s0.103,0.042,0.103,0.145
	c0,0.103-0.103,0.391-0.145,0.968c-0.042,0.352-0.082,1.01-0.082,1.134c0,0.145-0.041,0.331-0.165,0.331
	c-0.082,0-0.125-0.062-0.125-0.164c0-0.167,0-0.352-0.081-0.577c-0.063-0.249-0.227-0.455-0.93-0.537
	c-0.493-0.062-2.433-0.084-2.741-0.084c-0.102,0-0.123,0.064-0.123,0.124v1.465c0,0.597-0.021,2.637,0,2.989
	c0.042,1.176,0.372,1.404,2.164,1.404c0.476,0,1.34,0,1.815-0.187c0.475-0.206,0.721-0.517,0.825-1.217
	c0.042-0.205,0.082-0.266,0.186-0.266c0.103,0,0.123,0.143,0.123,0.266c0,0.124-0.144,1.321-0.247,1.691
	c-0.124,0.454-0.311,0.454-1.01,0.454c-1.362,0-2.413-0.042-3.154-0.063c-0.764-0.042-1.238-0.042-1.505-0.042
	c-0.042,0-0.393,0-0.783,0.021c-0.352,0.021-0.764,0.042-1.052,0.042c-0.185,0-0.29-0.042-0.29-0.145
	c0-0.06,0.041-0.144,0.145-0.144c0.166,0,0.393-0.061,0.557-0.084c0.35-0.06,0.391-0.41,0.473-0.927
	c0.104-0.72,0.104-2.102,0.104-3.792V42.898z"/>
<path d="M129.775,48.691c0.04,1.441,0.206,1.876,0.7,1.999c0.331,0.084,0.743,0.104,0.909,0.104c0.082,0,0.143,0.063,0.143,0.144
	c0,0.103-0.124,0.145-0.329,0.145c-1.031,0-1.752-0.063-1.917-0.063c-0.165,0-0.927,0.063-1.754,0.063
	c-0.185,0-0.288-0.021-0.288-0.145c0-0.081,0.061-0.144,0.145-0.144c0.143,0,0.474-0.02,0.742-0.104
	c0.452-0.123,0.516-0.598,0.516-2.186V38.466c0-0.703,0.104-0.887,0.247-0.887c0.207,0,0.515,0.351,0.701,0.534
	c0.29,0.29,2.929,3.093,5.731,5.98c1.795,1.856,3.733,3.938,4.289,4.517l-0.185-8.784c-0.021-1.134-0.124-1.526-0.682-1.629
	c-0.328-0.062-0.74-0.083-0.886-0.083c-0.123,0-0.144-0.101-0.144-0.165c0-0.102,0.144-0.123,0.349-0.123
	c0.825,0,1.692,0.041,1.9,0.041c0.205,0,0.804-0.041,1.544-0.041c0.188,0,0.33,0.021,0.33,0.123c0,0.064-0.082,0.165-0.206,0.165
	c-0.084,0-0.228,0-0.432,0.043c-0.6,0.125-0.639,0.474-0.639,1.526l-0.042,10.268c0,1.154-0.021,1.254-0.146,1.254
	c-0.184,0-0.37-0.144-1.38-1.072c-0.184-0.163-2.802-2.742-4.72-4.74c-2.103-2.208-4.145-4.351-4.701-4.97L129.775,48.691z"/>
<path d="M154.268,45.99c0,1.691,0,3.073,0.081,3.792c0.064,0.517,0.146,0.847,0.703,0.927c0.247,0.044,0.659,0.084,0.823,0.084
	c0.124,0,0.145,0.084,0.145,0.144c0,0.082-0.083,0.145-0.29,0.145c-0.989,0-2.142-0.063-2.246-0.063
	c-0.082,0-1.34,0.063-1.877,0.063c-0.206,0-0.288-0.042-0.288-0.145c0-0.06,0.041-0.124,0.143-0.124c0.166,0,0.372-0.04,0.538-0.081
	c0.371-0.083,0.474-0.434,0.535-0.951c0.084-0.72,0.084-2.102,0.084-3.792v-7.36l-2.62,0.041c-1.134,0.02-1.566,0.144-1.835,0.557
	c-0.206,0.31-0.227,0.432-0.287,0.555c-0.043,0.145-0.103,0.167-0.186,0.167c-0.04,0-0.125-0.042-0.125-0.146
	c0-0.186,0.372-1.751,0.393-1.897c0.042-0.102,0.124-0.329,0.186-0.329c0.124,0,0.31,0.144,0.804,0.207
	c0.516,0.061,1.217,0.081,1.423,0.081h6.845c0.598,0,1.009-0.041,1.299-0.081c0.269-0.042,0.433-0.083,0.514-0.083
	c0.083,0,0.083,0.103,0.083,0.205c0,0.536-0.06,1.794-0.06,2c0,0.144-0.085,0.228-0.166,0.228c-0.084,0-0.124-0.063-0.144-0.311
	l-0.022-0.185c-0.062-0.537-0.454-0.928-2.185-0.969l-2.267-0.041V45.99z"/>
<path d="M171.667,37.579c4.084,0,7.176,2.494,7.176,6.576c0,3.916-2.908,7.154-7.279,7.154c-4.968,0-7.092-3.731-7.092-6.885
	C164.473,41.6,166.657,37.579,171.667,37.579z M172.081,50.587c1.627,0,4.906-0.864,4.906-5.937c0-4.205-2.556-6.414-5.422-6.414
	c-3.03,0-5.216,1.899-5.216,5.712C166.349,48.031,168.803,50.587,172.081,50.587z"/>
</svg>
