<?xml version="1.0" encoding="utf-8"?>
<!-- Generator: Adobe Illustrator 12.0.0, SVG Export Plug-In  -->
<!DOCTYPE svg PUBLIC "-//W3C//DTD SVG 1.1//EN" "http://www.w3.org/Graphics/SVG/1.1/DTD/svg11.dtd" [
	<!ENTITY ns_flows "http://ns.adobe.com/Flows/1.0/">
	<!ENTITY ns_svg "http://www.w3.org/2000/svg">
	<!ENTITY ns_xlink "http://www.w3.org/1999/xlink">
]>
<svg  version="1.1" xmlns="&ns_svg;" xmlns:xlink="&ns_xlink;" xmlns:a="http://ns.adobe.com/AdobeSVGViewerExtensions/3.0/"
	 width="328" height="95" viewBox="-0.1 -0.62 328 95" enable-background="new -0.1 -0.62 328 95" xml:space="preserve">
<defs>
</defs>
<path fill="#414141" d="M109.91,31.25c0.11,1.96-8.65,7.27-25.39,8.21c-16.74,0.94-26.04-3.34-26.16-5.3
	c-0.11-1.95,8.65-7.25,25.39-8.2C100.49,25.02,109.8,29.3,109.91,31.25z M83.39,19.53c-15.5,0.88-31.96,5.95-31.45,14.99
	c0.52,9.06,17.45,12.24,32.95,11.36c15.5-0.88,31.96-5.94,31.46-15C115.82,21.84,98.89,18.66,83.39,19.53z"/>
<path fill="#414141" d="M138.54,11.64c-0.35-0.65-0.24-1.29-0.14-1.5c-0.65,1.3-6.81,6.34-18.7,12.67
	c-11.89,6.33-19.52,8.62-20.96,8.44c0.23,0.03,0.82,0.3,1.16,0.94c0.38,0.71,0.22,1.33,0.14,1.5c0.65-1.29,6.8-6.34,18.7-12.68
	c11.89-6.33,19.52-8.62,20.96-8.43C139.47,12.56,138.88,12.29,138.54,11.64z M116.28,16.41C92.38,29.15,94.57,33.29,95.29,34.66
	c0.73,1.37,2.95,5.51,26.87-7.23c3.27-1.74,19.69-10.69,21.2-15.66c0.27-0.9,0.2-1.82-0.21-2.59
	C142.42,7.82,140.21,3.68,116.28,16.41z"/>
<path fill="#414141" d="M183.39,20.43c-0.03,0.15-0.27,0.46-0.82,0.81c-3.42,2.2-13.4,3.02-25.83,0.31
	c-16.38-3.57-24.21-10.18-23.79-12.09c0.42-1.91,10.28-4.68,26.66-1.11c12.45,2.71,21.19,7.59,23.38,11
	C183.34,19.9,183.43,20.27,183.39,20.43z M160.98,2.06c-15.18-3.3-32.39-2.82-34.32,6.04c-1.91,8.86,13.55,16.45,28.72,19.75
	c13.09,2.85,25.13,2.38,30.68-1.19c2.47-1.59,3.33-3.52,3.63-4.87c0.29-1.33,0.31-3.45-1.27-5.92
	C184.85,10.33,174.08,4.91,160.98,2.06z"/>
<path fill="#414141" d="M212.22,33.25c-0.48-1.9,7.12-8.77,23.37-12.88c12.35-3.12,22.33-2.64,25.82-0.55
	c0.56,0.34,0.81,0.64,0.84,0.79c0.04,0.16-0.03,0.54-0.36,1.09c-2.08,3.49-10.64,8.66-23,11.79
	C222.64,37.59,212.7,35.15,212.22,33.25z M240.48,39.73c13-3.29,23.58-9.08,26.95-14.74c1.5-2.52,1.41-4.63,1.07-5.96
	c-0.33-1.32-1.26-3.23-3.78-4.74c-5.65-3.38-17.71-3.44-30.7-0.16c-15.06,3.81-30.26,11.92-28.04,20.7
	C208.2,43.62,225.42,43.53,240.48,39.73z"/>
<polygon fill="#414141" points="170.52,35.54 163.73,35.5 159.86,41.08 157.79,34.61 151.29,32.65 156.81,28.69 156.67,21.89 
	162.14,25.92 168.55,23.69 166.43,30.13 "/>
<polygon fill="#414141" points="73.17,22.04 66.39,22.39 62.84,28.18 60.41,21.83 53.81,20.24 59.09,15.97 58.57,9.2 64.26,12.9 
	70.54,10.31 68.77,16.87 "/>
<polygon fill="#414141" points="249.96,9.62 243.92,12.71 243.05,19.44 238.24,14.66 231.56,15.91 234.62,9.85 231.38,3.9 
	238.08,4.94 242.75,0 243.82,6.7 "/>
<path fill="#8F8C93" d="M56.79,28.81c-1.34,0.45-3.68,2.1-2.9,5.19c0.86,3.47,6.56,9.43,22.49,9.7c15.27,0.27,23.3-2.08,23.63-2.18
	l-0.43-1.43l0,0c-0.08,0.02-8.16,2.39-23.18,2.12c-15.05-0.26-20.36-5.72-21.07-8.58c-0.62-2.46,1.67-3.32,1.93-3.41L56.79,28.81z"
	/>
<path fill="#8F8C93" d="M183.55,27.11c1.42-0.09,4.1-1.11,4.13-4.29c0.04-3.58-3.97-10.78-19.28-15.1
	c-14.7-4.15-23.06-3.93-23.4-3.91l0.05,1.49h0c0.08,0,8.5-0.22,22.95,3.86c14.48,4.08,18.23,10.71,18.2,13.65
	c-0.03,2.55-2.47,2.8-2.75,2.82L183.55,27.11z"/>
<path fill="#414141" d="M218.46,30.47c0.15-0.72,0.64-1.15,0.86-1.24c-1.33,0.57-9.29,0.5-22.47-2.26
	c-13.19-2.77-20.51-5.9-21.5-6.96c0.16,0.17,0.44,0.76,0.28,1.48c-0.15,0.71-0.64,1.14-0.85,1.23c1.33-0.58,9.29-0.51,22.48,2.26
	c13.18,2.75,20.5,5.89,21.49,6.96C218.62,31.8,218.3,31.25,218.46,30.47z M198.33,19.86c-3.63-0.76-21.97-4.41-26.31-1.57
	c-0.79,0.51-1.32,1.27-1.5,2.12c-0.18,0.85,0,1.75,0.51,2.54c2.83,4.35,21.1,8.37,24.73,9.13c3.64,0.76,21.98,4.41,26.31,1.57
	c0.79-0.51,1.32-1.27,1.5-2.13C223.89,30.02,224.84,25.41,198.33,19.86z"/>
<path fill="#8F8C93" d="M261.83,14.87L261.83,14.87c0.1,0.05,2.38,1.37,2.59,4.37c0.37,5.23-13.13,11.25-18.36,13.13l0.5,1.4
	c2.04-0.73,19.87-7.35,19.34-14.64c-0.27-3.83-3.24-5.5-3.36-5.57L261.83,14.87z"/>
<path fill="#414141" d="M6.09,88.86C1.21,84.48,0,78.74,0,73.95c0-3.37,1.16-9.26,5.64-13.74c3.02-3.02,7.6-5.39,15.35-5.39
	c2.01,0,4.83,0.15,7.3,0.6c1.91,0.35,3.52,0.66,5.14,0.75c0.55,0.05,0.65,0.25,0.65,0.55c0,0.4-0.15,1.01-0.25,2.82
	c-0.1,1.66-0.1,4.43-0.15,5.18c-0.05,0.76-0.15,1.06-0.45,1.06c-0.35,0-0.4-0.35-0.4-1.06c0-1.96-0.81-4.02-2.11-5.13
	c-1.76-1.51-5.64-2.87-10.07-2.87c-6.7,0-9.82,1.96-11.58,3.67c-3.68,3.53-4.53,8.01-4.53,13.14c0,9.61,7.4,18.43,18.17,18.43
	c3.78,0,6.75-0.45,8.76-2.52c1.06-1.11,1.71-3.32,1.86-4.23c0.1-0.55,0.2-0.75,0.5-0.75c0.25,0,0.35,0.35,0.35,0.75
	c0,0.35-0.6,4.73-1.11,6.44c-0.3,0.96-0.4,1.06-1.31,1.46c-2.01,0.81-5.84,1.16-9.06,1.16C15.15,94.29,10.07,92.43,6.09,88.86z"/>
<path fill="#414141" d="M58.28,69.91c0.42-1.06,0.57-1.25,0.79-1.25c0.34,0,0.45,0.45,0.79,1.17c0.6,1.36,5.93,14.61,7.97,19.48
	c1.21,2.87,2.11,3.28,2.83,3.51c0.49,0.15,0.98,0.19,1.32,0.19c0.19,0,0.42,0.08,0.42,0.26c0,0.19-0.38,0.27-0.75,0.27
	c-0.49,0-2.94,0-5.25-0.08c-0.64-0.04-1.17-0.04-1.17-0.23c0-0.15,0.08-0.15,0.23-0.23c0.19-0.07,0.53-0.34,0.3-0.87l-2.98-7.36
	c-0.08-0.15-0.11-0.19-0.3-0.19h-7.66c-0.15,0-0.26,0.07-0.34,0.26L52.58,90c-0.3,0.79-0.49,1.59-0.49,2.15
	c0,0.64,0.57,0.87,1.13,0.87h0.3c0.26,0,0.34,0.11,0.34,0.26c0,0.19-0.19,0.27-0.49,0.27c-0.79,0-2.6-0.11-2.98-0.11
	c-0.34,0-2,0.11-3.36,0.11c-0.42,0-0.64-0.08-0.64-0.27c0-0.15,0.15-0.26,0.3-0.26c0.23,0,0.72-0.04,0.98-0.07
	c1.51-0.19,2.15-1.32,2.79-2.95L58.28,69.91z M61.98,83.28c0.15,0,0.15-0.08,0.11-0.23l-3.29-8.8c-0.19-0.49-0.38-0.49-0.57,0
	l-3.1,8.8c-0.04,0.15,0,0.23,0.11,0.23H61.98z"/>
<path fill="#414141" d="M81.88,93.1c-0.45-0.23-0.49-0.34-0.49-1.21c0-1.58,0.15-2.87,0.19-3.4c0-0.34,0.08-0.53,0.26-0.53
	c0.19,0,0.3,0.11,0.3,0.38c0,0.26,0,0.71,0.11,1.17c0.53,2.34,3.02,3.17,5.25,3.17c3.28,0,4.98-1.85,4.98-4.27
	c0-2.3-1.25-3.4-4.19-5.59l-1.51-1.13c-3.59-2.68-4.76-4.64-4.76-6.87c0-3.78,2.98-6.04,7.36-6.04c1.32,0,2.64,0.19,3.44,0.38
	c0.64,0.15,0.91,0.15,1.17,0.15c0.26,0,0.34,0.04,0.34,0.23c0,0.15-0.15,1.21-0.15,3.4c0,0.49-0.04,0.72-0.26,0.72
	c-0.23,0-0.26-0.15-0.3-0.42c-0.04-0.38-0.3-1.25-0.49-1.59c-0.23-0.38-1.32-1.58-4.3-1.58c-2.42,0-4.42,1.21-4.42,3.47
	c0,2.04,1.02,3.21,4.3,5.44l0.94,0.64c4.04,2.76,5.44,4.99,5.44,7.74c0,1.89-0.72,3.93-3.1,5.47c-1.4,0.91-3.47,1.13-5.29,1.13
	C85.17,93.97,83.24,93.74,81.88,93.1z"/>
<path fill="#414141" d="M117.07,69.91c0.42-1.06,0.57-1.25,0.79-1.25c0.34,0,0.45,0.45,0.79,1.17c0.6,1.36,5.93,14.61,7.97,19.48
	c1.21,2.87,2.11,3.28,2.83,3.51c0.49,0.15,0.98,0.19,1.32,0.19c0.19,0,0.42,0.08,0.42,0.26c0,0.19-0.38,0.27-0.75,0.27
	c-0.49,0-2.95,0-5.25-0.08c-0.64-0.04-1.17-0.04-1.17-0.23c0-0.15,0.08-0.15,0.23-0.23c0.19-0.07,0.53-0.34,0.3-0.87l-2.98-7.36
	c-0.08-0.15-0.11-0.19-0.3-0.19h-7.67c-0.15,0-0.26,0.07-0.34,0.26L111.37,90c-0.3,0.79-0.49,1.59-0.49,2.15
	c0,0.64,0.57,0.87,1.13,0.87h0.3c0.26,0,0.34,0.11,0.34,0.26c0,0.19-0.19,0.27-0.49,0.27c-0.79,0-2.6-0.11-2.98-0.11
	c-0.34,0-2,0.11-3.36,0.11c-0.41,0-0.64-0.08-0.64-0.27c0-0.15,0.15-0.26,0.3-0.26c0.23,0,0.72-0.04,0.98-0.07
	c1.51-0.19,2.15-1.32,2.79-2.95L117.07,69.91z M120.77,83.28c0.15,0,0.15-0.08,0.11-0.23l-3.29-8.8c-0.19-0.49-0.38-0.49-0.57,0
	l-3.1,8.8c-0.04,0.15,0,0.23,0.11,0.23H120.77z"/>
<path fill="#414141" d="M168.87,89.4c0.11,1.13,0.34,2.87,1.7,3.32c0.94,0.3,1.81,0.3,2.15,0.3c0.15,0,0.27,0.08,0.27,0.23
	c0,0.19-0.3,0.3-0.68,0.3c-0.75,0-4.45-0.08-5.66-0.19c-0.79-0.08-0.94-0.19-0.94-0.34c0-0.11,0.07-0.23,0.23-0.26
	c0.19-0.04,0.23-0.53,0.15-1.14l-1.59-16.23h-0.07l-8.01,16.39c-0.68,1.4-0.87,1.7-1.17,1.7c-0.3,0-0.49-0.3-1.13-1.47
	c-0.87-1.59-3.06-5.7-3.89-7.44c-0.98-2.04-3.66-7.44-4.23-8.76h-0.15l-1.28,14.5c-0.04,0.49-0.04,1.09-0.04,1.62
	c0,0.49,0.3,0.79,0.79,0.91c0.57,0.15,1.06,0.19,1.28,0.19c0.11,0,0.26,0.11,0.26,0.23c0,0.23-0.23,0.3-0.6,0.3
	c-1.25,0-2.83-0.11-3.1-0.11c-0.3,0-1.89,0.11-2.79,0.11c-0.34,0-0.57-0.08-0.57-0.3c0-0.11,0.15-0.23,0.34-0.23
	c0.26,0,0.49-0.04,0.98-0.11c1.09-0.19,1.13-1.36,1.28-2.57l2.42-20.95c0.04-0.34,0.19-0.57,0.38-0.57c0.23,0,0.49,0.11,0.68,0.49
	l10.04,19.94l9.67-19.9c0.15-0.3,0.3-0.53,0.53-0.53c0.23,0,0.42,0.26,0.49,0.87L168.87,89.4z"/>
<path fill="#414141" d="M189.45,84.22c0,3.1,0,5.63,0.15,6.95c0.11,0.95,0.23,1.55,1.21,1.7c0.49,0.08,1.21,0.15,1.51,0.15
	c0.19,0,0.26,0.15,0.26,0.26c0,0.15-0.15,0.27-0.53,0.27c-1.85,0-4-0.11-4.15-0.11c-0.19,0-2.27,0.11-3.29,0.11
	c-0.34,0-0.53-0.08-0.53-0.27c0-0.11,0.07-0.26,0.26-0.26c0.3,0,0.72-0.07,1.02-0.15c0.64-0.15,0.75-0.75,0.87-1.7
	c0.15-1.32,0.19-3.85,0.19-6.95v-5.66c0-4.99,0-5.89-0.08-6.91c-0.07-1.09-0.34-1.58-1.05-1.74c-0.38-0.08-0.79-0.12-1.02-0.12
	c-0.15,0-0.27-0.15-0.27-0.26c0-0.19,0.15-0.26,0.53-0.26c1.1,0,3.17,0.07,3.36,0.07c0.15,0,2.3-0.07,3.32-0.07
	c0.38,0,0.53,0.07,0.53,0.26c0,0.12-0.15,0.26-0.26,0.26c-0.23,0-0.45,0-0.83,0.08c-0.91,0.19-1.1,0.64-1.17,1.77
	c-0.04,1.02-0.04,1.92-0.04,6.91V84.22z"/>
<path fill="#414141" d="M207.91,78.56c0-4.99,0-5.89-0.07-6.91c-0.08-1.09-0.27-1.62-1.36-1.77c-0.26-0.04-0.83-0.08-1.13-0.08
	c-0.12,0-0.26-0.15-0.26-0.26c0-0.19,0.15-0.26,0.53-0.26c1.51,0,3.66,0.07,3.85,0.07c0.23,0,7.18,0.04,7.93,0
	c0.64-0.04,1.25-0.15,1.51-0.19c0.15-0.04,0.3-0.15,0.46-0.15c0.11,0,0.15,0.15,0.15,0.3c0,0.23-0.19,0.6-0.27,1.51
	c-0.04,0.3-0.11,1.74-0.19,2.11c-0.04,0.15-0.15,0.34-0.3,0.34c-0.19,0-0.27-0.15-0.27-0.42c0-0.23-0.04-0.76-0.19-1.13
	c-0.23-0.53-0.57-0.75-2.38-0.98c-0.57-0.08-4.42-0.11-4.79-0.11c-0.15,0-0.19,0.11-0.19,0.34v8.72c0,0.23,0,0.34,0.19,0.34
	c0.41,0,4.79,0,5.55-0.07c0.79-0.08,1.28-0.12,1.62-0.45c0.23-0.23,0.38-0.42,0.49-0.42s0.19,0.08,0.19,0.27
	c0,0.19-0.19,0.72-0.27,1.77c-0.08,0.64-0.15,1.85-0.15,2.08c0,0.27-0.08,0.6-0.3,0.6c-0.15,0-0.23-0.11-0.23-0.3
	c0-0.31,0-0.64-0.15-1.06c-0.12-0.45-0.42-0.83-1.7-0.98c-0.91-0.11-4.46-0.15-5.02-0.15c-0.19,0-0.23,0.12-0.23,0.23v2.68
	c0,1.09-0.04,4.83,0,5.47c0.08,2.15,0.68,2.57,3.96,2.57c0.87,0,2.45,0,3.32-0.34c0.87-0.38,1.32-0.95,1.51-2.23
	c0.08-0.38,0.15-0.49,0.34-0.49s0.23,0.26,0.23,0.49c0,0.23-0.26,2.42-0.45,3.1c-0.23,0.83-0.57,0.83-1.85,0.83
	c-2.49,0-4.42-0.08-5.77-0.12c-1.4-0.07-2.27-0.07-2.76-0.07c-0.08,0-0.72,0-1.43,0.04c-0.64,0.04-1.4,0.08-1.93,0.08
	c-0.34,0-0.53-0.08-0.53-0.27c0-0.11,0.07-0.26,0.26-0.26c0.3,0,0.72-0.11,1.02-0.15c0.64-0.11,0.72-0.75,0.87-1.7
	c0.19-1.32,0.19-3.85,0.19-6.95V78.56z"/>
<path fill="#414141" d="M237.67,89.17c0.07,2.64,0.38,3.43,1.28,3.66c0.61,0.15,1.36,0.19,1.66,0.19c0.15,0,0.26,0.11,0.26,0.26
	c0,0.19-0.23,0.27-0.6,0.27c-1.89,0-3.21-0.11-3.51-0.11c-0.3,0-1.7,0.11-3.21,0.11c-0.34,0-0.53-0.04-0.53-0.27
	c0-0.15,0.11-0.26,0.26-0.26c0.26,0,0.87-0.04,1.36-0.19c0.83-0.23,0.94-1.09,0.94-4V70.44c0-1.29,0.19-1.62,0.45-1.62
	c0.38,0,0.94,0.64,1.28,0.98c0.53,0.53,5.36,5.66,10.5,10.95c3.29,3.4,6.84,7.21,7.85,8.27l-0.34-16.09
	c-0.04-2.08-0.23-2.79-1.25-2.98c-0.61-0.11-1.36-0.15-1.63-0.15c-0.23,0-0.26-0.19-0.26-0.3c0-0.19,0.26-0.23,0.64-0.23
	c1.51,0,3.1,0.07,3.47,0.07s1.47-0.07,2.83-0.07c0.34,0,0.6,0.04,0.6,0.23c0,0.11-0.15,0.3-0.38,0.3c-0.15,0-0.42,0-0.79,0.08
	c-1.1,0.23-1.17,0.87-1.17,2.79l-0.08,18.81c0,2.11-0.04,2.3-0.27,2.3c-0.34,0-0.68-0.26-2.53-1.96c-0.34-0.3-5.13-5.02-8.65-8.68
	c-3.85-4.04-7.59-7.97-8.61-9.1L237.67,89.17z"/>
<path fill="#414141" d="M282.52,84.22c0,3.1,0,5.63,0.15,6.95c0.12,0.95,0.26,1.55,1.28,1.7c0.45,0.08,1.21,0.15,1.51,0.15
	c0.23,0,0.26,0.15,0.26,0.26c0,0.15-0.15,0.27-0.53,0.27c-1.81,0-3.93-0.11-4.12-0.11c-0.15,0-2.45,0.11-3.44,0.11
	c-0.38,0-0.53-0.08-0.53-0.27c0-0.11,0.07-0.23,0.26-0.23c0.3,0,0.68-0.07,0.98-0.15c0.68-0.15,0.87-0.79,0.98-1.74
	c0.15-1.32,0.15-3.85,0.15-6.95V70.75l-4.8,0.07c-2.08,0.04-2.87,0.27-3.36,1.02c-0.38,0.57-0.42,0.79-0.53,1.02
	c-0.08,0.26-0.19,0.3-0.34,0.3c-0.07,0-0.23-0.08-0.23-0.26c0-0.34,0.68-3.21,0.72-3.47c0.08-0.19,0.23-0.6,0.34-0.6
	c0.23,0,0.57,0.26,1.47,0.38c0.94,0.11,2.23,0.15,2.61,0.15h12.54c1.1,0,1.85-0.07,2.38-0.15c0.49-0.08,0.79-0.15,0.94-0.15
	c0.15,0,0.15,0.19,0.15,0.38c0,0.98-0.12,3.28-0.12,3.66c0,0.26-0.15,0.42-0.3,0.42c-0.15,0-0.23-0.11-0.27-0.57l-0.04-0.34
	c-0.11-0.98-0.83-1.7-4-1.78l-4.15-0.07V84.22z"/>
<path fill="#414141" d="M314.39,68.82c7.48,0,13.14,4.57,13.14,12.04c0,7.17-5.33,13.1-13.33,13.1c-9.1,0-12.99-6.83-12.99-12.61
	C301.21,76.18,305.21,68.82,314.39,68.82z M315.15,92.64c2.98,0,8.98-1.58,8.98-10.87c0-7.7-4.68-11.74-9.93-11.74
	c-5.55,0-9.55,3.47-9.55,10.46C304.65,87.96,309.14,92.64,315.15,92.64z"/>
</svg>
