<?xml version="1.0" encoding="utf-8"?>
<!-- Generator: Adobe Illustrator 12.0.0, SVG Export Plug-In  -->
<!DOCTYPE svg PUBLIC "-//W3C//DTD SVG 1.1//EN" "http://www.w3.org/Graphics/SVG/1.1/DTD/svg11.dtd" [
	<!ENTITY ns_flows "http://ns.adobe.com/Flows/1.0/">
	<!ENTITY ns_svg "http://www.w3.org/2000/svg">
	<!ENTITY ns_xlink "http://www.w3.org/1999/xlink">
]>
<svg  version="1.1" xmlns="&ns_svg;" xmlns:xlink="&ns_xlink;" xmlns:a="http://ns.adobe.com/AdobeSVGViewerExtensions/3.0/"
	 width="401" height="88" viewBox="-0.8 -0.8 401 88" enable-background="new -0.8 -0.8 401 88" xml:space="preserve">
<defs>
</defs>
<g>
	<g>
		<path fill="#414141" d="M46.5,25.2c0.2-1.2,0.3-2.5,0.3-3.7c0-10.2-6.5-18.6-16.9-18.6c-8.4,0-20.7,6.8-20.7,18.6
			c0,7.5,6.4,5.4,6.4,7.7c0,0.9-1.2,1.8-4.8,1.8c-4.8,0-9.2-3.3-9.2-9.5C1.6,8.5,16.4,0,30.7,0c13.9,0,24.5,9.1,24.5,22.7
			c0,1.3-0.1,2.6-0.3,4c-3.2,21.9-20.9,36.9-38,36.9C5.3,63.6,0,59.1,0,54.2c0-6.2,7.9-9.1,13.9-9.3l11.4-32.7c0.9-2.6,4-4.5,6-4.5
			c1.1,0,1.8,0.5,1.8,1.7c0,0.4,0,0.7-0.2,1.1L20.7,45.8c3.5,1.3,4.8,3.9,4.8,5.9c0,2-1.3,3.4-2.7,3.4c-1.1,0-1.4-0.9-1.4-1.5
			c0-1.2-0.7-2.2-2.2-3.4l-0.4,1.1c-0.9,2.7-4.1,4.5-6.1,4.5c-1.1,0-1.8-0.5-1.8-1.6c0-0.4,0.1-0.8,0.3-1.2l1.7-4.8
			c-2,0.2-5.7,1.7-5.7,5.2c0,4,3.8,6.6,12.8,6.6C32.6,59.9,43.6,45.3,46.5,25.2z"/>
		<path fill="#414141" d="M58.8,40.7c-2.5-1.6-3.5-3.3-3.5-6.1c0-5.5,4.8-9.2,8.3-9.2c2.5,0,3.9,1.8,3.9,4c0,2.5-1,4.8-2.5,7
			c2.4,0.6,5.2,0.5,7.1,0.6c1.3,0.1,2.3,1,2.3,2.6c0,0.6-0.3,1.3-0.8,1.8c-1.2,1.2-6.2,6-6.2,9.7c0,1.4,0.6,2,1.6,2
			c2.2,0,6.3-2.8,9.9-7c0.4-0.4,1-0.7,1.5-0.7s1,0.3,1,0.9c0,0.6-0.4,1.4-1.2,2.5c-5.5,6.4-9.9,8.6-13,8.6c-3.7,0-5.7-3-5.7-5.6
			c0-2.1,1.2-5.2,5-8.5c-1.8-0.2-3.5-0.6-5.1-1.2c-1.8,2.5-3.9,5-5.4,6.8c-0.4,0.5-1.1,0.7-1.5,0.7c-0.5,0-1-0.3-1-1
			c0-0.5,0.4-1.3,1.2-2.4C55.8,44.7,57.4,42.6,58.8,40.7z M62.3,35.1c0.6-1.1,1.1-2.6,1.1-4.1c0-1.7-0.4-2.3-1.1-2.3
			c-1,0-1.8,1.4-1.8,2.7C60.6,32.9,61.5,34.4,62.3,35.1z"/>
		<path fill="#414141" d="M101.5,45.4c0.5,0,1,0.3,1,0.9c0,0.6-0.4,1.4-1.2,2.5c-4.4,5.1-10.6,8.6-16.5,8.6c-5.7,0-10-3.8-10-9.3
			C74.6,40,81.2,31,91,31c4.4,0,6.5,2.6,6.5,5.4c0,4.8-6.6,10.7-12.8,13.6c-0.4,0.2-0.7,0.3-1,0.3c-0.7,0-1.2-0.4-1.2-1.1
			c0-0.5,0.4-1.1,1.2-1.8c5.5-4.4,7.4-8.4,7.4-10.7c0-1.7-0.8-2.5-2-2.5c-3.8,0-8.1,6.8-8.1,12.8c0,4,2.6,6.2,6.4,6.2
			c3.7,0,8.4-2.1,12.5-7C100.3,45.7,100.9,45.4,101.5,45.4z"/>
		<path fill="#414141" d="M114.4,57.4c-2.6,0-4-1.4-4.2-3.5c-2,2.3-4.5,3.5-7,3.5c-4,0-7.5-3.4-7.5-8c0-8,8.2-18.4,18.6-18.4
			c4.4,0,7.8,1.8,7.8,5.3c0,4.4-3.9,5.3-5.3,5.3c-1.2,0-3.2-0.4-3.2-1.5c0-1.2,2.7-0.5,2.7-3.3c0-1.8-1.8-2.4-3.5-2.4
			c-6.3,0-10.9,8.8-10.9,14.3c0,2.5,1,4.9,3.3,4.9c1.8,0,4.8-2.6,6.3-6.5c1-2.6,3.7-4.4,5.5-4.4c1,0,1.6,0.4,1.6,1.4
			c0,0.4-0.1,0.8-0.3,1.3c-0.4,1.1-2.2,6.4-2.2,7.2c0,0.4,0.2,0.8,0.7,0.8c1.3,0,4.8-2.3,9-7.2c0.4-0.4,1-0.7,1.5-0.7s1,0.3,1,0.9
			c0,0.6-0.4,1.4-1.2,2.5C122.3,54.5,117.5,57.4,114.4,57.4z"/>
		<path fill="#414141" d="M128.1,52.9c-1,2.7-3.8,4.5-5.6,4.5c-0.9,0-1.5-0.4-1.5-1.4c0-0.4,0.1-0.8,0.3-1.3l5.6-16.5
			c0.2-0.5,0.4-1,0.4-1.2c0-0.2-0.1-0.4-0.4-0.4c-0.2,0-0.5,0.2-0.9,0.2c-0.5,0-1.1-0.3-1.1-0.9c0-1.3,4-4.9,8.5-4.9
			c0.9,0,1.6,0.5,1.6,1.5c0,0.4-0.1,0.8-0.3,1.3l-1.8,5.1c3.9-4.6,9.1-7.9,12.1-7.9c1.5,0,2.5,0.9,2.5,2.8c0,1-0.2,2.1-0.7,3.6
			l-0.7,2c4.2-4.8,10.1-8.4,13.4-8.4c1.5,0,2.4,0.7,2.4,2.3c0,1-0.4,2.5-1.2,4.1c-1.7,3.4-3.9,8.4-5.2,13c-0.2,0.6-0.3,1.2-0.3,1.7
			c0,0.7,0.2,1.2,0.8,1.2c1.4,0,4.8-2.3,9-7.2c0.4-0.4,1-0.7,1.5-0.7c0.6,0,1.1,0.3,1.1,1c0,0.5-0.4,1.3-1.3,2.4
			c-4.8,5.7-9.7,8.6-12.8,8.6c-3.2,0-4.7-1.9-4.7-4.8c-0.1-1,0.2-2.1,0.5-3.3c1.8-6.6,4.8-10.6,4.8-11.9c0-0.3-0.1-0.4-0.4-0.4
			c-1.8,0-9.2,7.3-10.8,12.1l-1.3,3.9c-0.9,2.7-3.8,4.5-5.6,4.5c-0.9,0-1.5-0.4-1.5-1.4c0-0.4,0.1-0.8,0.3-1.3l5.7-16.6
			c0.1-0.3,0.2-0.5,0.2-0.7c0-0.3-0.2-0.4-0.4-0.4c-1.8,0-9.1,7.3-10.6,12L128.1,52.9z"/>
		<path fill="#414141" d="M168.9,39.1c-1-1.4-1.8-3.2-1.8-5c0-5.2,5.9-9.7,9.7-9.7c1.6,0,2.7,0.8,2.7,2.7c0,2.7-2.9,6.6-4.9,9.2
			c2.6,3.2,5.9,6.9,5.9,11c0,0.4-0.1,1.6-0.3,2.2c2.3-0.1,3.7-0.8,5.9-3.3c0.4-0.4,1-0.7,1.5-0.7c0.5,0,1,0.3,1,0.9
			c0,0.6-0.4,1.4-1.2,2.5c-3.3,3.9-5.8,4.8-8.3,4.8c-0.3,0-0.8-0.1-0.8-0.1c-2.4,2.8-6,3.9-9.5,3.9c-3.2,0-6.1-1.8-6.1-4
			c0-2.4,3.3-4.6,9.2-4.6c1,0,2.2,0.1,3.1,0.2c-0.2-2.7-2.4-5.1-4.5-7.7l-6.1,7.4c-0.4,0.4-0.9,0.7-1.4,0.7c-0.6,0-1.1-0.3-1.1-1
			c0-0.5,0.4-1.3,1.2-2.4C164.8,44.3,167,41.4,168.9,39.1z M174,52.4c-1.4-0.4-2.7-0.7-4.1-0.7c-1.6,0-2.2,0.7-2.2,1.3
			c0,0.8,0.8,1.6,2.2,1.6C171.3,54.6,172.8,53.7,174,52.4z M172.7,33.8c1.2-1.8,2.2-3.5,2.3-4.8c0-0.6-0.2-1-0.6-1
			c-0.9,0-2.5,1.5-2.5,3.1C171.9,32.1,172.1,32.6,172.7,33.8z"/>
		<path fill="#414141" d="M220,40c0,2.9-1,6.2-3,9.1c0.4,0.1,1,0.1,1.4,0.1c2.2,0,4.3-0.9,6.2-3.1c0.4-0.4,0.8-0.7,1.5-0.7
			c0.5,0,1,0.3,1,0.9c0,0.6-0.4,1.4-1.2,2.5c-2.6,3.1-5.8,4.4-8.9,4.4c-1,0-2-0.2-3-0.4c-3.3,3.1-7.2,4.7-10.6,4.7
			c-5.4,0-8.4-4-8.4-9c0-3.6,1.5-7.8,4.4-11.3c2-2.4,4.1-4,4.8-4c0.7,0,1.2,0.7,1.2,1.5c0,0.3-0.1,0.6-0.4,0.9
			c-2,2.1-3.9,6-3.9,10.1c0,4.4,2.1,7.8,5.2,7.8c1.5,0,3.2-0.8,4.6-2.2c-3.5-2.1-6.1-6-6.1-10.6c0-4.1,2.4-9.8,7.7-9.8
			c1.6,0,3.3,0.6,4.7,2C219.1,34.8,220,37.3,220,40z M208,39.4c0,3.3,2.3,6.5,5.4,8.4c0.7-1.8,1.1-3.8,1.1-5.6
			c0-3.3-1.1-6.9-3.4-6.9C208.9,35.3,208,37.4,208,39.4z"/>
		<path fill="#414141" d="M241.5,52.1c0,0.7,0.2,1.2,0.8,1.2c1.4,0,4.8-2.3,9-7.2c0.4-0.4,1-0.7,1.5-0.7c0.6,0,1.1,0.3,1.1,1
			c0,0.5-0.4,1.3-1.3,2.4c-4.8,5.7-9.7,8.6-12.8,8.6c-3.2,0-4.7-1.9-4.7-4.8c0-1,0.2-2.1,0.5-3.3c1.8-6.5,4.8-10.6,4.8-11.8
			c0-0.4-0.2-0.5-0.4-0.5c-2,0-10,7.3-11.7,12.1l-1.3,3.9c-0.9,2.7-3.8,4.5-5.6,4.5c-0.9,0-1.5-0.4-1.5-1.4c0-0.4,0.1-0.8,0.3-1.3
			l5.6-16.5c0.2-0.5,0.4-1,0.4-1.2c0-0.2-0.1-0.4-0.4-0.4c-0.2,0-0.5,0.1-0.8,0.1c-0.6,0-1.2-0.3-1.2-0.9c0-1.4,4.2-4.8,8.5-4.8
			c0.9,0,1.5,0.4,1.5,1.5c0,0.4-0.1,0.8-0.3,1.3l-2,5.9c4.4-5,10.7-8.7,14.3-8.7c1.5,0,2.6,0.8,2.6,2.4c0,0.9-0.4,2.4-1.2,4
			c-1.7,3.4-3.9,8.5-5.2,13C241.6,51,241.5,51.7,241.5,52.1z"/>
		<path fill="#414141" d="M256,82.3c-1,2.7-3.8,4.5-5.6,4.5c-0.9,0-1.5-0.4-1.5-1.4c0-0.4,0.1-0.8,0.3-1.3l15.8-45.8
			c0.2-0.5,0.4-1,0.4-1.2c0-0.2-0.1-0.4-0.4-0.4c-0.2,0-0.5,0.2-1,0.2s-1.1-0.3-1.1-0.9c0-1.5,4-4.9,8.5-4.9c0.9,0,1.6,0.5,1.6,1.5
			c0,0.4-0.1,0.8-0.3,1.3l-1.1,3c3.3-3.9,6.8-5.8,9.9-5.8c4.6,0,6.8,4.3,6.8,7.9c0,3.5-1.6,7.4-3.4,10.2c0,0,0.7,0.1,1.2,0.1
			c3.1,0,4.2-1.2,5.9-3.1c0.4-0.4,1-0.7,1.5-0.7c0.5,0,1,0.3,1,0.9c0,0.6-0.4,1.4-1.2,2.5c-2.7,3.2-5.2,4.1-7.6,4.1
			c-1.1,0-2.2-0.3-3.3-0.6c-3.3,4.1-7.7,5.1-10,5.1c-2.5,0-4.4-1.2-4.4-3.5c0-1.8,1.2-6.1,7.7-6.1c1.3,0,2.8,0.2,4.7,0.5
			c1-2.4,1.5-5.3,1.5-7.5c0-3-1-5.3-3.5-5.3c-3.5,0-8.4,6.6-10.5,12.6L256,82.3z M272.6,53c0,0.9,0.5,1.6,1.7,1.6
			c1.4,0,3.2-1.2,4.6-3.4c-1.1-0.4-2.3-0.8-3.3-0.8C273.6,50.3,272.6,51.7,272.6,53z"/>
		<path fill="#414141" d="M306.4,57.4c-2.6,0-4-1.4-4.2-3.5c-2,2.3-4.5,3.5-7,3.5c-4,0-7.5-3.4-7.5-8c0-8,8.2-18.4,18.6-18.4
			c4.4,0,7.8,1.8,7.8,5.3c0,4.4-3.9,5.3-5.3,5.3c-1.2,0-3.2-0.4-3.2-1.5c0-1.2,2.7-0.5,2.7-3.3c0-1.8-1.8-2.4-3.5-2.4
			c-6.3,0-10.9,8.8-10.9,14.3c0,2.5,1,4.9,3.3,4.9c1.8,0,4.8-2.6,6.3-6.5c1-2.6,3.7-4.4,5.5-4.4c1,0,1.6,0.4,1.6,1.4
			c0,0.4-0.1,0.8-0.3,1.3c-0.4,1.1-2.2,6.4-2.2,7.2c0,0.4,0.2,0.8,0.7,0.8c1.3,0,4.8-2.3,9-7.2c0.4-0.4,1-0.7,1.5-0.7
			c0.5,0,1,0.3,1,0.9c0,0.6-0.4,1.4-1.2,2.5C314.3,54.5,309.5,57.4,306.4,57.4z"/>
		<path fill="#414141" d="M309.9,82.3c-1,2.7-3.8,4.5-5.6,4.5c-0.9,0-1.5-0.4-1.5-1.4c0-0.4,0.1-0.8,0.3-1.3l15.8-45.8
			c0.2-0.5,0.4-1,0.4-1.2c0-0.2-0.1-0.4-0.4-0.4c-0.2,0-0.5,0.2-1,0.2s-1.1-0.3-1.1-0.9c0-1.5,4-4.9,8.5-4.9c0.9,0,1.6,0.5,1.6,1.5
			c0,0.4-0.1,0.8-0.3,1.3l-1.1,3c3.3-3.9,6.8-5.8,9.9-5.8c4.6,0,6.8,4.3,6.8,7.9c0,3.5-1.6,7.4-3.4,10.2c0,0,0.7,0.1,1.2,0.1
			c3.1,0,4.2-1.2,5.9-3.1c0.4-0.4,1-0.7,1.5-0.7c0.5,0,1,0.3,1,0.9c0,0.6-0.4,1.4-1.2,2.5c-2.7,3.2-5.2,4.1-7.6,4.1
			c-1.1,0-2.2-0.3-3.3-0.6c-3.3,4.1-7.7,5.1-10,5.1c-2.5,0-4.4-1.2-4.4-3.5c0-1.8,1.2-6.1,7.7-6.1c1.3,0,2.8,0.2,4.7,0.5
			c1-2.4,1.5-5.3,1.5-7.5c0-3-1-5.3-3.5-5.3c-3.5,0-8.4,6.6-10.5,12.6L309.9,82.3z M326.6,53c0,0.9,0.5,1.6,1.7,1.6
			c1.4,0,3.2-1.2,4.6-3.4c-1.1-0.4-2.3-0.8-3.3-0.8C327.5,50.3,326.6,51.7,326.6,53z"/>
		<path fill="#414141" d="M368.6,45.4c0.5,0,1,0.3,1,0.9c0,0.6-0.4,1.4-1.2,2.5c-4.4,5.1-10.6,8.6-16.5,8.6c-5.7,0-10-3.8-10-9.3
			c0-8,6.6-17.1,16.4-17.1c4.4,0,6.5,2.6,6.5,5.4c0,4.8-6.6,10.7-12.8,13.6c-0.4,0.2-0.7,0.3-1,0.3c-0.7,0-1.2-0.4-1.2-1.1
			c0-0.5,0.4-1.1,1.2-1.8c5.5-4.4,7.4-8.4,7.4-10.7c0-1.7-0.8-2.5-2-2.5c-3.8,0-8.1,6.8-8.1,12.8c0,4,2.6,6.2,6.4,6.2
			c3.7,0,8.4-2.1,12.5-7C367.5,45.7,368.1,45.4,368.6,45.4z"/>
		<path fill="#414141" d="M369.6,40.7c-2.5-1.6-3.5-3.3-3.5-6.1c0-5.5,4.8-9.2,8.3-9.2c2.5,0,3.9,1.8,3.9,4c0,2.5-1,4.8-2.5,7
			c2.4,0.6,5.2,0.5,7.1,0.6c1.3,0.1,2.3,1,2.3,2.6c0,0.6-0.3,1.3-0.8,1.8c-1.2,1.2-6.2,6-6.2,9.7c0,1.4,0.6,2,1.6,2
			c2.2,0,6.3-2.8,9.9-7c0.4-0.4,1-0.7,1.5-0.7s1,0.3,1,0.9c0,0.6-0.4,1.4-1.2,2.5c-5.5,6.4-9.9,8.6-13,8.6c-3.7,0-5.7-3-5.7-5.6
			c0-2.1,1.2-5.2,5-8.5c-1.8-0.2-3.5-0.6-5.1-1.2c-1.8,2.5-3.9,5-5.4,6.8c-0.4,0.5-1.1,0.7-1.5,0.7c-0.5,0-1-0.3-1-1
			c0-0.5,0.4-1.3,1.2-2.4C366.6,44.7,368.2,42.6,369.6,40.7z M373.1,35.1c0.6-1.1,1.1-2.6,1.1-4.1c0-1.7-0.4-2.3-1.1-2.3
			c-1,0-1.8,1.4-1.8,2.7C371.4,32.9,372.3,34.4,373.1,35.1z"/>
		<path fill="#414141" d="M399.8,51.4c0,2.6-3.2,6-6.8,6c-1.8,0-3.3-1.1-3.3-2.9c0-2.8,3.2-6,6.8-6
			C398.2,48.5,399.8,49.5,399.8,51.4z"/>
	</g>
</g>
</svg>
