<?xml version="1.0" encoding="utf-8"?>
<!-- Generator: Adobe Illustrator 12.0.0, SVG Export Plug-In  -->
<!DOCTYPE svg PUBLIC "-//W3C//DTD SVG 1.1//EN" "http://www.w3.org/Graphics/SVG/1.1/DTD/svg11.dtd" [
	<!ENTITY ns_flows "http://ns.adobe.com/Flows/1.0/">
	<!ENTITY ns_svg "http://www.w3.org/2000/svg">
	<!ENTITY ns_xlink "http://www.w3.org/1999/xlink">
]>
<svg  version="1.1" xmlns="&ns_svg;" xmlns:xlink="&ns_xlink;" xmlns:a="http://ns.adobe.com/AdobeSVGViewerExtensions/3.0/"
	 width="113" height="112" viewBox="-0.82 -0.9 113 112" enable-background="new -0.82 -0.9 113 112" xml:space="preserve">
<defs>
</defs>
<path fill="#45423F" d="M48.76,69.84c0,1.15,0,2.09,0.06,2.6c0.04,0.35,0.11,0.61,0.47,0.66c0.17,0.03,0.43,0.05,0.54,0.05
	c0.07,0,0.1,0.04,0.1,0.07c0,0.06-0.06,0.1-0.19,0.1c-0.66,0-1.41-0.04-1.47-0.04c-0.06,0-0.81,0.04-1.17,0.04
	c-0.13,0-0.19-0.02-0.19-0.1c0-0.03,0.02-0.07,0.1-0.07c0.11,0,0.25-0.02,0.36-0.05c0.24-0.05,0.3-0.31,0.35-0.66
	c0.06-0.5,0.06-1.45,0.06-2.6v-5.07l-1.77,0.02c-0.74,0.01-1.03,0.1-1.22,0.38c-0.13,0.2-0.17,0.29-0.21,0.37
	c-0.04,0.1-0.07,0.12-0.12,0.12c-0.04,0-0.06-0.04-0.06-0.11c0-0.12,0.24-1.15,0.26-1.25c0.02-0.07,0.07-0.23,0.12-0.23
	c0.08,0,0.2,0.12,0.53,0.14c0.35,0.04,0.8,0.06,0.95,0.06h4.49c0.38,0,0.66-0.02,0.85-0.06c0.18-0.02,0.29-0.06,0.33-0.06
	c0.06,0,0.06,0.07,0.06,0.14c0,0.36-0.04,1.19-0.04,1.32c0,0.11-0.04,0.16-0.08,0.16c-0.06,0-0.08-0.04-0.09-0.2l-0.01-0.13
	c-0.04-0.36-0.32-0.64-1.47-0.66l-1.51-0.02V69.84z"/>
<path fill="#45423F" d="M60.4,70.35c0,0.98,0.01,1.79,0.06,2.2c0.04,0.3,0.06,0.49,0.38,0.54c0.14,0.03,0.38,0.05,0.47,0.05
	c0.07,0,0.09,0.05,0.09,0.08c0,0.05-0.06,0.08-0.18,0.08c-0.58,0-1.25-0.04-1.31-0.04c-0.05,0-0.73,0.04-1.04,0.04
	c-0.12,0-0.17-0.02-0.17-0.08c0-0.04,0.02-0.08,0.08-0.08c0.1,0,0.22-0.02,0.31-0.05c0.22-0.05,0.25-0.25,0.29-0.55
	c0.05-0.42,0.05-1.18,0.05-2.17v-1.02c0-0.05-0.02-0.06-0.06-0.06h-4.39c-0.04,0-0.06,0.01-0.06,0.06v1.02c0,0.98,0,1.76,0.05,2.18
	c0.04,0.3,0.07,0.49,0.38,0.54c0.16,0.03,0.38,0.05,0.48,0.05c0.06,0,0.08,0.05,0.08,0.08c0,0.05-0.05,0.08-0.17,0.08
	c-0.59,0-1.26-0.04-1.31-0.04c-0.06,0-0.73,0.04-1.05,0.04c-0.11,0-0.17-0.02-0.17-0.08c0-0.04,0.02-0.08,0.08-0.08
	c0.09,0,0.23-0.02,0.32-0.05c0.2-0.05,0.23-0.24,0.28-0.54c0.06-0.42,0.06-1.22,0.06-2.2v-1.79c0-1.58,0-1.87-0.02-2.19
	c-0.02-0.35-0.08-0.52-0.43-0.56c-0.08-0.01-0.26-0.02-0.36-0.02c-0.04,0-0.08-0.05-0.08-0.08c0-0.06,0.05-0.08,0.17-0.08
	c0.48,0,1.15,0.02,1.21,0.02c0.05,0,0.72-0.02,1.04-0.02c0.12,0,0.17,0.02,0.17,0.08c0,0.04-0.05,0.08-0.08,0.08
	c-0.07,0-0.14,0-0.26,0.02c-0.29,0.06-0.35,0.2-0.37,0.56c-0.01,0.32-0.01,0.63-0.01,2.22v0.21c0,0.06,0.02,0.06,0.06,0.06h4.39
	c0.04,0,0.06,0,0.06-0.06v-0.21c0-1.58-0.01-1.89-0.02-2.22c-0.02-0.35-0.07-0.52-0.42-0.56c-0.08-0.01-0.26-0.02-0.36-0.02
	c-0.05,0-0.08-0.05-0.08-0.08c0-0.06,0.05-0.08,0.17-0.08c0.47,0,1.15,0.02,1.2,0.02c0.06,0,0.73-0.02,1.04-0.02
	c0.12,0,0.18,0.02,0.18,0.08c0,0.04-0.05,0.08-0.09,0.08c-0.07,0-0.13,0-0.26,0.02c-0.28,0.06-0.34,0.2-0.36,0.56
	c-0.02,0.32-0.02,0.61-0.02,2.19V70.35z"/>
<path fill="#45423F" d="M63.87,68.56c0-1.58,0-1.87-0.02-2.19c-0.02-0.35-0.08-0.52-0.43-0.56c-0.08-0.01-0.26-0.02-0.36-0.02
	c-0.04,0-0.08-0.05-0.08-0.08c0-0.06,0.05-0.08,0.17-0.08c0.48,0,1.16,0.02,1.22,0.02c0.07,0,2.28,0.01,2.51,0
	c0.2-0.01,0.4-0.05,0.48-0.06c0.05-0.01,0.1-0.05,0.14-0.05c0.04,0,0.05,0.05,0.05,0.1c0,0.07-0.06,0.19-0.08,0.48
	c-0.01,0.1-0.04,0.55-0.06,0.67c-0.01,0.05-0.05,0.11-0.09,0.11c-0.06,0-0.08-0.05-0.08-0.13c0-0.07-0.01-0.24-0.06-0.36
	c-0.07-0.17-0.18-0.24-0.75-0.31c-0.18-0.02-1.4-0.04-1.52-0.04c-0.05,0-0.06,0.04-0.06,0.11v2.77c0,0.07,0,0.11,0.06,0.11
	c0.13,0,1.52,0,1.76-0.03c0.25-0.02,0.41-0.04,0.51-0.14c0.07-0.07,0.12-0.13,0.16-0.13c0.04,0,0.06,0.03,0.06,0.08
	c0,0.06-0.06,0.23-0.08,0.56c-0.02,0.2-0.05,0.59-0.05,0.66c0,0.08-0.02,0.19-0.1,0.19c-0.05,0-0.07-0.04-0.07-0.09
	c0-0.1,0-0.2-0.05-0.33c-0.04-0.14-0.13-0.26-0.54-0.31c-0.29-0.04-1.41-0.05-1.59-0.05c-0.06,0-0.07,0.04-0.07,0.07v0.85
	c0,0.35-0.01,1.53,0,1.74c0.02,0.68,0.22,0.81,1.26,0.81c0.28,0,0.78,0,1.05-0.11c0.27-0.12,0.42-0.3,0.48-0.71
	c0.02-0.12,0.05-0.16,0.11-0.16c0.06,0,0.07,0.08,0.07,0.16c0,0.07-0.08,0.77-0.14,0.98c-0.07,0.26-0.18,0.26-0.59,0.26
	c-0.79,0-1.4-0.02-1.83-0.03c-0.44-0.03-0.72-0.03-0.87-0.03c-0.02,0-0.23,0-0.46,0.01c-0.2,0.01-0.44,0.02-0.61,0.02
	c-0.11,0-0.17-0.02-0.17-0.08c0-0.04,0.02-0.08,0.08-0.08c0.1,0,0.23-0.04,0.32-0.05c0.2-0.04,0.23-0.24,0.28-0.54
	c0.06-0.42,0.06-1.22,0.06-2.2V68.56z"/>
<path fill="#45423F" d="M27.12,81.19c-4.86,1.43-8.02,14.7-21.71,14.7C2.2,95.89,0,94.11,0,91.41c0-1.27,0.84-2.7,2.28-2.7
	c1.18,0,2.11,0.68,2.11,2.03c0,1.1-0.68,2.03-1.94,2.03c-1.06,0-1.18-0.34-1.48-0.34c-0.17,0-0.21,0.13-0.21,0.25
	c0,0.93,1.86,2.7,4.73,2.7c5.75,0,10.14-5.58,13.52-9.38l-0.08-0.08c-1.27,0.59-2.7,1.01-4.39,1.01c-2.87,0-4.48-1.86-4.48-4.73
	c0-1.1,0.42-2.28,0.85-3.04c-4.14-0.67-8.28-2.87-8.28-7.6c0-4.39,4.9-6.67,9.21-6.67c2.62,0,5.32,0.51,7.77,1.43l-0.17,0.42
	c-2.19-0.76-4.56-1.35-7.69-1.35c-3.8,0-8.11,2.11-8.11,7.18c0,3.55,4.48,5.66,7.43,6.08c3.04-6.42,13.68-13.77,21.29-13.77
	c2.2,0,4.48,0.84,4.48,3.29c0,6.08-14.36,11.32-20.95,11.32c-0.67,0-1.52,0-2.53-0.08c-0.68,0.93-1.78,2.62-1.78,4.06
	c0,2.11,1.35,2.96,2.79,2.96c1.77,0,3.63-0.59,5.07-1.27c1.69-2.62,3.97-4.22,7.69-4.22V81.19z M32.1,65.39
	c-5.74,0-15.04,9.21-18.58,13.52c1.01,0.08,1.94,0.08,2.96,0.08c6.84,0,19.85-5.91,19.85-10.9C36.32,65.9,33.87,65.39,32.1,65.39z"
	/>
<path fill="#45423F" d="M40.38,88.66c-3.93,3.38-9,7.22-13.52,7.22c-1.27,0-2.62-0.51-2.62-2.11c0-4.56,8.24-11.66,12.71-11.66
	c1.14,0,1.9,0.8,1.9,1.9c0,3.93-7.35,6.13-10.47,6.13c-2.49,2.7-2.87,3.63-2.87,4.22c0,0.84,0.84,1.01,1.69,1.01
	c3.72,0,8.19-3.08,13.18-7.22V88.66z M36.96,82.62c-1.61,0-3.8,2.11-8.15,7.01c4.52,0,9.04-3.89,9.04-6.17
	C37.84,83.01,37.51,82.62,36.96,82.62z"/>
<path fill="#45423F" d="M46.54,82.62h2.62l-3.67,3.97l0.08,0.08c2.03-1.82,5.28-4.31,7.18-4.31c1.48,0,2.41,0.97,2.41,2.45
	c0,3.46-7.1,8.53-7.1,9.97c0,0.34,0.25,0.59,0.68,0.59c1.39,0,4.18-2.15,9.97-7.39v0.59c-4.52,4.22-8.19,7.31-9.97,7.31
	c-0.97,0-1.69-0.59-1.69-1.94c0-3.17,7.1-8.28,7.1-9.88c0-0.67-0.51-1.18-1.35-1.18c-2.54,0-9.29,5.74-14.87,12.25h-2.96
	L46.54,82.62z"/>
<path fill="#45423F" d="M73.24,88.66c-3.93,3.38-9,7.22-13.52,7.22c-1.27,0-2.62-0.51-2.62-2.11c0-4.56,8.24-11.66,12.71-11.66
	c1.14,0,1.9,0.8,1.9,1.9c0,3.93-7.35,6.13-10.47,6.13c-2.49,2.7-2.87,3.63-2.87,4.22c0,0.84,0.84,1.01,1.69,1.01
	c3.71,0,8.19-3.08,13.18-7.22V88.66z M69.81,82.62c-1.6,0-3.8,2.11-8.15,7.01c4.52,0,9.04-3.89,9.04-6.17
	C70.7,83.01,70.36,82.62,69.81,82.62z"/>
<path fill="#45423F" d="M76.7,86.43l3.55-3.29c-0.17-0.34-0.25-0.63-0.25-1.01c0-1.18,0.67-2.87,2.11-2.87
	c0.34,0,0.68,0.42,0.68,0.76c0,1.1-1.35,2.45-2.03,3.21c1.01,1.39,2.03,2.54,2.03,4.39c0,1.6-1.1,3.04-2.03,4.22
	c2.66-0.46,4.22-1.22,6.08-3.46l0.25,0.25c-1.77,2.11-3.29,3.34-6.93,3.72c-2.36,1.99-4.81,3.55-7.35,3.55
	c-2.2,0-3.04-1.27-3.04-2.96c0-1.86,1.86-4.9,3.72-4.9c0.68,0,1.35,0.59,1.35,1.43c0,0.93-0.85,1.61-1.44,1.61
	c-0.84,0-1.35-0.67-1.35-1.52h-0.08c-0.93,0.68-1.69,2.03-1.69,3.46c0,1.27,0.68,2.37,1.94,2.37c2.03,0,9.29-6.84,9.29-9.8
	c0-0.55-0.38-1.4-1.01-2.11l-3.55,3.21L76.7,86.43z"/>
<path fill="#45423F" d="M93.59,82.62h2.7L88.9,90.9c-2.45,2.75-3,3.42-3,3.8c0,0.42,0.34,0.68,1.1,0.68c1.9,0,5.15-2.87,10.64-7.48
	l0.3,0.3c-4.44,3.89-9,7.69-11.03,7.69c-1.52,0-2.03-0.84-2.03-2.03c0-0.93,0.51-1.86,1.69-3.21L93.59,82.62z M100.35,74.01
	c0.85,0,1.52,0.68,1.52,1.52s-0.67,1.52-1.52,1.52c-0.84,0-1.52-0.67-1.52-1.52S99.51,74.01,100.35,74.01z"/>
<path fill="#45423F" d="M101.79,86.43l3.55-3.29c-0.17-0.34-0.25-0.63-0.25-1.01c0-1.18,0.68-2.87,2.11-2.87
	c0.34,0,0.68,0.42,0.68,0.76c0,1.1-1.35,2.45-2.03,3.21c1.01,1.39,2.03,2.54,2.03,4.39c0,1.6-1.1,3.04-2.03,4.22
	c2.66-0.46,4.22-1.22,6.08-3.46l0.25,0.25c-1.77,2.11-3.29,3.34-6.93,3.72c-2.37,1.99-4.82,3.55-7.35,3.55
	c-2.2,0-3.04-1.27-3.04-2.96c0-1.86,1.86-4.9,3.71-4.9c0.68,0,1.35,0.59,1.35,1.43c0,0.93-0.84,1.61-1.44,1.61
	c-0.84,0-1.35-0.67-1.35-1.52h-0.09c-0.93,0.68-1.69,2.03-1.69,3.46c0,1.27,0.67,2.37,1.94,2.37c2.03,0,9.29-6.84,9.29-9.8
	c0-0.55-0.38-1.4-1.01-2.11l-3.55,3.21L101.79,86.43z"/>
<g>
	<g>
		<path fill="#45423F" d="M19.35,109.45c-1.16-1.04-1.45-2.41-1.45-3.54c0-0.8,0.27-2.2,1.34-3.27c0.72-0.72,1.81-1.28,3.65-1.28
			c0.48,0,1.15,0.04,1.74,0.14c0.46,0.08,0.84,0.16,1.22,0.18c0.13,0.01,0.16,0.06,0.16,0.13c0,0.09-0.04,0.24-0.06,0.67
			c-0.03,0.39-0.03,1.05-0.04,1.23c-0.01,0.18-0.04,0.25-0.11,0.25c-0.08,0-0.1-0.08-0.1-0.25c0-0.47-0.19-0.96-0.5-1.22
			c-0.42-0.36-1.34-0.68-2.39-0.68c-1.59,0-2.33,0.47-2.75,0.87c-0.88,0.84-1.08,1.9-1.08,3.13c0,2.29,1.76,4.38,4.32,4.38
			c0.9,0,1.61-0.11,2.08-0.6c0.25-0.26,0.41-0.79,0.44-1.01c0.02-0.13,0.05-0.18,0.12-0.18c0.06,0,0.08,0.08,0.08,0.18
			c0,0.08-0.14,1.13-0.26,1.53c-0.07,0.23-0.1,0.25-0.31,0.35c-0.48,0.19-1.39,0.27-2.16,0.27
			C21.5,110.74,20.29,110.29,19.35,109.45z"/>
		<path fill="#45423F" d="M31.48,102.73c2.37,0,4.17,1.45,4.17,3.82c0,2.27-1.69,4.15-4.23,4.15c-2.89,0-4.12-2.17-4.12-4
			C27.3,105.06,28.57,102.73,31.48,102.73z M31.72,110.28c0.95,0,2.85-0.5,2.85-3.45c0-2.44-1.49-3.72-3.15-3.72
			c-1.76,0-3.03,1.1-3.03,3.32C28.39,108.8,29.82,110.28,31.72,110.28z"/>
		<path fill="#45423F" d="M38.81,107.64c0,1.5,0.02,2.11,0.22,2.29c0.17,0.17,0.57,0.24,1.4,0.24c0.55,0,1.02-0.01,1.27-0.31
			c0.13-0.16,0.21-0.37,0.25-0.57c0.01-0.07,0.05-0.13,0.11-0.13c0.05,0,0.07,0.05,0.07,0.16c0,0.11-0.07,0.72-0.15,1.02
			c-0.07,0.24-0.11,0.28-0.67,0.28c-0.75,0-1.34-0.01-1.83-0.04c-0.48-0.01-0.84-0.03-1.15-0.03c-0.05,0-0.23,0-0.43,0.01
			c-0.21,0.01-0.44,0.02-0.61,0.02c-0.11,0-0.17-0.02-0.17-0.08c0-0.04,0.02-0.08,0.08-0.08c0.1,0,0.23-0.02,0.32-0.05
			c0.21-0.05,0.23-0.24,0.28-0.54c0.06-0.42,0.06-1.22,0.06-2.21v-1.79c0-1.58,0-1.87-0.03-2.19c-0.02-0.35-0.08-0.51-0.43-0.56
			c-0.08-0.01-0.26-0.02-0.36-0.02c-0.04,0-0.08-0.05-0.08-0.08c0-0.06,0.05-0.08,0.17-0.08c0.48,0,1.14,0.02,1.2,0.02
			c0.05,0,0.84-0.02,1.16-0.02c0.11,0,0.17,0.02,0.17,0.08c0,0.04-0.05,0.07-0.08,0.07c-0.07,0-0.23,0.01-0.35,0.03
			c-0.31,0.06-0.37,0.21-0.4,0.57c-0.01,0.32-0.01,0.61-0.01,2.19V107.64z"/>
		<path fill="#45423F" d="M45.21,107.64c0,1.5,0.02,2.11,0.22,2.29c0.17,0.17,0.57,0.24,1.4,0.24c0.55,0,1.02-0.01,1.27-0.31
			c0.13-0.16,0.21-0.37,0.25-0.57c0.01-0.07,0.05-0.13,0.11-0.13c0.05,0,0.07,0.05,0.07,0.16c0,0.11-0.07,0.72-0.16,1.02
			c-0.07,0.24-0.11,0.28-0.67,0.28c-0.75,0-1.34-0.01-1.83-0.04c-0.48-0.01-0.84-0.03-1.15-0.03c-0.05,0-0.23,0-0.43,0.01
			c-0.22,0.01-0.44,0.02-0.61,0.02c-0.11,0-0.17-0.02-0.17-0.08c0-0.04,0.02-0.08,0.08-0.08c0.09,0,0.23-0.02,0.32-0.05
			c0.2-0.05,0.23-0.24,0.28-0.54c0.06-0.42,0.06-1.22,0.06-2.21v-1.79c0-1.58,0-1.87-0.02-2.19c-0.02-0.35-0.08-0.51-0.43-0.56
			c-0.08-0.01-0.26-0.02-0.36-0.02c-0.03,0-0.08-0.05-0.08-0.08c0-0.06,0.05-0.08,0.17-0.08c0.48,0,1.14,0.02,1.2,0.02
			c0.05,0,0.84-0.02,1.16-0.02c0.11,0,0.17,0.02,0.17,0.08c0,0.04-0.05,0.07-0.08,0.07c-0.07,0-0.23,0.01-0.35,0.03
			c-0.31,0.06-0.37,0.21-0.39,0.57c-0.01,0.32-0.01,0.61-0.01,2.19V107.64z"/>
		<path fill="#45423F" d="M50.66,105.82c0-1.58,0-1.87-0.02-2.19c-0.03-0.35-0.08-0.51-0.43-0.56c-0.08-0.01-0.26-0.02-0.36-0.02
			c-0.04,0-0.08-0.05-0.08-0.08c0-0.06,0.05-0.08,0.17-0.08c0.48,0,1.16,0.02,1.22,0.02c0.07,0,2.28,0.01,2.52,0
			c0.2-0.01,0.39-0.05,0.48-0.06c0.05-0.01,0.1-0.05,0.15-0.05c0.04,0,0.05,0.05,0.05,0.1c0,0.07-0.06,0.19-0.08,0.48
			c-0.01,0.1-0.04,0.55-0.06,0.67c-0.01,0.05-0.05,0.11-0.09,0.11c-0.06,0-0.09-0.05-0.09-0.13c0-0.07-0.01-0.24-0.06-0.36
			c-0.07-0.17-0.18-0.24-0.75-0.31c-0.18-0.02-1.4-0.04-1.52-0.04c-0.05,0-0.06,0.04-0.06,0.11v2.77c0,0.07,0,0.11,0.06,0.11
			c0.13,0,1.52,0,1.76-0.02c0.25-0.03,0.41-0.04,0.52-0.15c0.07-0.07,0.12-0.13,0.16-0.13s0.06,0.03,0.06,0.08s-0.06,0.23-0.08,0.56
			c-0.03,0.2-0.05,0.59-0.05,0.66c0,0.08-0.03,0.19-0.1,0.19c-0.05,0-0.07-0.04-0.07-0.1c0-0.1,0-0.2-0.05-0.34
			c-0.03-0.14-0.13-0.26-0.54-0.31c-0.29-0.04-1.41-0.05-1.59-0.05c-0.06,0-0.07,0.04-0.07,0.07v0.85c0,0.35-0.01,1.53,0,1.74
			c0.02,0.68,0.21,0.82,1.26,0.82c0.28,0,0.78,0,1.05-0.11c0.28-0.12,0.42-0.3,0.48-0.71c0.02-0.12,0.05-0.16,0.11-0.16
			s0.07,0.08,0.07,0.16c0,0.07-0.08,0.77-0.14,0.98c-0.07,0.26-0.18,0.26-0.59,0.26c-0.79,0-1.4-0.02-1.83-0.04
			c-0.44-0.03-0.72-0.03-0.88-0.03c-0.02,0-0.23,0-0.45,0.01c-0.2,0.01-0.44,0.02-0.61,0.02c-0.11,0-0.17-0.02-0.17-0.08
			c0-0.04,0.02-0.08,0.08-0.08c0.1,0,0.23-0.04,0.32-0.05c0.21-0.04,0.23-0.24,0.28-0.54c0.06-0.42,0.06-1.22,0.06-2.21V105.82z"/>
		<path fill="#45423F" d="M57.35,109.61c-1.03-0.89-1.28-2.05-1.28-3.02c0-0.68,0.25-1.87,1.19-2.78c0.63-0.61,1.59-1.09,3.21-1.09
			c0.42,0,1.02,0.03,1.53,0.12c0.39,0.07,0.73,0.14,1.08,0.16c0.11,0,0.13,0.05,0.13,0.11c0,0.08-0.02,0.2-0.05,0.57
			c-0.01,0.33-0.01,0.9-0.02,1.04c-0.01,0.16-0.06,0.22-0.12,0.22c-0.07,0-0.08-0.07-0.08-0.22c0-0.4-0.17-0.8-0.44-1.02
			c-0.37-0.31-1.14-0.56-2.07-0.56c-1.35,0-2,0.36-2.37,0.71c-0.78,0.72-0.95,1.63-0.95,2.66c0,1.95,1.54,3.69,3.8,3.69
			c0.79,0,1.32-0.06,1.74-0.48c0.23-0.23,0.37-0.66,0.41-0.85c0.02-0.11,0.03-0.14,0.11-0.14c0.05,0,0.1,0.07,0.1,0.14
			s-0.14,0.96-0.25,1.31c-0.06,0.19-0.08,0.23-0.26,0.3c-0.43,0.17-1.22,0.23-1.9,0.23C59.24,110.7,58.17,110.33,57.35,109.61z"/>
		<path fill="#45423F" d="M67.98,107.61c0,0.98,0,1.79,0.05,2.21c0.04,0.3,0.08,0.49,0.41,0.54c0.14,0.02,0.38,0.05,0.48,0.05
			c0.07,0,0.08,0.05,0.08,0.08c0,0.05-0.05,0.08-0.17,0.08c-0.58,0-1.25-0.04-1.3-0.04c-0.05,0-0.78,0.04-1.09,0.04
			c-0.12,0-0.17-0.02-0.17-0.08c0-0.04,0.02-0.07,0.08-0.07c0.1,0,0.22-0.03,0.31-0.05c0.21-0.05,0.27-0.25,0.31-0.55
			c0.05-0.42,0.05-1.22,0.05-2.21v-4.27l-1.52,0.02c-0.66,0.01-0.91,0.08-1.07,0.32c-0.12,0.18-0.13,0.25-0.17,0.32
			c-0.02,0.08-0.06,0.1-0.11,0.1c-0.02,0-0.07-0.02-0.07-0.08c0-0.11,0.21-1.02,0.23-1.1c0.02-0.06,0.07-0.19,0.11-0.19
			c0.07,0,0.18,0.08,0.47,0.12c0.3,0.04,0.71,0.05,0.83,0.05h3.98c0.35,0,0.59-0.02,0.75-0.05c0.15-0.02,0.25-0.05,0.3-0.05
			s0.05,0.06,0.05,0.12c0,0.31-0.04,1.04-0.04,1.16c0,0.08-0.05,0.13-0.09,0.13c-0.05,0-0.07-0.04-0.09-0.18l-0.01-0.11
			c-0.03-0.31-0.26-0.54-1.27-0.56l-1.32-0.02V107.61z"/>
		<path fill="#45423F" d="M73.94,107.61c0,0.98,0,1.79,0.05,2.21c0.04,0.3,0.07,0.49,0.38,0.54c0.15,0.02,0.38,0.05,0.48,0.05
			c0.06,0,0.08,0.05,0.08,0.08c0,0.05-0.05,0.08-0.17,0.08c-0.59,0-1.27-0.04-1.32-0.04c-0.06,0-0.72,0.04-1.04,0.04
			c-0.11,0-0.17-0.02-0.17-0.08c0-0.04,0.02-0.08,0.08-0.08c0.09,0,0.23-0.02,0.32-0.05c0.2-0.05,0.24-0.24,0.27-0.54
			c0.05-0.42,0.06-1.22,0.06-2.21v-1.79c0-1.58,0-1.87-0.02-2.19c-0.02-0.35-0.11-0.5-0.33-0.55c-0.12-0.02-0.25-0.04-0.32-0.04
			c-0.05,0-0.08-0.05-0.08-0.08c0-0.06,0.05-0.08,0.17-0.08c0.35,0,1.01,0.02,1.07,0.02c0.05,0,0.73-0.02,1.05-0.02
			c0.12,0,0.17,0.02,0.17,0.08c0,0.04-0.05,0.08-0.08,0.08c-0.07,0-0.14,0-0.26,0.02c-0.29,0.06-0.35,0.2-0.37,0.56
			c-0.01,0.32-0.01,0.61-0.01,2.19V107.61z"/>
		<path fill="#45423F" d="M80.46,102.73c2.37,0,4.17,1.45,4.17,3.82c0,2.27-1.69,4.15-4.23,4.15c-2.89,0-4.12-2.17-4.12-4
			C76.28,105.06,77.55,102.73,80.46,102.73z M80.7,110.28c0.95,0,2.85-0.5,2.85-3.45c0-2.44-1.48-3.72-3.15-3.72
			c-1.76,0-3.03,1.1-3.03,3.32C77.37,108.8,78.79,110.28,80.7,110.28z"/>
		<path fill="#45423F" d="M87.27,109.18c0.02,0.84,0.12,1.09,0.41,1.16c0.19,0.05,0.43,0.06,0.53,0.06c0.05,0,0.08,0.04,0.08,0.08
			c0,0.06-0.07,0.08-0.19,0.08c-0.6,0-1.02-0.04-1.11-0.04c-0.09,0-0.54,0.04-1.02,0.04c-0.11,0-0.17-0.01-0.17-0.08
			c0-0.05,0.04-0.08,0.08-0.08c0.08,0,0.27-0.01,0.43-0.06c0.26-0.07,0.3-0.35,0.3-1.27v-5.83c0-0.41,0.06-0.51,0.14-0.51
			c0.12,0,0.3,0.2,0.4,0.31c0.17,0.17,1.7,1.79,3.33,3.47c1.04,1.08,2.17,2.29,2.49,2.62l-0.11-5.1c-0.01-0.66-0.07-0.89-0.4-0.95
			c-0.19-0.03-0.43-0.05-0.51-0.05c-0.07,0-0.08-0.06-0.08-0.1c0-0.06,0.08-0.07,0.2-0.07c0.48,0,0.98,0.02,1.1,0.02
			s0.47-0.02,0.9-0.02c0.11,0,0.19,0.01,0.19,0.07c0,0.04-0.05,0.1-0.12,0.1c-0.05,0-0.13,0-0.25,0.02
			c-0.35,0.07-0.37,0.27-0.37,0.89l-0.03,5.96c0,0.67-0.01,0.73-0.08,0.73c-0.11,0-0.22-0.08-0.8-0.62
			c-0.11-0.1-1.63-1.59-2.74-2.75c-1.22-1.28-2.41-2.53-2.73-2.89L87.27,109.18z"/>
	</g>
</g>
<path fill="none" stroke="#404040" stroke-width="1.8623" d="M27.99,29.59c0,15.81,13.06,28.66,29.11,28.66
	c16.05,0,29.11-12.86,29.11-28.66c0-15.8-13.06-28.66-29.11-28.66C41.05,0.93,27.99,13.79,27.99,29.59z"/>
<ellipse fill="#45423F" cx="57.1" cy="29.59" rx="27.68" ry="27.16"/>
<path fill-rule="evenodd" clip-rule="evenodd" fill="#FFFFFF" d="M57.76,60.31c-3.56,3.56-9.63-2.54-14.44-2.54
	c0.3-2.55,1.92-3.97,4.2-4.8c1.88-0.69,4.63-0.21,6.21-1.53c0.94-0.78,0.3-1.59-0.01-2.55c-0.48-1.49,0.4-1.01,1.06-1.86
	c0.1-0.35-0.54-1.13-0.35-1.3c0.82-0.71-0.38-0.99-0.38-1.87c-0.1-0.81,0.44-1.04,0.98-1.46c0.69-0.55-0.86-2.07-1.29-2.52
	c-1.78-1.84-1.89-3.86-2.34-6.31c-0.41-2.24-0.77-4.58-2.99-5.69c-1.63-0.82-2.79-1.06-3.75-2.8c4.2-0.2,8.4-0.3,12.61-0.28"/>
<path fill-rule="evenodd" clip-rule="evenodd" fill="#FFFFFF" d="M56.35,60.38c4.81,0,9.63-2.6,14.44-2.6
	c-0.3-2.55-1.92-3.97-4.2-4.8c-1.88-0.68-4.63-0.21-6.21-1.53c-0.94-0.78-0.3-1.59,0.01-2.55c0.48-1.49-0.4-1.01-1.06-1.85
	c-0.1-0.35,0.54-1.14,0.35-1.3c-0.82-0.71,0.38-0.99,0.38-1.88c0.1-0.81-0.44-1.04-0.98-1.46c-0.7-0.55,0.86-2.07,1.28-2.51
	c1.78-1.84,1.89-3.86,2.33-6.31c0.41-2.24,0.77-4.57,2.99-5.69c1.63-0.82,2.79-1.06,3.75-2.8c-4.2-0.2-8.4-0.31-12.61-0.28"/>
<path fill="#FFFFFF" d="M56.21,26.8c-0.17-1.54,0.44-5.79,1.27-7.01c0.24-0.36,0.4-0.57,0.36-0.88c-0.11-0.99-1.11-1.6-2.34-1.56
	c-0.28,0.01-0.77,0.15-0.98,0.25c-0.28,0.14-0.29,0-0.21-0.22c0.1-0.19,0.52-0.96,0.73-1.17c0.25-0.23,0.18-0.28-0.07-0.37
	c-0.51-0.17-1.36-0.1-1.58-0.07c-0.31,0.03-0.31-0.15-0.1-0.3c0.56-0.41,1.5-0.74,2.22-0.82c2.06-0.23,2.82,1.46,2.94,2.48
	c0.04,0.36,0.02,1.07-0.19,1.7l0.05,0.01c1.82-2.26,2.27-3.52,2.17-4.46c-0.24-0.06-0.5-0.21-0.72-0.38
	c-0.16-0.15-0.5-0.5-0.88-0.79c-0.16-0.11-0.16-0.23,0.07-0.29l0.19-0.05c0.1-0.01,0.26-0.06,0.49-0.15
	c0.25-0.11,0.26-0.18-0.04-0.37c-1.24-0.93-1.93-1.4-2.06-2.55c-0.07-0.67,0.11-1.64,0.54-2.25c0.31-0.45,0.4-0.37,0.5-0.2
	c0.36,0.6,0.77,1,1.11,1.24c0.27,0.2,0.37,0.09,0.44-0.18c0.07-0.3,0.33-0.89,0.73-1.39c0.22-0.27,0.43-0.57,0.62-0.79
	c0.14-0.18,0.26-0.19,0.34,0c0.14,0.26,0.31,0.54,0.51,0.86c0.29,0.5,0.43,1.04,0.5,1.68c0.03,0.26,0.08,0.29,0.29,0.25
	c0.66-0.12,1.46-0.62,1.65-1.02c0.09-0.21,0.15-0.26,0.29-0.03c0.14,0.25,0.31,0.88,0.37,1.37c0.16,1.49-0.4,2.03-0.88,2.46
	c-0.39,0.32-1.4,0.83-1.72,0.93c-0.35,0.12-0.39,0.19-0.11,0.38c0.18,0.11,0.27,0.22,0.39,0.28c0.17,0.15,0.13,0.28-0.08,0.32
	c-0.29,0.06-0.57,0.2-0.91,0.36c-0.31,0.16-0.57,0.29-0.93,0.32c0.06,0.19,0.07,0.37,0.09,0.5c0.12,1.08-0.67,2.55-2.33,4.29
	l0.05,0.03c0.84-0.55,1.89-0.85,2.71-0.94c1.1-0.12,2.1,0.26,2.75,0.91c0.66,0.67,0.97,1.52,1.06,2.31c0.03,0.26-0.09,0.4-0.28,0.1
	c-0.3-0.46-1.08-1.05-2-1.11c-0.2-0.01-0.28,0.03-0.26,0.19c0.03,0.29-0.08,0.78-0.36,1.08c-0.24,0.24-0.34,0.15-0.38-0.14
	c-0.02-0.18-0.55-2.19-3.25-1.89c-0.44,0.05-0.56,0.26-0.69,0.44c-0.97,1.37-1.45,5.54-1.3,6.9 M60.26,11.54
	c0.04,0.34,0.33,0.95,0.65,1.24c0.18,0.16,0.22,0.21,0.48,0c0.43-0.39,0.82-1.06,0.74-1.81c-0.05-0.45-0.26-0.87-0.54-1.19
	c-0.17-0.24-0.24-0.22-0.5-0.03c-0.44,0.34-0.91,1-0.82,1.77L60.26,11.54z"/>
<path fill="#FFFFFF" d="M56.48,23.11c-0.79,0-1.46-0.38-2.03-0.88C54.28,22.09,54.18,22,54.02,22c-0.51,0-0.88,0.48-0.93,1.11
	c-0.01,0.14,0.04,0.4,0.08,0.51c0.06,0.15-0.02,0.15-0.13,0.09c-0.09-0.06-0.46-0.32-0.55-0.43c-0.1-0.15-0.13-0.11-0.19,0.02
	c-0.12,0.25-0.13,0.69-0.13,0.8c0,0.16-0.09,0.15-0.16,0.04c-0.18-0.31-0.29-0.81-0.29-1.18c0-1.06,0.9-1.36,1.43-1.36
	c0.19,0,0.55,0.05,0.85,0.19l0.01-0.02c-1.05-1.05-1.67-1.35-2.15-1.35c-0.04,0.12-0.13,0.24-0.23,0.34
	c-0.08,0.08-0.29,0.22-0.45,0.4c-0.06,0.08-0.13,0.07-0.14-0.05L51.02,21c0-0.05-0.02-0.13-0.05-0.26c-0.04-0.13-0.07-0.14-0.19,0
	c-0.54,0.58-0.82,0.91-1.41,0.91c-0.34,0-0.83-0.15-1.11-0.4c-0.21-0.19-0.17-0.23-0.08-0.27c0.33-0.15,0.55-0.34,0.69-0.5
	c0.12-0.13,0.07-0.18-0.07-0.23c-0.15-0.05-0.44-0.21-0.67-0.45c-0.13-0.12-0.27-0.25-0.37-0.36c-0.08-0.08-0.08-0.14,0.02-0.17
	c0.14-0.06,0.29-0.13,0.47-0.21c0.27-0.12,0.55-0.16,0.89-0.16c0.13,0,0.15-0.02,0.14-0.13c-0.03-0.34-0.24-0.78-0.43-0.89
	c-0.1-0.06-0.13-0.09,0-0.15c0.13-0.06,0.47-0.11,0.72-0.11c0.77,0,1.01,0.32,1.21,0.58c0.14,0.22,0.34,0.76,0.38,0.93
	c0.04,0.19,0.08,0.21,0.19,0.08c0.07-0.08,0.12-0.13,0.17-0.18c0.08-0.08,0.15-0.05,0.16,0.06c0.01,0.15,0.07,0.3,0.13,0.49
	c0.07,0.17,0.12,0.31,0.11,0.49c0.1-0.02,0.19-0.02,0.26-0.02c0.56,0,1.27,0.48,2.06,1.43l0.02-0.02C54,20.97,53.91,20.41,53.91,20
	c0-0.57,0.25-1.05,0.62-1.35c0.38-0.3,0.83-0.41,1.24-0.41c0.13,0,0.2,0.07,0.03,0.15c-0.25,0.12-0.59,0.5-0.68,0.95
	c-0.01,0.1,0,0.14,0.09,0.14c0.15,0,0.39,0.08,0.53,0.24c0.11,0.13,0.06,0.18-0.09,0.18c-0.09,0-1.14,0.16-1.14,1.55
	c0,0.23,0.1,0.3,0.18,0.38c0.64,0.57,1.27,0.89,1.98,0.88 M50.4,20.35c0.17,0,0.5-0.12,0.67-0.26c0.09-0.08,0.12-0.1,0.03-0.24
	c-0.18-0.24-0.49-0.48-0.88-0.48c-0.23,0-0.46,0.09-0.64,0.21c-0.13,0.08-0.13,0.11-0.04,0.25C49.69,20.08,50,20.35,50.4,20.35
	L50.4,20.35z"/>
<path fill="#FFFFFF" d="M73.26,34.05c0,0.76-0.63,1.3-1.55,1.67c-0.78,0.31-1.98,0.47-3.11,0.47c-0.73,0-2.9-0.1-4.19-1.07
	c-0.35-0.27-0.47-0.58-0.47-0.83c0-0.21,0.05-0.34,0.11-0.5c-1.4-1.1-2.82-2.06-4.39-2.06c-1.04,0-2.07,0.44-2.07,1.87
	c0,1.13,0.7,1.71,1.18,1.88c0.17,0.06,0.16,0.18,0.09,0.24c-0.06,0.05-0.3,0.21-0.52,0.26c-0.21,0.05-0.42,0.05-0.65-0.07
	c-0.32-0.17-0.9-0.77-0.9-1.7c0-0.58,0.18-1.44,1.09-2.25c0.46-0.4,1.29-0.8,2.32-0.8c1.51,0,3.1,1.04,4.17,1.84
	c0.21-0.48,0.63-0.63,0.84-0.63c0.87,0,1.65,0.92,2.96,1.91c1.28,0.94,2.01,1.18,2.78,1.18c0.63,0,1.45-0.27,1.45-1.02
	c0-0.52-0.36-0.81-0.75-0.81c-0.11,0.01-0.16-0.08-0.11-0.15c0.05-0.05,0.42-0.38,0.86-0.38C72.79,33.1,73.26,33.4,73.26,34.05
	L73.26,34.05z"/>
<path fill="#FFFFFF" d="M40.42,34.36c0-0.64,0.47-0.94,0.83-0.94c0.44,0,0.81,0.33,0.86,0.38c0.05,0.07,0,0.16-0.11,0.15
	c-0.39,0-0.75,0.28-0.75,0.81c0,0.75,0.82,1.02,1.45,1.02c0.77,0,1.5-0.24,2.78-1.18c1.31-0.98,2.09-1.9,2.96-1.9
	c0.21,0,0.63,0.15,0.84,0.63c1.07-0.8,2.67-1.84,4.17-1.84c1.03,0,1.85,0.4,2.32,0.8c0.91,0.81,1.1,1.67,1.1,2.25
	c0,0.93-0.58,1.53-0.9,1.7c-0.23,0.12-0.44,0.12-0.65,0.07c-0.21-0.04-0.46-0.2-0.52-0.25c-0.07-0.06-0.08-0.18,0.09-0.24
	c0.48-0.17,1.18-0.76,1.18-1.88c0-1.43-1.02-1.86-2.07-1.86c-1.57,0-2.99,0.95-4.39,2.06c0.06,0.15,0.11,0.28,0.11,0.5
	c0,0.25-0.11,0.56-0.47,0.83c-1.29,0.97-3.46,1.08-4.19,1.08c-1.13,0-2.33-0.15-3.11-0.47C41.05,35.67,40.42,35.13,40.42,34.36
	L40.42,34.36z"/>
</svg>
