<?xml version="1.0" encoding="iso-8859-1"?>
<!-- Generator: Adobe Illustrator 16.0.4, SVG Export Plug-In . SVG Version: 6.00 Build 0)  -->
<!DOCTYPE svg PUBLIC "-//W3C//DTD SVG 1.1//EN" "http://www.w3.org/Graphics/SVG/1.1/DTD/svg11.dtd">
<svg version="1.1" id="Capa_1" xmlns="http://www.w3.org/2000/svg" xmlns:xlink="http://www.w3.org/1999/xlink" x="0px" y="0px"
	 width="73.168px" height="61.616px" viewBox="0 0 73.168 61.616" style="enable-background:new 0 0 73.168 61.616;"
	 xml:space="preserve">
<g id="Navigation">
	<g>
		<path d="M4.242,8.649h64.684c2.344,0,4.242-1.933,4.242-4.324C73.168,1.94,71.27,0,68.926,0H4.242C1.898,0,0,1.94,0,4.325
			C0,6.717,1.898,8.649,4.242,8.649z M68.926,26.483H4.242C1.898,26.483,0,28.424,0,30.808c0,2.393,1.898,4.325,4.242,4.325h64.684
			c2.344,0,4.242-1.933,4.242-4.325C73.168,28.424,71.27,26.483,68.926,26.483z M68.926,52.966H4.242
			C1.898,52.966,0,54.907,0,57.291c0,2.392,1.898,4.325,4.242,4.325h64.684c2.344,0,4.242-1.934,4.242-4.325
			C73.168,54.907,71.27,52.966,68.926,52.966z"/>
	</g>
</g>
<g>
</g>
<g>
</g>
<g>
</g>
<g>
</g>
<g>
</g>
<g>
</g>
<g>
</g>
<g>
</g>
<g>
</g>
<g>
</g>
<g>
</g>
<g>
</g>
<g>
</g>
<g>
</g>
<g>
</g>
</svg>
