<?xml version="1.0" encoding="utf-8"?>
<!-- Generator: Adobe Illustrator 12.0.0, SVG Export Plug-In  -->
<!DOCTYPE svg PUBLIC "-//W3C//DTD SVG 1.1//EN" "http://www.w3.org/Graphics/SVG/1.1/DTD/svg11.dtd" [
	<!ENTITY ns_flows "http://ns.adobe.com/Flows/1.0/">
	<!ENTITY ns_svg "http://www.w3.org/2000/svg">
	<!ENTITY ns_xlink "http://www.w3.org/1999/xlink">
]>
<svg  version="1.1" xmlns="&ns_svg;" xmlns:xlink="&ns_xlink;" xmlns:a="http://ns.adobe.com/AdobeSVGViewerExtensions/3.0/"
	 width="190" height="31" viewBox="-0.78 -0.76 190 31" enable-background="new -0.78 -0.76 190 31" xml:space="preserve">
<defs>
</defs>
<path d="M4.23,14.11c0.17,0,0.22,0.06,0.22,0.2c0,0.08-0.06,0.17-0.2,0.17c-2.58,0.22-3.33,1.93-3.33,3.3c0,1.76,1.4,3.7,4.79,3.7
	c8.65,0,9.46-8.43,11.98-13.72c0.9-1.88,2.49-3.67,4.37-4.34c0.08-0.03,0.17-0.06,0.25-0.06c0.11,0,0.17,0.06,0.17,0.14
	c0,0.31-1.2,0.73-1.82,1.54C18.03,8.57,19.1,21.9,5.77,21.9c-4.12,0-5.77-2.1-5.77-4C0,15.93,1.62,14.17,4.23,14.11z M19.77,11.59
	c-0.06-0.06-0.08-0.11-0.08-0.17c0-0.14,0.11-0.22,0.2-0.22s0.14,0.03,0.25,0.08c0.56,0.39,1.29,0.53,2.04,0.53
	c2.35,0,4.17-2.49,4.17-4.93c0-3.22-3.19-4.93-6.94-4.93C9.3,1.96,4.84,6.94,4.84,10.84c0,0.67,0.11,1.2,0.34,1.6
	c0.56-3.19,4.06-6.19,7.56-6.19c1.62,0,2.94,0.7,2.94,2.35c0,3.14-3.92,5.77-7.53,5.77c-0.73,0-1.51-0.06-2.24-0.34
	c0.28,1.62,1.54,2.32,2.97,2.32c1.46,0,2.88-0.59,4.09-1.51l0.08-0.06c0.11,0,0.22,0.08,0.22,0.17c0,0.06,0,0.11-0.06,0.14
	c-1.18,1.01-2.86,1.68-4.51,1.68c-2.24,0-3.47-1.29-3.61-3.11c-0.81-0.48-1.4-1.34-1.4-2.72c0-4.31,6.05-9.52,15.88-9.52
	c4.65,0,8.93,1.54,8.93,5.63c0,2.83-2.52,5.4-5.91,5.4C21.73,12.46,20.61,12.26,19.77,11.59z M5.85,13.24
	c0.73,0.56,1.74,0.7,2.66,0.7c3.11,0,6.72-2.46,6.72-5.29c0-1.32-0.95-1.99-2.41-1.99C9.18,6.66,5.91,10.19,5.85,13.24z"/>
<path d="M40.71,11.12c-1.4,6.05-4.26,10.19-10.61,10.19c-3.28,0-4.87-1.93-4.87-4.4c0-2.18,0.95-4.51,2.44-6.3
	c-1.06-0.53-1.65-1.54-1.65-2.94c0-4.23,4.84-7.67,9.66-7.67c4.65,0,8.74,3.3,13.52,3.3c1.6,0,2.52-0.56,3.72-1.99
	c0.08-0.08,0.11-0.14,0.17-0.14c0.11,0,0.25,0.08,0.25,0.2c0,0.08-0.06,0.17-0.11,0.25c-1.6,2.35-3.72,3.33-6.08,3.33
	c-1.43,0-2.44-0.22-3.53-0.53c-1.48,0.87-2.27,3.61-2.6,5.21l-0.2,0.95l1.34-0.08c2.38-0.14,3.3-0.95,4.56-2.91
	c0.06-0.08,0.11-0.11,0.17-0.11c0.14,0,0.25,0.08,0.25,0.17c0,0.03,0,0.08-0.03,0.11c-1.34,2.35-2.24,4-3,6.86
	c-0.03,0.11-0.08,0.17-0.2,0.17c-0.31,0-0.28-0.14-0.28-0.25c0.34-1.12,0.5-1.68,0.5-2.13c0-0.87-0.64-1.32-2.35-1.32
	C41.64,11.09,41.16,11.09,40.71,11.12z M35.06,8.62c-1.15,1.43-3.39,2.41-5.32,2.41c-0.39,0-0.76-0.03-1.09-0.11
	c-1.34,1.79-2.24,4.17-2.24,6.38c0,1.82,1.04,3.53,3.72,3.53c3.92,0,6.5-4.14,7.48-7.76c0.67-2.58,2.74-7.42,5.29-8.88
	c-2.49-0.76-5.01-2.52-8.32-2.6c-3.98,0-7.9,3-7.9,6.5c0,0.87,0.34,1.76,1.26,2.21c1.48-1.65,3.42-2.74,5.43-2.74
	c0.39,0,0.76,0.03,1.09,0.11c0.11-0.34,0.17-0.67,0.17-1.01c0-0.67-0.39-1.51-1.54-1.51c-1.4,0-2.49,1.15-3.08,2.52
	c-0.06,0.08-0.11,0.11-0.17,0.14c-0.11,0-0.22-0.06-0.25-0.17c0-0.06,0-0.08,0.03-0.11c0.59-1.57,2.04-2.94,4-2.94
	c1.48,0,2.24,0.84,2.24,1.99c0,0.53-0.17,1.04-0.45,1.51c0.84,0.56,1.18,1.48,1.18,2.46c0,3.67-3.33,7.59-7.31,7.67
	c-0.17,0-0.28-0.05-0.28-0.17c0-0.08,0.08-0.22,0.28-0.22c3.3-0.11,6.72-3.19,6.72-7.25C36.01,9.74,35.7,9.04,35.06,8.62z
	 M34.22,8.2c-0.28-0.06-0.59-0.11-0.92-0.11c-1.57,0-3.14,0.98-4.37,2.49c0.2,0.03,0.39,0.03,0.64,0.03
	C32.03,10.61,33.54,9.46,34.22,8.2z"/>
<path d="M63.14,17.86c0-2.49,1.79-5.18,3.89-5.18c1.29,0,2.04,0.87,2.04,2.02c0,0.56-0.31,1.82-0.59,1.82c-0.08,0-0.2-0.03-0.2-0.11
	c0-0.03,0-0.08,0.03-0.14c0.2-0.45,0.31-1.01,0.31-1.54c0-0.9-0.7-1.6-1.57-1.6c-1.85,0-3.44,2.41-3.44,4.7
	c0,1.99,1.12,2.74,2.86,2.74c2.18,0,4.34-2.69,4.34-5.21c0-2.41-2.1-3.72-3.64-3.98c-0.78-0.14-0.98-0.5-0.98-1.04
	c0-0.81,0.87-0.9,1.32-1.18c1.09-0.64,1.96-1.99,1.96-3.81c0-0.81-0.48-2.44-2.13-2.88c-3.3,2.21-4.14,6.94-6.05,10.19
	c1.01,1.2,1.37,2.41,1.37,3.39c0,1.9-1.62,3.14-3.47,3.14c-0.42,0-1.46-0.25-2.18-0.81c-0.81,0.9-2.21,2.21-3.72,2.21
	c-1.04,0-1.76-0.7-1.76-1.68c0-1.85,1.85-2.6,3.33-2.6c0.84,0,1.85,0.25,2.72,0.76c1.06-1.06,2.58-3.16,3.11-4.2
	c-0.73-0.78-1.96-2.13-1.96-4.37c0-4.03,3.39-6.64,7.28-6.64c0.5,0,0.92,0.06,1.37,0.14c0.98-0.59,2.04-0.98,3.39-0.98
	c0.92,0,2.24,0.34,2.24,0.67c0,0.08-0.03,0.2-0.14,0.2c-0.03,0-0.06,0-0.08-0.03c-0.64-0.31-1.26-0.5-1.96-0.5
	c-0.64,0-1.82,0.11-2.83,0.73c2.21,0.5,3.33,2.44,3.33,3.98c0,1.96-1.9,3.19-3.08,3.47c-0.53,0.14-1.51,0.25-1.51,0.87
	c0,0.31,0.59,0.36,1.37,0.36c2.63,0,5.12,1.12,5.12,3.98c0,3.58-3.22,6.36-6.72,6.36C64.6,21.11,63.14,20.13,63.14,17.86z
	 M52.19,19.1c0,0.5,0.45,1.04,1.18,1.04c0.9,0,2.35-0.95,3.22-1.96c-0.5-0.37-1.85-0.67-2.69-0.67C53,17.53,52.19,18.2,52.19,19.1z
	 M57.9,17.25c0.62,0.34,1.23,0.53,1.65,0.53c1.4,0,2.27-1.01,2.27-2.35c0-0.34-0.31-1.6-0.84-2.24
	C60.23,14.42,58.97,16.24,57.9,17.25z M61.07,12.29c1.96-3.36,2.41-7.36,5.74-9.88c-4.17,0.03-6.5,3.64-6.5,7.22
	C60.31,10.61,60.59,11.59,61.07,12.29z"/>
<path d="M74.84,17.22c0-3.11,2.49-7.06,5.91-7.06c2.02,0,2.94,1.23,2.94,3.16c0,3.05-2.69,7.14-5.99,7.14
	C75.63,20.5,74.82,19.01,74.84,17.22z M76.47,18.51c0,0.62,0.14,1.54,1.04,1.54c2.46,0,4.56-5.66,4.56-7.81
	c0-0.9-0.28-1.62-1.29-1.62C78.29,10.61,76.47,16.3,76.47,18.51z"/>
<path d="M95.79,8.15c0,4.51-2.94,12.32-7.98,12.32c-2.18,0-2.83-1.96-2.83-3.5c0-3.05,2.38-6.8,5.8-6.8c1.06,0,1.68,0.53,1.68,1.2
	c0,0.39-0.2,0.7-0.62,0.7c-0.28,0-0.59-0.17-0.59-0.53c0-0.11,0.06-0.22,0.06-0.42c0-0.22-0.11-0.48-0.62-0.48
	c-0.53,0-1.04,0.31-1.46,0.81c-1.26,1.37-2.58,4.98-2.58,7.14c0,0.73,0.28,1.46,1.09,1.46c3.14,0,6.33-7.73,6.33-11.87
	c0-2.21-0.53-5.29-3.28-5.29c-1.37,0-2.8,0.95-3.81,2.07c-0.14,0.14-0.28,0.14-0.36,0.06s-0.08-0.22,0.03-0.36
	c1.2-1.4,2.72-2.3,4.48-2.3C94.25,2.35,95.79,5.15,95.79,8.15z"/>
<path d="M95.87,17.22c0-3.11,2.49-7.06,5.91-7.06c2.02,0,2.94,1.23,2.94,3.16c0,3.05-2.69,7.14-5.99,7.14
	C96.65,20.5,95.84,19.01,95.87,17.22z M97.49,18.51c0,0.62,0.14,1.54,1.04,1.54c2.46,0,4.56-5.66,4.56-7.81
	c0-0.9-0.28-1.62-1.29-1.62C99.31,10.61,97.49,16.3,97.49,18.51z"/>
<path d="M110.29,14.06c1.54-2.52,3.02-3.95,4.51-3.95c1.12,0,1.71,0.62,1.71,1.62c0,1.32-1.29,3.98-2.02,5.74
	c-0.17,0.39-0.34,0.92-0.34,1.4c0,0.42,0.17,0.76,0.7,0.76c1.85,0,3.98-4.56,4.76-6.24c0.06-0.11,0.11-0.22,0.22-0.22
	c0.08,0,0.2,0.06,0.2,0.17c0,0.08-0.06,0.22-0.11,0.39c-1.01,2.1-3.14,6.78-5.82,6.78c-1.34,0-1.85-0.67-1.85-1.65
	c0-0.59,0.17-1.32,0.48-2.04l1.51-3.75c0.2-0.48,0.34-1.12,0.34-1.4c0-0.45-0.22-0.64-0.53-0.64c-1.54,0-4.06,4.23-4.62,5.54
	c-0.48,1.09-0.81,2.21-1.29,3.3c-0.2,0.42-0.22,0.45-0.59,0.45c-0.28-0.03-0.59-0.03-0.92-0.03h-0.42c-0.11,0-0.2-0.06-0.2-0.17
	c0-0.06,0.03-0.11,0.06-0.2l2.24-5.74c0.14-0.34,0.64-1.48,0.64-2.27c0-0.42-0.14-0.76-0.56-0.73c-0.81,0.03-1.71,1.79-2.04,2.44
	c-0.06,0.11-0.2,0.14-0.28,0.11c-0.11-0.03-0.17-0.14-0.08-0.28c0.9-1.9,1.76-3.33,3.3-3.33c1.06,0,1.54,0.73,1.54,1.65
	c0,0.36-0.08,0.78-0.22,1.18L110.21,14L110.29,14.06z"/>
<path d="M119.59,20.5c-1.29,0-1.85-0.78-1.85-1.82c0-0.53,0.14-1.09,0.39-1.68c0.84-2.07,1.6-4.09,2.44-6.24
	c0.08-0.22,0.17-0.39,0.39-0.45c0.31-0.08,0.78,0.03,1.68-0.14c0.14-0.03,0.25,0,0.17,0.2c-0.95,2.44-1.85,4.76-2.8,7.14
	c-0.14,0.36-0.34,0.9-0.34,1.34c0,0.45,0.17,0.78,0.7,0.78c1.74,0,3.95-4.54,4.76-6.3c0-0.03,0.11-0.2,0.22-0.2
	c0.06,0,0.2,0.03,0.2,0.17c0,0.11-0.08,0.25-0.08,0.31C124.6,15.48,122.3,20.5,119.59,20.5z M121.49,6.89
	c0-0.62,0.48-1.06,1.12-1.06c0.59,0,1.06,0.45,1.06,1.06s-0.48,1.06-1.06,1.06C121.97,7.95,121.49,7.5,121.49,6.89z"/>
<path d="M129.05,16.16c0-4.68,4.9-9.63,9.02-9.63c2.16,0,3.11,1.18,3.11,2.72c0,3.44-4.45,7.28-8.04,7.48
	c-0.14,0-0.25-0.14-0.25-0.22s0.08-0.22,0.25-0.25c2.35-0.2,7.36-2.72,7.36-6.78c0-1.23-0.67-2.38-2.21-2.38
	c-4.14,0-8.37,6.08-8.37,9.58c0,2.55,1.68,3.84,3.89,3.84c5.35,0,6.86-5.21,8.4-10.72c0.84-3,2.55-7.95,6.36-7.95
	c1.96,0,3.44,1.23,3.44,3.22c0,1.34-1.01,2.69-2.44,2.69c-1.01,0-1.99-0.56-1.99-1.62c0-0.81,0.84-1.54,1.57-1.54
	c0.17,0,0.25,0,0.25,0.34c0,0.17-1.26,0.31-1.26,1.18c0,0.73,0.64,1.18,1.37,1.18c1.23,0,1.93-1.12,1.93-2.24
	c0-1.43-1.18-2.49-2.6-2.49c-3.44,0-3.89,6.13-4.28,8.26c-1.06,5.6-4.37,10.28-10.58,10.28C131.29,21.06,129.05,19.68,129.05,16.16z
	"/>
<path d="M149.04,20.61c-2.3,0-3.05-1.65-3.05-3.39c0-3.22,3.3-7.08,6.55-7.08c1.06,0,2.46,0.25,2.46,1.62
	c0,0.45-0.31,0.81-0.76,0.81c-0.28,0-0.78-0.31-0.78-0.7c0-0.28,0.22-0.48,0.22-0.73c0-0.31-0.31-0.42-0.76-0.42
	c-1.96,0-4.84,3.7-4.84,6.94c0,1.26,0.45,2.16,1.68,2.16c2.83,0,5.18-3.95,6.41-6.41c0.06-0.11,0.11-0.28,0.25-0.31
	c0.11,0,0.2,0.11,0.2,0.31C155.23,16.21,152.82,20.61,149.04,20.61z"/>
<path d="M159.57,20.5c-1.51,0-2.13-0.76-2.13-2.1c0-1.99,3.39-6.24,3.39-6.52c0-0.64-2.24-0.34-3.33-0.64
	c-0.22,0.59-1.2,3.28-1.51,3.28c-0.06,0-0.25-0.06-0.25-0.2c0-0.06,0.03-0.08,0.06-0.14c0.42-0.87,0.92-2.13,1.32-3.05
	c-0.62-0.25-1.01-0.64-1.01-1.34c0-1.06,1.09-1.43,1.79-1.43h0.17c0.14,0,1.04,0.2,1.04,0.48c0,0.22-0.76,0.73-0.76,1.32
	c0,0.73,1.37,0.81,2.3,0.81h0.62c0.95,0,1.26,0.31,1.26,0.78c0,0.98-1.48,3.16-2.35,4.93c-0.22,0.45-0.73,1.48-0.73,2.1
	c0,0.5,0.17,0.87,0.81,0.87c1.79,0,3.75-4.14,4.76-6.19c0.11-0.11,0.14-0.28,0.25-0.28c0.08,0,0.2,0.11,0.2,0.22
	c0,0.08-0.06,0.22-0.11,0.36C164.27,15.85,162.26,20.5,159.57,20.5z"/>
<path d="M165.03,20.5c-1.29,0-1.85-0.78-1.85-1.82c0-0.53,0.14-1.09,0.39-1.68c0.84-2.07,1.6-4.09,2.44-6.24
	c0.08-0.22,0.17-0.39,0.39-0.45c0.31-0.08,0.78,0.03,1.68-0.14c0.14-0.03,0.25,0,0.17,0.2c-0.95,2.44-1.85,4.76-2.8,7.14
	c-0.14,0.36-0.34,0.9-0.34,1.34c0,0.45,0.17,0.78,0.7,0.78c1.74,0,3.95-4.54,4.76-6.3c0-0.03,0.11-0.2,0.22-0.2
	c0.06,0,0.2,0.03,0.2,0.17c0,0.11-0.08,0.25-0.08,0.31C170.04,15.48,167.75,20.5,165.03,20.5z M166.93,6.89
	c0-0.62,0.48-1.06,1.12-1.06c0.59,0,1.06,0.45,1.06,1.06s-0.48,1.06-1.06,1.06C167.41,7.95,166.93,7.5,166.93,6.89z"/>
<path d="M172.39,8.01c0.08-0.25,0.2-0.36,0.5-0.39s0.62,0,1.04-0.08l0.48-0.11c0.11-0.06,0.25,0,0.17,0.2
	c-2.58,6.61-5.24,13.19-7.95,20.05c-0.06,0.11-0.11,0.31-0.11,0.48c0,0.14,0.06,0.31,0.22,0.31c0.2,0,0.39-0.34,0.48-0.48
	c1.76-4.45,4.23-10.61,6.95-14.92c0.84-1.34,2.02-2.91,3.64-2.91c1.12,0,1.68,0.67,1.68,1.65c0,0.48-0.14,0.98-0.39,1.54
	c-0.64,1.37-1.15,2.58-1.9,4.14c-0.17,0.36-0.42,0.98-0.42,1.43c0,0.34,0.14,0.59,0.53,0.59c2.13,0,4.06-4.26,4.96-6.05
	c0.06-0.11,0.14-0.22,0.25-0.22c0.08,0,0.2,0.11,0.2,0.22c0,0.08-0.08,0.22-0.14,0.34c-1.15,2.35-3.22,6.66-6.22,6.66
	c-0.98,0-1.48-0.56-1.48-1.48c0-1.4,1.51-3.98,2.35-5.91c0.17-0.31,0.42-0.95,0.42-1.46c0-0.34-0.14-0.64-0.56-0.64
	c-1.79,0-4.9,6.78-5.38,7.73c-1.68,3.39-3.16,7.2-4.12,9.63c-0.08,0.2-0.56,1.09-1.46,1.09c-0.87,0-1.15-0.62-1.15-1.32
	c0-0.64,0.22-1.4,0.56-2.35C167.83,19.88,170.04,14.03,172.39,8.01z"/>
<path d="M188.38,13.19c0.11,0.06,0.08,0.25-0.03,0.48c-1.01,2.21-3.05,6.83-6.19,6.83c-1.46,0-1.99-0.62-1.99-1.48
	c-0.03-0.59,0.2-1.29,0.48-2.02c0.31-0.81,2.02-5.04,2.38-5.96h-1.48c-0.28,0-0.42,0-0.42-0.28c0-0.28,0.14-0.39,0.42-0.39h1.76
	l1.29-3.19c0.11-0.25,0.22-0.36,0.48-0.36s0.53-0.03,0.81-0.06c0.17-0.03,0.64-0.11,0.76-0.17c0.2-0.06,0.25,0.06,0.2,0.17
	c0,0.03-0.95,2.44-1.4,3.61h2.66c0.17,0,0.22,0.11,0.22,0.31c0,0.2-0.11,0.34-0.31,0.36h-2.86c-1.15,3-2.97,6.97-2.97,7.84
	c0,0.62,0.34,0.87,0.73,0.87c2.07,0,4.2-4.31,5.1-6.33C188.1,13.22,188.21,13.08,188.38,13.19z"/>
</svg>
