<?xml version="1.0" encoding="utf-8"?>
<!-- Generator: Adobe Illustrator 12.0.0, SVG Export Plug-In  -->
<!DOCTYPE svg PUBLIC "-//W3C//DTD SVG 1.1//EN" "http://www.w3.org/Graphics/SVG/1.1/DTD/svg11.dtd" [
	<!ENTITY ns_flows "http://ns.adobe.com/Flows/1.0/">
	<!ENTITY ns_svg "http://www.w3.org/2000/svg">
	<!ENTITY ns_xlink "http://www.w3.org/1999/xlink">
]>
<svg  version="1.1" xmlns="&ns_svg;" xmlns:xlink="&ns_xlink;" xmlns:a="http://ns.adobe.com/AdobeSVGViewerExtensions/3.0/"
	 width="142" height="21" viewBox="-0.39 -0.11 142 21" enable-background="new -0.39 -0.11 142 21" xml:space="preserve">
<defs>
</defs>
<path d="M12.91,8.58c-0.15-2.22-0.33-4.95-0.31-6.56h-0.07c-0.53,1.61-1.14,3.32-1.98,5.52l-3.12,8.07H6.71L3.78,7.74
	C2.95,5.43,2.31,3.65,1.87,2.02H1.8C1.78,3.76,1.67,6.34,1.5,8.8l-0.46,6.82H0L1.08,0.79h1.21l3.19,8.54
	c0.68,1.89,1.21,3.39,1.63,4.82h0.04c0.4-1.36,0.92-2.82,1.67-4.8l3.3-8.56h1.25l1.01,14.83h-1.03L12.91,8.58z"/>
<path d="M17.34,5.06l2.77,6.91c0.29,0.75,0.57,1.58,0.77,2.27h0.04c0.22-0.66,0.48-1.47,0.81-2.33l2.57-6.84h1.12l-3.17,7.88
	c-1.28,3.28-2.18,5.24-3.56,6.45c-0.84,0.7-1.58,1.01-1.85,1.1l-0.33-0.88c0.53-0.2,1.23-0.57,1.85-1.17
	c0.53-0.53,1.23-1.41,1.76-2.66c0.09-0.24,0.13-0.35,0.13-0.46s-0.04-0.24-0.13-0.46l-3.92-9.79H17.34z"/>
<path d="M27.43,8.23c0-1.06-0.04-2.16-0.09-3.17h0.97l0.04,2.13h0.04c0.46-1.32,1.56-2.38,3.01-2.38c0.13,0,0.29,0.02,0.42,0.04
	v1.01c-0.15-0.04-0.31-0.04-0.51-0.04c-1.45,0-2.49,1.25-2.77,2.95c-0.04,0.31-0.09,0.66-0.09,1.01v5.83h-1.03V8.23z"/>
<path d="M35.44,2.05c0,0.48-0.33,0.9-0.88,0.9c-0.48,0-0.81-0.42-0.81-0.9c0-0.48,0.37-0.92,0.86-0.92
	C35.11,1.12,35.44,1.54,35.44,2.05z M34.08,15.62V5.06h1.03v10.56H34.08z"/>
<path d="M45.23,13.11c0,0.84,0.04,1.69,0.15,2.51h-0.95l-0.15-1.52h-0.07c-0.51,0.81-1.67,1.76-3.37,1.76c-2.11,0-3.1-1.5-3.1-2.9
	c0-2.44,2.16-3.92,6.45-3.87V8.82c0-1.06-0.2-3.15-2.71-3.12c-0.92,0-1.89,0.24-2.64,0.79l-0.33-0.77c0.95-0.64,2.13-0.9,3.08-0.9
	c3.06,0,3.63,2.29,3.63,4.18V13.11z M44.2,9.97c-2.31-0.07-5.35,0.29-5.35,2.82c0,1.52,1.01,2.2,2.11,2.2
	c1.76,0,2.75-1.08,3.12-2.11c0.07-0.22,0.11-0.44,0.11-0.64V9.97z"/>
<path d="M57.07,0v13.16c0,0.79,0.04,1.71,0.09,2.46h-0.95l-0.07-2H56.1c-0.55,1.17-1.8,2.24-3.76,2.24c-2.6,0-4.55-2.18-4.55-5.32
	c-0.02-3.52,2.16-5.72,4.75-5.72c1.83,0,2.97,0.95,3.45,1.85h0.04V0H57.07z M56.03,9.24c0-0.29-0.04-0.68-0.11-0.97
	c-0.37-1.41-1.61-2.6-3.32-2.6c-2.31,0-3.76,2-3.76,4.75c0,2.38,1.19,4.55,3.7,4.55c1.52,0,2.93-0.99,3.39-2.75
	c0.07-0.29,0.11-0.55,0.11-0.88V9.24z"/>
<path d="M65.47,0.97c0.86-0.18,1.91-0.29,3.17-0.29c1.76,0,3.1,0.44,3.92,1.25c0.7,0.68,1.14,1.65,1.14,2.9
	c0,1.28-0.37,2.22-1.03,2.95c-0.95,1.1-2.55,1.67-4.36,1.67c-0.66,0-1.28-0.02-1.8-0.18v6.34h-1.03V0.97z M66.5,8.36
	c0.53,0.15,1.17,0.22,1.89,0.22c2.64,0,4.25-1.3,4.25-3.65c0-2.33-1.69-3.37-4.05-3.37c-0.97,0-1.69,0.09-2.09,0.18V8.36z"/>
<path d="M76.03,8.23c0-1.06-0.04-2.16-0.09-3.17h0.97l0.04,2.13H77c0.46-1.32,1.56-2.38,3.01-2.38c0.13,0,0.29,0.02,0.42,0.04v1.01
	c-0.15-0.04-0.31-0.04-0.51-0.04c-1.45,0-2.49,1.25-2.77,2.95c-0.04,0.31-0.09,0.66-0.09,1.01v5.83h-1.03V8.23z"/>
<path d="M91.3,10.23c0,3.96-2.71,5.63-5.06,5.63c-2.73,0-4.84-2.13-4.84-5.43c0-3.63,2.38-5.61,4.99-5.61
	C89.32,4.82,91.3,7,91.3,10.23z M82.46,10.36c0,2.64,1.69,4.62,3.85,4.62c2.2,0,3.94-1.98,3.94-4.69c0-1.94-1.1-4.62-3.87-4.62
	C83.69,5.68,82.46,8.1,82.46,10.36z"/>
<path d="M98.82,0.79h1.03v13.95h6.62v0.88h-7.66V0.79z"/>
<path d="M110.02,2.05c0,0.48-0.33,0.9-0.88,0.9c-0.48,0-0.81-0.42-0.81-0.9c0-0.48,0.37-0.92,0.86-0.92
	C109.69,1.12,110.02,1.54,110.02,2.05z M108.66,15.62V5.06h1.03v10.56H108.66z"/>
<path d="M121.66,14.08c0,2.71-0.55,4.05-1.43,4.88c-0.97,0.92-2.4,1.25-3.59,1.25c-1.21,0-2.55-0.31-3.34-0.9l0.37-0.84
	c0.73,0.46,1.76,0.88,3.12,0.88c2.22,0,3.83-1.17,3.83-4.29v-1.5h-0.04c-0.55,1.08-1.78,2.04-3.67,2.04c-2.66,0-4.53-2.31-4.53-5.19
	c0-3.67,2.42-5.61,4.75-5.61c2.09,0,3.12,1.14,3.56,2.02h0.04l0.04-1.78h0.97c-0.04,0.79-0.09,1.63-0.09,2.73V14.08z M120.63,9.11
	c0-0.37-0.04-0.7-0.13-1.01c-0.44-1.28-1.56-2.42-3.28-2.42c-2.24,0-3.78,1.85-3.78,4.64c0,2.38,1.25,4.42,3.74,4.42
	c1.41,0,2.73-0.86,3.26-2.38c0.13-0.35,0.2-0.75,0.2-1.12V9.11z"/>
<path d="M125.22,0h1.03v6.95h0.04c0.31-0.59,0.81-1.17,1.45-1.54c0.59-0.37,1.32-0.59,2.13-0.59c0.99,0,3.65,0.51,3.65,4.42v6.38
	h-1.03V9.37c0-1.91-0.75-3.65-2.9-3.65c-1.5,0-2.75,1.08-3.19,2.4c-0.11,0.31-0.15,0.62-0.15,1.03v6.47h-1.03V0z"/>
<path d="M138.47,2.73v2.33h3.01V5.9h-3.01v6.86c0,1.34,0.42,2.2,1.54,2.2c0.55,0,0.95-0.09,1.21-0.18l0.13,0.81
	c-0.35,0.15-0.84,0.26-1.47,0.26c-0.77,0-1.41-0.26-1.8-0.77c-0.48-0.55-0.66-1.43-0.66-2.51V5.9h-1.78V5.06h1.78V3.12L138.47,2.73z
	"/>
</svg>
