<?xml version="1.0" encoding="utf-8"?>
<!-- Generator: Adobe Illustrator 12.0.0, SVG Export Plug-In  -->
<!DOCTYPE svg PUBLIC "-//W3C//DTD SVG 1.1//EN" "http://www.w3.org/Graphics/SVG/1.1/DTD/svg11.dtd" [
	<!ENTITY ns_flows "http://ns.adobe.com/Flows/1.0/">
	<!ENTITY ns_svg "http://www.w3.org/2000/svg">
	<!ENTITY ns_xlink "http://www.w3.org/1999/xlink">
]>
<svg  version="1.1" xmlns="&ns_svg;" xmlns:xlink="&ns_xlink;" xmlns:a="http://ns.adobe.com/AdobeSVGViewerExtensions/3.0/"
	 width="124" height="21" viewBox="-0.5 -0.57 124 21" enable-background="new -0.5 -0.57 124 21" xml:space="preserve">
<defs>
</defs>
<path d="M7.32,9.6c0,1.92,0,3.5,0.1,4.34c0.06,0.58,0.18,1.02,0.78,1.1c0.28,0.04,0.72,0.08,0.9,0.08c0.12,0,0.16,0.06,0.16,0.12
	c0,0.1-0.1,0.16-0.32,0.16c-1.1,0-2.36-0.06-2.46-0.06S5.12,15.4,4.52,15.4c-0.22,0-0.32-0.04-0.32-0.16c0-0.06,0.04-0.12,0.16-0.12
	c0.18,0,0.42-0.04,0.6-0.08c0.4-0.08,0.5-0.52,0.58-1.1c0.1-0.84,0.1-2.42,0.1-4.34V1.14L2.68,1.18C1.44,1.2,0.96,1.34,0.64,1.82
	C0.42,2.16,0.36,2.3,0.3,2.44c-0.06,0.16-0.12,0.2-0.2,0.2C0.04,2.64,0,2.58,0,2.46c0-0.2,0.4-1.92,0.44-2.08
	C0.48,0.26,0.56,0,0.64,0c0.14,0,0.34,0.2,0.88,0.24C2.1,0.3,2.86,0.34,3.1,0.34h7.5c0.64,0,1.1-0.04,1.42-0.1
	c0.3-0.04,0.48-0.1,0.56-0.1c0.1,0,0.1,0.12,0.1,0.24c0,0.6-0.06,1.98-0.06,2.2c0,0.18-0.06,0.26-0.14,0.26
	c-0.1,0-0.14-0.06-0.16-0.34L12.3,2.28c-0.06-0.6-0.54-1.06-2.46-1.1L7.32,1.14V9.6z"/>
<path d="M16.02,7.46c0-2.64,0-3.12-0.04-3.66c-0.04-0.58-0.14-0.86-0.72-0.94c-0.14-0.02-0.44-0.04-0.6-0.04
	c-0.06,0-0.14-0.08-0.14-0.14c0-0.1,0.08-0.14,0.28-0.14c0.8,0,1.98,0.04,2.08,0.04c0.18,0,1.66-0.04,2.2-0.04
	c1.12,0,2.36,0.1,3.28,0.74c0.44,0.32,1.22,1.14,1.22,2.32c0,1.26-0.52,2.48-2.16,3.88c1.44,1.8,2.66,3.34,3.68,4.4
	c0.94,0.96,1.52,1.12,1.96,1.18c0.34,0.06,0.52,0.06,0.62,0.06c0.1,0,0.16,0.08,0.16,0.14c0,0.1-0.1,0.14-0.42,0.14h-1.1
	c-1,0-1.44-0.1-1.88-0.34c-0.76-0.4-1.4-1.22-2.4-2.5c-0.74-0.92-1.52-2.02-1.9-2.48c-0.08-0.08-0.12-0.1-0.24-0.1l-2.24-0.04
	c-0.08,0-0.12,0.04-0.12,0.14v0.4c0,1.64,0,2.96,0.08,3.66c0.06,0.5,0.16,0.82,0.7,0.9c0.24,0.04,0.62,0.08,0.78,0.08
	c0.12,0,0.14,0.08,0.14,0.14c0,0.08-0.08,0.14-0.28,0.14c-0.96,0-2.08-0.06-2.16-0.06c-0.02,0-1.2,0.06-1.74,0.06
	c-0.18,0-0.28-0.04-0.28-0.14c0-0.06,0.04-0.14,0.14-0.14c0.16,0,0.38-0.04,0.54-0.08c0.34-0.08,0.38-0.4,0.46-0.9
	c0.1-0.7,0.1-2.04,0.1-3.68V7.46z M17.54,8.9c0,0.1,0.04,0.16,0.12,0.22c0.26,0.14,1.16,0.26,1.94,0.26c0.42,0,0.9-0.02,1.32-0.3
	c0.6-0.4,1.06-1.3,1.06-2.6c0-2.12-1.16-3.34-3.04-3.34c-0.52,0-1.08,0.06-1.26,0.1c-0.08,0.04-0.14,0.1-0.14,0.2V8.9z"/>
<path d="M32.24,2.88c0.22-0.56,0.3-0.66,0.42-0.66c0.18,0,0.24,0.24,0.42,0.62c0.32,0.72,3.14,7.74,4.22,10.32
	c0.64,1.52,1.12,1.74,1.5,1.86c0.26,0.08,0.52,0.1,0.7,0.1c0.1,0,0.22,0.04,0.22,0.14s-0.2,0.14-0.4,0.14c-0.26,0-1.56,0-2.78-0.04
	c-0.34-0.02-0.62-0.02-0.62-0.12c0-0.08,0.04-0.08,0.12-0.12c0.1-0.04,0.28-0.18,0.16-0.46l-1.58-3.9c-0.04-0.08-0.06-0.1-0.16-0.1
	H30.4c-0.08,0-0.14,0.04-0.18,0.14l-1,2.72c-0.16,0.42-0.26,0.84-0.26,1.14c0,0.34,0.3,0.46,0.6,0.46h0.16
	c0.14,0,0.18,0.06,0.18,0.14c0,0.1-0.1,0.14-0.26,0.14c-0.42,0-1.38-0.06-1.58-0.06c-0.18,0-1.06,0.06-1.78,0.06
	c-0.22,0-0.34-0.04-0.34-0.14c0-0.08,0.08-0.14,0.16-0.14c0.12,0,0.38-0.02,0.52-0.04c0.8-0.1,1.14-0.7,1.48-1.56L32.24,2.88z
	 M34.2,9.96c0.08,0,0.08-0.04,0.06-0.12l-1.74-4.66c-0.1-0.26-0.2-0.26-0.3,0l-1.64,4.66c-0.02,0.08,0,0.12,0.06,0.12H34.2z"/>
<path d="M43.64,11.54c0,2.76-0.06,3.82-0.58,5.02c-0.38,0.86-1.16,1.66-2.58,2.6c-0.24,0.16-0.54,0.34-0.72,0.44
	c-0.02,0-0.06,0.02-0.12,0.02c-0.04,0-0.12-0.02-0.12-0.1c0-0.1,0.06-0.18,0.22-0.28c0.22-0.12,0.46-0.32,0.62-0.46
	c1.14-1.14,1.68-2.02,1.68-6.4V7.46c0-2.64,0-3.12-0.04-3.66c-0.04-0.58-0.14-0.86-0.72-0.94c-0.14-0.02-0.44-0.04-0.6-0.04
	c-0.06,0-0.14-0.08-0.14-0.14c0-0.1,0.08-0.14,0.28-0.14c0.8,0,1.94,0.04,2.04,0.04c0.08,0,1.18-0.04,1.72-0.04
	c0.2,0,0.28,0.04,0.28,0.14c0,0.06-0.08,0.14-0.14,0.14c-0.12,0-0.24,0-0.44,0.04C43.8,2.96,43.7,3.2,43.66,3.8
	c-0.02,0.54-0.02,1.02-0.02,3.66V11.54z"/>
<path d="M52.1,2.88c0.22-0.56,0.3-0.66,0.42-0.66c0.18,0,0.24,0.24,0.42,0.62c0.32,0.72,3.14,7.74,4.22,10.32
	c0.64,1.52,1.12,1.74,1.5,1.86c0.26,0.08,0.52,0.1,0.7,0.1c0.1,0,0.22,0.04,0.22,0.14s-0.2,0.14-0.4,0.14c-0.26,0-1.56,0-2.78-0.04
	c-0.34-0.02-0.62-0.02-0.62-0.12c0-0.08,0.04-0.08,0.12-0.12c0.1-0.04,0.28-0.18,0.16-0.46l-1.58-3.9c-0.04-0.08-0.06-0.1-0.16-0.1
	h-4.06c-0.08,0-0.14,0.04-0.18,0.14l-1,2.72c-0.16,0.42-0.26,0.84-0.26,1.14c0,0.34,0.3,0.46,0.6,0.46h0.16
	c0.14,0,0.18,0.06,0.18,0.14c0,0.1-0.1,0.14-0.26,0.14c-0.42,0-1.38-0.06-1.58-0.06c-0.18,0-1.06,0.06-1.78,0.06
	c-0.22,0-0.34-0.04-0.34-0.14c0-0.08,0.08-0.14,0.16-0.14c0.12,0,0.38-0.02,0.52-0.04c0.8-0.1,1.14-0.7,1.48-1.56L52.1,2.88z
	 M54.06,9.96c0.08,0,0.08-0.04,0.06-0.12l-1.74-4.66c-0.1-0.26-0.2-0.26-0.3,0l-1.64,4.66c-0.02,0.08,0,0.12,0.06,0.12H54.06z"/>
<path d="M62.64,13.08c0.04,1.4,0.2,1.82,0.68,1.94c0.32,0.08,0.72,0.1,0.88,0.1c0.08,0,0.14,0.06,0.14,0.14
	c0,0.1-0.12,0.14-0.32,0.14c-1,0-1.7-0.06-1.86-0.06c-0.16,0-0.9,0.06-1.7,0.06c-0.18,0-0.28-0.02-0.28-0.14
	c0-0.08,0.06-0.14,0.14-0.14c0.14,0,0.46-0.02,0.72-0.1c0.44-0.12,0.5-0.58,0.5-2.12V3.16c0-0.68,0.1-0.86,0.24-0.86
	c0.2,0,0.5,0.34,0.68,0.52c0.28,0.28,2.84,3,5.56,5.8c1.74,1.8,3.62,3.82,4.16,4.38L72,4.48C71.98,3.38,71.88,3,71.34,2.9
	c-0.32-0.06-0.72-0.08-0.86-0.08c-0.12,0-0.14-0.1-0.14-0.16c0-0.1,0.14-0.12,0.34-0.12c0.8,0,1.64,0.04,1.84,0.04
	c0.2,0,0.78-0.04,1.5-0.04c0.18,0,0.32,0.02,0.32,0.12c0,0.06-0.08,0.16-0.2,0.16c-0.08,0-0.22,0-0.42,0.04
	c-0.58,0.12-0.62,0.46-0.62,1.48l-0.04,9.96c0,1.12-0.02,1.22-0.14,1.22c-0.18,0-0.36-0.14-1.34-1.04c-0.18-0.16-2.72-2.66-4.58-4.6
	c-2.04-2.14-4.02-4.22-4.56-4.82L62.64,13.08z"/>
<path d="M85.52,6.08c0-3.12,0-3.68-0.04-4.32c-0.04-0.68-0.2-1-0.86-1.14c-0.16-0.04-0.5-0.06-0.68-0.06
	c-0.08,0-0.16-0.04-0.16-0.12c0-0.12,0.1-0.16,0.32-0.16c0.9,0,2.1,0.06,2.26,0.06c0.44,0,1.6-0.06,2.52-0.06
	c2.5,0,3.4,0.84,3.72,1.14c0.44,0.42,1,1.32,1,2.38c0,2.84-2.08,4.76-4.92,4.76c-0.1,0-0.32,0-0.42-0.02c-0.1,0-0.22-0.04-0.22-0.14
	c0-0.16,0.12-0.18,0.54-0.18c1.94,0,3.46-1.42,3.46-3.26c0-0.66-0.06-2-1.12-3.08s-2.28-1-2.74-1c-0.34,0-0.68,0.04-0.86,0.12
	c-0.12,0.04-0.16,0.18-0.16,0.38V9.6c0,1.92,0,3.5,0.1,4.34c0.06,0.58,0.18,1.02,0.78,1.1c0.28,0.04,0.72,0.08,0.9,0.08
	c0.12,0,0.16,0.06,0.16,0.12c0,0.1-0.1,0.16-0.32,0.16c-1.1,0-2.36-0.06-2.46-0.06c-0.06,0-1.32,0.06-1.92,0.06
	c-0.22,0-0.32-0.04-0.32-0.16c0-0.06,0.04-0.12,0.16-0.12c0.18,0,0.42-0.04,0.6-0.08c0.4-0.08,0.5-0.52,0.58-1.1
	c0.1-0.84,0.1-2.42,0.1-4.34V6.08z"/>
<path d="M97.58,7.46c0-2.64,0-3.12-0.04-3.66c-0.04-0.58-0.14-0.86-0.72-0.94c-0.14-0.02-0.44-0.04-0.6-0.04
	c-0.06,0-0.14-0.08-0.14-0.14c0-0.1,0.08-0.14,0.28-0.14c0.8,0,1.98,0.04,2.08,0.04c0.18,0,1.66-0.04,2.2-0.04
	c1.12,0,2.36,0.1,3.28,0.74c0.44,0.32,1.22,1.14,1.22,2.32c0,1.26-0.52,2.48-2.16,3.88c1.44,1.8,2.66,3.34,3.68,4.4
	c0.94,0.96,1.52,1.12,1.96,1.18c0.34,0.06,0.52,0.06,0.62,0.06c0.1,0,0.16,0.08,0.16,0.14c0,0.1-0.1,0.14-0.42,0.14h-1.1
	c-1,0-1.44-0.1-1.88-0.34c-0.76-0.4-1.4-1.22-2.4-2.5c-0.74-0.92-1.52-2.02-1.9-2.48c-0.08-0.08-0.12-0.1-0.24-0.1l-2.24-0.04
	c-0.08,0-0.12,0.04-0.12,0.14v0.4c0,1.64,0,2.96,0.08,3.66c0.06,0.5,0.16,0.82,0.7,0.9c0.24,0.04,0.62,0.08,0.78,0.08
	c0.12,0,0.14,0.08,0.14,0.14c0,0.08-0.08,0.14-0.28,0.14c-0.96,0-2.08-0.06-2.16-0.06c-0.02,0-1.2,0.06-1.74,0.06
	c-0.18,0-0.28-0.04-0.28-0.14c0-0.06,0.04-0.14,0.14-0.14c0.16,0,0.38-0.04,0.54-0.08c0.34-0.08,0.38-0.4,0.46-0.9
	c0.1-0.7,0.1-2.04,0.1-3.68V7.46z M99.1,8.9c0,0.1,0.04,0.16,0.12,0.22c0.26,0.14,1.16,0.26,1.94,0.26c0.42,0,0.9-0.02,1.32-0.3
	c0.6-0.4,1.06-1.3,1.06-2.6c0-2.12-1.16-3.34-3.04-3.34c-0.52,0-1.08,0.06-1.26,0.1c-0.08,0.04-0.14,0.1-0.14,0.2V8.9z"/>
<path d="M116.28,2.3c3.96,0,6.96,2.42,6.96,6.38c0,3.8-2.82,6.94-7.06,6.94c-4.82,0-6.88-3.62-6.88-6.68
	C109.3,6.2,111.42,2.3,116.28,2.3z M116.68,14.92c1.58,0,4.76-0.84,4.76-5.76c0-4.08-2.48-6.22-5.26-6.22
	c-2.94,0-5.06,1.84-5.06,5.54C111.12,12.44,113.5,14.92,116.68,14.92z"/>
</svg>
