<?xml version="1.0" encoding="utf-8"?>
<!-- Generator: Adobe Illustrator 12.0.0, SVG Export Plug-In  -->
<!DOCTYPE svg PUBLIC "-//W3C//DTD SVG 1.1//EN" "http://www.w3.org/Graphics/SVG/1.1/DTD/svg11.dtd" [
	<!ENTITY ns_flows "http://ns.adobe.com/Flows/1.0/">
	<!ENTITY ns_svg "http://www.w3.org/2000/svg">
	<!ENTITY ns_xlink "http://www.w3.org/1999/xlink">
]>
<svg  version="1.1" xmlns="&ns_svg;" xmlns:xlink="&ns_xlink;" xmlns:a="http://ns.adobe.com/AdobeSVGViewerExtensions/3.0/"
	 width="30" height="31" viewBox="-0.33 -0.84 30 31" enable-background="new -0.33 -0.84 30 31" xml:space="preserve">
<defs>
</defs>
<path fill="#646567" d="M15.91,0.49L15.91,0.49c-0.7-0.65-1.79-0.65-2.49,0L0,12.98v0.84v14.38v1.12h29.33v-1.12V13.83v-0.84
	L15.91,0.49z M9.8,20.9c-0.01,0.04-0.02,0.07-0.02,0.11c0,0.04,0.01,0.08,0.02,0.11l-8.82,6.72V14.18L9.8,20.9z M10.92,21.51h7.49
	l8.98,6.84H1.94L10.92,21.51z M28.35,14.18v13.67l-8.97-6.83L28.35,14.18z M14.09,1.2c0.32-0.3,0.83-0.3,1.15,0v0l12.85,11.96
	c-0.01,0.01-0.03,0.02-0.04,0.03l-2.63,2.01c0-0.01,0.01-0.03,0.01-0.04c0-0.27-0.22-0.49-0.49-0.49c-0.27,0-0.49,0.22-0.49,0.49
	c0,0.24,0.18,0.43,0.41,0.47l-0.98,0.74c-0.09-0.14-0.23-0.24-0.41-0.24c-0.27,0-0.49,0.22-0.49,0.49c0,0.13,0.05,0.24,0.13,0.33
	l-0.91,0.69c-0.06-0.03-0.13-0.05-0.2-0.05c-0.27,0-0.49,0.22-0.49,0.49c0,0.03,0.01,0.05,0.01,0.07l-3.11,2.37h-7.49l-3.11-2.37
	c0-0.03,0.02-0.05,0.02-0.07c0-0.27-0.22-0.49-0.49-0.49c-0.07,0-0.14,0.02-0.2,0.05l-0.91-0.69c0.08-0.09,0.13-0.2,0.13-0.33
	c0-0.27-0.22-0.49-0.49-0.49c-0.18,0-0.32,0.1-0.41,0.24l-0.98-0.74c0.23-0.04,0.41-0.23,0.41-0.47c0-0.27-0.22-0.49-0.49-0.49
	c-0.27,0-0.49,0.22-0.49,0.49c0,0.02,0.01,0.03,0.01,0.04l-2.63-2.01c-0.02-0.01-0.03-0.02-0.05-0.03L14.09,1.2z"/>
<circle fill="#646567" cx="10.27" cy="6.35" r="0.49"/>
<circle fill="#646567" cx="14.67" cy="1.95" r="0.49"/>
<circle fill="#646567" cx="11.73" cy="4.89" r="0.49"/>
<circle fill="#646567" cx="14.67" cy="4.89" r="0.49"/>
<circle fill="#646567" cx="13.2" cy="3.42" r="0.49"/>
<circle fill="#646567" cx="16.13" cy="3.42" r="0.49"/>
<circle fill="#646567" cx="13.2" cy="6.35" r="0.49"/>
<circle fill="#646567" cx="16.13" cy="6.35" r="0.49"/>
<circle fill="#646567" cx="17.6" cy="4.89" r="0.49"/>
<circle fill="#646567" cx="19.07" cy="6.35" r="0.49"/>
<circle fill="#646567" cx="4.4" cy="12.22" r="0.49"/>
<circle fill="#646567" cx="8.8" cy="7.82" r="0.49"/>
<circle fill="#646567" cx="5.87" cy="10.75" r="0.49"/>
<circle fill="#646567" cx="8.8" cy="10.75" r="0.49"/>
<circle fill="#646567" cx="7.33" cy="9.29" r="0.49"/>
<circle fill="#646567" cx="10.27" cy="9.29" r="0.49"/>
<circle fill="#646567" cx="7.33" cy="12.22" r="0.49"/>
<circle fill="#646567" cx="10.27" cy="12.22" r="0.49"/>
<circle fill="#646567" cx="11.73" cy="7.82" r="0.49"/>
<circle fill="#646567" cx="14.67" cy="7.82" r="0.49"/>
<circle fill="#646567" cx="11.73" cy="10.75" r="0.49"/>
<circle fill="#646567" cx="14.67" cy="10.75" r="0.49"/>
<circle fill="#646567" cx="13.2" cy="9.29" r="0.49"/>
<circle fill="#646567" cx="16.13" cy="9.29" r="0.49"/>
<circle fill="#646567" cx="13.2" cy="12.22" r="0.49"/>
<circle fill="#646567" cx="16.13" cy="12.22" r="0.49"/>
<circle fill="#646567" cx="17.6" cy="7.82" r="0.49"/>
<circle fill="#646567" cx="20.53" cy="7.82" r="0.49"/>
<circle fill="#646567" cx="17.6" cy="10.75" r="0.49"/>
<circle fill="#646567" cx="20.53" cy="10.75" r="0.49"/>
<circle fill="#646567" cx="19.07" cy="9.29" r="0.49"/>
<circle fill="#646567" cx="22" cy="9.29" r="0.49"/>
<circle fill="#646567" cx="19.07" cy="12.22" r="0.49"/>
<circle fill="#646567" cx="22" cy="12.22" r="0.49"/>
<circle fill="#646567" cx="23.46" cy="10.75" r="0.49"/>
<circle fill="#646567" cx="24.93" cy="12.22" r="0.49"/>
<circle fill="#646567" cx="2.93" cy="13.68" r="0.49"/>
<circle fill="#646567" cx="5.87" cy="13.68" r="0.49"/>
<circle fill="#646567" cx="8.8" cy="13.68" r="0.49"/>
<circle fill="#646567" cx="8.8" cy="16.62" r="0.49"/>
<circle fill="#646567" cx="7.33" cy="15.15" r="0.49"/>
<circle fill="#646567" cx="10.27" cy="15.15" r="0.49"/>
<circle fill="#646567" cx="10.27" cy="18.09" r="0.49"/>
<circle fill="#646567" cx="11.73" cy="13.68" r="0.49"/>
<circle fill="#646567" cx="14.67" cy="13.68" r="0.49"/>
<circle fill="#646567" cx="11.73" cy="16.62" r="0.49"/>
<circle fill="#646567" cx="11.73" cy="19.55" r="0.49"/>
<circle fill="#646567" cx="14.67" cy="16.62" r="0.49"/>
<circle fill="#646567" cx="13.2" cy="15.15" r="0.49"/>
<circle fill="#646567" cx="16.13" cy="15.15" r="0.49"/>
<circle fill="#646567" cx="13.2" cy="18.09" r="0.49"/>
<circle fill="#646567" cx="16.13" cy="18.09" r="0.49"/>
<circle fill="#646567" cx="17.6" cy="13.68" r="0.49"/>
<circle fill="#646567" cx="20.53" cy="13.68" r="0.49"/>
<circle fill="#646567" cx="17.6" cy="16.62" r="0.49"/>
<circle fill="#646567" cx="17.6" cy="19.55" r="0.49"/>
<circle fill="#646567" cx="20.53" cy="16.62" r="0.49"/>
<circle fill="#646567" cx="19.07" cy="15.15" r="0.49"/>
<circle fill="#646567" cx="22" cy="15.15" r="0.49"/>
<circle fill="#646567" cx="19.07" cy="18.09" r="0.49"/>
<circle fill="#646567" cx="23.46" cy="13.68" r="0.49"/>
<circle fill="#646567" cx="26.4" cy="13.68" r="0.49"/>
<circle fill="#646567" cx="14.67" cy="19.55" r="0.49"/>
</svg>
