<?xml version="1.0" encoding="utf-8"?>
<!-- Generator: Adobe Illustrator 18.1.0, SVG Export Plug-In . SVG Version: 6.00 Build 0)  -->
<svg version="1.1" id="Capa_1" xmlns="http://www.w3.org/2000/svg" xmlns:xlink="http://www.w3.org/1999/xlink" x="0px" y="0px"
	 width="1000px" height="1000px" viewBox="0 0 1000 1000" enable-background="new 0 0 1000 1000" xml:space="preserve">
<path d="M233.2,911.1c133.4,0,400.3,0,533.7,0c11,0,20-9,20-20c0-138.7,0-554.8,0-554.8H213.2c0,0,0,416.1,0,554.8
	C213.2,902.2,222.1,911.1,233.2,911.1z M615.2,443.9c0-18,14.6-32.7,32.7-32.7h0.7c18,0,32.7,14.6,32.7,32.7v359.7
	c0,18-14.6,32.7-32.7,32.7h-0.7c-18,0-32.7-14.6-32.7-32.7V443.9z M467,443.9c0-18,14.6-32.7,32.7-32.7h0.7
	c18,0,32.7,14.6,32.7,32.7v359.7c0,18-14.6,32.7-32.7,32.7h-0.7c-18,0-32.7-14.6-32.7-32.7V443.9z M318.8,443.9
	c0-18,14.6-32.7,32.7-32.7h0.7c18,0,32.7,14.6,32.7,32.7v359.7c0,18-14.6,32.7-32.7,32.7h-0.7c-18,0-32.7-14.6-32.7-32.7V443.9z"/>
<path d="M627.9,148.1v-45c0-27.6-22.4-50-50-50H422.1c-27.6,0-50,22.4-50,50v45h40v-35c0-11,9-20,20-20h135.7c11,0,20,9,20,20v35
	H627.9z"/>
<path d="M188.2,208.1v68.2c0,11,9,20,20,20h583.6c11,0,20-9,20-20v-68.2c0-11-9-20-20-20H208.2C197.2,188.1,188.2,197,188.2,208.1z"
	/>
</svg>
