<?xml version="1.0" encoding="utf-8"?>
<!-- Generator: Adobe Illustrator 17.1.0, SVG Export Plug-In . SVG Version: 6.00 Build 0)  -->
<!DOCTYPE svg PUBLIC "-//W3C//DTD SVG 1.1//EN" "http://www.w3.org/Graphics/SVG/1.1/DTD/svg11.dtd">
<svg version="1.1" id="Layer_1" xmlns="http://www.w3.org/2000/svg" xmlns:xlink="http://www.w3.org/1999/xlink" x="0px" y="0px"
	 width="1000px" height="1000px" viewBox="0 0 1000 1000" enable-background="new 0 0 1000 1000" xml:space="preserve">
<path d="M226.165,928c0,11.046,8.954,20,20,20h507.67c11.046,0,20-8.954,20-20V279.987h-547.67V928z M612.5,390.266h75v436.029h-75
	V390.266z M462.5,390.266h75v436.029h-75V390.266z M312.5,390.266h75v436.029h-75V390.266z"/>
<path d="M668.575,139.411V67.5c0-11.046-8.954-20-20-20h-297.15c-11.046,0-20,8.954-20,20v71.911v12.5v12.5H191.624
	c-11.046,0-20,8.954-20,20v50.576c0,11.045,8.954,20,20,20h34.541h547.67h34.541c11.046,0,20-8.955,20-20v-50.576
	c0-11.046-8.954-20-20-20H668.575v-12.5V139.411z M593.575,160.299h-187.15v-8.389v-12.5V122.5h187.15v16.911v12.5V160.299z"/>
</svg>
