<?xml version="1.0" encoding="iso-8859-1"?>
<!-- Generator: Adobe Illustrator 16.0.4, SVG Export Plug-In . SVG Version: 6.00 Build 0)  -->
<!DOCTYPE svg PUBLIC "-//W3C//DTD SVG 1.1//EN" "http://www.w3.org/Graphics/SVG/1.1/DTD/svg11.dtd">
<svg version="1.1" id="Capa_1" xmlns="http://www.w3.org/2000/svg" xmlns:xlink="http://www.w3.org/1999/xlink" x="0px" y="0px"
	 width="25.304px" height="23.381px" viewBox="0 0 25.304 23.381" style="enable-background:new 0 0 25.304 23.381;"
	 xml:space="preserve">
<g>
	<path d="M14.904,22.38H0.5c-0.276,0-0.5,0.225-0.5,0.5s0.224,0.5,0.5,0.5h14.404c0.276,0,0.5-0.225,0.5-0.5
		S15.181,22.38,14.904,22.38z"/>
	<path d="M14.904,19.247H2.234c-0.276,0-0.5,0.224-0.5,0.5c0,0.275,0.224,0.5,0.5,0.5h12.67c0.276,0,0.5-0.225,0.5-0.5
		C15.404,19.471,15.181,19.247,14.904,19.247z"/>
	<path d="M14.904,16.112H3.968c-0.276,0-0.5,0.224-0.5,0.5c0,0.275,0.224,0.5,0.5,0.5h10.936c0.276,0,0.5-0.225,0.5-0.5
		C15.404,16.336,15.181,16.112,14.904,16.112z"/>
	<path d="M14.904,12.979H5.701c-0.276,0-0.5,0.224-0.5,0.5c0,0.275,0.224,0.5,0.5,0.5h9.203c0.276,0,0.5-0.225,0.5-0.5
		C15.404,13.203,15.181,12.979,14.904,12.979z"/>
	<path d="M14.904,9.844H7.435c-0.276,0-0.5,0.224-0.5,0.5s0.224,0.5,0.5,0.5h7.469c0.276,0,0.5-0.224,0.5-0.5
		S15.181,9.844,14.904,9.844z"/>
	<path d="M14.904,6.711H9.169c-0.276,0-0.5,0.224-0.5,0.5s0.224,0.5,0.5,0.5h5.735c0.276,0,0.5-0.224,0.5-0.5
		S15.181,6.711,14.904,6.711z"/>
	<path d="M25.157,4.211L21.3,0.354l0,0L20.946,0l-0.353,0.353c0,0.002,0,0.002-0.001,0.002l-3.857,3.856
		c-0.195,0.194-0.195,0.513,0,0.707s0.512,0.194,0.707,0l3.004-3.004v20.967c0,0.276,0.224,0.5,0.5,0.5s0.5-0.224,0.5-0.5V1.914
		l3.004,3.004c0.098,0.099,0.226,0.146,0.354,0.146s0.256-0.049,0.354-0.146C25.352,4.724,25.352,4.405,25.157,4.211z"/>
</g>
<g>
</g>
<g>
</g>
<g>
</g>
<g>
</g>
<g>
</g>
<g>
</g>
<g>
</g>
<g>
</g>
<g>
</g>
<g>
</g>
<g>
</g>
<g>
</g>
<g>
</g>
<g>
</g>
<g>
</g>
</svg>
