<?xml version="1.0" encoding="utf-8"?>
<!-- Generator: Adobe Illustrator 12.0.0, SVG Export Plug-In  -->
<!DOCTYPE svg PUBLIC "-//W3C//DTD SVG 1.1//EN" "http://www.w3.org/Graphics/SVG/1.1/DTD/svg11.dtd" [
	<!ENTITY ns_flows "http://ns.adobe.com/Flows/1.0/">
	<!ENTITY ns_svg "http://www.w3.org/2000/svg">
	<!ENTITY ns_xlink "http://www.w3.org/1999/xlink">
]>
<svg  version="1.1" xmlns="&ns_svg;" xmlns:xlink="&ns_xlink;" xmlns:a="http://ns.adobe.com/AdobeSVGViewerExtensions/3.0/"
	 width="59" height="47" viewBox="-0.86 -0.48 59 47" enable-background="new -0.86 -0.48 59 47" xml:space="preserve">
<defs>
</defs>
<path fill="#58595B" d="M55.99,1.47c-0.11-0.27-0.35-0.46-0.64-0.5c-0.29-0.03-0.57,0.09-0.74,0.33c-1,1.41-2.32,1.88-3.84,2.42
	c-1.23,0.44-2.5,0.89-3.87,1.88c-1.94,1.39-2.83,3.29-2.39,5.1l-0.05,0.06c-0.81-1.18-1.69-2.27-2.62-3.24
	c-4.36-4.55-10.45-7.28-16.71-7.5C24.84,0,24.56,0,24.28,0C17.29,0,10.6,3.13,5.93,8.57c-4.65,5.42-6.71,12.48-5.66,19.36
	c0.09,0.58,0.2,1.16,0.33,1.73c1.72,7.57,6.11,13.32,12.04,15.79c1.46,0.61,2.94,0.92,4.39,0.92c3.6,0,6.74-1.92,8.62-5.28
	c0.71-1.28,1.17-2.59,1.37-3.92c0.12-0.78,0.04-1.57-0.04-2.32c-0.08-0.78-0.15-1.52-0.03-2.26c0.27-1.7,1.46-2.72,3.18-2.72
	c0.49,0,0.99,0.08,1.49,0.24c-0.58,1.07-1.12,2.1-1.58,3.05c-0.98,2.01-1.66,3.68-2.02,4.95c-0.22,0.79-0.8,2.87,0.62,3.86
	c0.45,0.31,1.02,0.42,1.62,0.31c0.53-0.1,2.17-0.4,6.79-5.67c1.25-1.41,2.58-3.05,3.98-4.87c3.59-1.21,6.39-4.22,7.13-7.68
	c0.19-0.87,0.26-1.79,0.23-2.75c1.35-2.08,2.53-4.02,3.71-6.1c0.02-0.04,0.04-0.08,0.07-0.13c1.72-0.47,3.21-1.81,4.08-3.69
	C57.52,8.64,57.43,5.12,55.99,1.47z M36.56,14.43c-0.62,0.99-1.69,1.58-2.87,1.58c-0.64,0-1.26-0.18-1.8-0.52
	c-0.76-0.48-1.3-1.23-1.5-2.11c-0.2-0.88-0.05-1.79,0.44-2.55c0.62-0.99,1.69-1.58,2.87-1.58c0.64,0,1.26,0.18,1.8,0.52
	c0.76,0.48,1.3,1.23,1.5,2.11S37.04,13.67,36.56,14.43z M40.95,20.57c1.71-2.52,3.52-5.03,5.24-7.26c0.28,0.25,0.59,0.5,0.93,0.73
	c0.56,0.39,1.14,0.69,1.74,0.89c-1.45,2.48-3.01,4.94-4.9,7.72c-3.1,4.57-6.33,8.82-9.09,11.96c-1.54,1.75-2.89,3.11-3.93,3.95
	c0.4-1.28,1.17-3.04,2.23-5.12C35.09,29.71,37.85,25.14,40.95,20.57z M10.91,20.54c-0.64,0-1.26-0.18-1.8-0.52
	c-0.76-0.48-1.3-1.23-1.5-2.11c-0.2-0.88-0.04-1.79,0.44-2.55c0.62-0.99,1.69-1.58,2.87-1.58c0.64,0,1.26,0.18,1.8,0.52
	c1.58,0.99,2.05,3.09,1.06,4.67C13.16,19.95,12.08,20.54,10.91,20.54z M7.36,28c0.62-0.99,1.7-1.58,2.87-1.58
	c0.63,0,1.26,0.18,1.8,0.52c0.76,0.48,1.3,1.23,1.5,2.11c0.2,0.88,0.05,1.79-0.44,2.55c-0.62,0.99-1.7,1.58-2.87,1.58
	c-0.64,0-1.26-0.18-1.8-0.52c-0.76-0.48-1.3-1.23-1.5-2.11C6.73,29.67,6.88,28.76,7.36,28z M18.2,7.9c0.62-0.99,1.69-1.58,2.87-1.58
	c0.64,0,1.26,0.18,1.8,0.52c1.58,0.99,2.05,3.09,1.06,4.67c-0.62,0.99-1.69,1.58-2.87,1.58c-0.64,0-1.26-0.18-1.8-0.52
	c-0.76-0.48-1.3-1.23-1.5-2.11C17.57,9.57,17.72,8.66,18.2,7.9z"/>
</svg>
