<?xml version="1.0" encoding="utf-8"?>
<!-- Generator: Adobe Illustrator 12.0.0, SVG Export Plug-In  -->
<!DOCTYPE svg PUBLIC "-//W3C//DTD SVG 1.1//EN" "http://www.w3.org/Graphics/SVG/1.1/DTD/svg11.dtd" [
	<!ENTITY ns_flows "http://ns.adobe.com/Flows/1.0/">
	<!ENTITY ns_svg "http://www.w3.org/2000/svg">
	<!ENTITY ns_xlink "http://www.w3.org/1999/xlink">
]>
<svg  version="1.1" xmlns="&ns_svg;" xmlns:xlink="&ns_xlink;" xmlns:a="http://ns.adobe.com/AdobeSVGViewerExtensions/3.0/"
	 width="61" height="47" viewBox="-0.54 -0.55 61 47" enable-background="new -0.54 -0.55 61 47" xml:space="preserve">
<defs>
</defs>
<path fill="#58595B" d="M59.68,36.19h-1.89V25.62c0-1.24-0.37-2.45-1.06-3.47l-4.73-7.01c-1.16-1.71-3.09-2.74-5.15-2.74H39.5
	c-0.86,0-1.55,0.7-1.55,1.55v22.23H25.93c1.14,0.99,1.93,2.36,2.15,3.92h12.67c0.45-3.09,3.11-5.47,6.32-5.47
	c3.21,0,5.86,2.39,6.31,5.47h6.3c0.43,0,0.78-0.35,0.78-0.78v-2.36C60.46,36.54,60.11,36.19,59.68,36.19z M51.94,23.55h-9.69
	c-0.43,0-0.78-0.34-0.78-0.78V17.4c0-0.43,0.35-0.78,0.78-0.78h5.9c0.26,0,0.49,0.13,0.64,0.33l3.79,5.38
	C52.93,22.84,52.57,23.55,51.94,23.55z M47.07,36.19c-2.67,0-4.83,2.17-4.83,4.84c0,2.67,2.16,4.83,4.83,4.83
	c2.67,0,4.84-2.17,4.84-4.83C51.91,38.35,49.74,36.19,47.07,36.19z M47.07,43.45c-1.34,0-2.42-1.09-2.42-2.42
	c0-1.34,1.08-2.42,2.42-2.42c1.34,0,2.42,1.08,2.42,2.42C49.49,42.36,48.41,43.45,47.07,43.45z M6.76,36.19
	c-0.43,0-0.78,0.35-0.78,0.78v2.36c0,0.43,0.35,0.78,0.78,0.78h8.69c0.22-1.55,1.01-2.93,2.14-3.92H6.76L6.76,36.19z M21.76,36.19
	c-2.67,0-4.83,2.17-4.83,4.84c0,2.67,2.17,4.83,4.83,4.83c2.67,0,4.83-2.17,4.83-4.83C26.6,38.35,24.44,36.19,21.76,36.19z
	 M21.76,43.45c-1.34,0-2.42-1.09-2.42-2.42c0-1.34,1.08-2.42,2.42-2.42c1.34,0,2.42,1.08,2.42,2.42
	C24.18,42.36,23.1,43.45,21.76,43.45z M33.39,7.58h-9.01c0.44,1.31,0.68,2.72,0.68,4.17c0,7.34-5.97,13.31-13.31,13.31
	c-1.34,0-2.64-0.2-3.86-0.57v8.59c0,0.43,0.35,0.78,0.78,0.78h26.27c0.43,0,0.78-0.35,0.78-0.78V9.91
	C35.72,8.62,34.68,7.58,33.39,7.58z M11.75,0C5.26,0,0,5.26,0,11.75C0,18.24,5.26,23.5,11.75,23.5S23.5,18.24,23.5,11.75
	C23.5,5.26,18.24,0,11.75,0z M11.75,20.83c-5.01,0-9.08-4.06-9.08-9.08c0-5.01,4.07-9.08,9.08-9.08c5.01,0,9.08,4.06,9.08,9.08
	C20.83,16.77,16.77,20.83,11.75,20.83z M15.22,13.67c-0.1,0-0.2-0.01-0.3-0.04l-3.79-1.02c-0.51-0.14-0.86-0.6-0.86-1.13V5.65
	c0-0.64,0.52-1.17,1.17-1.17s1.17,0.52,1.17,1.17v4.94l2.93,0.79c0.62,0.17,0.99,0.81,0.82,1.43C16.2,13.33,15.73,13.67,15.22,13.67
	z"/>
</svg>
