<?xml version="1.0" encoding="utf-8"?>
<!-- Generator: Adobe Illustrator 12.0.0, SVG Export Plug-In  -->
<!DOCTYPE svg PUBLIC "-//W3C//DTD SVG 1.1//EN" "http://www.w3.org/Graphics/SVG/1.1/DTD/svg11.dtd" [
	<!ENTITY ns_flows "http://ns.adobe.com/Flows/1.0/">
	<!ENTITY ns_svg "http://www.w3.org/2000/svg">
	<!ENTITY ns_xlink "http://www.w3.org/1999/xlink">
]>
<svg  version="1.1" xmlns="&ns_svg;" xmlns:xlink="&ns_xlink;" xmlns:a="http://ns.adobe.com/AdobeSVGViewerExtensions/3.0/"
	 width="44" height="45" viewBox="0 -0.99 44 45" enable-background="new 0 -0.99 44 45" xml:space="preserve">
<defs>
</defs>
<path fill="#58595B" d="M18.37,0H1.67C0.75,0,0,0.75,0,1.67v16.7c0,0.92,0.75,1.67,1.67,1.67h16.7c0.92,0,1.67-0.75,1.67-1.67V1.67
	C20.04,0.75,19.29,0,18.37,0z"/>
<path fill="#58595B" d="M41.76,0h-16.7c-0.92,0-1.67,0.75-1.67,1.67v16.7c0,0.92,0.75,1.67,1.67,1.67h16.7
	c0.92,0,1.67-0.75,1.67-1.67V1.67C43.43,0.75,42.68,0,41.76,0z M40.08,16.7H26.72V3.34h13.36V16.7z"/>
<path fill="#58595B" d="M18.37,23.38H1.67C0.75,23.38,0,24.13,0,25.05v16.7c0,0.92,0.75,1.67,1.67,1.67h16.7
	c0.92,0,1.67-0.75,1.67-1.67v-16.7C20.04,24.13,19.29,23.38,18.37,23.38z M7.89,40.08c0.29-0.49,0.46-1.06,0.46-1.67
	c0-1.84-1.5-3.34-3.34-3.34c-0.61,0-1.18,0.18-1.67,0.46v-4.27c0.49,0.29,1.06,0.46,1.67,0.46c1.84,0,3.34-1.5,3.34-3.34
	c0-0.61-0.18-1.18-0.46-1.67h4.27c-0.29,0.49-0.46,1.06-0.46,1.67c0,1.84,1.5,3.34,3.34,3.34c0.61,0,1.18-0.18,1.67-0.46v4.27
	c-0.49-0.29-1.06-0.46-1.67-0.46c-1.85,0-3.34,1.5-3.34,3.34c0,0.61,0.18,1.18,0.46,1.67H7.89z"/>
<path fill="#58595B" d="M41.76,23.38h-16.7c-0.92,0-1.67,0.75-1.67,1.67v8.35v8.35c0,0.92,0.75,1.67,1.67,1.67h8.35h8.35
	c0.92,0,1.67-0.75,1.67-1.67v-16.7C43.43,24.13,42.68,23.38,41.76,23.38z M26.72,34.09l7.37-7.37h3.63l-11,11V34.09z M26.72,26.72
	h2.65l-2.65,2.65V26.72z M40.08,29.08v3.63l-7.37,7.37h-3.63L40.08,29.08z M40.08,40.08h-2.65l2.65-2.65V40.08z"/>
<circle fill="#58595B" cx="10.02" cy="33.4" r="3.34"/>
</svg>
