<?xml version="1.0" encoding="utf-8"?>
<!-- Generator: Adobe Illustrator 12.0.0, SVG Export Plug-In  -->
<!DOCTYPE svg PUBLIC "-//W3C//DTD SVG 1.1//EN" "http://www.w3.org/Graphics/SVG/1.1/DTD/svg11.dtd" [
	<!ENTITY ns_flows "http://ns.adobe.com/Flows/1.0/">
	<!ENTITY ns_svg "http://www.w3.org/2000/svg">
	<!ENTITY ns_xlink "http://www.w3.org/1999/xlink">
]>
<svg  version="1.1" xmlns="&ns_svg;" xmlns:xlink="&ns_xlink;" xmlns:a="http://ns.adobe.com/AdobeSVGViewerExtensions/3.0/"
	 width="42" height="49" viewBox="0 -0.82 42 49" enable-background="new 0 -0.82 42 49" xml:space="preserve">
<defs>
</defs>
<path fill="#58595B" d="M0,17.08v13.43c0,0.61,0.5,1.11,1.11,1.11h3.41V15.97H1.11C0.5,15.97,0,16.46,0,17.08z"/>
<path fill="#58595B" d="M15.19,31.62h25.65c0.61,0,1.11-0.5,1.11-1.11V17.08c0-0.61-0.5-1.11-1.11-1.11H15.19V31.62z"/>
<path fill="#58595B" d="M16.02,0c-2.14,0-4.21,0.79-5.81,2.23L9.86,2.54L9.51,2.23C7.91,0.79,5.85,0,3.7,0
	C2.3,0,1.17,1.15,1.19,2.56c0.02,1.37,1.18,2.45,2.56,2.47c1.79,0.02,3.3,1.31,3.58,3.09v31.37c-0.28,1.78-1.79,3.07-3.58,3.09
	c-1.38,0.02-2.53,1.09-2.56,2.47c-0.02,1.4,1.11,2.56,2.51,2.56c2.14,0,4.21-0.79,5.81-2.23l0.35-0.32l0.35,0.32
	c1.6,1.44,3.66,2.23,5.81,2.23c1.4,0,2.53-1.15,2.51-2.56c-0.02-1.38-1.18-2.45-2.56-2.47c-1.79-0.02-3.29-1.31-3.58-3.09V8.11
	c0.28-1.78,1.79-3.07,3.58-3.09c1.38-0.02,2.53-1.09,2.56-2.47C18.55,1.15,17.42,0,16.02,0z"/>
</svg>
