<?xml version="1.0" encoding="iso-8859-1"?>
<!-- Generator: Adobe Illustrator 16.0.0, SVG Export Plug-In . SVG Version: 6.00 Build 0)  -->
<!DOCTYPE svg PUBLIC "-//W3C//DTD SVG 1.1//EN" "http://www.w3.org/Graphics/SVG/1.1/DTD/svg11.dtd">
<svg version="1.1" id="Capa_1" xmlns="http://www.w3.org/2000/svg" xmlns:xlink="http://www.w3.org/1999/xlink" x="0px" y="0px"
	 width="327.4px" height="327.4px" viewBox="0 0 327.4 327.4" style="enable-background:new 0 0 327.4 327.4;" xml:space="preserve"
	>
<g>
	<g>
		<g>
			<path d="M298.747,8.396C298.693,3.744,294.909,0,290.254,0H37.145c-4.689,0-8.491,3.801-8.491,8.49v46.703
				c0,4.688,3.802,8.49,8.491,8.49h19.186c2.581,0,5.021-1.17,6.633-3.186l14.431-18.043h60.793v220.465
				c0,4.689,3.802,8.492,8.491,8.492h33.966c4.688,0,8.491-3.803,8.491-8.492V42.455h60.723l14.503,18.059
				c1.611,2.004,4.047,3.17,6.62,3.17h19.182c2.257,0,4.424-0.9,6.021-2.5c1.591-1.602,2.481-3.771,2.472-6.029L298.747,8.396z"/>
			<path d="M254.935,290.459H72.373c-10.198,0-18.47,8.27-18.47,18.469s8.271,18.473,18.47,18.473h182.563
				c10.198,0,18.47-8.271,18.47-18.473C273.406,298.729,265.132,290.459,254.935,290.459z"/>
		</g>
	</g>
</g>
<g>
</g>
<g>
</g>
<g>
</g>
<g>
</g>
<g>
</g>
<g>
</g>
<g>
</g>
<g>
</g>
<g>
</g>
<g>
</g>
<g>
</g>
<g>
</g>
<g>
</g>
<g>
</g>
<g>
</g>
</svg>
