<?xml version="1.0" encoding="iso-8859-1"?>
<!-- Generator: Adobe Illustrator 18.1.1, SVG Export Plug-In . SVG Version: 6.00 Build 0)  -->
<svg version="1.1" id="Capa_1" xmlns="http://www.w3.org/2000/svg" xmlns:xlink="http://www.w3.org/1999/xlink" x="0px" y="0px"
	 viewBox="0 0 35.805 35.805" style="enable-background:new 0 0 35.805 35.805;" xml:space="preserve">
<g>
	<path d="M30.881,16.311c0.176-0.684,0.277-1.4,0.277-2.145c0-4.656-3.787-8.437-8.447-8.437c-5.393,0.01-6.113,4.113-6.113,4.113
		s-2.264-2.797-6.26-2.316c-3.6,0.717-5.949,3.953-5.949,7.254c0,0.568,0.082,1.111,0.229,1.637C1.92,17.403,0,19.997,0,23.031
		c0,3.891,3.15,7.045,7.045,7.045h21.717c3.893,0,7.043-3.154,7.043-7.045C35.805,19.876,33.738,17.211,30.881,16.311z
		 M17.988,29.999l-6.607-6.443h3.221V14.05h6.604v9.346h3.223L17.988,29.999z"/>
	<g>
	</g>
	<g>
	</g>
	<g>
	</g>
	<g>
	</g>
	<g>
	</g>
	<g>
	</g>
	<g>
	</g>
	<g>
	</g>
	<g>
	</g>
	<g>
	</g>
	<g>
	</g>
	<g>
	</g>
	<g>
	</g>
	<g>
	</g>
	<g>
	</g>
</g>
<g>
</g>
<g>
</g>
<g>
</g>
<g>
</g>
<g>
</g>
<g>
</g>
<g>
</g>
<g>
</g>
<g>
</g>
<g>
</g>
<g>
</g>
<g>
</g>
<g>
</g>
<g>
</g>
<g>
</g>
</svg>
