<?xml version="1.0" encoding="utf-8"?>
<!-- Generator: Adobe Illustrator 12.0.0, SVG Export Plug-In  -->
<!DOCTYPE svg PUBLIC "-//W3C//DTD SVG 1.1//EN" "http://www.w3.org/Graphics/SVG/1.1/DTD/svg11.dtd" [
	<!ENTITY ns_flows "http://ns.adobe.com/Flows/1.0/">
	<!ENTITY ns_svg "http://www.w3.org/2000/svg">
	<!ENTITY ns_xlink "http://www.w3.org/1999/xlink">
]>
<svg  version="1.1" xmlns="&ns_svg;" xmlns:xlink="&ns_xlink;" xmlns:a="http://ns.adobe.com/AdobeSVGViewerExtensions/3.0/"
	 width="47" height="91" viewBox="-0.62 -0.94 47 91" enable-background="new -0.62 -0.94 47 91" xml:space="preserve">
<defs>
</defs>
<path stroke="#FFFFFF" stroke-width="0.1267" d="M31.07,68.96c1.01,0,1.83,0.82,1.83,1.84s-0.82,1.84-1.83,1.84
	c-1.02,0-1.83-0.82-1.83-1.84S30.05,68.96,31.07,68.96z"/>
<path stroke="#FFFFFF" stroke-width="0.1267" d="M38.43,70.42c1.01,0,1.84,0.82,1.84,1.84c0,1.02-0.82,1.84-1.84,1.84
	c-1.02,0-1.84-0.82-1.84-1.84C36.59,71.25,37.41,70.42,38.43,70.42z"/>
<path stroke="#FFFFFF" stroke-width="0.1267" d="M32.54,81.21c0.88,0,1.59,0.71,1.59,1.59c0,0.88-0.71,1.59-1.59,1.59
	c-0.88,0-1.59-0.71-1.59-1.59C30.95,81.92,31.66,81.21,32.54,81.21z"/>
<path stroke="#FFFFFF" stroke-width="0.1267" d="M39.03,81.7c0.27,0,0.49,0.22,0.49,0.49c0,0.27-0.22,0.49-0.49,0.49
	s-0.49-0.22-0.49-0.49C38.54,81.92,38.76,81.7,39.03,81.7z"/>
<path stroke="#FFFFFF" stroke-width="0.1267" d="M32.67,77.04c0.68,0,1.23,0.55,1.23,1.23c0,0.68-0.55,1.23-1.23,1.23
	c-0.68,0-1.23-0.55-1.23-1.23C31.44,77.59,31.99,77.04,32.67,77.04z"/>
<path stroke="#FFFFFF" stroke-width="0.1267" d="M24.45,85.38c1.02,0,1.84,0.82,1.84,1.84c0,1.01-0.82,1.83-1.84,1.83
	c-1.01,0-1.84-0.82-1.84-1.83C22.61,86.2,23.43,85.38,24.45,85.38z"/>
<path stroke="#FFFFFF" stroke-width="0.1267" d="M9.87,67.35c0.95,0,1.72,0.77,1.72,1.72c0,0.95-0.77,1.72-1.72,1.72
	s-1.72-0.77-1.72-1.72C8.15,68.12,8.92,67.35,9.87,67.35z"/>
<path stroke="#FFFFFF" stroke-width="0.1267" d="M2.39,68.34c1.29,0,2.33,1.04,2.33,2.33c0,1.29-1.04,2.32-2.33,2.32
	c-1.29,0-2.33-1.04-2.33-2.32C0.06,69.38,1.11,68.34,2.39,68.34z"/>
<path stroke="#FFFFFF" stroke-width="0.1267" d="M10.61,73.97c1.22,0,2.21,0.99,2.21,2.21c0,1.22-0.99,2.21-2.21,2.21
	c-1.22,0-2.21-0.99-2.21-2.21C8.4,74.96,9.39,73.97,10.61,73.97z"/>
<path stroke="#FFFFFF" stroke-width="0.1267" d="M19.18,82.55c0.95,0,1.72,0.77,1.72,1.72s-0.77,1.72-1.72,1.72
	s-1.72-0.77-1.72-1.72S18.23,82.55,19.18,82.55z"/>
<path stroke="#FFFFFF" stroke-width="0.1267" d="M7.91,78.75c0-1.14-0.94-2.09-2.09-2.09c-1.14,0-2.07,0.94-2.07,2.09
	c0,1.15,0.93,2.08,2.07,2.08C6.98,80.84,7.91,79.9,7.91,78.75z"/>
<path stroke="#FFFFFF" stroke-width="0.1267" d="M8.4,82.18c0.61,0,1.1,0.5,1.1,1.1c0,0.61-0.49,1.1-1.1,1.1s-1.1-0.49-1.1-1.1
	C7.3,82.68,7.79,82.18,8.4,82.18z"/>
<circle stroke="#FFFFFF" stroke-width="0.1267" cx="12.44" cy="82.92" r="1.35"/>
<path stroke="#FFFFFF" stroke-width="0.1267" d="M37.44,76.06c1.01,0,1.83,0.82,1.83,1.83c0,1.01-0.82,1.84-1.83,1.84
	c-1.01,0-1.84-0.82-1.84-1.84C35.6,76.88,36.43,76.06,37.44,76.06z"/>
<path stroke="#FFFFFF" stroke-width="0.1267" d="M26.77,80.23c0.81,0,1.47,0.66,1.47,1.47c0,0.81-0.66,1.47-1.47,1.47
	c-0.81,0-1.47-0.66-1.47-1.47C25.31,80.89,25.96,80.23,26.77,80.23z"/>
<path stroke="#FFFFFF" stroke-width="0.1267" d="M19.17,70.98c1.22,0,2.21,0.99,2.21,2.21s-0.99,2.21-2.21,2.21
	c-1.22,0-2.21-0.99-2.21-2.21S17.95,70.98,19.17,70.98z"/>
<path stroke="#FFFFFF" stroke-width="0.0841" d="M24.85,32.23v20.23c-0.33-0.85-0.78-1.69-1.47-2.4c-2.56-2.63-7.13-2.34-7.13-2.34
	s-0.42,4.55,2.14,7.19c1.97,2.01,5.11,2.3,6.47,2.33v4.87H8.19c-0.76,0-1.37,0.61-1.37,1.37c0,0.76,0.62,1.37,1.37,1.37h16.66v11.1
	c0,0.76,0.62,1.37,1.37,1.37s1.37-0.62,1.37-1.37v-11.1h16.67c0.75,0,1.37-0.62,1.37-1.37c0-0.75-0.61-1.37-1.36-1.37H27.6v-11.5
	c1.91,0.01,6.29-0.28,9.11-3.02c3.69-3.58,3.28-9.98,3.28-9.98s-6.39-0.59-10.08,2.99c-1.11,1.08-1.82,2.42-2.31,3.76V32.28"/>
<path stroke="#FFFFFF" stroke-width="0.0841" d="M27.73,30.67c1.79-1.33,2.81-4.95,0.28-10.9c6.51,15.31,17.68,4.5,2.37-2.29
	c15.31,6.79,15.31-10.2,0-3.61c15.31-6.6,4.14-17.66-2.37-2.35c6.51-15.31-10.48-15.31-3.6,0c-6.88-15.31-17.58-4.25-2.27,2.35
	c-15.31-6.6-15.31,10.4,0,3.61c-15.31,6.79-4.61,17.6,2.27,2.29c-2.85,6.35-1.6,10.05,0.38,11.14"/>
<circle fill="#FFFFFF" cx="26.26" cy="15.47" r="2.32"/>
</svg>
