<?xml version="1.0" encoding="utf-8"?>
<!-- Generator: Adobe Illustrator 12.0.0, SVG Export Plug-In  -->
<!DOCTYPE svg PUBLIC "-//W3C//DTD SVG 1.1//EN" "http://www.w3.org/Graphics/SVG/1.1/DTD/svg11.dtd" [
	<!ENTITY ns_flows "http://ns.adobe.com/Flows/1.0/">
	<!ENTITY ns_svg "http://www.w3.org/2000/svg">
	<!ENTITY ns_xlink "http://www.w3.org/1999/xlink">
]>
<svg  version="1.1" xmlns="&ns_svg;" xmlns:xlink="&ns_xlink;" xmlns:a="http://ns.adobe.com/AdobeSVGViewerExtensions/3.0/"
	 width="55" height="54" viewBox="-0.94 0 55 54" enable-background="new -0.94 0 55 54" xml:space="preserve">
<defs>
</defs>
<path fill="#58595B" d="M49.43,0H4.2C1.89,0,0,1.88,0,4.2v45.18c0,2.32,1.89,4.2,4.2,4.2h45.23c2.32,0,4.2-1.89,4.2-4.2V4.2
	C53.64,1.88,51.75,0,49.43,0z M46.58,4.78c1,0,1.8,0.81,1.8,1.8s-0.81,1.8-1.8,1.8s-1.8-0.81-1.8-1.8S45.59,4.78,46.58,4.78z
	 M40.13,4.78c1,0,1.8,0.81,1.8,1.8s-0.81,1.8-1.8,1.8c-0.99,0-1.8-0.81-1.8-1.8S39.13,4.78,40.13,4.78z M48.83,48.78H4.8V12.86
	h44.03V48.78L48.83,48.78z M13.56,39.77h-0.33c-1.08,0-1.62-0.17-1.62-0.51c0-0.31,0.34-0.99,1.01-2.05l1.65-2.62h8.12l0.5,2.67
	c0.15,0.81,0.22,1.44,0.22,1.88c0,0.42-0.64,0.63-1.91,0.63H20.8l-0.17,0.82h7.31l0.17-0.82l-0.33-0.01
	c-0.69-0.04-1.14-0.21-1.38-0.52c-0.23-0.31-0.46-1.06-0.69-2.25l-3.12-16.22h-0.96L11.45,37.23c-0.84,1.32-1.36,2.06-1.56,2.22
	c-0.2,0.16-0.71,0.26-1.53,0.31l-0.25,0.01l-0.16,0.82h5.44L13.56,39.77z M20.45,24.27l1.7,9.16H14.8L20.45,24.27z M33.03,40.92
	c1.16,0,2.41-0.58,3.75-1.73c1.34-1.16,2.56-2.7,3.65-4.62l-1.2,6.03h5.04l0.16-0.82l-0.24-0.01c-0.93-0.06-1.48-0.12-1.65-0.19
	c-0.17-0.06-0.25-0.23-0.25-0.51c0-0.54,0.07-1.16,0.22-1.88l2.14-10.89h-2.59c-0.53-0.11-1-0.19-1.38-0.25
	c-0.39-0.06-0.7-0.08-0.95-0.08c-2.33,0-4.5,1.23-6.51,3.68c-2.01,2.46-3.01,5.11-3.01,7.96c0,1.1,0.23,1.92,0.7,2.48
	C31.39,40.64,32.09,40.92,33.03,40.92z M33.66,32.8c0.46-1.58,1.02-2.84,1.67-3.79c0.81-1.19,1.87-1.78,3.18-1.78
	c0.57,0,1.12,0.06,1.65,0.19c0.53,0.13,1.05,0.33,1.56,0.6l-0.91,4.57c-2.72,4.25-4.91,6.37-6.58,6.37c-0.42,0-0.74-0.16-0.95-0.47
	c-0.21-0.32-0.32-0.79-0.32-1.42C32.97,35.81,33.2,34.38,33.66,32.8z"/>
</svg>
