<?xml version="1.0" encoding="utf-8"?>
<!-- Generator: Adobe Illustrator 12.0.0, SVG Export Plug-In  -->
<!DOCTYPE svg PUBLIC "-//W3C//DTD SVG 1.1//EN" "http://www.w3.org/Graphics/SVG/1.1/DTD/svg11.dtd" [
	<!ENTITY ns_flows "http://ns.adobe.com/Flows/1.0/">
	<!ENTITY ns_svg "http://www.w3.org/2000/svg">
	<!ENTITY ns_xlink "http://www.w3.org/1999/xlink">
]>
<svg  version="1.1" xmlns="&ns_svg;" xmlns:xlink="&ns_xlink;" xmlns:a="http://ns.adobe.com/AdobeSVGViewerExtensions/3.0/"
	 width="258" height="42" viewBox="-0.5 -0.17 258 42" enable-background="new -0.5 -0.17 258 42" xml:space="preserve">
<defs>
</defs>
<path fill="#FFFFFF" d="M239.07,0c-1.7,0-3.3,0.66-4.51,1.87c-1.21,1.21-1.87,2.81-1.87,4.51v11.89c0,3.52,2.86,6.38,6.38,6.38
	h11.89c3.52,0,6.38-2.86,6.38-6.38V6.38c0-1.7-0.67-3.3-1.87-4.51C254.26,0.66,252.66,0,250.96,0H239.07z"/>
<path fill="#FFFFFF" d="M239.07,0c-1.7,0-3.3,0.66-4.51,1.87c-1.21,1.21-1.87,2.81-1.87,4.51v11.89c0,3.52,2.86,6.38,6.38,6.38
	h11.89c3.52,0,6.38-2.86,6.38-6.38V6.38c0-1.7-0.67-3.3-1.87-4.51C254.26,0.66,252.66,0,250.96,0H239.07z"/>
<path fill="#9C9EA0" d="M254.5,18.27c0,1.95-1.59,3.54-3.54,3.54h-11.89c-1.95,0-3.54-1.59-3.54-3.54V6.38
	c0-1.95,1.59-3.54,3.54-3.54h11.89c1.95,0,3.54,1.59,3.54,3.54V18.27z"/>
<path fill="none" stroke="#FFFFFF" d="M254.5,18.27c0,1.95-1.59,3.54-3.54,3.54h-11.89c-1.95,0-3.54-1.59-3.54-3.54V6.38
	c0-1.95,1.59-3.54,3.54-3.54h11.89c1.95,0,3.54,1.59,3.54,3.54V18.27z"/>
<polyline fill="none" stroke="#9C9EA0" stroke-width="3" stroke-linecap="round" points="238.5,12.11 1.5,12.11 1.5,40.11 "/>
</svg>
