<?xml version="1.0" encoding="utf-8"?>
<!-- Generator: Adobe Illustrator 12.0.0, SVG Export Plug-In  -->
<!DOCTYPE svg PUBLIC "-//W3C//DTD SVG 1.1//EN" "http://www.w3.org/Graphics/SVG/1.1/DTD/svg11.dtd" [
	<!ENTITY ns_flows "http://ns.adobe.com/Flows/1.0/">
	<!ENTITY ns_svg "http://www.w3.org/2000/svg">
	<!ENTITY ns_xlink "http://www.w3.org/1999/xlink">
]>
<svg  version="1.1" xmlns="&ns_svg;" xmlns:xlink="&ns_xlink;" xmlns:a="http://ns.adobe.com/AdobeSVGViewerExtensions/3.0/"
	 width="550" height="20" viewBox="-0.08 -0.71 550 20" enable-background="new -0.08 -0.71 550 20" xml:space="preserve">
<defs>
</defs>
<line fill="none" stroke="#58595B" stroke-width="1.0458" x1="0" y1="9.16" x2="237.68" y2="9.16"/>
<line fill="none" stroke="#58595B" stroke-width="1.0458" x1="308.68" y1="9.16" x2="549.84" y2="9.16"/>
<path fill="#58595B" d="M272.84,13.51h0.09c0.89-3.08,3.99-4.08,5.68-4.08c1.79,0,4.51,0.63,5.54,1c0.94,0.36,1.78,0.54,2.25,0.54
	c1.32,0,2.44-0.91,2.44-2.63c0-1.63-1.22-2.54-2.54-2.54c-0.85,0-1.22,0.54-1.41,1c0.94-0.09,1.13,0.54,1.13,1s-0.28,1-1.03,1
	c-0.84,0-1.41-0.54-1.41-1.54c0-1,1.03-2.36,2.72-2.36c1.69,0,3.38,1,3.38,3.45c0,2.54-1.88,3.44-3.38,3.44
	c-0.47,0-1.32-0.27-2.07-0.54l-0.09,0.09c4.51,4.53,6.1,6.16,8.55,6.16c1.5,0,2.73-0.91,2.73-2.54c0-1.81-1.32-1.9-1.79-1.9
	c-0.28,0-0.56,0.18-0.66,0.45c0.09,0.09,0.56,0.18,0.56,0.91c0,0.72-0.56,1-1.13,1c-0.57,0-1.32-0.45-1.32-1.54
	c0-1,0.94-1.9,2.07-1.9c2.82,0,3.19,2.08,3.19,2.99c0,0.73-0.47,3.35-3.76,3.35c-3.48,0-6.2-3.81-8.45-5.89l-0.09,0.09
	c0.38,0.72,0.47,1.45,0.47,2.27c0,0.81-0.56,3.44-3.29,3.44c-2.25,0-3.1-1.72-3.1-2.63c0-1.18,0.85-2.54,2.26-2.54
	c1.22,0,1.69,0.82,1.69,1.36c0,0.63-0.28,1.27-0.94,1.27c-0.66,0-0.94-0.45-0.94-1.09c-0.1-0.09,0-0.36,0-0.54
	c-0.38,0-1.22,0.27-1.22,1.54c0,1.09,1.03,1.9,2.16,1.9c1.22,0,2.54-0.63,2.54-2.81c0-2.08-0.94-4.35-5.07-4.35
	c-1.32,0-4.98,0.91-4.98,4.9c0,1.99,1.03,2.45,1.78,2.45c0.66,0,1.22-0.36,1.22-1c0-0.45-0.28-0.82-0.66-0.91
	c0,0.36-0.28,0.72-0.57,0.72c-0.37,0-0.66-0.45-0.66-0.81c0-0.36,0.28-0.91,1.03-0.91c0.56,0,1.6,0.45,1.6,1.63
	c0,1.45-1.04,1.9-1.98,1.9c-1.13,0-2.16-0.63-2.49-2.08h-0.09c-0.33,1.45-1.36,2.08-2.58,2.08c-0.84,0-1.88-0.45-1.88-1.9
	c0-1.18,1.04-1.72,1.6-1.72c0.75,0,1.03,0.63,1.03,1c0,0.36-0.28,0.81-0.66,0.81c-0.38,0-0.57-0.36-0.57-0.72
	c-0.37,0.09-0.66,0.45-0.66,0.81c0,0.73,0.47,1.09,1.13,1.09c0.85,0,1.88-0.45,1.88-2.45c0-3.99-3.66-4.9-5.07-4.9
	c-4.04,0-4.98,2.27-4.98,4.26c0,2.27,1.31,2.9,2.54,2.9c1.13,0,2.16-0.81,2.16-1.9c0-1.27-0.94-1.54-1.32-1.54
	c0.09,0.18,0.09,0.36,0.09,0.54c0,0.63-0.28,1.09-0.94,1.09c-0.75,0-0.94-0.63-0.94-1.27c0-0.54,0.47-1.36,1.69-1.36
	c1.41,0,2.26,1.36,2.26,2.54c0,0.82-0.85,2.63-3.1,2.63c-2.73,0-3.29-2.63-3.29-3.44c0-0.82,0.09-1.54,0.38-2.27l-0.09-0.09
	c-2.26,2.08-4.89,5.89-8.45,5.89c-3.29,0-3.66-2.63-3.66-3.35c0-0.91,0.38-2.99,3.1-2.99c1.22,0,2.16,0.91,2.16,1.9
	c0,1.09-0.75,1.54-1.32,1.54c-0.56,0-1.13-0.36-1.13-1c0-0.73,0.38-0.82,0.56-0.91c-0.09-0.27-0.38-0.45-0.66-0.45
	c-0.47,0-1.79,0.09-1.79,1.9c0,1.63,1.22,2.54,2.73,2.54c2.44,0,4.04-1.63,8.45-6.16l-0.09-0.09c-0.66,0.27-1.5,0.54-2.07,0.54
	c-1.5,0-3.29-0.91-3.29-3.44c0-2.45,1.69-3.45,3.29-3.45c1.78,0,2.82,1.36,2.82,2.36c0,1-0.56,1.54-1.41,1.54
	c-0.75,0-1.03-0.54-1.03-1s0.19-1.09,1.13-1c-0.19-0.45-0.56-1-1.5-1c-1.22,0-2.44,0.91-2.44,2.54c0,1.72,1.13,2.63,2.44,2.63
	c0.47,0,1.31-0.18,2.26-0.54c1.03-0.36,3.76-1.09,5.45-1.09c1.78,0,4.88,1.09,5.82,4.17H272.84z M267.07,3.9
	c1.97,0,3.94,3.81,3.94,5.17c0,0.18,0,0.36-0.09,0.54c-0.38-0.63-1.13-1.54-2.25-2.09c-1.22-0.54-2.91-0.91-2.91-2.27
	C265.75,4.53,266.32,3.9,267.07,3.9z M274.68,2.99c0,1.18-1.03,3.63-1.22,4.62c-0.19,0.91-0.56,3.45-0.56,3.45s-0.38-2.54-0.56-3.45
	c-0.19-1-1.32-3.54-1.32-4.62S271.29,0,272.89,0C274.49,0,274.68,1.9,274.68,2.99z M276.93,7.61c-1.13,0.45-1.88,1.36-2.25,1.99
	c-0.09-0.18-0.09-0.36-0.09-0.54c0-1.36,1.97-5.17,3.95-5.17c0.75,0,1.32,0.63,1.32,1.36C279.84,6.62,278.15,6.98,276.93,7.61z"/>
</svg>
