<?xml version="1.0" encoding="utf-8"?>
<!-- Generator: Adobe Illustrator 12.0.0, SVG Export Plug-In  -->
<!DOCTYPE svg PUBLIC "-//W3C//DTD SVG 1.1//EN" "http://www.w3.org/Graphics/SVG/1.1/DTD/svg11.dtd" [
	<!ENTITY ns_flows "http://ns.adobe.com/Flows/1.0/">
	<!ENTITY ns_svg "http://www.w3.org/2000/svg">
	<!ENTITY ns_xlink "http://www.w3.org/1999/xlink">
]>
<svg  version="1.1" xmlns="&ns_svg;" xmlns:xlink="&ns_xlink;" xmlns:a="http://ns.adobe.com/AdobeSVGViewerExtensions/3.0/"
	 width="28" height="29" viewBox="-0.696 -0.935 28 29" enable-background="new -0.696 -0.935 28 29" xml:space="preserve">
<defs>
</defs>
<polygon fill="#FFFFFF" points="8.45,4.681 11.701,6.501 9.881,3.251 11.701,0 8.45,1.82 5.2,0 7.021,3.251 5.2,6.501 "/>
<polygon fill="#FFFFFF" points="24.053,17.423 20.802,15.603 22.622,18.853 20.802,22.103 24.053,20.283 27.304,22.103 
	25.483,18.853 27.304,15.603 "/>
<polygon fill="#FFFFFF" points="27.304,0 24.053,1.82 20.802,0 22.622,3.251 20.802,6.501 24.053,4.681 27.304,6.501 25.483,3.251 
	"/>
<path fill="#FFFFFF" d="M17.422,6.891c-0.521-0.52-1.3-0.52-1.819,0L0.39,22.103c-0.52,0.521-0.52,1.301,0,1.82l2.99,2.991
	c0.52,0.52,1.301,0.52,1.82,0l15.213-15.213c0.52-0.52,0.52-1.3,0-1.82L17.422,6.891z M15.992,14.042l-2.731-2.73l3.121-3.121
	l2.73,2.731L15.992,14.042z"/>
</svg>
