<?xml version="1.0" encoding="utf-8"?>
<!-- Generator: Adobe Illustrator 12.0.0, SVG Export Plug-In  -->
<!DOCTYPE svg PUBLIC "-//W3C//DTD SVG 1.1//EN" "http://www.w3.org/Graphics/SVG/1.1/DTD/svg11.dtd" [
	<!ENTITY ns_flows "http://ns.adobe.com/Flows/1.0/">
	<!ENTITY ns_svg "http://www.w3.org/2000/svg">
	<!ENTITY ns_xlink "http://www.w3.org/1999/xlink">
]>
<svg  version="1.1" xmlns="&ns_svg;" xmlns:xlink="&ns_xlink;" xmlns:a="http://ns.adobe.com/AdobeSVGViewerExtensions/3.0/"
	 width="70" height="69" viewBox="-0.95 -0.54 70 69" enable-background="new -0.95 -0.54 70 69" xml:space="preserve">
<defs>
</defs>
<path fill="#666666" stroke="#FFFFFF" stroke-width="0.3335" d="M17.97,21.06h-0.13v0.63h1.09v3.16h0.91v-4.59H19.1
	C19.08,20.61,18.84,21.06,17.97,21.06z"/>
<path fill="#666666" stroke="#FFFFFF" stroke-width="0.3335" d="M22.71,21.85c-0.45,0-0.65,0.14-0.82,0.25l0.16-1h1.87v-0.76H21.4
	l-0.32,2.52l0.81,0.04c0.17-0.32,0.48-0.33,0.61-0.33c0.48,0,0.67,0.41,0.67,0.82c0,0.49-0.25,0.86-0.69,0.86
	c-0.4,0-0.6-0.25-0.64-0.63h-0.91c0.05,0.92,0.77,1.35,1.49,1.35c1.35,0,1.67-1.02,1.67-1.65C24.1,22.28,23.32,21.85,22.71,21.85z"
	/>
<path fill="#666666" stroke="#FFFFFF" stroke-width="0.3335" d="M31.81,15.27c-1,0.72-1.04,1.29-1.07,1.82h3.14v-0.8h-1.99
	c0.1-0.21,0.42-0.42,1.03-0.85c0.45-0.3,0.96-0.71,0.96-1.49c0-0.93-0.7-1.45-1.58-1.45c-0.41,0-1.5,0.13-1.5,1.62h0.88
	c0.01-0.34,0.03-0.86,0.66-0.86c0.44,0,0.63,0.35,0.63,0.65C32.97,14.44,32.64,14.67,31.81,15.27z"/>
<path fill="#666666" stroke="#FFFFFF" stroke-width="0.3335" d="M35.97,17.22c1.08,0,1.59-0.75,1.59-2.36
	c0-1.61-0.51-2.35-1.59-2.35c-1.08,0-1.59,0.74-1.59,2.35C34.38,16.47,34.89,17.22,35.97,17.22z M35.97,13.23
	c0.52,0,0.66,0.45,0.66,1.63c0,1.18-0.14,1.64-0.66,1.64c-0.52,0-0.66-0.45-0.66-1.64C35.31,13.67,35.45,13.23,35.97,13.23z"/>
<path fill="#666666" stroke="#FFFFFF" stroke-width="0.3335" d="M45.31,23.03c-1,0.72-1.03,1.29-1.07,1.82h3.13v-0.8h-1.99
	c0.1-0.21,0.42-0.42,1.03-0.85c0.45-0.3,0.96-0.7,0.96-1.49c0-0.93-0.7-1.45-1.58-1.45c-0.41,0-1.5,0.13-1.5,1.62h0.88
	c0.01-0.34,0.03-0.86,0.66-0.86c0.44,0,0.63,0.35,0.63,0.65C46.46,22.2,46.13,22.43,45.31,23.03z"/>
<path fill="#666666" stroke="#FFFFFF" stroke-width="0.3335" d="M49.39,24.26c-0.4,0-0.6-0.25-0.64-0.63h-0.91
	c0.04,0.92,0.78,1.35,1.49,1.35c1.35,0,1.67-1.02,1.67-1.65c0-1.05-0.78-1.48-1.39-1.48c-0.45,0-0.65,0.14-0.82,0.25l0.16-1h1.87
	v-0.76H48.3l-0.32,2.52l0.81,0.04c0.17-0.32,0.49-0.33,0.61-0.33c0.48,0,0.67,0.41,0.67,0.82C50.07,23.89,49.82,24.26,49.39,24.26z"
	/>
<path fill="#666666" stroke="#FFFFFF" stroke-width="0.3335" d="M17.33,33.85c-0.45,0-0.65,0.14-0.82,0.25l0.16-1h1.87v-0.76h-2.52
	l-0.32,2.52l0.81,0.04c0.17-0.32,0.49-0.33,0.61-0.33c0.48,0,0.67,0.41,0.67,0.82c0,0.49-0.25,0.86-0.68,0.86
	c-0.4,0-0.6-0.25-0.64-0.63h-0.9c0.04,0.93,0.78,1.35,1.49,1.35c1.35,0,1.67-1.02,1.67-1.65C18.72,34.28,17.94,33.85,17.33,33.85z"
	/>
<path fill="#666666" stroke="#FFFFFF" stroke-width="0.3335" d="M49.09,34.43v-0.01c0.26-0.12,0.55-0.41,0.55-0.87
	c0-0.97-0.81-1.28-1.42-1.28c-1.04,0-1.52,0.61-1.52,1.47h0.84c0-0.16,0-0.75,0.62-0.75c0.5,0,0.58,0.42,0.58,0.59
	c0,0.59-0.5,0.62-0.77,0.62h-0.14v0.65c0.42,0,1.03,0.03,1.03,0.65c0,0.51-0.32,0.76-0.68,0.76c-0.61,0-0.67-0.56-0.67-0.8
	l0.01-0.01h-0.89c0,1.44,1.16,1.53,1.6,1.53c0.92,0,1.56-0.61,1.56-1.48C49.78,34.72,49.25,34.48,49.09,34.43z"/>
<path fill="#666666" stroke="#FFFFFF" stroke-width="0.3335" d="M51.83,32.27c-1.08,0-1.59,0.75-1.59,2.35
	c0,1.61,0.51,2.36,1.59,2.36c1.08,0,1.59-0.75,1.59-2.36S52.91,32.27,51.83,32.27z M51.83,36.26c-0.52,0-0.66-0.45-0.66-1.64
	s0.14-1.63,0.66-1.63s0.66,0.45,0.66,1.63S52.35,36.26,51.83,36.26z"/>
<path fill="#666666" stroke="#FFFFFF" stroke-width="0.3335" d="M31.19,50.8h-1.17c-0.17,0-0.31,0.11-0.34,0.27l-1,4.43h-0.02
	l-1.02-4.43c-0.04-0.16-0.18-0.28-0.34-0.28H26.1c-0.19,0-0.35,0.16-0.35,0.35v5.26c0,0.2,0.16,0.35,0.35,0.35h0.46
	c0.19,0,0.35-0.16,0.35-0.35v-4.64h0.02l1.03,4.71c0.03,0.16,0.18,0.28,0.34,0.28h0.66c0.16,0,0.31-0.11,0.34-0.28l1.05-4.71h0.02
	v4.64c0,0.2,0.16,0.35,0.35,0.35h0.46c0.2,0,0.35-0.16,0.35-0.35v-5.26C31.54,50.96,31.38,50.8,31.19,50.8z"/>
<path fill="#666666" stroke="#FFFFFF" stroke-width="0.3335" d="M35.46,50.8h-2.37c-0.2,0-0.35,0.16-0.35,0.35v5.27
	c0,0.19,0.16,0.35,0.35,0.35h0.54c0.19,0,0.35-0.16,0.35-0.35v-1.45c0-0.2,0.16-0.35,0.35-0.35h1.08c1.6,0,1.91-1.37,1.91-1.91
	C37.32,51.54,36.62,50.8,35.46,50.8z M35.14,53.58h-0.8c-0.19,0-0.35-0.16-0.35-0.35v-1.05c0-0.19,0.16-0.35,0.35-0.35h0.64
	c0.77,0,1.1,0.24,1.1,0.82C36.07,52.92,36.07,53.58,35.14,53.58z"/>
<path fill="#666666" stroke="#FFFFFF" stroke-width="0.3335" d="M42.71,50.8h-0.54c-0.19,0-0.35,0.16-0.35,0.35v1.56
	c0,0.19-0.16,0.35-0.35,0.35h-1.62c-0.2,0-0.35-0.16-0.35-0.35v-1.56c0-0.2-0.16-0.35-0.35-0.35h-0.54c-0.2,0-0.35,0.16-0.35,0.35
	v5.27c0,0.19,0.16,0.35,0.35,0.35h0.54c0.19,0,0.35-0.16,0.35-0.35v-1.97c0-0.2,0.16-0.35,0.35-0.35h1.62c0.2,0,0.35,0.16,0.35,0.35
	v1.97c0,0.19,0.16,0.35,0.35,0.35h0.54c0.19,0,0.35-0.16,0.35-0.35v-5.27C43.06,50.96,42.9,50.8,42.71,50.8z"/>
<path fill="#666666" stroke="#FFFFFF" stroke-width="0.3335" d="M34.15,0.17c-18.74,0-33.99,15.25-33.99,33.99
	s15.25,33.99,33.99,33.99S68.14,52.9,68.14,34.15S52.9,0.17,34.15,0.17z M56.8,54.14l-3.03-3.03c-0.74-0.74-1.93-0.74-2.67,0
	c-0.74,0.74-0.74,1.93,0,2.67l3.03,3.03c-5.33,4.71-12.33,7.57-19.98,7.57c-7.66,0-14.65-2.86-19.98-7.57l3.03-3.03
	c0.74-0.74,0.74-1.93,0-2.67c-0.74-0.74-1.93-0.74-2.67,0l-3.02,3.03c-1.95-2.2-3.58-4.69-4.82-7.39l4-1.64
	c0.64-0.26,0.95-1,0.69-1.64c-0.26-0.64-1-0.95-1.64-0.69l-4.01,1.64C4.78,41.78,4.18,38.97,4,36.04h4.29
	c1.04,0,1.89-0.84,1.89-1.88c0-1.04-0.84-1.89-1.89-1.89H4c0.19-3.02,0.82-5.92,1.83-8.63l3.99,1.67c0.16,0.07,0.32,0.1,0.48,0.1
	c0.49,0,0.96-0.29,1.16-0.77c0.27-0.64-0.03-1.38-0.67-1.64L6.8,21.32c1.23-2.61,2.82-5.01,4.71-7.15l3.02,3.03
	c0.37,0.37,0.85,0.55,1.33,0.55s0.96-0.18,1.33-0.55c0.74-0.74,0.74-1.93,0-2.67l-3.03-3.02c2.2-1.95,4.69-3.58,7.39-4.82l1.64,4
	c0.2,0.49,0.67,0.78,1.16,0.78c0.16,0,0.32-0.03,0.48-0.09c0.64-0.26,0.95-1,0.69-1.64l-1.64-4.01c2.64-0.96,5.46-1.56,8.38-1.74
	v4.29c0,1.04,0.84,1.89,1.89,1.89c1.04,0,1.88-0.85,1.88-1.89V4c3.02,0.19,5.92,0.82,8.63,1.83L43,9.82
	c-0.27,0.64,0.03,1.38,0.67,1.64c0.16,0.07,0.32,0.1,0.49,0.1c0.49,0,0.96-0.29,1.16-0.77l1.67-3.99c2.61,1.23,5.01,2.82,7.15,4.71
	l-3.03,3.03c-0.74,0.74-0.74,1.93,0,2.67c0.37,0.37,0.85,0.55,1.33,0.55c0.48,0,0.96-0.18,1.33-0.55l3.03-3.03
	c1.94,2.2,3.58,4.69,4.82,7.39l-4,1.64c-0.64,0.26-0.95,1-0.69,1.64c0.2,0.49,0.67,0.78,1.16,0.78c0.16,0,0.32-0.03,0.48-0.09
	l4.01-1.64c0.96,2.64,1.56,5.46,1.74,8.39h-4.29c-1.04,0-1.89,0.84-1.89,1.89c0,1.04,0.84,1.88,1.89,1.88h4.29
	c-0.19,3.02-0.82,5.92-1.83,8.63L58.49,43c-0.64-0.27-1.38,0.03-1.64,0.67c-0.27,0.64,0.03,1.38,0.67,1.65l3.99,1.67
	C60.28,49.59,58.69,52,56.8,54.14z"/>
<path fill="#666666" stroke="#FFFFFF" stroke-width="0.3335" d="M34.61,47.25l0.7-2.4c1.27-0.49,2.12-1.78,1.97-3.21
	c-0.06-0.58-0.28-1.1-0.6-1.54l4.01-13.86c0.29-1-0.29-2.04-1.29-2.33c-1-0.29-2.04,0.29-2.33,1.29l-4.01,13.88
	c-1.26,0.5-2.09,1.78-1.95,3.19c0.06,0.57,0.27,1.09,0.58,1.52l-0.7,2.42c-0.29,1,0.29,2.05,1.29,2.33
	c0.17,0.05,0.35,0.08,0.52,0.08C33.62,48.61,34.37,48.08,34.61,47.25z"/>
</svg>
