<?xml version="1.0" encoding="utf-8"?>
<!-- Generator: Adobe Illustrator 12.0.0, SVG Export Plug-In  -->
<!DOCTYPE svg PUBLIC "-//W3C//DTD SVG 1.1//EN" "http://www.w3.org/Graphics/SVG/1.1/DTD/svg11.dtd" [
	<!ENTITY ns_flows "http://ns.adobe.com/Flows/1.0/">
	<!ENTITY ns_svg "http://www.w3.org/2000/svg">
	<!ENTITY ns_xlink "http://www.w3.org/1999/xlink">
]>
<svg  version="1.1" xmlns="&ns_svg;" xmlns:xlink="&ns_xlink;" xmlns:a="http://ns.adobe.com/AdobeSVGViewerExtensions/3.0/"
	 width="152" height="41" viewBox="-0.874 -0.984 152 41" enable-background="new -0.874 -0.984 152 41" xml:space="preserve">
<defs>
</defs>
<path fill="#FFFFFF" d="M0.468,12.075C0.156,11.692,0,11.347,0,11.041s0.258-0.711,0.774-1.216c0.3-0.287,0.618-0.432,0.954-0.432
	s0.804,0.301,1.404,0.9c0.168,0.204,0.408,0.398,0.72,0.585c0.313,0.186,0.6,0.278,0.864,0.278c1.116,0,1.674-0.455,1.674-1.367
	c0-0.276-0.153-0.508-0.459-0.693C5.625,8.911,5.244,8.775,4.788,8.691S3.84,8.473,3.312,8.286C2.784,8.101,2.292,7.882,1.836,7.63
	S0.999,6.979,0.693,6.433S0.234,5.229,0.234,4.462c0-1.057,0.393-1.977,1.179-2.764C2.199,0.913,3.27,0.52,4.626,0.52
	c0.72,0,1.377,0.093,1.971,0.279S7.602,1.174,7.83,1.366l0.45,0.342C8.652,2.056,8.838,2.35,8.838,2.59S8.694,3.159,8.406,3.579
	c-0.408,0.601-0.828,0.9-1.26,0.9c-0.252,0-0.563-0.119-0.936-0.359C6.174,4.096,6.104,4.036,6.003,3.939
	C5.9,3.844,5.808,3.766,5.724,3.706C5.472,3.55,5.15,3.472,4.761,3.472c-0.39,0-0.714,0.093-0.972,0.279
	C3.531,3.937,3.402,4.194,3.402,4.524s0.153,0.598,0.459,0.801C4.167,5.53,4.548,5.668,5.004,5.739
	C5.46,5.812,5.958,5.923,6.498,6.073c0.54,0.149,1.038,0.332,1.494,0.549c0.456,0.216,0.837,0.591,1.143,1.125
	C9.44,8.28,9.594,8.938,9.594,9.718s-0.156,1.467-0.468,2.061c-0.313,0.595-0.72,1.054-1.224,1.377
	c-0.972,0.637-2.01,0.954-3.114,0.954c-0.564,0-1.099-0.069-1.603-0.206c-0.504-0.139-0.912-0.31-1.224-0.514
	c-0.636-0.384-1.08-0.756-1.332-1.116L0.468,12.075z"/>
<path fill="#FFFFFF" d="M15.912,7.63l-1.17-0.072v2.484c0,0.324,0.051,0.558,0.153,0.701c0.102,0.145,0.294,0.217,0.576,0.217
	c0.282,0,0.498,0.009,0.647,0.027c0.15,0.018,0.31,0.074,0.478,0.17c0.276,0.156,0.414,0.559,0.414,1.207
	c0,0.756-0.168,1.218-0.504,1.386c-0.181,0.084-0.339,0.135-0.478,0.153c-0.138,0.018-0.339,0.026-0.603,0.026
	c-1.248,0-2.196-0.282-2.844-0.846c-0.648-0.564-0.972-1.519-0.972-2.862V7.558c-0.228,0.036-0.474,0.054-0.738,0.054
	s-0.483-0.102-0.657-0.306c-0.174-0.204-0.261-0.552-0.261-1.044s0.03-0.849,0.09-1.071c0.06-0.222,0.144-0.381,0.252-0.477
	c0.191-0.156,0.432-0.234,0.72-0.234l0.594,0.072V2.698c0-0.276,0.009-0.48,0.027-0.612c0.018-0.132,0.075-0.276,0.171-0.433
	c0.156-0.3,0.618-0.449,1.386-0.449c0.816,0,1.302,0.222,1.458,0.666c0.061,0.191,0.09,0.498,0.09,0.918v1.764
	c0.528-0.048,0.927-0.072,1.197-0.072s0.474,0.01,0.612,0.027c0.138,0.018,0.297,0.075,0.477,0.171
	c0.313,0.156,0.468,0.618,0.468,1.386c0,0.756-0.162,1.219-0.486,1.387c-0.181,0.084-0.339,0.135-0.478,0.152
	C16.395,7.621,16.188,7.63,15.912,7.63z"/>
<path fill="#FFFFFF" d="M24.642,5.452c0.072-0.672,0.546-1.009,1.422-1.009c0.468,0,0.816,0.036,1.044,0.108
	c0.229,0.072,0.387,0.198,0.478,0.378c0.09,0.181,0.144,0.339,0.162,0.478c0.018,0.138,0.027,0.345,0.027,0.62v6.3
	c0,0.276-0.009,0.483-0.027,0.621c-0.018,0.139-0.069,0.298-0.153,0.478c-0.168,0.312-0.579,0.468-1.233,0.468
	c-0.654,0-1.092-0.08-1.313-0.242c-0.223-0.162-0.352-0.399-0.387-0.712c-0.444,0.637-1.185,0.954-2.223,0.954
	s-2.001-0.474-2.889-1.422c-0.889-0.947-1.332-2.049-1.332-3.303s0.447-2.353,1.341-3.294c0.894-0.942,1.875-1.413,2.943-1.413
	c0.408,0,0.78,0.072,1.116,0.216s0.57,0.279,0.702,0.405S24.558,5.332,24.642,5.452z M21.366,9.196c0,0.396,0.156,0.753,0.468,1.07
	c0.312,0.318,0.69,0.477,1.134,0.477c0.443,0,0.813-0.161,1.106-0.485s0.441-0.681,0.441-1.071c0-0.39-0.141-0.753-0.423-1.089
	c-0.282-0.336-0.66-0.504-1.134-0.504s-0.858,0.168-1.152,0.504S21.366,8.8,21.366,9.196z"/>
<path fill="#FFFFFF" d="M35.658,4.552c0.228,0.072,0.417,0.195,0.567,0.369s0.225,0.453,0.225,0.837s-0.114,0.804-0.342,1.26
	c-0.228,0.456-0.558,0.685-0.99,0.685c-0.216,0-0.423-0.049-0.621-0.145s-0.459-0.145-0.783-0.145c-0.324,0-0.627,0.114-0.909,0.343
	c-0.282,0.228-0.423,0.504-0.423,0.828v3.78c0,0.275-0.009,0.482-0.027,0.62c-0.018,0.139-0.075,0.298-0.171,0.478
	c-0.18,0.312-0.648,0.468-1.404,0.468c-0.576,0-0.99-0.102-1.242-0.306c-0.192-0.168-0.3-0.426-0.324-0.774c0-0.12,0-0.294,0-0.522
	V6.01c0-0.276,0.009-0.483,0.026-0.621c0.019-0.138,0.069-0.291,0.153-0.459c0.168-0.324,0.636-0.486,1.404-0.486
	c0.72,0,1.17,0.139,1.35,0.414c0.132,0.192,0.198,0.391,0.198,0.595c0.06-0.084,0.146-0.187,0.261-0.307s0.357-0.281,0.729-0.486
	c0.372-0.203,0.699-0.306,0.981-0.306s0.52,0.016,0.711,0.045C35.22,4.429,35.43,4.479,35.658,4.552z"/>
<path fill="#FFFFFF" d="M42.947,7.63l-1.17-0.072v2.484c0,0.324,0.051,0.558,0.153,0.701c0.102,0.145,0.294,0.217,0.576,0.217
	c0.282,0,0.498,0.009,0.648,0.027c0.149,0.018,0.309,0.074,0.477,0.17c0.276,0.156,0.414,0.559,0.414,1.207
	c0,0.756-0.168,1.218-0.504,1.386c-0.18,0.084-0.339,0.135-0.477,0.153c-0.139,0.018-0.339,0.026-0.604,0.026
	c-1.248,0-2.196-0.282-2.844-0.846c-0.648-0.564-0.972-1.519-0.972-2.862V7.558c-0.229,0.036-0.475,0.054-0.738,0.054
	c-0.264,0-0.483-0.102-0.657-0.306s-0.261-0.552-0.261-1.044s0.03-0.849,0.09-1.071c0.06-0.222,0.144-0.381,0.252-0.477
	c0.192-0.156,0.432-0.234,0.72-0.234l0.594,0.072V2.698c0-0.276,0.009-0.48,0.026-0.612c0.019-0.132,0.075-0.276,0.171-0.433
	c0.156-0.3,0.618-0.449,1.386-0.449c0.815,0,1.302,0.222,1.458,0.666c0.06,0.191,0.09,0.498,0.09,0.918v1.764
	c0.528-0.048,0.927-0.072,1.197-0.072s0.474,0.01,0.612,0.027c0.138,0.018,0.297,0.075,0.478,0.171
	c0.312,0.156,0.468,0.618,0.468,1.386c0,0.756-0.162,1.219-0.486,1.387c-0.18,0.084-0.339,0.135-0.477,0.152
	C43.43,7.621,43.223,7.63,42.947,7.63z"/>
<path fill="#FFFFFF" d="M53.045,9.187c0,0.51,0.168,0.906,0.504,1.188s0.693,0.423,1.071,0.423s0.731-0.111,1.062-0.333
	s0.597-0.333,0.801-0.333c0.36,0,0.798,0.318,1.314,0.954c0.276,0.348,0.414,0.66,0.414,0.936c0,0.456-0.33,0.882-0.99,1.278
	c-0.684,0.48-1.523,0.72-2.52,0.72c-1.116,0-2.19-0.401-3.222-1.206c-0.492-0.384-0.894-0.896-1.206-1.539
	c-0.312-0.642-0.468-1.35-0.468-2.123c0-0.774,0.156-1.477,0.468-2.106s0.714-1.138,1.206-1.521
	c0.996-0.792,2.058-1.188,3.186-1.188c0.456,0,0.899,0.063,1.332,0.188c0.432,0.126,0.75,0.249,0.954,0.369l0.288,0.18
	c0.216,0.145,0.384,0.259,0.504,0.343c0.312,0.239,0.468,0.513,0.468,0.818c0,0.307-0.126,0.651-0.378,1.035
	c-0.432,0.66-0.846,0.99-1.242,0.99c-0.228,0-0.552-0.132-0.972-0.396c-0.216-0.205-0.525-0.307-0.927-0.307
	s-0.777,0.145-1.125,0.432C53.219,8.278,53.045,8.677,53.045,9.187z"/>
<path fill="#FFFFFF" d="M63.593,13.894c-1.212,0-2.217-0.459-3.015-1.377s-1.197-2.037-1.197-3.357V6.01
	c0-0.288,0.009-0.498,0.027-0.63c0.018-0.132,0.069-0.288,0.153-0.469c0.168-0.323,0.636-0.485,1.404-0.485
	c0.84,0,1.332,0.228,1.477,0.684c0.071,0.192,0.107,0.498,0.107,0.918v3.15c0,0.492,0.141,0.876,0.423,1.152
	c0.282,0.275,0.66,0.413,1.134,0.413s0.858-0.144,1.152-0.432s0.441-0.666,0.441-1.134V5.991c0-0.275,0.009-0.482,0.027-0.621
	c0.018-0.138,0.075-0.297,0.171-0.477c0.155-0.312,0.618-0.468,1.386-0.468c0.756,0,1.218,0.162,1.386,0.485
	c0.084,0.181,0.135,0.34,0.153,0.478c0.018,0.138,0.027,0.345,0.027,0.621v6.372c0,0.264-0.009,0.465-0.027,0.603
	c-0.019,0.139-0.075,0.291-0.171,0.459c-0.181,0.313-0.643,0.468-1.386,0.468c-0.732,0-1.182-0.144-1.35-0.432
	c-0.12-0.204-0.18-0.449-0.18-0.738c-0.048,0.084-0.156,0.205-0.324,0.36c-0.168,0.156-0.33,0.288-0.486,0.396
	C64.517,13.762,64.073,13.894,63.593,13.894z"/>
<path fill="#FFFFFF" d="M70.361,13.084c-0.228-0.145-0.342-0.372-0.342-0.685c0-0.312,0.229-0.785,0.685-1.422
	c0.132-0.204,0.345-0.306,0.639-0.306s0.693,0.147,1.197,0.44c0.504,0.295,0.96,0.441,1.368,0.441c0.732,0,1.098-0.145,1.098-0.432
	c0-0.229-0.402-0.396-1.206-0.504c-0.756-0.108-1.506-0.391-2.25-0.847c-0.348-0.216-0.636-0.555-0.864-1.017
	c-0.228-0.462-0.342-1.011-0.342-1.647c0-1.896,1.302-2.844,3.906-2.844c0.852,0,1.728,0.204,2.628,0.612
	c0.42,0.191,0.63,0.432,0.63,0.72s-0.132,0.642-0.396,1.062c-0.264,0.42-0.533,0.631-0.81,0.631c-0.144,0-0.411-0.09-0.801-0.271
	c-0.391-0.18-0.813-0.27-1.269-0.27c-0.708,0-1.062,0.132-1.062,0.396c0,0.36,0.408,0.594,1.224,0.702
	c0.792,0.084,1.56,0.312,2.304,0.685c0.349,0.168,0.64,0.459,0.873,0.873c0.234,0.414,0.352,0.933,0.352,1.557
	s-0.117,1.154-0.352,1.593c-0.233,0.438-0.561,0.765-0.98,0.981c-0.768,0.371-1.731,0.558-2.889,0.558S71.429,13.756,70.361,13.084z
	"/>
<path fill="#FFFFFF" d="M84.312,7.63l-1.17-0.072v2.484c0,0.324,0.051,0.558,0.152,0.701c0.102,0.145,0.294,0.217,0.576,0.217
	c0.281,0,0.498,0.009,0.647,0.027c0.15,0.018,0.31,0.074,0.478,0.17c0.275,0.156,0.414,0.559,0.414,1.207
	c0,0.756-0.168,1.218-0.504,1.386c-0.181,0.084-0.34,0.135-0.478,0.153c-0.138,0.018-0.339,0.026-0.603,0.026
	c-1.248,0-2.196-0.282-2.844-0.846c-0.648-0.564-0.973-1.519-0.973-2.862V7.558c-0.228,0.036-0.474,0.054-0.738,0.054
	c-0.264,0-0.482-0.102-0.656-0.306s-0.262-0.552-0.262-1.044s0.03-0.849,0.09-1.071c0.061-0.222,0.145-0.381,0.253-0.477
	c0.191-0.156,0.432-0.234,0.72-0.234l0.594,0.072V2.698c0-0.276,0.009-0.48,0.027-0.612c0.018-0.132,0.074-0.276,0.171-0.433
	c0.155-0.3,0.618-0.449,1.386-0.449c0.816,0,1.302,0.222,1.458,0.666c0.061,0.191,0.091,0.498,0.091,0.918v1.764
	c0.527-0.048,0.926-0.072,1.196-0.072s0.474,0.01,0.612,0.027c0.138,0.018,0.297,0.075,0.477,0.171
	c0.313,0.156,0.469,0.618,0.469,1.386c0,0.756-0.162,1.219-0.486,1.387c-0.181,0.084-0.34,0.135-0.478,0.152
	C84.794,7.621,84.587,7.63,84.312,7.63z"/>
<path fill="#FFFFFF" d="M88.127,5.632c1.008-0.936,2.16-1.404,3.456-1.404s2.441,0.465,3.438,1.396
	c0.996,0.93,1.494,2.114,1.494,3.555c0,0.996-0.258,1.881-0.773,2.655c-0.517,0.773-1.144,1.344-1.881,1.71
	c-0.738,0.366-1.504,0.549-2.295,0.549c-0.793,0-1.561-0.194-2.305-0.585s-1.371-0.966-1.881-1.729
	c-0.51-0.762-0.765-1.623-0.765-2.582C86.615,7.756,87.119,6.567,88.127,5.632z M90.377,10.482c0.384,0.294,0.774,0.441,1.17,0.441
	c0.396,0,0.792-0.15,1.188-0.45c0.396-0.3,0.594-0.744,0.594-1.332s-0.186-1.025-0.559-1.313c-0.371-0.288-0.773-0.433-1.205-0.433
	c-0.433,0-0.834,0.15-1.207,0.45c-0.371,0.3-0.558,0.741-0.558,1.323S89.993,10.188,90.377,10.482z"/>
<path fill="#FFFFFF" d="M100.78,5.704c0.564-0.853,1.242-1.278,2.035-1.278c1.224,0,2.135,0.522,2.735,1.565
	c0.132-0.18,0.291-0.368,0.478-0.566c0.186-0.198,0.482-0.414,0.891-0.648c0.408-0.233,0.828-0.351,1.26-0.351
	c0.96,0,1.764,0.369,2.412,1.106c0.648,0.738,0.972,1.959,0.972,3.664v3.149c0,0.276-0.009,0.483-0.026,0.621
	c-0.019,0.138-0.075,0.297-0.172,0.477c-0.155,0.324-0.617,0.486-1.386,0.486c-0.756,0-1.218-0.168-1.386-0.504
	c-0.084-0.18-0.135-0.339-0.153-0.478c-0.018-0.138-0.026-0.345-0.026-0.621V9.178c0-1.044-0.372-1.566-1.116-1.566
	c-0.42,0-0.705,0.139-0.855,0.414c-0.149,0.276-0.225,0.667-0.225,1.171v3.149c0,0.288-0.009,0.498-0.027,0.63
	c-0.018,0.132-0.075,0.288-0.171,0.468c-0.168,0.324-0.636,0.486-1.404,0.486c-0.756,0-1.218-0.168-1.386-0.504
	c-0.084-0.18-0.135-0.339-0.153-0.478c-0.018-0.138-0.026-0.345-0.026-0.621V9.178c0-1.044-0.372-1.566-1.116-1.566
	c-0.72,0-1.08,0.522-1.08,1.566v3.187c0,0.275-0.009,0.482-0.027,0.62c-0.018,0.139-0.074,0.298-0.17,0.478
	c-0.181,0.312-0.648,0.468-1.404,0.468s-1.219-0.162-1.387-0.486c-0.084-0.18-0.135-0.336-0.152-0.468
	c-0.019-0.132-0.027-0.342-0.027-0.63V6.01c0-0.276,0.009-0.483,0.027-0.621c0.018-0.138,0.074-0.291,0.171-0.459
	c0.18-0.324,0.606-0.486,1.278-0.486s1.109,0.108,1.313,0.324S100.78,5.296,100.78,5.704z"/>
<path fill="#FFFFFF" d="M115.964,2.673c-0.09,0.174-0.249,0.297-0.478,0.369c-0.228,0.072-0.53,0.108-0.909,0.108
	c-0.377,0-0.681-0.036-0.908-0.108c-0.229-0.072-0.388-0.197-0.478-0.378c-0.09-0.18-0.144-0.339-0.162-0.478
	c-0.018-0.138-0.026-0.345-0.026-0.62c0-0.276,0.009-0.483,0.026-0.621c0.019-0.138,0.069-0.291,0.153-0.459
	C113.351,0.162,113.818,0,114.587,0c0.756,0,1.212,0.162,1.368,0.486c0.096,0.18,0.152,0.339,0.171,0.477
	c0.018,0.139,0.027,0.346,0.027,0.621c0,0.276-0.01,0.483-0.027,0.621C116.107,2.343,116.054,2.499,115.964,2.673z M113.003,6.012
	c0-0.275,0.009-0.482,0.026-0.62c0.019-0.139,0.069-0.297,0.153-0.478c0.168-0.312,0.636-0.468,1.404-0.468
	c0.576,0,0.983,0.102,1.224,0.306c0.204,0.168,0.312,0.427,0.324,0.774c0.012,0.12,0.019,0.294,0.019,0.521v6.301
	c0,0.275-0.01,0.482-0.027,0.62c-0.019,0.139-0.075,0.298-0.171,0.478c-0.156,0.312-0.618,0.468-1.387,0.468
	c-0.756,0-1.218-0.162-1.386-0.486c-0.084-0.18-0.135-0.336-0.153-0.468c-0.018-0.132-0.026-0.342-0.026-0.63V6.012z"/>
<path fill="#FFFFFF" d="M117.665,13.084c-0.229-0.145-0.343-0.372-0.343-0.685c0-0.312,0.229-0.785,0.685-1.422
	c0.132-0.204,0.345-0.306,0.639-0.306s0.693,0.147,1.197,0.44c0.504,0.295,0.96,0.441,1.367,0.441c0.732,0,1.099-0.145,1.099-0.432
	c0-0.229-0.402-0.396-1.206-0.504c-0.756-0.108-1.506-0.391-2.25-0.847c-0.348-0.216-0.636-0.555-0.864-1.017
	c-0.228-0.462-0.342-1.011-0.342-1.647c0-1.896,1.302-2.844,3.906-2.844c0.852,0,1.728,0.204,2.628,0.612
	c0.42,0.191,0.63,0.432,0.63,0.72s-0.132,0.642-0.396,1.062c-0.265,0.42-0.535,0.631-0.811,0.631c-0.145,0-0.411-0.09-0.801-0.271
	c-0.391-0.18-0.813-0.27-1.27-0.27c-0.707,0-1.062,0.132-1.062,0.396c0,0.36,0.408,0.594,1.224,0.702
	c0.792,0.084,1.561,0.312,2.305,0.685c0.348,0.168,0.639,0.459,0.873,0.873c0.233,0.414,0.351,0.933,0.351,1.557
	s-0.117,1.154-0.351,1.593c-0.234,0.438-0.562,0.765-0.981,0.981c-0.769,0.371-1.731,0.558-2.89,0.558
	C119.846,14.092,118.732,13.756,117.665,13.084z"/>
<path fill="#FFFFFF" d="M129.355,2.673c-0.091,0.174-0.249,0.297-0.478,0.369c-0.228,0.072-0.531,0.108-0.908,0.108
	c-0.379,0-0.682-0.036-0.909-0.108c-0.229-0.072-0.388-0.197-0.478-0.378c-0.09-0.18-0.144-0.339-0.162-0.478
	c-0.018-0.138-0.026-0.345-0.026-0.62c0-0.276,0.009-0.483,0.026-0.621c0.019-0.138,0.069-0.291,0.153-0.459
	C126.742,0.162,127.21,0,127.979,0c0.756,0,1.212,0.162,1.368,0.486c0.096,0.18,0.152,0.339,0.171,0.477
	c0.018,0.139,0.026,0.346,0.026,0.621c0,0.276-0.009,0.483-0.026,0.621C129.499,2.343,129.445,2.499,129.355,2.673z M126.395,6.012
	c0-0.275,0.009-0.482,0.026-0.62c0.019-0.139,0.069-0.297,0.153-0.478c0.168-0.312,0.636-0.468,1.404-0.468
	c0.575,0,0.983,0.102,1.224,0.306c0.204,0.168,0.313,0.427,0.324,0.774c0.012,0.12,0.018,0.294,0.018,0.521v6.301
	c0,0.275-0.009,0.482-0.026,0.62c-0.019,0.139-0.075,0.298-0.171,0.478c-0.156,0.312-0.618,0.468-1.387,0.468
	c-0.756,0-1.218-0.162-1.386-0.486c-0.084-0.18-0.135-0.336-0.153-0.468c-0.018-0.132-0.026-0.342-0.026-0.63V6.012z"/>
<path fill="#FFFFFF" d="M136.258,4.443c1.2,0,2.199,0.46,2.997,1.378s1.197,2.037,1.197,3.356v3.168
	c0,0.276-0.009,0.483-0.027,0.621c-0.018,0.138-0.068,0.291-0.152,0.459c-0.168,0.324-0.637,0.485-1.404,0.485
	c-0.852,0-1.344-0.222-1.477-0.666c-0.071-0.203-0.107-0.51-0.107-0.918V9.159c0-0.491-0.141-0.875-0.423-1.151
	s-0.66-0.414-1.134-0.414c-0.475,0-0.858,0.144-1.152,0.433c-0.294,0.287-0.441,0.666-0.441,1.133v3.187
	c0,0.276-0.009,0.483-0.026,0.621c-0.019,0.138-0.075,0.291-0.171,0.459c-0.156,0.324-0.618,0.485-1.387,0.485
	c-0.756,0-1.218-0.161-1.386-0.485c-0.084-0.18-0.135-0.339-0.153-0.478c-0.018-0.138-0.026-0.345-0.026-0.621V5.956
	c0-0.265,0.009-0.465,0.026-0.604c0.019-0.138,0.075-0.291,0.172-0.459c0.168-0.3,0.629-0.45,1.386-0.45
	c0.731,0,1.182,0.139,1.35,0.414c0.12,0.204,0.181,0.45,0.181,0.738c0.047-0.084,0.155-0.204,0.323-0.36
	c0.168-0.155,0.33-0.281,0.486-0.378C135.316,4.582,135.767,4.443,136.258,4.443z"/>
<path fill="#FFFFFF" d="M147.903,12.741c-0.455,0.601-1.182,0.9-2.178,0.9s-1.929-0.459-2.799-1.377s-1.305-1.988-1.305-3.213
	s0.438-2.298,1.313-3.223c0.876-0.924,1.836-1.386,2.88-1.386c0.408,0,0.78,0.075,1.116,0.226s0.567,0.288,0.693,0.414
	s0.225,0.242,0.297,0.351c0.036-0.336,0.159-0.591,0.369-0.765s0.549-0.262,1.017-0.262s0.811,0.037,1.026,0.108
	c0.216,0.072,0.369,0.195,0.459,0.369s0.144,0.327,0.162,0.459c0.018,0.132,0.026,0.336,0.026,0.612v7.451
	c0,1.381-0.479,2.493-1.439,3.34c-0.96,0.846-2.04,1.269-3.24,1.269c-0.912,0-1.782-0.222-2.609-0.666
	c-0.828-0.444-1.242-0.846-1.242-1.206c0-0.468,0.18-0.882,0.54-1.242c0.228-0.252,0.404-0.426,0.53-0.521
	c0.126-0.097,0.273-0.145,0.441-0.145s0.342,0.072,0.521,0.217c0.576,0.443,1.2,0.666,1.873,0.666c0.455,0,0.827-0.181,1.115-0.541
	c0.288-0.359,0.432-0.791,0.432-1.295V12.741z M144.7,9.061c0,0.391,0.152,0.741,0.459,1.054c0.306,0.312,0.678,0.468,1.115,0.468
	c0.438,0,0.801-0.159,1.09-0.478c0.287-0.317,0.432-0.666,0.432-1.044s-0.139-0.731-0.414-1.062
	c-0.276-0.33-0.648-0.495-1.116-0.495s-0.846,0.162-1.134,0.485C144.844,8.313,144.7,8.671,144.7,9.061z"/>
<path fill="#FFFFFF" d="M29.042,29.229l-1.17-0.072v2.484c0,0.324,0.051,0.558,0.153,0.701c0.102,0.145,0.294,0.217,0.576,0.217
	c0.282,0,0.498,0.009,0.647,0.027c0.15,0.018,0.31,0.074,0.478,0.17c0.276,0.156,0.414,0.559,0.414,1.207
	c0,0.756-0.168,1.218-0.504,1.386c-0.181,0.084-0.339,0.135-0.478,0.153c-0.138,0.018-0.339,0.026-0.603,0.026
	c-1.248,0-2.196-0.282-2.844-0.846c-0.648-0.564-0.972-1.519-0.972-2.862v-2.664c-0.228,0.036-0.474,0.054-0.738,0.054
	s-0.483-0.102-0.657-0.306c-0.174-0.204-0.261-0.552-0.261-1.044s0.03-0.849,0.09-1.071c0.06-0.222,0.144-0.381,0.252-0.477
	c0.191-0.156,0.432-0.234,0.72-0.234l0.594,0.072v-1.854c0-0.276,0.009-0.48,0.027-0.612c0.018-0.132,0.075-0.276,0.171-0.433
	c0.156-0.3,0.618-0.449,1.386-0.449c0.816,0,1.302,0.222,1.458,0.666c0.061,0.191,0.09,0.498,0.09,0.918v1.764
	c0.528-0.048,0.927-0.072,1.197-0.072s0.474,0.01,0.612,0.027c0.138,0.018,0.297,0.075,0.477,0.171
	c0.313,0.156,0.468,0.618,0.468,1.386c0,0.756-0.162,1.219-0.486,1.387c-0.181,0.084-0.339,0.135-0.478,0.152
	C29.525,29.221,29.318,29.229,29.042,29.229z"/>
<path fill="#FFFFFF" d="M36.873,26.063c1.2,0,2.199,0.456,2.997,1.368s1.197,2.028,1.197,3.349v3.168
	c0,0.275-0.009,0.482-0.027,0.62c-0.018,0.139-0.075,0.298-0.171,0.478c-0.156,0.312-0.618,0.468-1.386,0.468
	c-0.732,0-1.188-0.156-1.368-0.468c-0.096-0.18-0.153-0.342-0.171-0.486c-0.018-0.144-0.027-0.359-0.027-0.648v-3.149
	c0-0.492-0.138-0.876-0.414-1.152c-0.276-0.275-0.627-0.414-1.053-0.414s-0.801,0.13-1.125,0.388s-0.51,0.549-0.558,0.873v3.492
	c0,0.275-0.009,0.482-0.027,0.62c-0.018,0.139-0.075,0.298-0.171,0.478c-0.156,0.312-0.618,0.468-1.386,0.468
	c-0.756,0-1.218-0.162-1.386-0.486c-0.084-0.18-0.135-0.336-0.153-0.468c-0.019-0.132-0.027-0.342-0.027-0.63V23.166
	c0-0.276,0.009-0.483,0.027-0.621c0.018-0.138,0.069-0.291,0.153-0.459c0.168-0.324,0.636-0.486,1.404-0.486
	c0.756,0,1.212,0.162,1.368,0.486c0.096,0.18,0.153,0.339,0.171,0.477c0.019,0.139,0.027,0.345,0.027,0.621v3.978
	C35.366,26.43,36.068,26.063,36.873,26.063z"/>
<path fill="#FFFFFF" d="M45.468,24.272c-0.09,0.174-0.249,0.297-0.478,0.369c-0.228,0.072-0.531,0.108-0.909,0.108
	s-0.681-0.036-0.909-0.108c-0.229-0.072-0.388-0.197-0.478-0.378c-0.09-0.18-0.144-0.339-0.162-0.478
	c-0.018-0.138-0.026-0.345-0.026-0.62c0-0.276,0.009-0.483,0.026-0.621c0.019-0.138,0.069-0.291,0.153-0.459
	c0.168-0.324,0.636-0.486,1.404-0.486c0.756,0,1.212,0.162,1.368,0.486c0.096,0.18,0.152,0.339,0.171,0.477
	c0.018,0.139,0.027,0.346,0.027,0.621c0,0.276-0.009,0.483-0.027,0.621C45.611,23.942,45.558,24.099,45.468,24.272z M42.507,27.611
	c0-0.275,0.009-0.482,0.026-0.62c0.019-0.139,0.069-0.297,0.153-0.478c0.168-0.312,0.636-0.468,1.404-0.468
	c0.576,0,0.983,0.102,1.224,0.306c0.204,0.168,0.312,0.427,0.324,0.774c0.012,0.12,0.018,0.294,0.018,0.521v6.301
	c0,0.275-0.009,0.482-0.027,0.62c-0.019,0.139-0.075,0.298-0.171,0.478c-0.156,0.312-0.618,0.468-1.387,0.468
	c-0.756,0-1.218-0.162-1.386-0.486c-0.084-0.18-0.135-0.336-0.153-0.468c-0.018-0.132-0.026-0.342-0.026-0.63V27.611z"/>
<path fill="#FFFFFF" d="M47.168,34.684c-0.228-0.145-0.342-0.372-0.342-0.685c0-0.312,0.229-0.785,0.685-1.422
	c0.132-0.204,0.345-0.306,0.639-0.306s0.693,0.147,1.197,0.44c0.504,0.295,0.96,0.441,1.368,0.441c0.732,0,1.098-0.145,1.098-0.432
	c0-0.229-0.402-0.396-1.206-0.504c-0.756-0.108-1.506-0.391-2.25-0.847c-0.348-0.216-0.636-0.555-0.864-1.017
	c-0.228-0.462-0.342-1.011-0.342-1.647c0-1.896,1.302-2.844,3.906-2.844c0.852,0,1.728,0.204,2.628,0.612
	c0.42,0.191,0.63,0.432,0.63,0.72s-0.132,0.642-0.396,1.062s-0.534,0.631-0.81,0.631c-0.144,0-0.411-0.09-0.801-0.271
	c-0.391-0.18-0.813-0.27-1.269-0.27c-0.708,0-1.062,0.132-1.062,0.396c0,0.36,0.408,0.594,1.224,0.702
	c0.792,0.084,1.56,0.312,2.304,0.685c0.348,0.168,0.639,0.459,0.873,0.873s0.351,0.933,0.351,1.557s-0.117,1.154-0.351,1.593
	s-0.561,0.765-0.981,0.981c-0.768,0.371-1.731,0.558-2.889,0.558S48.236,35.355,47.168,34.684z"/>
<path fill="#FFFFFF" d="M66.815,22.077c0.09-0.174,0.249-0.297,0.477-0.369s0.531-0.108,0.909-0.108s0.681,0.036,0.909,0.108
	s0.387,0.197,0.477,0.378c0.09,0.18,0.144,0.339,0.162,0.477c0.018,0.139,0.027,0.345,0.027,0.621V33.93
	c0,0.276-0.009,0.483-0.027,0.621c-0.019,0.138-0.075,0.291-0.171,0.459c-0.181,0.324-0.688,0.485-1.521,0.485
	s-1.299-0.293-1.395-0.881c-0.504,0.576-1.206,0.863-2.106,0.863c-1.08,0-2.063-0.471-2.952-1.413
	c-0.888-0.941-1.332-2.04-1.332-3.294s0.447-2.354,1.341-3.303s1.875-1.422,2.943-1.422c0.888,0,1.578,0.3,2.07,0.899v-3.779
	c0-0.276,0.009-0.483,0.027-0.621S66.725,22.251,66.815,22.077z M63.89,31.86c0.313,0.323,0.69,0.485,1.134,0.485
	s0.813-0.162,1.107-0.485c0.294-0.324,0.441-0.682,0.441-1.071c0-0.391-0.142-0.753-0.423-1.089
	c-0.282-0.336-0.663-0.505-1.143-0.505s-0.864,0.165-1.152,0.495s-0.432,0.693-0.432,1.09C63.422,31.176,63.578,31.536,63.89,31.86z
	"/>
<path fill="#FFFFFF" d="M80.359,29.652c0,0.738-0.183,1.284-0.549,1.638c-0.366,0.354-0.771,0.531-1.215,0.531H74.33
	c0,0.336,0.198,0.618,0.594,0.846c0.396,0.229,0.792,0.342,1.188,0.342c0.696,0,1.242-0.071,1.638-0.216l0.198-0.071
	c0.288-0.133,0.528-0.198,0.721-0.198c0.384,0,0.714,0.27,0.989,0.81c0.156,0.324,0.234,0.601,0.234,0.828
	c0,1.068-1.278,1.602-3.834,1.602c-0.888,0-1.677-0.152-2.367-0.459c-0.69-0.306-1.227-0.711-1.611-1.215
	c-0.756-0.972-1.134-2.058-1.134-3.258c0-1.512,0.489-2.721,1.467-3.627s2.199-1.359,3.663-1.359c1.667,0,2.892,0.589,3.671,1.765
	C80.155,28.233,80.359,28.915,80.359,29.652z M76.562,30.184c0.456,0,0.684-0.192,0.684-0.576c0-0.276-0.104-0.498-0.314-0.666
	s-0.51-0.252-0.9-0.252c-0.39,0-0.777,0.159-1.161,0.477c-0.384,0.318-0.576,0.657-0.576,1.018H76.562z"/>
<path fill="#FFFFFF" d="M81.602,34.684c-0.228-0.145-0.342-0.372-0.342-0.685c0-0.312,0.228-0.785,0.684-1.422
	c0.132-0.204,0.345-0.306,0.64-0.306c0.293,0,0.692,0.147,1.196,0.44c0.504,0.295,0.96,0.441,1.368,0.441
	c0.732,0,1.098-0.145,1.098-0.432c0-0.229-0.401-0.396-1.205-0.504c-0.757-0.108-1.507-0.391-2.25-0.847
	c-0.349-0.216-0.637-0.555-0.864-1.017c-0.229-0.462-0.343-1.011-0.343-1.647c0-1.896,1.303-2.844,3.906-2.844
	c0.853,0,1.729,0.204,2.629,0.612c0.42,0.191,0.629,0.432,0.629,0.72s-0.132,0.642-0.396,1.062c-0.265,0.42-0.534,0.631-0.81,0.631
	c-0.145,0-0.411-0.09-0.802-0.271c-0.39-0.18-0.813-0.27-1.269-0.27c-0.708,0-1.063,0.132-1.063,0.396
	c0,0.36,0.408,0.594,1.225,0.702c0.792,0.084,1.56,0.312,2.304,0.685c0.348,0.168,0.639,0.459,0.873,0.873
	c0.233,0.414,0.351,0.933,0.351,1.557s-0.117,1.154-0.351,1.593c-0.234,0.438-0.562,0.765-0.981,0.981
	c-0.768,0.371-1.73,0.558-2.889,0.558S82.669,35.355,81.602,34.684z"/>
<path fill="#FFFFFF" d="M93.292,24.272c-0.09,0.174-0.249,0.297-0.477,0.369c-0.229,0.072-0.531,0.108-0.909,0.108
	s-0.681-0.036-0.909-0.108c-0.228-0.072-0.387-0.197-0.477-0.378c-0.09-0.18-0.145-0.339-0.162-0.478
	c-0.019-0.138-0.027-0.345-0.027-0.62c0-0.276,0.009-0.483,0.027-0.621c0.018-0.138,0.068-0.291,0.152-0.459
	c0.168-0.324,0.637-0.486,1.404-0.486c0.756,0,1.212,0.162,1.368,0.486c0.096,0.18,0.153,0.339,0.171,0.477
	c0.019,0.139,0.027,0.346,0.027,0.621c0,0.276-0.009,0.483-0.027,0.621C93.437,23.942,93.382,24.099,93.292,24.272z M90.331,27.611
	c0-0.275,0.009-0.482,0.027-0.62c0.018-0.139,0.068-0.297,0.152-0.478c0.168-0.312,0.637-0.468,1.404-0.468
	c0.576,0,0.984,0.102,1.225,0.306c0.203,0.168,0.312,0.427,0.324,0.774c0.012,0.12,0.018,0.294,0.018,0.521v6.301
	c0,0.275-0.009,0.482-0.027,0.62c-0.018,0.139-0.075,0.298-0.171,0.478c-0.156,0.312-0.618,0.468-1.386,0.468
	c-0.756,0-1.219-0.162-1.387-0.486c-0.084-0.18-0.135-0.336-0.152-0.468c-0.019-0.132-0.027-0.342-0.027-0.63V27.611z"/>
<path fill="#FFFFFF" d="M100.933,34.341c-0.455,0.601-1.182,0.9-2.178,0.9s-1.929-0.459-2.799-1.377s-1.305-1.988-1.305-3.213
	s0.438-2.298,1.313-3.223c0.876-0.924,1.836-1.386,2.88-1.386c0.408,0,0.78,0.075,1.116,0.226s0.567,0.288,0.693,0.414
	s0.225,0.242,0.297,0.351c0.036-0.336,0.159-0.591,0.369-0.765s0.549-0.262,1.017-0.262s0.811,0.037,1.026,0.108
	c0.216,0.072,0.369,0.195,0.459,0.369s0.144,0.327,0.162,0.459c0.018,0.132,0.026,0.336,0.026,0.612v7.451
	c0,1.381-0.479,2.493-1.439,3.34c-0.96,0.846-2.04,1.269-3.24,1.269c-0.912,0-1.782-0.222-2.609-0.666
	c-0.828-0.444-1.242-0.846-1.242-1.206c0-0.468,0.18-0.882,0.54-1.242c0.228-0.252,0.404-0.426,0.53-0.521
	c0.126-0.097,0.273-0.145,0.441-0.145s0.342,0.072,0.521,0.217c0.576,0.443,1.2,0.666,1.873,0.666c0.455,0,0.827-0.181,1.115-0.541
	c0.288-0.359,0.432-0.791,0.432-1.295V34.341z M97.729,30.66c0,0.391,0.152,0.741,0.459,1.054c0.306,0.312,0.678,0.468,1.115,0.468
	c0.438,0,0.801-0.159,1.09-0.478c0.287-0.317,0.432-0.666,0.432-1.044s-0.139-0.731-0.414-1.062
	c-0.276-0.33-0.648-0.495-1.116-0.495s-0.846,0.162-1.134,0.485C97.873,29.913,97.729,30.271,97.729,30.66z"/>
<path fill="#FFFFFF" d="M110.725,26.043c1.2,0,2.199,0.46,2.997,1.378s1.197,2.037,1.197,3.356v3.168
	c0,0.276-0.009,0.483-0.027,0.621c-0.018,0.138-0.068,0.291-0.152,0.459c-0.168,0.324-0.637,0.485-1.404,0.485
	c-0.852,0-1.344-0.222-1.477-0.666c-0.071-0.203-0.107-0.51-0.107-0.918v-3.168c0-0.491-0.141-0.875-0.423-1.151
	s-0.66-0.414-1.134-0.414c-0.475,0-0.858,0.144-1.152,0.433c-0.294,0.287-0.441,0.666-0.441,1.133v3.187
	c0,0.276-0.009,0.483-0.026,0.621c-0.019,0.138-0.075,0.291-0.171,0.459c-0.156,0.324-0.618,0.485-1.387,0.485
	c-0.756,0-1.218-0.161-1.386-0.485c-0.084-0.18-0.135-0.339-0.153-0.478c-0.018-0.138-0.026-0.345-0.026-0.621v-6.371
	c0-0.265,0.009-0.465,0.026-0.604c0.019-0.138,0.075-0.291,0.172-0.459c0.168-0.3,0.629-0.45,1.386-0.45
	c0.731,0,1.182,0.139,1.35,0.414c0.12,0.204,0.181,0.45,0.181,0.738c0.047-0.084,0.155-0.204,0.323-0.36
	c0.168-0.155,0.33-0.281,0.486-0.378C109.783,26.182,110.233,26.043,110.725,26.043z"/>
<path fill="#FFFFFF" d="M119.148,32.56c0.204,0.204,0.306,0.624,0.306,1.26v0.072c0,0.288-0.009,0.501-0.026,0.639
	c-0.019,0.139-0.081,0.303-0.188,0.495c-0.181,0.349-0.634,0.522-1.359,0.522c-0.727,0-1.206-0.114-1.44-0.343
	c-0.233-0.228-0.351-0.659-0.351-1.296v-0.072c0-0.275,0.009-0.485,0.026-0.63c0.019-0.144,0.075-0.306,0.171-0.485
	c0.181-0.36,0.633-0.54,1.359-0.54S118.872,32.308,119.148,32.56z"/>
<path fill="#FFFFFF" d="M123.415,32.56c0.203,0.204,0.306,0.624,0.306,1.26v0.072c0,0.288-0.009,0.501-0.027,0.639
	c-0.018,0.139-0.081,0.303-0.188,0.495c-0.18,0.349-0.633,0.522-1.359,0.522c-0.726,0-1.206-0.114-1.439-0.343
	c-0.234-0.228-0.352-0.659-0.352-1.296v-0.072c0-0.275,0.009-0.485,0.027-0.63c0.018-0.144,0.074-0.306,0.171-0.485
	c0.18-0.36,0.633-0.54,1.358-0.54C122.638,32.182,123.139,32.308,123.415,32.56z"/>
<path fill="#FFFFFF" d="M127.681,32.56c0.204,0.204,0.307,0.624,0.307,1.26v0.072c0,0.288-0.01,0.501-0.027,0.639
	c-0.019,0.139-0.081,0.303-0.189,0.495c-0.18,0.349-0.633,0.522-1.358,0.522c-0.727,0-1.206-0.114-1.44-0.343
	c-0.234-0.228-0.351-0.659-0.351-1.296v-0.072c0-0.275,0.009-0.485,0.026-0.63c0.019-0.144,0.075-0.306,0.172-0.485
	c0.18-0.36,0.633-0.54,1.358-0.54S127.405,32.308,127.681,32.56z"/>
</svg>
