<?xml version="1.0" encoding="iso-8859-1"?>
<!-- Generator: Adobe Illustrator 17.1.0, SVG Export Plug-In . SVG Version: 6.00 Build 0)  -->
<!DOCTYPE svg PUBLIC "-//W3C//DTD SVG 1.1//EN" "http://www.w3.org/Graphics/SVG/1.1/DTD/svg11.dtd">
<svg version="1.1" id="Capa_1" xmlns="http://www.w3.org/2000/svg" xmlns:xlink="http://www.w3.org/1999/xlink" x="0px" y="0px"
	 viewBox="0 0 442 442" style="enable-background:new 0 0 442 442;" xml:space="preserve">
<path d="M432,211h-55.315C371.721,132.924,309.076,70.279,231,65.315V10c0-5.523-4.477-10-10-10s-10,4.477-10,10v55.315
	C132.924,70.279,70.279,132.924,65.315,211H10c-5.523,0-10,4.477-10,10s4.477,10,10,10h55.315
	C70.279,309.076,132.924,371.721,211,376.685V432c0,5.523,4.477,10,10,10s10-4.477,10-10v-55.315
	c78.076-4.964,140.721-67.609,145.685-145.685H432c5.523,0,10-4.477,10-10S437.523,211,432,211z M356.646,211h-25.417
	c-4.775-53.068-47.161-95.453-100.228-100.229V85.354C298.044,90.25,351.75,143.956,356.646,211z M211,211h-80.132
	c4.632-42.031,38.1-75.499,80.132-80.131V211z M211,231v80.131c-42.031-4.632-75.5-38.101-80.132-80.131H211z M231,231h80.131
	c-4.632,42.031-38.1,75.499-80.131,80.131V231z M231,211v-80.131c42.031,4.632,75.499,38.101,80.131,80.131H231z M211,85.354v25.417
	c-53.068,4.775-95.454,47.161-100.229,100.229H85.354C90.25,143.956,143.956,90.25,211,85.354z M85.354,231h25.417
	c4.775,53.068,47.161,95.453,100.229,100.229v25.417C143.956,351.75,90.25,298.044,85.354,231z M231,356.646v-25.417
	c53.068-4.775,95.453-47.161,100.228-100.229h25.417C351.75,298.044,298.044,351.75,231,356.646z"/>
<g>
</g>
<g>
</g>
<g>
</g>
<g>
</g>
<g>
</g>
<g>
</g>
<g>
</g>
<g>
</g>
<g>
</g>
<g>
</g>
<g>
</g>
<g>
</g>
<g>
</g>
<g>
</g>
<g>
</g>
</svg>
