<?xml version="1.0" encoding="utf-8"?>
<!-- Generator: Adobe Illustrator 12.0.0, SVG Export Plug-In  -->
<!DOCTYPE svg PUBLIC "-//W3C//DTD SVG 1.1//EN" "http://www.w3.org/Graphics/SVG/1.1/DTD/svg11.dtd" [
	<!ENTITY ns_flows "http://ns.adobe.com/Flows/1.0/">
	<!ENTITY ns_svg "http://www.w3.org/2000/svg">
	<!ENTITY ns_xlink "http://www.w3.org/1999/xlink">
]>
<svg  version="1.1" xmlns="&ns_svg;" xmlns:xlink="&ns_xlink;" xmlns:a="http://ns.adobe.com/AdobeSVGViewerExtensions/3.0/"
	 width="298" height="421" viewBox="0 -0.055 298 421" enable-background="new 0 -0.055 298 421" xml:space="preserve">
<defs>
</defs>
<rect fill-rule="evenodd" clip-rule="evenodd" fill="#FFFFFF" width="297.638" height="420.945"/>
<path fill-rule="evenodd" clip-rule="evenodd" fill="#E41569" d="M128.424,312.989c-0.715-1.986-3.983-4.705-7.032-4.705
	c1.79,0.473,2.777,4.216,3.546,6.779C125.746,317.747,129.199,315.142,128.424,312.989z"/>
<path fill-rule="evenodd" clip-rule="evenodd" fill="#FFFFFF" d="M125.728,313.982c-0.323-1.309-1.059-3.638-1.934-4.065
	c1.507,0.343,3.063,2.007,3.373,3.035C127.501,314.066,126.066,315.353,125.728,313.982z"/>
<path fill-rule="evenodd" clip-rule="evenodd" fill="#E41569" d="M125.956,301.204c-0.007-2.168-3.543-4.201-3.395-1.552
	c0.143,2.53,0.082,7.081-1.36,8.108C123.922,306.726,125.958,303.207,125.956,301.204z"/>
<path fill-rule="evenodd" clip-rule="evenodd" fill="#FFFFFF" d="M123.509,300.659c-0.26-1.158,1.652-0.574,1.578,0.396
	c-0.161,2.083-1.866,4.05-1.866,4.05C123.667,303.365,123.759,301.768,123.509,300.659z"/>
<path fill-rule="evenodd" clip-rule="evenodd" fill="#E41569" d="M115.337,305.315c-1.321-1.484-1.713-2.297-4.047-4.033
	c1.382-1.596,4.982,2.039,6.046,2.027c0.554-0.072,0.879-0.43,1.192-0.975c-0.722-0.666-4.633-2.153-4.192-3.292
	c0.477-1.233,6.974,3.541,7.16,0.394c-1.061-1.17-4.337-1.295-4.807-2.898c0.192-0.148,0.344-0.35,0.563-0.463
	c1.795,0.154,2.973,1.469,4.471,1.93c1.188,0.365,2.172,0.096,2.644-0.869c-0.475-1.061-5.782-1.861-5.048-3.305
	c0.553-1.082,3.39,0.59,3.854,0.781c2.153,0.887,5.114,1.711,4.988-0.297c-2.149-1.435-7.563-2.941-10.813-4.083
	c-6.518-2.286-5.424,7.03-9.539,7.073c-0.994,0.012-1.415-0.941-3.581-2.6c0.35-0.164,2.76-0.408,3.036-1.598
	c-2.545,0.406-5.267-2.439-8.207-2.316c-1.964,0.084-2.854,1.511-3.568,1.972c-0.869-0.176-2.98-0.284-3.801,0.074
	c1.074,0.491,3.105,0.974,3.565,1.864c0.852,4.18,2.799,4.889,4.213,5.734c3.502,2.091,0.072,2.419-3.764,5.291
	c-1.588,1.188-0.803,6-0.162,7.722c0.473,1.269,0.728,4.14,1.841,5.356c1.065-0.337,0.851-1.872,0.586-2.846
	c-0.181-0.664-0.999-3.51-0.623-4.172c0.262-0.901,0.701-1.043,0.74-0.684c0.173,1.689,0.886,4.17,1.686,5.262
	c0.288,0.005,0.606-0.118,0.745-0.375c0.369-1.201-2.001-6.992-0.445-6.392c1.146,0.019,1.162,4.938,1.993,5.077
	c0.229,0.036,0.799-0.463,0.905-0.757c0.085-0.231,0.036-0.562-0.021-0.858c-0.171-0.889-1.334-4.327-0.878-4.777
	c0.242-0.086,0.628,0.082,0.965,0.169c1.01,1.15,0.601,3.091,1.3,4.417c1.84-0.754,0.934-3.971,0.681-5.074
	c0.03-0.98,0.512-0.746,1.141-0.486c0.873,0.359,6.111,5.758,14.879,0.587C119.151,308.313,116.56,306.69,115.337,305.315z"/>
<circle fill-rule="evenodd" clip-rule="evenodd" fill="#FFFFFF" cx="98.492" cy="294.123" r="1.082"/>
<path fill-rule="evenodd" clip-rule="evenodd" fill="#E41569" d="M146.136,299.679c-5.147-4.168-12.396-2.108-14.58,1.078
	c-2.96,4.318-1.976,6.153-9.806,6.946c0,0,11.45,4.279,13.774-1.03C137.792,301.487,141.505,298.985,146.136,299.679z"/>
<path fill-rule="evenodd" clip-rule="evenodd" fill="#FFFFFF" d="M134.418,304.728c-1.306,2.78-6.101,2.775-6.101,2.775
	c2.635-1.869,2.811-2.13,4.092-4.602c1.346-2.592,5.086-2.517,5.086-2.517C135.739,301.815,135.695,302.014,134.418,304.728z"/>
<path fill-rule="evenodd" clip-rule="evenodd" d="M80.688,286.802c-1.137-0.416-1.924-0.069-2.424,0.639
	c-0.895,1.273-0.411,2.797,0.892,3.563c2.107,1.243,3.692-0.304,5.887-0.014c0.915,0.12,0.863,0.138,2.51,0.989
	c1.526,0.789,3.547,0.953,4.117,0.836c-2.021-0.232-2.932-0.8-4.249-1.555c-3.405-1.951-0.426-5.256-2.961-7.482
	C82.355,282.05,79.114,284.116,80.688,286.802L80.688,286.802z"/>
<path d="M107.034,66.644c0,0.161,0.09,0.212,0.222,0.212h0.323c0.09,0,0.111,0.03,0.111,0.091v0.161
	c0,0.071-0.021,0.111-0.082,0.111c-0.07,0-0.383-0.03-0.959-0.03c-0.515,0-0.838,0.03-0.908,0.03c-0.061,0-0.081-0.03-0.081-0.111
	v-0.161c0-0.07,0.03-0.091,0.132-0.091h0.293c0.109,0,0.191-0.051,0.201-0.232c0.01-0.263,0.02-0.586,0.02-0.849v-1.332
	c0-0.404,0-0.697-0.293-0.909c-0.242-0.182-0.484-0.182-0.736-0.182c-0.162,0-0.516,0.07-0.818,0.394
	c-0.201,0.223-0.232,0.495-0.232,0.687v2.09c0,0.272,0.031,0.334,0.242,0.334h0.254c0.08,0,0.1,0.03,0.1,0.101v0.172
	c0,0.061-0.02,0.091-0.07,0.091c-0.07,0-0.343-0.03-0.879-0.03c-0.514,0-0.838,0.03-0.898,0.03c-0.051,0-0.07-0.03-0.07-0.091
	v-0.182c0-0.061,0.02-0.091,0.101-0.091h0.293c0.132,0,0.202-0.03,0.202-0.202V64.29c0-0.303-0.162-0.475-0.414-0.596l-0.081-0.04
	c-0.07-0.03-0.081-0.061-0.081-0.091v-0.051c0-0.051,0.041-0.081,0.092-0.101l0.868-0.485c0.081-0.04,0.142-0.07,0.182-0.07
	c0.051,0,0.071,0.04,0.081,0.121l0.07,0.616h0.02c0.293-0.364,0.879-0.737,1.385-0.737c0.303,0,0.615,0.061,0.857,0.223
	c0.303,0.201,0.557,0.706,0.557,0.959V66.644z"/>
<path d="M110.124,64.25c0-0.344-0.061-0.525-0.566-0.605c-0.07-0.011-0.09-0.031-0.09-0.071v-0.091c0-0.03,0.02-0.051,0.07-0.07
	c0.323-0.122,0.707-0.283,1.09-0.495c0.082-0.04,0.132-0.061,0.192-0.061c0.05,0,0.061,0.05,0.05,0.121
	c-0.02,0.172-0.02,0.808-0.02,1.646v1.1c0,0.395,0,0.758,0.01,0.869c0.021,0.192,0.051,0.263,0.162,0.263h0.465
	c0.08,0,0.101,0.03,0.101,0.091v0.171c0,0.071-0.021,0.102-0.091,0.102c-0.081,0-0.545-0.03-0.97-0.03
	c-0.585,0-0.979,0.03-1.091,0.03c-0.05,0-0.08-0.021-0.08-0.081v-0.202c0-0.06,0.03-0.08,0.101-0.08h0.495
	c0.111,0,0.15-0.041,0.161-0.202c0.011-0.303,0.011-0.616,0.011-0.919V64.25z M109.668,61.17c0-0.252,0.213-0.524,0.617-0.524
	c0.353,0,0.523,0.272,0.523,0.494c0,0.263-0.182,0.556-0.585,0.556C110.002,61.695,109.668,61.493,109.668,61.17z"/>
<path d="M114.112,64.745c0,0.545,0.242,1.161,0.516,1.534c0.332,0.435,0.757,0.515,1.101,0.515c0.505,0,0.767-0.11,1.11-0.434
	c0.021-0.021,0.051-0.03,0.08,0l0.102,0.102c0.041,0.04,0.051,0.07,0,0.131c-0.293,0.333-0.939,0.717-1.625,0.717
	c-0.535,0-1.102-0.121-1.566-0.707c-0.373-0.494-0.453-0.919-0.453-1.373c0-1.182,0.827-2.373,2.16-2.373
	c1.051,0,1.374,0.605,1.374,0.818c-0.011,0.231-0.162,0.353-0.374,0.353c-0.232,0-0.404-0.131-0.556-0.403
	c-0.222-0.414-0.435-0.444-0.677-0.444C114.728,63.18,114.112,63.704,114.112,64.745z"/>
<path d="M119.272,66.612c-0.464-0.555-0.555-0.929-0.555-1.646c0-0.515,0.272-1.161,0.868-1.626
	c0.525-0.403,1.021-0.484,1.353-0.484c0.556,0,1.111,0.282,1.414,0.586c0.455,0.464,0.688,0.989,0.688,1.646
	c0,1.101-0.99,2.222-2.232,2.222C120.323,67.31,119.697,67.117,119.272,66.612z M122.19,64.987c0-1.121-0.816-1.828-1.332-1.828
	c-0.272,0-0.535,0.061-0.777,0.323c-0.395,0.403-0.535,0.818-0.535,1.585c0,0.565,0.061,0.95,0.384,1.414
	c0.231,0.333,0.524,0.525,0.999,0.525C121.696,67.007,122.19,66.067,122.19,64.987z"/>
<path d="M126.301,64.179c0,0.525,0,2.05,0.01,2.363c0.01,0.172,0.051,0.313,0.262,0.313h0.455c0.091,0,0.111,0.03,0.111,0.091v0.171
	c0,0.062-0.021,0.102-0.061,0.102c-0.07,0-0.516-0.03-1.141-0.03c-0.647,0-1.051,0.03-1.142,0.03c-0.051,0-0.071-0.04-0.071-0.102
	v-0.171c0-0.07,0.021-0.091,0.132-0.091h0.484c0.111,0,0.212-0.07,0.223-0.253c0.01-0.313,0.01-2.05,0.01-2.635v-0.637
	c0-0.717-0.01-1.636-0.03-1.898c-0.021-0.344-0.182-0.505-0.505-0.605l-0.202-0.071c-0.051-0.02-0.061-0.03-0.061-0.051v-0.08
	c0-0.03,0.031-0.051,0.091-0.071c0.354-0.161,0.808-0.343,1.182-0.585c0.091-0.062,0.151-0.081,0.212-0.081
	c0.07,0,0.092,0.051,0.081,0.182c-0.011,0.556-0.04,2.655-0.04,3.211V64.179z"/>
<path d="M131.794,65.987c0,0.575,0.12,0.757,0.303,0.757c0.161,0,0.304-0.081,0.354-0.151c0.04-0.051,0.06-0.071,0.101-0.04
	l0.102,0.08c0.03,0.03,0.05,0.081-0.01,0.182c-0.082,0.152-0.273,0.495-0.789,0.495c-0.363,0-0.625-0.263-0.716-0.677h-0.021
	c-0.212,0.253-0.545,0.465-1,0.616c-0.191,0.061-0.373,0.061-0.596,0.061c-0.242,0-0.605-0.202-0.605-0.838
	c0-0.465,0.211-0.868,1.01-1.223c0.454-0.201,0.979-0.443,1.141-0.585v-0.646c-0.02-0.172-0.029-0.434-0.141-0.565
	s-0.313-0.223-0.606-0.223c-0.202,0-0.515,0.081-0.656,0.213c-0.142,0.131-0.051,0.282-0.051,0.464c0,0.354-0.121,0.576-0.534,0.576
	c-0.162,0-0.243-0.091-0.243-0.323c0-0.323,0.282-0.707,0.696-0.949c0.425-0.253,0.777-0.354,1.232-0.354
	c0.475,0,0.666,0.141,0.808,0.272c0.212,0.212,0.223,0.444,0.223,0.717v1.545V65.987z M131.057,64.967
	c-0.363,0.273-1.354,0.475-1.354,1.313c0,0.374,0.223,0.556,0.525,0.556c0.293,0,0.828-0.354,0.828-0.626V64.967z"/>
<path d="M142.333,65.734c-0.495,0.605-1.222,1.605-2.515,1.605c-0.969,0-2.12-0.616-2.12-1.777c0-0.727,0.413-1.322,0.817-1.706
	c0.344-0.334,0.758-0.596,1.172-0.828c-0.697-0.404-1.051-0.899-1.051-1.263c0-0.798,1.041-1.727,1.637-1.727
	c0.757,0,1.434,0.727,1.414,1.404c-0.021,0.524-0.677,1.171-1.111,1.393c0.707,0.374,1.615,1.232,2.131,1.97
	c0.323-0.404,0.969-1.354,1-1.646c0.02-0.162-0.102-0.313-0.313-0.313h-0.172c-0.06,0-0.07-0.031-0.07-0.071v-0.222
	c0-0.031,0.011-0.051,0.07-0.051c0.091,0,0.636,0.03,0.979,0.03c0.374,0,0.98-0.03,1.04-0.03c0.062,0,0.071,0.03,0.071,0.07v0.213
	c0,0.04-0.01,0.07-0.071,0.07h-0.171c-0.506,0-0.606,0.04-0.768,0.293c-0.07,0.111-1.121,1.646-1.395,1.929
	c0.152,0.171,0.627,0.717,0.768,0.848c0.253,0.263,0.717,0.758,1.363,0.758c0.617,0,1.07-0.707,1.111-0.787
	c0.021-0.031,0.04-0.041,0.08-0.011l0.152,0.091c0.02,0.011,0.02,0.041,0,0.091c-0.152,0.334-0.707,1.272-1.879,1.272
	C143.415,67.34,142.768,66.29,142.333,65.734z M142.112,65.502c-0.465-0.656-1.273-1.727-2.223-2.262
	c-0.736,0.404-1.383,1.151-1.362,1.979c0.021,0.838,0.898,1.515,1.677,1.515C141.193,66.734,141.849,65.805,142.112,65.502z
	 M139.334,61.574c0,0.373,0.555,0.817,1.029,1.11c0.254-0.191,0.729-0.494,0.729-1.272c0-0.344-0.313-1.01-0.818-1.01
	C139.779,60.402,139.334,60.988,139.334,61.574z"/>
<path d="M154.064,64.604c0-0.747-0.141-0.939-0.303-1.091c-0.131-0.121-0.424-0.182-0.646-0.182c-0.262,0-0.686,0.131-0.969,0.586
	c-0.121,0.201-0.143,0.394-0.143,0.676v2c0,0.161,0.063,0.263,0.203,0.263h0.363c0.09,0,0.102,0.021,0.102,0.091v0.161
	c0,0.071-0.012,0.111-0.082,0.111c-0.09,0-0.363-0.03-0.918-0.03c-0.535,0-0.859,0.03-0.939,0.03c-0.061,0-0.08-0.021-0.08-0.091
	v-0.182c0-0.081,0.02-0.091,0.121-0.091h0.342c0.092,0,0.143-0.062,0.152-0.253c0.01-0.172,0.01-0.354,0.01-0.524V64.28
	c0-0.202-0.039-0.384-0.281-0.515l-0.213-0.111c-0.051-0.03-0.07-0.051-0.07-0.081v-0.081c0-0.03,0.039-0.07,0.061-0.08l0.889-0.455
	c0.08-0.04,0.15-0.061,0.191-0.061c0.061,0,0.092,0.071,0.092,0.142l0.039,0.586h0.031c0.303-0.414,0.898-0.768,1.484-0.768
	c0.523,0,0.928,0.303,1.141,0.777h0.051c0.303-0.394,0.879-0.777,1.484-0.777c0.354,0,0.666,0.061,0.908,0.303
	c0.232,0.242,0.484,0.465,0.484,1.242v2.252c0,0.151,0.092,0.202,0.213,0.202h0.271c0.092,0,0.111,0.021,0.111,0.091v0.171
	c0,0.071-0.02,0.102-0.07,0.102c-0.07,0-0.354-0.03-0.838-0.03c-0.506,0-0.869,0.03-0.939,0.03c-0.061,0-0.08-0.03-0.08-0.102
	v-0.171c0-0.07,0.02-0.091,0.131-0.091h0.252c0.111,0,0.193-0.051,0.203-0.192c0.02-0.232,0.02-0.596,0.02-0.817v-1.494
	c0-0.334-0.061-0.627-0.293-0.809c-0.182-0.142-0.443-0.212-0.748-0.212c-0.303,0-0.715,0.232-0.877,0.525
	c-0.152,0.293-0.143,0.565-0.143,1.02v1.747c0,0.131,0.051,0.232,0.203,0.232h0.344c0.09,0,0.109,0.021,0.109,0.091v0.161
	c0,0.081-0.02,0.111-0.07,0.111c-0.07,0-0.332-0.03-0.898-0.03c-0.545,0-0.889,0.03-0.949,0.03c-0.051,0-0.07-0.03-0.07-0.102
	v-0.161c0-0.08,0.01-0.101,0.1-0.101h0.293c0.162,0,0.223-0.041,0.223-0.172V64.604z"/>
<path d="M160.67,64.25c0-0.344-0.061-0.525-0.566-0.605c-0.07-0.011-0.09-0.031-0.09-0.071v-0.091c0-0.03,0.02-0.051,0.07-0.07
	c0.322-0.122,0.707-0.283,1.09-0.495c0.082-0.04,0.131-0.061,0.191-0.061c0.051,0,0.063,0.05,0.051,0.121
	c-0.02,0.172-0.02,0.808-0.02,1.646v1.1c0,0.395,0,0.758,0.01,0.869c0.021,0.192,0.051,0.263,0.162,0.263h0.465
	c0.08,0,0.1,0.03,0.1,0.091v0.171c0,0.071-0.02,0.102-0.09,0.102c-0.082,0-0.545-0.03-0.971-0.03c-0.584,0-0.979,0.03-1.09,0.03
	c-0.051,0-0.08-0.021-0.08-0.081v-0.202c0-0.06,0.029-0.08,0.1-0.08h0.496c0.111,0,0.15-0.041,0.16-0.202
	c0.012-0.303,0.012-0.616,0.012-0.919V64.25z M160.215,61.17c0-0.252,0.213-0.524,0.617-0.524c0.352,0,0.523,0.272,0.523,0.494
	c0,0.263-0.182,0.556-0.586,0.556C160.549,61.695,160.215,61.493,160.215,61.17z"/>
<path d="M164.658,64.745c0,0.545,0.242,1.161,0.514,1.534c0.334,0.435,0.758,0.515,1.102,0.515c0.506,0,0.768-0.11,1.111-0.434
	c0.02-0.021,0.051-0.03,0.08,0l0.102,0.102c0.039,0.04,0.051,0.07,0,0.131c-0.293,0.333-0.939,0.717-1.627,0.717
	c-0.535,0-1.1-0.121-1.564-0.707c-0.373-0.494-0.455-0.919-0.455-1.373c0-1.182,0.828-2.373,2.162-2.373
	c1.051,0,1.373,0.605,1.373,0.818c-0.01,0.231-0.162,0.353-0.373,0.353c-0.232,0-0.404-0.131-0.557-0.403
	c-0.223-0.414-0.434-0.444-0.676-0.444C165.273,63.18,164.658,63.704,164.658,64.745z"/>
<path d="M169.949,61.685c0-0.616-0.121-0.727-0.484-0.848l-0.172-0.061c-0.061-0.021-0.072-0.03-0.072-0.061v-0.091
	c0-0.041,0.031-0.051,0.123-0.102l1.049-0.555c0.082-0.041,0.152-0.081,0.232-0.081c0.061,0,0.102,0.081,0.082,0.252
	c-0.021,0.172-0.031,2.222-0.031,2.727v0.646h0.051c0.354-0.424,0.939-0.656,1.383-0.656c0.424,0,0.717,0.132,1,0.404
	c0.455,0.424,0.434,0.938,0.434,1.484v0.575c0,0.565,0.021,1.191,0.021,1.383c0,0.122,0.16,0.152,0.373,0.152h0.172
	c0.08,0,0.111,0.021,0.111,0.091v0.151c0,0.081-0.021,0.121-0.08,0.121c-0.072,0-0.395-0.03-0.971-0.03
	c-0.494,0-0.857,0.03-0.949,0.03c-0.07,0-0.092-0.03-0.092-0.111v-0.172c0-0.05,0.012-0.08,0.072-0.08h0.232
	c0.172,0,0.373-0.021,0.383-0.192c0.01-0.142,0-0.676,0-0.999v-0.818c0-0.565-0.039-0.969-0.332-1.242
	c-0.203-0.191-0.414-0.283-0.668-0.283c-0.293,0-0.656,0.102-0.939,0.425c-0.09,0.111-0.201,0.313-0.201,0.495v2.201
	c0,0.323,0.031,0.414,0.223,0.414h0.303c0.07,0,0.111,0.021,0.111,0.08v0.172c0,0.071-0.021,0.111-0.08,0.111
	c-0.082,0-0.496-0.03-0.961-0.03c-0.504,0-0.889,0.03-0.979,0.03c-0.041,0-0.072-0.03-0.072-0.102v-0.182
	c0-0.07,0.041-0.08,0.152-0.08h0.213c0.16,0,0.313-0.041,0.332-0.161c0.031-0.192,0.031-1.304,0.031-1.96V61.685z"/>
<path d="M179.008,65.987c0,0.575,0.121,0.757,0.303,0.757c0.162,0,0.303-0.081,0.354-0.151c0.041-0.051,0.061-0.071,0.1-0.04
	l0.102,0.08c0.031,0.03,0.051,0.081-0.01,0.182c-0.08,0.152-0.273,0.495-0.787,0.495c-0.363,0-0.627-0.263-0.717-0.677h-0.021
	c-0.211,0.253-0.545,0.465-1,0.616c-0.191,0.061-0.373,0.061-0.596,0.061c-0.242,0-0.605-0.202-0.605-0.838
	c0-0.465,0.213-0.868,1.01-1.223c0.455-0.201,0.98-0.443,1.141-0.585v-0.646c-0.02-0.172-0.029-0.434-0.141-0.565
	s-0.313-0.223-0.605-0.223c-0.203,0-0.516,0.081-0.656,0.213c-0.143,0.131-0.051,0.282-0.051,0.464c0,0.354-0.121,0.576-0.535,0.576
	c-0.162,0-0.242-0.091-0.242-0.323c0-0.323,0.283-0.707,0.697-0.949c0.424-0.253,0.777-0.354,1.232-0.354
	c0.473,0,0.666,0.141,0.807,0.272c0.213,0.212,0.223,0.444,0.223,0.717v1.545V65.987z M178.27,64.967
	c-0.363,0.273-1.354,0.475-1.354,1.313c0,0.374,0.223,0.556,0.525,0.556c0.293,0,0.828-0.354,0.828-0.626V64.967z"/>
<path d="M182.248,64.502c-0.02,0.091-0.029,0.253-0.029,0.485c0,0.989,0.627,1.736,1.434,1.736c0.615,0,1.051-0.354,1.223-0.687
	c0.02-0.04,0.061-0.061,0.09-0.05l0.131,0.07c0.031,0.01,0.051,0.04,0,0.151c-0.182,0.403-0.705,1.101-1.605,1.101
	c-0.574,0-1.211-0.172-1.584-0.717c-0.354-0.515-0.445-0.889-0.445-1.596c0-0.394,0.102-1.07,0.637-1.605
	c0.434-0.444,0.939-0.535,1.443-0.535c1.162,0,1.484,1.091,1.484,1.484c0,0.142-0.121,0.161-0.283,0.161H182.248z M183.854,64.199
	c0.193,0,0.273-0.05,0.273-0.141c0-0.232-0.121-0.899-0.777-0.899c-0.445,0-0.869,0.293-1.061,1.04H183.854z"/>
<path d="M188.297,64.179c0,0.525,0,2.05,0.012,2.363c0.008,0.172,0.049,0.313,0.262,0.313h0.453c0.092,0,0.111,0.03,0.111,0.091
	v0.171c0,0.062-0.02,0.102-0.061,0.102c-0.07,0-0.514-0.03-1.141-0.03c-0.646,0-1.051,0.03-1.141,0.03
	c-0.051,0-0.07-0.04-0.07-0.102v-0.171c0-0.07,0.02-0.091,0.131-0.091h0.484c0.111,0,0.213-0.07,0.223-0.253
	c0.01-0.313,0.01-2.05,0.01-2.635v-0.637c0-0.717-0.01-1.636-0.031-1.898c-0.02-0.344-0.182-0.505-0.504-0.605l-0.201-0.071
	c-0.051-0.02-0.063-0.03-0.063-0.051v-0.08c0-0.03,0.031-0.051,0.092-0.071c0.354-0.161,0.809-0.343,1.182-0.585
	c0.09-0.062,0.152-0.081,0.213-0.081c0.07,0,0.09,0.051,0.08,0.182c-0.01,0.556-0.041,2.655-0.041,3.211V64.179z"/>
<path d="M125.1,50.631c0,2.786-2.261,5.048-5.049,5.048H106.94c-2.789,0-5.05-2.262-5.05-5.048V37.52
	c0-2.788,2.261-5.049,5.05-5.049h13.111c2.788,0,5.049,2.261,5.049,5.049V50.631z"/>
<path d="M156.361,50.399c0,2.788-2.262,5.05-5.051,5.05h-13.109c-2.79,0-5.049-2.262-5.049-5.05v-13.11
	c0-2.79,2.259-5.05,5.049-5.05h13.109c2.789,0,5.051,2.26,5.051,5.05V50.399z"/>
<path d="M187.709,50.472c0,2.787-2.262,5.049-5.051,5.049h-13.109c-2.789,0-5.051-2.262-5.051-5.049v-13.11
	c0-2.788,2.262-5.048,5.051-5.048h13.109c2.789,0,5.051,2.26,5.051,5.048V50.472z"/>
<path fill="#FFFFFF" d="M109.26,39.182c0.201-0.101,0.354-0.202,0.504-0.202c0.152,0,0.253,0.102,0.304,0.304l0.202,1.313h0.15
	c0.304-0.354,0.758-0.758,1.263-1.01c0.606-0.354,1.263-0.606,2.02-0.606c0.858,0,1.667,0.152,2.222,0.606
	c1.111,0.808,1.389,1.565,1.389,2.6v3.636c0,0.809-0.025,1.919-0.025,2.424c0,0.555,0.304,0.707,0.605,0.707h0.707
	c0.229,0,0.304,0.05,0.304,0.177v0.58c0,0.127-0.05,0.177-0.202,0.177c-0.202,0-0.959-0.075-2.727-0.075
	c-1.515,0-2.322,0.075-2.475,0.075c-0.15,0-0.201-0.101-0.201-0.303v-0.429c0-0.152,0.051-0.202,0.303-0.202h0.505
	c0.202,0,0.403-0.152,0.454-0.606c0.076-0.656,0.102-1.363,0.102-2.373v-2.903c0-1.009-0.051-1.666-0.656-2.171
	c-0.506-0.454-0.96-0.454-1.516-0.454c-0.403,0-1.01,0.101-1.615,0.656c-0.404,0.403-0.529,1.11-0.529,1.792v5.201
	c0,0.556,0.125,0.858,0.479,0.858h0.455c0.201,0,0.252,0.05,0.252,0.227v0.455c0,0.151-0.051,0.252-0.201,0.252
	c-0.152,0-0.859-0.075-2.373-0.075c-1.566,0-2.374,0.075-2.525,0.075c-0.101,0-0.15-0.101-0.15-0.252v-0.479
	c0-0.152,0.05-0.202,0.252-0.202h0.505c0.303,0,0.656-0.102,0.656-0.505v-5.681c0-0.757-0.454-1.161-1.061-1.464l-0.202-0.102
	c-0.15-0.05-0.201-0.151-0.201-0.252v-0.202c0-0.101,0.101-0.202,0.252-0.252L109.26,39.182z"/>
<path fill="#FFFFFF" d="M150.787,46.742c0.025,0,0.025,0.051,0,0.102c-0.201,0.429-0.984,1.603-2.525,1.603
	c-1.388,0-2.069-0.997-2.676-1.729c-0.555,0.606-1.389,1.729-3.004,1.729c-1.516,0-2.803-1.022-2.803-2.209
	c0-0.934,0.53-1.666,1.061-2.12c0.404-0.404,0.934-0.732,1.363-0.959c-0.858-0.556-1.287-1.137-1.287-1.692
	c0-0.984,1.262-2.146,2.246-2.146c1.212,0,2.045,0.909,2.02,1.742c-0.025,0.707-0.857,1.438-1.464,1.717
	c0.935,0.429,1.919,1.438,2.575,2.373c0.404-0.506,0.908-1.465,0.934-1.919c0.025-0.202-0.126-0.379-0.378-0.379h-0.202
	c-0.051,0-0.076-0.025-0.076-0.101v-0.277c0-0.063,0.025-0.089,0.076-0.089c0.127,0,0.809,0.038,1.363,0.038
	c0.454,0,1.212-0.038,1.287-0.038c0.076,0,0.102,0.025,0.102,0.101v0.266c0,0.063-0.025,0.101-0.102,0.101h-0.201
	c-0.506,0-0.682,0.051-0.858,0.328c-0.101,0.151-1.086,1.717-1.616,2.398c0.177,0.177,0.707,0.833,1.01,1.11
	c0.228,0.253,0.783,0.834,1.49,0.834c0.782,0,1.261-0.783,1.337-0.909c0.051-0.05,0.076-0.05,0.102-0.025L150.787,46.742z
	 M143.062,47.513c1.187,0,1.843-0.771,2.247-1.199c-0.605-0.909-1.691-2.247-2.752-2.853c-0.631,0.354-1.338,1.287-1.313,2.322
	S142.305,47.513,143.062,47.513z M143.163,39.825c-0.631,0-0.984,0.682-0.984,1.363c0,0.505,0.631,1.035,1.162,1.338
	c0.252-0.227,0.707-0.556,0.707-1.489C144.047,40.532,143.718,39.825,143.163,39.825z"/>
<path fill="#FFFFFF" d="M169.514,39.132c0.203-0.102,0.354-0.152,0.506-0.152c0.15,0,0.277,0.102,0.303,0.354l0.15,1.464h0.102
	c0.758-0.96,2.121-1.818,3.635-1.818c1.516,0,2.375,0.758,2.98,1.869h0.15c0.809-1.061,2.121-1.869,3.535-1.869
	c1.01,0,1.666,0.152,2.322,0.858c0.682,0.707,1.162,1.061,1.162,3.257v2.878c0,0.707-0.051,1.919-0.051,2.222
	c0,0.556,0.303,0.758,0.656,0.758h0.656c0.15,0,0.201,0.05,0.201,0.177v0.53c0,0.151-0.051,0.227-0.201,0.227
	c-0.152,0-0.859-0.075-2.424-0.075c-1.414,0-2.322,0.075-2.475,0.075c-0.15,0-0.201-0.075-0.201-0.202v-0.529
	c0-0.152,0.051-0.202,0.201-0.202h0.404c0.252,0,0.506-0.152,0.506-0.505c0.049-0.556,0.1-1.465,0.1-2.222v-2.954
	c0-1.211-0.1-1.868-0.555-2.272c-0.404-0.403-0.859-0.555-1.516-0.555c-0.707,0-1.463,0.555-1.791,1.035
	c-0.379,0.53-0.379,1.287-0.379,1.969v4.696c0,0.555,0.15,0.808,0.455,0.808h0.656c0.201,0,0.252,0.05,0.252,0.177v0.555
	c0,0.127-0.025,0.202-0.152,0.202c-0.201,0-0.857-0.075-2.475-0.075c-1.564,0-2.396,0.075-2.549,0.075
	c-0.127,0-0.178-0.075-0.178-0.202v-0.479c0-0.202,0.051-0.252,0.203-0.252h0.555c0.354,0,0.605-0.253,0.605-1.161v-4.317
	c0-1.817-0.301-2.373-0.656-2.676c-0.303-0.253-0.857-0.354-1.363-0.354c-0.555,0-1.363,0.303-1.816,1.06
	c-0.354,0.506-0.404,1.061-0.404,1.793v4.494c0,0.908,0.201,1.161,0.506,1.161h0.555c0.201,0,0.252,0.05,0.252,0.151v0.58
	c0,0.127-0.051,0.202-0.201,0.202c-0.203,0-0.91-0.075-2.525-0.075c-1.514,0-2.322,0.075-2.525,0.075
	c-0.15,0-0.201-0.05-0.201-0.227v-0.53c0-0.127,0.102-0.177,0.303-0.177h0.758c0.252,0,0.404-0.202,0.455-0.656v-1.515v-3.712
	c0-0.808-0.152-1.262-0.758-1.615l-0.531-0.277c-0.125-0.076-0.176-0.127-0.176-0.228v-0.252c0-0.102,0.076-0.152,0.176-0.202
	L169.514,39.132z"/>
<g>
	<path fill="none" stroke="#000000" stroke-width="0.5" d="M283.465,25.479c0-5.481-4.484-9.966-9.966-9.966H24.138
		c-5.481,0-9.966,4.484-9.966,9.966v369.988c0,5.481,4.484,9.966,9.966,9.966h249.361c5.481,0,9.966-4.484,9.966-9.966V25.479z"/>
</g>
<path fill="none" d="M18.707,360.985c1.142-0.999,1.195-3.011-0.334-4.393c-0.805-0.727-2.023-1.279-3.343-1.668v3.107
	c0.156-0.202,0.343-0.389,0.596-0.539c0.678-0.397,1.347-0.277,1.738,0.271c0.451,0.631-0.013,1.552-0.847,1.503
	c0.805-0.217,0.777-1.026,0.569-1.327c-0.226-0.319-0.729-0.443-1.241-0.154c-0.476,0.266-0.728,0.673-0.815,1.117v0.742
	c0.082,0.406,0.283,0.802,0.582,1.113C16.676,361.869,17.891,361.7,18.707,360.985z"/>
<path fill="#E41569" d="M55.273,359.831c1.172,1.034,2.349,1.93,3.94,2.472c2.688,0.906,4.992-0.021,6.381-1.585
	c0.536-0.607,0.927-1.309,1.141-2.029c0.656-2.254-0.289-3.773-1.504-4.865c-0.652-0.578-1.381-1.002-1.943-1.278
	s-0.945-0.403-0.945-0.401l-0.829-0.271l0.764-0.421c0.463-0.257,0.832-0.558,1.124-0.886c0.744-0.844,0.976-1.886,0.815-2.937
	c-0.165-1.048-0.74-2.091-1.608-2.856c-1.135-0.998-2.74-1.538-4.625-1.078c-1.41,0.346-2.587,1.293-3.702,2.555
	c-1.508,1.705-2.869,3.955-4.537,5.846c-0.853,0.965-1.794,1.842-2.886,2.492c3.11,0.789,5.065,2.247,6.704,3.699
	C54.159,358.813,54.714,359.337,55.273,359.831z"/>
<path fill="#E41569" d="M52.866,290.636c-1.258-1.111-3.098-1.656-4.909-1.037l-0.779,0.264l0.303-0.764
	c0.152-0.379,0.424-1.369,0.356-2.481c-0.069-1.116-0.451-2.347-1.578-3.347c-0.077-0.066-0.154-0.131-0.235-0.193
	c-0.882-0.693-1.876-1.183-2.882-1.219c-1.003-0.031-2.056,0.354-3.164,1.561c-0.027,0.027-0.052,0.054-0.074,0.08
	c-1.834,2.061-1.865,4.834-2.328,7.616c-0.192,1.126-0.427,2.643-0.735,4.024c-0.227,0.993-0.471,1.904-0.802,2.59
	c2.974-0.671,5.229-0.125,7.199,0.541c2.21,0.747,4.063,1.595,6.365,1.225c1.523-0.243,2.67-0.933,3.47-1.837
	c1.154-1.303,1.577-3.07,1.278-4.554C54.164,292.181,53.625,291.306,52.866,290.636z"/>
<path fill="#E41569" d="M34.962,375.2c-0.493-0.434-1.067-0.77-1.72-0.972l-0.604-0.188l0.45-0.445
	c0.086-0.085,0.166-0.172,0.245-0.26c1.026-1.164,1.282-2.58,1.009-3.992c-0.271-1.404-1.094-2.783-2.204-3.764l-0.007-0.006
	c-1.07-0.946-2.394-1.516-3.737-1.451c-1.919,0.091-3.469,1.175-4.889,2.779c-2.29,2.582-4.119,6.447-6.441,9.085
	c-0.535,0.604-1.097,1.146-1.703,1.591c0.25,0.069,0.525,0.162,0.823,0.267c0.877,0.322,1.928,0.799,3.001,1.337
	c2.149,1.079,4.373,2.389,5.425,3.186c1.304,0.988,3.26,2.047,5.24,2.535c1.989,0.49,3.956,0.406,5.395-0.763
	c0.186-0.149,0.353-0.313,0.507-0.487c0.975-1.097,1.369-2.695,1.212-4.287C36.812,377.774,36.108,376.211,34.962,375.2z"/>
<path fill="#E41569" d="M26.704,281.714c-0.342,0.387-0.646,0.844-0.9,1.38l-0.32,0.679l-0.357-0.662
	c-0.219-0.406-0.503-0.754-0.837-1.05c-0.008-0.006-0.016-0.013-0.022-0.02c-1.532-1.354-4.131-1.485-5.509-0.468
	c-0.243,0.172-0.473,0.381-0.681,0.615c-1.293,1.475-1.749,3.932-0.055,6.096c0.344,0.439,0.718,0.823,1.12,1.18
	c1.565,1.391,3.57,2.299,5.512,4.008c0.944,0.834,1.865,1.861,2.7,3.223c0.027-0.08,0.055-0.164,0.085-0.25
	c0.212-0.584,0.53-1.262,0.901-1.962c0.744-1.397,1.699-2.866,2.484-3.756c0.083-0.095,0.165-0.182,0.243-0.263
	c0.398-0.406,0.821-0.844,1.234-1.311c1.021-1.15,1.964-2.475,2.304-3.826c0.475-1.896-0.081-3.299-1.105-4.213
	C31.764,279.587,28.628,279.54,26.704,281.714z"/>
<path fill="#E41569" d="M34.559,321.976c-2.021-1.793-5.058-1.439-7.548,0.532l-0.539,0.432l-0.073-0.688
	c-0.172-1.626-0.911-2.898-1.944-3.813l-0.004-0.004c-1.214-1.072-2.841-1.635-4.392-1.611c-1.45,0.021-2.816,0.545-3.752,1.604
	c-0.918,1.043-1.455,2.623-1.197,4.882c0.294,2.599,1.642,4.858,2.887,7.483c1.11,2.348,2.117,4.998,2.1,8.418
	c1.663-1.664,5.401-4.049,7.575-4.84c2.409-0.859,5.321-2.518,7.105-4.543c1.44-1.642,2.135-3.435,1.439-5.307
	C35.802,323.4,35.228,322.565,34.559,321.976z"/>
<path d="M45.431,304.408c-0.705,0.757-0.754,1.798-0.374,2.491c0.303,0.553,0.785,0.949,1.591,0.956
	c-1.284-0.562-1.692-2.066-0.717-3.09c0.836-0.881,2.532-0.764,3.344,0.278c0.816,1.044,0.988,2.715,0.116,3.783
	c-2.525,3.104-5.816-0.246-8.187-2.002c-3.181-2.357-5.71-3.231-10.261-1.291c1.501-2.707,3.409-5.056,5.52-7.117
	c-0.662-0.093-2.11,0.354-2.11,0.354c-1.193,1.199-1.732,1.775-2.715,3.054c-1.329-1.124-2.54-2.878-3.544-4.962
	c-0.151,0.453-0.349,0.951-0.349,0.951c0.983,1.881,2.156,3.479,3.467,4.576c-2.507,3.398-4.233,7.043-4.989,10.836
	c-0.271-1.197-1.21-2.217-2.273-1.959c-1.094,0.265-2.408,1.919-0.43,3.433c-1.305-1.725-0.004-2.962,1.015-2.748
	c0.631,0.132,1.197,0.858,1.57,1.919c-0.277,1.624-0.37,3.274-0.274,4.941c0.583,0.762,1.019,1.67,1.227,2.717
	c0.194-0.137,0.396-0.262,0.597-0.379c-0.023-0.355-0.044-0.711-0.055-1.061c0.917-3.385,4.341-7.616,7.946-6.841
	c-2.841-1.464-6.635,1.378-7.948,4.589c0.142-4.152,1.11-7.758,2.625-10.908c1.892-1.068,3.903-1.763,5.783-1.744
	c0.271,0.003,0.539,0.029,0.804,0.078c0.486,0.545,0.739,1.138,0.653,1.711c-0.135,0.912-0.998,1.757-2.219,1.991
	c2.516-0.028,3.523-1.948,2.324-3.503c4.39,1.486,7.632,8.303,12.165,4.125c1.536-1.416,1.303-3.704-0.008-5.006
	C48.455,303.317,46.591,303.161,45.431,304.408z"/>
<path d="M90.405,355.216c0.414-0.576,0.787-1.195,1.111-1.858c1.561-3.173,1.892-6.876-0.402-9.554
	c-2.408-2.813-5.511-3.191-8.228-1.285c-2.392,1.677-3.355,4.997-1.308,7.414c1.108,1.311,3.471,1.926,4.838,0.585
	c1.61-1.581,0.666-4.186-1.512-3.816c1.865,0.53,2.213,2.03,0.926,3.261c-1.047,1.003-2.854,0.597-3.854-0.633
	c-1.492-1.831-0.672-4.559,0.996-5.936c1.904-1.573,5.486-1.94,7.579,0.65c4.341,5.375-1.098,13.181-6.384,15.232
	c-5.46,2.115-11.098,1.779-16.956,0.301c-0.173,0.395-0.387,0.774-0.644,1.131c4.467,1.324,10.033,1.621,14.912,0.296
	c0.518,0.02,1.016,0.093,1.476,0.223c2.126,0.595,3.28,2.75,2.662,5.023c-0.543,1.986-2.027,2.962-3.622,2.864
	c-3.849-0.234-3.669-5.354-1.167-5.121c0.58,0.053,1.549,1.227,0.745,2.418c1.104-0.898,0.63-2.705-0.565-2.956
	c-1.039-0.216-2.101,0.3-2.564,1.565c-0.841,2.316,1.079,4.357,3.212,4.673c0.222,0.032,0.451,0.048,0.686,0.044
	c3.23-0.051,4.744-3.543,3.919-6.181c-0.531-1.706-1.619-2.585-2.872-2.985c-0.094-0.028-0.187-0.057-0.28-0.081
	c2.666-0.964,5.044-2.472,6.805-4.63c0.817-0.088,1.591,0.074,2.211,0.533c1.061,0.785,1.714,2.287,1.46,3.739
	C94.651,357.491,92.8,355.108,90.405,355.216z"/>
<path d="M63.964,379.327c-2.536-1.885-6.244-1.73-8.226,0.841c-1.513,1.964-0.991,4.828,0.484,6.103
	c2.039,1.766,4.833,1.126,4.58-1.754c-1.181,4.764-7.104,0.668-4.657-3.615c1.719-3.003,5.149-2.879,7.512-1.055
	c2.36,1.826,3.519,5.362,1.176,8.346c-2.969,3.783-10.168,1.141-17.961-3.344c-0.003-0.012-0.005-0.026-0.007-0.041l-0.043,0.014
	c-3.028-1.746-6.146-3.768-9.136-5.797c0.063,0.481,0.084,0.966,0.054,1.447c2.615,1.803,5.304,3.585,7.949,5.156
	c2.158,3.166,1.578,7.184-0.239,9.515c-1.846,2.37-5.412,2.661-6.989-0.052c-2.445-4.205,3.04-7.725,4.358-4.438
	c0.259,0.646-0.217,2.147-1.797,2.071c1.479,0.575,2.919-0.847,2.403-2.229c-1.437-3.845-8.438-0.433-5.417,4.696
	c1.87,3.174,5.558,2.898,7.868,0.309c1.952-2.187,1.894-5.561,0.996-8.158c0.994,1.822,2.658,3.277,6.464,5.039
	c1.896,0.877,2.413,1.77,2.396,2.493c-0.034,1.736-2.065,1.362-2.069,0.521c-0.004-0.52,0.518-0.668,0.953-0.607
	c-0.525-0.24-1.102-0.132-1.233,0.494c-0.093,0.437,0.114,0.964,0.484,1.153c1.043,0.53,1.952-0.075,2.287-1.135
	c0.587-1.877-1.866-3.054-3.739-3.993c-2.051-1.032-4.066-2.584-5.029-4.699c7.535,4.225,14.512,6.359,18.158,1.83
	C67.884,385.532,66.952,381.545,63.964,379.327z"/>
<path d="M71.84,292.015c1.273-1.271,1.928-3.223,0.34-4.807c-1.305-1.301-3.221-1.463-4.419-0.184
	c-0.725,0.779-0.775,1.848-0.386,2.563c0.309,0.568,0.805,0.976,1.634,0.985c-1.323-0.579-1.735-2.129-0.734-3.18
	c0.782-0.818,2.314-0.852,3.225-0.059c1.203,1.044,1.245,2.486,0.394,3.686c-2.487,3.506-6.365,0.421-9.031-1.195
	c-4.259-2.576-8.855-2.489-13.057-1.235c0.693,0.038,1.356,0.203,1.972,0.468c3.365-0.897,6.735-0.895,9.655,0.724
	C64.239,291.335,68.684,295.169,71.84,292.015z"/>
<path d="M34.647,372.735c-0.169,0.336-0.375,0.662-0.632,0.973c0.083,0.034,0.162,0.074,0.244,0.116
	c3.098-0.713,8.329-0.942,9.797,1.276c1.231,1.863-0.143,4.9-2.733,3.809c-0.985-0.416-1.359-2.048-0.301-2.623
	c0.717-0.401,1.816,0.185,2.009,0.949c-0.012-1.104-1.044-1.872-2.076-1.539c-0.783,0.236-1.193,0.816-1.192,1.541
	c0.002,1.16,0.603,1.954,1.41,2.305c1.039,0.451,2.357,0.303,3.243-0.877c0.816-1.051,0.758-2.551,0.099-3.686
	c-1.277-2.208-4.231-2.618-6.909-2.447c0.226-0.074,0.42-0.156,0.568-0.247c0.088-0.054,0.173-0.11,0.259-0.173
	c2.413-0.972,6.282-1.115,7.922,0.574c-0.865-2.034-4.239-2.311-6.833-1.672c0.825-1.084,1.386-2.527,1.288-3.746
	c-0.132-1.607-2.009-2.82-3.569-1.826c-0.605,0.387-1.023,1.051-0.95,1.934c0.074,0.914,0.697,1.918,1.86,1.561
	c0.329-0.102,0.559-0.341,0.636-0.671c0.128-0.553-0.472-1.011-1.041-0.719c0.628-0.108,0.852,0.43,0.793,0.69
	c-0.046,0.199-0.214,0.41-0.482,0.451c-1.161,0.188-1.479-0.976-1.338-1.695c0.205-1.034,1.078-1.629,1.871-1.486
	c1.133,0.203,1.568,0.834,1.705,1.619c0.188,1.063-0.306,2.316-1.08,3.348C38.477,371.456,36.211,372.405,34.647,372.735z"/>
<path d="M50.535,280.598c0.496-0.37,0.741-0.917,0.672-1.524c-0.118-1.018-1.413-1.43-2.201-0.588
	c0.999-0.566,1.702,0.213,1.763,0.692c0.046,0.365-0.146,0.776-0.542,1.062c-0.831,0.595-2.162,0.416-2.675-0.412
	c-0.569-0.92-0.636-2.047-0.082-2.792c1.258-1.698,3.246-1.577,4.528-0.303c2.155,2.141,0.797,6.376-1.859,8.812
	c-0.103,0.059-0.201,0.115-0.305,0.174l-1.255,0.714c0.004,0.048,0.011,0.096,0.014,0.142c0.016,0.288,0.009,0.562-0.007,0.824
	c3.988-2.846,10.344-5.411,14.265-1.692c-0.047-0.019-2.845-4.788-10.854-1.117c1.825-2.405,2.677-6.331,0.318-8.552
	c-1.227-1.154-3.346-1.422-4.797,0.016c-1.096,1.086-1.352,2.827-0.476,4.044C47.834,281.196,49.365,281.474,50.535,280.598z"/>
<path d="M20.739,369.345c0.273-0.411,0.551-0.816,0.834-1.213c-0.109-0.055-0.217-0.107-0.316-0.152
	c-2.146-0.965-4.219-1.764-6.227-2.417v1.808c1.623,0.469,3.295,1.035,5.033,1.73C20.275,369.167,20.504,369.253,20.739,369.345z"/>
<path d="M19.734,360.224c0.368-0.777,0.188-1.918-0.269-2.87c1.84-0.417,2.13-2.39,0.242-3.604c0.634,0.556,1.013,1.535,0.821,2.251
	c-0.155,0.578-0.584,0.799-1.342,0.857c-0.943-1.241-2.502-2.149-4.157-2.732v0.8c1.319,0.389,2.538,0.941,3.343,1.668
	c1.529,1.382,1.476,3.394,0.334,4.393c-0.815,0.715-2.03,0.884-3.095-0.227c-0.299-0.312-0.5-0.707-0.582-1.113v0.934
	c0.119,0.19,0.254,0.375,0.42,0.543C16.762,362.445,18.835,362.116,19.734,360.224z"/>
<path d="M15.845,357.786c0.512-0.289,1.016-0.165,1.241,0.154c0.208,0.301,0.235,1.11-0.569,1.327
	c0.834,0.049,1.298-0.872,0.847-1.503c-0.392-0.549-1.061-0.669-1.738-0.271c-0.253,0.15-0.439,0.337-0.596,0.539v0.871
	C15.118,358.459,15.37,358.052,15.845,357.786z"/>
<path d="M46.694,353.792c0.499-0.318,0.969-0.691,1.416-1.107c-3.534-1.364-7.153-2.664-10.857-3.676
	c4.64-0.826,9.501-2.992,11.029-7.915c0.1-0.317,0.187-0.646,0.267-0.982c0.689-0.539,1.418-0.79,2.094-0.638
	c1.07,0.24,1.993,1.334,2.164,2.803c0.191-3.062-2.114-4.412-4.097-2.954c0.253-1.335,0.421-2.819,0.706-4.507
	c0.364-2.154,2.288-3.946,3.848-4.305c1.76-0.401,3.908-0.209,4.118,2.081c0.184,1.985-2.576,3.327-3.646,1.19
	c-0.398-0.797,0.426-1.935,1.275-2.049c-1.191-0.124-2.15,0.894-1.918,2.051c0.503,2.524,3.715,2.259,4.691,0.338
	c1.063-2.092-1.069-5.387-4.712-4.229c-4.163,1.326-4.671,5.639-5.277,9.156c-0.182,1.062-0.479,1.999-0.872,2.828
	c0.34-3.371-1.237-9.621-5.096-9.686c-0.546-0.008-1.072,0.289-1.502,0.606c-0.818,0.606-1.466,2.171-0.939,3.36
	c0.599,1.357,2.187,1.893,3.34,0.867c0.572-0.508,0.672-1.157,0.295-1.674c-0.43-0.592-1.409-0.426-1.623,0.354
	c0.446-0.678,1.172-0.425,1.379-0.146c0.219,0.295,0.173,0.793-0.245,1.182c-0.473,0.439-1.399,0.576-1.839,0.305
	c-1.817-1.123-1.051-4.115,1.038-4.249c0.821-0.054,1.389,0.202,1.988,0.642c2.586,1.895,3.043,7.339,2.152,10.146
	c-2.405,3.069-6.555,4.17-10.939,4.832c-1.151-0.27-2.311-0.513-3.48-0.714c-4.644-0.801-10.635,0.043-16.422,1.585v2.781
	C26.601,348.47,36.487,350.415,46.694,353.792z"/>
<path d="M24,337.17c-1.512,0.973-2.934,2.058-3.606,2.827c-0.203,0.229-1.096,1.023-1.096,1.023
	c0.029-0.406,0.034-1.438,0.035-1.822c-1.335,1.791-2.796,3.504-4.304,5.115v3.058C18.066,344.725,21.455,341.255,24,337.17z"/>
<path d="M22.629,275.632c0.995-0.977,1.096-2.181,0.336-3.104c-0.877-1.06-2.667-0.686-2.963,0.765
	c0.739-1.279,2.114-0.863,2.532-0.365c0.445,0.529,0.424,1.449-0.302,2.193c-0.821,0.843-2.498,1.125-3.364,0.692
	c-2.87-1.433-3.179-4.759-0.442-6.487c1.901-1.201,4.64-0.821,6.222,0.874c1.515,1.62,2.13,4.192,2.021,6.513
	c-0.05,0.064-0.097,0.127-0.141,0.193c-0.857,1.246-1.407,2.842-1.697,4.629c0.196,0.174,0.376,0.369,0.543,0.58
	c0.228-1.893,0.749-3.586,1.623-4.893c0.931-1.395,3.389-3.045,5.05-2.01c0.454,0.282,0.749,0.82,0.652,1.381
	c-0.099,0.563-0.598,1.023-1.296,0.879c-0.396-0.08-0.68-0.535-0.805-0.924c0.015,0.66,0.225,0.984,0.563,1.182
	c0.855,0.5,1.961-0.37,2.038-1.234c0.079-0.908-0.643-1.673-1.452-1.96c-1.391-0.495-3.076,0.268-4.254,1.302
	c-0.021-0.827-0.359-4.25-2.434-6.33c-1.376-1.381-3.205-1.984-5.004-1.66c-0.998,0.18-1.951,0.607-2.706,1.224
	c-1.438,1.177-2.146,3.045-1.02,5.198C17.615,276.728,20.623,277.603,22.629,275.632z"/>
<path d="M70.09,347.632c0.275,1.507-1.31,2.814-2.641,3.375c-1.434,0.11-2.812,0.451-3.898,0.822
	c0.333,0.16,0.725,0.371,1.133,0.635c3.151-1.175,7.34-1.172,9.061,1.455c0.545,0.83,0.685,1.777-0.171,2.927
	c-0.6,0.806-1.9,1.009-2.967,0.243c-0.742-0.535-1.442-1.863-0.232-2.686c0.28-0.188,0.615-0.142,0.827,0.002
	c0.274,0.188,0.532,0.867-0.133,1.301c0.766-0.218,0.921-1.145,0.333-1.538c-0.351-0.233-0.764-0.257-1.147-0.069
	c-1.365,0.668-1.075,2.111-0.366,3.006c0.688,0.865,1.633,1.114,2.514,0.949c2.266-0.428,2.942-3.129,1.688-4.704
	c-1.396-1.76-3.478-2.358-5.559-2.38C69.884,350.378,70.918,348.967,70.09,347.632z"/>
<path d="M42.089,315.667c-4.535-2.597-10.125,1.457-13.071,4.836c0.292-0.109,0.584-0.193,0.88-0.264
	c1.979-2.027,4.705-3.786,7.242-4.471c2.602-0.701,6.373,0.104,6.885,3.233c0.268,1.653-0.867,3.333-2.834,3.642
	c-0.837,0.133-2.154-0.542-2.617-1.461c-0.406-0.81-0.182-1.579,0.328-1.903c0.478-0.304,1.731-0.286,2.011,0.972
	c0.134-1.283-1.256-2.066-2.264-1.415c-0.876,0.567-1.107,1.596-0.54,2.668c1.152,2.167,3.883,2.233,5.599,0.525
	C45.917,319.829,44.379,316.979,42.089,315.667z"/>
<path d="M63.802,351.237c-0.16,0.163-0.33,0.319-0.521,0.465c0.083,0.038,0.173,0.08,0.269,0.127
	c2.945-1.059,5.854-4.564,5.776-7.115c-0.091-3.014-4.23-4.646-5.358-1.445c-0.239,0.76-0.052,1.639,0.74,2.325
	c0.491,0.429,1.131,0.492,1.755,0.099c0.839-0.508,0.926-1.668,0.179-2.328c0.405,0.585,0.156,1.682-0.541,1.932
	c-1.018,0.382-1.911-0.84-1.611-1.754c0.819-2.513,3.845-1.229,4.156,0.804C69.012,346.735,66.344,350.199,63.802,351.237z"/>
<path d="M148.1,92.58c0.24-0.2,0.261-0.46,0.261-0.82c0-0.28-0.04-0.7-0.061-0.84c-0.22-0.101-0.42-0.36-0.42-0.641
	c0-0.279,0.16-0.46,0.38-0.46c0.24,0,0.4,0.24,0.4,0.38c0,0.16-0.021,0.32-0.08,0.48c-0.02,0.1-0.04,0.24-0.04,0.4
	c0,0.319,0.06,0.779,0.14,0.859c0.2-0.62,0.261-1.02,0.301-1.52c0.04-0.28,0.08-0.8-0.04-0.8c-0.16,0-0.98-0.341-0.98-1.04
	c0-0.54,0.3-1.08,1.08-1.08s1.02,0.46,1.02,0.92c0,0.52-0.36,0.96-0.66,1.14c-0.12,0.061-0.141,0.3-0.141,0.561
	c0,0.26-0.12,1.3-0.34,1.84c0.141-0.061,0.3-0.181,0.42-0.32c0.12-0.12,0.16-0.24,0.16-0.46c0-0.34,0.24-0.74,0.621-0.74
	c0.24,0,0.619,0.08,0.619,0.78c0,0.38-0.26,0.62-0.48,0.62c-0.119,0-0.199-0.021-0.299-0.04c-0.08-0.021-0.16-0.04-0.24-0.04
	s-0.279,0.1-0.52,0.3l-1.9,1.561c-0.56,0.479-1.34,1.119-1.899,1.56c-0.101,0.08-0.08,0.2,0.08,0.18c0.14-0.02,0.279-0.04,0.42-0.04
	c0.14,0,0.279-0.02,0.38-0.16c0.12-0.159,0.22-0.319,0.319-0.5c0.24-0.38,0.94-0.579,1.44-0.579c0.3,0,0.88,0.199,1.08,0.399
	c0.28,0.28,0.74,0.64,0.94,0.86c-0.16,0.06-0.44,0.06-0.7,0.06v0.04c0.319,0.101,0.68,0.36,0.92,0.74
	c-0.281,0.02-0.601,0.12-0.601,0.22c0,0.08,0.04,0.181,0.141,0.26c0.279,0.221,0.541,0.46,0.621,0.681
	c0.139,0.359,0.219,0.66,0.379,0.859c-0.141,0.16-0.539,0.24-0.76,0.24c-0.48,0-0.9-0.22-1.26-0.54c-0.1,0.2-0.14,0.54-0.06,0.76
	c-0.36-0.04-0.72-0.239-0.92-0.399c-0.16-0.12-0.32-0.36-0.32-0.601c-0.12,0.021-0.24,0.04-0.28,0.101
	c-0.04,0.06-0.04,0.14-0.04,0.2c-0.64-0.16-1.319-0.841-1.319-1.54c0-0.24,0.02-0.58,0.12-0.82c-0.28,0-0.58,0.02-0.9,0.12
	c-0.34,0.12-0.92,0.62-0.92,1.479c0,0.761,0.7,1.16,1.16,1.16c0.5,0,0.939-0.06,1.3-0.14c-0.14,0.38-0.44,1.22-0.6,1.76
	c-0.16,0.16-0.32,0.24-0.54,0.24c-1.261,0-2.341-1.16-2.341-2.4c0-0.859,0.221-1.439,0.46-1.68c0.141-0.16,0.181-0.34,0.181-0.56
	c0-0.2-0.3-0.36-0.66-0.36c-0.16,0-0.32,0.02-0.42,0.1c0,0.141,0.06,0.261,0.14,0.4c0.101,0.16,0.141,0.38,0.141,0.54
	s-0.16,0.76-0.381,0.939c-0.159,0.141-0.46,0.7-0.539,0.841c-0.08-0.181-0.221-0.521-0.141-0.641c0.04-0.06,0.021-0.12-0.04-0.12
	c-0.06,0-0.14,0.061-0.2,0.221c-0.08,0.239-0.46,0.88-0.779,1.239c-0.16-0.08-0.24-0.279-0.24-0.439c0-0.12,0-0.24-0.1-0.24
	c-0.101,0-0.2,0.14-0.24,0.24c-0.08,0.22-0.28,0.52-0.44,0.6c-0.14,0.08-0.7,0.3-1,0.38c-0.22,0.061-0.56,0.221-0.859,0.4
	c-0.221,0.14-0.44,0.08-0.44-0.061c0-0.14,0.04-0.359,0.1-0.5c0.061-0.119,0.12-0.359,0.16-0.56c0.061-0.28,0.12-0.56,0.26-0.74
	c0.181-0.22,0.4-0.52,0.4-0.64c0-0.1-0.08-0.14-0.22-0.1c-0.2,0.06-0.42-0.04-0.521-0.2c0.221-0.32,0.74-0.8,1.12-1
	c0.32-0.16,0.5-0.28,0.5-0.4s-0.14-0.12-0.24-0.14c-0.159-0.021-0.26-0.061-0.26-0.141c0-0.1,0.12-0.199,0.26-0.22
	c0.181-0.04,0.4-0.1,0.521-0.2c0.2-0.159,0.46-0.319,0.7-0.46c0.239-0.12,0.46-0.239,0.84-0.239c0.32,0,0.74,0.22,0.979,0.56
	c0.141,0.22,0.261,0.36,0.381,0.32c0.119-0.04,0.26-0.061,0.42-0.061c0.159,0,0.34,0.021,0.6,0.04c-0.2-0.319-0.84-0.68-1.22-0.899
	c-0.58-0.32-1.221-1.181-1.48-1.521c-0.2-0.26-0.46-0.38-0.7-0.38c-0.18,0-0.279,0.08-0.279,0.22c0.1,0.12,0.18,0.3,0.18,0.48
	c0,0.34-0.2,0.56-0.54,0.56c-0.42,0-0.62-0.319-0.62-0.64c0-0.34,0.12-0.561,0.38-0.62c0.221-0.04,0.38-0.14,0.521-0.22
	c0.12-0.061,0.26-0.08,0.38-0.08c0.16,0,0.3,0.06,0.439,0.12l0.061-0.021c-0.16-0.3-0.46-0.62-0.64-0.76
	c-0.08-0.06-0.181-0.04-0.24,0.06c-0.101,0.141-0.26,0.28-0.561,0.28c-0.319,0-0.54-0.34-0.54-0.76c0-0.34,0.261-0.78,0.78-0.78
	c0.42,0,0.62,0.32,0.62,0.521c0,0.12,0,0.279,0.08,0.359c0.34,0.34,0.72,0.84,0.88,1.181c0.16,0.38,0.88,1.279,1.28,1.54
	c0.359,0.239,0.779,0.5,1.12,0.739c0.34,0.24,0.6,0.66,0.76,1.08c0.2-0.14,0.42-0.38,0.56-0.62c0.181-0.319,0.36-0.8,0.28-1.18
	c-0.16,0-0.36,0.12-0.5,0.22c-0.2,0.141-0.44,0.2-0.74,0.2c-0.54,0-1.42-0.979-1.64-1.34c0.16-0.021,0.3-0.04,0.399-0.14
	c-0.22-0.16-0.76-0.62-1.039-1.04c-0.261-0.38-0.5-0.96-0.5-1.221c0-0.22,0.02-0.38,0.1-0.38c0.16,0,0.4-0.06,0.42-0.2
	c0.04-0.18,0.06-0.359,0.02-0.5c-0.18-0.619-0.319-1.02-0.159-1.479c0.159-0.46,0.38-0.9,0.62-1.16c0.26,0.1,0.56,0.26,0.76,0.42
	c0.26,0.22,0.5,0.4,0.72,0.521c0.24,0.14,0.521,0.319,0.62,0.54c0.08,0.159,0.18,0.3,0.34,0.3c0.12,0,0.18-0.08,0.12-0.22
	c-0.06-0.16-0.16-0.301-0.16-0.421c0-0.119,0.04-0.199,0.14-0.26c0.16,0.22,0.4,0.46,0.58,0.58c0.28,0.18,0.58,0.521,0.7,0.84
	c0.141,0.34,0.36,0.721,0.44,0.721c0.18,0,0.26-0.341,0.16-0.841c0.199,0.08,0.319,0.221,0.38,0.381c0.08,0.22,0.18,0.34,0.38,0.52
	c0.359,0.32,0.64,1.08,0.64,1.82c0,0.899-0.74,1.779-1.399,1.779c-0.341,0-0.721,0-0.86,0.08s-0.14,0.2-0.14,0.38
	c0,0.32-0.061,0.641-0.16,0.881c-0.04,0.119-0.08,0.22,0,0.22c0.1,0,0.62-0.42,1.08-0.8L148.1,92.58z"/>
</svg>
