<?xml version="1.0" encoding="utf-8"?>
<!-- Generator: Adobe Illustrator 12.0.0, SVG Export Plug-In  -->
<!DOCTYPE svg PUBLIC "-//W3C//DTD SVG 1.1//EN" "http://www.w3.org/Graphics/SVG/1.1/DTD/svg11.dtd" [
	<!ENTITY ns_flows "http://ns.adobe.com/Flows/1.0/">
	<!ENTITY ns_svg "http://www.w3.org/2000/svg">
	<!ENTITY ns_xlink "http://www.w3.org/1999/xlink">
]>
<svg  version="1.1" preserveAspectRatio="none" xmlns="&ns_svg;" xmlns:xlink="&ns_xlink;" xmlns:a="http://ns.adobe.com/AdobeSVGViewerExtensions/3.0/"
	 width="298" height="210" viewBox="0.5 0.777 298 210" enable-background="new 0.5 0.777 298 210" xml:space="preserve">
<defs>
</defs>
<rect fill="#FFFFFF" width="297.638" height="210.473"/>
<path fill="#6D9200" d="M178.107,195.564h4.187v-4.184h-4.187V195.564z M236.688,172.313c-1.354,0.319-2.746,0.631-4.186,0.935
	v1.397h4.186V172.313z M56.766,170.064c-1.476-0.453-2.872-0.917-4.184-1.393v1.787h4.184V170.064z M228.318,120.25h-4.185v4.185
	h4.185V120.25z M69.319,142.568c1.359-0.287,2.752-0.566,4.186-0.84v-0.559h-4.186V142.568z M81.871,136.986v-4.184h-4.184v4.184
	H81.871z M60.95,144.553c1.342-0.358,2.74-0.707,4.185-1.049v-2.332H60.95V144.553z M48.398,148.821
	c1.28-0.573,2.677-1.133,4.185-1.679v-1.788h-4.185V148.821z M46.87,149.539h-2.656v1.455
	C45.017,150.502,45.902,150.017,46.87,149.539z M194.845,195.564h4.185v-4.184h-4.185V195.564z M186.477,195.564h4.186v-4.184
	h-4.186V195.564z M228.318,174.646v4.185h4.185v-4.185H228.318z M58.084,145.355h-1.318v0.396
	C57.199,145.617,57.637,145.485,58.084,145.355z M40.708,153.724h-0.679v0.78C40.231,154.242,40.462,153.981,40.708,153.724z
	 M81.871,140.289c1.37-0.215,2.765-0.422,4.185-0.623v-2.68h-4.185V140.289z M236.688,174.646v4.185h4.186v-4.185H236.688z
	 M140.45,135.65v-2.848h-4.185v2.939C137.652,135.707,139.048,135.676,140.45,135.65z M148.819,135.559v-2.756h-4.185v2.785
	C146.023,135.572,147.418,135.563,148.819,135.559z M132.081,135.869v-3.066h-4.184v3.223
	C129.282,135.967,130.678,135.916,132.081,135.869z M123.713,136.217v-3.414h-4.184v3.639
	C120.913,136.36,122.308,136.285,123.713,136.217z M165.556,135.742v-2.939h-4.185v2.849
	C162.773,135.676,164.169,135.707,165.556,135.742z M111.324,136.986c1.329-0.102,2.669-0.195,4.021-0.285v-3.898h-4.185v4.185
	L111.324,136.986L111.324,136.986z M136.266,195.564h4.185v-4.184h-4.185V195.564z M144.635,195.564h4.184v-4.184h-4.185
	L144.635,195.564L144.635,195.564z M211.583,120.25h-4.185v4.185h4.185V120.25z M203.213,195.564h4.186v-4.184h-4.186V195.564z
	 M157.188,135.588v-2.785h-4.185v2.756C154.404,135.563,155.799,135.572,157.188,135.588z M219.949,120.25h-4.185v4.185h4.185
	V120.25z M90.24,139.103c1.373-0.177,2.77-0.347,4.184-0.511v-1.604H90.24V139.103z M161.371,195.564h4.185v-4.184h-4.185V195.564z
	 M106.978,137.334c1.38-0.117,2.775-0.229,4.184-0.336v-0.012h-4.184V137.334z M90.24,136.986v-4.184h-4.185v4.184H90.24z
	 M169.738,195.564h4.186v-4.184h-4.186V195.564z M98.609,136.986v-4.184h-4.185v4.184H98.609z M153.003,195.564h4.185v-4.184h-4.185
	V195.564z M106.978,136.986v-4.184h-4.185v4.184H106.978z M98.609,138.129c1.379-0.146,2.772-0.285,4.185-0.42v-0.723h-4.185
	V138.129z M219.949,175.527v3.303h4.185v-3.986C222.768,175.078,221.373,175.307,219.949,175.527z M282.713,178.83v-4.186h-4.184
	v4.186H282.713z M52.582,174.646v4.185h4.184v-4.185H52.582z M190.498,178.83h0.162v-0.014
	C190.607,178.82,190.553,178.826,190.498,178.83z M253.424,120.25h-4.184v4.185h4.184V120.25z M60.95,174.646v-3.381
	c-0.986-0.265-1.942-0.531-2.871-0.804h-1.313v4.185H60.95z M282.713,170.461v-4.186h-4.184v4.186H282.713z M282.713,187.196v-4.185
	h-4.184v4.185H282.713z M282.713,195.564v-4.184h-4.184v4.184H282.713z M194.845,178.482v0.348h4.185v-0.725
	C197.65,178.236,196.255,178.362,194.845,178.482z M44.214,174.646v4.185h4.184v-4.185H44.214z M261.791,120.25h-4.184v4.185h4.184
	V120.25z M282.713,136.986v-4.184h-4.184v4.184H282.713z M282.713,128.619v-4.186h-4.184v4.186H282.713z M44.214,166.275v-1.454
	c-1.446-0.887-2.622-1.798-3.508-2.729h-0.677v4.185L44.214,166.275L44.214,166.275z M270.158,120.25h-4.184v4.185h4.184V120.25z
	 M282.713,162.092v-4.184h-4.184v4.184H282.713z M48.398,170.461v-3.467c-0.531-0.236-1.04-0.478-1.53-0.719h-2.653v4.186H48.398z
	 M35.846,174.646v4.185h4.184v-4.185H35.846z M282.713,153.724v-4.185h-4.184v4.185H282.713z M282.713,145.355v-4.184h-4.184v4.184
	H282.713z M52.582,174.646v-4.185h-4.185v4.185H52.582z M73.504,178.83v-4.186h-4.185v4.186H73.504z M65.135,178.83v-4.186H60.95
	v4.186H65.135z M236.688,120.25h-4.186v4.185h4.186V120.25z M35.846,162.092h-4.185v4.185h4.185V162.092z M219.949,195.564h4.185
	v-4.184h-4.185V195.564z M228.318,195.564h4.185v-4.184h-4.185V195.564z M211.583,195.564h4.183v-4.184h-4.183V195.564z
	 M173.924,136.024v-3.222h-4.186v3.064C171.143,135.916,172.537,135.967,173.924,136.024z M73.504,174.088v0.558h3.054
	C75.525,174.463,74.503,174.276,73.504,174.088z M69.319,173.248c-1.438-0.305-2.832-0.615-4.184-0.937v2.333h4.184V173.248z
	 M225.265,174.646h3.054v-0.558C227.318,174.276,226.298,174.463,225.265,174.646z M245.056,195.564h4.185v-4.184h-4.185V195.564z
	 M44.214,174.646v-4.185h-4.185v4.185H44.214z M35.846,170.461h-4.185v4.185h4.185V170.461z M253.424,195.564h4.184v-4.184h-4.184
	V195.564z M261.791,195.564h4.186v-4.184h-4.186V195.564z M203.213,177.688v1.142h4.186v-1.604
	C206.023,177.385,204.626,177.539,203.213,177.688z M245.056,120.25h-4.184v4.185h4.184V120.25z M236.688,195.564h4.186v-4.184
	h-4.186V195.564z M270.158,195.564h4.186v-4.184h-4.186V195.564z M211.583,176.713v2.117h4.183v-2.681
	C214.395,176.344,212.999,176.531,211.583,176.713z M40.029,170.461v-4.186h-4.184v4.186H40.029z M14.925,187.196v4.185h4.184
	v-4.185H14.925z M144.635,120.25h-4.185v4.185h4.185V120.25z M249.24,168.674c-1.313,0.475-2.709,0.938-4.186,1.392v0.396h4.186
	V168.674z M27.477,120.25h-4.184v4.185h4.184V120.25z M35.846,120.25h-4.185v4.185h4.185V120.25z M245.056,141.172v4.184h4.185
	v-4.184H245.056z M52.582,120.25h-4.185v4.185h4.185V120.25z M44.214,120.25h-4.185v4.185h4.185V120.25z M253.424,174.646v4.185
	h4.184v-4.185H253.424z M240.872,136.986v4.186h4.184v-4.186H240.872z M261.791,141.172v-4.186h-4.184v4.186H261.791z
	 M14.925,120.25v4.185h4.184v-4.185H14.925z M14.925,145.355v4.186h4.184v-4.186H14.925z M257.607,145.355v4.186h4.185v-4.186
	H257.607z M161.371,120.25h-4.184v4.185h4.184V120.25z M261.791,145.355h4.186v-4.184h-4.186V145.355z M14.925,153.724v4.185h4.184
	v-4.185H14.925z M153.003,120.25h-4.184v4.185h4.184V120.25z M245.056,174.646v4.185h4.185v-4.185H245.056z M14.925,136.986v4.186
	h4.184v-4.186H14.925z M14.925,128.619v4.184h4.184v-4.184H14.925z M253.424,141.172v4.184h4.184v-4.184H253.424z M253.424,141.172
	v-4.186h-4.184v4.186H253.424z M261.791,153.724h4.186v-4.185h-4.186V153.724z M94.424,120.25H90.24v4.185h4.184V120.25z
	 M249.24,147.144c1.508,0.546,2.904,1.104,4.184,1.679v-3.467h-4.184V147.144z M257.607,150.994v-1.455h-2.654
	C255.919,150.017,256.805,150.502,257.607,150.994z M86.056,120.25h-4.185v4.185h4.185V120.25z M119.529,120.25h-4.184v4.185h4.184
	V120.25z M263.085,157.908c0,1.158-0.44,2.295-1.294,3.406v0.777h4.186v-4.186L263.085,157.908L263.085,157.908z M261.791,170.461
	h4.186v-4.186h-4.186V170.461z M102.793,120.25h-4.184v4.185h4.185L102.793,120.25L102.793,120.25z M261.791,154.502v-0.778h-0.678
	C261.359,153.981,261.591,154.24,261.791,154.502z M232.502,136.986v4.186h4.186v-4.186H232.502z M245.056,145.75v-0.396h-1.317
	C244.186,145.485,244.623,145.617,245.056,145.75z M261.791,178.83h4.186v-4.186h-4.186V178.83z M69.319,120.25h-4.184v4.185h4.184
	V120.25z M60.95,120.25h-4.185v4.185h4.185V120.25z M136.266,120.25h-4.185v4.185h4.185V120.25z M224.134,136.986v3.986
	c0.38,0.064,0.754,0.132,1.13,0.197h3.055v-4.185L224.134,136.986L224.134,136.986z M127.898,120.25h-4.185v4.185h4.185V120.25z
	 M228.318,141.729c1.434,0.272,2.826,0.554,4.185,0.84v-1.397h-4.185V141.729z M236.688,143.504
	c1.443,0.342,2.844,0.689,4.186,1.049v-3.381h-4.186V143.504z M77.688,120.25h-4.184v4.185h4.184V120.25z M14.925,162.092v4.185
	h4.184v-4.185H14.925z M86.056,195.564h4.185v-4.184h-4.185V195.564z M257.607,166.275h-2.651c-0.49,0.241-1,0.48-1.531,0.719v3.467
	h4.185v-4.186H257.607z M194.845,120.25h-4.185v4.185h4.185V120.25z M199.027,137.709c1.412,0.135,2.807,0.273,4.186,0.42v-1.143
	h-4.186V137.709z M94.424,195.564h4.185v-4.184h-4.185V195.564z M257.607,174.646h4.185v-4.185h-4.185V174.646z M215.766,136.986
	v-4.184h-4.183v4.184H215.766z M207.398,138.592c1.414,0.164,2.812,0.334,4.186,0.512v-2.116h-4.186V138.592z M245.056,170.461
	h-1.313c-0.928,0.271-1.883,0.539-2.869,0.804v3.381h4.184L245.056,170.461L245.056,170.461z M77.688,195.564h4.184v-4.184h-4.184
	V195.564z M207.398,136.986v-4.184h-4.186v4.184H207.398z M119.529,195.564h4.184v-4.184h-4.184V195.564z M190.497,136.986h0.163
	v-4.184h-4.184v3.896C187.828,136.791,189.169,136.887,190.497,136.986z M127.898,195.564h4.184v-4.184h-4.184V195.564z
	 M102.793,195.564h4.185v-4.184h-4.185V195.564z M261.791,162.092h-0.676c-0.887,0.933-2.062,1.844-3.508,2.73v1.453h4.184V162.092z
	 M182.293,136.44v-3.638h-4.186v3.412C179.514,136.285,180.908,136.36,182.293,136.44z M199.027,136.986v-4.184h-4.184v4.184
	H199.027z M203.213,120.25h-4.186v4.185h4.186V120.25z M111.161,195.564h4.185v-4.184h-4.185V195.564z M190.66,136.998
	c1.408,0.106,2.805,0.219,4.185,0.336v-0.348h-4.185V136.998z M69.319,195.564h4.186v-4.184h-4.186V195.564z M27.477,195.564h4.185
	v-4.184h-4.185V195.564z M111.161,120.25h-4.184v4.185h4.184V120.25z M249.24,136.986v-4.184h-4.186v4.184H249.24z M253.424,174.646
	v-4.185h-4.184v4.185H253.424z M257.607,136.986v-4.184h-4.184v4.184H257.607z M19.109,195.564h4.185v-4.184h-4.185V195.564z
	 M14.925,178.83v4.184h4.184v-4.184H14.925z M265.977,136.986v-4.184h-4.186v4.184H265.977z M14.925,170.461v4.185h4.184v-4.185
	H14.925z M169.738,120.25h-4.184v4.185h4.184V120.25z M44.214,195.564h4.184v-4.184h-4.184V195.564z M278.529,120.25h-4.187v4.185
	h4.187V120.25z M186.477,120.25h-4.184v4.185h4.184V120.25z M52.582,195.564h4.184v-4.184h-4.184V195.564z M60.95,195.564h4.185
	v-4.184H60.95V195.564z M178.107,120.25h-4.184v4.185h4.184V120.25z M224.134,136.986v-4.184h-4.185v4.184H224.134z
	 M240.872,136.986v-4.184h-4.187v4.184H240.872z M232.502,136.986v-4.184h-4.184v4.184H232.502z M35.846,195.564h4.184v-4.184
	h-4.184V195.564z M215.766,139.666c1.42,0.201,2.814,0.408,4.186,0.623v-3.303h-4.186V139.666z M199.027,128.619v-4.186h-4.184
	v4.186H199.027z M224.134,128.619v-4.186h-4.185v4.186H224.134z M232.502,128.619v-4.186h-4.184v4.186H232.502z M249.24,128.619
	v-4.186h-4.186v4.186H249.24z M240.872,128.619v-4.186h-4.187v4.186H240.872z M215.766,128.619v-4.186h-4.183v4.186H215.766z
	 M207.398,128.619v-4.186h-4.186v4.186H207.398z M270.158,153.724h4.186v-4.185h-4.186V153.724z M270.158,145.355h4.186v-4.184
	h-4.186V145.355z M270.158,162.092h4.186v-4.184h-4.186V162.092z M270.158,136.986h4.186v-4.184h-4.186V136.986z M265.977,128.619
	v-4.186h-4.186v4.186H265.977z M274.344,128.619v-4.186h-4.186v4.186H274.344z M257.607,128.619v-4.186h-4.184v4.186H257.607z
	 M190.66,128.619v-4.186h-4.184v4.186H190.66z M106.978,128.619v-4.186h-4.185v4.186H106.978z M115.346,128.619v-4.186h-4.185v4.186
	H115.346z M123.713,128.619v-4.186h-4.184v4.186H123.713z M132.081,128.619v-4.186h-4.184v4.186H132.081z M98.609,128.619v-4.186
	h-4.185v4.186H98.609z M90.24,128.619v-4.186h-4.185v4.186H90.24z M182.293,128.619v-4.186h-4.186v4.186H182.293z M173.924,128.619
	v-4.186h-4.186v4.186H173.924z M165.556,128.619v-4.186h-4.185v4.186H165.556z M140.45,128.619v-4.186h-4.185v4.186H140.45z
	 M148.819,128.619v-4.186h-4.185v4.186H148.819z M157.188,128.619v-4.186h-4.185v4.186H157.188z M111.161,183.014v4.184h4.185
	v-4.184H111.161z M153.003,183.014v4.184h4.185v-4.184H153.003z M144.635,183.014v4.184h4.184v-4.184H144.635z M136.266,183.014
	v4.184h4.185v-4.184H136.266z M127.898,183.014v4.184h4.184v-4.184H127.898z M161.371,183.014v4.184h4.185v-4.184H161.371z
	 M169.738,183.014v4.184h4.186v-4.184H169.738z M119.529,183.014v4.184h4.184v-4.184H119.529z M86.056,183.014v4.184h4.185v-4.184
	H86.056z M94.424,183.014v4.184h4.185v-4.184H94.424z M81.871,128.619v-4.186h-4.184v4.186H81.871z M178.107,183.014v4.184h4.187
	v-4.184H178.107z M102.793,183.014v4.184h4.185v-4.184H102.793z M211.583,183.014v4.184h4.183v-4.184H211.583z M261.791,183.014
	v4.184h4.186v-4.184H261.791z M253.424,183.014v4.184h4.184v-4.184H253.424z M245.056,183.014v4.184h4.185v-4.184H245.056z
	 M270.158,178.83h4.186v-4.186h-4.186V178.83z M236.688,183.014v4.184h4.186v-4.184H236.688z M270.158,187.196h4.186v-4.185h-4.186
	V187.196z M219.949,183.014v4.184h4.185v-4.184H219.949z M203.213,183.014v4.184h4.186v-4.184H203.213z M194.845,183.014v4.184
	h4.185v-4.184H194.845z M228.318,183.014v4.184h4.185v-4.184H228.318z M270.158,170.461h4.186v-4.186h-4.186V170.461z
	 M186.477,183.014v4.184h4.186v-4.184H186.477z M23.293,157.908h-4.184v4.184h4.185L23.293,157.908L23.293,157.908z
	 M232.502,187.196v4.185h4.186v-4.185H232.502z M207.398,187.196v4.185h4.186v-4.185H207.398z M190.66,187.196v4.185h4.185v-4.185
	H190.66z M199.027,187.196v4.185h4.186v-4.185H199.027z M224.134,187.196v4.185h4.185v-4.185H224.134z M215.766,187.196v4.185h4.186
	v-4.185H215.766z M182.293,187.196v4.185h4.184v-4.185H182.293z M173.924,187.196v4.185h4.184v-4.185H173.924z M132.081,187.196
	v4.185h4.185v-4.185H132.081z M148.819,187.196v4.185h4.184v-4.185H148.819z M140.45,187.196v4.185h4.185v-4.185H140.45z
	 M165.556,187.196v4.185h4.185v-4.185H165.556z M157.188,187.196v4.185h4.185v-4.185H157.188z M249.24,187.196v4.185h4.184v-4.185
	H249.24z M274.344,149.539h4.186v-4.185h-4.186V149.539z M274.344,157.908h4.186v-4.186h-4.186V157.908z M274.344,166.275h4.186
	v-4.184h-4.186V166.275z M274.344,174.646h4.186v-4.185h-4.186V174.646z M274.344,128.619v4.184h4.186v-4.184H274.344z
	 M274.344,141.172h4.186v-4.186h-4.186V141.172z M274.344,191.381h4.186v-4.185h-4.186V191.381z M123.713,187.196v4.185h4.185
	v-4.185H123.713z M257.607,187.196v4.185h4.185v-4.185H257.607z M274.344,183.014h4.186v-4.184h-4.186V183.014z M265.977,187.196
	v4.185h4.184v-4.185H265.977z M240.872,187.196v4.185h4.184v-4.185H240.872z M56.766,187.196v4.185h4.185v-4.185H56.766z
	 M115.346,187.196v4.185h4.184v-4.185H115.346z M23.293,124.435h-4.184v4.185h4.185L23.293,124.435L23.293,124.435z M23.293,149.539
	h-4.184v4.185h4.185L23.293,149.539L23.293,149.539z M23.293,132.803h-4.184v4.185h4.185L23.293,132.803L23.293,132.803z
	 M77.688,183.014v4.184h4.184v-4.184H77.688z M23.293,166.275h-4.184v4.186h4.185L23.293,166.275L23.293,166.275z M40.029,128.619
	v-4.186h-4.184v4.186H40.029z M31.661,128.619v-4.186h-4.185v4.186H31.661z M56.766,128.619v-4.186h-4.184v4.186H56.766z
	 M65.135,128.619v-4.186H60.95v4.186H65.135z M48.398,128.619v-4.186h-4.184v4.186H48.398z M23.293,174.646h-4.184v4.185h4.185
	L23.293,174.646L23.293,174.646z M23.293,141.172h-4.184v4.184h4.185L23.293,141.172L23.293,141.172z M81.871,187.196v4.185h4.185
	v-4.185H81.871z M90.24,187.196v4.185h4.184v-4.185H90.24z M73.504,187.196v4.185h4.184v-4.185H73.504z M23.293,183.014h-4.184
	v4.184h4.185L23.293,183.014L23.293,183.014z M65.135,187.196v4.185h4.184v-4.185H65.135z M106.978,187.196v4.185h4.184v-4.185
	H106.978z M98.609,187.196v4.185h4.185v-4.185H98.609z M73.504,128.619v-4.186h-4.185v4.186H73.504z M23.293,187.196v4.185h4.184
	v-4.185H23.293z M31.661,187.196v4.185h4.185v-4.185H31.661z M48.398,187.196v4.185h4.185v-4.185H48.398z M40.029,187.196v4.185
	h4.185v-4.185H40.029z M27.477,170.461h-4.184v4.185h4.184V170.461z M90.24,176.713c-1.417-0.182-2.813-0.369-4.185-0.563v2.68
	h4.185V176.713z M98.609,177.688c-1.413-0.148-2.809-0.303-4.185-0.463v1.605h4.185V177.688z M90.24,178.83v4.184h4.184v-4.184
	H90.24z M98.609,178.83v4.184h4.185v-4.184H98.609z M106.978,178.482c-1.41-0.12-2.805-0.246-4.185-0.377v0.725h4.185V178.482z
	 M106.978,178.83v4.184h4.184v-4.184H106.978z M111.161,178.816v0.014h0.163C111.27,178.826,111.215,178.82,111.161,178.816z
	 M56.766,178.83v4.184h4.185v-4.184H56.766z M48.398,178.83v4.184h4.185v-4.184H48.398z M65.135,178.83v4.184h4.184v-4.184H65.135z
	 M81.871,178.83v4.184h4.185v-4.184H81.871z M81.871,175.527c-1.422-0.222-2.817-0.449-4.184-0.686v3.986h4.184V175.527z
	 M73.504,178.83v4.184h4.184v-4.184H73.504z M190.66,178.83v4.184h4.185v-4.184H190.66z M165.556,180.074v2.938h4.185v-3.064
	C168.354,179.994,166.959,180.037,165.556,180.074z M182.293,179.375v3.639h4.184v-3.898
	C185.094,179.207,183.699,179.293,182.293,179.375z M173.924,179.791v3.223h4.184v-3.413
	C176.723,179.668,175.328,179.732,173.924,179.791z M40.029,178.83v4.184h4.185v-4.184H40.029z M207.398,178.83v4.184h4.186v-4.184
	H207.398z M115.346,179.115v3.896h4.184v-3.637C118.123,179.293,116.729,179.207,115.346,179.115z M199.027,178.83v4.184h4.186
	v-4.184H199.027z M215.766,178.83v4.184h4.186v-4.184H215.766z M157.188,180.228v2.786h4.185v-2.848
	C159.984,180.19,158.589,180.213,157.188,180.228z M123.713,179.601v3.413h4.185v-3.223
	C126.492,179.732,125.099,179.668,123.713,179.601z M140.45,180.166v2.848h4.185v-2.786
	C143.233,180.213,141.838,180.19,140.45,180.166z M150.91,180.264c-0.698,0-1.396-0.004-2.091-0.006v2.756h4.184v-2.756
	C152.307,180.26,151.611,180.264,150.91,180.264z M132.081,179.947v3.064h4.185v-2.938
	C134.862,180.037,133.468,179.994,132.081,179.947z M35.846,145.355h-4.185v4.186h4.185V145.355z M40.029,149.539h4.185v-4.185
	h-4.185V149.539z M35.846,153.724h4.184v-4.185h-4.184V153.724z M65.135,136.986v4.186h4.184v-4.186H65.135z M52.582,145.355h4.184
	v-4.184h-4.184V145.355z M56.766,136.986v4.186h4.185v-4.186H56.766z M44.214,141.172v4.184h4.184v-4.184H44.214z M52.582,141.172
	v-4.186h-4.185v4.186H52.582z M31.661,157.908h4.185v-4.186h-4.185V157.908z M44.214,141.172v-4.186h-4.185v4.186H44.214z
	 M35.846,145.355h4.184v-4.184h-4.184V145.355z M35.846,136.986h-4.185v4.186h4.185V136.986z M31.661,141.172h-4.185v4.184h4.185
	V141.172z M73.504,141.172h3.055c0.375-0.066,0.749-0.133,1.129-0.198v-3.986h-4.184V141.172z M31.661,178.83v4.184h4.185v-4.184
	H31.661z M69.319,183.014v4.184h4.186v-4.184H69.319z M31.661,174.646h-4.185v4.185h4.185V174.646z M31.661,166.275h-4.185v4.186
	h4.185V166.275z M31.661,132.803h-4.185v4.185h4.185V132.803z M31.661,149.539h-4.185v4.185h4.185V149.539z M40.029,136.986v-4.184
	h-4.184v4.184H40.029z M73.504,136.986v-4.184h-4.185v4.184H73.504z M65.135,136.986v-4.184H60.95v4.184H65.135z M56.766,136.986
	v-4.184h-4.184v4.184H56.766z M48.398,136.986v-4.184h-4.184v4.184H48.398z M31.661,157.908h-4.185v4.184h4.185V157.908z
	 M69.319,132.803v-4.184h-4.184v4.184H69.319z M144.635,132.803v-4.184h-4.185v4.184H144.635z M60.95,132.803v-4.184h-4.185v4.184
	H60.95z M86.056,132.803v-4.184h-4.185v4.184H86.056z M44.214,132.803v-4.184h-4.185v4.184H44.214z M52.582,132.803v-4.184h-4.185
	v4.184H52.582z M136.266,132.803v-4.184h-4.185v4.184H136.266z M127.898,132.803v-4.184h-4.185v4.184H127.898z M35.846,132.803
	v-4.184h-4.185v4.184H35.846z M94.424,132.803v-4.184H90.24v4.184H94.424z M119.529,132.803v-4.184h-4.184v4.184H119.529z
	 M102.793,132.803v-4.184h-4.184v4.184H102.793z M111.161,132.803v-4.184h-4.184v4.184H111.161z M77.688,132.803v-4.184h-4.184
	v4.184H77.688z M44.214,183.014v4.184h4.184v-4.184H44.214z M35.846,183.014v4.184h4.184v-4.184H35.846z M27.477,183.014v4.184
	h4.185v-4.184H27.477z M60.95,183.014v4.184h4.185v-4.184H60.95z M27.477,178.83h-4.184v4.184h4.184V178.83z M27.477,128.619h-4.184
	v4.184h4.184V128.619z M52.582,183.014v4.184h4.184v-4.184H52.582z M27.477,145.355h-4.184v4.186h4.184V145.355z M27.477,136.986
	h-4.184v4.186h4.184V136.986z M27.477,162.092h-4.184v4.185h4.184V162.092z M27.477,153.724h-4.184v4.185h4.184V153.724z
	 M40.029,162.092v-0.778c-0.852-1.108-1.293-2.247-1.293-3.403v-0.002h-2.891v4.186h4.184V162.092z M265.977,157.908h4.184v-4.186
	h-4.184V157.908z M224.134,178.83v4.184h4.185v-4.184H224.134z M265.977,166.275h4.184v-4.184h-4.184V166.275z M265.977,149.539
	h4.184v-4.185h-4.184V149.539z M265.977,141.172h4.184v-4.186h-4.184V141.172z M265.977,174.646h4.184v-4.185h-4.184V174.646z
	 M270.158,132.803v-4.184h-4.184v4.184H270.158z M265.977,183.014h4.184v-4.184h-4.184V183.014z M232.502,178.83v4.184h4.186v-4.184
	H232.502z M153.003,132.803v-4.184h-4.184v4.184H153.003z M261.791,132.803v-4.184h-4.184v4.184H261.791z M249.24,178.83v4.184
	h4.184v-4.184H249.24z M257.607,178.83v4.184h4.185v-4.184H257.607z M240.872,178.83v4.184h4.184v-4.184H240.872z M203.213,132.803
	v-4.184h-4.186v4.184H203.213z M194.845,132.803v-4.184h-4.185v4.184H194.845z M178.107,132.803v-4.184h-4.184v4.184H178.107z
	 M186.477,132.803v-4.184h-4.184v4.184H186.477z M169.738,132.803v-4.184h-4.184v4.184H169.738z M161.371,132.803v-4.184h-4.184
	v4.184H161.371z M236.688,132.803v-4.184h-4.186v4.184H236.688z M245.056,132.803v-4.184h-4.184v4.184H245.056z M253.424,132.803
	v-4.184h-4.184v4.184H253.424z M228.318,132.803v-4.184h-4.185v4.184H228.318z M211.583,132.803v-4.184h-4.185v4.184H211.583z
	 M219.949,132.803v-4.184h-4.185v4.184H219.949z"/>
<path d="M248.011,156.916c0,0.201-0.149,0.41-0.26,0.471c-0.08,0.039-0.13,0.021-0.17-0.01c-0.062-0.051-0.16-0.11-0.302-0.11
	c-0.229,0-0.408,0.21-0.56,0.44c-0.09,0.129-0.09,0.199-0.05,0.239c0.029,0.021,0.09,0.021,0.16,0c0.148-0.03,0.279,0,0.42,0.06
	c0.359,0.17,0.488,0.66,0.488,1.091c0,0.97-0.85,1.63-1.698,1.63c-0.261,0-0.58-0.08-0.74-0.16c-0.149-0.08-0.239-0.09-0.36-0.09
	c-0.119,0-0.279,0.08-0.438,0.21c-0.149,0.12-0.32,0.261-0.57,0.261c-0.229,0-0.409-0.189-0.409-0.439
	c0-0.141,0.049-0.25,0.129-0.34s0.121-0.09,0.15-0.01c0.03,0.118,0.229,0.25,0.41,0.25c0.199,0,0.33-0.16,0.33-0.352
	c0-0.27-0.12-0.45-0.25-0.689c-0.25-0.42-0.439-0.771-0.439-1.271c0-0.72,0.6-1.39,1.34-1.399c0.25,0,0.459,0.039,0.641,0.119
	c0.22,0.109,0.29,0.262,0.318,0.37l0.08,0.351c0.03,0.09,0.062,0.141,0.09,0.141c0.052,0,0.08-0.04,0.121-0.12
	c0.08-0.16,0.26-0.47,0.479-0.72c0.2-0.23,0.39-0.4,0.67-0.4c0.24,0,0.42,0.221,0.42,0.471V156.916L248.011,156.916z"/>
<path d="M58.3,156.916c0,0.201-0.15,0.41-0.26,0.471c-0.08,0.039-0.13,0.021-0.17-0.01c-0.061-0.051-0.16-0.11-0.301-0.11
	c-0.229,0-0.409,0.21-0.56,0.44c-0.09,0.129-0.09,0.199-0.05,0.239c0.03,0.021,0.09,0.021,0.16,0c0.149-0.03,0.279,0,0.42,0.06
	c0.359,0.17,0.489,0.66,0.489,1.091c0,0.97-0.85,1.63-1.699,1.63c-0.261,0-0.58-0.08-0.74-0.16c-0.15-0.08-0.24-0.09-0.36-0.09
	c-0.12,0-0.279,0.08-0.439,0.21c-0.15,0.12-0.32,0.261-0.57,0.261c-0.229,0-0.41-0.189-0.41-0.439c0-0.141,0.05-0.25,0.13-0.34
	s0.12-0.09,0.15-0.01c0.03,0.118,0.229,0.25,0.41,0.25c0.2,0,0.33-0.16,0.33-0.352c0-0.27-0.12-0.45-0.25-0.689
	c-0.25-0.42-0.44-0.771-0.44-1.271c0-0.72,0.601-1.39,1.34-1.399c0.25,0,0.46,0.039,0.641,0.119c0.22,0.109,0.29,0.262,0.319,0.37
	l0.08,0.351c0.03,0.09,0.061,0.141,0.09,0.141c0.051,0,0.08-0.04,0.12-0.12c0.08-0.16,0.261-0.47,0.48-0.72
	c0.2-0.23,0.39-0.4,0.67-0.4c0.24,0,0.42,0.221,0.42,0.471V156.916z"/>
<path fill="#009226" d="M211.583,60.935v4.185h4.183v-4.185H211.583z M219.949,27.461v-4.185h-4.185v4.185H219.949z M132.081,81.855
	v4.184h4.185v-4.184H132.081z M140.45,81.855v4.184h4.185v-4.184H140.45z M228.318,60.935v4.185h4.185v-4.185H228.318z
	 M219.949,60.935v4.185h4.185v-4.185H219.949z M119.529,69.303v4.185h4.184v-4.185H119.529z M211.583,27.461v-4.185h-4.185v4.185
	H211.583z M106.978,81.855v4.184h4.184v-4.184H106.978z M257.607,40.014V35.83h-4.184v4.184H257.607z M249.24,40.014V35.83h-4.186
	v4.184H249.24z M240.872,40.014V35.83h-4.187v4.184H240.872z M203.213,60.935v4.185h4.186v-4.185H203.213z M98.609,81.855v4.184
	h4.185v-4.184H98.609z M190.66,73.487v4.184h4.185v-4.184H190.66z M123.713,81.855v4.184h4.185v-4.184H123.713z M236.688,60.935
	v4.185h4.186v-4.185H236.688z M245.056,60.935v4.185h4.185v-4.185H245.056z M253.424,48.382h4.184v-4.185h-4.184V48.382z
	 M199.027,73.487v4.184h4.186v-4.184H199.027z M115.346,81.855v4.184h4.184v-4.184H115.346z M253.424,56.75h4.184v-4.185h-4.184
	V56.75z M253.424,65.119h4.184v-4.185h-4.184V65.119z M194.845,44.197v-4.185h-4.185v4.185H194.845z M199.027,81.855v4.184h4.186
	v-4.184H199.027z M245.056,44.197v-4.185h-4.184v4.185H245.056z M253.424,44.197v-4.185h-4.184v4.185H253.424z M190.66,81.855v4.184
	h4.185v-4.184H190.66z M236.688,27.461v-4.185h-4.186v4.185H236.688z M228.318,44.197v-4.185h-4.185v4.185H228.318z M232.502,73.487
	v4.184h4.186v-4.184H232.502z M236.688,44.197v-4.185h-4.186v4.185H236.688z M215.766,81.855v4.184h4.186v-4.184H215.766z
	 M232.502,56.75v4.184h4.186V56.75H232.502z M240.872,56.75v4.184h4.184V56.75H240.872z M249.24,52.565h4.184v-4.184h-4.184V52.565z
	 M207.398,81.855v4.184h4.186v-4.184H207.398z M240.872,73.487v4.184h4.184v-4.184H240.872z M249.24,60.935h4.184V56.75h-4.184
	V60.935z M186.477,60.935v4.185h4.186v-4.185H186.477z M215.766,73.487v4.184h4.186v-4.184H215.766z M186.477,56.75h-4.184v4.184
	h4.184V56.75z M186.477,48.382h-4.184v4.184h4.184V48.382z M157.188,81.855v4.184h4.185v-4.184H157.188z M194.845,60.935v4.185
	h4.185v-4.185H194.845z M148.819,81.855v4.184h4.184v-4.184H148.819z M165.556,81.855v4.184h4.185v-4.184H165.556z M203.213,44.197
	v-4.185h-4.186v4.185H203.213z M211.583,44.197v-4.185h-4.185v4.185H211.583z M182.293,81.855v4.184h4.184v-4.184H182.293z
	 M224.134,73.487v4.184h4.185v-4.184H224.134z M232.502,40.014V35.83h-4.184v4.184H232.502z M219.949,44.197v-4.185h-4.185v4.185
	H219.949z M228.318,27.461v-4.185h-4.185v4.185H228.318z M186.477,40.014h-4.184v4.185h4.184V40.014z M173.924,81.855v4.184h4.184
	v-4.184H173.924z M140.45,71.776c-1.497-0.653-2.894-1.486-4.185-2.455v4.166h4.185V71.776z M132.081,73.487v4.184h4.185v-4.184
	H132.081z M23.293,52.565h-4.184v4.185h4.185L23.293,52.565L23.293,52.565z M261.791,35.83v-4.185h-4.184v4.185H261.791z
	 M236.688,35.83v-4.185h-4.186v4.185H236.688z M245.056,35.83v-4.185h-4.184v4.185H245.056z M257.607,44.197h4.185v-4.185h-4.185
	V44.197z M23.293,44.197h-4.184v4.185h4.185L23.293,44.197L23.293,44.197z M253.424,35.83v-4.185h-4.184v4.185H253.424z
	 M144.635,73.105v0.382h3.439C146.902,73.446,145.75,73.332,144.635,73.105z M23.293,69.303h-4.184v4.185h4.185L23.293,69.303
	L23.293,69.303z M23.293,60.935h-4.184v4.185h4.185L23.293,60.935L23.293,60.935z M249.24,65.119v4.185h4.184v-4.185H249.24z
	 M257.607,69.303h4.185v-4.185h-4.185V69.303z M257.607,60.935h4.185V56.75h-4.185V60.935z M257.607,52.565h4.185v-4.184h-4.185
	V52.565z M140.45,73.487v4.184h4.185v-4.184H140.45z M178.107,35.83v-4.185h-4.184v4.185H178.107z M31.661,23.276v-4.185h-4.185
	v4.185H31.661z M228.318,35.83v-4.185h-4.185v4.185H228.318z M186.477,35.83v-4.185h-4.184v4.185H186.477z M23.293,19.092h-4.184
	v4.185h4.185L23.293,19.092L23.293,19.092z M23.293,77.671h-4.184v4.185h4.185L23.293,77.671L23.293,77.671z M169.738,44.197v4.185
	h4.186v-4.185H169.738z M115.346,73.487v4.184h4.184v-4.184H115.346z M173.924,35.83h-4.186v4.184h4.186V35.83z M194.845,35.83
	v-4.185h-4.185v4.185H194.845z M219.949,35.83v-4.185h-4.185v4.185H219.949z M186.477,27.461v-4.185h-4.184v4.185H186.477z
	 M23.293,35.83h-4.184v4.184h4.185L23.293,35.83L23.293,35.83z M123.713,73.487v4.184h4.185v-4.184H123.713z M203.213,35.83v-4.185
	h-4.186v4.185H203.213z M211.583,35.83v-4.185h-4.185v4.185H211.583z M23.293,27.461h-4.184v4.184h4.185L23.293,27.461
	L23.293,27.461z M48.398,81.855v4.184h4.185v-4.184H48.398z M173.924,40.014v4.185h4.184v-4.185H173.924z M56.766,81.855v4.184
	h4.185v-4.184H56.766z M182.293,40.014V35.83h-4.186v4.184H182.293z M65.135,81.855v4.184h4.184v-4.184H65.135z M182.293,52.565
	h-4.186v4.185h4.186V52.565z M182.293,44.197h-4.186v4.185h4.186V44.197z M73.504,81.855v4.184h4.184v-4.184H73.504z
	 M165.556,73.487v4.184h4.185v-4.184H165.556z M203.213,27.461v-4.185h-4.186v4.185H203.213z M215.766,40.014V35.83h-4.183v4.184
	H215.766z M90.24,81.855v4.184h4.184v-4.184H90.24z M207.398,40.014V35.83h-4.186v4.184H207.398z M224.134,40.014V35.83h-4.185
	v4.184H224.134z M199.027,40.014V35.83h-4.184v4.184H199.027z M240.872,65.119v4.185h4.184v-4.185H240.872z M190.66,40.014V35.83
	h-4.184v4.184H190.66z M81.871,81.855v4.184h4.185v-4.184H81.871z M173.924,73.487v4.184h4.184v-4.184H173.924z M215.766,65.119
	v4.185h4.186v-4.185H215.766z M31.661,81.855v4.184h4.185v-4.184H31.661z M207.398,65.119v4.185h4.186v-4.185H207.398z
	 M194.845,27.461v-4.185h-4.185v4.185H194.845z M149.564,73.487c-0.25,0.009-0.494,0.037-0.745,0.037v4.146h4.184v-4.184
	L149.564,73.487L149.564,73.487z M178.107,56.75h-4.184v4.184h4.184V56.75z M23.293,81.855v4.184h4.184v-4.184H23.293z
	 M224.134,65.119v4.185h4.185v-4.185H224.134z M232.502,65.119v4.185h4.186v-4.185H232.502z M182.293,73.487v4.184h4.184v-4.184
	H182.293z M182.293,65.119v4.185h4.184v-4.185H182.293z M173.924,65.119v4.185h4.184v-4.185H173.924z M199.027,65.119v4.185h4.186
	v-4.185H199.027z M40.029,81.855v4.184h4.185v-4.184H40.029z M157.188,73.487v4.184h4.185v-4.184H157.188z M190.66,65.119v4.185
	h4.185v-4.185H190.66z M207.398,48.382v-4.185h-4.186v4.185H207.398z M14.925,48.382v4.184h4.184v-4.184H14.925z M14.925,14.909
	v4.184h4.184v-4.184H14.925z M14.925,23.276v4.185h4.184v-4.185H14.925z M14.925,40.014v4.185h4.184v-4.185H14.925z M52.582,14.909
	h-4.185v4.184h4.185V14.909z M44.214,14.909h-4.185v4.184h4.185V14.909z M35.846,14.909h-4.185v4.184h4.185V14.909z M27.477,14.909
	h-4.184v4.184h4.184V14.909z M14.925,31.646v4.185h4.184v-4.185H14.925z M35.846,90.225h4.184V86.04h-4.184V90.225z M27.477,90.225
	h4.185V86.04h-4.185V90.225z M44.214,90.225h4.184V86.04h-4.184V90.225z M14.925,56.75v4.184h4.184V56.75H14.925z M19.109,90.225
	h4.185V86.04h-4.185V90.225z M14.925,65.119v4.185h4.184v-4.185H14.925z M14.925,73.487v4.184h4.184v-4.184H14.925z M14.925,81.855
	v4.184h4.184v-4.184H14.925z M69.319,14.909h-4.184v4.184h4.184V14.909z M224.134,56.75v4.184h4.185V56.75H224.134z M161.371,14.909
	h-4.184v4.184h4.184V14.909z M153.003,14.909h-4.184v4.184h4.184V14.909z M144.635,14.909h-4.185v4.184h4.185V14.909z
	 M169.738,14.909h-4.184v4.184h4.184V14.909z M194.845,14.909h-4.185v4.184h4.185V14.909z M186.477,14.909h-4.184v4.184h4.184
	V14.909z M178.107,14.909h-4.184v4.184h4.184V14.909z M119.529,14.909h-4.184v4.184h4.184V14.909z M77.688,14.909h-4.184v4.184
	h4.184V14.909z M86.056,14.909h-4.185v4.184h4.185V14.909z M52.582,90.225h4.184V86.04h-4.184V90.225z M94.424,14.909H90.24v4.184
	h4.184V14.909z M60.95,14.909h-4.185v4.184h4.185V14.909z M127.898,14.909h-4.185v4.184h4.185V14.909z M102.793,14.909h-4.184v4.184
	h4.185L102.793,14.909L102.793,14.909z M111.161,14.909h-4.184v4.184h4.184V14.909z M282.713,73.487v-4.185h-4.184v4.185H282.713z
	 M245.056,90.225h4.185V86.04h-4.185V90.225z M253.424,90.225h4.184V86.04h-4.184V90.225z M270.158,90.225h4.186V86.04h-4.186
	V90.225z M236.688,90.225h4.186V86.04h-4.186V90.225z M261.791,90.225h4.186V86.04h-4.186V90.225z M211.583,90.225h4.183V86.04
	h-4.183V90.225z M219.949,90.225h4.185V86.04h-4.185V90.225z M60.95,90.225h4.185V86.04H60.95V90.225z M282.713,90.225V86.04h-4.184
	v4.185H282.713z M282.713,48.382v-4.185h-4.184v4.185H282.713z M203.213,90.225h4.186V86.04h-4.186V90.225z M282.713,56.75v-4.185
	h-4.184v4.185H282.713z M282.713,31.646v-4.184h-4.184v4.184H282.713z M282.713,40.014V35.83h-4.184v4.184H282.713z M282.713,81.855
	V77.67h-4.184v4.185H282.713z M282.713,65.119v-4.185h-4.184v4.185H282.713z M203.213,14.909h-4.186v4.184h4.186V14.909z
	 M228.318,90.225h4.185V86.04h-4.185V90.225z M111.161,90.225h4.185V86.04h-4.185V90.225z M127.898,90.225h4.184V86.04h-4.184
	V90.225z M119.529,90.225h4.184V86.04h-4.184V90.225z M94.424,90.225h4.185V86.04h-4.185V90.225z M102.793,90.225h4.185V86.04
	h-4.185V90.225z M69.319,90.225h4.186V86.04h-4.186V90.225z M86.056,90.225h4.185V86.04h-4.185V90.225z M77.688,90.225h4.184V86.04
	h-4.184V90.225z M153.003,90.225h4.185V86.04h-4.185V90.225z M169.738,90.225h4.186V86.04h-4.186V90.225z M178.107,90.225h4.187
	V86.04h-4.187V90.225z M136.266,90.225h4.185V86.04h-4.185V90.225z M186.477,90.225h4.186V86.04h-4.186V90.225z M144.635,90.225
	h4.184V86.04h-4.185L144.635,90.225L144.635,90.225z M194.845,90.225h4.185V86.04h-4.185V90.225z M161.371,90.225h4.185V86.04
	h-4.185V90.225z M136.266,14.909h-4.185v4.184h4.185V14.909z M253.424,27.461v-4.185h-4.184v4.185H253.424z M240.872,48.382v-4.185
	h-4.187v4.185H240.872z M274.344,86.04h4.186v-4.184h-4.186V86.04z M249.24,48.382v-4.185h-4.186v4.185H249.24z M224.134,48.382
	v-4.185h-4.185v4.185H224.134z M265.977,69.303h4.184v-4.185h-4.184V69.303z M232.502,48.382v-4.185h-4.184v4.185H232.502z
	 M265.977,77.671h4.184v-4.184h-4.184V77.671z M265.977,81.855v4.184h4.184v-4.184H265.977z M265.977,60.935h4.184V56.75h-4.184
	V60.935z M274.344,69.303h4.186v-4.185h-4.186V69.303z M219.949,52.565v4.185h4.185v-4.185H219.949z M245.056,56.75h4.185v-4.185
	h-4.185V56.75z M211.583,52.565v4.185h4.183v-4.185H211.583z M274.344,60.935h4.186V56.75h-4.186V60.935z M274.344,77.671h4.186
	v-4.184h-4.186V77.671z M236.688,52.565v4.185h4.186v-4.185H236.688z M228.318,52.565v4.185h4.185v-4.185H228.318z M232.502,81.855
	v4.184h4.186v-4.184H232.502z M207.398,56.75v4.184h4.186V56.75H207.398z M199.027,56.75v4.184h4.186V56.75H199.027z
	 M245.056,27.461v-4.185h-4.184v4.185H245.056z M190.66,56.75v4.184h4.185V56.75H190.66z M224.134,81.855v4.184h4.185v-4.184
	H224.134z M215.766,56.75v4.184h4.186V56.75H215.766z M249.24,73.487v4.184h4.184v-4.184H249.24z M240.872,81.855v4.184h4.184
	v-4.184H240.872z M199.027,48.382v-4.185h-4.184v4.185H199.027z M40.029,23.276v-4.185h-4.184v4.185H40.029z M215.766,48.382v-4.185
	h-4.183v4.185H215.766z M249.24,81.855v4.184h4.184v-4.184H249.24z M257.607,81.855v4.184h4.185v-4.184H257.607z M190.66,52.565
	h-4.184v4.185h4.184V52.565z M190.66,44.197h-4.184v4.185h4.184V44.197z M257.607,73.487v4.184h4.185v-4.184H257.607z
	 M274.344,23.276v4.185h4.186v-4.185H274.344z M169.357,56.75c-0.295,1.456-0.746,2.854-1.326,4.184h1.709V56.75H169.357z
	 M161.396,69.303c-0.008,0.006-0.017,0.013-0.024,0.019v4.166h4.185v-4.185H161.396z M282.713,23.276v-4.185h-4.184v4.185H282.713z
	 M203.213,52.565v4.185h4.186v-4.185H203.213z M153.003,73.105v0.383h4.185v-1.711C155.857,72.356,154.46,72.811,153.003,73.105z
	 M165.556,39.987V35.83h-4.159C162.972,37.016,164.369,38.414,165.556,39.987z M169.738,51.802v-3.42h-0.381
	C169.583,49.491,169.697,50.637,169.738,51.802z M165.574,40.014c0.969,1.291,1.802,2.687,2.455,4.185h1.709v-4.185H165.574z
	 M236.688,14.909h-4.186v4.184h4.186V14.909z M228.318,14.909h-4.185v4.184h4.185V14.909z M245.056,14.909h-4.184v4.184h4.184
	V14.909z M278.529,14.909h-4.187v4.184h4.187V14.909z M219.949,14.909h-4.185v4.184h4.185V14.909z M165.556,31.646v4.185h4.185
	v-4.185H165.556z M270.158,14.909h-4.184v4.184h4.184V14.909z M261.791,14.909h-4.184v4.184h4.184V14.909z M253.424,14.909h-4.184
	v4.184h4.184V14.909z M270.158,27.461v-4.185h-4.184v4.185H270.158z M203.213,52.565v-4.184h-4.186v4.184H203.213z M211.583,52.565
	v-4.184h-4.185v4.184H211.583z M274.344,44.197h4.186v-4.185h-4.186V44.197z M194.845,48.382h-4.185v4.184h4.185V48.382z
	 M265.977,52.565h4.184v-4.184h-4.184V52.565z M261.791,27.461v-4.185h-4.184v4.185H261.791z M274.344,52.565h4.186v-4.184h-4.186
	V52.565z M194.845,52.565v4.185h4.185v-4.185H194.845z M245.056,52.565v-4.184h-4.184v4.184H245.056z M236.688,52.565v-4.184h-4.186
	v4.184H236.688z M211.583,14.909h-4.185v4.184h4.185V14.909z M178.107,60.935v4.185h4.187v-4.185H178.107z M265.977,44.197h4.184
	v-4.185h-4.184V44.197z M219.949,52.565v-4.184h-4.185v4.184H219.949z M274.344,35.83h4.186v-4.185h-4.186V35.83z M228.318,52.565
	v-4.184h-4.185v4.184H228.318z M207.398,73.487v4.184h4.186v-4.184H207.398z M169.738,77.671v4.185h4.186v-4.185H169.738z
	 M81.871,40.014V35.83h-4.184v4.184H81.871z M90.24,31.646v-4.184h-4.185v4.184H90.24z M178.107,77.671v4.185h4.187v-4.185H178.107z
	 M90.24,40.014V35.83h-4.185v4.184H90.24z M56.766,40.014V35.83h-4.184v4.184H56.766z M161.371,77.671v4.185h4.185v-4.185H161.371z
	 M65.135,40.014V35.83H60.95v4.184H65.135z M73.504,40.014V35.83h-4.185v4.184H73.504z M115.346,40.014V35.83h-4.185v4.184H115.346z
	 M81.871,31.646v-4.184h-4.184v4.184H81.871z M115.346,44.197h4.184v-4.185h-4.184V44.197z M94.424,44.197v-4.185H90.24v4.185
	H94.424z M111.161,48.382h4.185v-4.185h-4.185V48.382z M186.477,77.671v4.185h4.186v-4.185H186.477z M86.056,27.461v-4.185h-4.185
	v4.185H86.056z M98.609,40.014V35.83h-4.185v4.184H98.609z M65.135,65.119v4.185h4.184v-4.185H65.135z M48.398,65.119v4.185h4.185
	v-4.185H48.398z M40.029,65.119v4.185h4.185v-4.185H40.029z M136.266,77.671v4.185h4.185v-4.185H136.266z M40.029,60.935h-4.184
	v4.185h4.184V60.935z M106.978,31.646v-4.184h-4.185v4.184H106.978z M115.346,31.646v-4.184h-4.185v4.184H115.346z M56.766,65.119
	v4.185h4.185v-4.185H56.766z M127.898,77.671v4.185h4.184v-4.185H127.898z M40.029,44.197h-4.184v4.185h4.184V44.197z
	 M153.003,77.671v4.185h4.185v-4.185H153.003z M40.029,35.83h-4.184v4.184h4.184V35.83z M48.398,40.014V35.83h-4.184v4.184H48.398z
	 M77.688,27.461v-4.185h-4.184v4.185H77.688z M144.635,77.671v4.185h4.184v-4.185H144.635z M98.609,31.646v-4.184h-4.185v4.184
	H98.609z M40.029,52.565h-4.184v4.185h4.184V52.565z M106.978,40.014V35.83h-4.185v4.184H106.978z M44.214,48.382h-4.185v4.184
	h4.185V48.382z M44.214,60.935v4.185h4.184v-4.185H44.214z M102.793,27.461v-4.185h-4.184v4.185H102.793z M253.424,77.671v4.185
	h4.184v-4.185H253.424z M52.582,44.197v-4.185h-4.185v4.185H52.582z M56.766,31.646v-4.184h-4.184v4.184H56.766z M44.214,56.75
	h-4.185v4.184h4.185V56.75z M245.056,77.671v4.185h4.185v-4.185H245.056z M44.214,40.014h-4.185v4.185h4.185V40.014z
	 M270.158,81.855h4.186V77.67h-4.186V81.855z M86.056,44.197v-4.185h-4.185v4.185H86.056z M77.688,44.197v-4.185h-4.184v4.185
	H77.688z M48.398,31.646v-4.184h-4.184v4.184H48.398z M40.029,31.646v-4.184h-4.184v4.184H40.029z M69.319,44.197v-4.185h-4.184
	v4.185H69.319z M60.95,44.197v-4.185h-4.185v4.185H60.95z M261.791,77.671v4.185h4.186v-4.185H261.791z M73.504,31.646v-4.184
	h-4.185v4.184H73.504z M94.424,60.935v4.185h4.185v-4.185H94.424z M102.793,60.935v4.185h4.185v-4.185H102.793z M211.583,77.671
	v4.185h4.183v-4.185H211.583z M94.424,27.461v-4.185H90.24v4.185H94.424z M86.056,60.935v4.185h4.185v-4.185H86.056z
	 M236.688,77.671v4.185h4.186v-4.185H236.688z M111.161,56.75h4.185v-4.185h-4.185V56.75z M111.161,65.119h4.185v-4.185h-4.185
	V65.119z M203.213,77.671v4.185h4.186v-4.185H203.213z M60.95,60.935v4.185h4.185v-4.185H60.95z M228.318,77.671v4.185h4.185v-4.185
	H228.318z M219.949,77.671v4.185h4.185v-4.185H219.949z M52.582,60.935v4.185h4.184v-4.185H52.582z M69.319,60.935v4.185h4.186
	v-4.185H69.319z M77.688,60.935v4.185h4.184v-4.185H77.688z M65.135,31.646v-4.184H60.95v4.184H65.135z M194.845,77.671v4.185h4.185
	v-4.185H194.845z M35.846,56.75h-4.185v4.184h4.185V56.75z M44.214,27.461v-4.185h-4.185v4.185H44.214z M35.846,48.382h-4.185v4.184
	h4.185V48.382z M27.477,73.487h-4.184v4.184h4.184V73.487z M35.846,65.119h-4.185v4.185h4.185V65.119z M119.529,56.75h4.184v-4.185
	h-4.184V56.75z M60.95,35.83v-4.185h-4.185v4.185H60.95z M35.846,69.303v4.185h4.184v-4.185H35.846z M35.846,40.014h-4.185v4.185
	h4.185V40.014z M35.846,77.671v4.185h4.184v-4.185H35.846z M52.582,35.83v-4.185h-4.185v4.185H52.582z M123.713,44.197h4.185v-4.185
	h-4.185V44.197z M44.214,35.83v-4.185h-4.185v4.185H44.214z M35.846,31.646h-4.185v4.185h4.185V31.646z M123.713,52.565h4.146
	c0-0.255,0.029-0.502,0.038-0.754v-3.43h-4.185L123.713,52.565L123.713,52.565z M44.214,69.303v4.185h4.184v-4.185H44.214z
	 M27.477,77.671v4.185h4.185v-4.185H27.477z M27.477,65.119h-4.184v4.185h4.184V65.119z M27.477,56.75h-4.184v4.184h4.184V56.75z
	 M102.793,69.303v4.185h4.185v-4.185H102.793z M94.424,69.303v4.185h4.185v-4.185H94.424z M35.846,27.461v-4.185h-4.185v4.185
	H35.846z M111.161,69.303v4.185h4.185v-4.185H111.161z M123.713,69.303h4.185v-4.185h-4.185V69.303z M27.477,23.276h-4.184v4.185
	h4.184V23.276z M86.056,69.303v4.185h4.185v-4.185H86.056z M27.477,31.646h-4.184v4.185h4.184V31.646z M178.107,48.382h-4.184v4.184
	h4.184V48.382z M60.95,69.303v4.185h4.185v-4.185H60.95z M52.582,69.303v4.185h4.184v-4.185H52.582z M127.898,60.935V56.75h-4.185
	v4.184H127.898z M69.319,69.303v4.185h4.186v-4.185H69.319z M77.688,69.303v4.185h4.184v-4.185H77.688z M27.477,40.014h-4.184v4.185
	h4.184V40.014z M132.081,31.646v-4.184h-4.184v4.184H132.081z M119.529,77.671v4.185h4.184v-4.185H119.529z M123.713,65.119v-4.185
	h-4.184v4.185H123.713z M106.978,65.119v4.185h4.184v-4.185H106.978z M44.214,77.671v4.185h4.184v-4.185H44.214z M94.424,77.671
	v4.185h4.185v-4.185H94.424z M115.346,52.565h4.184v-4.184h-4.184V52.565z M60.95,27.461v-4.185h-4.185v4.185H60.95z
	 M115.346,60.935h4.184V56.75h-4.184V60.935z M86.056,77.671v4.185h4.185v-4.185H86.056z M111.161,77.671v4.185h4.185v-4.185
	H111.161z M81.871,65.119v4.185h4.185v-4.185H81.871z M69.319,27.461v-4.185h-4.184v4.185H69.319z M73.504,65.119v4.185h4.184
	v-4.185H73.504z M102.793,77.671v4.185h4.185v-4.185H102.793z M98.609,65.119v4.185h4.185v-4.185H98.609z M90.24,65.119v4.185h4.184
	v-4.185H90.24z M123.713,31.646v-4.184h-4.184v4.184H123.713z M115.346,65.119v4.185h4.184v-4.185H115.346z M127.898,40.014h4.166
	c0.006-0.008,0.012-0.017,0.018-0.024v-4.16h-4.184V40.014z M52.582,77.671v4.185h4.184v-4.185H52.582z M60.95,77.671v4.185h4.185
	v-4.185H60.95z M119.529,48.382h4.184v-4.185h-4.184V48.382z M86.056,35.83v-4.185h-4.185v4.185H86.056z M69.319,35.83v-4.185
	h-4.184v4.185H69.319z M52.582,27.461v-4.185h-4.185v4.185H52.582z M77.688,35.83v-4.185h-4.184v4.185H77.688z M94.424,35.83v-4.185
	H90.24v4.185H94.424z M119.529,40.014h4.184V35.83h-4.184V40.014z M77.688,77.671v4.185h4.184v-4.185H77.688z M102.793,35.83v-4.185
	h-4.184v4.185H102.793z M132.081,35.83h4.159c0.009-0.007,0.018-0.013,0.025-0.02v-4.165h-4.185v4.185H132.081z M111.161,35.83
	v-4.185h-4.184v4.185H111.161z M69.319,77.671v4.185h4.186v-4.185H69.319z M119.529,35.83v-4.185h-4.184v4.185H119.529z
	 M27.477,48.382h-4.184v4.184h4.184V48.382z M224.134,31.646v-4.184h-4.185v4.184H224.134z M148.819,23.276v-4.185h-4.185v4.185
	H148.819z M65.135,73.487v4.184h4.184v-4.184H65.135z M232.502,31.646v-4.184h-4.184v4.184H232.502z M207.398,31.646v-4.184h-4.186
	v4.184H207.398z M215.766,31.646v-4.184h-4.183v4.184H215.766z M140.45,23.276v-4.185h-4.185v4.185H140.45z M128.279,48.382
	c0.295-1.457,0.748-2.854,1.329-4.185h-1.711v4.185H128.279z M240.872,31.646v-4.184h-4.187v4.184H240.872z M157.188,23.276v-4.185
	h-4.185v4.185H157.188z M161.371,27.461v-4.185h-4.184v4.185H161.371z M261.791,40.014h4.186V35.83h-4.186V40.014z M73.504,73.487
	v4.184h4.184v-4.184H73.504z M265.977,31.646v-4.184h-4.186v4.184H265.977z M249.24,31.646v-4.184h-4.186v4.184H249.24z
	 M132.081,23.276v-4.185h-4.184v4.185H132.081z M257.607,31.646v-4.184h-4.184v4.184H257.607z M123.713,23.276v-4.185h-4.184v4.185
	H123.713z M148.074,31.646c0.249-0.009,0.493-0.038,0.744-0.038h0.001v-4.146h-4.185v4.184H148.074z M157.188,31.646v-4.184h-4.185
	v4.184H157.188z M153.003,32.026v-0.382h-3.438C150.736,31.687,151.888,31.801,153.003,32.026z M48.398,73.487v4.184h4.185v-4.184
	H48.398z M140.45,33.355c1.33-0.581,2.728-1.034,4.185-1.329v-0.382h-4.185V33.355z M140.45,31.646v-4.184h-4.185v4.184H140.45z
	 M182.293,23.276v-4.185h-4.186v4.185H182.293z M157.188,33.355c1.498,0.653,2.895,1.486,4.185,2.455v-4.165h-4.185V33.355z
	 M173.924,23.276v-4.185h-4.186v4.185H173.924z M190.66,31.646v-4.184h-4.184v4.184H190.66z M165.556,23.276v-4.185h-4.185v4.185
	H165.556z M56.766,73.487v4.184h4.185v-4.184H56.766z M173.924,31.646v-4.184h-4.186v4.184H173.924z M199.027,31.646v-4.184h-4.184
	v4.184H199.027z M165.556,31.646v-4.184h-4.185v4.184H165.556z M182.293,31.646v-4.184h-4.186v4.184H182.293z M153.003,27.461
	v-4.185h-4.184v4.185H153.003z M178.107,69.303v4.185h4.187v-4.185H178.107z M98.609,73.487v4.184h4.185v-4.184H98.609z
	 M65.135,23.276v-4.185H60.95v4.185H65.135z M194.845,69.303v4.185h4.185v-4.185H194.845z M186.477,69.303v4.185h4.186v-4.185
	H186.477z M73.504,23.276v-4.185h-4.185v4.185H73.504z M169.738,27.461v-4.185h-4.184v4.185H169.738z M203.213,69.303v4.185h4.186
	v-4.185H203.213z M261.791,48.382h4.186v-4.185h-4.186V48.382z M48.398,23.276v-4.185h-4.184v4.185H48.398z M169.738,69.303v4.185
	h4.186v-4.185H169.738z M173.924,52.565h-4.146l0,0c0,0.258-0.028,0.509-0.037,0.765v3.42h4.185L173.924,52.565L173.924,52.565z
	 M211.583,69.303v4.185h4.183v-4.185H211.583z M173.924,60.935h-4.186v4.185h4.186V60.935z M56.766,23.276v-4.185h-4.184v4.185
	H56.766z M169.738,65.119h-4.164c-0.006,0.009-0.014,0.018-0.02,0.025v4.159h4.184V65.119z M106.978,73.487v4.184h4.184v-4.184
	H106.978z M178.107,27.461v-4.185h-4.184v4.185H178.107z M261.791,73.487h4.186v-4.185h-4.186V73.487z M106.978,23.276v-4.185
	h-4.185v4.185H106.978z M261.791,65.119h4.186v-4.185h-4.186V65.119z M81.871,73.487v4.184h4.185v-4.184H81.871z M253.424,69.303
	v4.185h4.184v-4.185H253.424z M115.346,23.276v-4.185h-4.185v4.185H115.346z M261.791,56.75h4.186v-4.185h-4.186V56.75z
	 M265.977,35.83h4.184v-4.185h-4.184V35.83z M228.318,69.303v4.185h4.185v-4.185H228.318z M90.24,73.487v4.184h4.184v-4.184H90.24z
	 M81.871,23.276v-4.185h-4.184v4.185H81.871z M219.949,69.303v4.185h4.185v-4.185H219.949z M236.688,69.303v4.185h4.186v-4.185
	H236.688z M245.056,69.303v4.185h4.185v-4.185H245.056z M98.609,23.276v-4.185h-4.185v4.185H98.609z M90.24,23.276v-4.185h-4.185
	v4.185H90.24z M73.504,48.382v-4.185h-4.185v4.185H73.504z M48.398,52.565h-4.184v4.185h4.184V52.565z M274.344,23.276v-4.185
	h-4.186v4.185H274.344z M127.898,53.32v3.43h0.382C128.054,55.639,127.94,54.488,127.898,53.32z M48.398,44.197h-4.184v4.185h4.184
	V44.197z M48.398,56.75v4.184h4.185V56.75H48.398z M56.766,56.75v4.184h4.185V56.75H56.766z M56.766,48.382v-4.185h-4.184v4.185
	H56.766z M270.158,31.646h4.186v-4.184h-4.186V31.646z M31.661,44.197h-4.185v4.185h4.185V44.197z M127.898,27.461v-4.185h-4.185
	v4.185H127.898z M81.871,48.382v-4.185h-4.184v4.185H81.871z M257.607,23.276v-4.185h-4.184v4.185H257.607z M90.24,48.382v-4.185
	h-4.185v4.185H90.24z M65.135,48.382v-4.185H60.95v4.185H65.135z M265.977,23.276v-4.185h-4.186v4.185H265.977z M270.158,73.487
	h4.186v-4.185h-4.186V73.487z M249.24,23.276v-4.185h-4.186v4.185H249.24z M31.661,52.565h-4.185v4.185h4.185V52.565z M65.135,56.75
	v4.184h4.184V56.75H65.135z M106.978,52.565h4.184v-4.184h-4.184V52.565z M270.158,56.75h4.186v-4.185h-4.186V56.75z
	 M106.978,60.935h4.184V56.75h-4.184V60.935z M31.661,27.461h-4.185v4.184h4.185V27.461z M102.793,44.197v-4.185h-4.184v4.185
	H102.793z M111.161,44.197v-4.185h-4.184v4.185H111.161z M111.161,27.461v-4.185h-4.184v4.185H111.161z M270.158,65.119h4.186
	v-4.185h-4.186V65.119z M73.504,56.75v4.184h4.184V56.75H73.504z M270.158,40.014h4.186V35.83h-4.186V40.014z M31.661,35.83h-4.185
	v4.184h4.185V35.83z M98.609,56.75v4.184h4.185V56.75H98.609z M81.871,56.75v4.184h4.185V56.75H81.871z M90.24,56.75v4.184h4.184
	V56.75H90.24z M270.158,48.382h4.186v-4.185h-4.186V48.382z M119.529,27.461v-4.185h-4.184v4.185H119.529z M86.056,52.565v-4.184
	h-4.185v4.184H86.056z M31.661,73.487v4.184h4.185v-4.184H31.661z M77.688,52.565v-4.184h-4.184v4.184H77.688z M40.029,73.487v4.184
	h4.185v-4.184H40.029z M98.609,48.382v-4.185h-4.185v4.185H98.609z M60.95,52.565v-4.184h-4.185v4.184H60.95z M52.582,48.382h-4.185
	v4.184h4.185V48.382z M207.398,23.276v-4.185h-4.186v4.185H207.398z M199.027,23.276v-4.185h-4.184v4.185H199.027z M132.081,73.487
	v-4.185h-4.184v4.185H132.081z M132.081,65.144v4.16h4.159C134.665,68.118,133.267,66.718,132.081,65.144z M127.898,35.83v-4.185
	h-4.185v4.185H127.898z M132.063,65.119c-0.969-1.291-1.802-2.688-2.455-4.185h-1.71v4.185H132.063z M190.66,23.276v-4.185h-4.184
	v4.185H190.66z M102.793,52.565v-4.184h-4.184v4.184H102.793z M94.424,52.565v-4.184H90.24v4.184H94.424z M144.635,27.461v-4.185
	h-4.185v4.185H144.635z M69.319,52.565v-4.184h-4.184v4.184H69.319z M94.424,52.565v4.185h4.185v-4.185H94.424z M102.793,56.75
	h4.185v-4.185h-4.185V56.75z M232.502,23.276v-4.185h-4.184v4.185H232.502z M240.872,23.276v-4.185h-4.187v4.185H240.872z
	 M86.056,52.565v4.185h4.185v-4.185H86.056z M31.661,60.935h-4.185v4.185h4.185V60.935z M106.978,48.382v-4.185h-4.185v4.185
	H106.978z M215.766,23.276v-4.185h-4.183v4.185H215.766z M60.95,52.565v4.185h4.185v-4.185H60.95z M52.582,52.565v4.185h4.184
	v-4.185H52.582z M136.266,27.461v-4.185h-4.185v4.185H136.266z M31.661,69.303h-4.185v4.185h4.185V69.303z M77.688,52.565v4.185
	h4.184v-4.185H77.688z M224.134,23.276v-4.185h-4.185v4.185H224.134z M69.319,52.565v4.185h4.186v-4.185H69.319z"/>
<path d="M152.046,50.016c0,0.287-0.218,0.59-0.374,0.675c-0.113,0.058-0.188,0.029-0.244-0.014
	c-0.087-0.071-0.229-0.159-0.432-0.159c-0.33,0-0.59,0.302-0.805,0.634c-0.129,0.187-0.129,0.287-0.072,0.345
	c0.044,0.028,0.13,0.028,0.229,0c0.216-0.043,0.401,0,0.604,0.086c0.517,0.244,0.703,0.949,0.703,1.566
	c0,1.395-1.221,2.343-2.442,2.343c-0.374,0-0.833-0.114-1.063-0.229c-0.217-0.115-0.346-0.13-0.519-0.13
	c-0.172,0-0.401,0.115-0.632,0.303c-0.216,0.172-0.46,0.374-0.819,0.374c-0.33,0-0.59-0.273-0.59-0.633
	c0-0.201,0.072-0.359,0.187-0.488c0.115-0.129,0.173-0.129,0.217-0.015c0.043,0.172,0.33,0.359,0.59,0.359
	c0.287,0,0.474-0.229,0.474-0.504c0-0.387-0.172-0.646-0.359-0.991c-0.359-0.604-0.633-1.107-0.633-1.826
	c0-1.034,0.863-1.997,1.926-2.012c0.359,0,0.661,0.057,0.921,0.172c0.316,0.158,0.417,0.375,0.459,0.532l0.115,0.504
	c0.043,0.129,0.086,0.2,0.129,0.2c0.072,0,0.115-0.058,0.173-0.173c0.114-0.229,0.375-0.675,0.69-1.034
	c0.287-0.331,0.561-0.575,0.963-0.575c0.346,0,0.604,0.316,0.604,0.676v0.014H152.046z"/>
</svg>
