<?xml version="1.0" encoding="utf-8"?>
<!-- Generator: Adobe Illustrator 12.0.0, SVG Export Plug-In  -->
<!DOCTYPE svg PUBLIC "-//W3C//DTD SVG 1.1//EN" "http://www.w3.org/Graphics/SVG/1.1/DTD/svg11.dtd" [
	<!ENTITY ns_flows "http://ns.adobe.com/Flows/1.0/">
	<!ENTITY ns_svg "http://www.w3.org/2000/svg">
	<!ENTITY ns_xlink "http://www.w3.org/1999/xlink">
]>
<svg  version="1.1" xmlns="&ns_svg;" xmlns:xlink="&ns_xlink;" xmlns:a="http://ns.adobe.com/AdobeSVGViewerExtensions/3.0/"
	 width="298" height="210" viewBox="0 13.5 298 210" enable-background="new 0 13.5 298 210" xml:space="preserve">
<defs>
</defs>
<rect fill="none" width="297.64" height="223.97"/>
<rect y="13.5" fill="#FFFFFF" width="297.64" height="210.47"/>
<rect y="118.74" fill="none" width="297.64" height="105.24"/>
<rect y="13.5" fill="none" width="297.64" height="105.24"/>
<g>
	<path fill="none" stroke="#000000" stroke-width="0.5" d="M15.52,118.49v80.57c0,5.48,4.48,9.97,9.97,9.97h246.69
		c5.48,0,9.97-4.48,9.97-9.97v-81.07"/>
</g>
<path d="M265.38,197.2l1.72-1.72l-1.72-1.7l-1.71,1.72l-1.73-1.73l1.73-1.73l1.71,1.72l1.72-1.73l-1.72-1.71l1.73-1.73l1.73,1.73
	l-1.71,1.71l1.71,1.73l1.72-1.72l1.73,1.73l-1.73,1.73l-1.72-1.72l-1.71,1.7l1.71,1.72l-1.73,1.73L265.38,197.2z"/>
<path fill="#0000FF" d="M167.5,104.47h3.75C170.23,103.61,168.56,103.54,167.5,104.47z"/>
<path fill="#0000FF" d="M166.89,100.45c-1.9,0.7-3,2.24-3.54,4.02h1.73c0.62-1.73,2.19-2.94,4.08-2.84c1.88,0.1,3.82,1.13,4.45,2.84
	h1.42c-0.09-0.41-0.22-0.8-0.42-1.16C173.17,100.7,169.7,99.4,166.89,100.45z"/>
<path fill="#0000FF" d="M191.63,104.47h2.85C193.58,104.14,192.57,104.16,191.63,104.47z"/>
<path fill="#0000FF" d="M206.85,101.86c-0.75-0.5-1.78-0.46-2.38,0.24c-0.39,0.45-0.42,0.93-0.35,1.48l0.11-0.01
	c0.24-0.88,0.95-1.86,1.98-1.26c0.84,0.5,1.1,1.44,0.63,2.14h1.1C208.2,103.49,207.75,102.47,206.85,101.86z"/>
<path fill="#0000FF" d="M85.02,103.45c-2.64-1.94-2.09-6.41,0.39-8.21c2.04-1.48,5.59-0.54,6.4,1.89c0.59,1.77-0.12,4.05-2.16,4.37
	c-1.08,0.17-2.44-0.12-2.97-1.18c-0.45-0.89-0.26-2.32,0.6-2.92c0.58-0.4,1.6-0.66,2.11,0.01c0.37,0.49,0.5,1.31-0.13,1.65
	c-0.34,0.19-0.68,0.07-1.01-0.08l-0.06,0.09c0.51,0.37,1.13,0.48,1.61-0.02c0.79-0.84,0.07-2.38-0.98-2.58
	c-2.71-0.52-4.06,3.14-2.36,4.94c1.17,1.25,3.38,1.38,4.81,0.54c1.97-1.16,2.33-3.95,1.4-5.88c-1.24-2.57-4.81-3.49-7.32-2.37
	c-3.61,1.61-4.71,7.03-2.27,10.07c0.2,0.25,0.43,0.48,0.67,0.69h2.8C85.92,104.18,85.41,103.84,85.02,103.45z"/>
<path fill="#0000FF" d="M94,52.33c0.64-0.8,0.95-1.8,0.28-2.7c-1.22-1.65-4.16-0.8-4.58,1.1c-0.39,1.76,0.95,3.48,2.49,4.16
	c0.82,0.36,1.69,0.49,2.57,0.48c1.27-0.02,2.42-0.33,3.69,0.04c1.26,0.37,2.44,1.04,3.39,1.95l1.13,1.38
	c-1.33-0.34-2.76-0.42-4.1-0.28c-2.76,0.3-5.53,2.99-5.41,5.89c0.11,2.59,1.68,5.11,4.37,5.5c2.51,0.37,5.23-1.24,5.17-3.98
	c-0.03-1.5-0.84-3.11-2.35-3.55c-1.31-0.38-3.06,0.24-3.63,1.54c-0.41,0.93-0.35,2.32,0.69,2.81c0.76,0.36,1.91,0.22,2.13-0.73
	c0.11-0.48-0.11-0.83-0.44-1.15l-0.08,0.07c0.32,0.53,0.4,1.31-0.35,1.52c-0.52,0.14-1.2-0.11-1.45-0.59
	c-0.55-1.07,0.31-2.24,1.31-2.6c0.81-0.29,1.77-0.19,2.37,0.46c1.2,1.28,1.02,3.54-0.47,4.49c-1.25,0.8-3.08,0.76-4.26-0.16
	c-1.31-1.02-2.12-3.41-1.32-4.98c0.62-1.22,1.74-2.52,3.13-2.85c1.25-0.3,2.72-0.16,3.96,0.15c1.25,0.31,2.11,0.83,3.18,1.5
	c6.29,2.95,13.15,3.34,19.41,6.27c-1.64-0.11-3.28,0.22-4.65,1.09c-1.87,1.19-3.02,3.17-3.64,5.25c-0.85,2.84-0.35,5.99,2.29,7.67
	c2.93,1.87,7.53,1.47,9.18-1.88c0.85-1.73,0.94-4.09-0.21-5.71c-1.1-1.55-3.29-2.42-5.13-1.86c-1.5,0.46-2.38,1.76-2.62,3.27
	c-0.31,1.96,1.11,3.61,3.09,3.57c1.27-0.03,2.63-1.02,2.56-2.4c-0.04-0.83-0.9-1.68-1.77-1.56c-0.82,0.12-1.06,0.86-0.87,1.57
	l0.1-0.03c-0.03-0.37-0.04-0.73,0.25-1c0.54-0.5,1.29-0.1,1.64,0.42c0.48,0.71-0.1,1.62-0.69,2.05c-0.87,0.64-2.31,0.34-3.02-0.4
	c-0.85-0.87-0.68-2.28-0.15-3.27c1-1.86,3.44-1.8,4.96-0.63c1.5,1.16,1.68,3.13,1.1,4.84c-0.97,2.84-4.29,3.37-6.83,2.37
	c-2.09-0.83-3.16-2.96-2.84-5.15c0.37-2.57,1.79-5.34,4.35-6.29c2.16-0.81,4.85-0.27,6.69,1.07c5.48,0.89,13.06,22.26,11.23,32.95
	c-4.55-1.31-9.79-5.02-20.67-4.18c-7.82-0.16-15.3,5.32-21.77-3.48c-1.7-1.97-3.25-4.9-2.9-7.62c0.23-1.79,0.61-3.58,1.47-5.16
	c2.46-4.48,8.2-6.32,12.75-3.99c1.84,0.95,3.4,2.9,4.28,4.71c1.2,2.49,1.67,5.21,0.47,7.78c-1.41,3.03-4.81,5.01-8.1,5.11
	c-2.38,0.08-4.89-0.95-6.11-3.08c-1.42-2.49-2.2-6.16-0.27-8.61c2.46-3.11,7.53-4.44,10.48-1.3c1.61,1.71,2.36,4.16,1.47,6.41
	c-0.78,1.97-2.64,4.45-5,4.39c-2.95-0.07-6.11-3.07-5.71-6.11c0.35-2.68,3.25-4.85,5.86-3.75c1.05,0.44,2.01,1.35,2.24,2.5
	c0.42,2.08-1.84,4.55-3.91,3.33c-0.98-0.57-1.52-1.66-1.13-2.76c0.32-0.91,1.23-1.21,2.06-0.72c0.75,0.45,0.31,1.3-0.26,1.63
	l0.05,0.13c0.66-0.31,1.1-0.94,0.68-1.65c-0.53-0.91-2.11-0.92-2.66-0.02c-0.85,1.39-0.4,2.99,0.97,3.85
	c2.5,1.56,5.32-1.34,4.87-3.92c-0.33-1.87-2.18-3.25-4-3.46c-2.23-0.26-4.32,1.32-5.26,3.27c-1.77,3.68,1.48,7.72,5.07,8.6
	c2.81,0.69,5.03-1.17,6.46-3.44c1.61-2.56,1.63-5.56-0.06-8.1c-1.12-1.68-2.82-2.92-4.83-3.24c-3.98-0.64-8.79,2.08-9.8,6.09
	c-0.7,2.8,0.2,6.3,1.98,8.55c2.98,3.76,8.55,3.7,12.39,1.36c3.62-2.21,5.78-6.45,4.67-10.68c-0.87-3.29-2.89-6.8-6.02-8.44
	c-4.5-2.35-10.18-1.42-13.65,2.33c-2.83,3.05-4.13,7.6-3.16,11.67c1.18,4.93,5.3,8.58,9.7,10.67c0.49,0.23,1.41,0.66,2.41,1.03
	c-0.55,0.27-1.18,0.51-1.83,0.73h3.44c0.08-0.04,0.17-0.08,0.24-0.12c-0.05,0.04-0.1,0.08-0.16,0.12h4.68
	c6.99-3.4,14.58-2.77,21.23,0h18.01c-0.06-2.06-0.11-3.88-0.13-5.28c0.96-0.79,2.25-1.45,3.97-1.88c12.3-3.66,13.55-2.02,18.5,0.78
	c0.06,0.06,0.14,0.12,0.22,0.16l2.93,2.28c0.98,1.07,1.78,2.47,1.97,3.94h2.2c-0.04-0.35-0.09-0.7-0.17-1.04
	c0.69,0.47,1.34,0.81,1.96,1.04h4.52c2.1-0.7,3.92-2.08,5.89-2.17c2.14-0.36,4.73,0.2,5.89,2.17h2.06
	c-0.11-0.28-0.22-0.55-0.37-0.81c0.31,0.26,0.64,0.53,0.96,0.81h2.02c-0.79-0.62-1.73-1.56-2.61-1.93l1.03-0.43
	c2.07-1.19,3.66-3.53,2.94-5.99c-0.61-2.05-2.31-3.94-4.53-4.14c-1.84-0.16-3.94,0.93-4.76,2.61c-1.07,2.17,0.28,5.56,2.96,5.54
	c1.43-0.01,3.06-0.99,3.21-2.52c0.12-1.15-0.79-2.86-2.12-2.73c-0.9,0.09-2,0.67-2.18,1.64c-0.17,0.87,0.45,1.8,1.34,1.91
	c0.4,0.05,0.98-0.1,1.12-0.55c0.12-0.4,0.02-0.67-0.12-1.05l-0.08,0.03c0.1,0.52,0.15,1.16-0.52,1.26
	c-1.13,0.18-1.74-1.31-0.99-2.08c0.4-0.42,1.19-0.79,1.78-0.6c0.76,0.24,1.21,1.34,1.11,2.07c-0.22,1.65-2.59,2.27-3.81,1.37
	c-1.03-0.76-1.43-2.27-1.06-3.46c0.53-1.68,2.8-2.85,4.48-2.34c2.25,0.68,3.92,3.5,2.79,5.73c-0.95,1.89-3.57,3.15-5.35,2.41
	c-2.26-0.93-3.94-0.84-5.6-0.64c-5.82,1.82-8.28,4.31-12.71-0.46c3.43,0.26,6.38-0.21,9.38-2.07c4.52-2.8,6.37-9.11,4.49-13.99
	c-1.53-3.98-5.55-6.87-9.85-6.71c-4.14,0.15-8.57,2.67-10.21,6.57c-1.47,3.48-0.3,7.67,2.2,10.36c2.07,2.22,5.18,3.48,8.18,2.6
	c3.39-0.98,6.77-4.38,6.55-8.11c-0.17-2.9-1.95-5.96-4.6-7.26c-2.44-1.2-5.57-0.64-7.59,1.13c-2.21,1.94-2.72,5.11-1.96,7.87
	c1.44,5.22,10.38,4.53,11.27-0.71c0.34-1.99-0.4-4.32-2.24-5.32c-1.89-1.03-4.8-0.62-5.65,1.58c-0.51,1.31-0.3,3.12,0.88,4.01
	c0.96,0.71,2.6,0.7,3.49-0.15c0.68-0.64,1.13-1.93,0.42-2.72c-0.55-0.62-1.79-0.83-2.21,0.04c-0.19,0.4-0.06,0.77,0.15,1.13
	l0.11-0.07c-0.23-0.5-0.23-1.09,0.36-1.32c0.64-0.25,1.5,0.31,1.56,0.98c0.18,1.98-2.56,2.83-3.79,1.47
	c-0.84-0.93-0.81-2.6-0.12-3.6c1.3-1.89,4.58-1.38,5.65,0.47c1.18,2.04,0.73,4.87-1.4,6.08c-2.43,1.38-6.68,1.03-7.47-2.13
	c-0.5-1.98-0.34-4.31,0.95-5.96c1.58-2.02,4.73-2.84,7.04-1.67c2.58,1.32,4.38,4.83,3.68,7.69c-0.49,2.02-2.32,3.43-3.94,4.56
	c-2.13,1.49-5.16,0.9-7.09-0.57c-3.84-2.91-4.98-9.22-0.94-12.5c1.93-1.57,4.27-2.67,6.78-2.75c5.22-0.16,9.25,4.93,8.67,9.96
	c-0.34,2.91-1.83,5.9-4.4,7.46c-2.57,1.56-5.5,2.06-8.48,1.94c-0.96-0.04-1.82-0.21-2.67-0.56c-0.14-0.12-0.28-0.24-0.42-0.36
	l-1.83-1.26c-0.16-0.09-0.33-0.14-0.5-0.16c-4.67-3.22-13.65-3.98-23.24-0.56c-0.75,0.26-0.35-1.58-0.72-2.67
	c10.36-5.53,12.43-16.99,11.81-27.08c0.22-3.2,2.61-6.12,5.15-7.83c3.12-2.11,7.28-2.13,10.3,0.21c4.65,3.59,4.83,10.85,1.05,15.14
	c-1.53,1.74-3.96,2.97-6.33,2.55c-2.76-0.49-5.33-1.86-6.63-4.43c-1.64-3.28-0.28-7.26,2.17-9.76c2.54-2.59,7.39-1.25,9.37,1.38
	c2.28,3.03,1,7.53-2.07,9.48c-1.61,1.02-3.84,1.38-5.46,0.17c-2.48-1.87-2.93-6.05-1.07-8.47c1.58-2.07,5.19-1.99,6.54,0.25
	c0.86,1.43,1,3.72-0.49,4.82c-0.93,0.69-2.47,0.93-3.4,0.1c-1.15-1.03-1.08-3.21,0.3-3.99c0.84-0.48,1.63,0.01,1.87,0.89
	c0.22,0.8-0.54,1.21-1.21,1.05l-0.05,0.13c0.74,0.25,1.48-0.06,1.55-0.92c0.1-1.28-1.27-2.05-2.35-1.49
	c-1.83,0.95-1.84,3.9-0.16,5.02c1.55,1.03,3.85,0.25,4.75-1.27c1.07-1.81,0.48-4.44-1.05-5.81c-1.57-1.41-4.19-1.39-5.92-0.29
	c-4.3,2.72-2.82,10.84,2.19,11.79c4.43,0.84,8.25-3.5,8.38-7.64c0.11-3.29-1.91-6.22-4.94-7.4c-2.55-0.99-5.72-0.8-7.77,1.23
	c-3.29,3.24-4.63,8.51-1.93,12.5c2.44,3.6,7.46,5.37,11.54,3.7c3.11-1.27,5.19-4.33,6.05-7.48c0.51-1.87,0.63-3.88,0.29-5.78
	c-0.98-5.32-5.84-9.49-11.33-9.05c-3.71,0.3-6.92,2.57-9.11,5.49c-2.04,2.74-2.44,6-2.33,9.34c-0.25,4.57,0.07,11.26-4.53,15.86
	c-1.95,1.51-3.88,3.85-4.98,3.06c0.63-9.83,2.36-27.76-5.83-35.44c-2.53-2.35-5.44-4.8-6.45-5.99c-2.04-2.43-4.52-6.63-3.59-12.16
	c0.72-4.31,3.41-8.26,7.16-10.53c5-3.02,11.61-2.29,15.81,1.73c2.06,1.97,3.36,5.16,3.81,7.9c0.61,3.76,0.16,7.54-2.43,10.47
	c-3.05,3.45-8.33,4.73-12.71,3.58c-3.18-0.83-6.1-3.18-6.87-6.49c-0.9-3.85-0.49-9.01,3.03-11.49c2.97-2.09,7.38-2.77,10.72-1.22
	c3.01,1.4,4.83,4.88,4.7,8.15c-0.1,2.31-1.18,4.41-2.94,5.9c-1.73,1.46-4.48,3.05-6.9,2.34c-2.01-0.59-3.56-1.71-4.61-3.56
	c-1.13-2-1.41-4.4-0.58-6.55c0.99-2.56,4.2-4.47,6.91-3.85c2.52,0.58,4.88,3.38,4.05,6.05c-0.79,2.54-4.29,4.31-6.34,2.11
	c-1.06-1.14-1.35-2.79-0.4-4.09c0.79-1.07,2.11-1.11,3.01-0.14c0.38,0.42,0.37,1.14,0.01,1.56c-0.26,0.31-0.61,0.4-0.99,0.49
	l0.02,0.19c0.68-0.1,1.28-0.35,1.51-1.06c0.39-1.24-0.88-2.31-2.03-2.37c-1.3-0.08-2.29,1.17-2.62,2.29
	c-0.53,1.77,0.71,3.87,2.32,4.59c2.2,0.99,4.8-0.48,5.94-2.41c2.52-4.27-2.9-9.82-7.32-8.16c-2.18,0.82-4.25,2.07-5.17,4.32
	c-2.16,5.33,1.82,12.35,7.88,12.09c3.66-0.16,7.26-2.79,8.87-6.01c2.36-4.71,0.12-11.15-4.61-13.41c-3.88-1.86-9-1.14-12.49,1.27
	c-2.92,2.03-3.97,5.3-4.23,8.73c-0.3,3.87,0.83,7.89,3.98,10.38c5.6,4.42,14.69,3.52,19.44-1.78c4.53-5.06,3.96-12.49,1.04-18.21
	c-3.83-7.51-14.03-9.65-21.08-5.47c-4.44,2.63-7.53,7.23-8.45,12.27c-0.52,2.81-0.07,5.9,0.82,8.58c0.58,1.77,1.4,3.48,2.49,4.99
	c1.01,1.39,2.3,2.54,3.62,3.64c10.35,9.41,7.14,28.74,5.21,41.18c-2.3-10.56-6.83-21.95-17.44-26.48
	c-9.04-3.87-19.68-3.06-21.39-9.08c-0.96-3.39-0.27-7.84,2.73-10.04c1.82-1.33,4.49-1.86,6.63-1.07c2.54,0.94,3.94,3.69,4.32,6.24
	c0.31,2.16-0.74,4.27-2.81,5.09c-2.5,0.99-5.8,0.48-6.76-2.34c-0.58-1.69-0.41-3.65,1.08-4.8c1.5-1.16,3.92-1.23,4.91,0.61
	c0.53,0.98,0.69,2.37-0.14,3.24c-0.7,0.73-2.13,1.02-2.99,0.4c-0.58-0.42-1.16-1.32-0.69-2.02c0.34-0.52,1.09-0.92,1.62-0.42
	c0.29,0.27,0.28,0.62,0.25,0.98l0.13,0.04c0.21-0.77-0.13-1.59-1.04-1.6c-1.39-0.02-1.95,1.61-1.34,2.67
	c1.33,2.32,5.04,1.41,5.42-1.15c0.27-1.87-0.81-3.85-2.64-4.41c-2.38-0.73-5.21,0.87-5.85,3.26c-0.56,2.12,0.11,4.83,1.93,6.16
	c2.56,1.87,6.51,1.57,8.76-0.69c2.43-2.44,1.93-5.99,0.58-8.84c-0.85-1.8-2.27-3.26-4.14-4c-3.41-1.34-7.69-0.04-9.97,2.76
	c-2.12,2.62-2.4,6.04-2.17,9.29c0.01,0.12,0.02,0.24,0.04,0.37l-0.23-0.27c-1.3-1.19-3.02-2.08-4.79-2.25
	c-1.79-0.17-3.49,0.55-5.23-0.15c-1.28-0.52-2.46-1.89-2.2-3.35c0.28-1.56,2.69-2.23,3.71-1c0.64,0.77,0.37,1.66-0.05,2.44L94,52.33
	z"/>
<g>
	<path fill="none" stroke="#000000" stroke-width="0.5" d="M15.17,15.24V94.6c0,5.48,4.48,9.97,9.97,9.97h246.69
		c5.48,0,9.97-4.48,9.97-9.97V14.74"/>
</g>
<g>
	<g>
		<path fill-rule="evenodd" clip-rule="evenodd" fill="#FF00FF" d="M80.29,75.99c-0.9-0.21-2.28,0.69-2.41-0.61
			c-0.04-0.37,0.07-0.88,0.69-1.19c0.82-0.4,1.54-1.21,1.63-2.42c0.02-0.25-0.04-0.25,0.15-0.48c0.46-0.56,1.45-1.26,1.73-1.78
			c-0.13-0.29-2.1,0.75-2.51,0.78c-0.81-0.19-1.92-0.93-3.26-0.22c-1.01,0.51-1.58,1.09-2.16,1.84c-0.47,0.61-1.63,0.87-2.17,0.96
			c0.76,0.67,2.06-0.13,2.51,0.09c0.1-0.07,0.13-0.06,0.04,0.02c-0.01-0.01-0.03-0.02-0.04-0.02c-0.17,0.11-0.55,0.44-0.97,0.99
			c-0.62,0.82-1.09,0.71-1.51,0.21c-1.37-1.59-1.65-4.47-4.26-4.47c-2.45,0-4.65,3.68-6.66,4.6c-0.37,0.17-1.18,0.85-0.77,1.06
			c0.78,0.4,1.1,0.13,1.99-0.2c1.29-0.48,2.81-1.49,4.21-1.42c2.06,0.09,3.7,1.66,2.45,3.79c-0.09,0.58-1.44,1.17-1.88,0.95
			c-0.87-0.44-1.19-1.51-1.97-2.01c-0.57-0.37-0.62,0.04-0.49,0.58c1.19,1.78,1,2.16-0.5,1.73c-7.51-2.17-6.17-7.79-10.41-10.71
			c-2.12-1.45-4.59,0.77-1.67,2.36c1.05,0.57,2.68,1.64,3.25,2.51c0.15,0.23,0.17,0.42,0.04,0.54c-0.09,0.08-0.33,0.04-0.62-0.13
			c-7.02-4.14-10.36-1.12-10.04,0.77c0.2,1.23,1.46,1.38,2.4,0.93c1.61-0.77,3.68-2.51,6.61-0.39c0.3,0.22,0.39,0.44,0.12,0.61
			c-0.45-0.2-4.86-0.64-7.27,1.26c-0.91,0.72-1.41,1.61-0.72,2.35c1.56,1.67,3.08-1.13,3.92-1.7c2.42-1.85,12.35,1.54,14.38,3.03
			c1.26,0.93-1.06,1.47-1.72,1.94c-0.31,1.85,2.54,0.38,3.94-1.21c0.41-0.46,0.84-0.28,1.55,0.03c2,0.88,7.1,0.04,7.79-2.03
			c-0.06-0.49,4.61,1.16-3.15,3.78c-0.88,0.3-0.29,1.27,0.86,1.06c2.12-0.38,7.31-0.56,8.59-4.44
			C82.43,78.19,81.98,76.39,80.29,75.99z M52.53,69.66c-0.34-0.21-0.8-0.36-0.75-0.85c0.03-0.28,0.24-0.54,0.58-0.54
			c1.27,0.01,1.97,1.8,1.89,2.52C53.83,70.52,53.2,70.08,52.53,69.66z M46.87,74.24c-0.67,0.23-1.35-0.32-1-0.97
			c0.75-1.43,3.55-1.1,4.47-0.42C49.18,73.01,48,73.85,46.87,74.24z M46.93,78.51c-0.28-0.03-0.54-0.19-0.51-0.53
			c0.13-1.26,2.21-1.71,2.92-1.57C49.11,76.74,47.44,78.56,46.93,78.51z M77.36,71.75c0.01-0.33,0.3-0.59,0.63-0.58
			c0.33,0.02,0.59,0.3,0.58,0.63c-0.01,0.33-0.3,0.59-0.63,0.58C77.61,72.37,77.35,72.08,77.36,71.75z"/>
	</g>
</g>
<path fill-rule="evenodd" clip-rule="evenodd" fill="#0000FF" d="M210.35,79.67c-0.6,0.29-0.81,0.64-1.72,0.62
	c-0.17-0.65-0.73-0.72-0.89-1.27c0.51-2.07-1.3-2.52-2.03-1.85c-0.56,0.52-0.28,1.35,0.23,1.83c0.53,0.49,1.03,0.38,1.52,0.41
	c0.32,0.02,0.66,0.44,0.77,1.01c-0.76,0.38-1.37,0.34-2.01,0.08c-0.6-0.93-1.51-1.78-2.56-1.15c-0.48,0.29-0.77,1.01-0.37,1.61
	c0.92,1.16,2.47,0.57,2.84-0.06c0.47,0.08,1.36-0.01,1.82-0.01c-0.09,0.6-0.65,1.27-1.19,1.1c-0.99-0.3-1.35-0.16-1.75,0.1
	c-0.79,0.51-0.5,2.03,0.57,1.81c0.76-0.16,1.4-0.96,1.47-1.61c0.92-0.22,0.99-1.08,1.46-1.5C209.28,80.63,209.77,80.46,210.35,79.67
	L210.35,79.67z"/>
<g>
	<g>
		<path fill-rule="evenodd" clip-rule="evenodd" fill="#FF00FF" d="M230.03,72.99c-0.68-1.06-3.05-0.96-2.15,0.3
			c0.86,1.2,2.25,3.46,1.86,4.41C230.76,76.34,230.66,73.97,230.03,72.99z M228.66,73.49c-0.49-0.49,0.63-0.8,0.9-0.3
			c0.57,1.08,0.35,2.58,0.35,2.58C229.58,74.77,229.13,73.95,228.66,73.49z"/>
	</g>
</g>
<g>
	<g>
		<path fill-rule="evenodd" clip-rule="evenodd" fill="#FF00FF" d="M226.1,78.33c-1.11-0.32-1.56-0.59-3.25-0.72
			c0.18-1.22,3.09-0.55,3.61-0.89c0.25-0.21,0.3-0.49,0.28-0.85c-0.56-0.1-2.95,0.39-3.09-0.31c-0.15-0.76,4.54-0.44,3.64-2.04
			c-0.89-0.25-2.54,0.72-3.27,0.08c0.05-0.13,0.06-0.28,0.13-0.4c0.93-0.48,1.92-0.21,2.8-0.45c0.7-0.19,1.1-0.63,1.03-1.25
			c-0.56-0.37-3.43,0.89-3.51-0.05c-0.07-0.7,1.85-0.77,2.14-0.82c1.34-0.24,3.05-0.76,2.36-1.7c-1.51-0.04-4.64,0.92-6.59,1.37
			c-3.92,0.91-0.47,5.15-2.48,6.46c-0.49,0.32-0.99-0.02-2.57-0.16c0.12-0.19,1.23-1.06,0.99-1.74c-1.13,1-3.35,0.45-4.76,1.43
			c-0.94,0.65-0.93,1.63-1.14,2.08c-0.48,0.19-1.56,0.79-1.85,1.22c0.68-0.09,1.83-0.49,2.34-0.2c1.72,1.79,2.9,1.53,3.86,1.5
			c2.38-0.07,0.79,1.17-0.2,3.78c-0.41,1.08,1.48,3.2,2.33,3.85c0.63,0.48,1.65,1.81,2.58,2.06c0.42-0.5-0.17-1.19-0.6-1.58
			c-0.3-0.27-1.59-1.41-1.61-1.86c-0.15-0.53,0.02-0.73,0.15-0.57c0.61,0.78,1.74,1.77,2.47,2.06c0.14-0.09,0.26-0.25,0.25-0.42
			c-0.19-0.71-3.17-2.81-2.22-3c0.57-0.35,2.12,2.06,2.57,1.87c0.13-0.05,0.25-0.48,0.21-0.66c-0.03-0.14-0.16-0.29-0.28-0.41
			c-0.36-0.38-2.01-1.71-1.92-2.08c0.09-0.12,0.33-0.16,0.53-0.22c0.86,0.25,1.26,1.33,2.02,1.77c0.67-0.95-0.78-2.25-1.25-2.71
			c-0.29-0.49,0.02-0.53,0.41-0.6c0.54-0.1,4.8,0.92,7.5-4.36C228.91,78.61,227.13,78.62,226.1,78.33z M214.32,78.72
			c-0.35,0-0.63-0.28-0.63-0.63c0-0.35,0.28-0.63,0.63-0.63c0.35,0,0.63,0.28,0.63,0.63C214.95,78.44,214.67,78.72,214.32,78.72z"/>
	</g>
</g>
<g>
	<g>
		<path fill-rule="evenodd" clip-rule="evenodd" fill="#FF00FF" d="M234.93,78.02c-0.97-0.75-3.43-1.07-4.93-0.12
			c1.03-0.33,2.68,1.21,3.86,2.23C235.1,81.19,235.99,78.83,234.93,78.02z M233.92,79.35c-0.57-0.54-1.66-1.46-2.22-1.4
			c0.85-0.3,2.13,0.03,2.61,0.44C234.81,78.83,234.51,79.91,233.92,79.35z"/>
	</g>
</g>
<g>
	<g>
		<path fill-rule="evenodd" clip-rule="evenodd" fill="#FF00FF" d="M239.48,65.94c-3.83-0.44-6.75,2.84-6.83,5.09
			c-0.11,3.05,0.95,3.64-2.65,6.48c0,0,6.96-1.47,6.45-4.81C235.95,69.43,236.99,67.04,239.48,65.94z M235.3,72.08
			c0.23,1.78-2.13,3.27-2.13,3.27c0.71-1.74,0.72-1.93,0.57-3.54c-0.15-1.69,1.71-2.83,1.71-2.83
			C235.04,70.24,235.08,70.35,235.3,72.08z"/>
	</g>
</g>
<path fill="#FF00FF" d="M216.89,52.93c-0.17-0.93-1.06-1.56-1.99-1.39c-0.23,0.04-0.45,0.13-0.64,0.25
	c-1.34-2.15-5.23-6.59-16.32-5.45c-3.88,0.4-4.48-1.84-4.62-2.55c-0.07-0.38,0-1.36,0.86-1.88c0.86-0.52,1.9-0.16,2.19,0.2
	c0.59,0.79,0.28,1.55-0.44,1.39c-0.73-0.15-0.31-1.07-0.31-1.07s-0.78,0.45-0.33,1.13c0.22,0.34,0.78,0.39,1.05,0.38
	c1.38-0.44,0.89-1.86,0.89-1.86c-0.78-1.71-2.89-1.69-2.89-1.69c0.33-2.78-0.74-3.26-1.65-3.32c-1.73,0.25-1.67,1.44-1.19,1.96
	c0.82,0.67,1.24,0.01,1.24,0.01c-0.39,0.33-0.79-0.04-0.79-0.04c-0.77-0.96,0.11-1.34,0.39-1.35c0.28-0.01,0.86,0.35,0.87,0.75
	c0.29,2.7-2.05,2.78-3.63,1.77c-5.09-3.25-2.97-7.77-2.97-7.77c0.81-1.22,1.69-0.18,1.69-0.18c0.88,0.93,0.25,1.91-0.36,1.74
	c-0.61-0.16-0.18-1.12-0.18-1.12c-1.09,0.87-0.48,1.62,0.31,1.76c0.79,0.15,1.67-1.39,1.24-2.21c-2.93-5.79-5.68-2.55-6.74-2.12
	c-1.32,0.54-0.97,0.16-3.68,0.13c0,0,0.53,0.48,2.6,1.43c2.08,0.95,1.82,2.15,1.69,2.71c-0.12,0.57-3.14,5.96,0.57,10.25
	s6.84,2.52,11.82,4.39c4.05,1.52,5.87,6.17,6.41,7.86c-0.19-0.03-0.38-0.03-0.57,0c-0.93,0.17-1.56,1.06-1.39,1.99
	c0.17,0.93,1.06,1.56,1.99,1.39c0.93-0.16,1.56-1.06,1.39-1.99c-0.12-0.69-0.63-1.2-1.27-1.37c-0.41-4.94-4.41-7.38-4.41-7.38
	c5.55,2.09,7.16,6.73,7.48,7.91c-0.05,0-0.11,0.01-0.16,0.02c-0.97,0.17-1.63,1.09-1.46,2.05c0.17,0.96,1.1,1.6,2.07,1.43
	c0.97-0.17,1.63-1.09,1.46-2.05c-0.16-0.88-0.95-1.49-1.84-1.45c0.01-6.08-6.78-8.76-6.78-8.76c7.45,1.47,9.4,6.41,9.81,7.84
	c-0.71,0.33-1.14,1.11-1,1.91c0.17,0.96,1.09,1.61,2.05,1.44c0.96-0.17,1.61-1.09,1.44-2.05c-0.17-0.96-1.09-1.61-2.05-1.44
	c-0.13,0.02-0.25,0.06-0.36,0.1c-0.58-7.54-9.41-8.7-9.41-8.7c1.84-0.84,6.73,1.06,6.73,1.06c2.7,1.26,4.42,3.86,5.25,5.41
	c-0.5,0.39-0.77,1.05-0.65,1.73c0.17,0.97,1.08,1.63,2.03,1.46s1.58-1.09,1.4-2.07c-0.17-0.97-1.08-1.63-2.03-1.46
	c-0.22,0.04-0.42,0.12-0.6,0.23c-1.34-3.74-2.68-4.7-4.15-5.73c-2.22-1.55-6.65-1.48-6.65-1.48c6.55-0.85,11.71,3.14,13.69,4.93
	c-0.38,0.38-0.58,0.94-0.48,1.52c0.17,0.93,1.06,1.56,1.99,1.39C216.43,54.75,217.05,53.86,216.89,52.93z M184.05,31.75
	c-0.32,0.06-0.63-0.16-0.68-0.48c-0.06-0.32,0.16-0.63,0.48-0.68c0.32-0.06,0.63,0.16,0.68,0.48
	C184.58,31.39,184.37,31.69,184.05,31.75z M202.68,58.58c0.07,0.54-0.31,1.04-0.85,1.12c-0.54,0.07-1.04-0.31-1.12-0.85
	c-0.07-0.54,0.31-1.04,0.85-1.12C202.11,57.66,202.61,58.04,202.68,58.58z M206.4,59.16c0.08,0.57-0.33,1.1-0.9,1.18
	c-0.57,0.08-1.1-0.33-1.17-0.9c-0.08-0.57,0.32-1.1,0.9-1.18C205.79,58.19,206.32,58.59,206.4,59.16z M208.9,57.25
	c0.55-0.07,1.06,0.31,1.14,0.87c0.07,0.55-0.31,1.06-0.87,1.14c-0.55,0.07-1.06-0.31-1.14-0.87
	C207.96,57.84,208.35,57.33,208.9,57.25z M211.87,54.78c0.57-0.08,1.1,0.33,1.18,0.9c0.08,0.57-0.32,1.1-0.9,1.18
	c-0.57,0.08-1.1-0.32-1.18-0.9C210.89,55.38,211.29,54.86,211.87,54.78z M215.34,54.21c-0.51,0.07-0.98-0.29-1.05-0.8
	c-0.07-0.51,0.29-0.99,0.8-1.05c0.51-0.07,0.99,0.29,1.05,0.81C216.21,53.67,215.85,54.14,215.34,54.21z"/>
<path fill-rule="evenodd" clip-rule="evenodd" fill="#0000FF" d="M53.57,140.1c0.6,0.29,0.81,0.64,1.72,0.62
	c0.17-0.65,0.73-0.72,0.89-1.27c-0.51-2.07,1.3-2.52,2.03-1.85c0.56,0.52,0.28,1.35-0.23,1.83c-0.53,0.49-1.03,0.38-1.52,0.41
	c-0.32,0.02-0.66,0.44-0.77,1.01c0.76,0.38,1.37,0.34,2.01,0.08c0.6-0.93,1.51-1.78,2.56-1.15c0.48,0.29,0.77,1.01,0.37,1.61
	c-0.92,1.16-2.47,0.57-2.84-0.06c-0.47,0.08-1.36-0.01-1.82-0.01c0.09,0.6,0.65,1.27,1.19,1.1c0.99-0.3,1.35-0.16,1.75,0.1
	c0.79,0.51,0.5,2.03-0.57,1.81c-0.76-0.16-1.4-0.96-1.47-1.61c-0.92-0.22-0.99-1.08-1.46-1.5C54.64,141.06,54.15,140.89,53.57,140.1
	L53.57,140.1z"/>
<g>
	<g>
		<path fill-rule="evenodd" clip-rule="evenodd" fill="#FF00FF" d="M33.89,133.42c-0.63,0.98-0.73,3.35,0.29,4.71
			c-0.39-0.96,1-3.21,1.86-4.41C36.94,132.46,34.57,132.36,33.89,133.42z M35.26,133.92c-0.47,0.47-0.92,1.28-1.25,2.28
			c0,0-0.22-1.5,0.35-2.58C34.63,133.12,35.75,133.43,35.26,133.92z"/>
	</g>
</g>
<g>
	<g>
		<path fill-rule="evenodd" clip-rule="evenodd" fill="#FF00FF" d="M51.51,138.79c-0.21-0.45-0.2-1.43-1.14-2.08
			c-1.41-0.98-3.63-0.43-4.76-1.43c-0.23,0.67,0.88,1.55,0.99,1.74c-1.58,0.14-2.09,0.48-2.57,0.16c-2.01-1.31,1.44-5.55-2.48-6.46
			c-1.96-0.46-5.09-1.41-6.59-1.37c-0.69,0.95,1.02,1.47,2.36,1.7c0.29,0.05,2.21,0.12,2.14,0.82c-0.09,0.94-2.95-0.32-3.51,0.05
			c-0.07,0.62,0.33,1.06,1.03,1.25c0.88,0.24,1.87-0.04,2.8,0.45c0.07,0.13,0.08,0.27,0.13,0.4c-0.73,0.64-2.38-0.32-3.27-0.08
			c-0.89,1.61,3.79,1.29,3.64,2.04c-0.14,0.7-2.53,0.21-3.09,0.31c-0.02,0.37,0.03,0.64,0.28,0.85c0.52,0.34,3.43-0.32,3.61,0.89
			c-1.69,0.13-2.14,0.4-3.25,0.72c-1.03,0.29-2.81,0.28-3.61-0.51c2.7,5.28,6.96,4.26,7.5,4.36c0.39,0.07,0.7,0.11,0.41,0.6
			c-0.47,0.46-1.92,1.76-1.25,2.71c0.76-0.43,1.16-1.52,2.02-1.77c0.19,0.06,0.43,0.1,0.53,0.22c0.08,0.36-1.56,1.69-1.92,2.08
			c-0.12,0.13-0.25,0.27-0.28,0.41c-0.04,0.18,0.09,0.6,0.21,0.66c0.45,0.19,2-2.22,2.57-1.87c0.95,0.19-2.02,2.3-2.22,3
			c-0.01,0.17,0.11,0.33,0.25,0.42c0.73-0.29,1.86-1.28,2.47-2.06c0.13-0.17,0.3,0.04,0.15,0.57c-0.02,0.44-1.31,1.59-1.61,1.86
			c-0.43,0.4-1.02,1.08-0.6,1.58c0.93-0.25,1.95-1.58,2.58-2.06c0.85-0.65,2.74-2.77,2.33-3.85c-0.99-2.61-2.57-3.84-0.2-3.78
			c0.96,0.03,2.14,0.29,3.86-1.5c0.51-0.29,1.66,0.1,2.34,0.2C53.06,139.58,51.99,138.98,51.51,138.79z M49.6,139.15
			c-0.35,0-0.63-0.28-0.63-0.63c0-0.35,0.28-0.63,0.63-0.63c0.35,0,0.63,0.28,0.63,0.63C50.23,138.87,49.95,139.15,49.6,139.15z"/>
	</g>
</g>
<g>
	<g>
		<path fill-rule="evenodd" clip-rule="evenodd" fill="#FF00FF" d="M28.99,138.45c-1.05,0.82-0.17,3.18,1.07,2.11
			c1.18-1.02,2.83-2.55,3.86-2.23C32.42,137.38,29.96,137.69,28.99,138.45z M30.01,139.78c-0.59,0.57-0.9-0.51-0.39-0.96
			c0.47-0.41,1.76-0.74,2.61-0.44C31.66,138.32,30.57,139.23,30.01,139.78z"/>
	</g>
</g>
<g>
	<g>
		<path fill-rule="evenodd" clip-rule="evenodd" fill="#FF00FF" d="M31.27,131.45c-0.08-2.25-3-5.53-6.83-5.09
			c2.5,1.11,3.54,3.5,3.03,6.75c-0.52,3.34,6.45,4.81,6.45,4.81C30.32,135.1,31.38,134.5,31.27,131.45z M28.62,132.51
			c0.22-1.73,0.26-1.84-0.16-3.1c0,0,1.86,1.13,1.71,2.83c-0.14,1.62-0.14,1.8,0.57,3.54C30.76,135.78,28.4,134.29,28.62,132.51z"/>
	</g>
</g>
</svg>
