<?xml version="1.0" encoding="iso-8859-1"?>
<!-- Generator: Adobe Illustrator 16.0.0, SVG Export Plug-In . SVG Version: 6.00 Build 0)  -->
<!DOCTYPE svg PUBLIC "-//W3C//DTD SVG 1.1//EN" "http://www.w3.org/Graphics/SVG/1.1/DTD/svg11.dtd">
<svg version="1.1" id="Capa_1" xmlns="http://www.w3.org/2000/svg" xmlns:xlink="http://www.w3.org/1999/xlink" x="0px" y="0px"
	 width="321.052px" height="321.052px" viewBox="0 0 321.052 321.052" style="enable-background:new 0 0 321.052 321.052;"
	 xml:space="preserve">
<g>
	<g>
		<polygon points="188.744,321.052 250.807,282.578 250.807,151.809 275.692,136.376 275.692,0.248 188.744,52.423 		"/>
		<rect x="129.373" y="287.55" width="20.616" height="10.8"/>
		<rect x="71.441" y="287.55" width="20.617" height="10.8"/>
		<path d="M45.359,321.052h132.506v-267.3H45.359V321.052z M160.79,309.15h-42.216V276.75h42.216V309.15z M66.506,84.148h90.223
			v174.108H66.506V84.148z M60.642,276.75h42.217v32.399H60.642V276.75z"/>
		<polygon points="135.182,0 48.75,44.102 181.293,44.102 256.771,0 		"/>
		<path d="M136.927,158.451l-0.005-0.005c-0.67-1.033-1.387-2.025-2.144-2.969c-18.808-26.589-24.841-49.826-24.841-49.826
			s-6.033,23.242-24.84,49.826c-0.754,0.949-1.474,1.936-2.144,2.969l-0.005,0.005l0,0c-4.185,6.439-6.658,14.423-6.658,23.071
			c0,21.326,15.066,38.623,33.647,38.623s33.647-17.297,33.647-38.623C143.59,172.874,141.111,164.89,136.927,158.451
			L136.927,158.451z M133.697,194.437c-1.872,5.458-10.579,3.116-8.688-2.389c3.494-10.178,2.294-19.644-4.849-27.896
			c-3.781-4.372,2.565-10.776,6.373-6.376C135.717,168.402,138.272,181.111,133.697,194.437z"/>
	</g>
</g>
<g>
</g>
<g>
</g>
<g>
</g>
<g>
</g>
<g>
</g>
<g>
</g>
<g>
</g>
<g>
</g>
<g>
</g>
<g>
</g>
<g>
</g>
<g>
</g>
<g>
</g>
<g>
</g>
<g>
</g>
</svg>
