<?xml version="1.0" encoding="utf-8"?>
<!-- Generator: Adobe Illustrator 12.0.0, SVG Export Plug-In  -->
<!DOCTYPE svg PUBLIC "-//W3C//DTD SVG 1.1//EN" "http://www.w3.org/Graphics/SVG/1.1/DTD/svg11.dtd" [
	<!ENTITY ns_flows "http://ns.adobe.com/Flows/1.0/">
	<!ENTITY ns_svg "http://www.w3.org/2000/svg">
	<!ENTITY ns_xlink "http://www.w3.org/1999/xlink">
]>
<svg  version="1.1" xmlns="&ns_svg;" xmlns:xlink="&ns_xlink;" xmlns:a="http://ns.adobe.com/AdobeSVGViewerExtensions/3.0/"
	 width="89" height="88" viewBox="-0.5 -0.66 89 88" enable-background="new -0.5 -0.66 89 88" xml:space="preserve">
<defs>
</defs>
<path d="M37.64,30.48l-7.2,37.79h-0.01L0,72.77l40.61,14.57l36.16-4.85l11.15-47.08L37.64,30.48z M30.5,81.66l-9.97-3.8l4.8-0.64
	l11.19,3.74L30.5,81.66z M73.46,78.54L33.24,67.16L39.7,33.8l43.15,5.07L73.46,78.54z M25.41,28.01h4.79v4.56h-4.79V28.01z
	 M26.65,21.61h-4.81c0.04-0.72,0.19-1.44,0.44-2.13c0.24-0.7,0.62-1.32,1.12-1.88c0.51-0.55,1.16-1,1.95-1.34
	c0.79-0.35,1.76-0.53,2.89-0.53c1.12,0,2.06,0.15,2.83,0.45c0.77,0.3,1.39,0.68,1.87,1.15c0.48,0.47,0.83,0.99,1.05,1.55
	c0.22,0.56,0.35,1.09,0.38,1.6c0,0.71-0.09,1.28-0.28,1.72c-0.18,0.44-0.43,0.8-0.73,1.1c-0.3,0.29-0.63,0.53-1,0.73
	c-0.37,0.19-0.75,0.38-1.13,0.58c-0.26,0.14-0.48,0.28-0.65,0.42c-0.17,0.14-0.3,0.28-0.39,0.43c-0.09,0.16-0.16,0.33-0.2,0.54
	c-0.04,0.2-0.06,0.42-0.06,0.69h-4.26c-0.01-0.23-0.02-0.51-0.02-0.87c0-0.37,0.05-0.75,0.14-1.13c0.09-0.38,0.25-0.76,0.48-1.13
	c0.23-0.36,0.57-0.67,1.01-0.92c0.18-0.09,0.4-0.19,0.65-0.3c0.24-0.1,0.48-0.22,0.7-0.36c0.22-0.13,0.41-0.28,0.56-0.46
	c0.15-0.18,0.23-0.41,0.23-0.67c0-0.79-0.44-1.18-1.34-1.18c-0.55,0-0.95,0.2-1.17,0.6C26.7,20.65,26.6,21.1,26.65,21.61z
	 M53.4,55.76l5.36,3.63l-3.45,5.1l-5.37-3.63L53.4,55.76z M69.92,49.5c0.18,0.88,0.18,1.73,0.01,2.53
	c-0.18,0.79-0.44,1.49-0.79,2.08c-0.53,0.8-1.06,1.36-1.6,1.71c-0.55,0.35-1.08,0.58-1.65,0.68c-0.55,0.11-1.11,0.12-1.67,0.06
	c-0.56-0.06-1.13-0.13-1.71-0.19c-0.4-0.05-0.74-0.06-1.04-0.03c-0.29,0.03-0.55,0.09-0.77,0.19c-0.22,0.11-0.43,0.25-0.62,0.45
	c-0.19,0.19-0.38,0.43-0.59,0.72l-4.77-3.22c0.16-0.27,0.37-0.59,0.64-1c0.28-0.41,0.62-0.8,1.01-1.15c0.4-0.36,0.86-0.66,1.4-0.9
	c0.55-0.24,1.16-0.33,1.84-0.27c0.27,0.04,0.59,0.08,0.94,0.15c0.35,0.07,0.71,0.11,1.05,0.13c0.35,0.02,0.68-0.01,0.99-0.1
	c0.31-0.09,0.57-0.28,0.77-0.56c0.59-0.88,0.4-1.66-0.6-2.33c-0.62-0.42-1.21-0.49-1.78-0.21c-0.56,0.27-1.01,0.71-1.33,1.31
	l-5.39-3.65c0.6-0.76,1.3-1.46,2.1-2.05c0.81-0.6,1.69-1.01,2.68-1.25c0.98-0.23,2.05-0.24,3.19-0.03c1.15,0.21,2.36,0.74,3.64,1.6
	c1.26,0.85,2.19,1.73,2.83,2.65C69.32,47.72,69.73,48.62,69.92,49.5z M3.24,58.1l-2.71-0.22l0.23-2.84l2.71,0.22L3.24,58.1z
	 M8.32,57.26c0.03-0.33-0.07-0.57-0.3-0.73c-0.22-0.16-0.49-0.23-0.8-0.23l0.24-2.86C7.88,53.5,8.3,53.62,8.7,53.8
	c0.4,0.18,0.75,0.43,1.06,0.76c0.3,0.32,0.54,0.73,0.7,1.22c0.17,0.49,0.23,1.07,0.17,1.74c-0.05,0.67-0.19,1.22-0.4,1.67
	c-0.22,0.44-0.48,0.8-0.78,1.05c-0.3,0.27-0.63,0.45-0.97,0.55c-0.34,0.1-0.67,0.16-0.97,0.16c-0.42-0.04-0.76-0.12-1.01-0.25
	c-0.25-0.13-0.45-0.3-0.62-0.48c-0.16-0.19-0.29-0.41-0.38-0.63c-0.1-0.23-0.19-0.46-0.29-0.69c-0.07-0.17-0.14-0.3-0.21-0.41
	c-0.08-0.12-0.16-0.2-0.24-0.26c-0.09-0.07-0.19-0.12-0.3-0.15c-0.12-0.03-0.26-0.06-0.41-0.06l0.21-2.54
	c0.14,0,0.31,0.01,0.52,0.03c0.22,0.02,0.44,0.06,0.66,0.14c0.22,0.07,0.44,0.18,0.65,0.34c0.21,0.16,0.38,0.36,0.5,0.65
	c0.05,0.12,0.1,0.24,0.15,0.4c0.05,0.15,0.11,0.3,0.18,0.43c0.07,0.15,0.15,0.26,0.26,0.36c0.1,0.1,0.23,0.17,0.38,0.18
	C8.02,58.04,8.27,57.79,8.32,57.26z M74.76,19.58l0.76,2.61l-2.75,0.79l-0.75-2.62L74.76,19.58z M68.92,17.29
	c-0.09-0.42-0.13-0.85-0.1-1.29c0.02-0.44,0.14-0.86,0.33-1.26c0.2-0.4,0.5-0.76,0.9-1.09c0.39-0.33,0.92-0.59,1.56-0.78
	c0.64-0.18,1.2-0.25,1.69-0.21c0.49,0.05,0.92,0.17,1.27,0.35c0.34,0.19,0.63,0.42,0.85,0.72c0.21,0.28,0.38,0.57,0.48,0.85
	c0.12,0.41,0.16,0.75,0.12,1.03c-0.04,0.28-0.11,0.53-0.23,0.74c-0.12,0.22-0.27,0.41-0.45,0.58c-0.19,0.17-0.36,0.34-0.55,0.52
	c-0.13,0.12-0.23,0.24-0.31,0.35c-0.07,0.1-0.13,0.21-0.15,0.31c-0.03,0.1-0.04,0.22-0.03,0.34c0.01,0.12,0.04,0.25,0.08,0.4
	l-2.44,0.7c-0.05-0.13-0.1-0.3-0.16-0.49c-0.06-0.22-0.1-0.44-0.11-0.67c-0.01-0.23,0.02-0.48,0.09-0.73
	c0.07-0.25,0.21-0.48,0.43-0.69c0.09-0.09,0.2-0.18,0.32-0.28s0.23-0.2,0.34-0.32c0.11-0.11,0.18-0.23,0.24-0.37
	c0.06-0.13,0.06-0.27,0.02-0.42c-0.13-0.45-0.45-0.6-0.96-0.45c-0.31,0.09-0.51,0.27-0.58,0.54c-0.06,0.26-0.05,0.54,0.07,0.82
	L68.92,17.29z M53.63,25.72l1.66,0.16l-0.16,1.58l-1.65-0.17L53.63,25.72z M54.29,23.55l-1.67-0.16c0.04-0.25,0.11-0.49,0.22-0.72
	c0.11-0.24,0.26-0.44,0.45-0.61c0.19-0.17,0.44-0.31,0.72-0.4c0.29-0.09,0.62-0.12,1.02-0.08c0.39,0.04,0.71,0.12,0.96,0.25
	c0.26,0.13,0.46,0.28,0.61,0.46c0.15,0.18,0.25,0.37,0.31,0.57c0.06,0.2,0.07,0.38,0.07,0.56c-0.02,0.25-0.07,0.44-0.16,0.58
	c-0.08,0.15-0.18,0.26-0.29,0.36c-0.12,0.09-0.24,0.16-0.37,0.21c-0.13,0.05-0.28,0.11-0.42,0.17c-0.09,0.04-0.18,0.08-0.24,0.12
	c-0.06,0.04-0.11,0.08-0.15,0.14c-0.04,0.05-0.07,0.11-0.09,0.18c-0.02,0.07-0.04,0.15-0.04,0.23l-1.47-0.14
	c0-0.08,0.01-0.19,0.02-0.31c0.01-0.13,0.04-0.26,0.08-0.38c0.04-0.13,0.12-0.26,0.2-0.38c0.09-0.12,0.22-0.21,0.38-0.29
	c0.06-0.02,0.15-0.05,0.23-0.08c0.09-0.03,0.18-0.06,0.26-0.09c0.08-0.04,0.16-0.09,0.21-0.15c0.06-0.05,0.09-0.13,0.1-0.22
	c0.03-0.27-0.12-0.42-0.42-0.45c-0.19-0.02-0.34,0.04-0.43,0.17C54.31,23.21,54.28,23.37,54.29,23.55z M44.89,59.29
	c0.06,0.21,0.08,0.39,0.08,0.56c-0.02,0.25-0.07,0.44-0.15,0.59c-0.08,0.14-0.18,0.27-0.29,0.35c-0.12,0.09-0.24,0.17-0.37,0.22
	c-0.14,0.06-0.27,0.11-0.41,0.17c-0.1,0.03-0.18,0.07-0.24,0.12c-0.06,0.05-0.11,0.08-0.15,0.14c-0.04,0.05-0.07,0.12-0.08,0.18
	c-0.02,0.07-0.04,0.15-0.05,0.23l-1.47-0.14c0-0.08,0.01-0.19,0.02-0.31c0.01-0.13,0.04-0.26,0.09-0.38
	c0.04-0.13,0.11-0.26,0.2-0.38c0.1-0.12,0.22-0.21,0.38-0.28c0.07-0.03,0.15-0.06,0.23-0.08c0.09-0.03,0.17-0.06,0.25-0.09
	c0.08-0.04,0.15-0.08,0.21-0.15c0.06-0.06,0.09-0.13,0.1-0.21c0.03-0.27-0.12-0.42-0.42-0.46c-0.19-0.02-0.33,0.04-0.43,0.17
	c-0.09,0.13-0.14,0.29-0.14,0.46l-1.67-0.17c0.04-0.25,0.11-0.49,0.22-0.72c0.11-0.24,0.26-0.44,0.46-0.62
	c0.19-0.18,0.43-0.31,0.72-0.4c0.28-0.09,0.62-0.11,1.01-0.08c0.4,0.04,0.71,0.12,0.96,0.25c0.26,0.13,0.46,0.28,0.61,0.46
	C44.71,58.9,44.82,59.1,44.89,59.29z M41.59,62.17l1.66,0.17L43.1,63.9l-1.66-0.16L41.59,62.17z M10.14,11.69l-1.67-0.17
	c0.04-0.25,0.11-0.49,0.22-0.72c0.11-0.23,0.26-0.44,0.46-0.62c0.19-0.17,0.43-0.31,0.72-0.4c0.28-0.09,0.62-0.12,1.02-0.08
	c0.39,0.04,0.72,0.12,0.97,0.26c0.25,0.12,0.46,0.28,0.6,0.46c0.15,0.18,0.25,0.37,0.31,0.57c0.06,0.2,0.08,0.39,0.08,0.58
	c-0.02,0.24-0.08,0.43-0.16,0.58c-0.08,0.15-0.18,0.26-0.29,0.36c-0.11,0.08-0.24,0.16-0.37,0.21c-0.14,0.05-0.27,0.11-0.41,0.17
	c-0.1,0.04-0.17,0.08-0.24,0.12c-0.07,0.05-0.12,0.08-0.15,0.14c-0.04,0.05-0.06,0.11-0.08,0.18s-0.04,0.15-0.04,0.23l-1.48-0.14
	c0.01-0.08,0.01-0.18,0.03-0.3c0.01-0.13,0.04-0.25,0.08-0.39c0.05-0.13,0.11-0.25,0.2-0.37s0.22-0.21,0.38-0.29
	c0.07-0.02,0.15-0.05,0.23-0.08c0.09-0.03,0.17-0.06,0.26-0.1c0.08-0.04,0.15-0.08,0.21-0.15c0.06-0.06,0.09-0.13,0.1-0.22
	c0.03-0.27-0.11-0.42-0.42-0.46c-0.19-0.02-0.34,0.04-0.43,0.17C10.18,11.35,10.14,11.51,10.14,11.69z M9.49,13.86l1.66,0.17
	l-0.16,1.58l-1.66-0.16L9.49,13.86z M13.59,45.29l-4.14,1.19l-1.13-3.94l4.14-1.19L13.59,45.29z M3.63,37.89
	c-0.14-0.64-0.18-1.28-0.15-1.95c0.04-0.67,0.21-1.3,0.51-1.9c0.29-0.6,0.75-1.16,1.35-1.65c0.6-0.5,1.39-0.88,2.38-1.17
	c0.97-0.28,1.82-0.38,2.56-0.31c0.73,0.06,1.37,0.24,1.89,0.53c0.53,0.29,0.96,0.65,1.29,1.08c0.33,0.44,0.58,0.87,0.73,1.29
	c0.18,0.61,0.24,1.13,0.19,1.55c-0.05,0.43-0.17,0.8-0.36,1.13c-0.19,0.33-0.41,0.62-0.69,0.88c-0.27,0.26-0.54,0.52-0.83,0.79
	c-0.19,0.19-0.35,0.36-0.46,0.52c-0.11,0.16-0.19,0.31-0.23,0.47c-0.04,0.16-0.06,0.33-0.04,0.51c0.01,0.18,0.06,0.39,0.12,0.61
	l-3.69,1.06c-0.07-0.19-0.15-0.44-0.23-0.75c-0.1-0.32-0.15-0.65-0.17-1.01c-0.01-0.35,0.03-0.71,0.14-1.09
	c0.1-0.38,0.32-0.73,0.65-1.05c0.14-0.13,0.29-0.27,0.48-0.43c0.19-0.14,0.36-0.31,0.52-0.48c0.16-0.17,0.28-0.35,0.37-0.55
	c0.09-0.2,0.1-0.4,0.04-0.63c-0.19-0.67-0.67-0.9-1.45-0.68c-0.48,0.13-0.77,0.4-0.87,0.81c-0.1,0.4-0.07,0.82,0.1,1.25L3.63,37.89z
	 M48.48,10.47l1.13,3.94l-4.14,1.19l-1.13-3.94L48.48,10.47z M39.66,7.01c-0.14-0.64-0.19-1.29-0.15-1.95
	c0.04-0.67,0.21-1.3,0.51-1.9c0.3-0.6,0.75-1.16,1.35-1.65c0.59-0.49,1.39-0.88,2.37-1.17c0.96-0.28,1.82-0.38,2.56-0.32
	c0.74,0.07,1.37,0.26,1.9,0.54c0.53,0.28,0.96,0.64,1.29,1.08c0.33,0.43,0.57,0.85,0.73,1.29c0.18,0.61,0.22,1.13,0.18,1.55
	c-0.05,0.43-0.17,0.8-0.36,1.13c-0.18,0.32-0.41,0.62-0.68,0.87C49.09,6.73,48.81,7,48.54,7.27c-0.2,0.19-0.35,0.35-0.46,0.52
	c-0.11,0.16-0.19,0.32-0.23,0.48c-0.04,0.15-0.06,0.32-0.04,0.51c0.02,0.18,0.06,0.39,0.13,0.61l-3.69,1.05
	c-0.07-0.19-0.15-0.44-0.24-0.75c-0.1-0.32-0.15-0.65-0.16-1.01c-0.01-0.35,0.03-0.71,0.14-1.09c0.1-0.38,0.32-0.73,0.65-1.05
	c0.14-0.13,0.3-0.26,0.48-0.42c0.19-0.16,0.35-0.32,0.52-0.48c0.16-0.17,0.28-0.35,0.37-0.55c0.09-0.2,0.1-0.41,0.04-0.63
	c-0.19-0.67-0.68-0.9-1.44-0.69c-0.48,0.14-0.77,0.41-0.87,0.81c-0.1,0.41-0.07,0.82,0.1,1.25L39.66,7.01z M22.85,53.29l-3.17-0.6
	c0.12-0.47,0.31-0.92,0.56-1.35c0.25-0.42,0.57-0.79,0.97-1.09c0.4-0.3,0.89-0.52,1.45-0.65c0.56-0.13,1.22-0.13,1.97,0.01
	c0.74,0.13,1.34,0.35,1.81,0.65c0.47,0.3,0.83,0.63,1.08,0.99c0.26,0.37,0.42,0.76,0.5,1.16c0.08,0.4,0.09,0.76,0.05,1.1
	c-0.08,0.46-0.21,0.83-0.39,1.09c-0.18,0.27-0.38,0.47-0.61,0.64c-0.23,0.15-0.48,0.27-0.75,0.34c-0.27,0.08-0.54,0.17-0.81,0.25
	c-0.19,0.06-0.35,0.12-0.48,0.19c-0.13,0.06-0.23,0.14-0.31,0.24c-0.08,0.09-0.14,0.19-0.19,0.31c-0.05,0.13-0.09,0.28-0.12,0.45
	l-2.81-0.53c0.02-0.14,0.05-0.34,0.1-0.58c0.04-0.24,0.12-0.48,0.23-0.73c0.1-0.24,0.26-0.46,0.46-0.68
	c0.2-0.21,0.46-0.37,0.78-0.48c0.14-0.04,0.29-0.07,0.46-0.11c0.18-0.04,0.34-0.09,0.51-0.15c0.16-0.06,0.3-0.13,0.43-0.24
	c0.12-0.1,0.2-0.23,0.24-0.42c0.1-0.51-0.15-0.82-0.74-0.93c-0.36-0.07-0.65,0.01-0.85,0.24C23,52.66,22.89,52.95,22.85,53.29z
	 M21.25,57.36l3.15,0.59l-0.56,3l-3.15-0.59L21.25,57.36z"/>
</svg>
