<?xml version="1.0" encoding="utf-8"?>
<!-- Generator: Adobe Illustrator 12.0.0, SVG Export Plug-In  -->
<!DOCTYPE svg PUBLIC "-//W3C//DTD SVG 1.1//EN" "http://www.w3.org/Graphics/SVG/1.1/DTD/svg11.dtd" [
	<!ENTITY ns_flows "http://ns.adobe.com/Flows/1.0/">
	<!ENTITY ns_svg "http://www.w3.org/2000/svg">
	<!ENTITY ns_xlink "http://www.w3.org/1999/xlink">
]>
<svg  version="1.1" xmlns="&ns_svg;" xmlns:xlink="&ns_xlink;" xmlns:a="http://ns.adobe.com/AdobeSVGViewerExtensions/3.0/"
	 width="76" height="43" viewBox="-0.67 -0.51 76 43" enable-background="new -0.67 -0.51 76 43" xml:space="preserve">
<defs>
</defs>
<path fill="#666666" d="M27.69,29.42c-3.45,0-6.24,2.8-6.24,6.25c0,3.44,2.79,6.24,6.24,6.24c3.45,0,6.24-2.8,6.24-6.24
	C33.93,32.22,31.14,29.42,27.69,29.42z M27.69,38.79c-1.72,0-3.12-1.4-3.12-3.12c0-1.72,1.39-3.12,3.12-3.12s3.12,1.39,3.12,3.12
	C30.81,37.38,29.41,38.79,27.69,38.79z M74.73,24.81v6.66c0,1.66-1.35,3.01-3.01,3.01H68.5c-0.58-3.99-4.02-7.06-8.17-7.06
	c-4.14,0-7.58,3.07-8.16,7.06H35.85c-0.58-3.99-4.02-7.06-8.16-7.06c-4.14,0-7.58,3.07-8.16,7.06H15.5c-1.66,0-3.01-1.35-3.01-3.01
	v-6.66H74.73L74.73,24.81z M60.34,29.42c-3.45,0-6.25,2.8-6.25,6.25c0,3.44,2.8,6.24,6.25,6.24c3.44,0,6.24-2.8,6.24-6.24
	C66.58,32.22,63.78,29.42,60.34,29.42z M60.34,38.79c-1.72,0-3.12-1.4-3.12-3.12c0-1.72,1.39-3.12,3.12-3.12
	c1.71,0,3.12,1.39,3.12,3.12C63.46,37.38,62.05,38.79,60.34,38.79z M73.55,18.1L61.72,6.41c-0.75-0.74-1.77-1.16-2.82-1.16h-5.97
	V3.01C52.94,1.34,51.6,0,49.93,0H15.5c-1.65,0-3.01,1.34-3.01,3.01v0.47L0.28,4.89L21.91,7.7L0,9.88l21.83,3.11L0,14.88l12.49,2.36
	l0,5.91h62.24v-2.2C74.73,19.87,74.3,18.85,73.55,18.1z M68.39,18.49H56.95c-0.26,0-0.47-0.21-0.47-0.47V9.18
	c0-0.26,0.21-0.47,0.47-0.47h2.18c0.12,0,0.24,0.05,0.33,0.13l9.26,8.83C69.02,17.97,68.81,18.49,68.39,18.49z"/>
</svg>
