<?xml version="1.0" encoding="utf-8"?>
<!-- Generator: Adobe Illustrator 12.0.0, SVG Export Plug-In  -->
<!DOCTYPE svg PUBLIC "-//W3C//DTD SVG 1.1//EN" "http://www.w3.org/Graphics/SVG/1.1/DTD/svg11.dtd" [
	<!ENTITY ns_flows "http://ns.adobe.com/Flows/1.0/">
	<!ENTITY ns_svg "http://www.w3.org/2000/svg">
	<!ENTITY ns_xlink "http://www.w3.org/1999/xlink">
]>
<svg  version="1.1" xmlns="&ns_svg;" xmlns:xlink="&ns_xlink;" xmlns:a="http://ns.adobe.com/AdobeSVGViewerExtensions/3.0/"
	 width="52" height="51" viewBox="-0.55 -0.51 52 51" enable-background="new -0.55 -0.51 52 51" xml:space="preserve">
<defs>
</defs>
<polygon fill="#A31199" points="40.08,0 12.33,0 10.68,12.39 41.73,12.39 "/>
<path fill="#A31199" d="M49.55,13.34h-6.73h-0.54h-0.42H10.55h-0.42H9.59H1.43C0.64,13.34,0,13.98,0,14.77v22.87
	c0,0.79,0.64,1.43,1.43,1.43H12.9l-0.51,0.95l-5.08,9.53H8.1h36.21h0.79l-5.08-9.53l-0.51-0.95h10.51c0.79,0,1.43-0.64,1.43-1.43
	V15.25C51.45,14.19,50.6,13.34,49.55,13.34z M13.34,30.01c0-0.81,0.66-1.43,1.53-1.43l0,0l0,0h22.92l0,0l0,0
	c1.18,0,1.28,1.09,1.28,1.43v5.72c0,0.26-0.06,0.98-0.65,1.29l-1.45-2.71H15.43l-1.4,2.64c-0.42-0.25-0.69-0.69-0.69-1.21V30.01z
	 M43.51,48.59H8.89l4.57-8.58l0.51-0.95l0.53-0.99l0.01-0.01l0.48-0.9l1.02-1.91H36.4l1.02,1.91l0.5,0.93l0,0.01l0.51,0.96
	l0.51,0.95L43.51,48.59z M45.66,20.96c-0.96,0-1.75-0.78-1.75-1.75c0-0.97,0.78-1.75,1.75-1.75c0.96,0,1.75,0.78,1.75,1.75
	C47.4,20.18,46.62,20.96,45.66,20.96z"/>
<rect x="13.34" y="45.74" fill="#A31199" width="14.29" height="0.95"/>
<rect x="14.29" y="43.83" fill="#A31199" width="23.82" height="0.95"/>
<rect x="15.25" y="41.92" fill="#A31199" width="21.91" height="0.95"/>
<polygon fill="#A31199" points="35.62,40.02 35.23,39.07 34.85,38.11 34.46,37.16 29.54,37.16 29.49,38.11 29.44,39.07 29.39,40.02 
	29.34,40.97 36.01,40.97 "/>
</svg>
