<?xml version="1.0" encoding="utf-8"?>
<!-- Generator: Adobe Illustrator 12.0.0, SVG Export Plug-In  -->
<!DOCTYPE svg PUBLIC "-//W3C//DTD SVG 1.1//EN" "http://www.w3.org/Graphics/SVG/1.1/DTD/svg11.dtd" [
	<!ENTITY ns_flows "http://ns.adobe.com/Flows/1.0/">
	<!ENTITY ns_svg "http://www.w3.org/2000/svg">
	<!ENTITY ns_xlink "http://www.w3.org/1999/xlink">
]>
<svg  version="1.1" xmlns="&ns_svg;" xmlns:xlink="&ns_xlink;" xmlns:a="http://ns.adobe.com/AdobeSVGViewerExtensions/3.0/"
	 width="22" height="22" viewBox="-0.64 -0.05 22 22" enable-background="new -0.64 -0.05 22 22" xml:space="preserve">
<defs>
</defs>
<path fill="#A31199" d="M10.68,0C4.78,0,0,4.78,0,10.68c0,5.9,4.78,10.68,10.68,10.68s10.68-4.78,10.68-10.68
	C21.36,4.78,16.58,0,10.68,0z M11.57,17.84c-0.33,0.33-0.8,0.5-1.38,0.5c-0.6,0-1.07-0.16-1.4-0.49c-0.34-0.32-0.51-0.78-0.51-1.36
	c0-0.6,0.17-1.06,0.5-1.38c0.33-0.31,0.8-0.47,1.41-0.47c0.59,0,1.06,0.16,1.39,0.48c0.33,0.32,0.5,0.78,0.5,1.37
	C12.08,17.06,11.9,17.51,11.57,17.84z M14.87,8.76c-0.34,0.54-0.99,1.16-1.93,1.84c-0.61,0.45-1.01,0.8-1.16,1.03
	c-0.15,0.22-0.22,0.51-0.22,0.87v0.43c0,0.18-0.15,0.33-0.33,0.33h-2.3c-0.18,0-0.33-0.15-0.33-0.33v-0.57
	c0-0.66,0.14-1.25,0.43-1.74c0.28-0.49,0.8-1.01,1.53-1.55c0.68-0.49,1.13-0.88,1.34-1.18c0.2-0.28,0.3-0.6,0.3-0.95
	c0-0.38-0.13-0.66-0.41-0.85c-0.29-0.2-0.71-0.31-1.24-0.31c-0.92,0-1.99,0.3-3.18,0.88C7.21,6.75,7.02,6.68,6.94,6.52L6,4.64
	C5.92,4.48,5.98,4.29,6.14,4.2c1.45-0.79,3.01-1.18,4.63-1.18c1.4,0,2.52,0.34,3.35,1.02c0.84,0.68,1.27,1.61,1.27,2.75
	C15.39,7.54,15.22,8.2,14.87,8.76z"/>
</svg>
