<?xml version="1.0" encoding="utf-8"?>
<!-- Generator: Adobe Illustrator 12.0.0, SVG Export Plug-In  -->
<!DOCTYPE svg PUBLIC "-//W3C//DTD SVG 1.1//EN" "http://www.w3.org/Graphics/SVG/1.1/DTD/svg11.dtd" [
	<!ENTITY ns_flows "http://ns.adobe.com/Flows/1.0/">
	<!ENTITY ns_svg "http://www.w3.org/2000/svg">
	<!ENTITY ns_xlink "http://www.w3.org/1999/xlink">
]>
<svg  version="1.1" xmlns="&ns_svg;" xmlns:xlink="&ns_xlink;" xmlns:a="http://ns.adobe.com/AdobeSVGViewerExtensions/3.0/"
	 width="50" height="53" viewBox="-0.56 -0.86 50 53" enable-background="new -0.56 -0.86 50 53" xml:space="preserve">
<defs>
</defs>
<g>
	<g>
		<g>
			<path fill="#5F5F5F" d="M24.33,3.24c-1.22,0-2.42,0.09-3.59,0.26c-0.02-0.04-0.03-0.08-0.05-0.12c0.65-0.51,0.99-1.21,0.84-1.9
				C21.34,0.6,20.4,0,19.18,0c-0.26,0-0.53,0.03-0.8,0.08c-1.53,0.33-2.54,1.45-2.3,2.56c0.14,0.68,0.72,1.18,1.53,1.39
				c0,0.05,0,0.1,0,0.15C7.44,7.1,0,16.47,0,27.57C0,41.01,10.89,51.9,24.33,51.9s24.33-10.89,24.33-24.33
				C48.65,14.14,37.76,3.24,24.33,3.24z M16.87,2.48c-0.14-0.64,0.63-1.38,1.68-1.6c0.21-0.04,0.42-0.07,0.63-0.07
				c0.81,0,1.45,0.35,1.56,0.85c0.08,0.38-0.16,0.79-0.58,1.11c-0.36-0.25-0.81-0.36-1.27-0.26c-0.46,0.1-0.83,0.38-1.05,0.75
				C17.32,3.13,16.95,2.85,16.87,2.48z M37.37,40.62c-2.23,2.23-4.93,3.81-7.87,4.67l-2.15-3.48l-0.54,4.05
				c-0.82,0.11-1.64,0.17-2.48,0.17c-4.93,0-9.56-1.92-13.04-5.4c-2.23-2.23-3.81-4.93-4.67-7.87l3.48-2.15l-4.05-0.54
				c-0.11-0.82-0.17-1.64-0.17-2.48c0-4.93,1.92-9.56,5.4-13.04c2.23-2.23,4.93-3.82,7.87-4.67l2.15,3.48l0.54-4.05
				c0.82-0.11,1.64-0.17,2.48-0.17c4.93,0,9.56,1.92,13.04,5.4c2.23,2.23,3.82,4.93,4.67,7.87l-3.49,2.15l4.05,0.54
				c0.11,0.82,0.17,1.64,0.17,2.48C42.77,32.5,40.86,37.13,37.37,40.62z M36.94,14.96l-9.98,7.59c-0.74-0.39-1.56-0.61-2.4-0.65
				l-2.59-5.43l-0.16,6.01c-0.67,0.33-1.27,0.79-1.77,1.37l-3.2-1.13l2.34,2.46c-0.32,0.69-0.5,1.42-0.53,2.17l-5.43,2.59l6.02,0.15
				c0.02,0.04,0.04,0.08,0.06,0.12l-7.59,9.98l9.98-7.59c0.74,0.39,1.57,0.61,2.4,0.65l2.59,5.43l0.16-6.01
				c0.67-0.33,1.27-0.79,1.77-1.37l3.2,1.13l-2.34-2.46c0.32-0.69,0.5-1.42,0.53-2.17l5.43-2.59l-6.02-0.16
				c-0.02-0.04-0.04-0.08-0.06-0.12L36.94,14.96z M24.33,22.53v0.17V22.53L24.33,22.53z M23.32,22.81c0.34-0.07,0.68-0.11,1.02-0.11
				c0.21,0,0.42,0.01,0.62,0.04h0.01l0,0c0.44,0.06,0.87,0.18,1.27,0.35l-3.63,2.76l-2.76,3.63c-0.12-0.28-0.21-0.58-0.28-0.9
				C19.01,25.95,20.69,23.37,23.32,22.81z M26.87,31.72L26.87,31.72L26.87,31.72c-0.46,0.28-0.97,0.49-1.53,0.61
				c-0.34,0.07-0.68,0.11-1.01,0.11c-0.21,0-0.42-0.01-0.62-0.04l0,0l0,0c-0.44-0.06-0.87-0.18-1.27-0.35l3.63-2.76l2.76-3.63
				c0.12,0.28,0.22,0.58,0.28,0.9C29.53,28.63,28.58,30.67,26.87,31.72z"/>
		</g>
	</g>
</g>
</svg>
