<?xml version="1.0" encoding="utf-8"?>
<!-- Generator: Adobe Illustrator 12.0.0, SVG Export Plug-In  -->
<!DOCTYPE svg PUBLIC "-//W3C//DTD SVG 1.1//EN" "http://www.w3.org/Graphics/SVG/1.1/DTD/svg11.dtd" [
	<!ENTITY ns_flows "http://ns.adobe.com/Flows/1.0/">
	<!ENTITY ns_svg "http://www.w3.org/2000/svg">
	<!ENTITY ns_xlink "http://www.w3.org/1999/xlink">
]>
<svg  version="1.1" xmlns="&ns_svg;" xmlns:xlink="&ns_xlink;" xmlns:a="http://ns.adobe.com/AdobeSVGViewerExtensions/3.0/"
	 width="50" height="52" viewBox="-0.34 0 50 52" enable-background="new -0.34 0 50 52" xml:space="preserve">
<defs>
</defs>
<path fill="#A31199" d="M0.61,8.18l33.4,10.02c0.08,0.02,0.16,0.04,0.24,0.04c0.15,0,0.3-0.04,0.43-0.12l13.56-7.96
	c0.3-0.17,0.46-0.51,0.41-0.85c-0.05-0.34-0.3-0.62-0.63-0.7l-33.4-8.58c-0.19-0.05-0.4-0.03-0.58,0.06L0.48,6.61
	C0.17,6.76-0.02,7.09,0,7.44C0.03,7.79,0.27,8.08,0.61,8.18z M14.5,1.75l31.11,7.99l-11.47,6.73L3.19,7.19L14.5,1.75z"/>
<path fill="#A31199" d="M47.39,12.06l-13.25,7.77L1.09,9.92c-0.45-0.13-0.92,0.12-1.06,0.57c-0.13,0.45,0.12,0.92,0.57,1.06
	l33.76,10.13l13.88-8.15c0.41-0.24,0.54-0.75,0.3-1.16S47.79,11.83,47.39,12.06z"/>
<path fill="#A31199" d="M47.39,15.43L34.14,23.2L1.09,13.29c-0.45-0.13-0.92,0.12-1.06,0.57s0.12,0.92,0.57,1.06l33.76,10.12
	l13.88-8.14c0.41-0.24,0.54-0.76,0.3-1.16C48.31,15.33,47.79,15.19,47.39,15.43z"/>
<path fill="#A31199" d="M47.39,18.79l-13.25,7.77L1.09,16.65c-0.45-0.13-0.92,0.12-1.06,0.57c-0.13,0.45,0.12,0.92,0.57,1.06
	L34.36,28.4l13.88-8.15c0.41-0.24,0.54-0.76,0.3-1.16C48.31,18.69,47.79,18.56,47.39,18.79z"/>
<path fill="#A31199" d="M47.39,22.16l-13.25,7.77L1.09,20.01c-0.45-0.13-0.92,0.12-1.06,0.57c-0.13,0.45,0.12,0.92,0.57,1.06
	l33.76,10.13l13.88-8.14c0.41-0.24,0.54-0.76,0.3-1.16C48.31,22.05,47.79,21.92,47.39,22.16z"/>
<path fill="#A31199" d="M47.39,25.52l-13.25,7.77L1.09,23.38c-0.45-0.13-0.92,0.12-1.06,0.57C-0.1,24.39,0.16,24.87,0.61,25
	l33.76,10.12l13.88-8.14c0.41-0.24,0.54-0.76,0.3-1.16C48.31,25.42,47.79,25.28,47.39,25.52z"/>
<path fill="#A31199" d="M47.39,28.88l-13.25,7.77L1.09,26.74c-0.45-0.13-0.92,0.12-1.06,0.57c-0.13,0.45,0.12,0.92,0.57,1.05
	l33.76,10.13l13.88-8.15c0.41-0.24,0.54-0.76,0.3-1.16S47.79,28.65,47.39,28.88z"/>
<path fill="#A31199" d="M47.39,32.25l-13.25,7.77L1.09,30.1c-0.45-0.14-0.92,0.12-1.06,0.57c-0.13,0.45,0.12,0.92,0.57,1.06
	l33.76,10.13l13.88-8.15c0.41-0.24,0.54-0.75,0.3-1.16C48.31,32.14,47.79,32.01,47.39,32.25z"/>
<path fill="#A31199" d="M47.39,35.61l-13.25,7.77L1.09,33.47c-0.45-0.13-0.92,0.12-1.06,0.57s0.12,0.92,0.57,1.06l33.76,10.13
	l13.88-8.15c0.41-0.24,0.54-0.76,0.3-1.16C48.31,35.51,47.79,35.37,47.39,35.61z"/>
<path fill="#A31199" d="M47.39,38.97l-13.25,7.77L1.09,36.82c-0.45-0.13-0.92,0.12-1.06,0.57c-0.13,0.45,0.12,0.92,0.57,1.06
	l33.76,10.13l13.88-8.14c0.41-0.24,0.54-0.76,0.3-1.16C48.31,38.86,47.79,38.73,47.39,38.97z"/>
<path fill="#A31199" d="M47.39,42.33L34.14,50.1L1.09,40.19c-0.45-0.13-0.92,0.12-1.06,0.57c-0.13,0.45,0.12,0.92,0.57,1.06
	l33.76,10.12l13.88-8.14c0.41-0.24,0.54-0.76,0.3-1.16C48.31,42.23,47.79,42.09,47.39,42.33z"/>
</svg>
