<?xml version="1.0" encoding="utf-8"?>
<!-- Generator: Adobe Illustrator 12.0.0, SVG Export Plug-In  -->
<!DOCTYPE svg PUBLIC "-//W3C//DTD SVG 1.1//EN" "http://www.w3.org/Graphics/SVG/1.1/DTD/svg11.dtd" [
	<!ENTITY ns_flows "http://ns.adobe.com/Flows/1.0/">
	<!ENTITY ns_svg "http://www.w3.org/2000/svg">
	<!ENTITY ns_xlink "http://www.w3.org/1999/xlink">
]>
<svg  version="1.1" xmlns="&ns_svg;" xmlns:xlink="&ns_xlink;" xmlns:a="http://ns.adobe.com/AdobeSVGViewerExtensions/3.0/"
	 width="50" height="53" viewBox="-0.28 -0.82 50 53" enable-background="new -0.28 -0.82 50 53" xml:space="preserve">
<defs>
</defs>
<rect y="12.78" width="14.35" height="10.35"/>
<path d="M14.35,1.6c0-0.88-0.72-1.6-1.6-1.6H1.6C0.72,0,0,0.72,0,1.6v8.12h14.35V1.6L14.35,1.6z"/>
<path d="M14.35,47.72v-8.12H0v8.12c0,0.88,0.72,1.6,1.6,1.6h11.15C13.63,49.31,14.35,48.6,14.35,47.72z M7.17,42.98
	c0.81,0,1.47,0.66,1.47,1.47c0,0.81-0.66,1.47-1.47,1.47c-0.81,0-1.47-0.66-1.47-1.47C5.7,43.64,6.36,42.98,7.17,42.98z"/>
<rect y="26.19" width="14.35" height="10.35"/>
<polygon points="30.07,19.06 18.2,12.4 16.17,16.02 16.17,22.53 25.26,27.63 "/>
<path d="M35.25,9.83c0.2-0.35,0.25-0.77,0.14-1.16c-0.11-0.39-0.37-0.72-0.72-0.92l-9.21-5.17c-0.23-0.13-0.49-0.2-0.74-0.2
	c-0.55,0-1.06,0.3-1.33,0.78l-3.77,6.72l11.87,6.67L35.25,9.83z"/>
<polygon points="16.17,40.4 16.17,43.83 17.63,41.22 "/>
<polygon points="23.85,30.14 16.17,25.83 16.17,37.1 19.04,38.71 "/>
<polygon points="32.15,20.52 30.36,21.96 26.39,29.03 33,37.28 40.67,31.14 32.27,20.66 "/>
<path d="M49.16,22.38l-6.61-8.24c-0.29-0.36-0.72-0.57-1.19-0.57c-0.34,0-0.68,0.12-0.95,0.33l-6.01,4.82l8.51,10.62l6.01-4.82
	C49.58,23.99,49.69,23.03,49.16,22.38z"/>
<path d="M16.59,46.48v1.24c0,1.48-1.2,2.68-2.68,2.68h-2.2l0.98,1.22c0.29,0.36,0.72,0.57,1.19,0.57c0.34,0,0.68-0.12,0.95-0.33
	l6.01-4.82l-2.68-3.35L16.59,46.48z"/>
<polygon points="19.68,40.98 23.09,45.23 30.75,39.08 24.87,31.74 "/>
</svg>
