<?xml version="1.0" encoding="utf-8"?>
<!-- Generator: Adobe Illustrator 12.0.0, SVG Export Plug-In  -->
<!DOCTYPE svg PUBLIC "-//W3C//DTD SVG 1.1//EN" "http://www.w3.org/Graphics/SVG/1.1/DTD/svg11.dtd" [
	<!ENTITY ns_flows "http://ns.adobe.com/Flows/1.0/">
	<!ENTITY ns_svg "http://www.w3.org/2000/svg">
	<!ENTITY ns_xlink "http://www.w3.org/1999/xlink">
]>
<svg  version="1.1" xmlns="&ns_svg;" xmlns:xlink="&ns_xlink;" xmlns:a="http://ns.adobe.com/AdobeSVGViewerExtensions/3.0/"
	 width="57" height="54" viewBox="-0.57 -0.46 57 54" enable-background="new -0.57 -0.46 57 54" xml:space="preserve">
<defs>
</defs>
<path d="M17.16,31.5c1.15,0.92,2.19,1.38,3.09,1.38c0.39,0,0.76-0.09,1.1-0.25c1.15-0.57,1.59-1.93,1.76-3.07
	c0.56,0.42,1.09,0.86,1.56,1.32c0.07,0.07,0.18,0.06,0.24,0l1.19-1.22c0.07-0.07,0.06-0.17,0-0.24c-0.86-0.83-1.84-1.6-2.92-2.28
	c-0.03-1.55-0.08-3.19-0.11-3.98h2.45c0.09,0,0.17-0.08,0.17-0.17v-1.7c0-0.09-0.08-0.17-0.17-0.17h-9.68
	c-0.09,0-0.17,0.08-0.17,0.17v1.7c0,0.09,0.08,0.17,0.17,0.17h5.19c0.02,0.63,0.05,1.68,0.08,2.83c-1.27-0.61-2.18-0.88-2.22-0.9
	c-0.53-0.16-1.01-0.23-1.45-0.23c-1.34,0-1.93,0.74-2.16,1.18C14.46,27.61,15.61,30.26,17.16,31.5z M17.09,26.98
	c0.02-0.03,0.11-0.08,0.35-0.08c0.23,0,0.53,0.05,0.87,0.15c0.01,0,1.27,0.39,2.85,1.27c0,1.02-0.28,2.26-0.72,2.48
	c-0.05,0.03-0.12,0.04-0.19,0.04c-0.41,0-1.06-0.34-1.8-0.93C17.41,29.08,16.84,27.46,17.09,26.98z"/>
<path d="M29.64,32.82c-0.03-0.06-0.09-0.1-0.16-0.1h-1.18c-0.07,0-0.13,0.04-0.15,0.1l-3.88,8.63c-0.02,0.05-0.02,0.11,0.01,0.16
	c0.03,0.05,0.08,0.08,0.14,0.08h1.9c0.07,0,0.13-0.04,0.15-0.1l0.75-1.55h3.33l0.75,1.55c0.03,0.06,0.09,0.1,0.15,0.1h1.9
	c0.06,0,0.11-0.03,0.14-0.08s0.04-0.11,0.01-0.16L29.64,32.82z M29.56,38h-1.33l0.67-1.37L29.56,38z"/>
<path d="M28.21,24.68h2.44c1.89,0,3.42,1.54,3.42,3.42v3.58l-2.8-2.81c-0.07-0.07-0.17-0.07-0.24,0l-1.21,1.21
	c-0.03,0.03-0.05,0.07-0.05,0.12c0,0.04,0.02,0.09,0.05,0.12l5.15,5.15c0.03,0.03,0.08,0.05,0.12,0.05c0.04,0,0.09-0.02,0.12-0.05
	l5.15-5.15c0.03-0.03,0.05-0.07,0.05-0.12c0-0.05-0.02-0.09-0.05-0.12l-1.21-1.21c-0.07-0.07-0.17-0.07-0.24,0l-2.81,2.81V28.1
	c0-3.01-2.45-5.46-5.46-5.46h-2.44c-0.09,0-0.17,0.08-0.17,0.17v1.7C28.04,24.61,28.11,24.68,28.21,24.68z"/>
<path d="M52.5,0H2.98C1.34,0,0,1.34,0,2.98v46.63c0,1.64,1.34,2.98,2.98,2.98H52.5c1.64,0,2.98-1.34,2.98-2.98V2.98
	C55.48,1.34,54.14,0,52.5,0z M46.6,4.57c1.36,0,2.47,1.11,2.47,2.47c0,1.36-1.11,2.47-2.47,2.47s-2.47-1.11-2.47-2.47
	C44.13,5.68,45.23,4.57,46.6,4.57z M38.22,4.57c1.36,0,2.47,1.11,2.47,2.47c0,1.36-1.11,2.47-2.47,2.47s-2.47-1.11-2.47-2.47
	C35.75,5.68,36.86,4.57,38.22,4.57z M7.57,5.77h9.97c0.71,0,1.28,0.57,1.28,1.28c0,0.71-0.57,1.28-1.28,1.28H7.57
	c-0.71,0-1.28-0.57-1.28-1.28C6.29,6.34,6.86,5.77,7.57,5.77z M50.74,47.43c0,0.21-0.17,0.39-0.39,0.39H5.13
	c-0.21,0-0.39-0.17-0.39-0.39V15.31h46.01V47.43z"/>
</svg>
