<?xml version="1.0" encoding="utf-8"?>
<!-- Generator: Adobe Illustrator 12.0.0, SVG Export Plug-In  -->
<!DOCTYPE svg PUBLIC "-//W3C//DTD SVG 1.1//EN" "http://www.w3.org/Graphics/SVG/1.1/DTD/svg11.dtd" [
	<!ENTITY ns_flows "http://ns.adobe.com/Flows/1.0/">
	<!ENTITY ns_svg "http://www.w3.org/2000/svg">
	<!ENTITY ns_xlink "http://www.w3.org/1999/xlink">
]>
<svg  version="1.1" xmlns="&ns_svg;" xmlns:xlink="&ns_xlink;" xmlns:a="http://ns.adobe.com/AdobeSVGViewerExtensions/3.0/"
	 width="145" height="34" viewBox="-0.3 -0.7 145 34" enable-background="new -0.3 -0.7 145 34" xml:space="preserve">
<defs>
</defs>
<path fill="#404040" d="M31.27,16.49c0,8.15-6.63,14.78-14.78,14.78S1.71,24.64,1.71,16.49c0-8.15,6.63-14.78,14.78-14.78
	S31.27,8.34,31.27,16.49z M16.49,0C7.4,0,0,7.4,0,16.49c0,9.09,7.4,16.49,16.49,16.49s16.49-7.4,16.49-16.49
	C32.99,7.4,25.59,0,16.49,0z"/>
<polygon fill="#404040" points="35.14,18.58 4.95,22 5.95,23.15 8.22,14.61 7.51,15.28 30.86,10.73 30.51,8.91 7.15,13.46 
	6.58,13.58 6.44,14.13 4.16,22.68 3.81,23.99 5.16,23.84 35.34,20.42 "/>
<polygon fill="#FFFFFF" points="38.37,18.93 10.75,24.91 8.19,14.09 33.82,9.25 "/>
<path fill="#404040" d="M38.18,18.02l-27.63,5.98l1.1,0.69L9.09,13.88L8.36,15l25.63-4.84l-1.01-0.52l4.56,9.68L38.18,18.02z
	 M33.64,8.34L8.01,13.18l-0.95,0.18l0.22,0.94l2.56,10.82l0.21,0.88l0.89-0.19l27.62-5.98l1.14-0.25l-0.5-1.05l-4.56-9.68L34.35,8.2
	L33.64,8.34z"/>
<polygon fill="#404040" points="17.44,17.79 15.92,18.57 15.7,20.26 14.49,19.06 12.81,19.37 13.58,17.85 12.76,16.35 14.45,16.61 
	15.62,15.37 15.89,17.06 "/>
<path fill="#404040" d="M20.34,18.13l11.96-2.56l0,0c0.5-0.11,0.82-0.6,0.71-1.1c-0.11-0.5-0.6-0.82-1.1-0.71v0l-11.96,2.56l0,0
	c-0.5,0.11-0.82,0.6-0.71,1.1C19.35,17.91,19.84,18.23,20.34,18.13L20.34,18.13z"/>
<path fill="#404040" d="M59.63,11.36c-0.16,0.02-0.4,0.05-0.7,0.1c-0.3,0.05-0.58,0.16-0.82,0.34c-0.22,0.16-0.37,0.43-0.46,0.81
	c-0.09,0.38-0.14,0.95-0.14,1.69v8.93h-1.59l-7.73-9.65v5.85c0,0.73,0.05,1.28,0.15,1.66s0.25,0.65,0.47,0.83
	c0.16,0.13,0.41,0.24,0.76,0.34s0.62,0.17,0.83,0.2v0.69h-5.39v-0.69c0.23-0.02,0.49-0.06,0.79-0.13c0.29-0.07,0.54-0.17,0.74-0.31
	c0.23-0.17,0.38-0.43,0.47-0.77c0.08-0.34,0.13-0.92,0.13-1.73v-5.91c0-0.29-0.04-0.57-0.13-0.83s-0.23-0.49-0.42-0.67
	c-0.2-0.2-0.44-0.36-0.7-0.47c-0.26-0.11-0.56-0.2-0.9-0.27v-0.69h4.7l6.77,8.43v-4.72c0-0.75-0.05-1.31-0.15-1.67
	s-0.26-0.64-0.47-0.81c-0.17-0.13-0.42-0.25-0.75-0.35s-0.6-0.16-0.81-0.2v-0.67h5.38V11.36z"/>
<path fill="#404040" d="M69.44,22.99c-0.26,0.11-0.56,0.21-0.91,0.31c-0.35,0.09-0.72,0.14-1.11,0.14c-0.72,0-1.24-0.11-1.58-0.32
	s-0.57-0.52-0.69-0.92h-0.05c-0.2,0.2-0.39,0.37-0.58,0.51s-0.38,0.26-0.59,0.36c-0.28,0.13-0.54,0.22-0.8,0.28
	c-0.26,0.06-0.61,0.09-1.07,0.09c-0.68,0-1.26-0.2-1.74-0.6c-0.48-0.4-0.72-0.93-0.72-1.59c0-0.38,0.05-0.71,0.16-0.97
	c0.11-0.27,0.25-0.5,0.45-0.71c0.18-0.19,0.38-0.34,0.61-0.47c0.23-0.12,0.48-0.24,0.76-0.34c0.53-0.19,1.16-0.39,1.9-0.6
	s1.28-0.39,1.62-0.56v-0.85c0-0.15-0.01-0.34-0.04-0.58s-0.07-0.44-0.15-0.61c-0.08-0.19-0.21-0.35-0.39-0.48
	c-0.18-0.13-0.41-0.19-0.7-0.19c-0.26,0-0.47,0.04-0.65,0.11c-0.17,0.07-0.31,0.15-0.42,0.22c0.02,0.12,0.07,0.3,0.15,0.53
	c0.08,0.24,0.12,0.47,0.12,0.69c0,0.1-0.03,0.22-0.08,0.37s-0.13,0.27-0.23,0.35c-0.14,0.12-0.29,0.21-0.45,0.27s-0.42,0.1-0.77,0.1
	c-0.49,0-0.87-0.12-1.12-0.36C60.12,16.95,60,16.65,60,16.27c0-0.33,0.13-0.62,0.39-0.88c0.26-0.26,0.58-0.48,0.96-0.65
	c0.37-0.17,0.79-0.31,1.28-0.41s0.93-0.15,1.34-0.15c0.57,0,1.09,0.03,1.57,0.1s0.9,0.21,1.29,0.42c0.36,0.21,0.65,0.5,0.87,0.89
	c0.21,0.39,0.32,0.9,0.32,1.53c0,0.66-0.01,1.45-0.04,2.36c-0.03,0.91-0.04,1.51-0.04,1.79c0,0.26,0.04,0.47,0.12,0.63
	s0.2,0.27,0.36,0.34c0.1,0.05,0.25,0.08,0.46,0.08s0.4,0.01,0.58,0.01V22.99z M65.09,18.41c-0.33,0.11-0.66,0.24-0.98,0.38
	c-0.32,0.14-0.59,0.29-0.79,0.45c-0.22,0.16-0.39,0.37-0.51,0.63c-0.12,0.25-0.18,0.55-0.18,0.9c0,0.46,0.1,0.79,0.31,0.99
	c0.21,0.21,0.47,0.31,0.77,0.31c0.32,0,0.59-0.07,0.8-0.2c0.21-0.13,0.39-0.29,0.55-0.49L65.09,18.41z"/>
<path fill="#404040" d="M86.7,23.16h-5.23v-0.64c0.13-0.02,0.26-0.03,0.4-0.04s0.26-0.04,0.35-0.09c0.13-0.06,0.21-0.16,0.24-0.29
	s0.05-0.32,0.05-0.53v-4.12c0-0.6-0.11-1.06-0.32-1.36c-0.21-0.3-0.52-0.45-0.92-0.45c-0.25,0-0.48,0.04-0.67,0.12
	c-0.2,0.08-0.38,0.18-0.54,0.3c-0.17,0.12-0.3,0.25-0.39,0.37s-0.17,0.23-0.24,0.32v4.73c0,0.21,0.02,0.38,0.07,0.51
	c0.05,0.13,0.14,0.24,0.27,0.31c0.09,0.05,0.2,0.1,0.32,0.14c0.12,0.04,0.25,0.07,0.38,0.09v0.64h-5v-0.64
	c0.11-0.01,0.24-0.03,0.4-0.04s0.27-0.05,0.35-0.09c0.12-0.06,0.2-0.16,0.24-0.28c0.04-0.12,0.06-0.31,0.06-0.55v-4.12
	c0-0.6-0.11-1.06-0.32-1.36c-0.21-0.3-0.52-0.45-0.92-0.45c-0.25,0-0.48,0.04-0.67,0.12c-0.2,0.08-0.38,0.18-0.54,0.3
	c-0.17,0.12-0.3,0.25-0.39,0.37s-0.17,0.23-0.24,0.32v4.73c0,0.21,0.03,0.38,0.08,0.51c0.05,0.13,0.14,0.24,0.28,0.32
	c0.09,0.05,0.2,0.1,0.32,0.14c0.12,0.04,0.24,0.07,0.38,0.09v0.64h-5.27v-0.64c0.15-0.01,0.3-0.03,0.45-0.04s0.27-0.05,0.38-0.09
	c0.19-0.07,0.32-0.17,0.38-0.3c0.07-0.13,0.11-0.31,0.11-0.52v-5.11c0-0.19-0.05-0.37-0.15-0.55c-0.1-0.18-0.22-0.32-0.36-0.42
	c-0.11-0.07-0.24-0.13-0.4-0.18s-0.34-0.08-0.53-0.1v-0.64l4.21-0.23l0.13,0.13v1.23h0.04c0.16-0.15,0.36-0.32,0.58-0.52
	c0.23-0.2,0.44-0.37,0.64-0.49c0.22-0.14,0.49-0.26,0.83-0.35c0.34-0.09,0.71-0.14,1.12-0.14c0.67,0,1.22,0.15,1.67,0.44
	c0.45,0.29,0.76,0.68,0.95,1.16h0.08c0.17-0.16,0.38-0.34,0.62-0.56c0.25-0.21,0.47-0.39,0.68-0.52c0.23-0.15,0.52-0.27,0.87-0.37
	c0.35-0.1,0.73-0.15,1.14-0.15c0.88,0,1.56,0.26,2.04,0.78c0.48,0.52,0.71,1.26,0.71,2.23v4.28c0,0.22,0.03,0.39,0.1,0.52
	c0.06,0.13,0.18,0.23,0.35,0.3c0.09,0.04,0.21,0.08,0.35,0.12c0.14,0.04,0.3,0.07,0.48,0.09V23.16z"/>
<path fill="#404040" d="M96.06,21.06c-0.21,0.33-0.45,0.65-0.74,0.94c-0.29,0.3-0.62,0.55-0.99,0.76c-0.39,0.22-0.79,0.39-1.19,0.5
	c-0.4,0.11-0.86,0.17-1.38,0.17c-0.87,0-1.62-0.12-2.25-0.37c-0.63-0.25-1.15-0.58-1.56-0.99c-0.41-0.42-0.72-0.91-0.92-1.47
	c-0.2-0.56-0.3-1.18-0.3-1.84c0-0.6,0.11-1.17,0.33-1.72s0.53-1.03,0.94-1.46c0.4-0.42,0.9-0.75,1.51-1.01
	c0.61-0.26,1.29-0.39,2.04-0.39c0.82,0,1.49,0.1,2.02,0.3c0.53,0.2,0.96,0.47,1.31,0.82c0.33,0.33,0.58,0.73,0.73,1.18
	s0.23,0.93,0.23,1.42v0.57h-5.94c0,1.2,0.23,2.12,0.69,2.75c0.46,0.63,1.2,0.94,2.2,0.94c0.55,0,1.04-0.15,1.48-0.45
	s0.81-0.68,1.12-1.14L96.06,21.06z M92.7,17.72c0-0.35-0.02-0.71-0.05-1.08s-0.1-0.67-0.18-0.9c-0.1-0.27-0.24-0.48-0.41-0.62
	c-0.17-0.14-0.39-0.21-0.65-0.21c-0.45,0-0.81,0.23-1.08,0.68c-0.27,0.46-0.41,1.18-0.44,2.16L92.7,17.72z"/>
<path fill="#404040" d="M111.47,13.8c0,0.7-0.14,1.31-0.43,1.81s-0.69,0.92-1.2,1.23c-0.53,0.33-1.13,0.56-1.8,0.71
	s-1.44,0.22-2.28,0.22h-1.02v3.51c0,0.21,0.04,0.39,0.12,0.55c0.08,0.16,0.23,0.28,0.46,0.37c0.12,0.05,0.31,0.1,0.58,0.15
	c0.27,0.05,0.49,0.09,0.67,0.11v0.69h-6.78v-0.69c0.17-0.02,0.4-0.04,0.68-0.08s0.48-0.07,0.59-0.12c0.23-0.09,0.38-0.21,0.45-0.34
	c0.07-0.13,0.11-0.32,0.11-0.56v-8.79c0-0.21-0.04-0.38-0.11-0.53s-0.22-0.27-0.46-0.37c-0.16-0.07-0.38-0.13-0.65-0.19
	c-0.27-0.06-0.48-0.09-0.61-0.11v-0.69h6.88c1.61,0,2.81,0.26,3.61,0.77C111.07,11.97,111.47,12.75,111.47,13.8z M108.04,14.25
	c0-0.94-0.19-1.63-0.57-2.08c-0.38-0.45-1.05-0.68-2.02-0.68h-0.73v5.47h0.37c0.96,0,1.69-0.22,2.19-0.66S108.04,15.17,108.04,14.25
	z"/>
<path fill="#404040" d="M116.77,23.16h-5.53v-0.64c0.15-0.01,0.3-0.03,0.45-0.04c0.14-0.02,0.27-0.05,0.38-0.09
	c0.19-0.07,0.32-0.17,0.38-0.3s0.1-0.31,0.1-0.52v-9.74c0-0.22-0.04-0.43-0.14-0.62s-0.21-0.34-0.36-0.44
	c-0.12-0.08-0.29-0.15-0.53-0.22s-0.45-0.11-0.63-0.12V9.78l4.43-0.23l0.13,0.14v11.76c0,0.22,0.04,0.39,0.12,0.53
	s0.2,0.24,0.37,0.32c0.12,0.05,0.24,0.1,0.37,0.14c0.13,0.04,0.28,0.07,0.46,0.09V23.16z"/>
<path fill="#404040" d="M126.72,22.99c-0.26,0.11-0.56,0.21-0.91,0.31c-0.35,0.09-0.72,0.14-1.11,0.14c-0.72,0-1.24-0.11-1.58-0.32
	s-0.57-0.52-0.69-0.92h-0.05c-0.2,0.2-0.39,0.37-0.58,0.51c-0.19,0.14-0.38,0.26-0.59,0.36c-0.28,0.13-0.54,0.22-0.8,0.28
	c-0.26,0.06-0.61,0.09-1.07,0.09c-0.68,0-1.26-0.2-1.74-0.6c-0.48-0.4-0.72-0.93-0.72-1.59c0-0.38,0.05-0.71,0.16-0.97
	c0.11-0.27,0.26-0.5,0.45-0.71c0.18-0.19,0.38-0.34,0.61-0.47c0.23-0.12,0.49-0.24,0.76-0.34c0.53-0.19,1.16-0.39,1.9-0.6
	s1.28-0.39,1.62-0.56v-0.85c0-0.15-0.01-0.34-0.04-0.58s-0.07-0.44-0.15-0.61c-0.08-0.19-0.21-0.35-0.39-0.48
	c-0.18-0.13-0.41-0.19-0.7-0.19c-0.26,0-0.47,0.04-0.65,0.11s-0.31,0.15-0.42,0.22c0.02,0.12,0.07,0.3,0.15,0.53
	c0.08,0.24,0.12,0.47,0.12,0.69c0,0.1-0.03,0.22-0.08,0.37c-0.05,0.15-0.13,0.27-0.23,0.35c-0.13,0.12-0.29,0.21-0.45,0.27
	c-0.17,0.06-0.42,0.1-0.77,0.1c-0.49,0-0.87-0.12-1.12-0.36c-0.25-0.24-0.38-0.55-0.38-0.93c0-0.33,0.13-0.62,0.39-0.88
	s0.58-0.48,0.96-0.65c0.37-0.17,0.79-0.31,1.28-0.41c0.48-0.1,0.93-0.15,1.34-0.15c0.57,0,1.09,0.03,1.57,0.1
	c0.47,0.07,0.9,0.21,1.28,0.42c0.36,0.21,0.65,0.5,0.87,0.89c0.21,0.39,0.32,0.9,0.32,1.53c0,0.66-0.01,1.45-0.04,2.36
	c-0.03,0.91-0.04,1.51-0.04,1.79c0,0.26,0.04,0.47,0.12,0.63s0.2,0.27,0.36,0.34c0.1,0.05,0.25,0.08,0.46,0.08s0.4,0.01,0.58,0.01
	V22.99z M122.38,18.41c-0.33,0.11-0.66,0.24-0.98,0.38c-0.32,0.14-0.59,0.29-0.79,0.45c-0.22,0.16-0.39,0.37-0.51,0.63
	c-0.12,0.25-0.19,0.55-0.19,0.9c0,0.46,0.1,0.79,0.31,0.99c0.21,0.21,0.47,0.31,0.77,0.31c0.32,0,0.59-0.07,0.8-0.2
	c0.21-0.13,0.39-0.29,0.55-0.49L122.38,18.41z"/>
<path fill="#404040" d="M131.54,23.44c-0.81,0-1.53-0.12-2.16-0.36c-0.62-0.24-1.14-0.56-1.54-0.97c-0.4-0.42-0.71-0.91-0.9-1.48
	s-0.3-1.19-0.3-1.85c0-0.61,0.12-1.19,0.36-1.74c0.24-0.55,0.57-1.03,0.99-1.45c0.43-0.43,0.96-0.77,1.59-1.02
	c0.63-0.25,1.34-0.38,2.1-0.38c1.08,0,1.93,0.2,2.56,0.61c0.63,0.41,0.94,0.96,0.94,1.65c0,0.42-0.11,0.76-0.33,1.02
	c-0.22,0.26-0.61,0.39-1.15,0.39c-0.44,0-0.81-0.11-1.1-0.32c-0.3-0.21-0.44-0.49-0.44-0.83c0-0.29,0.05-0.57,0.14-0.85
	c0.09-0.28,0.15-0.5,0.17-0.64c-0.06-0.11-0.15-0.19-0.25-0.24c-0.1-0.06-0.25-0.08-0.46-0.08c-0.26,0-0.5,0.06-0.72,0.18
	s-0.42,0.34-0.6,0.65c-0.18,0.29-0.32,0.69-0.43,1.18c-0.11,0.49-0.16,1.08-0.16,1.77c0,1.04,0.24,1.88,0.73,2.52
	s1.07,0.96,1.75,0.96c0.65,0,1.16-0.15,1.55-0.44c0.38-0.29,0.72-0.7,1.02-1.24l0.66,0.46c-0.18,0.36-0.4,0.68-0.65,0.98
	s-0.55,0.56-0.9,0.79c-0.37,0.24-0.74,0.42-1.12,0.54C132.48,23.38,132.04,23.44,131.54,23.44z"/>
<path fill="#404040" d="M144.63,21.06c-0.21,0.33-0.45,0.65-0.74,0.94c-0.29,0.3-0.62,0.55-0.99,0.76c-0.39,0.22-0.79,0.39-1.19,0.5
	c-0.4,0.11-0.86,0.17-1.38,0.17c-0.87,0-1.61-0.12-2.24-0.37s-1.15-0.58-1.56-0.99c-0.41-0.42-0.72-0.91-0.92-1.47
	c-0.2-0.56-0.3-1.18-0.3-1.84c0-0.6,0.11-1.17,0.33-1.72s0.53-1.03,0.94-1.46c0.4-0.42,0.9-0.75,1.51-1.01
	c0.61-0.26,1.28-0.39,2.03-0.39c0.82,0,1.49,0.1,2.02,0.3c0.53,0.2,0.96,0.47,1.31,0.82c0.33,0.33,0.58,0.73,0.73,1.18
	s0.23,0.93,0.23,1.42v0.57h-5.94c0,1.2,0.23,2.12,0.69,2.75s1.2,0.94,2.2,0.94c0.55,0,1.04-0.15,1.48-0.45s0.81-0.68,1.12-1.14
	L144.63,21.06z M141.27,17.72c0-0.35-0.02-0.71-0.05-1.08s-0.1-0.67-0.18-0.9c-0.1-0.27-0.23-0.48-0.41-0.62s-0.39-0.21-0.65-0.21
	c-0.45,0-0.81,0.23-1.08,0.68s-0.42,1.18-0.44,2.16L141.27,17.72z"/>
</svg>
