<?xml version="1.0" encoding="utf-8"?>
<!-- Generator: Adobe Illustrator 12.0.0, SVG Export Plug-In  -->
<!DOCTYPE svg PUBLIC "-//W3C//DTD SVG 1.1//EN" "http://www.w3.org/Graphics/SVG/1.1/DTD/svg11.dtd" [
	<!ENTITY ns_flows "http://ns.adobe.com/Flows/1.0/">
	<!ENTITY ns_svg "http://www.w3.org/2000/svg">
	<!ENTITY ns_xlink "http://www.w3.org/1999/xlink">
]>
<svg  version="1.1" xmlns="&ns_svg;" xmlns:xlink="&ns_xlink;" xmlns:a="http://ns.adobe.com/AdobeSVGViewerExtensions/3.0/"
	 width="61" height="54" viewBox="-0.8 -0.87 61 54" enable-background="new -0.8 -0.87 61 54" xml:space="preserve">
<defs>
</defs>
<polyline opacity="0.1" points="59.75,29.32 46.33,52.56 19.5,52.56 6.08,29.32 19.5,6.08 46.33,6.08 59.75,29.32 "/>
<polyline fill="#9D1D20" points="53.67,23.24 40.25,46.48 13.42,46.48 0,23.24 13.42,0 40.25,0 53.67,23.24 "/>
<path fill="#FFFFFF" d="M34,36.36H16.64v-2.58l6.96-6.99c2.12-2.14,3.52-3.67,4.19-4.59s1.18-1.81,1.52-2.67
	c0.34-0.87,0.51-1.8,0.51-2.8c0-1.41-0.43-2.53-1.28-3.35c-0.86-0.82-2.04-1.24-3.56-1.24c-1.1,0-2.14,0.18-3.12,0.54
	s-2.08,1.02-3.28,1.97l-1.59-2.04c2.43-2.02,5.08-3.03,7.95-3.03c2.48,0,4.43,0.64,5.84,1.91c1.41,1.27,2.11,2.98,2.11,5.12
	c0,1.67-0.47,3.33-1.41,4.97s-2.7,3.71-5.28,6.21l-5.78,5.65v0.14H34V36.36z"/>
</svg>
