<?xml version="1.0" encoding="utf-8"?>
<!-- Generator: Adobe Illustrator 12.0.0, SVG Export Plug-In  -->
<!DOCTYPE svg PUBLIC "-//W3C//DTD SVG 1.1//EN" "http://www.w3.org/Graphics/SVG/1.1/DTD/svg11.dtd" [
	<!ENTITY ns_flows "http://ns.adobe.com/Flows/1.0/">
	<!ENTITY ns_svg "http://www.w3.org/2000/svg">
	<!ENTITY ns_xlink "http://www.w3.org/1999/xlink">
]>
<svg  version="1.1" xmlns="&ns_svg;" xmlns:xlink="&ns_xlink;" xmlns:a="http://ns.adobe.com/AdobeSVGViewerExtensions/3.0/"
	 width="61" height="54" viewBox="-0.8 -0.87 61 54" enable-background="new -0.8 -0.87 61 54" xml:space="preserve">
<defs>
</defs>
<polyline opacity="0.1" points="59.75,29.32 46.33,52.56 19.5,52.56 6.08,29.32 19.5,6.08 46.33,6.08 59.75,29.32 "/>
<polyline fill="#9D1D20" points="53.67,23.24 40.25,46.48 13.42,46.48 0,23.24 13.42,0 40.25,0 53.67,23.24 "/>
<path fill="#FFFFFF" d="M33.01,16.17c0,1.69-0.47,3.06-1.42,4.13c-0.95,1.07-2.29,1.79-4.02,2.15v0.14
	c2.12,0.26,3.69,0.94,4.72,2.02c1.02,1.08,1.54,2.51,1.54,4.27c0,2.52-0.87,4.46-2.62,5.81c-1.75,1.36-4.23,2.03-7.44,2.03
	c-1.4,0-2.68-0.11-3.84-0.32c-1.16-0.21-2.29-0.58-3.39-1.12v-2.86c1.14,0.57,2.36,1,3.66,1.29s2.52,0.44,3.68,0.44
	c4.56,0,6.85-1.79,6.85-5.36c0-3.2-2.52-4.8-7.55-4.8h-2.6v-2.59h2.64c2.06,0,3.69-0.45,4.9-1.36c1.2-0.91,1.81-2.17,1.81-3.78
	c0-1.29-0.44-2.3-1.33-3.03c-0.89-0.73-2.09-1.1-3.6-1.1c-1.16,0-2.25,0.16-3.27,0.47c-1.02,0.31-2.19,0.89-3.5,1.73l-1.52-2.02
	c1.08-0.85,2.33-1.53,3.75-2.01c1.41-0.49,2.91-0.73,4.47-0.73c2.57,0,4.56,0.59,5.98,1.76C32.3,12.51,33.01,14.12,33.01,16.17z"/>
</svg>
