<?xml version="1.0" encoding="utf-8"?>
<!-- Generator: Adobe Illustrator 12.0.0, SVG Export Plug-In  -->
<!DOCTYPE svg PUBLIC "-//W3C//DTD SVG 1.1//EN" "http://www.w3.org/Graphics/SVG/1.1/DTD/svg11.dtd" [
	<!ENTITY ns_flows "http://ns.adobe.com/Flows/1.0/">
	<!ENTITY ns_svg "http://www.w3.org/2000/svg">
	<!ENTITY ns_xlink "http://www.w3.org/1999/xlink">
]>
<svg  version="1.1" xmlns="&ns_svg;" xmlns:xlink="&ns_xlink;" xmlns:a="http://ns.adobe.com/AdobeSVGViewerExtensions/3.0/"
	 width="61" height="54" viewBox="-0.8 -0.87 61 54" enable-background="new -0.8 -0.87 61 54" xml:space="preserve">
<defs>
</defs>
<polyline opacity="0.1" points="59.75,29.32 46.33,52.56 19.5,52.56 6.08,29.32 19.5,6.08 46.33,6.08 59.75,29.32 "/>
<polyline fill="#9D1D20" points="53.67,23.24 40.25,46.48 13.42,46.48 0,23.24 13.42,0 40.25,0 53.67,23.24 "/>
<path fill="#FFFFFF" d="M35.25,30.26h-3.92v6.09h-2.87v-6.09H15.61v-2.62L28.15,9.8h3.18v17.75h3.92V30.26z M28.46,27.55v-8.78
	c0-1.72,0.06-3.67,0.18-5.83h-0.14c-0.58,1.16-1.12,2.11-1.63,2.87l-8.26,11.74H28.46z"/>
</svg>
