<?xml version="1.0" encoding="utf-8"?>
<!-- Generator: Adobe Illustrator 12.0.0, SVG Export Plug-In  -->
<!DOCTYPE svg PUBLIC "-//W3C//DTD SVG 1.1//EN" "http://www.w3.org/Graphics/SVG/1.1/DTD/svg11.dtd" [
	<!ENTITY ns_flows "http://ns.adobe.com/Flows/1.0/">
	<!ENTITY ns_svg "http://www.w3.org/2000/svg">
	<!ENTITY ns_xlink "http://www.w3.org/1999/xlink">
]>
<svg  version="1.1" xmlns="&ns_svg;" xmlns:xlink="&ns_xlink;" xmlns:a="http://ns.adobe.com/AdobeSVGViewerExtensions/3.0/"
	 width="40" height="36" viewBox="-0.64 -0.93 40 36" enable-background="new -0.64 -0.93 40 36" xml:space="preserve">
<defs>
</defs>
<polygon opacity="0.1" points="12.78,34.45 3.99,19.22 12.78,3.99 30.37,3.99 39.16,19.22 30.37,34.45 "/>
<polygon fill="#9D1D20" points="8.79,30.46 0,15.23 8.79,0 26.38,0 35.18,15.23 26.38,30.46 "/>
<path fill="#FFFFFF" d="M16.32,13.25c1.82,0,3.26,0.45,4.3,1.36c1.05,0.9,1.57,2.14,1.57,3.71c0,1.79-0.57,3.2-1.71,4.22
	c-1.14,1.02-2.71,1.53-4.72,1.53c-1.95,0-3.44-0.31-4.46-0.93v-1.89c0.55,0.36,1.24,0.63,2.06,0.83c0.82,0.2,1.63,0.3,2.43,0.3
	c1.39,0,2.47-0.33,3.24-0.98c0.77-0.66,1.15-1.6,1.15-2.84c0-2.42-1.48-3.63-4.44-3.63c-0.75,0-1.75,0.11-3.01,0.34l-1.02-0.65
	l0.65-8.1h8.61v1.81h-6.92l-0.44,5.19C14.51,13.34,15.42,13.25,16.32,13.25z"/>
</svg>
