<?xml version="1.0" encoding="utf-8"?>
<!-- Generator: Adobe Illustrator 12.0.0, SVG Export Plug-In  -->
<!DOCTYPE svg PUBLIC "-//W3C//DTD SVG 1.1//EN" "http://www.w3.org/Graphics/SVG/1.1/DTD/svg11.dtd" [
	<!ENTITY ns_flows "http://ns.adobe.com/Flows/1.0/">
	<!ENTITY ns_svg "http://www.w3.org/2000/svg">
	<!ENTITY ns_xlink "http://www.w3.org/1999/xlink">
]>
<svg  version="1.1" xmlns="&ns_svg;" xmlns:xlink="&ns_xlink;" xmlns:a="http://ns.adobe.com/AdobeSVGViewerExtensions/3.0/"
	 width="40" height="36" viewBox="-0.64 -0.93 40 36" enable-background="new -0.64 -0.93 40 36" xml:space="preserve">
<defs>
</defs>
<polygon opacity="0.1" points="12.78,34.45 3.99,19.22 12.78,3.99 30.37,3.99 39.16,19.22 30.37,34.45 "/>
<polygon fill="#9D1D20" points="8.79,30.46 0,15.23 8.79,0 26.38,0 35.18,15.23 26.38,30.46 "/>
<path fill="#FFFFFF" d="M11.11,16.43c0-3.4,0.66-5.95,1.98-7.63c1.32-1.69,3.28-2.53,5.86-2.53c0.89,0,1.59,0.08,2.11,0.23v1.7
	c-0.61-0.2-1.3-0.3-2.08-0.3c-1.85,0-3.27,0.58-4.25,1.73c-0.98,1.16-1.51,2.97-1.61,5.45h0.14c0.87-1.36,2.24-2.04,4.12-2.04
	c1.55,0,2.78,0.47,3.67,1.41c0.9,0.94,1.34,2.22,1.34,3.83c0,1.8-0.49,3.22-1.47,4.25c-0.98,1.03-2.31,1.55-3.98,1.55
	c-1.79,0-3.21-0.67-4.26-2.02C11.63,20.7,11.11,18.83,11.11,16.43z M16.92,22.39c1.12,0,1.99-0.35,2.61-1.06
	c0.62-0.71,0.93-1.73,0.93-3.06c0-1.15-0.29-2.05-0.86-2.7c-0.58-0.66-1.44-0.98-2.58-0.98c-0.71,0-1.36,0.15-1.95,0.44
	c-0.59,0.29-1.06,0.7-1.41,1.21c-0.35,0.51-0.53,1.05-0.53,1.6c0,0.81,0.16,1.57,0.47,2.28s0.76,1.26,1.34,1.67
	S16.18,22.39,16.92,22.39z"/>
</svg>
