<?xml version="1.0" encoding="utf-8"?>
<!-- Generator: Adobe Illustrator 12.0.0, SVG Export Plug-In  -->
<!DOCTYPE svg PUBLIC "-//W3C//DTD SVG 1.1//EN" "http://www.w3.org/Graphics/SVG/1.1/DTD/svg11.dtd" [
	<!ENTITY ns_flows "http://ns.adobe.com/Flows/1.0/">
	<!ENTITY ns_svg "http://www.w3.org/2000/svg">
	<!ENTITY ns_xlink "http://www.w3.org/1999/xlink">
]>
<svg  version="1.1" xmlns="&ns_svg;" xmlns:xlink="&ns_xlink;" xmlns:a="http://ns.adobe.com/AdobeSVGViewerExtensions/3.0/"
	 width="47" height="27" viewBox="-0.68 -0.78 47 27" enable-background="new -0.68 -0.78 47 27" xml:space="preserve">
<defs>
</defs>
<path fill="#010101" d="M46,5.39H18.92l-2.1-4.53C16.58,0.34,16.05,0,15.47,0h-0.52c-0.58,0-1.11,0.34-1.36,0.87l-2.07,4.52H0v0.5
	h11.29L3.44,23.03c-0.21,0.46-0.17,1,0.1,1.43c0.11,0.18,0.26,0.32,0.43,0.44H0v0.5h46v-0.5h-3.98c0.08-0.06,0.16-0.12,0.23-0.19
	c0.28-0.28,0.44-0.66,0.43-1.06L42.63,12.7c-0.04-3.92-2.42-6.46-6.3-6.81H46V5.39z M14.96,5.89h0.52l4.2,9.08h-8.84L14.96,5.89z
	 M6.61,24.27l2.72-5.97h11.89l2.75,5.97c0.12,0.26,0.3,0.47,0.53,0.62H6.08C6.3,24.74,6.49,24.53,6.61,24.27z M39.36,23.66
	c0,0.51,0.27,0.96,0.67,1.23h-3.94c1.22-0.27,2.32-0.74,3.27-1.42L39.36,23.66z M39.32,18.33c-1.04,2.4-2.78,3.48-5.59,3.48
	c-1.66,0-3.44-0.73-3.44-2.8c0-1.99,2.62-2.28,4.18-2.28h4.85L39.32,18.33z M28.18,10.55l0.21,0.29c0.24,0.32,0.6,0.53,0.99,0.58
	c0.39,0.05,0.79-0.05,1.11-0.3c1.74-1.34,3.24-1.94,4.87-1.94c3.47,0,3.9,2.02,3.92,3.54v0.67h-4.82c-5.54,0-7.51,2.9-7.51,5.62
	c0,2.91,1.9,5.16,4.72,5.88h-5.12c0.17-0.11,0.32-0.26,0.43-0.44c0.27-0.43,0.31-0.97,0.1-1.43L19.15,5.89h15.28
	c-2.05,0.19-3.97,1.03-5.98,2.59C27.82,8.98,27.69,9.9,28.18,10.55z"/>
</svg>
