<?xml version="1.0" encoding="utf-8"?>
<!-- Generator: Adobe Illustrator 12.0.0, SVG Export Plug-In  -->
<!DOCTYPE svg PUBLIC "-//W3C//DTD SVG 1.1//EN" "http://www.w3.org/Graphics/SVG/1.1/DTD/svg11.dtd" [
	<!ENTITY ns_flows "http://ns.adobe.com/Flows/1.0/">
	<!ENTITY ns_svg "http://www.w3.org/2000/svg">
	<!ENTITY ns_xlink "http://www.w3.org/1999/xlink">
]>
<svg  version="1.1" xmlns="&ns_svg;" xmlns:xlink="&ns_xlink;" xmlns:a="http://ns.adobe.com/AdobeSVGViewerExtensions/3.0/"
	 width="46" height="45" viewBox="-0.58 -0.88 46 45" enable-background="new -0.58 -0.88 46 45" xml:space="preserve">
<defs>
</defs>
<path fill="#010101" d="M0.73,26.26c0.07,0,0.15-0.01,0.22-0.04l3.27-1.06c0.38-0.12,0.59-0.53,0.47-0.91
	c-0.12-0.38-0.53-0.59-0.92-0.47L0.5,24.85c-0.38,0.13-0.59,0.53-0.47,0.91C0.14,26.07,0.42,26.26,0.73,26.26z"/>
<path fill="#010101" d="M0.5,12.51l3.27,1.06c0.07,0.02,0.15,0.04,0.22,0.04c0.31,0,0.59-0.19,0.69-0.5
	c0.12-0.38-0.09-0.79-0.47-0.91l-3.27-1.06c-0.38-0.12-0.79,0.08-0.91,0.47C-0.09,11.98,0.12,12.39,0.5,12.51z"/>
<path fill="#010101" d="M10.22,3.93c0.14,0.2,0.36,0.3,0.59,0.3c0.15,0,0.3-0.05,0.43-0.14c0.32-0.24,0.4-0.69,0.16-1.01L9.38,0.3
	C9.14-0.03,8.68-0.09,8.36,0.14C8.04,0.37,7.97,0.83,8.2,1.15L10.22,3.93z"/>
<path fill="#010101" d="M44.2,24.85l-3.27-1.06c-0.38-0.12-0.79,0.09-0.91,0.47c-0.12,0.38,0.08,0.79,0.47,0.92l3.27,1.06
	c0.07,0.02,0.15,0.04,0.22,0.04c0.31,0,0.59-0.19,0.69-0.5C44.79,25.38,44.58,24.97,44.2,24.85z"/>
<path fill="#010101" d="M43.75,11.13l-3.27,1.06c-0.38,0.12-0.59,0.53-0.47,0.91c0.1,0.31,0.38,0.5,0.69,0.5
	c0.07,0,0.15-0.01,0.22-0.04l3.27-1.06c0.38-0.12,0.59-0.53,0.47-0.91C44.54,11.22,44.13,11.01,43.75,11.13z"/>
<path fill="#010101" d="M33.89,4.23c0.22,0,0.45-0.1,0.59-0.3l2.02-2.78c0.24-0.33,0.17-0.78-0.16-1.01
	c-0.33-0.23-0.78-0.17-1.01,0.16l-2.02,2.78c-0.24,0.32-0.16,0.78,0.16,1.01C33.6,4.19,33.75,4.23,33.89,4.23z"/>
<path fill="#010101" d="M5.38,21.21c0.01,0.02,0.02,0.05,0.03,0.07l16.35,22.39c0.01,0.01,0.02,0.02,0.03,0.03
	c0.01,0.02,0.03,0.03,0.04,0.05c0,0,0.01,0.01,0.01,0.01c0.02,0.02,0.03,0.04,0.05,0.05c0.01,0.01,0.02,0.01,0.03,0.02
	c0.02,0.01,0.03,0.02,0.05,0.03c0.02,0.01,0.05,0.03,0.07,0.04c0.01,0,0.01,0.01,0.02,0.01c0,0,0,0,0.01,0
	c0.02,0.01,0.04,0.02,0.06,0.02c0.01,0,0.01,0.01,0.02,0.01c0.06,0.02,0.12,0.02,0.19,0.02c0,0,0.01,0,0.01,0c0,0,0,0,0.01,0
	c0.01,0,0.01,0,0.02,0c0.04,0,0.09,0,0.13-0.02c0.02,0,0.03-0.02,0.04-0.02c0.07-0.02,0.13-0.05,0.19-0.09
	c0.01-0.01,0.02-0.01,0.03-0.02c0,0,0.01-0.01,0.01-0.01c0.05-0.04,0.1-0.09,0.14-0.14l0,0l16.04-21.93
	c0.02-0.02,0.02-0.05,0.03-0.07c0.03-0.04,0.05-0.09,0.06-0.13s0.02-0.09,0.03-0.14c0-0.03,0.02-0.05,0.02-0.08v-4.3
	c0-0.03-0.01-0.06-0.02-0.08c0-0.05-0.01-0.1-0.03-0.14c-0.02-0.05-0.04-0.09-0.06-0.13c-0.02-0.03-0.02-0.05-0.04-0.08l-4.65-6.08
	c-0.01-0.01-0.02-0.02-0.03-0.03c-0.05-0.06-0.11-0.1-0.17-0.14c-0.02-0.02-0.04-0.03-0.07-0.05c-0.08-0.04-0.16-0.06-0.25-0.06
	c-0.02,0-0.03-0.01-0.04-0.01c0,0,0,0,0,0c0,0-0.01,0-0.01,0H11c-0.01,0-0.01,0-0.02,0c0,0-0.01,0-0.01,0
	c-0.03,0-0.05,0.02-0.08,0.02c-0.07,0.01-0.14,0.02-0.2,0.05c-0.03,0.02-0.06,0.04-0.08,0.06c-0.05,0.04-0.1,0.08-0.15,0.12
	c-0.01,0.01-0.02,0.02-0.03,0.03l-5,6.54c-0.02,0.02-0.02,0.05-0.04,0.08c-0.03,0.04-0.05,0.08-0.07,0.13
	C5.3,17.3,5.29,17.35,5.29,17.4c0,0.03-0.02,0.05-0.02,0.08v3.37c0,0.03,0.01,0.05,0.02,0.08c0.01,0.05,0.01,0.09,0.03,0.14
	C5.33,21.12,5.35,21.17,5.38,21.21z M6.72,19.71h9.61v1.16c0,0.06,0.01,0.11,0.02,0.17l4.47,18.88l-14.1-19.3V19.71z M17.78,19.71
	h9.76v1.07l-5.15,19.48l-4.61-19.47L17.78,19.71L17.78,19.71z M27.54,18.26h-9.75v-0.59l4.61-5.62l5.14,5.71V18.26z M28.96,21.06
	c0.01-0.06,0.02-0.12,0.02-0.19v-1.16h8.68v1.37L24.03,39.71L28.96,21.06z M37.67,18.26h-8.68v-0.51l4.73-5.65l3.95,5.16V18.26
	L37.67,18.26z M28.24,16.38L24,11.66h8.19L28.24,16.38z M16.99,16.34l-4.33-4.68h8.18L16.99,16.34z M11.05,12.06l5.28,5.7v0.49H6.72
	v-0.53L11.05,12.06z"/>
</svg>
