<?xml version="1.0" encoding="utf-8"?>
<!-- Generator: Adobe Illustrator 12.0.0, SVG Export Plug-In  -->
<!DOCTYPE svg PUBLIC "-//W3C//DTD SVG 1.1//EN" "http://www.w3.org/Graphics/SVG/1.1/DTD/svg11.dtd" [
	<!ENTITY ns_flows "http://ns.adobe.com/Flows/1.0/">
	<!ENTITY ns_svg "http://www.w3.org/2000/svg">
	<!ENTITY ns_xlink "http://www.w3.org/1999/xlink">
]>
<svg  version="1.1" xmlns="&ns_svg;" xmlns:xlink="&ns_xlink;" xmlns:a="http://ns.adobe.com/AdobeSVGViewerExtensions/3.0/"
	 width="237" height="237" viewBox="-0.06 -0.55 237 237" enable-background="new -0.06 -0.55 237 237" xml:space="preserve">
<defs>
</defs>
<circle fill="#E7E7E8" cx="118" cy="118" r="118"/>
<g>
	<g>
		<line fill="none" stroke="#636767" stroke-width="3.625" x1="68" y1="72.5" x2="68" y2="180.16"/>
		<path fill="#636767" d="M70.79,186.58c1.36-4.5,2.61-7.42,4.06-11.02H61.13c0.61,1.29,2.7,6.53,4.05,11.02
			c1.46,4.81,2.45,9.17,2.8,12C68.34,195.75,69.34,191.39,70.79,186.58z"/>
		<path fill="#636767" d="M65.22,66.08c-1.36,4.49-2.61,7.42-4.06,11.02h13.72c-0.61-1.29-2.7-6.53-4.05-11.02
			c-1.46-4.81-2.45-9.17-2.8-12C67.66,56.9,66.67,61.27,65.22,66.08z"/>
	</g>
</g>
<g>
	<g>
		<line fill="none" stroke="#636767" stroke-width="3.625" x1="93.93" y1="189.97" x2="147.21" y2="189.97"/>
		<path fill="#636767" d="M153.63,187.19c-4.5-1.36-7.42-2.61-11.02-4.06v13.72c1.29-0.61,6.53-2.7,11.02-4.05
			c4.81-1.46,9.17-2.45,12-2.8C162.8,189.63,158.44,188.64,153.63,187.19z"/>
		<path fill="#636767" d="M87.51,192.76c4.5,1.36,7.42,2.61,11.02,4.06V183.1c-1.29,0.61-6.53,2.7-11.02,4.05
			c-4.81,1.46-9.17,2.45-12,2.8C78.34,190.31,82.7,191.3,87.51,192.76z"/>
	</g>
</g>
<rect x="102.7" y="59.45" fill="#FFFFFF" stroke="#636767" stroke-width="3.625" width="64.74" height="100.03"/>
<rect x="89.91" y="72.42" fill="#FFFFFF" stroke="#636767" stroke-width="3.625" width="64.74" height="100.03"/>
<path fill="#636767" d="M107.91,129.56l-1.72,6.21h-5.67l7.39-24.19h7.18l7.5,24.19h-5.89l-1.87-6.21H107.91z M114.04,125.47
	l-1.51-5.13c-0.43-1.44-0.86-3.23-1.22-4.67h-0.07c-0.36,1.44-0.72,3.27-1.11,4.67l-1.44,5.13H114.04z"/>
<path fill="#636767" d="M139.85,116.32c-0.61,0-1.26,0-2.12,0.07c-4.84,0.4-7,2.87-7.61,5.6h0.11c1.15-1.18,2.76-1.87,4.95-1.87
	c3.91,0,7.21,2.76,7.21,7.61c0,4.63-3.55,8.43-8.61,8.43c-6.21,0-9.26-4.63-9.26-10.19c0-4.38,1.61-8.04,4.13-10.37
	c2.33-2.12,5.35-3.27,9.01-3.45c1-0.07,1.65-0.07,2.19-0.04V116.32z M133.75,132.14c1.9,0,3.12-1.76,3.12-4.13
	c0-2.15-1.15-4.02-3.48-4.02c-1.47,0-2.69,0.9-3.23,2.08c-0.14,0.29-0.22,0.72-0.22,1.36c0.11,2.48,1.29,4.7,3.77,4.7H133.75z"/>
</svg>
