<?xml version="1.0" encoding="utf-8"?>
<!-- Generator: Adobe Illustrator 12.0.0, SVG Export Plug-In  -->
<!DOCTYPE svg PUBLIC "-//W3C//DTD SVG 1.1//EN" "http://www.w3.org/Graphics/SVG/1.1/DTD/svg11.dtd" [
	<!ENTITY ns_flows "http://ns.adobe.com/Flows/1.0/">
	<!ENTITY ns_svg "http://www.w3.org/2000/svg">
	<!ENTITY ns_xlink "http://www.w3.org/1999/xlink">
]>
<svg  version="1.1" xmlns="&ns_svg;" xmlns:xlink="&ns_xlink;" xmlns:a="http://ns.adobe.com/AdobeSVGViewerExtensions/3.0/"
	 width="237" height="237" viewBox="-0.1 -0.54 237 237" enable-background="new -0.1 -0.54 237 237" xml:space="preserve">
<defs>
</defs>
<circle fill="#E7E7E8" cx="118" cy="118" r="118"/>
<g>
	<g>
		<line fill="none" stroke="#636767" stroke-width="3.625" x1="64.66" y1="71.43" x2="64.66" y2="179.09"/>
		<path fill="#636767" d="M67.44,185.51c1.36-4.5,2.61-7.42,4.06-11.02H57.78c0.61,1.29,2.7,6.53,4.05,11.02
			c1.45,4.81,2.45,9.17,2.8,12C65,194.69,65.99,190.32,67.44,185.51z"/>
		<path fill="#636767" d="M61.87,65.01c-1.36,4.49-2.61,7.42-4.06,11.02h13.72c-0.61-1.29-2.7-6.53-4.05-11.02
			c-1.46-4.81-2.45-9.17-2.8-12C64.32,55.84,63.33,60.2,61.87,65.01z"/>
	</g>
</g>
<g>
	<g>
		<g enable-background="new    ">
			<defs>
				<polygon id="XMLID_13_" enable-background="new    " points="191.65,200.91 107.42,229.03 99.45,176.44 183.68,148.32 				"/>
			</defs>
			<clipPath id="XMLID_16_">
				<use xlink:href="#XMLID_13_" />
			</clipPath>
			<g clip-path="url(#XMLID_16_)">
				<g>
					<g>
						<g>
							<path fill="#636767" d="M103.18,201.03c0.89,5.86,4.79,10.73,11.61,13.38c12.49,4.84,30.79,0.72,44.17-9.17l-2.62-1.02
								c-12.04,8.58-28.17,12.07-39.25,7.78c-6.17-2.4-9.7-6.81-10.51-12.11c-0.93-6.11,1.77-13.4,8.21-20.17
								c12.03-12.64,32.64-18.72,45.95-13.56l2.29-2.41c-14.7-5.7-37.48,1.02-50.77,14.98
								C105.13,186.21,102.15,194.27,103.18,201.03"/>
							<path fill="#636767" d="M148.9,201.33l7.43,2.88l2.62,1.02l9.14,3.54c0.77-2.05,4.49-10.14,8.28-16.86
								c4.05-7.18,8.18-13.52,11.26-17.47c-4.07,3.57-10.99,8.82-19.11,14.43C160.94,194.12,155.49,197.32,148.9,201.33"/>
						</g>
					</g>
				</g>
			</g>
		</g>
	</g>
</g>
<polygon fill="#FFFFFF" stroke="#636767" stroke-width="3.625" points="164.62,161.58 86.9,177.27 86.9,77.24 164.62,61.55 "/>
<polygon fill="#FFFFFF" stroke="#636767" stroke-width="3.625" points="151.63,187.41 86.9,177.27 86.9,77.24 151.63,87.3 "/>
<path fill="#636767" d="M102.26,138.59l-1.69,6.21H94.9l7.39-24.19h7.14l7.54,24.19h-5.89l-1.86-6.21H102.26z M108.39,134.5
	l-1.51-5.13c-0.39-1.43-0.82-3.26-1.18-4.66h-0.11c-0.32,1.43-0.72,3.27-1.07,4.66l-1.47,5.13H108.39z"/>
<path fill="#636767" d="M134.23,125.35c-0.61-0.04-1.26,0-2.11,0.07c-4.85,0.35-7,2.87-7.61,5.56h0.11c1.15-1.15,2.8-1.83,4.95-1.83
	c3.91,0,7.21,2.76,7.21,7.61c0,4.63-3.55,8.44-8.58,8.44c-6.25,0-9.3-4.63-9.3-10.2c0-4.38,1.62-8.04,4.16-10.4
	c2.3-2.12,5.35-3.23,8.97-3.41c1-0.11,1.69-0.08,2.19-0.04V125.35z M128.13,141.18c1.9,0,3.12-1.76,3.12-4.13
	c0-2.15-1.14-4.02-3.48-4.02c-1.47,0-2.69,0.9-3.19,2.04c-0.18,0.33-0.25,0.76-0.25,1.4c0.11,2.48,1.29,4.7,3.77,4.7H128.13z"/>
</svg>
