<?xml version="1.0" encoding="utf-8"?>
<!-- Generator: Adobe Illustrator 12.0.0, SVG Export Plug-In  -->
<!DOCTYPE svg PUBLIC "-//W3C//DTD SVG 1.1//EN" "http://www.w3.org/Graphics/SVG/1.1/DTD/svg11.dtd" [
	<!ENTITY ns_flows "http://ns.adobe.com/Flows/1.0/">
	<!ENTITY ns_svg "http://www.w3.org/2000/svg">
	<!ENTITY ns_xlink "http://www.w3.org/1999/xlink">
]>
<svg  version="1.1" xmlns="&ns_svg;" xmlns:xlink="&ns_xlink;" xmlns:a="http://ns.adobe.com/AdobeSVGViewerExtensions/3.0/"
	 width="38" height="44" viewBox="-0.91 -0.29 38 44" enable-background="new -0.91 -0.29 38 44" xml:space="preserve">
<defs>
</defs>
<path fill="#010101" d="M5.33,7.21c-0.6,0-1.09,0.49-1.09,1.09s0.49,1.09,1.09,1.09c0.6,0,1.09-0.49,1.09-1.09S5.94,7.21,5.33,7.21z
	"/>
<path fill="#010101" d="M9.58,7.21C8.98,7.21,8.5,7.7,8.5,8.3s0.49,1.09,1.09,1.09c0.6,0,1.09-0.49,1.09-1.09S10.18,7.21,9.58,7.21z
	"/>
<path fill="#010101" d="M13.83,7.21c-0.6,0-1.09,0.49-1.09,1.09s0.49,1.09,1.09,1.09c0.6,0,1.09-0.49,1.09-1.09
	S14.43,7.21,13.83,7.21z"/>
<path fill="#010101" d="M1.09,7.21c-0.29,0-0.57,0.12-0.77,0.32C0.12,7.73,0,8.01,0,8.3c0,0.29,0.12,0.57,0.32,0.77
	c0.2,0.2,0.48,0.32,0.77,0.32c0.29,0,0.57-0.12,0.77-0.32c0.2-0.2,0.32-0.48,0.32-0.77c0-0.29-0.12-0.57-0.32-0.77
	C1.65,7.33,1.37,7.21,1.09,7.21z"/>
<circle fill="#010101" cx="1.09" cy="12.55" r="1.09"/>
<path fill="#010101" d="M1.09,15.72c-0.6,0-1.09,0.49-1.09,1.09c0,0.6,0.49,1.09,1.09,1.09c0.6,0,1.09-0.49,1.09-1.09
	C2.18,16.22,1.69,15.72,1.09,15.72z"/>
<path fill="#010101" d="M1.09,32.75c-0.6,0-1.09,0.49-1.09,1.09c0,0.6,0.49,1.09,1.09,1.09c0.6,0,1.09-0.49,1.09-1.09
	C2.18,33.24,1.69,32.75,1.09,32.75z"/>
<path fill="#010101" d="M1.09,28.5C0.49,28.5,0,28.99,0,29.59c0,0.6,0.49,1.09,1.09,1.09c0.6,0,1.09-0.49,1.09-1.09
	C2.18,28.98,1.69,28.5,1.09,28.5z"/>
<path fill="#010101" d="M1.09,37.01C0.49,37.01,0,37.5,0,38.1s0.49,1.09,1.09,1.09c0.6,0,1.09-0.49,1.09-1.09S1.69,37.01,1.09,37.01
	z"/>
<path fill="#010101" d="M1.09,19.99c-0.6,0-1.09,0.49-1.09,1.09s0.49,1.09,1.09,1.09c0.6,0,1.09-0.49,1.09-1.09
	C2.18,20.47,1.69,19.99,1.09,19.99z"/>
<path fill="#010101" d="M1.09,24.24c-0.6,0-1.09,0.49-1.09,1.09s0.49,1.09,1.09,1.09c0.6,0,1.09-0.49,1.09-1.09
	S1.69,24.24,1.09,24.24z"/>
<path fill="#010101" d="M1.09,41.26c-0.29,0-0.57,0.12-0.77,0.32C0.12,41.78,0,42.06,0,42.35c0,0.29,0.12,0.57,0.32,0.77
	c0.2,0.2,0.48,0.32,0.77,0.32c0.29,0,0.57-0.12,0.77-0.32c0.2-0.2,0.32-0.48,0.32-0.77c0-0.29-0.12-0.57-0.32-0.77
	C1.65,41.38,1.37,41.26,1.09,41.26z"/>
<path fill="#010101" d="M13.83,41.26c-0.6,0-1.09,0.49-1.09,1.09c0,0.6,0.49,1.09,1.09,1.09c0.6,0,1.09-0.49,1.09-1.09
	C14.92,41.75,14.43,41.26,13.83,41.26z"/>
<path fill="#010101" d="M5.33,41.26c-0.6,0-1.09,0.49-1.09,1.09c0,0.6,0.49,1.09,1.09,1.09c0.6,0,1.09-0.49,1.09-1.09
	C6.42,41.75,5.94,41.26,5.33,41.26z"/>
<path fill="#010101" d="M9.58,41.26c-0.6,0-1.09,0.49-1.09,1.09c0,0.6,0.49,1.09,1.09,1.09c0.6,0,1.09-0.49,1.09-1.09
	C10.67,41.75,10.18,41.26,9.58,41.26z"/>
<path fill="#010101" d="M35.14,7.21h-6.13V1.08c0-0.41-0.23-0.79-0.6-0.97c-0.36-0.18-0.81-0.14-1.13,0.09l-9.81,7.22
	c-0.28,0.21-0.44,0.53-0.44,0.88v34.06c0,0.6,0.49,1.09,1.09,1.09h17.03c0.6,0,1.09-0.49,1.09-1.09V8.3
	C36.23,7.7,35.75,7.21,35.14,7.21z M19.2,8.85l7.63-5.62v31.35l-7.63,5.59V8.85z M34.05,41.26H21.4l7.17-5.25
	c0.28-0.21,0.44-0.53,0.44-0.88V9.39h5.04V41.26L34.05,41.26z"/>
</svg>
