<?xml version="1.0" encoding="utf-8"?>
<!-- Generator: Adobe Illustrator 12.0.0, SVG Export Plug-In  -->
<!DOCTYPE svg PUBLIC "-//W3C//DTD SVG 1.1//EN" "http://www.w3.org/Graphics/SVG/1.1/DTD/svg11.dtd" [
	<!ENTITY ns_flows "http://ns.adobe.com/Flows/1.0/">
	<!ENTITY ns_svg "http://www.w3.org/2000/svg">
	<!ENTITY ns_xlink "http://www.w3.org/1999/xlink">
]>
<svg  version="1.1" xmlns="&ns_svg;" xmlns:xlink="&ns_xlink;" xmlns:a="http://ns.adobe.com/AdobeSVGViewerExtensions/3.0/"
	 width="41" height="44" viewBox="-0.4 -0.96 41 44" enable-background="new -0.4 -0.96 41 44" xml:space="preserve">
<defs>
</defs>
<rect y="10.33" fill="#010101" width="11.6" height="8.37"/>
<path fill="#010101" d="M11.6,1.29C11.6,0.58,11.02,0,10.31,0H1.29C0.58,0,0,0.58,0,1.29v6.56h11.6V1.29L11.6,1.29z"/>
<path fill="#010101" d="M11.6,38.57v-6.56H0v6.56c0,0.71,0.58,1.29,1.29,1.29h9.02C11.02,39.86,11.6,39.28,11.6,38.57z M5.8,34.75
	c0.66,0,1.19,0.53,1.19,1.19s-0.53,1.19-1.19,1.19s-1.19-0.53-1.19-1.19S5.14,34.75,5.8,34.75z"/>
<rect y="21.17" fill="#010101" width="11.6" height="8.37"/>
<polygon fill="#010101" points="24.31,15.41 14.71,10.02 13.07,12.95 13.07,18.21 20.42,22.34 "/>
<path fill="#010101" d="M28.5,7.95c0.16-0.29,0.2-0.62,0.11-0.93c-0.09-0.32-0.3-0.58-0.58-0.74l-7.45-4.18
	c-0.18-0.1-0.39-0.16-0.6-0.16c-0.45,0-0.86,0.24-1.07,0.63l-3.05,5.43l9.59,5.39L28.5,7.95z"/>
<polygon fill="#010101" points="13.07,32.66 13.07,35.43 14.25,33.32 "/>
<polygon fill="#010101" points="19.28,24.37 13.07,20.88 13.07,29.99 15.39,31.29 "/>
<polygon fill="#010101" points="25.99,16.58 24.54,17.75 21.33,23.47 26.68,30.14 32.87,25.17 26.08,16.7 "/>
<path fill="#010101" d="M39.74,18.09l-5.34-6.67c-0.24-0.29-0.58-0.46-0.96-0.46c-0.28,0-0.55,0.1-0.77,0.27l-4.86,3.89l6.88,8.59
	l4.86-3.89C40.08,19.4,40.16,18.62,39.74,18.09z"/>
<path fill="#010101" d="M13.41,37.57v1c0,1.19-0.97,2.16-2.17,2.16H9.47l0.79,0.99c0.23,0.29,0.58,0.46,0.96,0.46
	c0.28,0,0.55-0.1,0.77-0.27l4.86-3.9l-2.17-2.71L13.41,37.57z"/>
<polygon fill="#010101" points="15.91,33.12 18.66,36.56 24.86,31.59 20.1,25.66 "/>
</svg>
