<?xml version="1.0" encoding="utf-8"?>
<!-- Generator: Adobe Illustrator 12.0.0, SVG Export Plug-In  -->
<!DOCTYPE svg PUBLIC "-//W3C//DTD SVG 1.1//EN" "http://www.w3.org/Graphics/SVG/1.1/DTD/svg11.dtd" [
	<!ENTITY ns_flows "http://ns.adobe.com/Flows/1.0/">
	<!ENTITY ns_svg "http://www.w3.org/2000/svg">
	<!ENTITY ns_xlink "http://www.w3.org/1999/xlink">
]>
<svg  version="1.1" xmlns="&ns_svg;" xmlns:xlink="&ns_xlink;" xmlns:a="http://ns.adobe.com/AdobeSVGViewerExtensions/3.0/"
	 width="101" height="71" viewBox="-0.45 -0.72 101 71" enable-background="new -0.45 -0.72 101 71" xml:space="preserve">
<defs>
</defs>
<path fill="#010101" d="M39.42,20.82l7.56,6.46l8.12,20.11c0.33,0.81,1,1.44,1.84,1.7l39.24,12.39c0.29,0.09,0.59,0.14,0.88,0.14
	c0.77,0,1.52-0.3,2.08-0.86c0.78-0.78,1.06-1.92,0.72-2.96L87.47,18.56c-0.26-0.84-0.89-1.51-1.71-1.84L65.72,8.65l-6.51-7.62
	c-0.53-0.62-1.3-1-2.12-1.03c-0.82-0.03-1.61,0.28-2.19,0.86L39.25,16.5c-0.58,0.58-0.89,1.38-0.86,2.19
	C38.43,19.51,38.8,20.28,39.42,20.82z M90.63,48.09L70.88,28.34c-1.15-1.15-3.01-1.15-4.16,0c-1.15,1.15-1.15,3.01,0,4.16
	l19.76,19.76L60.03,43.9l-7.11-17.61l11.73-11.73l17.63,7.09L90.63,48.09z M56.8,7.27l3.15,3.68L49.34,21.56l-3.68-3.15L56.8,7.27z"
	/>
<path fill="#010101" d="M97.06,63.8H2.94C1.32,63.8,0,65.12,0,66.74s1.32,2.94,2.94,2.94h94.12c1.62,0,2.94-1.32,2.94-2.94
	S98.68,63.8,97.06,63.8z"/>
</svg>
