<?xml version="1.0" encoding="utf-8"?>
<!-- Generator: Adobe Illustrator 12.0.0, SVG Export Plug-In  -->
<!DOCTYPE svg PUBLIC "-//W3C//DTD SVG 1.1//EN" "http://www.w3.org/Graphics/SVG/1.1/DTD/svg11.dtd" [
	<!ENTITY ns_flows "http://ns.adobe.com/Flows/1.0/">
	<!ENTITY ns_svg "http://www.w3.org/2000/svg">
	<!ENTITY ns_xlink "http://www.w3.org/1999/xlink">
]>
<svg  version="1.1" xmlns="&ns_svg;" xmlns:xlink="&ns_xlink;" xmlns:a="http://ns.adobe.com/AdobeSVGViewerExtensions/3.0/"
	 width="32" height="33" viewBox="-0.21 -0.74 32 33" enable-background="new -0.21 -0.74 32 33" xml:space="preserve">
<defs>
</defs>
<path fill="#010101" d="M6.68,5.79C5.96,5.79,5.4,6.38,5.4,7.1c0,0.72,0.56,1.29,1.29,1.29h17.85c0.72,0,1.29-0.56,1.29-1.29
	c0-0.72-0.56-1.31-1.29-1.31H6.68L6.68,5.79z"/>
<path fill="#010101" d="M24.53,19.91c0.72,0,1.29-0.56,1.29-1.28c0-0.72-0.56-1.29-1.29-1.29H6.68c-0.72,0-1.29,0.56-1.29,1.29
	c0,0.72,0.56,1.28,1.29,1.28H24.53z"/>
<path fill="#010101" d="M24.53,28.86H6.68c-0.72,0-1.29,0.58-1.29,1.31c0,0.72,0.56,1.29,1.29,1.29h17.85
	c0.72,0,1.29-0.56,1.29-1.29C25.82,29.44,25.26,28.86,24.53,28.86z"/>
<path fill="#010101" d="M1.28,2.59h28.67c0.72,0,1.29-0.56,1.29-1.29c0-0.68-0.56-1.31-1.29-1.31H1.28C0.56,0,0,0.63,0,1.31
	C0,2.03,0.56,2.59,1.28,2.59z"/>
<path fill="#010101" d="M29.95,11.54H1.28C0.56,11.54,0,12.1,0,12.83c0,0.72,0.56,1.31,1.28,1.31h28.67c0.72,0,1.29-0.58,1.29-1.31
	C31.24,12.1,30.68,11.54,29.95,11.54z"/>
<path fill="#010101" d="M29.95,23.08H1.28C0.56,23.08,0,23.64,0,24.37c0,0.72,0.56,1.29,1.28,1.29h28.67c0.72,0,1.29-0.56,1.29-1.29
	C31.24,23.64,30.68,23.08,29.95,23.08z"/>
</svg>
