<?xml version="1.0" encoding="iso-8859-1"?>
<!-- Generator: Adobe Illustrator 18.0.0, SVG Export Plug-In . SVG Version: 6.00 Build 0)  -->
<!DOCTYPE svg PUBLIC "-//W3C//DTD SVG 1.1//EN" "http://www.w3.org/Graphics/SVG/1.1/DTD/svg11.dtd">
<svg version="1.1" id="Capa_1" xmlns="http://www.w3.org/2000/svg" xmlns:xlink="http://www.w3.org/1999/xlink" x="0px" y="0px"
	 viewBox="0 0 45 45" style="enable-background:new 0 0 45 45;" xml:space="preserve">
<g id="Rectangle_45_copy_6">
	<g>
		<path style="fill-rule:evenodd;clip-rule:evenodd;" d="M45,21h-4.049C40.447,11.861,33.14,4.554,24,4.051V0h-2v4.051
			C12.86,4.554,5.553,11.861,5.049,21H0v2h5.049C5.553,32.139,12.86,39.446,22,39.95V45h2v-5.05
			c9.14-0.504,16.447-7.811,16.951-16.95H45V21z M38.951,21H24V6.05C32.036,6.549,38.453,12.965,38.951,21z M22,6.05V21H7.049
			C7.547,12.965,13.964,6.549,22,6.05z M7.049,23H22v14.95C13.964,37.451,7.547,31.034,7.049,23z M24,37.95V23h14.951
			C38.453,31.034,32.036,37.451,24,37.95z"/>
	</g>
</g>
<g>
</g>
<g>
</g>
<g>
</g>
<g>
</g>
<g>
</g>
<g>
</g>
<g>
</g>
<g>
</g>
<g>
</g>
<g>
</g>
<g>
</g>
<g>
</g>
<g>
</g>
<g>
</g>
<g>
</g>
</svg>
