<?xml version="1.0" encoding="utf-8"?>
<!-- Generator: Adobe Illustrator 16.0.4, SVG Export Plug-In . SVG Version: 6.00 Build 0)  -->
<!DOCTYPE svg PUBLIC "-//W3C//DTD SVG 1.1//EN" "http://www.w3.org/Graphics/SVG/1.1/DTD/svg11.dtd">
<svg version="1.1" id="Layer_1" xmlns="http://www.w3.org/2000/svg" xmlns:xlink="http://www.w3.org/1999/xlink" x="0px" y="0px"
	 width="50px" height="50px" viewBox="0 0 50 50" enable-background="new 0 0 50 50" xml:space="preserve">
<path d="M41.334,23.001h-4.011c-0.854-5.29-5.033-9.468-10.322-10.324v-4.01h-4v4.009c-5.29,0.856-9.469,5.034-10.325,10.323h-4.01
	v4h4.009c0.855,5.291,5.035,9.472,10.326,10.327v4.007h4v-4.008c5.289-0.856,9.468-5.034,10.322-10.324h4.011V23.001L41.334,23.001z
	 M27.001,35.305v-3.638h-4v3.638c-4.188-0.812-7.494-4.115-8.305-8.306h3.636v-4h-3.636c0.812-4.188,4.117-7.491,8.305-8.302v3.636
	h4v-3.636c4.188,0.812,7.49,4.115,8.303,8.304h-3.637v4h3.637C34.491,31.188,31.188,34.493,27.001,35.305z"/>
</svg>
