<?xml version="1.0" encoding="iso-8859-1"?>
<!-- Generator: Adobe Illustrator 17.0.0, SVG Export Plug-In . SVG Version: 6.00 Build 0)  -->
<!DOCTYPE svg PUBLIC "-//W3C//DTD SVG 1.1//EN" "http://www.w3.org/Graphics/SVG/1.1/DTD/svg11.dtd">
<svg version="1.1" id="Capa_1" xmlns="http://www.w3.org/2000/svg" xmlns:xlink="http://www.w3.org/1999/xlink" x="0px" y="0px"
	 width="64px" height="64px" viewBox="0 0 64 64" style="enable-background:new 0 0 64 64;" xml:space="preserve">
<g>
	<path d="M32,60.72c15.836,0,28.72-12.884,28.72-28.72S47.836,3.28,32,3.28S3.28,16.164,3.28,32S16.164,60.72,32,60.72z M32,5.28
		c14.733,0,26.72,11.986,26.72,26.72S46.733,58.72,32,58.72S5.28,46.733,5.28,32S17.267,5.28,32,5.28z"/>
	<path d="M16.814,47.091c0.015,0.018,0.021,0.04,0.038,0.057s0.039,0.023,0.057,0.038c3.875,3.851,9.209,6.237,15.091,6.237
		s11.216-2.385,15.091-6.237c0.018-0.015,0.04-0.021,0.057-0.038s0.023-0.039,0.038-0.057c3.851-3.875,6.237-9.209,6.237-15.091
		s-2.385-11.216-6.237-15.091c-0.015-0.018-0.021-0.04-0.038-0.057s-0.039-0.023-0.057-0.038c-3.875-3.851-9.209-6.237-15.091-6.237
		s-11.216,2.385-15.091,6.237c-0.018,0.015-0.04,0.021-0.057,0.038s-0.023,0.039-0.038,0.057c-3.851,3.875-6.237,9.209-6.237,15.091
		S12.962,43.216,16.814,47.091z M17.599,19.013l3.585,3.585C18.99,25.119,17.65,28.403,17.65,32s1.34,6.881,3.534,9.402
		l-3.585,3.585c-3.11-3.445-5.022-7.991-5.022-12.987S14.489,22.458,17.599,19.013z M26.65,28.064
		c0.195,0.195,0.451,0.293,0.707,0.293s0.512-0.098,0.707-0.293c0.391-0.391,0.391-1.023,0-1.414l-4.053-4.053
		c1.917-1.631,4.334-2.683,6.988-2.898v5.734c0,0.553,0.448,1,1,1s1-0.447,1-1V19.7c2.654,0.214,5.072,1.266,6.989,2.897
		l-4.053,4.053c-0.391,0.391-0.391,1.023,0,1.414c0.195,0.195,0.451,0.293,0.707,0.293s0.512-0.098,0.707-0.293l4.053-4.053
		c1.834,2.156,2.948,4.943,2.948,7.989s-1.114,5.833-2.948,7.989l-4.053-4.053c-0.391-0.391-1.023-0.391-1.414,0
		s-0.391,1.023,0,1.414l4.053,4.053C38.072,43.034,35.654,44.086,33,44.3v-5.734c0-0.553-0.448-1-1-1s-1,0.447-1,1V44.3
		c-2.654-0.214-5.072-1.266-6.988-2.898l4.053-4.053c0.391-0.391,0.391-1.023,0-1.414s-1.023-0.391-1.414,0l-4.053,4.053
		C20.763,37.833,19.65,35.046,19.65,32s1.114-5.833,2.948-7.988L26.65,28.064z M22.598,42.816c2.285,1.989,5.198,3.262,8.402,3.484
		v5.072c-4.6-0.236-8.775-2.071-11.987-4.971L22.598,42.816z M33,51.372V46.3c3.204-0.222,6.117-1.495,8.402-3.484l3.585,3.585
		C41.775,49.301,37.6,51.136,33,51.372z M46.401,44.987l-3.585-3.585c2.195-2.521,3.535-5.805,3.535-9.402s-1.34-6.881-3.535-9.402
		l3.585-3.585c3.11,3.445,5.022,7.991,5.022,12.987S49.511,41.542,46.401,44.987z M41.402,21.184
		C39.117,19.195,36.204,17.923,33,17.7v-5.072c4.6,0.236,8.775,2.071,11.987,4.971L41.402,21.184z M31,12.628V17.7
		c-3.204,0.222-6.117,1.495-8.402,3.484l-3.585-3.585C22.225,14.699,26.4,12.864,31,12.628z"/>
	<circle cx="32" cy="31.75" r="1.938"/>
</g>
</svg>
