<?xml version="1.0" encoding="iso-8859-1"?>
<!-- Generator: Adobe Illustrator 17.0.0, SVG Export Plug-In . SVG Version: 6.00 Build 0)  -->
<!DOCTYPE svg PUBLIC "-//W3C//DTD SVG 1.1//EN" "http://www.w3.org/Graphics/SVG/1.1/DTD/svg11.dtd">
<svg version="1.1" id="Capa_1" xmlns="http://www.w3.org/2000/svg" xmlns:xlink="http://www.w3.org/1999/xlink" x="0px" y="0px"
	 width="64px" height="64px" viewBox="0 0 64 64" style="enable-background:new 0 0 64 64;" xml:space="preserve">
<g>
	<polygon points="47.971,10.759 47.971,16.759 56,16.759 56,47 47.971,47 47.971,53 62,53 62,10.759 	"/>
	<polygon points="8,16.759 16.029,16.759 16.029,10.759 2,10.759 2,53 16.029,53 16.029,47 8,47 	"/>
	<rect x="30" y="17.125" width="4" height="9.128"/>
	<polygon points="53,34.311 53,30.311 47.971,30.311 38.462,30.311 38.462,34.311 47.971,34.311 	"/>
	<rect x="30" y="37.367" width="4" height="9.128"/>
	<polygon points="11,30.311 11,34.311 16.029,34.311 25.538,34.311 25.538,30.311 16.029,30.311 	"/>
</g>
</svg>
