<?xml version="1.0" encoding="iso-8859-1"?>
<!-- Generator: Adobe Illustrator 17.0.0, SVG Export Plug-In . SVG Version: 6.00 Build 0)  -->
<!DOCTYPE svg PUBLIC "-//W3C//DTD SVG 1.1//EN" "http://www.w3.org/Graphics/SVG/1.1/DTD/svg11.dtd">
<svg version="1.1" id="Capa_1" xmlns="http://www.w3.org/2000/svg" xmlns:xlink="http://www.w3.org/1999/xlink" x="0px" y="0px"
	 width="64px" height="64px" viewBox="0 0 64 64" style="enable-background:new 0 0 64 64;" xml:space="preserve">
<g>
	<circle cx="31.833" cy="32" r="2.333"/>
	<path d="M5.042,34.5h18.89c1.381,0,2.5-1.119,2.5-2.5s-1.119-2.5-2.5-2.5H5.042c-1.381,0-2.5,1.119-2.5,2.5S3.661,34.5,5.042,34.5z
		"/>
	<path d="M34.333,5.209c0-1.381-1.119-2.5-2.5-2.5s-2.5,1.119-2.5,2.5v18.89c0,1.381,1.119,2.5,2.5,2.5s2.5-1.119,2.5-2.5V5.209z"/>
	<path d="M61.125,32c0-1.381-1.119-2.5-2.5-2.5h-18.89c-1.381,0-2.5,1.119-2.5,2.5s1.119,2.5,2.5,2.5h18.89
		C60.005,34.5,61.125,33.381,61.125,32z"/>
	<path d="M29.333,58.791c0,1.381,1.119,2.5,2.5,2.5s2.5-1.119,2.5-2.5v-18.89c0-1.381-1.119-2.5-2.5-2.5s-2.5,1.119-2.5,2.5V58.791z
		"/>
</g>
</svg>
