<?xml version="1.0" encoding="iso-8859-1"?>
<!-- Generator: Adobe Illustrator 17.0.0, SVG Export Plug-In . SVG Version: 6.00 Build 0)  -->
<!DOCTYPE svg PUBLIC "-//W3C//DTD SVG 1.1//EN" "http://www.w3.org/Graphics/SVG/1.1/DTD/svg11.dtd">
<svg version="1.1" id="Capa_1" xmlns="http://www.w3.org/2000/svg" xmlns:xlink="http://www.w3.org/1999/xlink" x="0px" y="0px"
	 width="64px" height="64px" viewBox="0 0 64 64" style="enable-background:new 0 0 64 64;" xml:space="preserve">
<g>
	<circle cx="31.833" cy="32" r="2.833"/>
	<path d="M37.973,9.168l-1.707,5.346c-0.169,0.526,0.122,1.089,0.648,1.257c0.101,0.032,0.203,0.048,0.304,0.048
		c0.424,0,0.817-0.271,0.952-0.696l1.707-5.346c0.169-0.526-0.122-1.089-0.648-1.257C38.705,8.353,38.14,8.643,37.973,9.168z"/>
	<path d="M23.331,17.128c0.161,0,0.324-0.039,0.476-0.121c0.486-0.264,0.666-0.871,0.402-1.356l-2.677-4.932
		c-0.264-0.485-0.871-0.665-1.355-0.402c-0.486,0.264-0.666,0.871-0.402,1.356l2.677,4.932
		C22.633,16.939,22.977,17.128,23.331,17.128z"/>
	<path d="M47.706,24.497c0.161,0,0.324-0.039,0.476-0.121l4.932-2.677c0.486-0.264,0.666-0.871,0.402-1.356s-0.87-0.666-1.355-0.402
		l-4.932,2.677c-0.486,0.264-0.666,0.871-0.402,1.356C47.008,24.308,47.351,24.497,47.706,24.497z"/>
	<path d="M54.664,38.14l-5.346-1.707c-0.524-0.174-1.089,0.122-1.256,0.648c-0.169,0.525,0.122,1.088,0.648,1.256l5.346,1.707
		c0.101,0.033,0.203,0.048,0.304,0.048c0.424,0,0.817-0.271,0.952-0.696C55.481,38.87,55.19,38.308,54.664,38.14z"/>
	<path d="M24.437,55.479c0.101,0.033,0.203,0.048,0.304,0.048c0.424,0,0.817-0.271,0.952-0.696l1.707-5.346
		c0.169-0.525-0.122-1.088-0.648-1.256c-0.525-0.174-1.089,0.122-1.256,0.648l-1.707,5.346
		C23.62,54.749,23.911,55.312,24.437,55.479z"/>
	<path d="M39.859,46.993c-0.486,0.264-0.666,0.87-0.402,1.355l2.677,4.932c0.182,0.334,0.525,0.523,0.88,0.523
		c0.161,0,0.324-0.039,0.476-0.121c0.486-0.264,0.666-0.87,0.402-1.355l-2.677-4.932C40.95,46.91,40.344,46.731,39.859,46.993z"/>
	<path d="M15.485,39.624l-4.932,2.677c-0.486,0.264-0.666,0.87-0.402,1.355c0.182,0.334,0.525,0.523,0.88,0.523
		c0.161,0,0.324-0.039,0.476-0.121l4.932-2.677c0.486-0.264,0.666-0.87,0.402-1.355S15.971,39.36,15.485,39.624z"/>
	<path d="M14.956,25.663l-5.345-1.707c-0.53-0.168-1.089,0.123-1.257,0.648c-0.169,0.526,0.122,1.089,0.647,1.257l5.345,1.707
		c0.102,0.032,0.204,0.048,0.305,0.048c0.424,0,0.816-0.271,0.952-0.696C15.772,26.394,15.481,25.831,14.956,25.663z"/>
	<path d="M31.937,25.082c0.826,0,1.497-0.668,1.5-1.495L33.507,2.6c0.003-0.828-0.667-1.502-1.495-1.505c-0.002,0-0.003,0-0.005,0
		c-0.826,0-1.497,0.668-1.5,1.495l-0.07,20.986c-0.003,0.828,0.667,1.502,1.495,1.505C31.934,25.082,31.935,25.082,31.937,25.082z"
		/>
	<path d="M17.897,21.597c0.292,0,0.581-0.127,0.778-0.371c0.348-0.43,0.281-1.059-0.148-1.407l-4.361-3.53
		c-0.429-0.349-1.061-0.28-1.406,0.148c-0.348,0.43-0.281,1.059,0.148,1.407l4.361,3.53C17.454,21.524,17.677,21.597,17.897,21.597z
		"/>
	<path d="M43.235,19.065c0.292,0,0.581-0.127,0.778-0.371l3.53-4.362c0.348-0.429,0.281-1.059-0.148-1.406
		c-0.429-0.348-1.06-0.28-1.406,0.148l-3.53,4.362c-0.348,0.429-0.281,1.059,0.148,1.406C42.792,18.993,43.015,19.065,43.235,19.065
		z"/>
	<path d="M61.243,30.674l-19.986-0.07c-0.001,0-0.003,0-0.005,0c-0.826,0-1.497,0.668-1.5,1.495
		c-0.003,0.829,0.666,1.502,1.495,1.505l19.986,0.07c0.001,0,0.003,0,0.005,0c0.826,0,1.497-0.668,1.5-1.495
		C62.741,31.351,62.072,30.677,61.243,30.674z"/>
	<path d="M31.654,62.904c0.002,0,0.003,0,0.005,0c0.826,0,1.497-0.668,1.5-1.495l0.07-20.985c0.003-0.828-0.667-1.502-1.495-1.505
		c-0.002,0-0.003,0-0.005,0c-0.826,0-1.497,0.668-1.5,1.495l-0.07,20.985C30.156,62.228,30.826,62.901,31.654,62.904z"/>
	<path d="M44.991,42.774c-0.348,0.429-0.281,1.059,0.148,1.406l4.361,3.53c0.185,0.149,0.407,0.223,0.628,0.223
		c0.292,0,0.581-0.127,0.778-0.371c0.348-0.429,0.281-1.059-0.148-1.406l-4.361-3.53C45.969,42.278,45.337,42.345,44.991,42.774z"/>
	<path d="M19.652,45.306l-3.529,4.362c-0.348,0.43-0.281,1.059,0.148,1.406c0.185,0.149,0.407,0.223,0.628,0.223
		c0.292,0,0.581-0.127,0.778-0.371l3.529-4.362c0.348-0.43,0.281-1.059-0.148-1.406C20.63,44.811,19.999,44.877,19.652,45.306z"/>
	<path d="M40.404,17.166c0.354,0,0.696-0.188,0.878-0.519l2.698-4.92c0.266-0.484,0.088-1.092-0.396-1.358s-1.093-0.087-1.357,0.396
		l-2.698,4.92c-0.266,0.484-0.088,1.092,0.396,1.358C40.077,17.126,40.242,17.166,40.404,17.166z"/>
	<path d="M27.478,14.495l-1.684-5.353c-0.166-0.525-0.726-0.821-1.254-0.654c-0.527,0.166-0.82,0.728-0.654,1.254l1.684,5.353
		c0.135,0.427,0.528,0.7,0.954,0.7c0.099,0,0.2-0.015,0.3-0.046C27.351,15.583,27.644,15.021,27.478,14.495z"/>
	<path d="M49.038,27.69c0.099,0,0.2-0.015,0.3-0.046l5.354-1.684c0.527-0.166,0.819-0.727,0.654-1.254
		c-0.166-0.526-0.727-0.822-1.254-0.654l-5.354,1.684c-0.527,0.166-0.819,0.727-0.654,1.254
		C48.219,27.417,48.612,27.69,49.038,27.69z"/>
	<path d="M46.791,40.092c-0.266,0.483-0.088,1.092,0.396,1.357l4.92,2.698c0.152,0.084,0.317,0.123,0.479,0.123
		c0.354,0,0.696-0.188,0.878-0.52c0.266-0.483,0.088-1.092-0.396-1.357l-4.92-2.698C47.664,39.429,47.057,39.607,46.791,40.092z"/>
	<path d="M22.384,47.354l-2.697,4.921c-0.266,0.484-0.088,1.092,0.396,1.357c0.152,0.084,0.317,0.123,0.479,0.123
		c0.354,0,0.696-0.188,0.878-0.52l2.697-4.921c0.266-0.484,0.088-1.092-0.396-1.357C23.256,46.69,22.648,46.869,22.384,47.354z"/>
	<path d="M37.873,54.857c0.135,0.428,0.528,0.7,0.954,0.7c0.099,0,0.2-0.015,0.3-0.046c0.527-0.166,0.82-0.728,0.654-1.254
		l-1.684-5.353c-0.166-0.527-0.725-0.82-1.254-0.654c-0.527,0.166-0.82,0.728-0.654,1.254L37.873,54.857z"/>
	<path d="M14.328,36.355l-5.353,1.684c-0.527,0.166-0.82,0.728-0.654,1.254c0.135,0.428,0.528,0.7,0.954,0.7
		c0.099,0,0.2-0.015,0.3-0.046l5.353-1.684c0.527-0.166,0.82-0.728,0.654-1.254C15.416,36.482,14.857,36.188,14.328,36.355z"/>
	<path d="M16.876,23.909c0.266-0.484,0.088-1.092-0.396-1.358l-4.92-2.698c-0.484-0.266-1.093-0.087-1.357,0.396
		c-0.266,0.484-0.088,1.092,0.396,1.358l4.92,2.698c0.152,0.083,0.317,0.123,0.479,0.123C16.352,24.428,16.694,24.24,16.876,23.909z
		"/>
	<path d="M20.338,19.142c0.227,0,0.454-0.077,0.642-0.234c0.423-0.355,0.479-0.985,0.124-1.409L17.498,13.2
		c-0.355-0.422-0.984-0.478-1.409-0.124c-0.423,0.355-0.479,0.985-0.124,1.409l3.605,4.299
		C19.769,19.02,20.052,19.142,20.338,19.142z"/>
	<path d="M45.692,21.504c0.227,0,0.454-0.077,0.642-0.234l4.3-3.606c0.423-0.355,0.479-0.985,0.124-1.409
		c-0.354-0.423-0.984-0.479-1.409-0.124l-4.3,3.606c-0.423,0.355-0.479,0.985-0.124,1.409
		C45.123,21.382,45.406,21.504,45.692,21.504z"/>
	<path d="M42.687,45.093c-0.423,0.354-0.479,0.985-0.123,1.408L46.17,50.8c0.197,0.236,0.48,0.357,0.767,0.357
		c0.227,0,0.454-0.077,0.642-0.234c0.423-0.354,0.479-0.985,0.123-1.408l-3.606-4.299C43.742,44.793,43.111,44.737,42.687,45.093z"
		/>
	<path d="M17.332,42.729l-4.299,3.605c-0.423,0.355-0.479,0.986-0.124,1.409c0.198,0.236,0.481,0.357,0.768,0.357
		c0.227,0,0.454-0.077,0.642-0.233l4.299-3.605c0.423-0.355,0.479-0.986,0.124-1.409C18.386,42.431,17.757,42.376,17.332,42.729z"/>
	<path d="M22.41,33.396c0.001,0,0.003,0,0.005,0c0.826,0,1.497-0.668,1.5-1.495c0.003-0.829-0.666-1.502-1.495-1.505l-19.986-0.07
		c-0.001,0-0.003,0-0.005,0c-0.826,0-1.497,0.668-1.5,1.495c-0.003,0.829,0.666,1.502,1.495,1.505L22.41,33.396z"/>
</g>
</svg>
