<?xml version="1.0" encoding="iso-8859-1"?>
<!-- Generator: Adobe Illustrator 18.0.0, SVG Export Plug-In . SVG Version: 6.00 Build 0)  -->
<!DOCTYPE svg PUBLIC "-//W3C//DTD SVG 1.1//EN" "http://www.w3.org/Graphics/SVG/1.1/DTD/svg11.dtd">
<svg version="1.1" id="Capa_1" xmlns="http://www.w3.org/2000/svg" xmlns:xlink="http://www.w3.org/1999/xlink" x="0px" y="0px"
	 viewBox="0 0 38 38" style="enable-background:new 0 0 38 38;" xml:space="preserve">
<g id="zoom">
	<g>
		<path style="fill-rule:evenodd;clip-rule:evenodd;" d="M0,3v5h2V3c0-0.551,0.449-1,1-1h5V0H3C1.346,0,0,1.346,0,3z M35,0h-5v2h5
			c0.551,0,1,0.449,1,1v5h2V3C38,1.346,36.654,0,35,0z M2,35v-5H0v5c0,1.654,1.346,3,3,3h5v-2H3C2.449,36,2,35.551,2,35z M36,35
			c0,0.551-0.449,1-1,1h-5v2h5c1.654,0,3-1.346,3-3v-5h-2V35z M20,13h-2v5h-5v2h5v5h2v-5h5v-2h-5V13z"/>
	</g>
</g>
<g>
</g>
<g>
</g>
<g>
</g>
<g>
</g>
<g>
</g>
<g>
</g>
<g>
</g>
<g>
</g>
<g>
</g>
<g>
</g>
<g>
</g>
<g>
</g>
<g>
</g>
<g>
</g>
<g>
</g>
</svg>
