<?xml version="1.0" encoding="iso-8859-1"?>
<!-- Generator: Adobe Illustrator 17.0.0, SVG Export Plug-In . SVG Version: 6.00 Build 0)  -->
<!DOCTYPE svg PUBLIC "-//W3C//DTD SVG 1.1//EN" "http://www.w3.org/Graphics/SVG/1.1/DTD/svg11.dtd">
<svg version="1.1" id="Capa_1" xmlns="http://www.w3.org/2000/svg" xmlns:xlink="http://www.w3.org/1999/xlink" x="0px" y="0px"
	 width="64px" height="64px" viewBox="0 0 64 64" style="enable-background:new 0 0 64 64;" xml:space="preserve">
<g>
	<path d="M14.265,31.36V18.966c0-0.428,0.348-0.774,0.775-0.774h12.394v-4.648H15.04c-2.99,0-5.422,2.434-5.422,5.423V31.36H14.265z
		"/>
	<path d="M47.574,13.543H35.18v4.648h12.395c0.427,0,0.774,0.347,0.774,0.774V31.36h4.648V18.966
		C52.996,15.977,50.565,13.543,47.574,13.543z"/>
	<path d="M14.265,50.726V38.332H9.617v12.394c0,2.99,2.432,5.423,5.422,5.423h12.394v-4.647H15.04
		C14.612,51.501,14.265,51.153,14.265,50.726z"/>
	<path d="M48.349,50.726c0,0.428-0.348,0.775-0.774,0.775H35.18v4.647h12.395c2.99,0,5.422-2.433,5.422-5.423V38.332h-4.648V50.726z
		"/>
	<path d="M38.957,36.008h4.047v-2.324h-4.047c-0.508-3.34-3.147-5.982-6.488-6.487v-4.048h-2.324v4.048
		c-3.341,0.506-5.982,3.148-6.488,6.487h-4.049v2.324h4.049c0.505,3.341,3.147,5.981,6.488,6.487v4.049h2.324v-4.049
		C35.81,41.989,38.449,39.349,38.957,36.008z M30.145,39.341c-1.629-0.422-2.911-1.703-3.333-3.333h3.333V39.341z M30.145,33.684
		h-3.333c0.422-1.629,1.704-2.91,3.333-3.333V33.684z M32.469,39.341v-3.333h3.333C35.38,37.638,34.098,38.919,32.469,39.341z
		 M32.469,33.684v-3.333c1.629,0.423,2.911,1.704,3.333,3.333H32.469z"/>
</g>
</svg>
