<?xml version="1.0" encoding="utf-8"?>
<!-- Generator: Adobe Illustrator 17.0.2, SVG Export Plug-In . SVG Version: 6.00 Build 0)  -->
<!DOCTYPE svg PUBLIC "-//W3C//DTD SVG 1.1//EN" "http://www.w3.org/Graphics/SVG/1.1/DTD/svg11.dtd">
<svg version="1.1" id="Capa_1" xmlns="http://www.w3.org/2000/svg" xmlns:xlink="http://www.w3.org/1999/xlink" x="0px" y="0px"
	 width="64px" height="64px" viewBox="0 0 64 64" enable-background="new 0 0 64 64" xml:space="preserve">
<g>
	<path d="M58.625,17.024h-3.894c-5.648-2.521-10.443-3.817-14.265-3.817c-4.951,0-7.268,2.157-8.316,3.803
		c-1.048-1.646-3.365-3.803-8.316-3.803c-3.822,0-8.617,1.297-14.266,3.817H5.674c-1.657,0-3,1.343-3,3v29.201c0,1.657,1.343,3,3,3
		h52.951c1.657,0,3-1.343,3-3V20.024C61.625,18.367,60.282,17.024,58.625,17.024z M31.338,18.845
		c-0.009,0.046-0.013,0.093-0.013,0.14v27.541c-1.312-1.515-3.509-2.675-7.186-2.675c-6.563,0-14.801,3.599-17.743,4.991V20.19
		c2.52-1.283,4.872-2.331,7.066-3.166c4.027-1.532,7.505-2.317,10.371-2.317c3.517,0,5.439,1.177,6.479,2.317
		c0.6,0.658,0.909,1.303,1.055,1.702C31.35,18.793,31.339,18.841,31.338,18.845z M57.902,48.842
		c-2.941-1.392-11.18-4.991-17.742-4.991c-3.677,0-5.874,1.159-7.186,2.675c-0.048,0.055-0.104,0.107-0.149,0.164v-27.62
		c0.016-0.065,0.05-0.182,0.108-0.338c0.148-0.398,0.463-1.046,1.07-1.707c1.046-1.14,2.968-2.317,6.463-2.317
		c2.866,0,6.343,0.785,10.371,2.317c2.195,0.835,4.546,1.883,7.066,3.166V48.842z"/>
</g>
</svg>
