<?xml version="1.0" encoding="utf-8"?>
<!-- Generator: Adobe Illustrator 17.0.2, SVG Export Plug-In . SVG Version: 6.00 Build 0)  -->
<!DOCTYPE svg PUBLIC "-//W3C//DTD SVG 1.1//EN" "http://www.w3.org/Graphics/SVG/1.1/DTD/svg11.dtd">
<svg version="1.1" id="Capa_1" xmlns="http://www.w3.org/2000/svg" xmlns:xlink="http://www.w3.org/1999/xlink" x="0px" y="0px"
	 width="64px" height="64px" viewBox="0 0 64 64" enable-background="new 0 0 64 64" xml:space="preserve">
<g>
	<path d="M44.843,43.879l18.75-17.814l-11.696-12.31L44.843,43.879z M59.352,25.956l-9.3,8.835l3.499-14.941L59.352,25.956z"/>
	<path d="M50.036,12.494l-0.066-0.016L33.354,8.587l-0.061,0.259l10.166,31.733L50.036,12.494z M37.671,12.679l8.76,2.051
		l-3.422,14.611L37.671,12.679z"/>
	<path d="M14.623,13.611l0.598,1.867l26.425,26.425l0.016-0.051L30.94,8.383L14.623,13.611z M19.261,15.275l9.737-3.119l6.06,18.917
		L19.261,15.275z"/>
	<path d="M42.93,45.904l0.091-0.091l-0.048-0.048l-30.24-30.24l-0.029,0.029L0.618,27.64l30.288,30.288L42.93,45.904z
		 M12.733,19.767l26.046,26.046l-7.873,7.873L4.86,27.64L12.733,19.767z"/>
	<circle cx="31" cy="46" r="2.625"/>
</g>
</svg>
