<?xml version="1.0" encoding="utf-8"?>
<!-- Generator: Adobe Illustrator 17.0.2, SVG Export Plug-In . SVG Version: 6.00 Build 0)  -->
<!DOCTYPE svg PUBLIC "-//W3C//DTD SVG 1.1//EN" "http://www.w3.org/Graphics/SVG/1.1/DTD/svg11.dtd">
<svg version="1.1" id="Capa_1" xmlns="http://www.w3.org/2000/svg" xmlns:xlink="http://www.w3.org/1999/xlink" x="0px" y="0px"
	 width="64px" height="64px" viewBox="0 0 64 64" enable-background="new 0 0 64 64" xml:space="preserve">
<g>
	<path d="M58.807,32.14c-0.285-0.779-1.149-1.179-1.924-0.893L42.83,36.395l11.359-11.351c0.281-0.28,0.439-0.662,0.439-1.061
		c0-0.397-0.158-0.779-0.439-1.061l-8.787-8.792c-0.586-0.586-1.535-0.586-2.121,0L32.14,25.263l6.248-14.822
		c0.155-0.367,0.157-0.78,0.008-1.148c-0.15-0.368-0.44-0.662-0.807-0.816L26.136,3.648c-0.764-0.326-1.644,0.037-1.965,0.799
		L18,19.086V3.5C18,2.672,17.328,2,16.5,2h-13C2.672,2,2,2.672,2,3.5v57C2,61.328,2.672,62,3.5,62h13
		c0.183,0,0.357-0.038,0.519-0.098C17.181,61.961,17.35,62,17.526,62c0.172,0,0.346-0.029,0.516-0.092l44.147-16.174
		c0.778-0.285,1.178-1.146,0.893-1.924L58.807,32.14z M10.867,59H5v-2.474v-1.627v-1.114v-3.86V5h10v21.202v3.861v3.862v8.467v2.12
		v2.078v0.043v9.293v1.561v0.477v0.084V59h-0.271H13.83H10.867z M35.042,10.658l-8.527,20.227l-1.545,3.664l-1.545,3.664
		l-2.638,6.257l-1.593,3.778L18,51.083v-2.397v-3.195v-1.856v-2.121v-2.12V26.809l8.353-19.813L35.042,10.658z M23.045,46.837
		l1.593-3.778l4.413-10.468L44.34,17.312l6.667,6.67L36.13,38.849l-5.047,5.044L19.339,55.629L23.045,46.837z M21.917,57.294
		l15.865-15.855l18.724-6.859l3.243,8.854L21.917,57.294z"/>
	<path d="M10,52.833c-0.066,0-0.128,0.014-0.192,0.019c-0.562,0.05-1.059,0.309-1.415,0.706c-0.235,0.262-0.408,0.58-0.494,0.934
		C7.86,54.656,7.833,54.824,7.833,55c0,0.476,0.158,0.912,0.418,1.269c0.394,0.542,1.028,0.897,1.749,0.897
		c0.105,0,0.205-0.016,0.306-0.031c0.433-0.062,0.823-0.249,1.133-0.528c0.15-0.135,0.282-0.286,0.39-0.458
		c0.178-0.282,0.286-0.608,0.317-0.957c0.006-0.065,0.019-0.127,0.019-0.193C12.167,53.803,11.197,52.833,10,52.833z"/>
</g>
</svg>
