<?xml version="1.0" encoding="utf-8"?>
<!-- Generator: Adobe Illustrator 16.0.4, SVG Export Plug-In . SVG Version: 6.00 Build 0)  -->
<!DOCTYPE svg PUBLIC "-//W3C//DTD SVG 1.1//EN" "http://www.w3.org/Graphics/SVG/1.1/DTD/svg11.dtd">
<svg version="1.1" id="Layer_1" xmlns="http://www.w3.org/2000/svg" xmlns:xlink="http://www.w3.org/1999/xlink" x="0px" y="0px"
	 width="31.464px" height="23.52px" viewBox="0 0 31.464 23.52" enable-background="new 0 0 31.464 23.52" xml:space="preserve">
<path d="M30.218,3.037V1.055l-0.285-0.112C29.835,0.904,27.507,0,24.4,0c-3.328,0-6.195,1.015-8.527,3.015
	C13.54,1.014,10.673,0,7.346,0C4.238,0,1.91,0.904,1.813,0.943L1.527,1.055v1.836C0.586,3.066,0,3.382,0,3.896
	c0,2.677,0,18.918,0,18.918h13.933c0.482,0.431,1.187,0.704,1.975,0.704c0.788,0,1.492-0.273,1.974-0.704h13.582
	c0,0,0-17.979,0-18.918C31.464,3.477,30.99,3.205,30.218,3.037z M15.722,21.323c-1.157-0.478-5.141-1.992-9.131-1.992
	c-1.576,0-2.973,0.241-4.164,0.719V1.681h0.001c0.695-0.232,2.587-0.779,4.918-0.779c3.063,0,5.696,0.927,7.846,2.732v10.965
	l0.53-0.585V21.323z M29.317,20.055c-1.278-0.514-2.745-0.773-4.371-0.773c-3.987,0-7.782,1.528-8.923,2.031v-7.298l0.531,0.585
	V3.635c2.148-1.806,4.781-2.732,7.846-2.732c2.322,0,4.221,0.548,4.917,0.779V20.055z"/>
</svg>
