<?xml version="1.0" encoding="iso-8859-1"?>
<!-- Generator: Adobe Illustrator 16.0.0, SVG Export Plug-In . SVG Version: 6.00 Build 0)  -->
<!DOCTYPE svg PUBLIC "-//W3C//DTD SVG 1.1//EN" "http://www.w3.org/Graphics/SVG/1.1/DTD/svg11.dtd">
<svg version="1.1" id="Layer_1" xmlns="http://www.w3.org/2000/svg" xmlns:xlink="http://www.w3.org/1999/xlink" x="0px" y="0px"
	 width="31.465px" height="23.519px" viewBox="0 0 31.465 23.519" style="enable-background:new 0 0 31.465 23.519;"
	 xml:space="preserve">
<g>
	<path d="M30.22,3.037V1.055l-0.285-0.112C29.836,0.904,27.507,0,24.4,0c-3.328,0-6.194,1.014-8.527,3.014
		C13.541,1.014,10.674,0,7.346,0C4.239,0,1.91,0.904,1.813,0.943L1.526,1.055v1.836C0.586,3.067,0,3.382,0,3.896
		c0,2.676,0,18.918,0,18.918h13.934c0.482,0.431,1.187,0.704,1.975,0.704c0.789,0,1.493-0.273,1.975-0.704h13.582
		c0,0,0-17.979,0-18.918C31.465,3.478,30.99,3.205,30.22,3.037z M15.723,21.322c-1.156-0.478-5.14-1.992-9.13-1.992
		c-1.577,0-2.974,0.242-4.163,0.72V1.681c0.694-0.232,2.586-0.779,4.916-0.779c3.064,0,5.697,0.927,7.847,2.733V14.6l0.53-0.585
		V21.322z M29.317,20.054c-1.278-0.513-2.745-0.772-4.37-0.772c-3.988,0-7.783,1.528-8.925,2.031v-7.299l0.532,0.585V3.635
		c2.15-1.807,4.783-2.733,7.846-2.733c2.322,0,4.221,0.548,4.917,0.779V20.054z"/>
	<path d="M4.217,4.097l0.187,0.707c4.705-1.248,8.938,1.062,8.981,1.085L13.74,5.25C13.559,5.149,9.212,2.773,4.217,4.097z"/>
	<path d="M4.217,6.167l0.187,0.707c4.705-1.249,8.938,1.061,8.981,1.084L13.74,7.32C13.559,7.218,9.212,4.843,4.217,6.167z"/>
	<path d="M4.217,8.112l0.187,0.707c4.705-1.247,8.938,1.062,8.981,1.085l0.355-0.639C13.559,9.164,9.212,6.789,4.217,8.112z"/>
	<path d="M4.217,10.244l0.187,0.707c4.705-1.248,8.938,1.062,8.981,1.085l0.355-0.638C13.559,11.295,9.212,8.919,4.217,10.244z"/>
	<path d="M4.217,12.219l0.187,0.707c4.705-1.247,8.938,1.062,8.981,1.086l0.355-0.64C13.559,13.271,9.212,10.896,4.217,12.219z"/>
	<path d="M4.217,14.248l0.187,0.707c4.705-1.248,8.938,1.061,8.981,1.084l0.355-0.638C13.559,15.299,9.212,12.925,4.217,14.248z"/>
	<path d="M4.217,16.283l0.187,0.706c4.705-1.248,8.938,1.062,8.981,1.085l0.355-0.637C13.559,17.334,9.212,14.958,4.217,16.283z"/>
	<path d="M18.578,5.943c0.043-0.023,4.275-2.332,8.981-1.085l0.187-0.707c-4.996-1.323-9.341,1.053-9.523,1.154L18.578,5.943z"/>
	<path d="M18.223,7.375l0.355,0.638c0.043-0.023,4.275-2.333,8.981-1.084l0.187-0.708C22.75,4.897,18.405,7.272,18.223,7.375z"/>
	<path d="M18.223,9.319l0.355,0.639c0.043-0.024,4.275-2.333,8.981-1.086l0.187-0.707C22.75,6.843,18.405,9.218,18.223,9.319z"/>
	<path d="M18.223,11.452l0.355,0.638c0.043-0.023,4.275-2.332,8.981-1.084l0.187-0.707C22.75,8.973,18.405,11.349,18.223,11.452z"/>
	<path d="M18.223,13.427l0.355,0.639c0.043-0.023,4.275-2.332,8.981-1.085l0.187-0.708C22.75,10.951,18.405,13.325,18.223,13.427z"
		/>
	<path d="M18.223,15.456l0.355,0.638c0.043-0.023,4.275-2.332,8.981-1.084l0.187-0.707C22.75,12.979,18.405,15.354,18.223,15.456z"
		/>
	<path d="M18.223,17.49l0.355,0.637c0.043-0.022,4.275-2.333,8.981-1.084l0.187-0.707C22.75,15.012,18.405,17.388,18.223,17.49z"/>
</g>
<g>
</g>
<g>
</g>
<g>
</g>
<g>
</g>
<g>
</g>
<g>
</g>
<g>
</g>
<g>
</g>
<g>
</g>
<g>
</g>
<g>
</g>
<g>
</g>
<g>
</g>
<g>
</g>
<g>
</g>
</svg>
