<?xml version="1.0" encoding="iso-8859-1"?>
<!-- Generator: Adobe Illustrator 16.0.0, SVG Export Plug-In . SVG Version: 6.00 Build 0)  -->
<!DOCTYPE svg PUBLIC "-//W3C//DTD SVG 1.1//EN" "http://www.w3.org/Graphics/SVG/1.1/DTD/svg11.dtd">
<svg version="1.1" xmlns="http://www.w3.org/2000/svg" xmlns:xlink="http://www.w3.org/1999/xlink" x="0px" y="0px"
	 width="31.332px" height="23.96px" viewBox="0 0 31.332 23.96" style="enable-background:new 0 0 31.332 23.96;"
	 xml:space="preserve">
<g id="c53_book">
	<path style="fill:#000000;" d="M31.18,4.942c-0.043-0.067-0.723-1.253-2.088-2.471C27.74,1.26,25.637,0,22.869,0
		s-4.85,1.264-6.181,2.482c-0.41,0.376-0.754,0.747-1.039,1.086c-0.291-0.341-0.651-0.716-1.072-1.097C13.219,1.26,11.118,0,8.348,0
		C5.58,0,3.5,1.264,2.169,2.482c-1.337,1.221-1.988,2.411-2.027,2.48L0,5.51v17.882l2.143,0.547l0.003,0.004
		c0.029-0.062,0.61-1.054,1.664-1.98c1.065-0.934,2.548-1.795,4.538-1.799c2.049,0,3.609,0.923,4.706,1.898
		c0.54,0.484,0.964,0.971,1.234,1.334c0.14,0.183,0.238,0.333,0.304,0.428c0.03,0.051,0.055,0.09,0.068,0.115
		c0.005,0.01,0.012,0.018,0.012,0.021l0,0l0,0h0.005l1.989-0.018l0,0l0.002-0.004v-0.004c0.045-0.082,0.623-1.058,1.66-1.973
		c1.07-0.934,2.555-1.795,4.541-1.799c2.049,0,3.605,0.923,4.707,1.898c0.545,0.484,0.957,0.971,1.23,1.334
		c0.141,0.183,0.24,0.333,0.307,0.428c0.033,0.051,0.053,0.09,0.068,0.115c0.008,0.01,0.012,0.018,0.012,0.021h0.002l0,0
		l2.137-0.568V5.51L31.18,4.942z M8.348,17.88H8.346c-2.689,0-4.727,1.193-6.057,2.376V5.832C2.524,5.473,3.037,4.763,3.81,4.079
		c1.065-0.932,2.548-1.793,4.538-1.793c2.049,0,3.609,0.924,4.706,1.895c0.54,0.483,0.964,0.976,1.234,1.339
		c0.097,0.124,0.175,0.237,0.23,0.323V20.31C13.168,19.112,11.083,17.88,8.348,17.88z M29.043,20.31
		c-1.359-1.2-3.439-2.43-6.174-2.43c-2.688-0.004-4.727,1.193-6.062,2.376V5.832c0.236-0.356,0.75-1.069,1.521-1.753
		c1.07-0.932,2.555-1.793,4.541-1.793c2.049,0,3.605,0.924,4.707,1.895c0.545,0.483,0.957,0.976,1.23,1.339
		c0.098,0.124,0.176,0.237,0.236,0.323V20.31z"/>
</g>
<g id="Capa_1">
</g>
</svg>
