<?xml version="1.0" encoding="utf-8"?>
<!-- Generator: Adobe Illustrator 12.0.0, SVG Export Plug-In  -->
<!DOCTYPE svg PUBLIC "-//W3C//DTD SVG 1.1//EN" "http://www.w3.org/Graphics/SVG/1.1/DTD/svg11.dtd" [
	<!ENTITY ns_flows "http://ns.adobe.com/Flows/1.0/">
	<!ENTITY ns_svg "http://www.w3.org/2000/svg">
	<!ENTITY ns_xlink "http://www.w3.org/1999/xlink">
]>
<svg preserveAspectRatio="none" version="1.1" xmlns="&ns_svg;" xmlns:xlink="&ns_xlink;" xmlns:a="http://ns.adobe.com/AdobeSVGViewerExtensions/3.0/"
	 width="298" height="211" viewBox="0 -0.53 298 211" enable-background="new 0 -0.53 298 211" xml:space="preserve">
<defs>
</defs>
<rect fill="none" width="297.64" height="210.47"/>
<rect fill="#FFFFFF" width="297.64" height="210.47"/>
<rect y="105.24" fill="none" width="297.64" height="105.24"/>
<rect fill="none" width="297.64" height="105.24"/>
<polyline fill="none" stroke="#000000" stroke-width="0.4996" points="273.78,170.67 273.78,130.11 39,130.11 "/>
<polyline fill="none" stroke="#000000" stroke-width="0.4996" points="25.89,145.7 25.89,185.02 258.77,185.02 "/>
<polyline fill="none" stroke="#000000" stroke-width="0.4996" points="272.37,170.67 272.37,131.52 39,131.52 "/>
<polyline fill="none" stroke="#000000" stroke-width="0.4996" points="27.31,145.7 27.31,183.6 258.77,183.6 "/>
<path fill="none" stroke="#000000" stroke-width="0.4996" d="M270.95,170.67c0-13.97,0-35.78,0-37.73c-2.45,0-186.09,0-231.95,0"/>
<path fill="none" stroke="#000000" stroke-width="0.4996" d="M28.73,145.7c0,13.99,0,34.58,0,36.48c2.42,0,181.22,0,230.05,0"/>
<path fill="#A0A0A4" d="M271.81,181.63c0-0.74-0.43-4.25-1.51-5.79c0.98-0.74,1.51-1.08,1.72-2.28h0.25
	c0.22,1.2,0.74,1.54,1.73,2.28c-1.08,1.54-1.51,5.05-1.51,5.79v0.43c0.28,0.03,0.55,0.12,0.77,0.28l0.31-0.31
	c0.53-0.52,2.68-3.29,3.02-5.14c1.23,0.15,1.82,0.31,2.83-0.4l0.19,0.18c-0.71,0.99-0.59,1.6-0.4,2.83
	c-1.85,0.31-4.65,2.5-5.18,3.02l-0.31,0.31c0.18,0.22,0.31,0.46,0.34,0.74h0.43c0.74,0,4.25-0.43,5.79-1.51
	c0.74,0.99,1.08,1.51,2.28,1.72v0.25c-1.2,0.22-1.54,0.74-2.28,1.72c-1.54-1.08-5.05-1.51-5.79-1.51h-0.43
	c-0.03,0.28-0.12,0.55-0.28,0.77l0.31,0.31c0.52,0.52,3.29,2.68,5.14,3.02c-0.15,1.23-0.31,1.82,0.4,2.83l-0.18,0.18
	c-0.99-0.71-1.6-0.58-2.83-0.4c-0.31-1.85-2.49-4.65-3.02-5.17l-0.31-0.31c-0.22,0.19-0.46,0.31-0.8,0.34v0.43
	c0,0.74,0.43,4.25,1.51,5.79c-0.99,0.74-1.51,1.08-1.73,2.28h-0.25c-0.21-1.2-0.74-1.54-1.72-2.28c1.08-1.54,1.51-5.05,1.51-5.79
	v-0.43c-0.34-0.03-0.59-0.15-0.8-0.34l-0.31,0.31c-0.52,0.52-2.71,3.33-3.02,5.17c-1.23-0.18-1.85-0.31-2.83,0.4l-0.19-0.18
	c0.71-1.02,0.55-1.6,0.4-2.83c1.85-0.34,4.62-2.5,5.14-3.02l0.31-0.31c-0.15-0.22-0.25-0.49-0.28-0.77h-0.43
	c-0.74,0-4.25,0.43-5.79,1.51c-0.74-0.98-1.08-1.51-2.28-1.72v-0.25c1.2-0.22,1.54-0.74,2.28-1.72c1.54,1.08,5.05,1.51,5.79,1.51
	h0.43c0.03-0.28,0.15-0.52,0.34-0.74l-0.31-0.31c-0.52-0.52-3.33-2.71-5.17-3.02c0.18-1.23,0.31-1.85-0.4-2.83l0.18-0.18
	c1.02,0.71,1.6,0.55,2.83,0.4c0.34,1.85,2.5,4.62,3.02,5.14l0.31,0.31c0.22-0.15,0.49-0.25,0.77-0.28V181.63z"/>
<path fill="#FF0000" d="M25.15,129.46c0-0.74-0.43-4.25-1.51-5.79c0.99-0.74,1.51-1.08,1.72-2.28h0.25c0.22,1.2,0.74,1.54,1.73,2.28
	c-1.08,1.54-1.51,5.05-1.51,5.79v0.43c0.28,0.03,0.55,0.12,0.77,0.28l0.31-0.31c0.52-0.52,2.68-3.3,3.02-5.14
	c1.23,0.15,1.82,0.31,2.83-0.4l0.18,0.19c-0.71,0.98-0.58,1.6-0.4,2.83c-1.85,0.31-4.65,2.5-5.17,3.02l-0.31,0.31
	c0.19,0.22,0.31,0.46,0.34,0.74h0.43c0.74,0,4.25-0.43,5.79-1.51c0.74,0.99,1.08,1.51,2.28,1.72v0.25c-1.2,0.22-1.54,0.74-2.28,1.73
	c-1.54-1.08-5.05-1.51-5.79-1.51H27.4c-0.03,0.28-0.12,0.55-0.28,0.77l0.31,0.31c0.52,0.52,3.3,2.68,5.14,3.02
	c-0.15,1.23-0.31,1.82,0.4,2.83l-0.19,0.19c-0.98-0.71-1.6-0.59-2.83-0.4c-0.31-1.85-2.5-4.65-3.02-5.17l-0.31-0.31
	c-0.22,0.18-0.46,0.31-0.8,0.34v0.43c0,0.74,0.43,4.25,1.51,5.79c-0.99,0.74-1.51,1.08-1.73,2.28h-0.25
	c-0.22-1.2-0.74-1.54-1.72-2.28c1.08-1.54,1.51-5.05,1.51-5.79v-0.43c-0.34-0.03-0.58-0.15-0.8-0.34l-0.31,0.31
	c-0.52,0.52-2.71,3.33-3.02,5.17c-1.23-0.19-1.85-0.31-2.83,0.4L18,139.01c0.71-1.02,0.56-1.6,0.4-2.83
	c1.85-0.34,4.62-2.49,5.14-3.02l0.31-0.31c-0.15-0.21-0.25-0.49-0.28-0.77h-0.43c-0.74,0-4.25,0.43-5.79,1.51
	c-0.74-0.99-1.08-1.51-2.28-1.73v-0.25c1.2-0.21,1.54-0.74,2.28-1.72c1.54,1.08,5.05,1.51,5.79,1.51h0.43
	c0.03-0.28,0.15-0.52,0.34-0.74l-0.31-0.31c-0.52-0.52-3.33-2.71-5.17-3.02c0.18-1.23,0.31-1.85-0.4-2.83l0.18-0.19
	c1.02,0.71,1.6,0.55,2.83,0.4c0.34,1.85,2.5,4.62,3.02,5.14l0.31,0.31c0.22-0.15,0.49-0.25,0.77-0.28V129.46z"/>
<rect x="14.87" y="15.16" fill="none" stroke="#000000" stroke-width="0.4996" width="267.89" height="74.91"/>
<rect x="16.29" y="16.58" fill="none" stroke="#000000" stroke-width="0.4996" width="265.06" height="72.07"/>
<path fill="none" d="M264.92,46.17c0.03,0.04,0.04,0.08,0.08,0.12c-0.43-0.01-0.81-0.03-1.13-0.11c-3.02,0.14-6.09,1.31-8.66,3.38
	c0.95,1.79,2.61,3.09,4.74,3.67c2.42,0.65,6.48-0.54,7.35-3.8c0.34-1.29,0.32-2.23,0.14-2.9C266.61,46.32,265.77,46.2,264.92,46.17z
	"/>
<path fill="none" d="M266.91,45.5c-0.29-0.33-0.62-0.5-0.86-0.58c-0.57-0.18-1.06,0.06-1.24,0.44c0.36,0,0.71,0.01,1.06,0.05
	C266.21,45.43,266.56,45.46,266.91,45.5z"/>
<path fill="none" d="M224.48,60.43c-0.58-0.09-1.17-0.16-1.75-0.21C223.3,60.38,223.89,60.45,224.48,60.43z"/>
<path fill="none" d="M176.6,34.97c0,0.11,0.01,0.21,0.02,0.32c0.34,1.08,0.67,2.18,0.96,3.32c0.02,0.08,0.04,0.17,0.06,0.25
	c1.08,1.98,2.91,3.62,5.03,4.55c-0.49-5.34-1.76-10.74-3.88-15.85C177.35,29.69,176.53,32.34,176.6,34.97z"/>
<path fill="#FF0000" d="M206.11,87.37c-0.05,0.01-0.1,0.03-0.15,0.04c0.56,0,1.13,0,1.69,0C207.16,87.31,206.64,87.29,206.11,87.37z
	"/>
<path fill="#FF0000" d="M225.56,84.58c-2.49-0.27-4.97,1.18-6.64,2.84c3.84,0,7.56,0,11.15,0
	C229.48,85.99,227.81,84.85,225.56,84.58z"/>
<path fill="#FF0000" d="M211.86,87.42c0.23,0,0.46,0,0.69,0C212.3,87.4,212.06,87.4,211.86,87.42z"/>
<path fill="#FF0000" d="M271.1,22.22c-0.86-1.32-1.28-2.71-1.33-4.05c-0.71,0-1.46,0-2.24,0c-0.08,1.51,0.22,3.03,0.98,4.29
	c-0.69,0.04-1.39,0.07-2.09,0.11c-12.18,0.67-26,1.99-36.22-4.4c-3.13,0-6.35,0-9.66,0c4.7,5.72,11.23,8.55,17.57,9.84
	c0.86,0.17,1.71,0.33,2.53,0.47c-3.06,6.29-3.7,15.53,4.68,18.17c-6.44-4.62-6.44-14.53,0.65-19.15c5.16-3.3,10.31-1.98,15.4,0.61
	c0.96-0.11,1.92-0.23,2.86-0.35c0.95-0.12,1.89-0.24,2.82-0.36c4.43-0.67,8.84-1.19,13.12-1.4c0-0.54,0-1.07,0-1.56
	C277.09,25.53,273.43,25.08,271.1,22.22z"/>
<path fill="#FF0000" d="M173.56,59.9c-1.45,0.87-4.49,0.58-7.29-0.32c0.97,1.13,1.78,2.52,2.14,4.05
	C170.65,62.96,172.13,61.66,173.56,59.9z"/>
<path fill="#FF0000" d="M206.03,78.74c0.37,1.14,0.48,2.3-0.19,3.5c3.71-0.13,5.86,2.1,7.55,4.55l0.83,0.2
	c-0.24-2.97-1.74-8.7-8.74-9.21C205.76,78.04,205.9,78.39,206.03,78.74z"/>
<path fill="#FF0000" d="M238.86,87.22c0.17-0.61-0.22-1.32-0.9-1.42c-0.68-0.12-1.28,0.32-1.35,0.96c-0.02,0.24,0.03,0.46,0.12,0.66
	c0.68,0,1.36,0,2.03,0C238.79,87.35,238.83,87.29,238.86,87.22z"/>
<path fill="#FF0000" d="M248.35,72c-4.37-6.64-10.45-11.47-17.07-14.39c0.67-0.87,1.24-1.85,1.71-2.97
	c0.81-3.21,1.66-6.95-2.33-10.68c4.28,4.87,3.11,10.18,0.08,13.42c-4.54-1.92-9.31-2.95-13.95-3.05c-0.49-2.37,0.4-4.56,1.69-5.01
	c-2.3-1.53-3.11-7.06,0.53-12.14c3.41-5.08,10.48-8.54,17.19-8.19c-11.14-0.84-23.41,7.33-23.9,20.19c-0.1,1.79,0.25,3.6,0.97,5.26
	c-0.72,0.06-1.44,0.14-2.16,0.25c-2.23,0.27-4.36,0.7-6.41,1.24c0.12-0.17,0.2-0.36,0.22-0.56c0.06-0.61-0.41-1.18-1.04-1.27
	c-0.63-0.09-1.2,0.4-1.26,1.08c-0.05,0.51,0.21,0.96,0.6,1.16c-9.35,2.76-16.72,7.89-21.88,12.27c3.29-2.09,8.77-4.58,12.25-4.51
	c3.55,0.04,4.49,1.71,0.99,6.81c4.04-4.27,12.58-10.24,23.63-10.75c2.05,1.21,4.49,1.76,7.13,1.26c0.55-0.13,1.07-0.3,1.56-0.49
	c10.86,2.71,21.66,12.43,25.46,25.56c0.09,0.31,0.18,0.62,0.27,0.93c0.79,0,1.58,0,2.34,0C253.61,81.81,251.61,76.59,248.35,72z
	 M222.72,60.23c0.58,0.04,1.17,0.12,1.75,0.21C223.89,60.45,223.3,60.38,222.72,60.23z"/>
<path fill="#FF0000" d="M205.5,26.76c-2.93-0.97-5.57-2.92-6.3-5.21c-0.45-1.26-0.49-2.42-0.29-3.37c-1.69,0-3.38,0-5.1,0
	c0.85,3.22,2.67,6.22,5.75,8.13c3.1,1.63,5.99,2.27,8.93,2.43c5.84,0.41,11.35-0.66,16.74-2.43
	C218.96,28.22,211.54,28.96,205.5,26.76z"/>
<path fill="#FF0000" d="M241.8,86.54c-0.89-0.37-1.83,0.05-2.1,0.88c1,0,1.98,0,2.95,0C242.49,87.06,242.21,86.74,241.8,86.54z"/>
<path fill="#FF0000" d="M26.41,45.84c2.09-7.28,3-15.1,1.8-22.85c-0.25-1.63-0.58-3.23-0.95-4.82c-0.7,0-1.35,0-1.98,0
	c2.19,8.92,2.39,18.33-0.39,27.18c-1.57,5.51-3.9,10.87-6.93,15.76c0,0.84,0,1.68,0,2.5C21.67,58.21,24.52,52.14,26.41,45.84z"/>
<path fill="#FF0000" d="M178.84,86.45c3.33-9.33,9.51-15.96,14.11-19.84c-8.26,6.57-12.89,13.91-15.28,20.82c0.28,0,0.57,0,0.85,0
	C178.63,87.09,178.72,86.76,178.84,86.45z"/>
<path fill="#FF0000" d="M187.23,87.07c-0.51-0.99-0.85-2.14-0.85-3.3c-1.72,0.08-3,0.75-4.34,1.76
	C183.22,85.16,185.37,85.92,187.23,87.07z"/>
<path fill="#FF0000" d="M191.32,82.84c2.61,0.22,3.62-2.02,2.8-3.74c-0.83-1.67-3.93-1.15-5.43,0.56c-2.1,2.48-1.92,5.54-0.41,7.77
	c0.92,0,1.84,0,2.76,0C190.24,85.99,190.59,83.98,191.32,82.84z"/>
<path fill="#FF0000" d="M135.04,84.11c-0.1-2.23-1.1-4.18-2.44-5.94c-2.23-2.86-5.28-5.78-6.5-9.34c-0.87,1.8-2.13,3.42-3.68,4.82
	c-0.1,1.81,0.02,3.62,0.58,5.37c1.21,3.75,4.92,4.58,6.57,4.88c-0.9,0.65-2.15,1.92-2.81,3.52c2.36,0,4.74,0,7.12,0
	C134.5,86.32,134.96,85.21,135.04,84.11z"/>
<path fill="#FF0000" d="M137.9,86.5c3.36-1.74,5.22-3.35,2.95-7.61c-6.42-0.92-9.37-5.47-11.02-10.45c-1.07-0.16-2.13-0.52-3.07-1
	l-0.14,0.3c0.88,3.71,3.91,7.13,6.27,10.27c1.29,1.78,2.26,3.79,2.32,6.08c-0.11,1.13-0.6,2.23-1.24,3.33c1.55,0,3.11,0,4.66,0
	C138.44,87.11,138.2,86.8,137.9,86.5z"/>
<path fill="#FF0000" d="M179.73,81.84c-1.2,1.25-2.69,2.63-4.31,3.95c2.78-6.65,6.91-11.8,10.62-15.37
	c-3.08,2.66-7.64,7.6-10.88,14.84c-0.17,0.37-0.34,0.76-0.5,1.14c-0.43,0.34-0.88,0.68-1.32,1c0.68,0,1.36,0,2.04,0
	C176.98,85.5,178.44,83.62,179.73,81.84z"/>
<path fill="#FF0000" d="M161.67,83.17c-0.75,1.3-1.71,2.75-2.84,4.25c0.52,0,1.04,0,1.56,0C160.61,86.25,161.03,84.85,161.67,83.17z
	"/>
<path fill="#FF0000" d="M198.36,87.42c2.39,0,4.76,0,7.09,0c0.19-0.1,0.39-0.18,0.61-0.23c1-0.26,2-0.15,2.91,0.23
	c0.07,0,0.13,0,0.2,0c-1.08-1.16-2.28-2.13-3.93-2.56c-1.92-0.54-4.64,0.42-4.8,2.54c0.07-2.12,2.84-3.24,4.86-2.72
	c1.9,0.36,3.34,1.45,4.6,2.69c0.78-0.41,1.61-0.71,2.46-0.66c-2.8-4.16-6.02-4-8.17-3.6c1.47-1.25,1.52-2.79,1.06-4.07
	c-0.84-2.26-4.17-2.83-6.59-1.29c-2.33,1.52-1.91,3.4-1.52,4.57c0.42,1.21,2.26,2.2,3.81,2C200.38,84.8,198.52,85.46,198.36,87.42z"
	/>
<path fill="#FF0000" d="M208.85,77.73c4.46,1.82,5.82,5.63,6.15,9.51c0.12,0.05,0.23,0.12,0.34,0.18c0.6,0,1.19,0,1.79,0
	c-0.28-2.56-1.66-5.22-2.7-7.63c-0.62-1.52-0.98-3.14-0.63-4.8c0.56-1.64,2.29-2.92,3.72-4.28c-1.4,1.37-3.09,2.68-3.59,4.29
	c-0.31,1.62,0.08,3.21,0.74,4.72c1.09,2.4,2.72,4.99,3.05,7.69c0.07,0,0.14,0,0.21,0c0.9-1.04,2.01-1.92,3.29-2.6
	c0.38-1.29,0.6-2.61,0.5-3.97c-0.23-2.92-2.76-4.19-3.9-4.7c1.57-0.62,4.65-2.9,2.92-6.37c-1.91-3.74-11.5-2.2-8.48,3
	C209.56,73.42,207.94,74.25,208.85,77.73z"/>
<path fill="#FF0000" d="M221.4,74.29c-0.47,0.67-1.1,1.38-1.95,1.82l0.7,0.47c1.97,1.46,2.51,3.22,2.47,5.29
	c-0.07,0.82-0.19,1.64-0.4,2.46c0.3-0.11,0.66-0.22,1.02-0.29c1.49-3.06,5.02-9.15-1.04-13.2c0.31,1-0.03,2.01-0.51,2.98
	L221.4,74.29z"/>
<path fill="#FF0000" d="M81.11,81.65C70.21,63.09,64.62,38.19,51.87,20.2c-0.46-0.69-0.93-1.36-1.39-2.03c-0.39,0-0.77,0-1.16,0
	c4.53,6.69,8.34,13.89,11.45,21.23c7.13,16.76,11.5,34.38,20.12,48.01c1.35,0,2.7,0,4.08,0C83.56,85.6,82.26,83.69,81.11,81.65z"/>
<path fill="#FF0000" d="M22.84,44.77c2.59-8.8,2.18-17.93-0.22-26.6c-0.76,0-1.44,0-2.02,0c2.57,8.49,3.15,17.43,0.69,26.21
	c-0.83,3.26-1.95,6.48-3.34,9.59c0,1.12,0,2.23,0,3.34C20.04,53.33,21.68,49.09,22.84,44.77z"/>
<path fill="#FF0000" d="M64.24,87.42c0.63,0,1.28,0,1.92,0c0.22-1.48,0.43-2.99,0.62-4.52c1.68-13.09-1.39-27.62-8.19-39.54
	c2.54,5.3,5.13,10.64,6.19,15.92c1.04,5.82,1.88,11.35,1.33,17.01C65.82,80.05,65.14,83.74,64.24,87.42z"/>
<path fill="#FF0000" d="M58.33,87.42c1.28,0,2.59,0,3.92,0c0.42-1.46,0.77-2.94,1.03-4.46c3.23-18.46-2.34-36.02-9.37-50.25
	c-2.64-5.21-5.59-10.07-8.78-14.53c-0.81,0-1.61,0-2.39,0c2.82,4.38,5.43,9.07,7.8,14.03c6.24,13.33,11.04,29.06,9.67,45.24
	C60.01,80.89,59.36,84.23,58.33,87.42z"/>
<path fill="#FF0000" d="M206.92,21.81c1.55-0.61,3.49-1.82,4.86-3.64c-0.07,0-0.13,0-0.2,0C210.24,20.03,208.52,20.98,206.92,21.81z
	"/>
<path fill="#FF0000" d="M207.54,48.01c0.45-0.95,0-2.15-1-2.69c-1-0.54-2.26-0.06-2.78,1.08c-0.41,1.19,0.14,2.44,1.22,2.78
	C206.05,49.53,207.21,49.01,207.54,48.01z"/>
<path fill="#FF0000" d="M204.69,50.02c-0.87-0.27-1.73,0.28-1.93,1.23c-0.2,0.95,0.34,1.83,1.22,1.96c0.88,0.14,1.73-0.42,1.91-1.24
	C206.06,51.16,205.51,50.28,204.69,50.02z"/>
<path fill="#FF0000" d="M262.95,19.21c-2.02-0.23-4.1-0.58-6.21-1.03c-4.86,0-10.35,0-16.35,0C248.6,20.75,256.47,20.6,262.95,19.21
	z"/>
<path fill="#FF0000" d="M209.26,35.65c-7.25,3.74-15.32,9.33-24.17,8.47c-0.52-0.08-1.03-0.21-1.53-0.37
	c-0.36-5.79-1.59-11.77-3.79-17.46c0.82-0.92,1.76-1.7,2.81-2.27c3.65-2.03,8.62-0.44,10.37,3.15c2.09,3.65-0.33,8.36-4.09,9.08
	c3.63-0.38,6.63-4.85,4.92-8.92c-1.36-4.07-6.37-6.34-10.65-4.89c-1.48,0.51-2.8,1.36-3.93,2.45c-0.25-0.59-0.5-1.19-0.77-1.77
	c-0.76-1.69-1.6-3.32-2.49-4.92c-0.72,0-1.44,0-2.16,0c1.36,2.08,2.61,4.25,3.71,6.51c0.22,0.45,0.43,0.91,0.64,1.36
	c-1.31,1.63-2.26,3.6-2.75,5.7c-2.02-5.13-4.72-9.58-7.98-13.57c-0.89,0-1.78,0-2.68,0c0.09,0.1,0.18,0.19,0.26,0.29
	c4.53,4.94,7.87,10.8,10.02,16.97c0.11,1.52,0.58,3,1.31,4.34c1.5,5.98,1.9,12.11,1.15,17.87c-1.4,12.77-7,23.13-11.7,29.77
	c0.01,0,0.02,0,0.04,0c12.54-16.61,14.42-32.82,12.54-44.91c1.04,1.05,2.27,1.91,3.62,2.48c0.28,0.12,0.56,0.22,0.85,0.32
	c0.21,3.79,0.04,7.52-0.5,11.04c-1.45,10.09-5.41,18.55-9.29,24.64c3.2-4.49,7.64-12.46,9.64-23.01c0.79-3.86,1.13-8.07,1-12.43
	c4.54,1.21,9.14-0.25,13-1.77c4.44-1.83,8.43-4.2,12.26-6.47c7.63-4.39,14.46-9.58,21.88-10.21
	C223.54,27.16,216.56,31.75,209.26,35.65z M177.63,38.86c-0.02-0.08-0.03-0.17-0.06-0.25c-0.29-1.14-0.62-2.24-0.96-3.32
	c0-0.11-0.02-0.21-0.02-0.32c-0.07-2.63,0.75-5.27,2.18-7.41c2.13,5.1,3.4,10.51,3.88,15.85C180.55,42.48,178.72,40.84,177.63,38.86
	z"/>
<path fill="#FF0000" d="M215.55,35.17c-4.85,2.19-8.92,6.18-13.73,8.07c2.51,1.26,3.8,0.99,5.73,0.1c-0.03,2.07,0.96,3.29,3.37,4.5
	C208.79,43.85,211.28,38.31,215.55,35.17z"/>
<path fill="#FF0000" d="M159.73,72.28c1.6,1.91,5.51,0.22,6.93-2.5c4.26-8.46-6.11-16.99-14.43-10.22l0.85,1.08
	c8.62-4.71,10.31,2.47,9.15,5.82C158.75,67.02,158.13,70.28,159.73,72.28z"/>
<path fill="#FF0000" d="M93.21,75.46c-0.33,1.2,0.44,2.37,1.72,2.65c1.3,0.2,2.42-0.68,2.49-1.89c0.07-1.22-0.72-2.29-1.75-2.45
	C94.64,73.55,93.54,74.32,93.21,75.46z"/>
<path fill="#FF0000" d="M100.06,74.66c-0.78,0.08-1.44,0.7-1.47,1.6c-0.03,0.85,0.69,1.66,1.62,1.57c0.93-0.07,1.58-0.83,1.47-1.7
	C101.55,75.27,100.83,74.6,100.06,74.66z"/>
<path fill="#FF0000" d="M279.9,87.42c0.13,0,0.23,0,0.27,0c0-0.3,0-1.32,0-2.89C279.99,85.48,279.9,86.45,279.9,87.42z"/>
<path fill="#FF0000" d="M116.84,75.38c4.42-0.62,7.9-5.17,9.04-8.45c-0.5-0.34-0.96-0.72-1.39-1.14c-1.28,2.35-4.07,4.27-6.9,3.85
	c-2.56-0.07-4.69-1.58-6.15-3.17c1.61,1.48,3.84,2.73,6.19,2.6c3.09-0.09,5.03-2.57,5.44-4.98c-0.45-0.67-0.83-1.38-1.15-2.12
	c-0.84,0.44-1.75,0.71-2.48,0.84c-2.24,0.43-4.42,0.15-6.47-0.29c-2.99-0.6-6.46-0.89-8.6,1.84c1.95-2.87,5.68-2.84,8.67-2.39
	c2.63,0.43,6.54-0.03,8.31-1.57c-0.47-1.58-0.67-3.23-0.65-4.84c-1.64-1.35-3.27-2.52-4.99-3.21c-1.72-0.68-3.45,0.04-4.59,1.68
	c0.99-1.75,2.78-2.78,4.65-2.21c1.68,0.27,3.35,1.11,5.04,1.97l0.26-1.57c-2.52-1.88-6.11-4.51-8.52-3.9
	c-2.82,0.62-5.17,4.01-3.28,8.18c-2.15-0.64-6.39,0.32-7.08,5.74c-0.08,0.62-0.07,1.19,0,1.71c-7.1,1.12-15.68-0.67-21.22-7.13
	c-6.16-6.84-10.41-15.92-15.42-24.97c-2.62-5.05-5.69-9.57-9.02-13.67c-0.7,0-1.4,0-2.08,0c2.94,3.63,5.7,7.55,8.12,11.84
	C68,39.5,72.52,49.33,79.22,56.76c6.14,7.35,15.66,9.02,22.97,7.31c0.64,4,5.31,5.2,7.71,4.24
	C107.67,72.6,111.49,76.04,116.84,75.38z"/>
<path fill="#FF0000" d="M32.67,83.3l0.52-0.52c0.25,0.27,0.66,0.3,0.93,0.06c0.28-0.25,0.3-0.69,0.05-1
	c-0.24-0.3-0.67-0.34-0.95-0.08c-0.27,0.25-0.3,0.67-0.07,0.96l-0.57,0.47l-1.28,0.95c-1.52,0.52-4.18,1.52-5.96,3.27
	c0.92,0,1.91,0,2.98,0c0.45-0.48,0.87-0.89,1.23-1.18c-0.29,0.38-0.59,0.77-0.89,1.18c0.68,0,1.39,0,2.13,0
	c0.25-1.01,0.43-2.03,0.78-2.9L32.67,83.3z"/>
<path fill="#FF0000" d="M21.27,82.26c0.27-0.54,0.57-1.06,0.9-1.57c0.17-0.21,0.34-0.42,0.51-0.63c0.28,0.24,0.69,0.21,0.97-0.05
	c0.28-0.27,0.3-0.73,0.05-1.03c-0.25-0.29-0.71-0.29-1.02,0.01c-0.31,0.29-0.31,0.75-0.05,1.02c-0.19,0.19-0.37,0.39-0.56,0.58
	c-0.42,0.44-0.81,0.91-1.18,1.4c-0.88,0.68-2.12,1.73-2.94,3.34c0,1.11,0,1.84,0,2.09c0.1,0,0.58,0,1.38,0
	c-0.03-1.07,0.13-2.02,0.53-2.65c-0.19,0.82-0.26,1.72-0.19,2.65c0.63,0,1.41,0,2.36,0c-0.05-0.27-0.11-0.55-0.21-0.87
	C21.48,85.34,21.08,83.64,21.27,82.26z"/>
<path fill="#FF0000" d="M24.76,71.81c-2.41,0.12-4.69,0.65-6.81,1.49c0,0.03,0,0.05,0,0.08c0.36-0.13,0.72-0.25,1.09-0.36
	c9.39-2.44,19.16,0.56,24.6,9.16c1.07,1.67,1.88,3.42,2.43,5.24c0.09,0,0.17,0,0.26,0C43.35,78.15,34.79,71.52,24.76,71.81z"/>
<path fill="#FF0000" d="M25.97,73.49c-2.85-0.02-5.55,0.57-8.02,1.63c0,0.12,0,0.23,0,0.35c2.71-1.16,5.69-1.73,8.83-1.56
	c7.81,0.45,14.37,6.25,16.93,13.5c0.15,0,0.3,0,0.45,0c-0.34-1.03-0.73-2.02-1.15-2.94C39.6,77.97,33.51,73.75,25.97,73.49z"/>
<path fill="#FF0000" d="M90.68,67c-5.18,2.86-12.3-1.38-15.31-7.94c1.71,7.12,6.31,13.31,8.71,20.13c1.8-3.33,1.54-5.26,0.53-7.91
	C87.37,71.46,88.94,70.25,90.68,67z"/>
<path fill="#FF0000" d="M18.68,24.92c-0.2-0.84-0.45-1.73-0.73-2.64c0,0.48,0,0.99,0,1.54C18.19,24.15,18.43,24.51,18.68,24.92z"/>
<path fill="#FF0000" d="M278.37,87.42c0.07,0,0.14,0,0.21,0c0.03-2.29,0.58-4.57,1.6-6.73c0-0.18,0-0.37,0-0.56
	c-0.85,1.66-1.45,3.48-1.74,5.42C278.37,86.17,278.36,86.8,278.37,87.42z"/>
<path fill="#FF0000" d="M257.17,66.05c0.29,0.27,0.58,0.53,0.88,0.78C257.75,66.58,257.46,66.31,257.17,66.05z"/>
<path fill="#FF0000" d="M266.05,87.42c1.11,0,2.15,0,3.14,0c2.67-4.79,6.55-8.7,10.98-11.36c0-0.94,0-1.93,0-2.95
	C274.27,76.06,269.14,81.05,266.05,87.42z"/>
<path fill="#FF0000" d="M126.4,84.07c-3.03-1.27-4.29-3.4-4.89-6.12c-0.17-1.1-0.26-2.21-0.24-3.35c-0.37,0.25-0.8,0.51-1.25,0.71
	c-0.67,3-2.11,8.08-0.24,12.11c1.9,0,3.81,0,5.73,0c0.41-1.01,1.01-2.12,1.96-2.96L126.4,84.07z"/>
<path fill="#FF0000" d="M273.61,48.72c-0.12-0.12-0.23-0.25-0.35-0.37c-1.47-1.42-3.31-2.24-5.15-2.64
	c-0.41-0.91-1.09-1.68-1.96-2.14c-1.53-0.79-3.05,0.29-3.04,1.48c0,0.17,0.03,0.31,0.06,0.44c-1.66,0.25-3.3,0.82-4.68,1.47
	c-1.12,0.53-2.35,1.24-3.45,2.22c-0.31-0.68-0.52-1.43-0.62-2.23c-0.36-3.08,2.14-6.41,6.4-8.49c4.22-2.18,10.74-0.41,14.45-0.18
	c1.81,0.11,3.53-0.46,4.9-1.3c0-2.96,0-5.73,0-8.18c-0.15-0.07-0.3-0.14-0.46-0.2c-1.99,4.29-6.71,2.83-9.41,1.9
	c-4.13-1.46-4.46,2.25-8.15,3.51c-5.44,1.82-8.19,7.42-9.04,10.87c-0.54,2.11-0.17,3.97,0.75,5.54c-0.5,0.63-0.94,1.33-1.28,2.15
	c-1.2,2.92-0.5,6.1,0.67,8.39c1.01,1.99,2.34,3.66,3.92,5.09c-1.88-1.75-3.43-3.88-4.39-6.54c-1.09-2.65-0.75-6.4,1.25-8.83
	c0.57,0.89,1.32,1.68,2.18,2.35c2.45,1.91,5.83,1.6,8.49,0.55c2.67-1.03,3.8-3.87,3.85-5.69c0.01-0.36-0.03-0.72-0.1-1.07
	c0.88,0.3,1.72,0.71,2.52,1.23c0.72,0.54,1.31,1.14,1.81,1.77c-2.23,2.99-4.18,5.94-6.09,7.32c3.04-0.03,5.72-2.4,8.35-0.64
	c0.03,1.54-0.18,3-0.47,4.18c-0.87,3.65-2.69,6.08-4.12,7.14c0,3.74-4,10.95-7.26,19.6c0.44,0,0.88,0,1.31,0
	c2.74-5.85,6.51-11.32,10.03-17.46c2.11-4.45,3.15-9.34,2.33-14.45c-0.2-1.14-0.54-2.32-1.04-3.45c0.46-2.45,1.59-5.07,3.26-7.2
	c0.34-0.47,0.71-0.9,1.09-1.32c0-0.5,0-1,0-1.49c-0.87,0.67-1.74,1.42-2.58,2.25C276.16,45.58,274.84,47.13,273.61,48.72z
	 M266.05,44.92c0.24,0.08,0.57,0.25,0.86,0.58c-0.35-0.04-0.69-0.08-1.03-0.09c-0.35-0.04-0.71-0.05-1.06-0.05
	C264.99,44.98,265.48,44.74,266.05,44.92z M267.3,49.42c-0.86,3.26-4.92,4.45-7.35,3.8c-2.13-0.58-3.79-1.88-4.74-3.67
	c2.57-2.07,5.64-3.24,8.66-3.38c0.32,0.09,0.7,0.1,1.13,0.11c-0.04-0.04-0.05-0.08-0.08-0.12c0.85,0.03,1.7,0.15,2.52,0.35
	C267.62,47.2,267.64,48.13,267.3,49.42z"/>
<path fill="#FF0000" d="M129.88,44.45c-0.47,0.39-0.8,0.91-1.04,1.5c1.07,0.26,2.12,0.8,2.89,1.6c0.76-0.59,1.71-0.95,2.63-1.2
	c0.34-2.38,0.8-4.69,2.84-5.97c-0.18-0.94-0.58-1.92-1.32-2.89c-2.55-3.49-4.8-1.86-5.76-1.87c1.1-1.15,1.19-3.73,0.26-5.16
	c-0.88-1.4-2.45-3.41-4.87-2.96c-2.41,0.38-3.43,3.1-2.22,6.01c0.76,1.73,1.94,3.35,3.85,3.57c-1.67,1.26-3.52,3.09-2.93,9.55
	c0.79-0.63,1.85-0.97,3-0.91c0.17-1.65,0.61-3.3,1.48-4.55c1.16-1.86,3.28-2.59,5.43-2.6c-2.15,0.1-4.19,0.91-5.24,2.76
	c-0.74,1.27-1.06,2.85-1.11,4.43l0.53,0.09c0.35-0.68,0.81-1.24,1.42-1.61c1-0.66,2.32-0.61,3.49-0.21
	C132.04,43.71,130.78,43.77,129.88,44.45z"/>
<path fill="#FF0000" d="M88.43,76.71c1.57,0.67,3.23-0.08,3.68-1.59c0.42-1.46-0.23-3.04-1.45-3.56c-1.2-0.58-2.79-0.02-3.55,1.29
	C86.32,74.21,86.89,75.97,88.43,76.71z"/>
<path fill="#FF0000" d="M144.33,41.94c0.62-1.55,2.36-2.73,3.96-3.27c0.31-1.41,0.38-3.19-0.21-4.9c-1.1,1.83-3.58,4.73-5.73,6.41
	C143.14,40.57,143.81,41.17,144.33,41.94z"/>
<path fill="#FF0000" d="M115.13,47.69c-0.41-1.04-0.73-2.12-1.01-3.19c-0.61-2.69-0.71-5.09-0.21-7.36l0.19-0.74
	c-0.6-0.41-1.16-1.24-1.59-2.04l-0.28-0.55c-0.52-1.18-0.95-2.49-1.14-3.83c-1.09,5.35,0.85,13.58,3.16,17.43
	C114.54,47.47,114.85,47.59,115.13,47.69z"/>
<path fill="#FF0000" d="M66.82,18.76c-0.21-0.06-0.43-0.11-0.64-0.18C66.39,18.65,66.6,18.71,66.82,18.76z"/>
<path fill="#FF0000" d="M113.58,18.18c-0.62,0-1.24,0-1.86,0c-0.9,1.78-1.21,3.21-0.89,3.95C111.56,20.93,112.49,19.58,113.58,18.18
	z"/>
<path fill="#FF0000" d="M145.24,77.73c-0.44-0.26-0.73-0.67-1.01-1.09c-0.84-1.37-1.34-2.86-0.85-4.64
	c-4.83,1.39-8.33-0.83-11.31-3.49l-1.15,0C132.17,72.33,135.92,79.34,145.24,77.73z"/>
<path fill="#FF0000" d="M85.25,18.18c-1.53,0-3.04,0-4.54,0c-5.41,1.52-10.78,1.37-13.88,0.59C72.55,20.46,79.18,20.25,85.25,18.18z
	"/>
<path fill="#FF0000" d="M134.69,66.8c2.23-1.34,4.01-4.75,2.82-6.59c1.6-0.1,3.22-1.54,4.13-2.7c0.94-1.06,1.68-4.31-0.08-7.12
	c-1.73-2.76-4.74-3.55-5.98-3.35c-1.31,0.23-3.09,0.76-3.91,1.94c-0.88-1.95-4.1-2.67-5.93-2.13c-1.39,0.45-3.94,3.17-4.22,7.98
	c0.93-1.43,1.91-2.76,3.48-3.43c1.83-1.03,4.38-1.17,6.2,0.48c-1.95-1.49-4.26-1.12-5.95,0.02c-1.9,1.25-2.4,3.4-3.6,5.72
	c0.11,0.76,0.27,1.55,0.52,2.38l0.38,1.05c2.98,1.46,6.86-0.54,8.84-3.9c1.97-2.64,5.2-5.34,8.61-3.88
	c-3.48-1.24-6.37,1.54-8.17,4.21c-1.16,1.9-2.56,3.99-4.95,5.09c-1.08,0.49-2.25,0.61-3.35,0.48C126.65,68.31,132.9,68,134.69,66.8z
	"/>
<path fill="#FF0000" d="M159.62,49.44c-1.45-1.03-3.22-1.43-4.65-1.51c-1,1.47-2.82,2.85-4.49,2.98c0.53,0.77,0.85,1.63,0.91,2.54
	C153.86,51.81,157.51,50.1,159.62,49.44z"/>
<path fill="#FF0000" d="M140.22,18.18c-1.21,0.71-2.14,1.56-2.87,2.89c1.24,0.86,2.31,2.05,3.11,3.31c-0.16-2.44-0.01-4.79,0.69-6.2
	C140.84,18.18,140.53,18.18,140.22,18.18z"/>
<path fill="#FF0000" d="M155.43,42.08c2.09-1.34,3.17-3.19,4.07-5.45c-1.26,1.42-4.52,2.03-7.74,1.95
	C153.23,39.47,154.54,40.69,155.43,42.08z"/>
<path fill="#FF0000" d="M32.01,20.57c1.33,5,1.55,10.14,1.61,14.97c1.61-2.26,3.03-5.08,3.77-8.4c-1.17-2.34-2.21-4.7-2.96-7.25
	c1.09,1.35,2.27,2.77,3.42,4.17c0.25-2.88,0.22-4.65,0.06-5.89c-1.67,0-3.24,0-4.73,0C32.9,19.04,32.51,19.85,32.01,20.57z"/>
<path fill="#FF0000" d="M154.19,75.55c2.57-2.76,1.44-5.08,0.57-6.48c-0.93-1.45-3.64-2.14-5.61-1.38c0.74-1.02,3.85-2.96,1.79-6.74
	c-0.55-1.09-1.32-1.84-2.17-2.4c-2.3,1.67-4.82,1.22-7.2,0.44c-0.75,0.79-1.69,1.53-2.76,1.91c0.23,1.47-0.28,3.21-1.33,4.62
	c1.27,0.42,2.64,0.4,3.97-0.16c1.78-0.78,2.27-2.82,2.06-4.49c0.29,1.63-0.06,3.78-1.94,4.72c-1.38,0.75-2.9,0.92-4.37,0.58
	c1.84,1.24,3.78,2.17,6.16,2.21c2.68,0.09,5.95-2.06,5.5-4.89c0.57,2.8-2.71,5.17-5.53,5.16c-2.61,0.15-4.82-0.81-6.86-2.02
	c-0.89,0.8-1.89,1.46-3.02,1.67c4.97,4.54,9.13,3.27,11.83,2.04c-1.54,2.11-1.13,4.16-0.12,5.68
	C146.95,78.7,151.49,78.36,154.19,75.55z"/>
<path fill="#FF0000" d="M153.19,48.52c2.47-1.94,2-5.11,0.56-6.87c-1.22-1.83-4.05-3.21-6.47-1.45c-2.48,1.67-2.38,2.65-2.65,4.17
	c-1.02-2.18-1.68-3.13-3.24-3.59c-1.68-0.44-5.61-0.51-6.07,5.38c0.36-0.09,0.74-0.06,1.19-0.01l0.96,0.2
	c0.13-0.49,0.32-0.95,0.61-1.36c0.66-1.13,1.75-1.75,2.84-2.22c-1.02,0.63-1.94,1.42-2.37,2.49c-0.15,0.46-0.19,0.93-0.17,1.39
	c1.73,0.68,3.16,1.94,4.07,3.52l0.04-0.1c0.7-1.51,1.65-4.17,3.92-3.71c1.39,0.25,2.84,0.87,4.07-0.05
	c1.22-0.82,1.32-2.66,0.59-3.88c0.77,1.19,0.75,3.07-0.52,3.99c-1.26,1-2.87,0.4-4.17,0.2c-2.05-0.28-2.69,2.04-3.36,3.71
	l-0.24,0.51c0.58,1.27,0.83,2.71,0.67,4.21c1.23,0.38,2.6,0.43,3.83-0.13c1.51-0.92,1.15-3.08,0.36-4.52
	c0.9,1.29,1.71,3.56-0.04,4.98c-1.33,0.96-2.9,1.27-4.43,1.15l-0.02,0.08c-0.2,0.57-0.43,1.1-0.84,1.54
	c5.81,2.11,7.89-2.17,8.09-3.94c0.24-1.71-0.42-2.66-2.1-4.45C149.85,50.09,150.71,50.46,153.19,48.52z"/>
<path fill="#FF0000" d="M38.14,27.97c-0.98,2.06,0.53,5.17,1.11,7.17c0.88,1.8,1.64,7.09-0.39,9.38c-2.03,2.2-4.46,3.11-6.38,2.05
	c-1.38-0.75-2-3.12-1.31-4.21c0.27-0.43,0.8-0.99,1.51-0.53c0.71,0.46,0.38,1.61-0.41,1.77c1.57,0.86,3.45-0.07,3.81-1.97
	c0.35-1.91-1.29-3.99-3.47-3.84c-2.11,0.12-4.01,1.97-4.13,4.62c-0.11,2.82,1.51,5.23,4.51,5.88c2.97,0.63,7.33-0.99,9.01-5.25
	c2.09-4.5,0.08-12.4,2.27-12.29c0.54,2.41-0.92,12.01,3.57,14.16c3.14,1.5,6.55-4.34,4.82-6.74c-0.09,2.75-1.32,5-2.48,5.57
	c-1.21,0.52-2.71-0.06-2.84-1.55c-0.07-1.3,3.59-6.97,1.39-9.84c-1.99-2.76-3.96-4.84-3.07-7.3C41.74,24.57,38.98,25.77,38.14,27.97
	z"/>
<path fill="#FF0000" d="M122.71,33.78c-0.19-0.46-0.38-0.93-0.44-1.4c-3.01,4.73-0.96,11.82,0.65,15.65l0.56-0.72
	c-0.17-3.83-0.29-7.53,2.01-9.95C124.16,36.58,123.37,35.25,122.71,33.78z"/>
<path fill="#FF0000" d="M91.55,41.36c-0.12-1.3-1.87-2.32-3.45-1.28c-1.57,1.03-2.4,3-2.16,4.94c0.25,1.93,1.74,4.95,4.75,5.76
	c3.01,0.82,6.72,0.82,9.17-1.51c2.45-2.34,3.8-5.55,2.5-9.19c-1.27-3.64-4.8-9.41-10.94-10.79c-4.18-0.92-4.94-5.01-9.31-2.88
	c-2.87,1.38-7.74,3.44-10.5-0.85c-3.33,1.83-3.91,4.03-2.92,6.1c1.02,2.06,4.96,4.52,8.97,3.8c4-0.77,10.85-3.35,15.71-1.49
	c4.83,1.86,7.9,5.09,7.82,8.51c-0.08,3.42-2.1,6.17-5.34,7.4c-2.57,0.96-7.12,0.15-8.37-3.32c-1.26-3.49,0.17-4.69,0.89-5.01
	c1.02-0.46,1.95,0.46,1.28,1.37C90.75,42.76,91.66,42.66,91.55,41.36z"/>
<path fill="#FF0000" d="M136.7,35.74l0.68,1.21c8.12-4.87,2.22-17.31-5.46-16.63c-2.44,0.17-4.22,2.4-3.05,4.61
	c1.23,2.21,3.9,3.31,5.02,0.51C136.76,25.77,142.8,29.98,136.7,35.74z"/>
<path fill="#FF0000" d="M88.41,22.53c-8.88,2.84-20.38,2.25-28.15-4.35c-0.02,0-0.04,0-0.05,0c7.7,6.73,19.22,7.7,28.42,5.15
	c4.05-0.97,7.7-2.8,10.85-5.15c-0.71,0-1.41,0-2.11,0C94.75,20.06,91.76,21.58,88.41,22.53z"/>
<path fill="#FF0000" d="M121.41,51.04c0.27-0.83,0.62-1.54,1.01-2.26c-1.98-4.9-2.99-10.04-1.9-14.47
	c-1.89-4.43-3.18-4.45-4.66-4.23c-2.03-7.12-5.39-6.3-4.61-1.71c0.47,4.76,2.5,7.33,3.68,7.73c-0.33,0.93-1.21,2.97-0.51,6.89
	c0.36,1.8,0.91,3.49,1.65,5.07c1.38,0.59,2.83,1.58,4.26,2.54c-1.85-3.38-2.29-7.64-3.03-11.21c-0.73-3.84-2.57-7.9-4.76-10.3
	c2.19,2.32,4.13,6.42,4.93,10.28C118.42,43.33,119.07,47.91,121.41,51.04z"/>
<path fill="none" stroke="#000000" stroke-width="0.4996" d="M17.71,18c0,2.8,0,66.44,0,69.24c2.78,0,259.44,0,262.22,0
	c0-2.8,0-66.44,0-69.24C277.15,18,20.49,18,17.71,18z"/>
</svg>
