<?xml version="1.0" encoding="utf-8"?>
<!-- Generator: Adobe Illustrator 12.0.0, SVG Export Plug-In  -->
<!DOCTYPE svg PUBLIC "-//W3C//DTD SVG 1.1//EN" "http://www.w3.org/Graphics/SVG/1.1/DTD/svg11.dtd" [
	<!ENTITY ns_flows "http://ns.adobe.com/Flows/1.0/">
	<!ENTITY ns_svg "http://www.w3.org/2000/svg">
	<!ENTITY ns_xlink "http://www.w3.org/1999/xlink">
]>
<svg  version="1.1" xmlns="&ns_svg;" xmlns:xlink="&ns_xlink;" xmlns:a="http://ns.adobe.com/AdobeSVGViewerExtensions/3.0/"
	 width="114" height="43" viewBox="-0.3 -0.8 114 43" enable-background="new -0.3 -0.8 114 43" xml:space="preserve">
<defs>
</defs>
<path d="M0,37.6c0-3.1,2.1-6.1,6.2-8.9c3.8-2.6,7.3-3.9,10.6-3.9c2.7,0,4.1,1,4.1,3.1c0,0.5-0.1,1-0.3,1.6c0.7-0.7,2.1-2.2,4.2-4.7
	h4.6c-2.4,2.6-4.7,5.2-7.1,7.7c-3.8,4.3-5.8,6.7-5.8,7.4l0.6,0.5c1.4,0.1,3.8-1.2,7.2-3.6c3.5-2.5,5.2-3.8,5.3-3.8l0.5,0.6
	c0,0.9-2.1,2.5-6.1,4.8c-4,2.3-6.5,3.4-7.7,3.4c-1.6,0-2.4-0.9-2.4-2.6c0-0.7,0.1-1.4,0.4-2.1c-4,3.1-7.3,4.7-10.1,4.7
	C1.4,41.8,0,40.4,0,37.6z M4,40.7c2.4,0,5.6-1.5,9.6-4.5c4.1-3.1,6.1-5.9,6.1-8.2c0-1.4-0.8-2-2.3-2c-1.9,0-4.9,1.7-9,5.2
	c-4.1,3.5-6.1,6.2-6.1,8C2.2,40.2,2.8,40.7,4,40.7z"/>
<path d="M43.6,26.2l-0.4-0.4c-1.6,0-6,2.6-13.1,8l-0.4-0.5l0.2-0.4c2-1.8,4.2-3.5,6.7-5c3.3-2.1,5.7-3.2,7.3-3.2c1.4,0,2,0.7,2,2.1
	c0,1.3-0.5,2.8-1.6,4.6c5.7-4.5,9.9-6.8,12.6-6.8c1.5,0,2.2,0.9,2.2,2.6c0,2.1-1.4,4.6-4.1,7.4c-2.7,2.9-4.1,4.5-4.1,4.9
	c0,0.4,0.2,0.5,0.7,0.5c1.9,0,4.7-1.2,8.4-3.7c3.6-2.5,5.5-3.7,5.6-3.7l0.2,0.4c0,1.1-2.2,2.8-6.6,5.1c-4.2,2.2-7,3.3-8.5,3.3
	c-1.7,0-2.5-0.9-2.5-2.8c0-1.6,1.2-3.9,3.6-6.9c1.9-2,3.8-4,5.6-6.1l-0.7-0.2c-4.5,0-11.5,5.3-21.1,16h-4.6
	C35.2,36.9,39.4,31.7,43.6,26.2z"/>
<path d="M63.4,37.5c0-3,2.1-6,6.2-8.8c3.8-2.6,7.2-3.9,10.4-3.9c2.4,0,3.7,0.8,4.1,2.5L107.8,0h5.4c-6.1,7-12.3,14-18.4,21
	C84.6,32.8,79.3,39.1,79.1,39.8l0.7,0.5c1.8,0.1,4.5-1.1,8.1-3.6c3.7-2.5,5.7-3.8,5.9-3.8l0.2,0.4c-0.1,1-2.3,2.7-6.7,5
	c-4.3,2.3-7,3.4-8.3,3.4c-1.5,0-2.3-0.6-2.3-1.8c0-0.7,0.2-1.5,0.6-2.4c-3.9,2.8-7.2,4.2-10,4.2C64.7,41.8,63.4,40.4,63.4,37.5z
	 M67.4,40.6c2.4,0,5.6-1.5,9.6-4.5c4.1-3.1,6.2-5.8,6.2-8.1c0-1.4-0.8-2-2.4-2c-1.9,0-4.9,1.7-9,5.2c-4.1,3.5-6.1,6.1-6.1,8
	C65.7,40.1,66.2,40.6,67.4,40.6z"/>
</svg>
