<?xml version="1.0" encoding="utf-8"?>
<!-- Generator: Adobe Illustrator 12.0.0, SVG Export Plug-In  -->
<!DOCTYPE svg PUBLIC "-//W3C//DTD SVG 1.1//EN" "http://www.w3.org/Graphics/SVG/1.1/DTD/svg11.dtd" [
	<!ENTITY ns_flows "http://ns.adobe.com/Flows/1.0/">
	<!ENTITY ns_svg "http://www.w3.org/2000/svg">
	<!ENTITY ns_xlink "http://www.w3.org/1999/xlink">
]>
<svg  version="1.1" xmlns="&ns_svg;" xmlns:xlink="&ns_xlink;" xmlns:a="http://ns.adobe.com/AdobeSVGViewerExtensions/3.0/"
	 width="158" height="54" viewBox="-0.753 -0.494 158 54" enable-background="new -0.753 -0.494 158 54" xml:space="preserve">
<defs>
</defs>
<line fill="none" stroke="#000000" stroke-width="0.2726" x1="0.519" y1="15.463" x2="156.774" y2="15.463"/>
<line fill="none" stroke="#000000" stroke-width="0.2726" x1="0" y1="32.886" x2="156.254" y2="32.886"/>
<rect x="56.536" y="27.114" fill="#FFFFFF" width="36.793" height="10.651"/>
<rect x="61.378" y="11.625" fill="#FFFFFF" width="39.697" height="10.65"/>
<path d="M65.129,11.64c0,4.621,3.758,6.931,11.273,6.931c1.972,0,3.7-0.199,5.19-0.607v-0.436
	c-0.076-3.982,2.271-7.551,7.047-10.701c4.313-2.842,8.564-4.263,12.76-4.263c1.277,0,2.361,0.243,3.248,0.722
	c1.084,0.62,1.625,1.514,1.625,2.692c0,2.778-3.268,5.557-9.803,8.336c-5.047,2.139-9.628,3.51-13.746,4.109
	c0.059,0.73,0.289,1.389,0.695,1.967h1.303c2.896-0.117,4.344,0.549,4.344,1.989c0,0.787-0.6,1.183-1.797,1.183
	c-1.063,0-2.428-0.798-4.086-2.399c-3.652,0.233-7.273,1.547-10.867,3.943c-3.422,2.284-6.116,5.066-8.087,8.353
	c-1.411,2.32-2.116,4.195-2.116,5.627c0,1.645,1.034,2.879,3.104,3.711c1.49,0.58,3.222,0.871,5.192,0.871
	c3.851,0,7.748-0.928,11.692-2.783c4.797-2.277,7.195-5.125,7.195-8.543c0-1.021-0.512-1.803-1.537-2.345
	c-0.814-0.423-1.779-0.639-2.902-0.639c-3.117,0-6.493,1.122-10.132,3.365c-3.096,1.912-5.842,4.275-8.243,7.098l-0.261,0.115
	l-0.348-0.348l0.028-0.23c1.625-2.627,4.444-5.076,8.461-7.354c4.014-2.279,7.55-3.417,10.609-3.417c1.26,0,2.379,0.292,3.367,0.87
	c1.18,0.674,1.77,1.602,1.77,2.778c0,3.768-2.467,6.869-7.398,9.302c-4.064,1.985-8.193,2.981-12.39,2.981
	c-2.788,0-5.099-0.521-6.938-1.564c-2.265-1.316-3.396-3.279-3.396-5.889c0-4.678,2.677-8.651,8.033-11.918
	c4.406-2.668,9.251-4.245,14.528-4.725l-0.867-1.772c-1.604,0.389-3.438,0.581-5.504,0.581c-7.883,0-11.818-2.522-11.818-7.566
	c0-3.922,2.354-6.976,7.066-9.158c3.808-1.778,7.874-2.61,12.198-2.494l0.928,0.028l0.465,0.377l-0.378,0.378
	c-2.376,0.289-4.743,0.589-7.101,0.899c-2.86,0.405-5.141,1.044-6.841,1.915c-2.244,1.14-3.904,2.812-4.984,5.017
	C65.321,9.477,65.129,10.48,65.129,11.64z M105.497,5.976c0-0.869-0.424-1.547-1.271-2.031c-0.697-0.404-1.498-0.608-2.408-0.608
	c-3.344,0-7.06,1.626-11.156,4.872c-3.863,3.075-6.479,6.256-7.852,9.543c3.98-0.735,8.346-2.098,13.098-4.09
	C102.301,10.993,105.497,8.431,105.497,5.976z M87.461,22.786c0.504,0,0.752-0.17,0.752-0.511c0-0.801-1.076-1.172-3.23-1.113
	h-0.549C85.606,22.245,86.616,22.786,87.461,22.786z"/>
<path d="M26.935,48.729c-0.061-0.188-0.117-0.312-0.188-0.362c-0.056-0.035-0.158-0.045-0.204-0.045
	c-0.051,0-0.082-0.006-0.082-0.047c0-0.035,0.041-0.045,0.112-0.045c0.265,0,0.545,0.015,0.591,0.015s0.27-0.015,0.565-0.015
	c0.071,0,0.107,0.015,0.107,0.045c0,0.041-0.041,0.047-0.092,0.047c-0.041,0-0.092,0-0.127,0.02
	c-0.046,0.021-0.056,0.057-0.056,0.112c0,0.066,0.051,0.239,0.112,0.469c0.086,0.337,0.561,1.881,0.652,2.167h0.015l0.989-2.656
	c0.051-0.143,0.087-0.184,0.127-0.184c0.056,0,0.082,0.076,0.148,0.24l1.06,2.563h0.015c0.092-0.342,0.5-1.688,0.678-2.284
	c0.036-0.117,0.051-0.224,0.051-0.295c0-0.082-0.046-0.152-0.245-0.152c-0.051,0-0.086-0.016-0.086-0.047
	c0-0.035,0.041-0.045,0.117-0.045c0.27,0,0.484,0.015,0.53,0.015c0.036,0,0.255-0.015,0.423-0.015c0.056,0,0.092,0.01,0.092,0.04
	c0,0.036-0.026,0.052-0.072,0.052c-0.051,0-0.122,0.004-0.178,0.025c-0.122,0.045-0.178,0.249-0.285,0.539
	c-0.235,0.643-0.77,2.264-1.02,3.028c-0.056,0.179-0.082,0.239-0.148,0.239c-0.051,0-0.082-0.061-0.158-0.25l-1.06-2.553h-0.01
	c-0.097,0.26-0.774,2.064-0.994,2.533c-0.097,0.209-0.123,0.27-0.184,0.27c-0.051,0-0.071-0.056-0.117-0.188L26.935,48.729z"/>
<path d="M34.193,49.708c0-0.774,0-0.917-0.01-1.081c-0.01-0.173-0.061-0.26-0.173-0.285c-0.056-0.016-0.122-0.02-0.184-0.02
	c-0.051,0-0.082-0.011-0.082-0.052c0-0.03,0.041-0.04,0.123-0.04c0.194,0,0.515,0.015,0.663,0.015c0.127,0,0.428-0.015,0.622-0.015
	c0.066,0,0.107,0.01,0.107,0.04c0,0.041-0.031,0.052-0.082,0.052c-0.051,0-0.092,0.004-0.153,0.015
	c-0.137,0.025-0.178,0.112-0.188,0.29c-0.01,0.164-0.01,0.307-0.01,1.081v0.897c0,0.494,0,0.896,0.021,1.115
	c0.015,0.139,0.051,0.23,0.204,0.25c0.071,0.011,0.183,0.021,0.26,0.021c0.056,0,0.082,0.016,0.082,0.041
	c0,0.036-0.041,0.051-0.097,0.051c-0.336,0-0.658-0.015-0.795-0.015c-0.117,0-0.438,0.015-0.642,0.015
	c-0.066,0-0.102-0.015-0.102-0.051c0-0.025,0.021-0.041,0.082-0.041c0.077,0,0.138-0.01,0.184-0.021
	c0.102-0.02,0.132-0.107,0.148-0.254c0.025-0.215,0.025-0.617,0.025-1.111V49.708z"/>
<path d="M38.056,51.39c0.01,0.396,0.077,0.529,0.179,0.564c0.086,0.031,0.184,0.036,0.265,0.036c0.056,0,0.086,0.011,0.086,0.041
	c0,0.04-0.046,0.051-0.117,0.051c-0.331,0-0.535-0.015-0.632-0.015c-0.046,0-0.286,0.015-0.551,0.015
	c-0.066,0-0.112-0.005-0.112-0.051c0-0.03,0.03-0.041,0.082-0.041c0.066,0,0.158-0.005,0.229-0.025
	c0.133-0.04,0.153-0.188,0.158-0.632l0.046-3.018c0-0.102,0.015-0.174,0.066-0.174c0.056,0,0.102,0.066,0.188,0.158
	c0.061,0.066,0.836,0.897,1.58,1.637c0.347,0.346,1.035,1.08,1.121,1.162h0.026L40.62,48.81c-0.005-0.311-0.051-0.407-0.173-0.459
	c-0.076-0.029-0.199-0.029-0.27-0.029c-0.061,0-0.082-0.016-0.082-0.047c0-0.041,0.056-0.045,0.132-0.045
	c0.265,0,0.51,0.015,0.617,0.015c0.056,0,0.25-0.015,0.5-0.015c0.066,0,0.118,0.004,0.118,0.045c0,0.031-0.031,0.047-0.092,0.047
	c-0.051,0-0.092,0-0.153,0.015c-0.143,0.04-0.183,0.147-0.188,0.433l-0.056,3.217c0,0.112-0.02,0.158-0.066,0.158
	c-0.056,0-0.117-0.057-0.173-0.112c-0.321-0.306-0.974-0.974-1.504-1.499c-0.555-0.55-1.121-1.188-1.213-1.284H38L38.056,51.39z"/>
<path d="M43.898,51.599c-0.5-0.439-0.632-1.01-0.632-1.504c0-0.348,0.107-0.948,0.596-1.396c0.367-0.337,0.852-0.541,1.611-0.541
	c0.316,0,0.504,0.021,0.739,0.051c0.193,0.025,0.356,0.072,0.51,0.087c0.056,0.005,0.076,0.03,0.076,0.062
	c0,0.041-0.015,0.102-0.025,0.28c-0.01,0.168-0.005,0.448-0.015,0.55c-0.005,0.077-0.016,0.117-0.062,0.117
	c-0.041,0-0.051-0.04-0.051-0.111c-0.005-0.158-0.071-0.336-0.199-0.469c-0.168-0.179-0.566-0.316-1.035-0.316
	c-0.443,0-0.734,0.112-0.958,0.316c-0.372,0.342-0.469,0.825-0.469,1.32c0,1.213,0.922,1.814,1.605,1.814
	c0.454,0,0.729-0.051,0.933-0.286c0.087-0.097,0.153-0.245,0.173-0.337c0.016-0.081,0.026-0.102,0.066-0.102
	c0.036,0,0.046,0.036,0.046,0.076c0,0.063-0.061,0.506-0.112,0.679c-0.025,0.087-0.046,0.112-0.132,0.147
	c-0.204,0.082-0.591,0.117-0.917,0.117C44.948,52.154,44.361,52.001,43.898,51.599z"/>
<path d="M51.788,49.85c0.015,0,0.031-0.011,0.031-0.036v-0.106c0-0.774,0-0.917-0.01-1.081c-0.01-0.173-0.051-0.254-0.219-0.29
	c-0.041-0.011-0.127-0.015-0.199-0.015c-0.056,0-0.087-0.011-0.087-0.047c0-0.035,0.036-0.045,0.107-0.045
	c0.275,0,0.596,0.015,0.734,0.015c0.122,0,0.443-0.015,0.642-0.015c0.071,0,0.107,0.01,0.107,0.045c0,0.036-0.03,0.047-0.092,0.047
	c-0.041,0-0.086,0.004-0.147,0.015c-0.138,0.025-0.179,0.112-0.189,0.29c-0.01,0.164-0.01,0.307-0.01,1.081v0.897
	c0,0.469,0,0.871,0.026,1.09c0.015,0.143,0.046,0.256,0.199,0.275c0.071,0.011,0.184,0.021,0.26,0.021
	c0.056,0,0.082,0.016,0.082,0.041c0,0.036-0.041,0.051-0.102,0.051c-0.331,0-0.652-0.015-0.795-0.015
	c-0.117,0-0.438,0.015-0.637,0.015c-0.071,0-0.107-0.015-0.107-0.051c0-0.025,0.021-0.041,0.082-0.041
	c0.077,0,0.138-0.01,0.184-0.021c0.102-0.02,0.127-0.133,0.147-0.279c0.026-0.215,0.026-0.617,0.026-1.086v-0.449
	c0-0.02-0.016-0.03-0.031-0.03h-1.947c-0.015,0-0.03,0.005-0.03,0.03v0.449c0,0.469,0,0.871,0.025,1.09
	c0.015,0.143,0.046,0.256,0.199,0.275c0.071,0.011,0.184,0.021,0.26,0.021c0.056,0,0.082,0.016,0.082,0.041
	c0,0.036-0.041,0.051-0.102,0.051c-0.332,0-0.652-0.015-0.795-0.015c-0.117,0-0.438,0.015-0.642,0.015
	c-0.066,0-0.102-0.015-0.102-0.051c0-0.025,0.021-0.041,0.082-0.041c0.077,0,0.138-0.01,0.184-0.021
	c0.102-0.02,0.127-0.133,0.148-0.279c0.025-0.215,0.025-0.617,0.025-1.086v-0.897c0-0.774,0-0.917-0.01-1.081
	c-0.01-0.173-0.051-0.254-0.219-0.29c-0.041-0.011-0.127-0.015-0.199-0.015c-0.056,0-0.086-0.011-0.086-0.047
	c0-0.035,0.036-0.045,0.107-0.045c0.275,0,0.596,0.015,0.734,0.015c0.123,0,0.443-0.015,0.642-0.015c0.071,0,0.107,0.01,0.107,0.045
	c0,0.036-0.03,0.047-0.091,0.047c-0.041,0-0.087,0.004-0.148,0.015c-0.138,0.025-0.178,0.112-0.188,0.29
	c-0.01,0.164-0.01,0.307-0.01,1.081v0.106c0,0.025,0.015,0.036,0.03,0.036H51.788z"/>
<path d="M55.402,49.708c0-0.774,0-0.917-0.01-1.081c-0.01-0.173-0.051-0.254-0.219-0.29c-0.041-0.011-0.127-0.015-0.199-0.015
	c-0.056,0-0.086-0.011-0.086-0.047c0-0.035,0.036-0.045,0.112-0.045c0.138,0,0.286,0.004,0.413,0.004
	c0.132,0.006,0.25,0.011,0.321,0.011c0.163,0,1.178,0,1.274-0.005c0.097-0.01,0.179-0.021,0.219-0.031
	c0.025-0.005,0.056-0.02,0.082-0.02s0.031,0.02,0.031,0.045c0,0.036-0.026,0.098-0.041,0.332c-0.005,0.051-0.015,0.275-0.025,0.336
	c-0.005,0.025-0.015,0.057-0.051,0.057s-0.046-0.025-0.046-0.072c0-0.035-0.005-0.121-0.031-0.184
	c-0.036-0.091-0.086-0.152-0.341-0.183c-0.087-0.011-0.622-0.021-0.724-0.021c-0.025,0-0.036,0.016-0.036,0.051v1.289
	c0,0.036,0.005,0.057,0.036,0.057c0.112,0,0.698,0,0.815-0.01c0.123-0.011,0.199-0.025,0.245-0.076
	c0.036-0.041,0.056-0.066,0.082-0.066c0.02,0,0.036,0.01,0.036,0.04s-0.021,0.112-0.041,0.372c-0.005,0.102-0.021,0.307-0.021,0.342
	c0,0.041,0,0.097-0.046,0.097c-0.036,0-0.046-0.021-0.046-0.046c-0.005-0.051-0.005-0.117-0.02-0.184
	c-0.025-0.102-0.097-0.178-0.286-0.199c-0.097-0.01-0.602-0.015-0.724-0.015c-0.025,0-0.031,0.021-0.031,0.051v0.403
	c0,0.173-0.005,0.642,0,0.789c0.01,0.352,0.092,0.429,0.612,0.429c0.132,0,0.347,0,0.479-0.062c0.132-0.061,0.194-0.168,0.229-0.377
	c0.01-0.057,0.021-0.076,0.056-0.076c0.041,0,0.041,0.041,0.041,0.092c0,0.117-0.041,0.463-0.066,0.565
	c-0.036,0.133-0.082,0.133-0.275,0.133c-0.382,0-0.663-0.011-0.882-0.016c-0.219-0.011-0.377-0.015-0.53-0.015
	c-0.056,0-0.168,0-0.291,0.004c-0.117,0-0.25,0.011-0.352,0.011c-0.066,0-0.102-0.015-0.102-0.051c0-0.025,0.021-0.041,0.082-0.041
	c0.077,0,0.138-0.01,0.184-0.021c0.102-0.02,0.127-0.133,0.148-0.279c0.025-0.215,0.025-0.617,0.025-1.086V49.708z"/>
<path d="M59.617,52.021c-0.082-0.035-0.097-0.061-0.097-0.173c0-0.28,0.021-0.586,0.026-0.667c0.005-0.077,0.02-0.133,0.061-0.133
	c0.046,0,0.051,0.045,0.051,0.086c0,0.066,0.021,0.174,0.046,0.26c0.112,0.378,0.413,0.516,0.729,0.516
	c0.459,0,0.683-0.311,0.683-0.582c0-0.249-0.077-0.483-0.5-0.814l-0.234-0.184c-0.561-0.438-0.754-0.795-0.754-1.209
	c0-0.561,0.469-0.963,1.177-0.963c0.332,0,0.545,0.051,0.678,0.087c0.046,0.011,0.072,0.025,0.072,0.062
	c0,0.066-0.021,0.214-0.021,0.611c0,0.112-0.016,0.152-0.056,0.152c-0.036,0-0.051-0.03-0.051-0.092
	c0-0.045-0.026-0.203-0.133-0.336c-0.076-0.097-0.224-0.25-0.556-0.25c-0.377,0-0.606,0.22-0.606,0.525
	c0,0.234,0.117,0.412,0.541,0.734l0.143,0.106c0.617,0.464,0.836,0.815,0.836,1.3c0,0.296-0.112,0.647-0.479,0.887
	c-0.255,0.163-0.541,0.209-0.811,0.209C60.065,52.154,59.836,52.119,59.617,52.021z"/>
<path d="M64.815,48.515l-0.759,0.02c-0.296,0.011-0.418,0.036-0.495,0.148c-0.051,0.076-0.076,0.138-0.086,0.178
	c-0.01,0.041-0.025,0.062-0.056,0.062c-0.036,0-0.046-0.025-0.046-0.081c0-0.082,0.097-0.546,0.107-0.586
	c0.016-0.066,0.031-0.098,0.062-0.098c0.041,0,0.092,0.051,0.219,0.062c0.148,0.015,0.342,0.025,0.51,0.025h2.019
	c0.163,0,0.275-0.015,0.352-0.025c0.077-0.016,0.117-0.025,0.138-0.025c0.036,0,0.041,0.03,0.041,0.106
	c0,0.107-0.016,0.459-0.016,0.592c-0.005,0.051-0.015,0.082-0.046,0.082c-0.041,0-0.051-0.026-0.056-0.103l-0.005-0.056
	c-0.01-0.133-0.148-0.275-0.602-0.286l-0.642-0.015v2.09c0,0.469,0,0.871,0.025,1.09c0.016,0.143,0.046,0.256,0.199,0.275
	c0.072,0.011,0.184,0.021,0.26,0.021c0.056,0,0.082,0.016,0.082,0.041c0,0.036-0.041,0.051-0.097,0.051
	c-0.336,0-0.657-0.015-0.8-0.015c-0.117,0-0.438,0.015-0.643,0.015c-0.066,0-0.102-0.015-0.102-0.051
	c0-0.025,0.02-0.041,0.082-0.041c0.076,0,0.137-0.01,0.183-0.021c0.102-0.02,0.133-0.133,0.148-0.279
	c0.025-0.215,0.025-0.617,0.025-1.086V48.515z"/>
<path d="M69.031,49.708c0-0.774,0-0.917-0.01-1.081c-0.01-0.173-0.051-0.254-0.219-0.29c-0.041-0.011-0.127-0.015-0.199-0.015
	c-0.056,0-0.086-0.011-0.086-0.047c0-0.035,0.036-0.045,0.112-0.045c0.138,0,0.286,0.004,0.413,0.004
	c0.132,0.006,0.25,0.011,0.321,0.011c0.163,0,1.178,0,1.274-0.005c0.097-0.01,0.179-0.021,0.219-0.031
	c0.025-0.005,0.056-0.02,0.082-0.02s0.031,0.02,0.031,0.045c0,0.036-0.026,0.098-0.041,0.332c-0.005,0.051-0.015,0.275-0.025,0.336
	c-0.005,0.025-0.015,0.057-0.051,0.057s-0.046-0.025-0.046-0.072c0-0.035-0.005-0.121-0.031-0.184
	c-0.036-0.091-0.086-0.152-0.341-0.183c-0.087-0.011-0.622-0.021-0.724-0.021c-0.025,0-0.036,0.016-0.036,0.051v1.289
	c0,0.036,0.005,0.057,0.036,0.057c0.112,0,0.698,0,0.815-0.01c0.123-0.011,0.199-0.025,0.245-0.076
	c0.036-0.041,0.056-0.066,0.082-0.066c0.02,0,0.036,0.01,0.036,0.04s-0.021,0.112-0.041,0.372c-0.005,0.102-0.021,0.307-0.021,0.342
	c0,0.041,0,0.097-0.046,0.097c-0.036,0-0.046-0.021-0.046-0.046c-0.005-0.051-0.005-0.117-0.02-0.184
	c-0.025-0.102-0.097-0.178-0.286-0.199c-0.097-0.01-0.602-0.015-0.724-0.015c-0.025,0-0.031,0.021-0.031,0.051v0.403
	c0,0.173-0.005,0.642,0,0.789c0.01,0.352,0.092,0.429,0.612,0.429c0.132,0,0.347,0,0.479-0.062c0.132-0.061,0.194-0.168,0.229-0.377
	c0.01-0.057,0.021-0.076,0.056-0.076c0.041,0,0.041,0.041,0.041,0.092c0,0.117-0.041,0.463-0.066,0.565
	c-0.036,0.133-0.082,0.133-0.275,0.133c-0.382,0-0.663-0.011-0.882-0.016c-0.219-0.011-0.377-0.015-0.53-0.015
	c-0.056,0-0.168,0-0.291,0.004c-0.117,0-0.25,0.011-0.352,0.011c-0.066,0-0.102-0.015-0.102-0.051c0-0.025,0.021-0.041,0.082-0.041
	c0.077,0,0.138-0.01,0.184-0.021c0.102-0.02,0.127-0.133,0.148-0.279c0.025-0.215,0.025-0.617,0.025-1.086V49.708z"/>
<path d="M73.526,49.708c0-0.774,0-0.917-0.01-1.081c-0.01-0.173-0.051-0.254-0.219-0.29c-0.041-0.011-0.127-0.015-0.199-0.015
	c-0.056,0-0.086-0.011-0.086-0.047c0-0.035,0.036-0.045,0.112-0.045c0.271,0,0.591,0.015,0.698,0.015
	c0.173,0,0.561-0.015,0.719-0.015c0.321,0,0.663,0.029,0.938,0.219c0.143,0.097,0.347,0.356,0.347,0.698
	c0,0.377-0.158,0.724-0.673,1.142c0.454,0.57,0.805,1.024,1.106,1.34c0.286,0.297,0.495,0.332,0.571,0.348
	c0.056,0.01,0.102,0.015,0.143,0.015c0.041,0,0.062,0.016,0.062,0.041c0,0.04-0.036,0.051-0.097,0.051h-0.484
	c-0.286,0-0.413-0.025-0.545-0.097c-0.219-0.117-0.413-0.357-0.698-0.75c-0.204-0.279-0.438-0.626-0.505-0.703
	c-0.025-0.03-0.056-0.035-0.092-0.035l-0.443-0.01c-0.025,0-0.041,0.01-0.041,0.04v0.071c0,0.475,0,0.877,0.025,1.092
	c0.015,0.146,0.046,0.26,0.199,0.279c0.077,0.011,0.188,0.021,0.25,0.021c0.041,0,0.062,0.016,0.062,0.041
	c0,0.036-0.036,0.051-0.102,0.051c-0.295,0-0.673-0.015-0.75-0.015c-0.097,0-0.417,0.015-0.622,0.015
	c-0.066,0-0.102-0.015-0.102-0.051c0-0.025,0.021-0.041,0.082-0.041c0.077,0,0.138-0.01,0.184-0.021
	c0.102-0.02,0.127-0.133,0.148-0.279c0.025-0.215,0.025-0.617,0.025-1.086V49.708z M74.127,50.111c0,0.055,0.01,0.076,0.046,0.091
	c0.107,0.036,0.26,0.052,0.387,0.052c0.204,0,0.27-0.021,0.362-0.088c0.153-0.111,0.301-0.346,0.301-0.764
	c0-0.725-0.479-0.934-0.78-0.934c-0.127,0-0.219,0.006-0.27,0.021c-0.036,0.01-0.046,0.03-0.046,0.07V50.111z"/>
<path d="M78.521,51.354c0.046,0,0.061,0.025,0.127,0.128c0.086,0.127,0.112,0.209,0.112,0.264c0,0.052-0.031,0.164-0.066,0.245
	c-0.066,0.153-0.229,0.479-0.403,0.679c-0.036,0.029-0.056,0.061-0.086,0.061c-0.016,0-0.041-0.025-0.041-0.051
	s0.031-0.062,0.041-0.087c0.107-0.184,0.148-0.326,0.148-0.443c0-0.29-0.214-0.372-0.214-0.443
	C78.139,51.527,78.368,51.354,78.521,51.354z"/>
<path d="M86.223,50.217c0.01,0,0.025-0.005,0.025-0.03v-0.092c0-0.658-0.006-0.816-0.01-0.953c-0.011-0.148-0.052-0.194-0.194-0.234
	c-0.036-0.011-0.112-0.016-0.173-0.016c-0.051,0-0.077-0.016-0.077-0.046s0.03-0.041,0.097-0.041c0.24,0,0.557,0.011,0.674,0.011
	c0.106,0,0.402-0.011,0.575-0.011c0.066,0,0.097,0.011,0.097,0.041s-0.03,0.046-0.081,0.046c-0.036,0-0.077,0.005-0.133,0.016
	c-0.117,0.02-0.153,0.081-0.163,0.234c-0.01,0.137-0.01,0.26-0.01,0.917v0.765c0,0.397,0,0.739,0.02,0.928
	c0.016,0.122,0.041,0.203,0.179,0.225c0.062,0.01,0.158,0.015,0.229,0.015c0.046,0,0.071,0.026,0.071,0.046
	c0,0.031-0.036,0.046-0.092,0.046c-0.29,0-0.586-0.015-0.708-0.015c-0.102,0-0.418,0.015-0.592,0.015
	c-0.061,0-0.097-0.015-0.097-0.046c0-0.02,0.021-0.046,0.071-0.046c0.071,0,0.123-0.005,0.163-0.015
	c0.092-0.021,0.117-0.103,0.133-0.23c0.021-0.183,0.021-0.514,0.021-0.912v-0.331c0-0.015-0.016-0.025-0.025-0.025h-1.692
	c-0.016,0-0.03,0.005-0.03,0.025v0.331c0,0.398,0.004,0.729,0.025,0.918c0.015,0.122,0.041,0.203,0.173,0.225
	c0.062,0.01,0.163,0.015,0.229,0.015c0.051,0,0.071,0.026,0.071,0.046c0,0.031-0.036,0.046-0.092,0.046
	c-0.29,0-0.602-0.015-0.729-0.015c-0.102,0-0.396,0.015-0.575,0.015c-0.056,0-0.087-0.015-0.087-0.046
	c0-0.02,0.016-0.046,0.071-0.046c0.066,0,0.117-0.005,0.158-0.015c0.092-0.021,0.117-0.103,0.132-0.23
	c0.021-0.183,0.021-0.524,0.021-0.922v-0.765c0-0.657,0-0.78-0.006-0.917c-0.01-0.148-0.051-0.194-0.193-0.234
	c-0.035-0.011-0.112-0.016-0.178-0.016c-0.047,0-0.077-0.016-0.077-0.046s0.036-0.041,0.097-0.041c0.24,0,0.535,0.011,0.658,0.011
	c0.106,0,0.418-0.011,0.596-0.011c0.062,0,0.092,0.011,0.092,0.041s-0.025,0.046-0.082,0.046c-0.035,0-0.076,0.005-0.127,0.016
	c-0.122,0.02-0.158,0.081-0.168,0.234c-0.01,0.137-0.01,0.295-0.01,0.953v0.092c0,0.025,0.015,0.03,0.03,0.03H86.223z"/>
<path d="M89.786,50.992c-0.025,0-0.031,0.006-0.041,0.031l-0.239,0.58c-0.046,0.107-0.066,0.215-0.066,0.266
	c0,0.076,0.041,0.122,0.179,0.122h0.066c0.056,0,0.066,0.021,0.066,0.046c0,0.035-0.025,0.046-0.072,0.046
	c-0.147,0-0.356-0.015-0.499-0.015c-0.046,0-0.286,0.015-0.521,0.015c-0.056,0-0.081-0.011-0.081-0.046
	c0-0.025,0.015-0.046,0.051-0.046c0.041,0,0.092-0.005,0.133-0.005c0.204-0.031,0.28-0.163,0.372-0.383l1.172-2.727
	c0.051-0.122,0.087-0.174,0.133-0.174c0.066,0,0.086,0.041,0.133,0.139c0.107,0.239,0.855,2.014,1.142,2.67
	c0.173,0.393,0.301,0.449,0.382,0.465c0.066,0.01,0.117,0.015,0.168,0.015c0.041,0,0.062,0.016,0.062,0.046
	c0,0.035-0.025,0.046-0.193,0.046c-0.158,0-0.484,0-0.861-0.011c-0.082-0.004-0.133-0.004-0.133-0.035
	c0-0.025,0.011-0.041,0.056-0.046c0.031-0.005,0.062-0.046,0.041-0.097l-0.346-0.871c-0.011-0.025-0.026-0.031-0.047-0.031H89.786z
	 M90.744,50.752c0.021,0,0.025-0.011,0.021-0.025l-0.423-1.101c-0.005-0.016-0.011-0.041-0.021-0.041
	c-0.016,0-0.021,0.025-0.025,0.041l-0.434,1.096c-0.01,0.02,0,0.03,0.016,0.03H90.744z"/>
<path d="M94.358,48.821c0.01-0.071,0.051-0.112,0.086-0.112c0.046,0,0.076,0.021,0.138,0.138l1.202,2.416l1.203-2.446
	c0.036-0.072,0.077-0.107,0.117-0.107c0.036,0,0.088,0.046,0.103,0.138l0.407,2.676c0.041,0.271,0.082,0.388,0.22,0.429
	c0.128,0.035,0.198,0.04,0.255,0.04c0.041,0,0.071,0.016,0.071,0.041c0,0.036-0.051,0.051-0.117,0.051
	c-0.112,0-0.749-0.021-0.928-0.03c-0.106-0.006-0.132-0.025-0.132-0.051c0-0.021,0.02-0.036,0.051-0.047
	c0.025-0.01,0.035-0.061,0.02-0.183l-0.25-1.876h-0.015l-0.964,1.938c-0.102,0.203-0.127,0.244-0.178,0.244
	c-0.057,0-0.107-0.087-0.179-0.219c-0.106-0.199-0.464-0.861-0.515-0.984c-0.035-0.082-0.301-0.627-0.449-0.928H94.49l-0.214,1.692
	c-0.01,0.077-0.016,0.133-0.016,0.204c0,0.082,0.062,0.111,0.138,0.127c0.077,0.016,0.117,0.021,0.158,0.021
	c0.04,0,0.071,0.021,0.071,0.041c0,0.04-0.041,0.051-0.107,0.051c-0.188,0-0.393-0.015-0.474-0.015
	c-0.087,0-0.301,0.015-0.443,0.015c-0.046,0-0.081-0.011-0.081-0.051c0-0.021,0.025-0.041,0.07-0.041c0.036,0,0.066,0,0.139-0.01
	c0.121-0.016,0.162-0.188,0.183-0.331L94.358,48.821z"/>
<path d="M100.167,50.059c0-0.657,0-0.78-0.005-0.917c-0.01-0.148-0.051-0.194-0.193-0.234c-0.036-0.011-0.113-0.016-0.179-0.016
	c-0.046,0-0.077-0.016-0.077-0.046s0.036-0.041,0.103-0.041c0.234,0,0.521,0.011,0.647,0.011c0.184,0,0.54-0.011,0.744-0.011
	c0.561,0,0.764,0.184,0.836,0.245c0.097,0.092,0.225,0.285,0.225,0.52c0,0.611-0.49,1.05-1.127,1.05c-0.021,0-0.112,0-0.133-0.005
	c-0.025,0-0.056-0.016-0.056-0.046c0-0.036,0.051-0.056,0.147-0.056c0.25,0,0.602-0.26,0.602-0.703c0-0.144-0.016-0.429-0.266-0.643
	c-0.162-0.143-0.346-0.164-0.447-0.164c-0.066,0-0.153,0.006-0.194,0.021c-0.025,0.01-0.036,0.035-0.036,0.081v1.718
	c0,0.397,0,0.739,0.021,0.928c0.015,0.122,0.04,0.203,0.173,0.225c0.065,0.01,0.163,0.015,0.229,0.015
	c0.051,0,0.071,0.026,0.071,0.046c0,0.031-0.036,0.046-0.081,0.046c-0.301,0-0.617-0.015-0.734-0.015
	c-0.102,0-0.388,0.015-0.566,0.015c-0.056,0-0.086-0.015-0.086-0.046c0-0.02,0.016-0.046,0.07-0.046
	c0.066,0,0.118-0.005,0.158-0.015c0.092-0.021,0.117-0.103,0.133-0.23c0.021-0.183,0.021-0.524,0.021-0.922V50.059z"/>
<path d="M104.26,52.027c-0.071-0.031-0.086-0.051-0.086-0.148c0-0.234,0.02-0.504,0.025-0.576c0-0.066,0.02-0.111,0.056-0.111
	c0.04,0,0.046,0.041,0.046,0.071c0,0.056,0.016,0.147,0.041,0.224c0.096,0.322,0.433,0.429,0.713,0.429
	c0.388,0,0.622-0.245,0.622-0.551c0-0.188-0.046-0.377-0.443-0.611l-0.26-0.153c-0.53-0.311-0.704-0.602-0.704-0.983
	c0-0.53,0.51-0.872,1.132-0.872c0.29,0,0.521,0.041,0.638,0.072c0.041,0.01,0.061,0.025,0.061,0.056
	c0,0.056-0.016,0.179-0.016,0.521c0,0.092-0.02,0.137-0.056,0.137c-0.03,0-0.046-0.025-0.046-0.076c0-0.041-0.02-0.174-0.117-0.285
	c-0.066-0.082-0.209-0.204-0.5-0.204c-0.32,0-0.611,0.168-0.611,0.464c0,0.193,0.072,0.347,0.475,0.57l0.184,0.103
	c0.591,0.326,0.774,0.657,0.774,1.05c0,0.321-0.122,0.581-0.448,0.811c-0.215,0.152-0.51,0.178-0.75,0.178
	C104.729,52.138,104.454,52.113,104.26,52.027z"/>
<path d="M110.754,50.217c0.01,0,0.025-0.005,0.025-0.03v-0.092c0-0.658-0.005-0.816-0.01-0.953c-0.01-0.148-0.051-0.194-0.193-0.234
	c-0.036-0.011-0.113-0.016-0.174-0.016c-0.051,0-0.076-0.016-0.076-0.046s0.03-0.041,0.097-0.041c0.239,0,0.556,0.011,0.673,0.011
	c0.107,0,0.402-0.011,0.576-0.011c0.066,0,0.097,0.011,0.097,0.041s-0.03,0.046-0.082,0.046c-0.036,0-0.076,0.005-0.132,0.016
	c-0.117,0.02-0.153,0.081-0.164,0.234c-0.01,0.137-0.01,0.26-0.01,0.917v0.765c0,0.397,0,0.739,0.021,0.928
	c0.015,0.122,0.04,0.203,0.179,0.225c0.061,0.01,0.158,0.015,0.229,0.015c0.047,0,0.072,0.026,0.072,0.046
	c0,0.031-0.036,0.046-0.092,0.046c-0.291,0-0.586-0.015-0.709-0.015c-0.102,0-0.418,0.015-0.592,0.015
	c-0.061,0-0.096-0.015-0.096-0.046c0-0.02,0.02-0.046,0.07-0.046c0.072,0,0.123-0.005,0.164-0.015
	c0.092-0.021,0.117-0.103,0.133-0.23c0.02-0.183,0.02-0.514,0.02-0.912v-0.331c0-0.015-0.016-0.025-0.025-0.025h-1.691
	c-0.016,0-0.031,0.005-0.031,0.025v0.331c0,0.398,0.005,0.729,0.025,0.918c0.016,0.122,0.041,0.203,0.174,0.225
	c0.061,0.01,0.162,0.015,0.229,0.015c0.051,0,0.072,0.026,0.072,0.046c0,0.031-0.036,0.046-0.092,0.046
	c-0.291,0-0.602-0.015-0.729-0.015c-0.102,0-0.397,0.015-0.575,0.015c-0.057,0-0.088-0.015-0.088-0.046
	c0-0.02,0.016-0.046,0.072-0.046c0.066,0,0.117-0.005,0.158-0.015c0.092-0.021,0.117-0.103,0.132-0.23
	c0.021-0.183,0.021-0.524,0.021-0.922v-0.765c0-0.657,0-0.78-0.005-0.917c-0.011-0.148-0.052-0.194-0.194-0.234
	c-0.035-0.011-0.111-0.016-0.178-0.016c-0.046,0-0.076-0.016-0.076-0.046s0.035-0.041,0.096-0.041c0.24,0,0.536,0.011,0.658,0.011
	c0.107,0,0.418-0.011,0.596-0.011c0.063,0,0.092,0.011,0.092,0.041s-0.025,0.046-0.081,0.046c-0.036,0-0.076,0.005-0.128,0.016
	c-0.121,0.02-0.157,0.081-0.168,0.234c-0.01,0.137-0.01,0.295-0.01,0.953v0.092c0,0.025,0.016,0.03,0.031,0.03H110.754z"/>
<path d="M114.124,50.059c0-0.657,0-0.78-0.005-0.917c-0.011-0.148-0.056-0.199-0.153-0.23c-0.051-0.015-0.107-0.02-0.162-0.02
	c-0.047,0-0.072-0.01-0.072-0.051c0-0.025,0.035-0.036,0.107-0.036c0.168,0,0.474,0.011,0.602,0.011
	c0.111,0,0.402-0.011,0.576-0.011c0.056,0,0.092,0.011,0.092,0.036c0,0.041-0.025,0.051-0.072,0.051
	c-0.045,0-0.081,0.005-0.133,0.016c-0.121,0.02-0.157,0.081-0.168,0.234c-0.01,0.137-0.01,0.26-0.01,0.917v0.765
	c0,0.418,0,0.765,0.021,0.948c0.015,0.117,0.046,0.183,0.179,0.204c0.061,0.01,0.162,0.015,0.229,0.015
	c0.051,0,0.072,0.026,0.072,0.046c0,0.031-0.036,0.046-0.088,0.046c-0.295,0-0.601-0.015-0.723-0.015
	c-0.103,0-0.408,0.015-0.586,0.015c-0.057,0-0.088-0.015-0.088-0.046c0-0.02,0.016-0.046,0.072-0.046
	c0.066,0,0.117-0.005,0.158-0.015c0.092-0.021,0.117-0.082,0.132-0.209c0.021-0.179,0.021-0.525,0.021-0.943V50.059z"/>
<path d="M117.472,50.059c0-0.657,0-0.78-0.005-0.917c-0.01-0.148-0.051-0.194-0.193-0.234c-0.036-0.011-0.113-0.016-0.179-0.016
	c-0.046,0-0.077-0.016-0.077-0.046s0.036-0.041,0.103-0.041c0.234,0,0.521,0.011,0.612,0.011c0.152,0,0.561-0.011,0.697-0.011
	c0.285,0,0.611,0.025,0.852,0.184c0.127,0.087,0.316,0.306,0.316,0.597c0,0.32-0.184,0.606-0.622,0.958
	c0.397,0.489,0.714,0.882,0.983,1.151c0.25,0.25,0.408,0.271,0.479,0.286c0.046,0.01,0.071,0.01,0.106,0.01
	c0.036,0,0.057,0.026,0.057,0.046c0,0.035-0.031,0.046-0.087,0.046h-0.429c-0.249,0-0.371-0.025-0.488-0.087
	c-0.194-0.097-0.362-0.301-0.612-0.637c-0.179-0.234-0.366-0.525-0.423-0.592c-0.025-0.025-0.051-0.03-0.082-0.03l-0.402-0.01
	c-0.02,0-0.035,0.01-0.035,0.036v0.061c0,0.402,0.005,0.739,0.025,0.922c0.016,0.128,0.035,0.209,0.173,0.23
	c0.066,0.01,0.163,0.015,0.22,0.015c0.035,0,0.056,0.026,0.056,0.046c0,0.031-0.036,0.046-0.092,0.046
	c-0.26,0-0.632-0.015-0.698-0.015c-0.086,0-0.372,0.015-0.551,0.015c-0.056,0-0.086-0.015-0.086-0.046
	c0-0.02,0.016-0.046,0.07-0.046c0.066,0,0.118-0.005,0.158-0.015c0.092-0.021,0.117-0.103,0.133-0.23
	c0.021-0.183,0.021-0.524,0.021-0.922V50.059z M118.043,50.396c0,0.045,0.01,0.061,0.041,0.076c0.096,0.03,0.229,0.041,0.341,0.041
	c0.179,0,0.239-0.016,0.315-0.072c0.139-0.096,0.291-0.285,0.291-0.642c0-0.612-0.418-0.77-0.683-0.77
	c-0.112,0-0.22,0.005-0.265,0.015c-0.031,0.011-0.041,0.025-0.041,0.062V50.396z"/>
<path d="M122.243,50.059c0-0.657,0-0.78-0.004-0.917c-0.011-0.148-0.052-0.194-0.194-0.234c-0.036-0.011-0.112-0.016-0.179-0.016
	c-0.045,0-0.076-0.016-0.076-0.046s0.035-0.041,0.102-0.041c0.234,0,0.521,0.011,0.648,0.011c0.143,0,1.136,0.005,1.223,0
	c0.082-0.006,0.152-0.021,0.188-0.025c0.025-0.006,0.052-0.021,0.071-0.021c0.025,0,0.031,0.021,0.031,0.041
	c0,0.031-0.025,0.082-0.036,0.281c-0.005,0.045-0.015,0.234-0.025,0.285c-0.005,0.02-0.016,0.07-0.052,0.07
	c-0.029,0-0.035-0.02-0.035-0.055c0-0.031-0.005-0.107-0.03-0.158c-0.036-0.077-0.071-0.139-0.296-0.158
	c-0.076-0.01-0.611-0.021-0.703-0.021c-0.021,0-0.031,0.015-0.031,0.04v1.07c0,0.026,0.006,0.047,0.031,0.047
	c0.102,0,0.683,0,0.785-0.011c0.106-0.01,0.173-0.021,0.214-0.065c0.036-0.031,0.051-0.057,0.071-0.057
	c0.02,0,0.035,0.021,0.035,0.046s-0.01,0.097-0.035,0.315c-0.01,0.087-0.021,0.26-0.021,0.291c0,0.035-0.005,0.097-0.046,0.097
	c-0.031,0-0.041-0.015-0.041-0.036c-0.005-0.045-0.005-0.102-0.016-0.157c-0.025-0.087-0.081-0.153-0.249-0.169
	c-0.081-0.01-0.591-0.02-0.704-0.02c-0.02,0-0.025,0.02-0.025,0.045v0.348c0,0.147-0.005,0.515,0,0.643
	c0.011,0.295,0.148,0.361,0.607,0.361c0.117,0,0.305-0.006,0.423-0.057c0.112-0.051,0.163-0.143,0.193-0.32
	c0.011-0.047,0.021-0.066,0.052-0.066c0.035,0,0.04,0.056,0.04,0.102c0,0.098-0.036,0.393-0.062,0.479
	c-0.03,0.112-0.07,0.112-0.239,0.112c-0.337,0-0.606-0.006-0.825-0.016c-0.22-0.006-0.388-0.01-0.521-0.01
	c-0.051,0-0.147,0.004-0.255,0.004c-0.107,0.006-0.219,0.011-0.311,0.011c-0.057,0-0.087-0.015-0.087-0.046
	c0-0.02,0.016-0.046,0.071-0.046c0.066,0,0.117-0.005,0.158-0.015c0.092-0.021,0.117-0.103,0.133-0.23
	c0.02-0.183,0.02-0.524,0.02-0.922V50.059z"/>
<path d="M11.183,19.801c0.132-0.365,0.177-0.431,0.243-0.431c0.066,0,0.11,0.055,0.243,0.397c0.166,0.419,1.899,4.98,2.573,6.659
	c0.397,0.983,0.718,1.16,0.95,1.226c0.166,0.056,0.331,0.066,0.441,0.066c0.066,0,0.111,0.011,0.111,0.066
	c0,0.066-0.1,0.088-0.221,0.088c-0.166,0-0.972,0-1.734-0.022c-0.209-0.011-0.331-0.011-0.331-0.078
	c0-0.044,0.033-0.066,0.077-0.077c0.066-0.022,0.133-0.122,0.066-0.298l-1.027-2.717c-0.022-0.044-0.044-0.066-0.1-0.066h-2.375
	c-0.055,0-0.088,0.033-0.11,0.088l-0.663,1.955c-0.1,0.276-0.155,0.541-0.155,0.74c0,0.221,0.232,0.32,0.42,0.32h0.11
	c0.077,0,0.11,0.022,0.11,0.066c0,0.066-0.066,0.088-0.166,0.088c-0.265,0-0.74-0.033-0.861-0.033s-0.729,0.033-1.248,0.033
	c-0.144,0-0.21-0.022-0.21-0.088c0-0.044,0.044-0.066,0.1-0.066c0.077,0,0.232-0.011,0.32-0.022
	c0.508-0.066,0.729-0.486,0.928-1.038L11.183,19.801z M12.332,24.219c0.055,0,0.055-0.033,0.044-0.078l-1.049-2.981
	c-0.055-0.166-0.11-0.166-0.166,0l-0.972,2.981c-0.022,0.055,0,0.078,0.033,0.078H12.332z"/>
<path d="M23.143,26.372c0.022,0.906,0.133,1.193,0.431,1.281c0.209,0.056,0.453,0.066,0.552,0.066c0.056,0,0.088,0.022,0.088,0.066
	c0,0.066-0.066,0.088-0.199,0.088c-0.629,0-1.071-0.033-1.17-0.033c-0.1,0-0.563,0.033-1.06,0.033c-0.111,0-0.177-0.011-0.177-0.088
	c0-0.044,0.033-0.066,0.088-0.066c0.088,0,0.287-0.011,0.453-0.066c0.276-0.077,0.331-0.397,0.331-1.402l0.011-6.328
	c0-0.431,0.033-0.552,0.122-0.552s0.276,0.243,0.386,0.353c0.166,0.188,1.812,1.966,3.512,3.788c1.093,1.17,2.297,2.518,2.65,2.882
	l-0.122-5.61c-0.011-0.718-0.088-0.961-0.431-1.049c-0.199-0.044-0.453-0.055-0.541-0.055c-0.078,0-0.088-0.033-0.088-0.077
	c0-0.066,0.088-0.078,0.221-0.078c0.497,0,1.027,0.033,1.148,0.033c0.122,0,0.486-0.033,0.939-0.033
	c0.122,0,0.199,0.011,0.199,0.078c0,0.044-0.044,0.077-0.122,0.077c-0.055,0-0.132,0-0.265,0.033
	c-0.364,0.077-0.409,0.32-0.409,0.983l-0.022,6.471c0,0.729-0.022,0.784-0.099,0.784c-0.088,0-0.221-0.122-0.806-0.707
	c-0.122-0.11-1.712-1.734-2.882-2.993c-1.281-1.38-2.529-2.771-2.883-3.169L23.143,26.372z"/>
<path d="M39.123,26.372c0.022,0.906,0.133,1.193,0.431,1.281c0.209,0.056,0.453,0.066,0.552,0.066c0.056,0,0.088,0.022,0.088,0.066
	c0,0.066-0.066,0.088-0.199,0.088c-0.629,0-1.071-0.033-1.17-0.033c-0.1,0-0.563,0.033-1.06,0.033c-0.111,0-0.177-0.011-0.177-0.088
	c0-0.044,0.033-0.066,0.088-0.066c0.088,0,0.287-0.011,0.453-0.066c0.276-0.077,0.331-0.397,0.331-1.402l0.011-6.328
	c0-0.431,0.033-0.552,0.122-0.552s0.276,0.243,0.386,0.353c0.166,0.188,1.812,1.966,3.512,3.788c1.093,1.17,2.297,2.518,2.65,2.882
	l-0.122-5.61c-0.011-0.718-0.088-0.961-0.431-1.049c-0.199-0.044-0.453-0.055-0.541-0.055c-0.078,0-0.088-0.033-0.088-0.077
	c0-0.066,0.088-0.078,0.221-0.078c0.497,0,1.027,0.033,1.148,0.033c0.122,0,0.486-0.033,0.939-0.033
	c0.122,0,0.199,0.011,0.199,0.078c0,0.044-0.044,0.077-0.122,0.077c-0.055,0-0.132,0-0.265,0.033
	c-0.364,0.077-0.409,0.32-0.409,0.983l-0.022,6.471c0,0.729-0.022,0.784-0.099,0.784c-0.088,0-0.221-0.122-0.806-0.707
	c-0.122-0.11-1.712-1.734-2.882-2.993c-1.281-1.38-2.529-2.771-2.883-3.169L39.123,26.372z"/>
<path d="M56.395,19.801c0.132-0.365,0.177-0.431,0.243-0.431c0.066,0,0.11,0.055,0.243,0.397c0.166,0.419,1.899,4.98,2.573,6.659
	c0.397,0.983,0.718,1.16,0.95,1.226c0.166,0.056,0.331,0.066,0.441,0.066c0.066,0,0.111,0.011,0.111,0.066
	c0,0.066-0.1,0.088-0.221,0.088c-0.166,0-0.972,0-1.734-0.022c-0.209-0.011-0.331-0.011-0.331-0.078
	c0-0.044,0.033-0.066,0.077-0.077c0.066-0.022,0.133-0.122,0.066-0.298l-1.027-2.717c-0.022-0.044-0.044-0.066-0.1-0.066h-2.375
	c-0.055,0-0.088,0.033-0.11,0.088l-0.663,1.955c-0.1,0.276-0.155,0.541-0.155,0.74c0,0.221,0.232,0.32,0.42,0.32h0.11
	c0.077,0,0.11,0.022,0.11,0.066c0,0.066-0.066,0.088-0.166,0.088c-0.265,0-0.74-0.033-0.861-0.033s-0.729,0.033-1.248,0.033
	c-0.144,0-0.21-0.022-0.21-0.088c0-0.044,0.044-0.066,0.1-0.066c0.077,0,0.232-0.011,0.32-0.022
	c0.508-0.066,0.729-0.486,0.928-1.038L56.395,19.801z M57.543,24.219c0.055,0,0.055-0.033,0.044-0.078l-1.049-2.981
	c-0.055-0.166-0.11-0.166-0.166,0l-0.972,2.981c-0.022,0.055,0,0.078,0.033,0.078H57.543z"/>
<path d="M95.391,22.728c0-1.723,0-2.032-0.022-2.385c-0.022-0.375-0.11-0.552-0.476-0.629c-0.088-0.022-0.275-0.033-0.375-0.033
	c-0.044,0-0.088-0.022-0.088-0.066c0-0.066,0.055-0.088,0.176-0.088c0.498,0,1.16,0.033,1.248,0.033
	c0.243,0,0.884-0.033,1.393-0.033c1.38,0,1.877,0.464,2.053,0.629c0.244,0.232,0.553,0.729,0.553,1.314
	c0,1.568-1.148,2.628-2.717,2.628c-0.055,0-0.177,0-0.232-0.011c-0.055,0-0.121-0.022-0.121-0.077c0-0.088,0.066-0.1,0.299-0.1
	c1.07,0,1.91-0.784,1.91-1.8c0-0.365-0.033-1.104-0.618-1.701c-0.585-0.597-1.259-0.552-1.513-0.552
	c-0.188,0-0.376,0.022-0.476,0.066c-0.065,0.022-0.089,0.1-0.089,0.21v4.539c0,1.06,0,1.933,0.057,2.396
	c0.032,0.32,0.099,0.563,0.43,0.607c0.154,0.022,0.398,0.044,0.497,0.044c0.066,0,0.089,0.033,0.089,0.066
	c0,0.055-0.056,0.088-0.178,0.088c-0.606,0-1.303-0.033-1.357-0.033c-0.033,0-0.729,0.033-1.061,0.033
	c-0.121,0-0.177-0.022-0.177-0.088c0-0.033,0.022-0.066,0.089-0.066c0.1,0,0.231-0.022,0.331-0.044
	c0.221-0.044,0.276-0.287,0.32-0.607c0.056-0.464,0.056-1.336,0.056-2.396V22.728z"/>
<path d="M107.836,22.728c0-1.723,0-2.032-0.021-2.385c-0.023-0.375-0.111-0.552-0.476-0.629c-0.089-0.022-0.276-0.033-0.376-0.033
	c-0.043,0-0.088-0.022-0.088-0.066c0-0.066,0.055-0.088,0.177-0.088c0.254,0,0.552,0,0.795,0.011l0.453,0.022
	c0.077,0,2.274,0,2.528-0.011c0.211-0.011,0.387-0.033,0.476-0.055c0.056-0.011,0.099-0.055,0.154-0.055
	c0.033,0,0.044,0.044,0.044,0.1c0,0.077-0.055,0.21-0.088,0.519c-0.012,0.11-0.033,0.596-0.055,0.729
	c-0.012,0.055-0.033,0.121-0.078,0.121c-0.066,0-0.088-0.055-0.088-0.144c0-0.077-0.012-0.265-0.066-0.397
	c-0.078-0.177-0.188-0.309-0.784-0.375c-0.188-0.022-1.392-0.033-1.513-0.033c-0.045,0-0.066,0.033-0.066,0.11v3.048
	c0,0.077,0.011,0.11,0.066,0.11c0.143,0,1.502,0,1.756-0.022c0.265-0.022,0.42-0.044,0.52-0.155
	c0.076-0.088,0.121-0.144,0.165-0.144c0.033,0,0.056,0.022,0.056,0.088s-0.056,0.254-0.089,0.619
	c-0.022,0.221-0.044,0.629-0.044,0.707c0,0.088,0,0.21-0.078,0.21c-0.055,0-0.076-0.044-0.076-0.1c0-0.11,0-0.221-0.045-0.364
	c-0.044-0.155-0.144-0.342-0.574-0.387c-0.298-0.033-1.392-0.055-1.579-0.055c-0.056,0-0.077,0.033-0.077,0.078v0.972
	c0,0.375-0.012,1.656,0,1.888c0.033,0.762,0.199,0.906,1.281,0.906c0.287,0,0.772,0,1.061-0.122
	c0.287-0.122,0.419-0.342,0.496-0.795c0.022-0.122,0.045-0.166,0.1-0.166c0.066,0,0.066,0.088,0.066,0.166
	c0,0.088-0.088,0.839-0.144,1.071c-0.077,0.287-0.166,0.287-0.597,0.287c-0.828,0-1.436-0.022-1.866-0.033
	c-0.431-0.022-0.696-0.033-0.861-0.033c-0.022,0-0.21,0-0.442,0.011c-0.221,0-0.475,0.022-0.641,0.022
	c-0.121,0-0.176-0.022-0.176-0.088c0-0.033,0.021-0.066,0.088-0.066c0.1,0,0.232-0.022,0.332-0.044
	c0.221-0.044,0.275-0.287,0.32-0.607c0.055-0.464,0.055-1.336,0.055-2.396V22.728z"/>
<path d="M122.447,24.671c0,1.06,0,1.933,0.056,2.396c0.033,0.32,0.1,0.563,0.43,0.607c0.155,0.022,0.398,0.044,0.498,0.044
	c0.066,0,0.088,0.033,0.088,0.066c0,0.055-0.055,0.088-0.177,0.088c-0.607,0-1.303-0.033-1.358-0.033
	c-0.055,0-0.751,0.033-1.082,0.033c-0.121,0-0.177-0.022-0.177-0.088c0-0.033,0.022-0.066,0.089-0.066c0.1,0,0.231-0.022,0.33-0.044
	c0.222-0.044,0.277-0.287,0.32-0.607c0.056-0.464,0.056-1.336,0.056-2.396V20l-1.634,0.022c-0.686,0.011-0.95,0.088-1.127,0.354
	c-0.121,0.188-0.154,0.265-0.188,0.342c-0.033,0.088-0.066,0.11-0.11,0.11c-0.033,0-0.056-0.033-0.056-0.099
	c0-0.111,0.221-1.061,0.243-1.149c0.022-0.066,0.066-0.209,0.11-0.209c0.077,0,0.188,0.11,0.486,0.132
	c0.32,0.033,0.74,0.055,0.872,0.055h4.142c0.354,0,0.607-0.022,0.783-0.055c0.166-0.022,0.266-0.055,0.311-0.055
	c0.055,0,0.055,0.066,0.055,0.132c0,0.332-0.033,1.093-0.033,1.215c0,0.1-0.033,0.144-0.077,0.144c-0.056,0-0.077-0.033-0.089-0.188
	l-0.011-0.122c-0.033-0.332-0.298-0.585-1.358-0.607L122.447,20V24.671z"/>
<path d="M133.248,22.728c0-1.723,0-2.032-0.022-2.385c-0.021-0.375-0.11-0.552-0.475-0.629c-0.088-0.022-0.275-0.033-0.375-0.033
	c-0.045,0-0.089-0.022-0.089-0.066c0-0.066,0.056-0.088,0.177-0.088c0.254,0,0.553,0,0.795,0.011l0.453,0.022
	c0.077,0,2.275,0,2.529-0.011c0.209-0.011,0.387-0.033,0.475-0.055c0.055-0.011,0.1-0.055,0.154-0.055
	c0.033,0,0.045,0.044,0.045,0.1c0,0.077-0.056,0.21-0.089,0.519c-0.011,0.11-0.033,0.596-0.056,0.729
	c-0.011,0.055-0.033,0.121-0.077,0.121c-0.065,0-0.089-0.055-0.089-0.144c0-0.077-0.01-0.265-0.065-0.397
	c-0.077-0.177-0.188-0.309-0.784-0.375c-0.188-0.022-1.392-0.033-1.514-0.033c-0.043,0-0.065,0.033-0.065,0.11v3.048
	c0,0.077,0.011,0.11,0.065,0.11c0.145,0,1.502,0,1.757-0.022c0.265-0.022,0.419-0.044,0.519-0.155
	c0.078-0.088,0.121-0.144,0.166-0.144c0.033,0,0.055,0.022,0.055,0.088s-0.055,0.254-0.088,0.619
	c-0.021,0.221-0.045,0.629-0.045,0.707c0,0.088,0,0.21-0.076,0.21c-0.056,0-0.078-0.044-0.078-0.1c0-0.11,0-0.221-0.044-0.364
	c-0.044-0.155-0.144-0.342-0.574-0.387c-0.298-0.033-1.392-0.055-1.579-0.055c-0.055,0-0.077,0.033-0.077,0.078v0.972
	c0,0.375-0.011,1.656,0,1.888c0.033,0.762,0.198,0.906,1.28,0.906c0.287,0,0.773,0,1.061-0.122s0.42-0.342,0.497-0.795
	c0.022-0.122,0.044-0.166,0.1-0.166c0.066,0,0.066,0.088,0.066,0.166c0,0.088-0.089,0.839-0.144,1.071
	c-0.078,0.287-0.166,0.287-0.597,0.287c-0.828,0-1.436-0.022-1.866-0.033c-0.431-0.022-0.695-0.033-0.861-0.033
	c-0.021,0-0.21,0-0.441,0.011c-0.221,0-0.475,0.022-0.641,0.022c-0.122,0-0.178-0.022-0.178-0.088c0-0.033,0.023-0.066,0.089-0.066
	c0.1,0,0.231-0.022,0.331-0.044c0.221-0.044,0.276-0.287,0.32-0.607c0.056-0.464,0.056-1.336,0.056-2.396V22.728z"/>
<path d="M145.506,22.728c0-1.723,0-2.032-0.022-2.385c-0.022-0.375-0.11-0.552-0.476-0.629c-0.088-0.022-0.275-0.033-0.375-0.033
	c-0.044,0-0.088-0.022-0.088-0.066c0-0.066,0.055-0.088,0.176-0.088c0.498,0,1.193,0.033,1.248,0.033
	c0.122,0,0.961-0.033,1.304-0.033c0.695,0,1.436,0.066,2.021,0.486c0.276,0.199,0.762,0.74,0.762,1.502
	c0,0.817-0.342,1.635-1.336,2.551c0.906,1.16,1.656,2.143,2.297,2.827c0.597,0.629,1.072,0.751,1.348,0.795
	c0.21,0.033,0.364,0.033,0.431,0.033c0.056,0,0.1,0.033,0.1,0.066c0,0.066-0.066,0.088-0.265,0.088h-0.785
	c-0.617,0-0.895-0.055-1.182-0.21c-0.475-0.254-0.861-0.795-1.49-1.624c-0.464-0.607-0.982-1.347-1.204-1.634
	c-0.044-0.044-0.077-0.066-0.144-0.066l-1.357-0.022c-0.057,0-0.078,0.033-0.078,0.088v0.265c0,1.06,0,1.933,0.055,2.396
	c0.033,0.32,0.1,0.563,0.432,0.607c0.154,0.022,0.397,0.044,0.496,0.044c0.066,0,0.089,0.033,0.089,0.066
	c0,0.055-0.056,0.088-0.177,0.088c-0.607,0-1.303-0.033-1.358-0.033c-0.011,0-0.706,0.033-1.038,0.033
	c-0.121,0-0.177-0.022-0.177-0.088c0-0.033,0.022-0.066,0.089-0.066c0.1,0,0.231-0.022,0.331-0.044
	c0.221-0.044,0.276-0.287,0.32-0.607c0.056-0.464,0.056-1.336,0.056-2.396V22.728z M146.389,23.688c0,0.055,0.021,0.099,0.078,0.132
	c0.165,0.1,0.673,0.177,1.158,0.177c0.266,0,0.574-0.033,0.829-0.21c0.386-0.265,0.673-0.861,0.673-1.701
	c0-1.38-0.729-2.208-1.91-2.208c-0.331,0-0.629,0.033-0.74,0.066c-0.055,0.022-0.088,0.066-0.088,0.132V23.688z"/>
</svg>
